<?xml version="1.0" encoding="UTF-8" standalone="no"?>
<svg
   width="64"
   height="64"
   version="1.1"
   id="svg73"
   sodipodi:docname="camera-photo.svg"
   inkscape:version="1.4.2 (ebf0e940d0, 2025-05-08)"
   xmlns:inkscape="http://www.inkscape.org/namespaces/inkscape"
   xmlns:sodipodi="http://sodipodi.sourceforge.net/DTD/sodipodi-0.dtd"
   xmlns:xlink="http://www.w3.org/1999/xlink"
   xmlns="http://www.w3.org/2000/svg"
   xmlns:svg="http://www.w3.org/2000/svg"
   xmlns:rdf="http://www.w3.org/1999/02/22-rdf-syntax-ns#"
   xmlns:cc="http://creativecommons.org/ns#"
   xmlns:dc="http://purl.org/dc/elements/1.1/">
  <metadata
     id="metadata77">
    <rdf:RDF>
      <cc:Work
         rdf:about="">
        <dc:format>image/svg+xml</dc:format>
        <dc:type
           rdf:resource="http://purl.org/dc/dcmitype/StillImage" />
      </cc:Work>
    </rdf:RDF>
  </metadata>
  <sodipodi:namedview
     pagecolor="#f5f7fa"
     bordercolor="#666666"
     borderopacity="1"
     objecttolerance="10"
     gridtolerance="10"
     guidetolerance="10"
     inkscape:pageopacity="0"
     inkscape:pageshadow="2"
     inkscape:window-width="1253"
     inkscape:window-height="697"
     id="namedview75"
     showgrid="false"
     inkscape:zoom="6.2890624"
     inkscape:cx="39.354038"
     inkscape:cy="29.575156"
     inkscape:window-x="24"
     inkscape:window-y="21"
     inkscape:window-maximized="0"
     inkscape:current-layer="svg73"
     inkscape:document-rotation="0"
     inkscape:pagecheckerboard="0"
     inkscape:showpageshadow="2"
     inkscape:deskcolor="#d1d1d1" />
  <defs
     id="defs29">
    <linearGradient
       id="linearGradient4"
       inkscape:collect="always">
      <stop
         style="stop-color:#ac905e;stop-opacity:1;"
         offset="0"
         id="stop4" />
      <stop
         style="stop-color:#c1aa81;stop-opacity:1;"
         offset="0.5"
         id="stop1" />
    </linearGradient>
    <linearGradient
       id="linearGradient2"
       inkscape:collect="always">
      <stop
         style="stop-color:#f4f1ec;stop-opacity:1;"
         offset="0"
         id="stop2" />
      <stop
         style="stop-color:#e9e3d8;stop-opacity:1;"
         offset="1"
         id="stop3" />
    </linearGradient>
    <linearGradient
       inkscape:collect="always"
       xlink:href="#linearGradient2"
       id="linearGradient8"
       x1="31.721739"
       y1="5.2278585"
       x2="31.88887"
       y2="59.145416"
       gradientUnits="userSpaceOnUse"
       gradientTransform="matrix(0.8505,0,0,0.8505,4.7765033,4.7794869)" />
    <filter
       style="color-interpolation-filters:sRGB;"
       inkscape:label="Blur"
       id="filter9"
       x="-0.047762285"
       y="-0.047489063"
       width="1.0955246"
       height="1.0949781">
      <feGaussianBlur
         stdDeviation="1 1"
         result="blur"
         id="feGaussianBlur9" />
    </filter>
    <linearGradient
       inkscape:collect="always"
       xlink:href="#linearGradient4"
       id="linearGradient7"
       x1="26.723248"
       y1="58.711765"
       x2="25.756926"
       y2="5.950614"
       gradientUnits="userSpaceOnUse" />
    <filter
       style="color-interpolation-filters:sRGB;"
       inkscape:label="Out of Focus"
       id="filter40"
       x="-0.24226652"
       y="-0.2858297"
       width="1.484533"
       height="1.5716594">
      <feFlood
         flood-opacity="1"
         flood-color="rgb(255,255,255)"
         result="flood"
         id="feFlood38" />
      <feColorMatrix
         in="SourceGraphic"
         values="1 0 0 0 0 0 1 0 0 0 0 0 1 0 0 -0.2125 -0.7154 -0.0721 1 0 "
         result="colormatrix1"
         id="feColorMatrix38" />
      <feGaussianBlur
         in="colormatrix1"
         stdDeviation="3 3"
         result="blur"
         id="feGaussianBlur38" />
      <feColorMatrix
         in="blur"
         values="1 0 0 0 0 0 1 0 0 0 0 0 1 0 0 0 0 0 6 -2 "
         result="colormatrix2"
         id="feColorMatrix39" />
      <feBlend
         in="colormatrix2"
         in2="flood"
         mode="normal"
         result="blend"
         id="feBlend39" />
      <feComposite
         in="blend"
         in2="blend"
         operator="arithmetic"
         k2="0.2"
         result="composite1"
         id="feComposite39" />
      <feComposite
         in2="SourceGraphic"
         operator="in"
         id="feComposite40" />
    </filter>
  </defs>
  <g
     id="g877"
     transform="matrix(1.1,0,0,1.1,-3.1845928,-3.2065454)">
    <ellipse
       style="opacity:0.5;fill:#000000;stroke:none;stroke-width:3.89319;stroke-dasharray:none;stroke-opacity:1;filter:url(#filter9)"
       id="path2-5"
       cx="31.949858"
       cy="31.969812"
       rx="25.124426"
       ry="25.268976"
       transform="matrix(1.05,0,0,1.05,-1.5974929,-1.5984906)" />
    <path
       style="fill:#f5f7fa;stroke-width:0.204426;fill-opacity:1"
       d=""
       id="path3" />
    <circle
       style="opacity:1;fill:url(#linearGradient8);stroke:url(#linearGradient7);stroke-width:3.81818;stroke-dasharray:none;stroke-opacity:1"
       id="path2"
       cx="31.949856"
       cy="31.969812"
       r="24.711082" />
    <ellipse
       style="opacity:0.3;fill:none;stroke:#000000;stroke-width:0.974376;stroke-dasharray:none;stroke-opacity:1"
       id="path2-9"
       cx="31.949856"
       cy="31.969812"
       rx="23.129124"
       ry="23.129126" />
  </g>
  <path
     style="color:#444444;fill:#000000;fill-opacity:1;stroke:none;stroke-width:0.941476;stroke-dasharray:none;stroke-opacity:0.3;opacity:0.2"
     class="ColorScheme-Text"
     d="m 40.038817,22.63856 c -0.457153,0.0021 -0.879678,0.145748 -1.27494,0.426219 C 37.763476,23.778841 35.678859,24.544233 32,24.54727 c -3.678858,0 -5.763462,-0.768429 -6.763872,-1.482491 -0.395307,-0.280464 -0.774313,-0.417185 -1.234174,-0.415099 -0.459862,0.002 -0.990143,0.12515 -1.530671,0.415099 -1.96856,1.037031 -3.778227,4.432865 -4.762508,8.835654 -0.839037,3.739958 -1.148795,8.854341 -0.648592,10.911142 0.43565,1.767986 1.188445,2.549889 2.527648,2.549889 1.984693,-0.03412 4.47843,-2.243521 6.059691,-5.21838 C 26.7912,38.496166 29.443756,37.747474 32,37.8304 c 2.556052,-0.08919 5.208609,0.665766 6.352478,2.312684 1.581262,2.974859 4.075002,5.184408 6.059692,5.21838 1.339244,0 2.091959,-0.781903 2.527649,-2.549889 0.500201,-2.056801 0.190446,-7.171184 -0.648591,-10.911142 -0.984263,-4.402789 -2.793943,-7.798623 -4.76251,-8.835654 -0.540526,-0.289002 -1.032748,-0.428354 -1.489901,-0.426219 z m -15.566172,5.703891 h 1.882767 v 1.897589 h 1.879056 v 1.897589 h -1.879056 v 1.897593 H 24.472645 V 32.137629 H 22.589883 V 30.24004 h 1.882762 z m 14.113332,0 c 0.519751,0 0.941379,0.424869 0.941379,0.948796 0,0.524113 -0.421628,0.948793 -0.941379,0.948793 -0.519755,0 -0.937678,-0.42468 -0.937682,-0.948793 0,-0.523926 0.417927,-0.948796 0.937682,-0.948796 z m -1.879064,1.897589 c 0.519755,0 0.941382,0.424872 0.941382,0.948795 0,0.524114 -0.421627,0.948794 -0.941382,0.948794 -0.51973,0 -0.941383,-0.42468 -0.941383,-0.948794 0,-0.523923 0.421653,-0.948795 0.941383,-0.948795 z m 3.761822,0 c 0.519735,0 0.941382,0.424872 0.941382,0.948795 0,0.524114 -0.421647,0.948794 -0.941382,0.948794 -0.519751,0 -0.941379,-0.42468 -0.941379,-0.948794 0,-0.523923 0.421628,-0.948795 0.941379,-0.948795 z m -1.882758,1.897589 c 0.519751,0 0.941379,0.424873 0.941379,0.948796 0,0.524114 -0.421628,0.948797 -0.941379,0.948797 -0.519755,0 -0.937682,-0.424683 -0.937682,-0.948797 0,-0.523923 0.417927,-0.948796 0.937682,-0.948796 z"
     id="path5-2-2" />
  <path
     style="color:#444444;fill:#4d4d4d;fill-opacity:1;stroke:none;stroke-width:0.941476;stroke-dasharray:none;stroke-opacity:0.3"
     class="ColorScheme-Text"
     d="m 40.038817,20.63856 c -0.457153,0.0021 -0.879678,0.145748 -1.27494,0.426219 C 37.763476,21.778841 35.678859,22.544233 32,22.54727 c -3.678858,0 -5.763462,-0.768429 -6.763872,-1.482491 -0.395307,-0.280464 -0.774313,-0.417185 -1.234174,-0.415099 -0.459862,0.002 -0.990143,0.12515 -1.530671,0.415099 -1.96856,1.037031 -3.778227,4.432865 -4.762508,8.835654 -0.839037,3.739958 -1.148795,8.854341 -0.648592,10.911142 0.43565,1.767986 1.188445,2.549889 2.527648,2.549889 1.984693,-0.03412 4.47843,-2.243521 6.059691,-5.21838 C 26.7912,36.496166 29.443756,35.747474 32,35.8304 c 2.556052,-0.08919 5.208609,0.665766 6.352478,2.312684 1.581262,2.974859 4.075002,5.184408 6.059692,5.21838 1.339244,0 2.091959,-0.781903 2.527649,-2.549889 0.500201,-2.056801 0.190446,-7.171184 -0.648591,-10.911142 -0.984263,-4.402789 -2.793943,-7.798623 -4.76251,-8.835654 -0.540526,-0.289002 -1.032748,-0.428354 -1.489901,-0.426219 z m -15.566172,5.703891 h 1.882767 v 1.897589 h 1.879056 v 1.897589 h -1.879056 v 1.897593 H 24.472645 V 30.137629 H 22.589883 V 28.24004 h 1.882762 z m 14.113332,0 c 0.519751,0 0.941379,0.424869 0.941379,0.948796 0,0.524113 -0.421628,0.948793 -0.941379,0.948793 -0.519755,0 -0.937678,-0.42468 -0.937682,-0.948793 0,-0.523926 0.417927,-0.948796 0.937682,-0.948796 z m -1.879064,1.897589 c 0.519755,0 0.941382,0.424872 0.941382,0.948795 0,0.524114 -0.421627,0.948794 -0.941382,0.948794 -0.51973,0 -0.941383,-0.42468 -0.941383,-0.948794 0,-0.523923 0.421653,-0.948795 0.941383,-0.948795 z m 3.761822,0 c 0.519735,0 0.941382,0.424872 0.941382,0.948795 0,0.524114 -0.421647,0.948794 -0.941382,0.948794 -0.519751,0 -0.941379,-0.42468 -0.941379,-0.948794 0,-0.523923 0.421628,-0.948795 0.941379,-0.948795 z m -1.882758,1.897589 c 0.519751,0 0.941379,0.424873 0.941379,0.948796 0,0.524114 -0.421628,0.948797 -0.941379,0.948797 -0.519755,0 -0.937682,-0.424683 -0.937682,-0.948797 0,-0.523923 0.417927,-0.948796 0.937682,-0.948796 z"
     id="path5-2" />
</svg>
