<?xml version="1.0" encoding="UTF-8" standalone="no"?>
<svg
   width="64"
   height="64"
   version="1.1"
   id="svg73"
   sodipodi:docname="abcd.svg"
   inkscape:version="1.4.2 (ebf0e940d0, 2025-05-08)"
   xmlns:inkscape="http://www.inkscape.org/namespaces/inkscape"
   xmlns:sodipodi="http://sodipodi.sourceforge.net/DTD/sodipodi-0.dtd"
   xmlns:xlink="http://www.w3.org/1999/xlink"
   xmlns="http://www.w3.org/2000/svg"
   xmlns:svg="http://www.w3.org/2000/svg"
   xmlns:rdf="http://www.w3.org/1999/02/22-rdf-syntax-ns#"
   xmlns:cc="http://creativecommons.org/ns#"
   xmlns:dc="http://purl.org/dc/elements/1.1/">
  <metadata
     id="metadata77">
    <rdf:RDF>
      <cc:Work
         rdf:about="">
        <dc:format>image/svg+xml</dc:format>
        <dc:type
           rdf:resource="http://purl.org/dc/dcmitype/StillImage" />
      </cc:Work>
    </rdf:RDF>
  </metadata>
  <sodipodi:namedview
     pagecolor="#f5f7fa"
     bordercolor="#666666"
     borderopacity="1"
     objecttolerance="10"
     gridtolerance="10"
     guidetolerance="10"
     inkscape:pageopacity="0"
     inkscape:pageshadow="2"
     inkscape:window-width="1920"
     inkscape:window-height="931"
     id="namedview75"
     showgrid="false"
     inkscape:zoom="6.2890624"
     inkscape:cx="53.505591"
     inkscape:cy="29.734162"
     inkscape:window-x="0"
     inkscape:window-y="0"
     inkscape:window-maximized="1"
     inkscape:current-layer="svg73"
     inkscape:document-rotation="0"
     inkscape:pagecheckerboard="0"
     inkscape:showpageshadow="2"
     inkscape:deskcolor="#d1d1d1" />
  <defs
     id="defs29">
    <linearGradient
       id="linearGradient4"
       inkscape:collect="always">
      <stop
         style="stop-color:#ac5e5e;stop-opacity:1;"
         offset="0"
         id="stop4" />
      <stop
         style="stop-color:#c18181;stop-opacity:1;"
         offset="0.5"
         id="stop1" />
    </linearGradient>
    <linearGradient
       id="linearGradient2"
       inkscape:collect="always">
      <stop
         style="stop-color:#f4ecec;stop-opacity:1;"
         offset="0"
         id="stop2" />
      <stop
         style="stop-color:#e9d8d8;stop-opacity:1;"
         offset="1"
         id="stop3" />
    </linearGradient>
    <linearGradient
       inkscape:collect="always"
       xlink:href="#linearGradient2"
       id="linearGradient8"
       x1="31.721739"
       y1="5.2278585"
       x2="31.88887"
       y2="59.145416"
       gradientUnits="userSpaceOnUse"
       gradientTransform="matrix(0.8505,0,0,0.8505,4.7765033,4.7794869)" />
    <filter
       style="color-interpolation-filters:sRGB;"
       inkscape:label="Blur"
       id="filter9"
       x="-0.047762285"
       y="-0.047489063"
       width="1.0955246"
       height="1.0949781">
      <feGaussianBlur
         stdDeviation="1 1"
         result="blur"
         id="feGaussianBlur9" />
    </filter>
    <linearGradient
       inkscape:collect="always"
       xlink:href="#linearGradient4"
       id="linearGradient7"
       x1="26.723248"
       y1="58.711765"
       x2="25.756926"
       y2="5.950614"
       gradientUnits="userSpaceOnUse" />
    <filter
       style="color-interpolation-filters:sRGB;"
       inkscape:label="Out of Focus"
       id="filter40"
       x="-0.24226652"
       y="-0.2858297"
       width="1.484533"
       height="1.5716594">
      <feFlood
         flood-opacity="1"
         flood-color="rgb(255,255,255)"
         result="flood"
         id="feFlood38" />
      <feColorMatrix
         in="SourceGraphic"
         values="1 0 0 0 0 0 1 0 0 0 0 0 1 0 0 -0.2125 -0.7154 -0.0721 1 0 "
         result="colormatrix1"
         id="feColorMatrix38" />
      <feGaussianBlur
         in="colormatrix1"
         stdDeviation="3 3"
         result="blur"
         id="feGaussianBlur38" />
      <feColorMatrix
         in="blur"
         values="1 0 0 0 0 0 1 0 0 0 0 0 1 0 0 0 0 0 6 -2 "
         result="colormatrix2"
         id="feColorMatrix39" />
      <feBlend
         in="colormatrix2"
         in2="flood"
         mode="normal"
         result="blend"
         id="feBlend39" />
      <feComposite
         in="blend"
         in2="blend"
         operator="arithmetic"
         k2="0.2"
         result="composite1"
         id="feComposite39" />
      <feComposite
         in2="SourceGraphic"
         operator="in"
         id="feComposite40" />
    </filter>
  </defs>
  <g
     id="g877"
     transform="matrix(1.1,0,0,1.1,-3.1845928,-3.2065454)">
    <ellipse
       style="opacity:0.5;fill:#000000;stroke:none;stroke-width:3.89319;stroke-dasharray:none;stroke-opacity:1;filter:url(#filter9)"
       id="path2-5"
       cx="31.949858"
       cy="31.969812"
       rx="25.124426"
       ry="25.268976"
       transform="matrix(1.05,0,0,1.05,-1.5974929,-1.5984906)" />
    <path
       style="fill:#f5f7fa;stroke-width:0.204426;fill-opacity:1"
       d=""
       id="path3" />
    <circle
       style="opacity:1;fill:url(#linearGradient8);stroke:url(#linearGradient7);stroke-width:3.81818;stroke-dasharray:none;stroke-opacity:1"
       id="path2"
       cx="31.949856"
       cy="31.969812"
       r="24.711082" />
    <ellipse
       style="opacity:0.3;fill:none;stroke:#000000;stroke-width:0.974376;stroke-dasharray:none;stroke-opacity:1"
       id="path2-9"
       cx="31.949856"
       cy="31.969812"
       rx="23.129124"
       ry="23.129126" />
  </g>
  <path
     style="fill:#000000;fill-opacity:1;stroke:none;stroke-width:0.517815;stroke-dasharray:none;stroke-opacity:0.6;opacity:0.2"
     d="m 17.510375,49.291788 c -0.150088,-0.06063 -0.397224,-0.268305 -0.549186,-0.461503 l -0.27629,-0.351205 v -9.642399 -9.642364 l 5.201699,-5.200503 5.201692,-5.200506 h 9.656563 9.65656 l 0.422005,0.377026 0.422,0.377021 0.03484,9.713676 0.03484,9.713671 -5.268122,5.215994 -5.268133,5.215996 -9.497666,-0.0024 c -5.224237,-0.0013 -9.62099,-0.052 -9.771087,-0.112627 z M 38.652293,39.53311 v -2.261351 h -4.333019 c -4.777279,0 -4.888057,-0.0157 -5.729608,-0.814174 -0.746985,-0.708706 -0.915393,-1.248337 -0.915393,-2.9332 0,-1.684873 0.168411,-2.224499 0.915393,-2.933208 0.841551,-0.798432 0.952329,-0.814172 5.729608,-0.814172 h 4.333019 v -2.261351 -2.261348 l -4.49039,0.0021 c -3.545032,0.0014 -4.664423,0.04294 -5.317004,0.19676 -2.623128,0.618325 -4.882005,2.877205 -5.500332,5.500333 -0.25817,1.095245 -0.260802,4.035807 -0.0044,5.122486 0.621802,2.637209 2.741684,4.804218 5.400394,5.520446 0.514827,0.138656 1.756799,0.18325 5.292306,0.189753 l 4.619611,0.0081 z"
     id="path5-5-3" />
  <path
     style="fill:#4d4d4d;fill-opacity:1;stroke:none;stroke-width:0.517815;stroke-dasharray:none;stroke-opacity:0.6"
     d="m 17.510375,47.291788 c -0.150088,-0.06063 -0.397224,-0.268305 -0.549186,-0.461503 l -0.27629,-0.351205 v -9.642399 -9.642364 l 5.201699,-5.200503 5.201692,-5.200506 h 9.656563 9.65656 l 0.422005,0.377026 0.422,0.377021 0.03484,9.713676 0.03484,9.713671 -5.268122,5.215994 -5.268133,5.215996 -9.497666,-0.0024 c -5.224237,-0.0013 -9.62099,-0.052 -9.771087,-0.112627 z M 38.652293,37.53311 v -2.261351 h -4.333019 c -4.777279,0 -4.888057,-0.0157 -5.729608,-0.814174 -0.746985,-0.708706 -0.915393,-1.248337 -0.915393,-2.9332 0,-1.684873 0.168411,-2.224499 0.915393,-2.933208 0.841551,-0.798432 0.952329,-0.814172 5.729608,-0.814172 h 4.333019 v -2.261351 -2.261348 l -4.49039,0.0021 c -3.545032,0.0014 -4.664423,0.04294 -5.317004,0.19676 -2.623128,0.618325 -4.882005,2.877205 -5.500332,5.500333 -0.25817,1.095245 -0.260802,4.035807 -0.0044,5.122486 0.621802,2.637209 2.741684,4.804218 5.400394,5.520446 0.514827,0.138656 1.756799,0.18325 5.292306,0.189753 l 4.619611,0.0081 z"
     id="path5-5" />
</svg>
