<?xml version="1.0" encoding="UTF-8" standalone="no"?>
<svg
   width="64"
   height="64"
   version="1.1"
   id="svg73"
   sodipodi:docname="1password.svg"
   inkscape:version="1.4.2 (ebf0e940d0, 2025-05-08)"
   xmlns:inkscape="http://www.inkscape.org/namespaces/inkscape"
   xmlns:sodipodi="http://sodipodi.sourceforge.net/DTD/sodipodi-0.dtd"
   xmlns:xlink="http://www.w3.org/1999/xlink"
   xmlns="http://www.w3.org/2000/svg"
   xmlns:svg="http://www.w3.org/2000/svg"
   xmlns:rdf="http://www.w3.org/1999/02/22-rdf-syntax-ns#"
   xmlns:cc="http://creativecommons.org/ns#"
   xmlns:dc="http://purl.org/dc/elements/1.1/">
  <metadata
     id="metadata77">
    <rdf:RDF>
      <cc:Work
         rdf:about="">
        <dc:format>image/svg+xml</dc:format>
        <dc:type
           rdf:resource="http://purl.org/dc/dcmitype/StillImage" />
      </cc:Work>
    </rdf:RDF>
  </metadata>
  <sodipodi:namedview
     pagecolor="#f5f7fa"
     bordercolor="#666666"
     borderopacity="1"
     objecttolerance="10"
     gridtolerance="10"
     guidetolerance="10"
     inkscape:pageopacity="0"
     inkscape:pageshadow="2"
     inkscape:window-width="1414"
     inkscape:window-height="797"
     id="namedview75"
     showgrid="false"
     inkscape:zoom="6.2890624"
     inkscape:cx="34.345342"
     inkscape:cy="29.734162"
     inkscape:window-x="24"
     inkscape:window-y="21"
     inkscape:window-maximized="0"
     inkscape:current-layer="svg73"
     inkscape:document-rotation="0"
     inkscape:pagecheckerboard="0"
     inkscape:showpageshadow="2"
     inkscape:deskcolor="#d1d1d1" />
  <defs
     id="defs29">
    <linearGradient
       id="linearGradient4"
       inkscape:collect="always">
      <stop
         style="stop-color:#ac5e5e;stop-opacity:1;"
         offset="0"
         id="stop4" />
      <stop
         style="stop-color:#c18181;stop-opacity:1;"
         offset="0.5"
         id="stop1" />
    </linearGradient>
    <linearGradient
       id="linearGradient2"
       inkscape:collect="always">
      <stop
         style="stop-color:#f4ecec;stop-opacity:1;"
         offset="0"
         id="stop2" />
      <stop
         style="stop-color:#e9d8d8;stop-opacity:1;"
         offset="1"
         id="stop3" />
    </linearGradient>
    <linearGradient
       inkscape:collect="always"
       xlink:href="#linearGradient2"
       id="linearGradient8"
       x1="31.721739"
       y1="5.2278585"
       x2="31.88887"
       y2="59.145416"
       gradientUnits="userSpaceOnUse"
       gradientTransform="matrix(0.8505,0,0,0.8505,4.7765033,4.7794869)" />
    <filter
       style="color-interpolation-filters:sRGB;"
       inkscape:label="Blur"
       id="filter9"
       x="-0.047762285"
       y="-0.047489063"
       width="1.0955246"
       height="1.0949781">
      <feGaussianBlur
         stdDeviation="1 1"
         result="blur"
         id="feGaussianBlur9" />
    </filter>
    <linearGradient
       inkscape:collect="always"
       xlink:href="#linearGradient4"
       id="linearGradient7"
       x1="26.723248"
       y1="58.711765"
       x2="25.756926"
       y2="5.950614"
       gradientUnits="userSpaceOnUse" />
    <filter
       style="color-interpolation-filters:sRGB;"
       inkscape:label="Out of Focus"
       id="filter40"
       x="-0.24226652"
       y="-0.2858297"
       width="1.484533"
       height="1.5716594">
      <feFlood
         flood-opacity="1"
         flood-color="rgb(255,255,255)"
         result="flood"
         id="feFlood38" />
      <feColorMatrix
         in="SourceGraphic"
         values="1 0 0 0 0 0 1 0 0 0 0 0 1 0 0 -0.2125 -0.7154 -0.0721 1 0 "
         result="colormatrix1"
         id="feColorMatrix38" />
      <feGaussianBlur
         in="colormatrix1"
         stdDeviation="3 3"
         result="blur"
         id="feGaussianBlur38" />
      <feColorMatrix
         in="blur"
         values="1 0 0 0 0 0 1 0 0 0 0 0 1 0 0 0 0 0 6 -2 "
         result="colormatrix2"
         id="feColorMatrix39" />
      <feBlend
         in="colormatrix2"
         in2="flood"
         mode="normal"
         result="blend"
         id="feBlend39" />
      <feComposite
         in="blend"
         in2="blend"
         operator="arithmetic"
         k2="0.2"
         result="composite1"
         id="feComposite39" />
      <feComposite
         in2="SourceGraphic"
         operator="in"
         id="feComposite40" />
    </filter>
  </defs>
  <g
     id="g877"
     transform="matrix(1.1,0,0,1.1,-3.1845928,-3.2065454)">
    <ellipse
       style="opacity:0.5;fill:#000000;stroke:none;stroke-width:3.89319;stroke-dasharray:none;stroke-opacity:1;filter:url(#filter9)"
       id="path2-5"
       cx="31.949858"
       cy="31.969812"
       rx="25.124426"
       ry="25.268976"
       transform="matrix(1.05,0,0,1.05,-1.5974929,-1.5984906)" />
    <path
       style="fill:#f5f7fa;stroke-width:0.204426;fill-opacity:1"
       d=""
       id="path3" />
    <circle
       style="opacity:1;fill:url(#linearGradient8);stroke:url(#linearGradient7);stroke-width:3.81818;stroke-dasharray:none;stroke-opacity:1"
       id="path2"
       cx="31.949856"
       cy="31.969812"
       r="24.711082" />
    <ellipse
       style="opacity:0.3;fill:none;stroke:#000000;stroke-width:0.974376;stroke-dasharray:none;stroke-opacity:1"
       id="path2-9"
       cx="31.949856"
       cy="31.969812"
       rx="23.129124"
       ry="23.129126" />
  </g>
  <path
     style="fill:#000000;fill-opacity:1;stroke:none;stroke-width:0.48139;stroke-dasharray:none;stroke-opacity:0.6;opacity:0.2"
     d="m 32.213702,45.87027 c -0.0154,-0.03755 -0.03319,-0.208541 -0.03965,-0.380025 -0.01899,-0.50279 0.06091,-1.008309 0.357852,-2.265833 0.08505,-0.360218 0.157681,-0.692129 0.161393,-0.737592 l 0.0066,-0.08266 -0.565382,-0.189374 c -0.774685,-0.259483 -1.209371,-0.329674 -1.383305,-0.223334 -0.04287,0.02614 -0.153948,0.122968 -0.246829,0.215073 -0.337754,0.334927 -0.714091,0.466621 -1.591419,0.556867 -0.08215,0.0079 -0.149387,0.02217 -0.149387,0.02915 0,0.09457 0.119252,0.404284 0.272957,0.708653 0.199882,0.395849 0.235741,0.489737 0.406573,1.06468 0.117125,0.394231 0.156743,0.75208 0.101684,0.918919 -0.07488,0.226829 -0.31587,0.330043 -0.770635,0.330043 -0.304454,0 -0.885704,-0.06658 -0.93614,-0.107261 -0.05155,-0.04155 -0.120629,-0.342429 -0.117982,-0.514068 0.0029,-0.183813 -0.07332,-0.403596 -0.378952,-1.093506 -0.08548,-0.192927 -0.222079,-0.549527 -0.303551,-0.792461 -0.08147,-0.242928 -0.193082,-0.535343 -0.248023,-0.649796 -0.107624,-0.224216 -0.289991,-0.454459 -0.35998,-0.454429 -0.08649,0 -0.357576,0.150065 -0.439244,0.243142 -0.16826,0.191743 -0.189842,0.26714 -0.279436,0.978043 -0.03693,0.29296 -0.08384,0.608644 -0.104269,0.701522 -0.02045,0.09288 -0.04967,0.361836 -0.065,0.597593 -0.03479,0.536149 -0.06379,0.722299 -0.125134,0.805203 -0.149702,0.202253 -0.455158,0.285638 -1.047042,0.285912 -0.466209,3.34e-4 -0.66128,-0.0833 -0.724298,-0.310126 -0.04828,-0.17373 -0.03008,-0.674202 0.05341,-1.469485 0.01499,-0.142926 0.08425,-0.51704 0.153885,-0.831426 0.161317,-0.728275 0.192029,-0.946201 0.177099,-1.256403 -0.01534,-0.318613 -0.09731,-0.518371 -0.284611,-0.69357 -0.223292,-0.208785 -0.478864,-0.296333 -1.056959,-0.361942 -0.488634,-0.05545 -0.755225,-0.107415 -0.988984,-0.192715 -0.466151,-0.170146 -0.63208,-0.360377 -0.846346,-0.970372 -0.173586,-0.494337 -0.389754,-0.683976 -1.151184,-1.010051 -0.354574,-0.151843 -0.492933,-0.243693 -0.633931,-0.420843 -0.25711,-0.323033 -0.340672,-0.639468 -0.31685,-1.199858 0.02489,-0.58532 -0.03475,-0.792104 -0.374263,-1.297213 -0.169828,-0.252675 -0.174338,-0.263662 -0.17094,-0.416517 0.0019,-0.08634 0.0351,-0.366842 0.0738,-0.623321 0.04893,-0.324559 0.06764,-0.538431 0.06148,-0.703502 -0.0083,-0.213817 -0.0165,-0.24823 -0.08677,-0.349414 -0.173184,-0.249359 -0.193354,-0.28598 -0.238343,-0.432702 -0.03654,-0.119242 -0.04652,-0.23788 -0.04547,-0.542358 0.0014,-0.458846 0.0292,-0.55834 0.255088,-0.917817 0.160819,-0.255948 0.205245,-0.382537 0.193088,-0.550185 l -0.0084,-0.116922 -0.207861,-0.01901 c -0.232342,-0.0212 -0.441729,-0.01045 -0.930388,0.04842 -0.183036,0.022 -0.457797,0.03607 -0.610586,0.03124 -0.247165,-0.0078 -0.294909,-0.01738 -0.433018,-0.08669 -0.145931,-0.07329 -0.157282,-0.08572 -0.189431,-0.207865 -0.168159,-0.638723 0.43769,-1.208161 1.285408,-1.208161 0.284163,0 0.468942,0.05159 0.846848,0.236479 0.278512,0.136256 0.594252,0.24523 0.648577,0.223836 0.01764,-0.007 0.125645,-0.161268 0.239976,-0.342918 0.298555,-0.474412 0.455375,-0.637257 0.750169,-0.778981 0.130427,-0.06271 0.40083,-0.168424 0.600891,-0.234941 0.571593,-0.190033 0.677934,-0.267857 0.967297,-0.707916 0.265678,-0.404041 0.446986,-0.53414 0.91688,-0.657921 0.179782,-0.04734 0.323302,-0.06125 0.779009,-0.07545 0.748189,-0.02331 0.755488,-0.02606 1.236839,-0.467795 0.234983,-0.215649 0.45298,-0.343822 0.763799,-0.4491 l 0.246837,-0.08361 0.688527,-2.05e-4 c 0.819562,-2e-4 0.89798,-0.01607 1.474561,-0.297657 0.806631,-0.393932 1.099315,-0.423667 1.962099,-0.199327 0.66894,0.173929 0.84217,0.164979 1.400297,-0.07236 0.517528,-0.220094 0.804691,-0.276928 1.13788,-0.225236 0.392665,0.06093 0.720064,0.20987 1.138981,0.518142 0.330243,0.243028 0.415671,0.288476 0.706858,0.376036 0.388478,0.116821 0.631793,0.148036 1.364071,0.175068 0.385835,0.0143 0.761435,0.03764 0.834679,0.0521 0.367352,0.07221 0.693077,0.47309 1.159393,1.426885 0.320585,0.655764 0.460135,0.907339 0.737308,1.329304 0.851525,1.296396 1.946851,2.21534 3.418003,2.867614 0.346065,0.153444 0.416246,0.210256 0.520008,0.421018 0.08506,0.172635 0.086,0.179018 0.0859,0.539004 -3.5e-4,0.402201 -0.03075,0.584632 -0.186397,1.112444 -0.05141,0.174416 -0.109659,0.381436 -0.12953,0.460032 -0.05301,0.210604 -0.04599,0.590323 0.01792,0.974333 0.06574,0.39464 0.05669,0.603222 -0.03821,0.876097 -0.09939,0.285968 -0.258238,0.523473 -0.562491,0.841185 -0.307018,0.320658 -0.358597,0.404789 -0.556185,0.906933 -0.155015,0.394054 -0.262309,0.571933 -0.446328,0.740126 -0.350586,0.320452 -0.847914,0.468503 -1.749271,0.520841 l -0.454687,0.02642 -0.08426,0.09678 c -0.112001,0.128619 -0.276465,0.468896 -0.335643,0.69441 -0.03892,0.148427 -0.04758,0.27759 -0.04648,0.701514 0.0014,0.566577 0.02125,0.721389 0.245541,1.870738 0.215469,1.106033 0.398053,2.38349 0.347025,2.42741 -0.02309,0.02035 -1.383137,0.236581 -1.48215,0.236033 -0.04859,-3.43e-4 -0.06635,-0.03175 -0.121923,-0.214617 -0.403089,-1.329807 -0.590326,-2.319709 -0.664417,-3.514147 -0.01428,-0.228621 -0.03739,-0.455325 -0.05157,-0.503734 -0.05242,-0.179076 -0.159958,-0.246301 -0.456908,-0.28567 -0.414712,-0.05492 -0.399514,-0.05669 -0.427307,0.04766 -0.122846,0.460801 -0.879294,3.521689 -0.936146,3.788019 -0.05909,0.27677 -0.14346,0.591783 -0.16682,0.622751 -0.0024,0.0034 -0.266679,0.04754 -0.587595,0.09895 -0.320919,0.0514 -0.639862,0.103048 -0.708768,0.114766 -0.119529,0.02035 -0.126577,0.01792 -0.153199,-0.04697 z M 42.610168,32.031676 c -0.904363,-0.171232 -1.985682,-0.835843 -3.001623,-1.844886 -0.75746,-0.752321 -1.197184,-1.402691 -1.68615,-2.493862 -0.220289,-0.49162 -0.325686,-0.66935 -0.58749,-0.990887 -0.08277,-0.101684 -0.170539,-0.236141 -0.194932,-0.298799 -0.02431,-0.06266 -0.06574,-0.144732 -0.09176,-0.182386 l -0.04733,-0.06846 -0.61744,-0.01235 c -0.496116,-0.0099 -0.672755,-0.02357 -0.89887,-0.06931 -0.368456,-0.07449 -0.785406,-0.224324 -1.229751,-0.441893 -0.482102,-0.236057 -0.626007,-0.390191 -0.77821,-0.833491 -0.04035,-0.117495 -0.04906,-0.219134 -0.04906,-0.571611 0,-0.37684 0.0075,-0.452283 0.06087,-0.623573 0.122632,-0.392605 0.148466,-0.433582 0.312237,-0.495535 0.123033,-0.04656 0.184015,-0.0534 0.380382,-0.0426 0.31573,0.01728 0.546529,0.103279 1.337254,0.498104 0.845293,0.422062 1.132316,0.530891 1.500691,0.569011 l 0.135788,0.014 0.211578,-0.265022 c 0.116438,-0.145758 0.299342,-0.399478 0.40657,-0.563814 0.219448,-0.336218 0.341472,-0.47648 0.474324,-0.544906 0.155108,-0.0799 0.43441,-0.155224 0.974335,-0.262785 0.501349,-0.09987 0.554088,-0.117244 0.874699,-0.288049 0.171511,-0.09142 0.573041,-0.157055 0.892096,-0.145855 0.248123,0.0085 0.320086,0.02243 0.545633,0.103741 0.142925,0.05154 0.359626,0.129586 0.481625,0.173449 0.238676,0.0858 0.449283,0.115562 1.118309,0.157932 0.428199,0.02712 0.636786,0.06087 0.764443,0.123606 0.04286,0.02109 0.218658,0.18541 0.390592,0.365186 l 0.312667,0.326873 0.323927,-0.106326 c 0.178165,-0.05849 0.563616,-0.188777 0.856568,-0.28958 0.692631,-0.238326 0.981153,-0.297416 1.377058,-0.282042 0.221937,0.0085 0.33592,0.02589 0.443038,0.06728 0.431214,0.166505 0.50588,0.603905 0.205807,1.205793 -0.289619,0.581011 -0.768339,1.06891 -1.281345,1.30593 -0.354959,0.164006 -0.542708,0.194557 -1.355187,0.220541 -0.400128,0.01283 -0.740906,0.02378 -0.757298,0.02451 -0.05535,0.0023 -0.100265,0.437691 -0.0979,0.949578 0.003,0.627113 0.03855,0.803504 0.351135,1.732041 0.324498,0.963924 0.396312,1.39484 0.337392,2.024612 -0.05965,0.637812 -0.218201,1.024958 -0.558325,1.363257 -0.233024,0.231785 -0.448817,0.355079 -0.794991,0.454226 -0.254228,0.07279 -0.760848,0.09142 -1.0414,0.0383 z m -2.792895,-4.660505 c 0.04179,-0.02375 0.103169,-0.0946 0.136425,-0.157398 0.161671,-0.305781 -0.02125,-0.677779 -0.332414,-0.677515 -0.151096,10e-5 -0.262673,0.07202 -0.331145,0.213421 -0.120143,0.248138 -0.04232,0.526431 0.178408,0.637966 0.127099,0.06422 0.213978,0.06014 0.34871,-0.01643 z m 4.016453,-0.269899 c 0.157082,-0.106887 0.194687,-0.183341 0.194687,-0.396229 0,-0.213593 -0.03718,-0.288685 -0.19724,-0.398527 -0.06993,-0.04804 -0.112245,-0.05816 -0.201949,-0.0483 -0.144415,0.01589 -0.235154,0.08237 -0.308824,0.226529 -0.19554,0.382676 0.185212,0.83992 0.513419,0.616552 z"
     id="path1-9" />
  <path
     style="fill:#4d4d4d;fill-opacity:1;stroke:none;stroke-width:0.48139;stroke-dasharray:none;stroke-opacity:0.6"
     d="m 32.213702,43.87027 c -0.0154,-0.03755 -0.03319,-0.208541 -0.03965,-0.380025 -0.01899,-0.50279 0.06091,-1.008309 0.357852,-2.265833 0.08505,-0.360218 0.157681,-0.692129 0.161393,-0.737592 l 0.0066,-0.08266 -0.565382,-0.189374 c -0.774685,-0.259483 -1.209371,-0.329674 -1.383305,-0.223334 -0.04287,0.02614 -0.153948,0.122968 -0.246829,0.215073 -0.337754,0.334927 -0.714091,0.466621 -1.591419,0.556867 -0.08215,0.0079 -0.149387,0.02217 -0.149387,0.02915 0,0.09457 0.119252,0.404284 0.272957,0.708653 0.199882,0.395849 0.235741,0.489737 0.406573,1.06468 0.117125,0.394231 0.156743,0.75208 0.101684,0.918919 -0.07488,0.226829 -0.31587,0.330043 -0.770635,0.330043 -0.304454,0 -0.885704,-0.06658 -0.93614,-0.107261 -0.05155,-0.04155 -0.120629,-0.342429 -0.117982,-0.514068 0.0029,-0.183813 -0.07332,-0.403596 -0.378952,-1.093506 -0.08548,-0.192927 -0.222079,-0.549527 -0.303551,-0.792461 -0.08147,-0.242928 -0.193082,-0.535343 -0.248023,-0.649796 -0.107624,-0.224216 -0.289991,-0.454459 -0.35998,-0.454429 -0.08649,0 -0.357576,0.150065 -0.439244,0.243142 -0.16826,0.191743 -0.189842,0.26714 -0.279436,0.978043 -0.03693,0.29296 -0.08384,0.608644 -0.104269,0.701522 -0.02045,0.09288 -0.04967,0.361836 -0.065,0.597593 -0.03479,0.536149 -0.06379,0.722299 -0.125134,0.805203 -0.149702,0.202253 -0.455158,0.285638 -1.047042,0.285912 -0.466209,3.34e-4 -0.66128,-0.0833 -0.724298,-0.310126 -0.04828,-0.17373 -0.03008,-0.674202 0.05341,-1.469485 0.01499,-0.142926 0.08425,-0.51704 0.153885,-0.831426 0.161317,-0.728275 0.192029,-0.946201 0.177099,-1.256403 -0.01534,-0.318613 -0.09731,-0.518371 -0.284611,-0.69357 -0.223292,-0.208785 -0.478864,-0.296333 -1.056959,-0.361942 -0.488634,-0.05545 -0.755225,-0.107415 -0.988984,-0.192715 -0.466151,-0.170146 -0.63208,-0.360377 -0.846346,-0.970372 -0.173586,-0.494337 -0.389754,-0.683976 -1.151184,-1.010051 -0.354574,-0.151843 -0.492933,-0.243693 -0.633931,-0.420843 -0.25711,-0.323033 -0.340672,-0.639468 -0.31685,-1.199858 0.02489,-0.58532 -0.03475,-0.792104 -0.374263,-1.297213 -0.169828,-0.252675 -0.174338,-0.263662 -0.17094,-0.416517 0.0019,-0.08634 0.0351,-0.366842 0.0738,-0.623321 0.04893,-0.324559 0.06764,-0.538431 0.06148,-0.703502 -0.0083,-0.213817 -0.0165,-0.24823 -0.08677,-0.349414 -0.173184,-0.249359 -0.193354,-0.28598 -0.238343,-0.432702 -0.03654,-0.119242 -0.04652,-0.23788 -0.04547,-0.542358 0.0014,-0.458846 0.0292,-0.55834 0.255088,-0.917817 0.160819,-0.255948 0.205245,-0.382537 0.193088,-0.550185 l -0.0084,-0.116922 -0.207861,-0.01901 c -0.232342,-0.0212 -0.441729,-0.01045 -0.930388,0.04842 -0.183036,0.022 -0.457797,0.03607 -0.610586,0.03124 -0.247165,-0.0078 -0.294909,-0.01738 -0.433018,-0.08669 -0.145931,-0.07329 -0.157282,-0.08572 -0.189431,-0.207865 -0.168159,-0.638723 0.43769,-1.208161 1.285408,-1.208161 0.284163,0 0.468942,0.05159 0.846848,0.236479 0.278512,0.136256 0.594252,0.24523 0.648577,0.223836 0.01764,-0.007 0.125645,-0.161268 0.239976,-0.342918 0.298555,-0.474412 0.455375,-0.637257 0.750169,-0.778981 0.130427,-0.06271 0.40083,-0.168424 0.600891,-0.234941 0.571593,-0.190033 0.677934,-0.267857 0.967297,-0.707916 0.265678,-0.404041 0.446986,-0.53414 0.91688,-0.657921 0.179782,-0.04734 0.323302,-0.06125 0.779009,-0.07545 0.748189,-0.02331 0.755488,-0.02606 1.236839,-0.467795 0.234983,-0.215649 0.45298,-0.343822 0.763799,-0.4491 l 0.246837,-0.08361 0.688527,-2.05e-4 c 0.819562,-2e-4 0.89798,-0.01607 1.474561,-0.297657 0.806631,-0.393932 1.099315,-0.423667 1.962099,-0.199327 0.66894,0.173929 0.84217,0.164979 1.400297,-0.07236 0.517528,-0.220094 0.804691,-0.276928 1.13788,-0.225236 0.392665,0.06093 0.720064,0.20987 1.138981,0.518142 0.330243,0.243028 0.415671,0.288476 0.706858,0.376036 0.388478,0.116821 0.631793,0.148036 1.364071,0.175068 0.385835,0.0143 0.761435,0.03764 0.834679,0.0521 0.367352,0.07221 0.693077,0.47309 1.159393,1.426885 0.320585,0.655764 0.460135,0.907339 0.737308,1.329304 0.851525,1.296396 1.946851,2.21534 3.418003,2.867614 0.346065,0.153444 0.416246,0.210256 0.520008,0.421018 0.08506,0.172635 0.086,0.179018 0.0859,0.539004 -3.5e-4,0.402201 -0.03075,0.584632 -0.186397,1.112444 -0.05141,0.174416 -0.109659,0.381436 -0.12953,0.460032 -0.05301,0.210604 -0.04599,0.590323 0.01792,0.974333 0.06574,0.39464 0.05669,0.603222 -0.03821,0.876097 -0.09939,0.285968 -0.258238,0.523473 -0.562491,0.841185 -0.307018,0.320658 -0.358597,0.404789 -0.556185,0.906933 -0.155015,0.394054 -0.262309,0.571933 -0.446328,0.740126 -0.350586,0.320452 -0.847914,0.468503 -1.749271,0.520841 l -0.454687,0.02642 -0.08426,0.09678 c -0.112001,0.128619 -0.276465,0.468896 -0.335643,0.69441 -0.03892,0.148427 -0.04758,0.27759 -0.04648,0.701514 0.0014,0.566577 0.02125,0.721389 0.245541,1.870738 0.215469,1.106033 0.398053,2.38349 0.347025,2.42741 -0.02309,0.02035 -1.383137,0.236581 -1.48215,0.236033 -0.04859,-3.43e-4 -0.06635,-0.03175 -0.121923,-0.214617 -0.403089,-1.329807 -0.590326,-2.319709 -0.664417,-3.514147 -0.01428,-0.228621 -0.03739,-0.455325 -0.05157,-0.503734 -0.05242,-0.179076 -0.159958,-0.246301 -0.456908,-0.28567 -0.414712,-0.05492 -0.399514,-0.05669 -0.427307,0.04766 -0.122846,0.460801 -0.879294,3.521689 -0.936146,3.788019 -0.05909,0.27677 -0.14346,0.591783 -0.16682,0.622751 -0.0024,0.0034 -0.266679,0.04754 -0.587595,0.09895 -0.320919,0.0514 -0.639862,0.103048 -0.708768,0.114766 -0.119529,0.02035 -0.126577,0.01792 -0.153199,-0.04697 z M 42.610168,30.031676 c -0.904363,-0.171232 -1.985682,-0.835843 -3.001623,-1.844886 -0.75746,-0.752321 -1.197184,-1.402691 -1.68615,-2.493862 -0.220289,-0.49162 -0.325686,-0.66935 -0.58749,-0.990887 -0.08277,-0.101684 -0.170539,-0.236141 -0.194932,-0.298799 -0.02431,-0.06266 -0.06574,-0.144732 -0.09176,-0.182386 l -0.04733,-0.06846 -0.61744,-0.01235 c -0.496116,-0.0099 -0.672755,-0.02357 -0.89887,-0.06931 -0.368456,-0.07449 -0.785406,-0.224324 -1.229751,-0.441893 -0.482102,-0.236057 -0.626007,-0.390191 -0.77821,-0.833491 -0.04035,-0.117495 -0.04906,-0.219134 -0.04906,-0.571611 0,-0.37684 0.0075,-0.452283 0.06087,-0.623573 0.122632,-0.392605 0.148466,-0.433582 0.312237,-0.495535 0.123033,-0.04656 0.184015,-0.0534 0.380382,-0.0426 0.31573,0.01728 0.546529,0.103279 1.337254,0.498104 0.845293,0.422062 1.132316,0.530891 1.500691,0.569011 l 0.135788,0.014 0.211578,-0.265022 c 0.116438,-0.145758 0.299342,-0.399478 0.40657,-0.563814 0.219448,-0.336218 0.341472,-0.47648 0.474324,-0.544906 0.155108,-0.0799 0.43441,-0.155224 0.974335,-0.262785 0.501349,-0.09987 0.554088,-0.117244 0.874699,-0.288049 0.171511,-0.09142 0.573041,-0.157055 0.892096,-0.145855 0.248123,0.0085 0.320086,0.02243 0.545633,0.103741 0.142925,0.05154 0.359626,0.129586 0.481625,0.173449 0.238676,0.0858 0.449283,0.115562 1.118309,0.157932 0.428199,0.02712 0.636786,0.06087 0.764443,0.123606 0.04286,0.02109 0.218658,0.18541 0.390592,0.365186 l 0.312667,0.326873 0.323927,-0.106326 c 0.178165,-0.05849 0.563616,-0.188777 0.856568,-0.28958 0.692631,-0.238326 0.981153,-0.297416 1.377058,-0.282042 0.221937,0.0085 0.33592,0.02589 0.443038,0.06728 0.431214,0.166505 0.50588,0.603905 0.205807,1.205793 -0.289619,0.581011 -0.768339,1.06891 -1.281345,1.30593 -0.354959,0.164006 -0.542708,0.194557 -1.355187,0.220541 -0.400128,0.01283 -0.740906,0.02378 -0.757298,0.02451 -0.05535,0.0023 -0.100265,0.437691 -0.0979,0.949578 0.003,0.627113 0.03855,0.803504 0.351135,1.732041 0.324498,0.963924 0.396312,1.39484 0.337392,2.024612 -0.05965,0.637812 -0.218201,1.024958 -0.558325,1.363257 -0.233024,0.231785 -0.448817,0.355079 -0.794991,0.454226 -0.254228,0.07279 -0.760848,0.09142 -1.0414,0.0383 z m -2.792895,-4.660505 c 0.04179,-0.02375 0.103169,-0.0946 0.136425,-0.157398 0.161671,-0.305781 -0.02125,-0.677779 -0.332414,-0.677515 -0.151096,10e-5 -0.262673,0.07202 -0.331145,0.213421 -0.120143,0.248138 -0.04232,0.526431 0.178408,0.637966 0.127099,0.06422 0.213978,0.06014 0.34871,-0.01643 z m 4.016453,-0.269899 c 0.157082,-0.106887 0.194687,-0.183341 0.194687,-0.396229 0,-0.213593 -0.03718,-0.288685 -0.19724,-0.398527 -0.06993,-0.04804 -0.112245,-0.05816 -0.201949,-0.0483 -0.144415,0.01589 -0.235154,0.08237 -0.308824,0.226529 -0.19554,0.382676 0.185212,0.83992 0.513419,0.616552 z"
     id="path1" />
</svg>
