<?xml version="1.0" encoding="UTF-8" standalone="no"?>
<svg
   width="64"
   height="64"
   version="1.1"
   id="svg73"
   sodipodi:docname="abcd.svg"
   inkscape:version="1.4.2 (ebf0e940d0, 2025-05-08)"
   xmlns:inkscape="http://www.inkscape.org/namespaces/inkscape"
   xmlns:sodipodi="http://sodipodi.sourceforge.net/DTD/sodipodi-0.dtd"
   xmlns:xlink="http://www.w3.org/1999/xlink"
   xmlns="http://www.w3.org/2000/svg"
   xmlns:svg="http://www.w3.org/2000/svg"
   xmlns:rdf="http://www.w3.org/1999/02/22-rdf-syntax-ns#"
   xmlns:cc="http://creativecommons.org/ns#"
   xmlns:dc="http://purl.org/dc/elements/1.1/">
  <metadata
     id="metadata77">
    <rdf:RDF>
      <cc:Work
         rdf:about="">
        <dc:format>image/svg+xml</dc:format>
        <dc:type
           rdf:resource="http://purl.org/dc/dcmitype/StillImage" />
      </cc:Work>
    </rdf:RDF>
  </metadata>
  <sodipodi:namedview
     pagecolor="#f5f7fa"
     bordercolor="#666666"
     borderopacity="1"
     objecttolerance="10"
     gridtolerance="10"
     guidetolerance="10"
     inkscape:pageopacity="0"
     inkscape:pageshadow="2"
     inkscape:window-width="1366"
     inkscape:window-height="927"
     id="namedview75"
     showgrid="false"
     inkscape:zoom="6.2890624"
     inkscape:cx="53.505591"
     inkscape:cy="29.734162"
     inkscape:window-x="24"
     inkscape:window-y="21"
     inkscape:window-maximized="0"
     inkscape:current-layer="svg73"
     inkscape:document-rotation="0"
     inkscape:pagecheckerboard="0"
     inkscape:showpageshadow="2"
     inkscape:deskcolor="#d1d1d1" />
  <defs
     id="defs29">
    <linearGradient
       id="linearGradient4"
       inkscape:collect="always">
      <stop
         style="stop-color:#ac5e5e;stop-opacity:1;"
         offset="0"
         id="stop4" />
      <stop
         style="stop-color:#c18181;stop-opacity:1;"
         offset="0.5"
         id="stop1" />
    </linearGradient>
    <linearGradient
       id="linearGradient2"
       inkscape:collect="always">
      <stop
         style="stop-color:#f4ecec;stop-opacity:1;"
         offset="0"
         id="stop2" />
      <stop
         style="stop-color:#e9d8d8;stop-opacity:1;"
         offset="1"
         id="stop3" />
    </linearGradient>
    <linearGradient
       inkscape:collect="always"
       xlink:href="#linearGradient2"
       id="linearGradient8"
       x1="31.721739"
       y1="5.2278585"
       x2="31.88887"
       y2="59.145416"
       gradientUnits="userSpaceOnUse"
       gradientTransform="matrix(0.8505,0,0,0.8505,4.7765033,4.7794869)" />
    <filter
       style="color-interpolation-filters:sRGB;"
       inkscape:label="Blur"
       id="filter9"
       x="-0.047762285"
       y="-0.047489063"
       width="1.0955246"
       height="1.0949781">
      <feGaussianBlur
         stdDeviation="1 1"
         result="blur"
         id="feGaussianBlur9" />
    </filter>
    <linearGradient
       inkscape:collect="always"
       xlink:href="#linearGradient4"
       id="linearGradient7"
       x1="26.723248"
       y1="58.711765"
       x2="25.756926"
       y2="5.950614"
       gradientUnits="userSpaceOnUse" />
    <filter
       style="color-interpolation-filters:sRGB;"
       inkscape:label="Out of Focus"
       id="filter40"
       x="-0.24226652"
       y="-0.2858297"
       width="1.484533"
       height="1.5716594">
      <feFlood
         flood-opacity="1"
         flood-color="rgb(255,255,255)"
         result="flood"
         id="feFlood38" />
      <feColorMatrix
         in="SourceGraphic"
         values="1 0 0 0 0 0 1 0 0 0 0 0 1 0 0 -0.2125 -0.7154 -0.0721 1 0 "
         result="colormatrix1"
         id="feColorMatrix38" />
      <feGaussianBlur
         in="colormatrix1"
         stdDeviation="3 3"
         result="blur"
         id="feGaussianBlur38" />
      <feColorMatrix
         in="blur"
         values="1 0 0 0 0 0 1 0 0 0 0 0 1 0 0 0 0 0 6 -2 "
         result="colormatrix2"
         id="feColorMatrix39" />
      <feBlend
         in="colormatrix2"
         in2="flood"
         mode="normal"
         result="blend"
         id="feBlend39" />
      <feComposite
         in="blend"
         in2="blend"
         operator="arithmetic"
         k2="0.2"
         result="composite1"
         id="feComposite39" />
      <feComposite
         in2="SourceGraphic"
         operator="in"
         id="feComposite40" />
    </filter>
  </defs>
  <g
     id="g877"
     transform="matrix(1.1,0,0,1.1,-3.1845928,-3.2065454)">
    <ellipse
       style="opacity:0.5;fill:#000000;stroke:none;stroke-width:3.89319;stroke-dasharray:none;stroke-opacity:1;filter:url(#filter9)"
       id="path2-5"
       cx="31.949858"
       cy="31.969812"
       rx="25.124426"
       ry="25.268976"
       transform="matrix(1.05,0,0,1.05,-1.5974929,-1.5984906)" />
    <path
       style="fill:#f5f7fa;stroke-width:0.204426;fill-opacity:1"
       d=""
       id="path3" />
    <circle
       style="opacity:1;fill:url(#linearGradient8);stroke:url(#linearGradient7);stroke-width:3.81818;stroke-dasharray:none;stroke-opacity:1"
       id="path2"
       cx="31.949856"
       cy="31.969812"
       r="24.711082" />
    <ellipse
       style="opacity:0.3;fill:none;stroke:#000000;stroke-width:0.974376;stroke-dasharray:none;stroke-opacity:1"
       id="path2-9"
       cx="31.949856"
       cy="31.969812"
       rx="23.129124"
       ry="23.129126" />
  </g>
  <path
     style="fill:#000000;fill-opacity:1;stroke:none;stroke-width:0.472885;stroke-dasharray:none;stroke-opacity:0.6;opacity:0.2"
     d="m 39.326024,39.417517 c -5.514198,2.615237 -11.189323,5.069505 -17.214616,6.377289 -1.942051,-0.009 -0.983872,-2.434686 -0.670176,-3.533879 1.506471,-4.669183 3.842381,-9.040697 6.064032,-13.423889 0.879568,-1.384899 1.503433,-3.293576 3.276807,-3.826424 1.722536,-0.18362 2.854343,1.414498 3.746545,2.580397 3.648379,5.360489 7.093982,10.861182 10.115275,16.569693 0.765298,1.487829 1.515107,2.982882 2.256923,4.481567 -2.205912,-8.638988 -5.174748,-17.207308 -9.961484,-24.874287 -1.072862,-1.513923 -2.049757,-3.157037 -3.497523,-4.37513 -1.410807,-1.039381 -3.145859,0.07962 -4.188916,1.085783 -3.275793,3.151918 -5.271309,7.265271 -7.226895,11.236742 -2.280419,4.699778 -3.776459,9.710026 -4.87483,14.770894 -0.385071,1.704372 1.442282,2.941496 3.066233,2.412651 4.498075,-0.897501 8.725316,-2.780077 12.703238,-4.940525 2.29264,-1.291541 4.497605,-2.75811 6.40497,-4.541382 z"
     id="path8-2" />
  <path
     style="fill:#4d4d4d;fill-opacity:1;stroke:none;stroke-width:0.472885;stroke-dasharray:none;stroke-opacity:0.6"
     d="m 39.326024,37.417517 c -5.514198,2.615237 -11.189323,5.069505 -17.214616,6.377289 -1.942051,-0.009 -0.983872,-2.434686 -0.670176,-3.533879 1.506471,-4.669183 3.842381,-9.040697 6.064032,-13.423889 0.879568,-1.384899 1.503433,-3.293576 3.276807,-3.826424 1.722536,-0.18362 2.854343,1.414498 3.746545,2.580397 3.648379,5.360489 7.093982,10.861182 10.115275,16.569693 0.765298,1.487829 1.515107,2.982882 2.256923,4.481567 -2.205912,-8.638988 -5.174748,-17.207308 -9.961484,-24.874287 -1.072862,-1.513923 -2.049757,-3.157037 -3.497523,-4.37513 -1.410807,-1.039381 -3.145859,0.07962 -4.188916,1.085783 -3.275793,3.151918 -5.271309,7.265271 -7.226895,11.236742 -2.280419,4.699778 -3.776459,9.710026 -4.87483,14.770894 -0.385071,1.704372 1.442282,2.941496 3.066233,2.412651 4.498075,-0.897501 8.725316,-2.780077 12.703238,-4.940525 2.29264,-1.291541 4.497605,-2.75811 6.40497,-4.541382 z"
     id="path8" />
</svg>
