<?xml version="1.0" encoding="UTF-8" standalone="no"?>
<svg
   width="64"
   height="64"
   version="1.1"
   id="svg73"
   sodipodi:docname="1password.svg"
   inkscape:version="1.4.2 (ebf0e940d0, 2025-05-08)"
   xmlns:inkscape="http://www.inkscape.org/namespaces/inkscape"
   xmlns:sodipodi="http://sodipodi.sourceforge.net/DTD/sodipodi-0.dtd"
   xmlns:xlink="http://www.w3.org/1999/xlink"
   xmlns="http://www.w3.org/2000/svg"
   xmlns:svg="http://www.w3.org/2000/svg"
   xmlns:rdf="http://www.w3.org/1999/02/22-rdf-syntax-ns#"
   xmlns:cc="http://creativecommons.org/ns#"
   xmlns:dc="http://purl.org/dc/elements/1.1/">
  <metadata
     id="metadata77">
    <rdf:RDF>
      <cc:Work
         rdf:about="">
        <dc:format>image/svg+xml</dc:format>
        <dc:type
           rdf:resource="http://purl.org/dc/dcmitype/StillImage" />
      </cc:Work>
    </rdf:RDF>
  </metadata>
  <sodipodi:namedview
     pagecolor="#f5f7fa"
     bordercolor="#666666"
     borderopacity="1"
     objecttolerance="10"
     gridtolerance="10"
     guidetolerance="10"
     inkscape:pageopacity="0"
     inkscape:pageshadow="2"
     inkscape:window-width="1414"
     inkscape:window-height="797"
     id="namedview75"
     showgrid="false"
     inkscape:zoom="6.2890624"
     inkscape:cx="34.345342"
     inkscape:cy="29.734162"
     inkscape:window-x="24"
     inkscape:window-y="21"
     inkscape:window-maximized="0"
     inkscape:current-layer="svg73"
     inkscape:document-rotation="0"
     inkscape:pagecheckerboard="0"
     inkscape:showpageshadow="2"
     inkscape:deskcolor="#d1d1d1" />
  <defs
     id="defs29">
    <linearGradient
       id="linearGradient4"
       inkscape:collect="always">
      <stop
         style="stop-color:#ac5e5e;stop-opacity:1;"
         offset="0"
         id="stop4" />
      <stop
         style="stop-color:#c18181;stop-opacity:1;"
         offset="0.5"
         id="stop1" />
    </linearGradient>
    <linearGradient
       id="linearGradient2"
       inkscape:collect="always">
      <stop
         style="stop-color:#f4ecec;stop-opacity:1;"
         offset="0"
         id="stop2" />
      <stop
         style="stop-color:#e9d8d8;stop-opacity:1;"
         offset="1"
         id="stop3" />
    </linearGradient>
    <linearGradient
       inkscape:collect="always"
       xlink:href="#linearGradient2"
       id="linearGradient8"
       x1="31.721739"
       y1="5.2278585"
       x2="31.88887"
       y2="59.145416"
       gradientUnits="userSpaceOnUse"
       gradientTransform="matrix(0.8505,0,0,0.8505,4.7765033,4.7794869)" />
    <filter
       style="color-interpolation-filters:sRGB;"
       inkscape:label="Blur"
       id="filter9"
       x="-0.047762285"
       y="-0.047489063"
       width="1.0955246"
       height="1.0949781">
      <feGaussianBlur
         stdDeviation="1 1"
         result="blur"
         id="feGaussianBlur9" />
    </filter>
    <linearGradient
       inkscape:collect="always"
       xlink:href="#linearGradient4"
       id="linearGradient7"
       x1="26.723248"
       y1="58.711765"
       x2="25.756926"
       y2="5.950614"
       gradientUnits="userSpaceOnUse" />
    <filter
       style="color-interpolation-filters:sRGB;"
       inkscape:label="Out of Focus"
       id="filter40"
       x="-0.24226652"
       y="-0.2858297"
       width="1.484533"
       height="1.5716594">
      <feFlood
         flood-opacity="1"
         flood-color="rgb(255,255,255)"
         result="flood"
         id="feFlood38" />
      <feColorMatrix
         in="SourceGraphic"
         values="1 0 0 0 0 0 1 0 0 0 0 0 1 0 0 -0.2125 -0.7154 -0.0721 1 0 "
         result="colormatrix1"
         id="feColorMatrix38" />
      <feGaussianBlur
         in="colormatrix1"
         stdDeviation="3 3"
         result="blur"
         id="feGaussianBlur38" />
      <feColorMatrix
         in="blur"
         values="1 0 0 0 0 0 1 0 0 0 0 0 1 0 0 0 0 0 6 -2 "
         result="colormatrix2"
         id="feColorMatrix39" />
      <feBlend
         in="colormatrix2"
         in2="flood"
         mode="normal"
         result="blend"
         id="feBlend39" />
      <feComposite
         in="blend"
         in2="blend"
         operator="arithmetic"
         k2="0.2"
         result="composite1"
         id="feComposite39" />
      <feComposite
         in2="SourceGraphic"
         operator="in"
         id="feComposite40" />
    </filter>
  </defs>
  <g
     id="g877"
     transform="matrix(1.1,0,0,1.1,-3.1845928,-3.2065454)">
    <ellipse
       style="opacity:0.5;fill:#000000;stroke:none;stroke-width:3.89319;stroke-dasharray:none;stroke-opacity:1;filter:url(#filter9)"
       id="path2-5"
       cx="31.949858"
       cy="31.969812"
       rx="25.124426"
       ry="25.268976"
       transform="matrix(1.05,0,0,1.05,-1.5974929,-1.5984906)" />
    <path
       style="fill:#f5f7fa;stroke-width:0.204426;fill-opacity:1"
       d=""
       id="path3" />
    <circle
       style="opacity:1;fill:url(#linearGradient8);stroke:url(#linearGradient7);stroke-width:3.81818;stroke-dasharray:none;stroke-opacity:1"
       id="path2"
       cx="31.949856"
       cy="31.969812"
       r="24.711082" />
    <ellipse
       style="opacity:0.3;fill:none;stroke:#000000;stroke-width:0.974376;stroke-dasharray:none;stroke-opacity:1"
       id="path2-9"
       cx="31.949856"
       cy="31.969812"
       rx="23.129124"
       ry="23.129126" />
  </g>
  <path
     fill="#3d3846"
     d="m 43.561727,18.727361 c -2.135896,0 -3.09237,0.828686 -5.963964,5.431069 l -4.050482,6.561605 -1.915132,-6.713091 c -1.179427,-4.223104 -2.799291,-5.279583 -4.712231,-5.279583 -2.13535,0 -4.713877,1.885163 -8.028653,5.731238 -0.368131,0.30297 0.295269,0.981857 0.590536,0.604822 1.987991,-2.112393 3.680711,-3.092006 4.932451,-3.092006 1.031518,0 2.505666,0.525715 3.682353,4.523272 l 2.503475,8.599939 -5.154857,7.843637 c -1.176689,1.733681 -2.282711,2.262198 -3.239182,2.262198 -1.472503,0 -1.62041,-1.508129 -3.314776,-1.508129 -1.177236,0 -1.988538,0.754063 -2.135896,1.81054 -0.293079,2.036087 1.767768,3.769766 3.682901,3.769766 2.2104,0 3.166871,-0.90555 5.965613,-5.505687 l 4.564874,-7.390298 2.357759,8.144364 c 1.104379,3.922938 2.503476,4.75162 4.416961,4.75162 2.135346,0 4.713875,-1.959781 8.026455,-5.73123 0.370342,-0.377039 -0.220246,-0.979614 -0.588337,-0.679446 -1.987988,2.112956 -3.607856,3.092567 -4.859589,3.092567 -1.104384,0 -2.431167,-0.302971 -3.462135,-3.846634 l -2.945014,-10.182138 4.639922,-6.938638 c 1.178878,-1.659618 2.28271,-2.262196 3.239179,-2.262196 1.472505,0 1.619862,1.50813 3.314775,1.50813 1.177238,0 1.987993,-0.754064 2.135897,-1.810543 0.293088,-1.961468 -1.76777,-3.695147 -3.682903,-3.695148 z m 0,0"
     id="path6-7"
     style="fill:#000000;fill-opacity:1;stroke-width:1.01818;opacity:0.2" />
  <path
     fill="#3d3846"
     d="m 43.561727,16.727361 c -2.135896,0 -3.09237,0.828686 -5.963964,5.431069 l -4.050482,6.561605 -1.915132,-6.713091 c -1.179427,-4.223104 -2.799291,-5.279583 -4.712231,-5.279583 -2.13535,0 -4.713877,1.885163 -8.028653,5.731238 -0.368131,0.30297 0.295269,0.981857 0.590536,0.604822 1.987991,-2.112393 3.680711,-3.092006 4.932451,-3.092006 1.031518,0 2.505666,0.525715 3.682353,4.523272 l 2.503475,8.599939 -5.154857,7.843637 c -1.176689,1.733681 -2.282711,2.262198 -3.239182,2.262198 -1.472503,0 -1.62041,-1.508129 -3.314776,-1.508129 -1.177236,0 -1.988538,0.754063 -2.135896,1.81054 -0.293079,2.036087 1.767768,3.769766 3.682901,3.769766 2.2104,0 3.166871,-0.90555 5.965613,-5.505687 l 4.564874,-7.390298 2.357759,8.144364 c 1.104379,3.922938 2.503476,4.75162 4.416961,4.75162 2.135346,0 4.713875,-1.959781 8.026455,-5.73123 0.370342,-0.377039 -0.220246,-0.979614 -0.588337,-0.679446 -1.987988,2.112956 -3.607856,3.092567 -4.859589,3.092567 -1.104384,0 -2.431167,-0.302971 -3.462135,-3.846634 l -2.945014,-10.182138 4.639922,-6.938638 c 1.178878,-1.659618 2.28271,-2.262196 3.239179,-2.262196 1.472505,0 1.619862,1.50813 3.314775,1.50813 1.177238,0 1.987993,-0.754064 2.135897,-1.810543 0.293088,-1.961468 -1.76777,-3.695147 -3.682903,-3.695148 z m 0,0"
     id="path6"
     style="fill:#4d4d4d;fill-opacity:1;stroke-width:1.01818" />
</svg>
