<?xml version="1.0" encoding="UTF-8" standalone="no"?>
<svg
   width="64"
   height="64"
   version="1.1"
   id="svg73"
   sodipodi:docname="abcd.svg"
   inkscape:version="1.4.2 (ebf0e940d0, 2025-05-08)"
   xmlns:inkscape="http://www.inkscape.org/namespaces/inkscape"
   xmlns:sodipodi="http://sodipodi.sourceforge.net/DTD/sodipodi-0.dtd"
   xmlns:xlink="http://www.w3.org/1999/xlink"
   xmlns="http://www.w3.org/2000/svg"
   xmlns:svg="http://www.w3.org/2000/svg"
   xmlns:rdf="http://www.w3.org/1999/02/22-rdf-syntax-ns#"
   xmlns:cc="http://creativecommons.org/ns#"
   xmlns:dc="http://purl.org/dc/elements/1.1/">
  <metadata
     id="metadata77">
    <rdf:RDF>
      <cc:Work
         rdf:about="">
        <dc:format>image/svg+xml</dc:format>
        <dc:type
           rdf:resource="http://purl.org/dc/dcmitype/StillImage" />
      </cc:Work>
    </rdf:RDF>
  </metadata>
  <sodipodi:namedview
     pagecolor="#f5f7fa"
     bordercolor="#666666"
     borderopacity="1"
     objecttolerance="10"
     gridtolerance="10"
     guidetolerance="10"
     inkscape:pageopacity="0"
     inkscape:pageshadow="2"
     inkscape:window-width="1261"
     inkscape:window-height="714"
     id="namedview75"
     showgrid="false"
     inkscape:zoom="6.2890624"
     inkscape:cx="32.516771"
     inkscape:cy="29.654659"
     inkscape:window-x="24"
     inkscape:window-y="21"
     inkscape:window-maximized="0"
     inkscape:current-layer="svg73"
     inkscape:document-rotation="0"
     inkscape:pagecheckerboard="0"
     inkscape:showpageshadow="2"
     inkscape:deskcolor="#d1d1d1" />
  <defs
     id="defs29">
    <linearGradient
       id="linearGradient4"
       inkscape:collect="always">
      <stop
         style="stop-color:#ac5e5e;stop-opacity:1;"
         offset="0"
         id="stop4" />
      <stop
         style="stop-color:#c18181;stop-opacity:1;"
         offset="0.5"
         id="stop1" />
    </linearGradient>
    <linearGradient
       id="linearGradient2"
       inkscape:collect="always">
      <stop
         style="stop-color:#f4ecec;stop-opacity:1;"
         offset="0"
         id="stop2" />
      <stop
         style="stop-color:#e9d8d8;stop-opacity:1;"
         offset="1"
         id="stop3" />
    </linearGradient>
    <linearGradient
       inkscape:collect="always"
       xlink:href="#linearGradient2"
       id="linearGradient8"
       x1="31.721739"
       y1="5.2278585"
       x2="31.88887"
       y2="59.145416"
       gradientUnits="userSpaceOnUse"
       gradientTransform="matrix(0.8505,0,0,0.8505,4.7765033,4.7794869)" />
    <filter
       style="color-interpolation-filters:sRGB;"
       inkscape:label="Blur"
       id="filter9"
       x="-0.047762285"
       y="-0.047489063"
       width="1.0955246"
       height="1.0949781">
      <feGaussianBlur
         stdDeviation="1 1"
         result="blur"
         id="feGaussianBlur9" />
    </filter>
    <linearGradient
       inkscape:collect="always"
       xlink:href="#linearGradient4"
       id="linearGradient7"
       x1="26.723248"
       y1="58.711765"
       x2="25.756926"
       y2="5.950614"
       gradientUnits="userSpaceOnUse" />
    <filter
       style="color-interpolation-filters:sRGB;"
       inkscape:label="Out of Focus"
       id="filter40"
       x="-0.24226652"
       y="-0.2858297"
       width="1.484533"
       height="1.5716594">
      <feFlood
         flood-opacity="1"
         flood-color="rgb(255,255,255)"
         result="flood"
         id="feFlood38" />
      <feColorMatrix
         in="SourceGraphic"
         values="1 0 0 0 0 0 1 0 0 0 0 0 1 0 0 -0.2125 -0.7154 -0.0721 1 0 "
         result="colormatrix1"
         id="feColorMatrix38" />
      <feGaussianBlur
         in="colormatrix1"
         stdDeviation="3 3"
         result="blur"
         id="feGaussianBlur38" />
      <feColorMatrix
         in="blur"
         values="1 0 0 0 0 0 1 0 0 0 0 0 1 0 0 0 0 0 6 -2 "
         result="colormatrix2"
         id="feColorMatrix39" />
      <feBlend
         in="colormatrix2"
         in2="flood"
         mode="normal"
         result="blend"
         id="feBlend39" />
      <feComposite
         in="blend"
         in2="blend"
         operator="arithmetic"
         k2="0.2"
         result="composite1"
         id="feComposite39" />
      <feComposite
         in2="SourceGraphic"
         operator="in"
         id="feComposite40" />
    </filter>
  </defs>
  <g
     id="g877"
     transform="matrix(1.1,0,0,1.1,-3.1845928,-3.2065454)">
    <ellipse
       style="opacity:0.5;fill:#000000;stroke:none;stroke-width:3.89319;stroke-dasharray:none;stroke-opacity:1;filter:url(#filter9)"
       id="path2-5"
       cx="31.949858"
       cy="31.969812"
       rx="25.124426"
       ry="25.268976"
       transform="matrix(1.05,0,0,1.05,-1.5974929,-1.5984906)" />
    <path
       style="fill:#f5f7fa;stroke-width:0.204426;fill-opacity:1"
       d=""
       id="path3" />
    <circle
       style="opacity:1;fill:url(#linearGradient8);stroke:url(#linearGradient7);stroke-width:3.81818;stroke-dasharray:none;stroke-opacity:1"
       id="path2"
       cx="31.949856"
       cy="31.969812"
       r="24.711082" />
    <ellipse
       style="opacity:0.3;fill:none;stroke:#000000;stroke-width:0.974376;stroke-dasharray:none;stroke-opacity:1"
       id="path2-9"
       cx="31.949856"
       cy="31.969812"
       rx="23.129124"
       ry="23.129126" />
  </g>
  <path
     id="path4-7"
     style="fill:#000000;fill-opacity:1;stroke-width:0.0477913;opacity:0.2"
     d="m 36.851317,19.715559 c -0.364847,7.67e-4 -0.739394,0.08963 -1.107463,0.268476 -0.349488,0.169821 -0.851956,0.676516 -1.021327,1.029158 -0.07125,0.148377 -0.329066,0.983917 -0.572745,1.856956 l -0.442985,1.587362 -0.287492,-0.02906 c -0.725305,-0.07287 -1.75945,-0.0871 -2.381604,-0.03244 -0.363738,0.03193 -0.673134,0.04618 -0.687971,0.03133 -0.01484,-0.01482 -0.217621,-0.70992 -0.450816,-1.544846 -0.257658,-0.922528 -0.489646,-1.651739 -0.590645,-1.859197 -0.20055,-0.411939 -0.57244,-0.800622 -0.96763,-1.011258 -1.602825,-0.854295 -3.499133,0.264256 -3.499133,2.063908 0,0.342729 0.05237,0.587249 0.425086,1.966583 0.234071,0.866256 0.457603,1.698196 0.49668,1.848008 l 0.07159,0.271832 -0.676784,0.451934 c -0.371722,0.248709 -0.878169,0.616028 -1.126478,0.815492 -0.248311,0.199467 -0.466902,0.362446 -0.485495,0.362446 -0.01857,0 -0.660244,-0.650168 -1.425156,-1.445295 -0.764913,-0.795129 -1.493751,-1.515948 -1.619805,-1.601906 -0.909636,-0.620295 -2.186951,-0.491224 -2.980078,0.302036 -0.777704,0.777836 -0.927227,1.938556 -0.369155,2.868213 0.09848,0.164059 0.731822,0.859943 1.611972,1.770822 l 1.449771,1.501227 -0.564917,0.632036 c -0.799443,0.895882 -2.164322,2.251304 -2.655672,2.636654 -0.229382,0.179896 -0.492692,0.43739 -0.585056,0.57163 -0.464406,0.674976 -0.533158,1.679053 -0.166678,2.447603 0.17259,0.36194 0.405649,0.605926 0.889325,0.930718 1.09534,0.735516 1.831119,1.388121 3.694897,3.276522 2.632302,2.667075 3.416788,3.40218 4.493611,4.212828 1.720903,1.295528 3.516531,2.084876 5.233035,2.29882 0.236568,0.02934 0.483547,0.06265 0.549258,0.07385 0.282384,0.04806 2.102996,-0.01716 2.533739,-0.0906 2.088274,-0.355888 3.93043,-1.27828 5.925481,-2.966664 0.691849,-0.585491 1.545897,-1.411974 3.363777,-3.255266 2.154341,-2.184489 2.727073,-2.69839 3.915271,-3.514824 0.898952,-0.617668 1.159065,-1.083695 1.153327,-2.069486 -0.0052,-0.875091 -0.244525,-1.348129 -0.966514,-1.915126 -0.498097,-0.391181 -1.816776,-1.700663 -2.631062,-2.612042 l -0.586168,-0.655522 1.42404,-1.471024 c 0.783193,-0.809152 1.493447,-1.5762 1.578412,-1.70482 0.666124,-1.008423 0.469475,-2.333228 -0.462005,-3.109842 -0.880419,-0.734056 -2.17166,-0.736169 -3.016988,-0.0056 -0.09381,0.08106 -0.767403,0.765664 -1.497873,1.521361 -0.730473,0.755699 -1.343148,1.373702 -1.361397,1.373702 -0.018,0 -0.237153,-0.1631 -0.485488,-0.362443 -0.248303,-0.199344 -0.741425,-0.556584 -1.096278,-0.794244 -0.354836,-0.237659 -0.651447,-0.457113 -0.658884,-0.487731 -0.0076,-0.03062 0.20262,-0.854337 0.466474,-1.830109 0.263883,-0.975773 0.493495,-1.903867 0.510106,-2.062789 0.06724,-0.643358 -0.191854,-1.322891 -0.695803,-1.825636 -0.473839,-0.472699 -1.05423,-0.715164 -1.662309,-0.713682 z m -4.801241,7.405455 c 1.400767,0.0042 2.80158,0.320557 4.068525,0.957564 2.785629,1.400586 4.663188,4.092377 5.017141,7.192909 0.213573,1.870811 -0.194022,3.897094 -1.108587,5.509344 -1.477476,2.604546 -4.075878,4.321906 -7.02399,4.643508 -2.231282,0.243408 -4.483892,-0.345302 -6.346093,-1.658952 -0.58754,-0.414471 -1.698598,-1.522896 -2.104178,-2.099705 -1.098957,-1.562919 -1.641154,-3.17281 -1.70482,-5.057409 -0.05419,-1.60361 0.23007,-2.950399 0.916173,-4.347069 0.477128,-0.971271 0.934695,-1.614918 1.712651,-2.406214 0.511627,-0.520398 0.906034,-0.850055 1.457599,-1.218207 1.513295,-1.01008 3.314597,-1.521014 5.115579,-1.515769 z m -0.04029,3.519268 c -0.859091,0 -0.969066,0.01056 -1.400547,0.127524 -1.024957,0.277792 -1.879579,0.771019 -2.619861,1.511297 -0.744362,0.744363 -1.243756,1.612006 -1.506818,2.619876 -0.162674,0.623244 -0.206036,1.696303 -0.0951,2.332381 0.417595,2.39405 2.261464,4.252487 4.64239,4.678188 0.505623,0.09039 1.377695,0.09351 1.912888,0.0068 2.379106,-0.386025 4.268843,-2.274196 4.689372,-4.685048 0.109967,-0.630398 0.06777,-1.709713 -0.09172,-2.317839 -0.277542,-1.058369 -0.762721,-1.889191 -1.562745,-2.676913 -0.760295,-0.748612 -1.527108,-1.186909 -2.567296,-1.468788 -0.432538,-0.117213 -0.541043,-0.127525 -1.40055,-0.127525 z" />
  <path
     id="path4"
     style="fill:#4d4d4d;fill-opacity:1;stroke-width:0.0477913"
     d="m 36.851317,17.715559 c -0.364847,7.67e-4 -0.739394,0.08963 -1.107463,0.268476 -0.349488,0.169821 -0.851956,0.676516 -1.021327,1.029158 -0.07125,0.148377 -0.329066,0.983917 -0.572745,1.856956 l -0.442985,1.587362 -0.287492,-0.02906 c -0.725305,-0.07287 -1.75945,-0.0871 -2.381604,-0.03244 -0.363738,0.03193 -0.673134,0.04618 -0.687971,0.03133 -0.01484,-0.01482 -0.217621,-0.70992 -0.450816,-1.544846 -0.257658,-0.922528 -0.489646,-1.651739 -0.590645,-1.859197 -0.20055,-0.411939 -0.57244,-0.800622 -0.96763,-1.011258 -1.602825,-0.854295 -3.499133,0.264256 -3.499133,2.063908 0,0.342729 0.05237,0.587249 0.425086,1.966583 0.234071,0.866256 0.457603,1.698196 0.49668,1.848008 l 0.07159,0.271832 -0.676784,0.451934 c -0.371722,0.248709 -0.878169,0.616028 -1.126478,0.815492 -0.248311,0.199467 -0.466902,0.362446 -0.485495,0.362446 -0.01857,0 -0.660244,-0.650168 -1.425156,-1.445295 -0.764913,-0.795129 -1.493751,-1.515948 -1.619805,-1.601906 -0.909636,-0.620295 -2.186951,-0.491224 -2.980078,0.302036 -0.777704,0.777836 -0.927227,1.938556 -0.369155,2.868213 0.09848,0.164059 0.731822,0.859943 1.611972,1.770822 l 1.449771,1.501227 -0.564917,0.632036 c -0.799443,0.895882 -2.164322,2.251304 -2.655672,2.636654 -0.229382,0.179896 -0.492692,0.43739 -0.585056,0.57163 -0.464406,0.674976 -0.533158,1.679053 -0.166678,2.447603 0.17259,0.36194 0.405649,0.605926 0.889325,0.930718 1.09534,0.735516 1.831119,1.388121 3.694897,3.276522 2.632302,2.667075 3.416788,3.40218 4.493611,4.212828 1.720903,1.295528 3.516531,2.084876 5.233035,2.29882 0.236568,0.02934 0.483547,0.06265 0.549258,0.07385 0.282384,0.04806 2.102996,-0.01716 2.533739,-0.0906 2.088274,-0.355888 3.93043,-1.27828 5.925481,-2.966664 0.691849,-0.585491 1.545897,-1.411974 3.363777,-3.255266 2.154341,-2.184489 2.727073,-2.69839 3.915271,-3.514824 0.898952,-0.617668 1.159065,-1.083695 1.153327,-2.069486 -0.0052,-0.875091 -0.244525,-1.348129 -0.966514,-1.915126 -0.498097,-0.391181 -1.816776,-1.700663 -2.631062,-2.612042 l -0.586168,-0.655522 1.42404,-1.471024 c 0.783193,-0.809152 1.493447,-1.5762 1.578412,-1.70482 0.666124,-1.008423 0.469475,-2.333228 -0.462005,-3.109842 -0.880419,-0.734056 -2.17166,-0.736169 -3.016988,-0.0056 -0.09381,0.08106 -0.767403,0.765664 -1.497873,1.521361 -0.730473,0.755699 -1.343148,1.373702 -1.361397,1.373702 -0.018,0 -0.237153,-0.1631 -0.485488,-0.362443 -0.248303,-0.199344 -0.741425,-0.556584 -1.096278,-0.794244 -0.354836,-0.237659 -0.651447,-0.457113 -0.658884,-0.487731 -0.0076,-0.03062 0.20262,-0.854337 0.466474,-1.830109 0.263883,-0.975773 0.493495,-1.903867 0.510106,-2.062789 0.06724,-0.643358 -0.191854,-1.322891 -0.695803,-1.825636 -0.473839,-0.472699 -1.05423,-0.715164 -1.662309,-0.713682 z m -4.801241,7.405455 c 1.400767,0.0042 2.80158,0.320557 4.068525,0.957564 2.785629,1.400586 4.663188,4.092377 5.017141,7.192909 0.213573,1.870811 -0.194022,3.897094 -1.108587,5.509344 -1.477476,2.604546 -4.075878,4.321906 -7.02399,4.643508 -2.231282,0.243408 -4.483892,-0.345302 -6.346093,-1.658952 -0.58754,-0.414471 -1.698598,-1.522896 -2.104178,-2.099705 -1.098957,-1.562919 -1.641154,-3.17281 -1.70482,-5.057409 -0.05419,-1.60361 0.23007,-2.950399 0.916173,-4.347069 0.477128,-0.971271 0.934695,-1.614918 1.712651,-2.406214 0.511627,-0.520398 0.906034,-0.850055 1.457599,-1.218207 1.513295,-1.01008 3.314597,-1.521014 5.115579,-1.515769 z m -0.04029,3.519268 c -0.859091,0 -0.969066,0.01056 -1.400547,0.127524 -1.024957,0.277792 -1.879579,0.771019 -2.619861,1.511297 -0.744362,0.744363 -1.243756,1.612006 -1.506818,2.619876 -0.162674,0.623244 -0.206036,1.696303 -0.0951,2.332381 0.417595,2.39405 2.261464,4.252487 4.64239,4.678188 0.505623,0.09039 1.377695,0.09351 1.912888,0.0068 2.379106,-0.386025 4.268843,-2.274196 4.689372,-4.685048 0.109967,-0.630398 0.06777,-1.709713 -0.09172,-2.317839 -0.277542,-1.058369 -0.762721,-1.889191 -1.562745,-2.676913 -0.760295,-0.748612 -1.527108,-1.186909 -2.567296,-1.468788 -0.432538,-0.117213 -0.541043,-0.127525 -1.40055,-0.127525 z" />
</svg>
