<?xml version="1.0" encoding="UTF-8" standalone="no"?>
<svg
   width="64"
   height="64"
   version="1.1"
   id="svg73"
   sodipodi:docname="abcd.svg"
   inkscape:version="1.4.2 (ebf0e940d0, 2025-05-08)"
   xmlns:inkscape="http://www.inkscape.org/namespaces/inkscape"
   xmlns:sodipodi="http://sodipodi.sourceforge.net/DTD/sodipodi-0.dtd"
   xmlns:xlink="http://www.w3.org/1999/xlink"
   xmlns="http://www.w3.org/2000/svg"
   xmlns:svg="http://www.w3.org/2000/svg"
   xmlns:rdf="http://www.w3.org/1999/02/22-rdf-syntax-ns#"
   xmlns:cc="http://creativecommons.org/ns#"
   xmlns:dc="http://purl.org/dc/elements/1.1/">
  <metadata
     id="metadata77">
    <rdf:RDF>
      <cc:Work
         rdf:about="">
        <dc:format>image/svg+xml</dc:format>
        <dc:type
           rdf:resource="http://purl.org/dc/dcmitype/StillImage" />
      </cc:Work>
    </rdf:RDF>
  </metadata>
  <sodipodi:namedview
     pagecolor="#f5f7fa"
     bordercolor="#666666"
     borderopacity="1"
     objecttolerance="10"
     gridtolerance="10"
     guidetolerance="10"
     inkscape:pageopacity="0"
     inkscape:pageshadow="2"
     inkscape:window-width="1920"
     inkscape:window-height="931"
     id="namedview75"
     showgrid="false"
     inkscape:zoom="6.2890624"
     inkscape:cx="53.346585"
     inkscape:cy="29.734162"
     inkscape:window-x="0"
     inkscape:window-y="0"
     inkscape:window-maximized="1"
     inkscape:current-layer="svg73"
     inkscape:document-rotation="0"
     inkscape:pagecheckerboard="0"
     inkscape:showpageshadow="2"
     inkscape:deskcolor="#d1d1d1" />
  <defs
     id="defs29">
    <linearGradient
       id="linearGradient4"
       inkscape:collect="always">
      <stop
         style="stop-color:#ac5e5e;stop-opacity:1;"
         offset="0"
         id="stop4" />
      <stop
         style="stop-color:#c18181;stop-opacity:1;"
         offset="0.5"
         id="stop1" />
    </linearGradient>
    <linearGradient
       id="linearGradient2"
       inkscape:collect="always">
      <stop
         style="stop-color:#f4ecec;stop-opacity:1;"
         offset="0"
         id="stop2" />
      <stop
         style="stop-color:#e9d8d8;stop-opacity:1;"
         offset="1"
         id="stop3" />
    </linearGradient>
    <linearGradient
       inkscape:collect="always"
       xlink:href="#linearGradient2"
       id="linearGradient8"
       x1="31.721739"
       y1="5.2278585"
       x2="31.88887"
       y2="59.145416"
       gradientUnits="userSpaceOnUse"
       gradientTransform="matrix(0.8505,0,0,0.8505,4.7765033,4.7794869)" />
    <filter
       style="color-interpolation-filters:sRGB;"
       inkscape:label="Blur"
       id="filter9"
       x="-0.047762285"
       y="-0.047489063"
       width="1.0955246"
       height="1.0949781">
      <feGaussianBlur
         stdDeviation="1 1"
         result="blur"
         id="feGaussianBlur9" />
    </filter>
    <linearGradient
       inkscape:collect="always"
       xlink:href="#linearGradient4"
       id="linearGradient7"
       x1="26.723248"
       y1="58.711765"
       x2="25.756926"
       y2="5.950614"
       gradientUnits="userSpaceOnUse" />
    <filter
       style="color-interpolation-filters:sRGB;"
       inkscape:label="Out of Focus"
       id="filter40"
       x="-0.24226652"
       y="-0.2858297"
       width="1.484533"
       height="1.5716594">
      <feFlood
         flood-opacity="1"
         flood-color="rgb(255,255,255)"
         result="flood"
         id="feFlood38" />
      <feColorMatrix
         in="SourceGraphic"
         values="1 0 0 0 0 0 1 0 0 0 0 0 1 0 0 -0.2125 -0.7154 -0.0721 1 0 "
         result="colormatrix1"
         id="feColorMatrix38" />
      <feGaussianBlur
         in="colormatrix1"
         stdDeviation="3 3"
         result="blur"
         id="feGaussianBlur38" />
      <feColorMatrix
         in="blur"
         values="1 0 0 0 0 0 1 0 0 0 0 0 1 0 0 0 0 0 6 -2 "
         result="colormatrix2"
         id="feColorMatrix39" />
      <feBlend
         in="colormatrix2"
         in2="flood"
         mode="normal"
         result="blend"
         id="feBlend39" />
      <feComposite
         in="blend"
         in2="blend"
         operator="arithmetic"
         k2="0.2"
         result="composite1"
         id="feComposite39" />
      <feComposite
         in2="SourceGraphic"
         operator="in"
         id="feComposite40" />
    </filter>
  </defs>
  <g
     id="g877"
     transform="matrix(1.1,0,0,1.1,-3.1845928,-3.2065454)">
    <ellipse
       style="opacity:0.5;fill:#000000;stroke:none;stroke-width:3.89319;stroke-dasharray:none;stroke-opacity:1;filter:url(#filter9)"
       id="path2-5"
       cx="31.949858"
       cy="31.969812"
       rx="25.124426"
       ry="25.268976"
       transform="matrix(1.05,0,0,1.05,-1.5974929,-1.5984906)" />
    <path
       style="fill:#f5f7fa;stroke-width:0.204426;fill-opacity:1"
       d=""
       id="path3" />
    <circle
       style="opacity:1;fill:url(#linearGradient8);stroke:url(#linearGradient7);stroke-width:3.81818;stroke-dasharray:none;stroke-opacity:1"
       id="path2"
       cx="31.949856"
       cy="31.969812"
       r="24.711082" />
    <ellipse
       style="opacity:0.3;fill:none;stroke:#000000;stroke-width:0.974376;stroke-dasharray:none;stroke-opacity:1"
       id="path2-9"
       cx="31.949856"
       cy="31.969812"
       rx="23.129124"
       ry="23.129126" />
  </g>
  <path
     d="m 35.661685,47.294732 v 1.148007 c 0,0.629708 -0.519509,1.148004 -1.149218,1.148004 h -4.594454 c -0.629709,0 -1.148007,-0.518296 -1.148007,-1.148004 V 47.294732 Z M 32.215238,26.619694 c -4.410383,0 -8.039687,3.629305 -8.039687,8.039689 0,2.733178 1.365982,5.134555 3.445236,6.592564 v 2.596341 c 0,0.629701 0.518297,1.148007 1.149219,1.148007 h 6.891679 c 0.629709,0 1.148011,-0.518306 1.148011,-1.148007 v -2.596341 c 2.079245,-1.458009 3.44523,-3.859386 3.44523,-6.592564 0,-4.410384 -3.629298,-8.039689 -8.039688,-8.039689 z m 14.20963,11.184601 -2.698065,-0.876749 c -0.641817,-0.207082 -1.328443,0.142893 -1.53673,0.783502 -0.208284,0.639398 0.14286,1.327235 0.782288,1.536732 l 2.699281,0.875541 c 0.12475,0.04122 0.250706,0.0605 0.376589,0.0605 0.513456,0 0.99057,-0.328213 1.160107,-0.842844 0.207045,-0.641818 -0.1441,-1.328446 -0.783502,-1.536734 z m -26.149882,-0.876749 -2.700482,0.875539 c -0.639396,0.207077 -0.99058,0.894911 -0.782291,1.536734 0.167118,0.514661 0.645452,0.84284 1.158908,0.84284 0.124729,0 0.25188,-0.01949 0.377821,-0.06056 l 2.699275,-0.874319 c 0.639398,-0.2095 0.99058,-0.89613 0.782292,-1.536736 -0.205866,-0.640608 -0.888857,-0.99058 -1.535523,-0.783503 z M 43.35019,31.932259 c 0.124751,0 0.250707,-0.02058 0.376592,-0.06054 l 2.69808,-0.876747 c 0.63939,-0.208287 0.990584,-0.896126 0.783504,-1.536732 -0.209498,-0.639396 -0.899753,-0.989368 -1.536732,-0.782291 l -2.699273,0.876748 c -0.639399,0.208287 -0.990586,0.896124 -0.78229,1.535522 0.167136,0.515875 0.645454,0.844051 1.160112,0.844051 z m -22.320761,-2.379574 -2.699273,-0.87796 c -0.645452,-0.208286 -1.328443,0.141686 -1.536731,0.782292 -0.208291,0.64061 0.141685,1.328443 0.781079,1.536732 l 2.699273,0.87796 c 0.125944,0.03995 0.251878,0.05935 0.377822,0.05935 0.514668,0 0.991792,-0.326965 1.15891,-0.842842 0.208286,-0.639392 -0.141682,-1.327229 -0.78108,-1.53552 z m 2.969319,-4.090687 c 0.238558,0.329383 0.610333,0.502556 0.98816,0.502556 0.248246,0 0.498923,-0.07509 0.715689,-0.232507 0.543729,-0.394778 0.664826,-1.157695 0.271258,-1.702638 l -1.667518,-2.296014 c -0.397203,-0.543731 -1.157696,-0.667249 -1.705058,-0.27005 -0.54373,0.394779 -0.664826,1.157697 -0.268838,1.702637 z m 15.696713,-3.728603 c 0.397198,-0.54494 1.155272,-0.66846 1.703847,-0.270047 0.543722,0.394776 0.666028,1.157696 0.270057,1.702636 l -1.667525,2.296018 c -0.23855,0.329379 -0.610331,0.502554 -0.988154,0.502554 -0.24709,0 -0.498925,-0.07508 -0.715695,-0.232507 -0.54372,-0.39478 -0.664817,-1.157697 -0.270055,-1.70264 z m -7.695775,1.952097 c 0.674513,0 1.220667,-0.547363 1.220667,-1.219456 v -2.836113 c 0,-0.674514 -0.546154,-1.220665 -1.220667,-1.220665 -0.673304,0 -1.219455,0.546151 -1.219455,1.220665 v 2.836113 c 0,0.672093 0.546151,1.219456 1.219455,1.219456 z"
     fill="url(#b)"
     fill-rule="nonzero"
     id="path4-4"
     style="fill:#000000;fill-opacity:1;stroke:none;stroke-width:0.515722;stroke-dasharray:none;stroke-opacity:0.6;opacity:0.2" />
  <path
     d="m 35.661685,45.294732 v 1.148007 c 0,0.629708 -0.519509,1.148004 -1.149218,1.148004 h -4.594454 c -0.629709,0 -1.148007,-0.518296 -1.148007,-1.148004 V 45.294732 Z M 32.215238,24.619694 c -4.410383,0 -8.039687,3.629305 -8.039687,8.039689 0,2.733178 1.365982,5.134555 3.445236,6.592564 v 2.596341 c 0,0.629701 0.518297,1.148007 1.149219,1.148007 h 6.891679 c 0.629709,0 1.148011,-0.518306 1.148011,-1.148007 v -2.596341 c 2.079245,-1.458009 3.44523,-3.859386 3.44523,-6.592564 0,-4.410384 -3.629298,-8.039689 -8.039688,-8.039689 z m 14.20963,11.184601 -2.698065,-0.876749 c -0.641817,-0.207082 -1.328443,0.142893 -1.53673,0.783502 -0.208284,0.639398 0.14286,1.327235 0.782288,1.536732 l 2.699281,0.875541 c 0.12475,0.04122 0.250706,0.0605 0.376589,0.0605 0.513456,0 0.99057,-0.328213 1.160107,-0.842844 0.207045,-0.641818 -0.1441,-1.328446 -0.783502,-1.536734 z m -26.149882,-0.876749 -2.700482,0.875539 c -0.639396,0.207077 -0.99058,0.894911 -0.782291,1.536734 0.167118,0.514661 0.645452,0.84284 1.158908,0.84284 0.124729,0 0.25188,-0.01949 0.377821,-0.06056 l 2.699275,-0.874319 c 0.639398,-0.2095 0.99058,-0.89613 0.782292,-1.536736 -0.205866,-0.640608 -0.888857,-0.99058 -1.535523,-0.783503 z M 43.35019,29.932259 c 0.124751,0 0.250707,-0.02058 0.376592,-0.06054 l 2.69808,-0.876747 c 0.63939,-0.208287 0.990584,-0.896126 0.783504,-1.536732 -0.209498,-0.639396 -0.899753,-0.989368 -1.536732,-0.782291 l -2.699273,0.876748 c -0.639399,0.208287 -0.990586,0.896124 -0.78229,1.535522 0.167136,0.515875 0.645454,0.844051 1.160112,0.844051 z m -22.320761,-2.379574 -2.699273,-0.87796 c -0.645452,-0.208286 -1.328443,0.141686 -1.536731,0.782292 -0.208291,0.64061 0.141685,1.328443 0.781079,1.536732 l 2.699273,0.87796 c 0.125944,0.03995 0.251878,0.05935 0.377822,0.05935 0.514668,0 0.991792,-0.326965 1.15891,-0.842842 0.208286,-0.639392 -0.141682,-1.327229 -0.78108,-1.53552 z m 2.969319,-4.090687 c 0.238558,0.329383 0.610333,0.502556 0.98816,0.502556 0.248246,0 0.498923,-0.07509 0.715689,-0.232507 0.543729,-0.394778 0.664826,-1.157695 0.271258,-1.702638 l -1.667518,-2.296014 c -0.397203,-0.543731 -1.157696,-0.667249 -1.705058,-0.27005 -0.54373,0.394779 -0.664826,1.157697 -0.268838,1.702637 z m 15.696713,-3.728603 c 0.397198,-0.54494 1.155272,-0.66846 1.703847,-0.270047 0.543722,0.394776 0.666028,1.157696 0.270057,1.702636 l -1.667525,2.296018 c -0.23855,0.329379 -0.610331,0.502554 -0.988154,0.502554 -0.24709,0 -0.498925,-0.07508 -0.715695,-0.232507 -0.54372,-0.39478 -0.664817,-1.157697 -0.270055,-1.70264 z m -7.695775,1.952097 c 0.674513,0 1.220667,-0.547363 1.220667,-1.219456 v -2.836113 c 0,-0.674514 -0.546154,-1.220665 -1.220667,-1.220665 -0.673304,0 -1.219455,0.546151 -1.219455,1.220665 v 2.836113 c 0,0.672093 0.546151,1.219456 1.219455,1.219456 z"
     fill="url(#b)"
     fill-rule="nonzero"
     id="path4"
     style="fill:#4d4d4d;fill-opacity:1;stroke:none;stroke-width:0.515722;stroke-dasharray:none;stroke-opacity:0.6" />
</svg>
