<?xml version="1.0" encoding="UTF-8" standalone="no"?>
<svg
   width="64"
   height="64"
   version="1.1"
   id="svg73"
   sodipodi:docname="1password.svg"
   inkscape:version="1.4.2 (ebf0e940d0, 2025-05-08)"
   xmlns:inkscape="http://www.inkscape.org/namespaces/inkscape"
   xmlns:sodipodi="http://sodipodi.sourceforge.net/DTD/sodipodi-0.dtd"
   xmlns:xlink="http://www.w3.org/1999/xlink"
   xmlns="http://www.w3.org/2000/svg"
   xmlns:svg="http://www.w3.org/2000/svg"
   xmlns:rdf="http://www.w3.org/1999/02/22-rdf-syntax-ns#"
   xmlns:cc="http://creativecommons.org/ns#"
   xmlns:dc="http://purl.org/dc/elements/1.1/">
  <metadata
     id="metadata77">
    <rdf:RDF>
      <cc:Work
         rdf:about="">
        <dc:format>image/svg+xml</dc:format>
        <dc:type
           rdf:resource="http://purl.org/dc/dcmitype/StillImage" />
      </cc:Work>
    </rdf:RDF>
  </metadata>
  <sodipodi:namedview
     pagecolor="#f5f7fa"
     bordercolor="#666666"
     borderopacity="1"
     objecttolerance="10"
     gridtolerance="10"
     guidetolerance="10"
     inkscape:pageopacity="0"
     inkscape:pageshadow="2"
     inkscape:window-width="1289"
     inkscape:window-height="707"
     id="namedview75"
     showgrid="false"
     inkscape:zoom="6.2890624"
     inkscape:cx="53.505591"
     inkscape:cy="29.734162"
     inkscape:window-x="24"
     inkscape:window-y="21"
     inkscape:window-maximized="0"
     inkscape:current-layer="svg73"
     inkscape:document-rotation="0"
     inkscape:pagecheckerboard="0"
     inkscape:showpageshadow="2"
     inkscape:deskcolor="#d1d1d1" />
  <defs
     id="defs29">
    <linearGradient
       id="linearGradient4"
       inkscape:collect="always">
      <stop
         style="stop-color:#ac5e5e;stop-opacity:1;"
         offset="0"
         id="stop4" />
      <stop
         style="stop-color:#c18181;stop-opacity:1;"
         offset="0.5"
         id="stop1" />
    </linearGradient>
    <linearGradient
       id="linearGradient2"
       inkscape:collect="always">
      <stop
         style="stop-color:#f4ecec;stop-opacity:1;"
         offset="0"
         id="stop2" />
      <stop
         style="stop-color:#e9d8d8;stop-opacity:1;"
         offset="1"
         id="stop3" />
    </linearGradient>
    <linearGradient
       inkscape:collect="always"
       xlink:href="#linearGradient2"
       id="linearGradient8"
       x1="31.721739"
       y1="5.2278585"
       x2="31.88887"
       y2="59.145416"
       gradientUnits="userSpaceOnUse"
       gradientTransform="matrix(0.8505,0,0,0.8505,4.7765033,4.7794869)" />
    <filter
       style="color-interpolation-filters:sRGB;"
       inkscape:label="Blur"
       id="filter9"
       x="-0.047762285"
       y="-0.047489063"
       width="1.0955246"
       height="1.0949781">
      <feGaussianBlur
         stdDeviation="1 1"
         result="blur"
         id="feGaussianBlur9" />
    </filter>
    <linearGradient
       inkscape:collect="always"
       xlink:href="#linearGradient4"
       id="linearGradient7"
       x1="26.723248"
       y1="58.711765"
       x2="25.756926"
       y2="5.950614"
       gradientUnits="userSpaceOnUse" />
    <filter
       style="color-interpolation-filters:sRGB;"
       inkscape:label="Out of Focus"
       id="filter40"
       x="-0.24226652"
       y="-0.2858297"
       width="1.484533"
       height="1.5716594">
      <feFlood
         flood-opacity="1"
         flood-color="rgb(255,255,255)"
         result="flood"
         id="feFlood38" />
      <feColorMatrix
         in="SourceGraphic"
         values="1 0 0 0 0 0 1 0 0 0 0 0 1 0 0 -0.2125 -0.7154 -0.0721 1 0 "
         result="colormatrix1"
         id="feColorMatrix38" />
      <feGaussianBlur
         in="colormatrix1"
         stdDeviation="3 3"
         result="blur"
         id="feGaussianBlur38" />
      <feColorMatrix
         in="blur"
         values="1 0 0 0 0 0 1 0 0 0 0 0 1 0 0 0 0 0 6 -2 "
         result="colormatrix2"
         id="feColorMatrix39" />
      <feBlend
         in="colormatrix2"
         in2="flood"
         mode="normal"
         result="blend"
         id="feBlend39" />
      <feComposite
         in="blend"
         in2="blend"
         operator="arithmetic"
         k2="0.2"
         result="composite1"
         id="feComposite39" />
      <feComposite
         in2="SourceGraphic"
         operator="in"
         id="feComposite40" />
    </filter>
  </defs>
  <g
     id="g877"
     transform="matrix(1.1,0,0,1.1,-3.1845928,-3.2065454)">
    <ellipse
       style="opacity:0.5;fill:#000000;stroke:none;stroke-width:3.89319;stroke-dasharray:none;stroke-opacity:1;filter:url(#filter9)"
       id="path2-5"
       cx="31.949858"
       cy="31.969812"
       rx="25.124426"
       ry="25.268976"
       transform="matrix(1.05,0,0,1.05,-1.5974929,-1.5984906)" />
    <path
       style="fill:#f5f7fa;stroke-width:0.204426;fill-opacity:1"
       d=""
       id="path3" />
    <circle
       style="opacity:1;fill:url(#linearGradient8);stroke:url(#linearGradient7);stroke-width:3.81818;stroke-dasharray:none;stroke-opacity:1"
       id="path2"
       cx="31.949856"
       cy="31.969812"
       r="24.711082" />
    <ellipse
       style="opacity:0.3;fill:none;stroke:#000000;stroke-width:0.974376;stroke-dasharray:none;stroke-opacity:1"
       id="path2-9"
       cx="31.949856"
       cy="31.969812"
       rx="23.129124"
       ry="23.129126" />
  </g>
  <path
     style="fill:#000000;fill-opacity:1;stroke:none;stroke-width:0.510566;stroke-dasharray:none;stroke-opacity:0.6;opacity:0.2"
     d="M 28.56304,49.460439 C 28.229629,49.295394 28.211945,49.243606 27.83357,47.325312 L 27.491718,45.592196 27.157817,45.45569 c -0.795791,-0.325381 -1.829847,-0.914932 -2.56463,-1.462194 l -0.37869,-0.282027 -1.652,0.56071 c -1.147489,0.389425 -1.708938,0.560707 -1.838434,0.560707 -0.196599,0 -0.449905,-0.105677 -0.564669,-0.235585 -0.03762,-0.04288 -0.787391,-1.32486 -1.666077,-2.849277 -1.755376,-3.045344 -1.72123,-2.971765 -1.553539,-3.348159 0.06717,-0.150839 0.321873,-0.392687 1.424071,-1.352519 1.339593,-1.166547 1.342212,-1.169155 1.322738,-1.314974 -0.152631,-1.142827 -0.152725,-2.307137 -2.71e-4,-3.464846 0.01916,-0.145713 0.0158,-0.149089 -1.322693,-1.314969 -1.10147,-0.959424 -1.356602,-1.20178 -1.423798,-1.352525 -0.167149,-0.374956 -0.201146,-0.301703 1.553521,-3.346806 0.878853,-1.52518 1.628644,-2.807927 1.666211,-2.850551 0.114308,-0.129674 0.367766,-0.235592 0.563824,-0.235592 0.128723,0 0.692972,0.172323 1.837691,0.561235 l 1.65193,0.56124 0.379432,-0.282602 c 0.735337,-0.547665 1.768616,-1.13686 2.565275,-1.462768 l 0.333808,-0.136559 0.328945,-1.67622 c 0.180927,-0.921921 0.355403,-1.741286 0.387737,-1.820804 0.07658,-0.18834 0.16664,-0.284719 0.356598,-0.381673 0.14808,-0.07557 0.29841,-0.07905 3.420359,-0.07905 3.242323,0 3.266772,6.31e-4 3.448391,0.08854 0.335829,0.162574 0.352981,0.212562 0.732662,2.13558 l 0.342258,1.733506 0.333812,0.136619 c 0.797463,0.326381 1.83006,0.915258 2.565936,1.463332 l 0.380119,0.283097 1.653739,-0.561742 c 1.132676,-0.384737 1.711489,-0.561743 1.83702,-0.561743 0.193834,0 0.447349,0.10637 0.561501,0.235593 0.03745,0.04268 0.787388,1.324749 1.666082,2.849173 1.755019,3.044783 1.720983,2.971432 1.553918,3.348183 -0.067,0.151069 -0.319491,0.390935 -1.423503,1.352522 -1.337889,1.165238 -1.341992,1.169313 -1.323119,1.314976 0.152371,1.175707 0.152371,2.295568 -1.15e-4,3.464845 -0.01881,0.145716 -0.015,0.149511 1.322744,1.314972 1.101535,0.959577 1.356434,1.201741 1.423606,1.352513 0.167679,0.376521 0.201871,0.302939 -1.553234,3.348334 -0.878486,1.52434 -1.628225,2.806407 -1.666063,2.849029 -0.115115,0.129564 -0.368309,0.235651 -0.562937,0.235651 -0.127043,0 -0.699179,-0.174917 -1.838276,-0.562035 l -1.653877,-0.562038 -0.281964,0.214249 c -0.719646,0.546771 -1.777898,1.16239 -2.558974,1.48866 l -0.436422,0.182287 -0.342256,1.732703 c -0.379676,1.922098 -0.396872,1.972222 -0.732666,2.134773 -0.1816,0.08794 -0.206262,0.08865 -3.436296,0.08865 -3.24219,-3e-5 -3.253991,-3.43e-4 -3.434201,-0.08949 z m 6.257252,-9.907188 c 1.50249,-1.803303 2.738066,-3.297393 2.745719,-3.32021 0.0092,-0.0271 -0.569336,-0.04162 -1.65885,-0.04162 h -1.672757 l -0.01078,-4.751571 -0.011,-4.751566 -0.111076,-0.167835 c -0.216895,-0.327719 -0.212167,-0.326996 -2.101416,-0.326996 -1.889254,0 -1.884525,-7.59e-4 -2.101421,0.326996 l -0.111075,0.167835 -0.011,4.751566 -0.01078,4.751573 H 28.09659 c -0.918107,0 -1.668997,0.01394 -1.668658,0.03134 3.44e-4,0.01749 1.250753,1.530757 2.778691,3.363402 2.091888,2.509086 2.79092,3.32143 2.830116,3.288904 0.02864,-0.02361 1.281359,-1.518623 2.783849,-3.321926 z"
     id="path5-8" />
  <path
     style="fill:#4d4d4d;fill-opacity:1;stroke:none;stroke-width:0.510566;stroke-dasharray:none;stroke-opacity:0.6"
     d="M 28.56304,47.460439 C 28.229629,47.295394 28.211945,47.243606 27.83357,45.325312 L 27.491718,43.592196 27.157817,43.45569 c -0.795791,-0.325381 -1.829847,-0.914932 -2.56463,-1.462194 l -0.37869,-0.282027 -1.652,0.56071 c -1.147489,0.389425 -1.708938,0.560707 -1.838434,0.560707 -0.196599,0 -0.449905,-0.105677 -0.564669,-0.235585 -0.03762,-0.04288 -0.787391,-1.32486 -1.666077,-2.849277 -1.755376,-3.045344 -1.72123,-2.971765 -1.553539,-3.348159 0.06717,-0.150839 0.321873,-0.392687 1.424071,-1.352519 1.339593,-1.166547 1.342212,-1.169155 1.322738,-1.314974 -0.152631,-1.142827 -0.152725,-2.307137 -2.71e-4,-3.464846 0.01916,-0.145713 0.0158,-0.149089 -1.322693,-1.314969 -1.10147,-0.959424 -1.356602,-1.20178 -1.423798,-1.352525 -0.167149,-0.374956 -0.201146,-0.301703 1.553521,-3.346806 0.878853,-1.52518 1.628644,-2.807927 1.666211,-2.850551 0.114308,-0.129674 0.367766,-0.235592 0.563824,-0.235592 0.128723,0 0.692972,0.172323 1.837691,0.561235 l 1.65193,0.56124 0.379432,-0.282602 c 0.735337,-0.547665 1.768616,-1.13686 2.565275,-1.462768 l 0.333808,-0.136559 0.328945,-1.67622 c 0.180927,-0.921921 0.355403,-1.741286 0.387737,-1.820804 0.07658,-0.18834 0.16664,-0.284719 0.356598,-0.381673 0.14808,-0.07557 0.29841,-0.07905 3.420359,-0.07905 3.242323,0 3.266772,6.31e-4 3.448391,0.08854 0.335829,0.162574 0.352981,0.212562 0.732662,2.13558 l 0.342258,1.733506 0.333812,0.136619 c 0.797463,0.326381 1.83006,0.915258 2.565936,1.463332 l 0.380119,0.283097 1.653739,-0.561742 c 1.132676,-0.384737 1.711489,-0.561743 1.83702,-0.561743 0.193834,0 0.447349,0.10637 0.561501,0.235593 0.03745,0.04268 0.787388,1.324749 1.666082,2.849173 1.755019,3.044783 1.720983,2.971432 1.553918,3.348183 -0.067,0.151069 -0.319491,0.390935 -1.423503,1.352522 -1.337889,1.165238 -1.341992,1.169313 -1.323119,1.314976 0.152371,1.175707 0.152371,2.295568 -1.15e-4,3.464845 -0.01881,0.145716 -0.015,0.149511 1.322744,1.314972 1.101535,0.959577 1.356434,1.201741 1.423606,1.352513 0.167679,0.376521 0.201871,0.302939 -1.553234,3.348334 -0.878486,1.52434 -1.628225,2.806407 -1.666063,2.849029 -0.115115,0.129564 -0.368309,0.235651 -0.562937,0.235651 -0.127043,0 -0.699179,-0.174917 -1.838276,-0.562035 l -1.653877,-0.562038 -0.281964,0.214249 c -0.719646,0.546771 -1.777898,1.16239 -2.558974,1.48866 l -0.436422,0.182287 -0.342256,1.732703 c -0.379676,1.922098 -0.396872,1.972222 -0.732666,2.134773 -0.1816,0.08794 -0.206262,0.08865 -3.436296,0.08865 -3.24219,-3e-5 -3.253991,-3.43e-4 -3.434201,-0.08949 z m 6.257252,-9.907188 c 1.50249,-1.803303 2.738066,-3.297393 2.745719,-3.32021 0.0092,-0.0271 -0.569336,-0.04162 -1.65885,-0.04162 h -1.672757 l -0.01078,-4.751571 -0.011,-4.751566 -0.111076,-0.167835 c -0.216895,-0.327719 -0.212167,-0.326996 -2.101416,-0.326996 -1.889254,0 -1.884525,-7.59e-4 -2.101421,0.326996 l -0.111075,0.167835 -0.011,4.751566 -0.01078,4.751573 H 28.09659 c -0.918107,0 -1.668997,0.01394 -1.668658,0.03134 3.44e-4,0.01749 1.250753,1.530757 2.778691,3.363402 2.091888,2.509086 2.79092,3.32143 2.830116,3.288904 0.02864,-0.02361 1.281359,-1.518623 2.783849,-3.321926 z"
     id="path5" />
</svg>
