<?xml version="1.0" encoding="UTF-8" standalone="no"?>
<svg
   width="64"
   height="64"
   version="1.1"
   id="svg73"
   sodipodi:docname="abcd.svg"
   inkscape:version="1.4.2 (ebf0e940d0, 2025-05-08)"
   xmlns:inkscape="http://www.inkscape.org/namespaces/inkscape"
   xmlns:sodipodi="http://sodipodi.sourceforge.net/DTD/sodipodi-0.dtd"
   xmlns:xlink="http://www.w3.org/1999/xlink"
   xmlns="http://www.w3.org/2000/svg"
   xmlns:svg="http://www.w3.org/2000/svg"
   xmlns:rdf="http://www.w3.org/1999/02/22-rdf-syntax-ns#"
   xmlns:cc="http://creativecommons.org/ns#"
   xmlns:dc="http://purl.org/dc/elements/1.1/">
  <metadata
     id="metadata77">
    <rdf:RDF>
      <cc:Work
         rdf:about="">
        <dc:format>image/svg+xml</dc:format>
        <dc:type
           rdf:resource="http://purl.org/dc/dcmitype/StillImage" />
      </cc:Work>
    </rdf:RDF>
  </metadata>
  <sodipodi:namedview
     pagecolor="#f5f7fa"
     bordercolor="#666666"
     borderopacity="1"
     objecttolerance="10"
     gridtolerance="10"
     guidetolerance="10"
     inkscape:pageopacity="0"
     inkscape:pageshadow="2"
     inkscape:window-width="1263"
     inkscape:window-height="693"
     id="namedview75"
     showgrid="false"
     inkscape:zoom="4.4470387"
     inkscape:cx="36.091433"
     inkscape:cy="29.682674"
     inkscape:window-x="24"
     inkscape:window-y="21"
     inkscape:window-maximized="0"
     inkscape:current-layer="svg73"
     inkscape:document-rotation="0"
     inkscape:pagecheckerboard="0"
     inkscape:showpageshadow="2"
     inkscape:deskcolor="#d1d1d1" />
  <defs
     id="defs29">
    <linearGradient
       id="linearGradient4"
       inkscape:collect="always">
      <stop
         style="stop-color:#ac5e5e;stop-opacity:1;"
         offset="0"
         id="stop4" />
      <stop
         style="stop-color:#c18181;stop-opacity:1;"
         offset="0.5"
         id="stop1" />
    </linearGradient>
    <linearGradient
       id="linearGradient2"
       inkscape:collect="always">
      <stop
         style="stop-color:#f4ecec;stop-opacity:1;"
         offset="0"
         id="stop2" />
      <stop
         style="stop-color:#e9d8d8;stop-opacity:1;"
         offset="1"
         id="stop3" />
    </linearGradient>
    <linearGradient
       inkscape:collect="always"
       xlink:href="#linearGradient2"
       id="linearGradient8"
       x1="31.721739"
       y1="5.2278585"
       x2="31.88887"
       y2="59.145416"
       gradientUnits="userSpaceOnUse"
       gradientTransform="matrix(0.8505,0,0,0.8505,4.7765033,4.7794869)" />
    <filter
       style="color-interpolation-filters:sRGB;"
       inkscape:label="Blur"
       id="filter9"
       x="-0.047762285"
       y="-0.047489063"
       width="1.0955246"
       height="1.0949781">
      <feGaussianBlur
         stdDeviation="1 1"
         result="blur"
         id="feGaussianBlur9" />
    </filter>
    <linearGradient
       inkscape:collect="always"
       xlink:href="#linearGradient4"
       id="linearGradient7"
       x1="26.723248"
       y1="58.711765"
       x2="25.756926"
       y2="5.950614"
       gradientUnits="userSpaceOnUse" />
    <filter
       style="color-interpolation-filters:sRGB;"
       inkscape:label="Out of Focus"
       id="filter40"
       x="-0.24226652"
       y="-0.2858297"
       width="1.484533"
       height="1.5716594">
      <feFlood
         flood-opacity="1"
         flood-color="rgb(255,255,255)"
         result="flood"
         id="feFlood38" />
      <feColorMatrix
         in="SourceGraphic"
         values="1 0 0 0 0 0 1 0 0 0 0 0 1 0 0 -0.2125 -0.7154 -0.0721 1 0 "
         result="colormatrix1"
         id="feColorMatrix38" />
      <feGaussianBlur
         in="colormatrix1"
         stdDeviation="3 3"
         result="blur"
         id="feGaussianBlur38" />
      <feColorMatrix
         in="blur"
         values="1 0 0 0 0 0 1 0 0 0 0 0 1 0 0 0 0 0 6 -2 "
         result="colormatrix2"
         id="feColorMatrix39" />
      <feBlend
         in="colormatrix2"
         in2="flood"
         mode="normal"
         result="blend"
         id="feBlend39" />
      <feComposite
         in="blend"
         in2="blend"
         operator="arithmetic"
         k2="0.2"
         result="composite1"
         id="feComposite39" />
      <feComposite
         in2="SourceGraphic"
         operator="in"
         id="feComposite40" />
    </filter>
  </defs>
  <g
     id="g877"
     transform="matrix(1.1,0,0,1.1,-3.1845928,-3.2065454)">
    <ellipse
       style="opacity:0.5;fill:#000000;stroke:none;stroke-width:3.89319;stroke-dasharray:none;stroke-opacity:1;filter:url(#filter9)"
       id="path2-5"
       cx="31.949858"
       cy="31.969812"
       rx="25.124426"
       ry="25.268976"
       transform="matrix(1.05,0,0,1.05,-1.5974929,-1.5984906)" />
    <path
       style="fill:#f5f7fa;stroke-width:0.204426;fill-opacity:1"
       d=""
       id="path3" />
    <circle
       style="opacity:1;fill:url(#linearGradient8);stroke:url(#linearGradient7);stroke-width:3.81818;stroke-dasharray:none;stroke-opacity:1"
       id="path2"
       cx="31.949856"
       cy="31.969812"
       r="24.711082" />
    <ellipse
       style="opacity:0.3;fill:none;stroke:#000000;stroke-width:0.974376;stroke-dasharray:none;stroke-opacity:1"
       id="path2-9"
       cx="31.949856"
       cy="31.969812"
       rx="23.129124"
       ry="23.129126" />
  </g>
  <path
     d="m 40.443198,34.601369 c 3.80963,0.278081 6.81819,3.437702 6.81819,7.312553 0,4.060246 -3.290086,7.354902 -7.350328,7.354902 -3.875997,0 -7.045914,-3.015431 -7.312554,-6.822764 4.183837,-0.303245 7.541435,-3.665433 7.844692,-7.844691 h -0.0044 z m -17.100398,0 c -3.706629,0.375352 -6.611055,3.504078 -6.611055,7.312553 0,4.060246 3.288935,7.350319 7.349178,7.350319 3.88172,0 7.042485,-3.010848 7.317134,-6.818181 -4.184982,-0.30328 -7.542576,-3.665433 -7.845834,-7.850412 -0.07324,0.01023 -0.141907,-0.0046 -0.21629,0 z m 15.703112,0.572187 c -0.294089,3.573884 -2.299045,5.578828 -5.871785,5.872937 v -5.872937 z m -8.225766,0 v 5.872937 C 27.246263,40.752384 25.24132,38.74744 24.947215,35.173556 Z m 9.097788,-16.441235 c 4.060243,0 7.350319,3.293513 7.350319,7.353753 0,3.877143 -3.015425,7.03905 -6.822763,7.313701 -0.303262,-4.184979 -3.660858,-7.542577 -7.844695,-7.845834 0.27465,-3.808481 3.435413,-6.82162 7.315993,-6.82162 z m -15.837011,0 c -4.060243,0 -7.349178,3.288934 -7.349178,7.349175 0,3.881721 3.013139,7.042484 6.821621,7.317135 0.30326,-4.184981 3.660856,-7.542574 7.845835,-7.845838 -0.27465,-3.807333 -3.436558,-6.821618 -7.3137,-6.821618 z m 14.964989,14.09298 h -5.871785 v -5.872936 c 3.572739,0.294107 5.577683,2.299051 5.871785,5.872936 z m -8.225766,0 h -5.872931 c 0.294105,-3.573885 2.299048,-5.578829 5.872931,-5.872936 z"
     fill="#ffffff"
     fill-opacity="0.56"
     fill-rule="nonzero"
     id="path2-52-1"
     style="fill:#000000;fill-opacity:1;stroke:none;stroke-width:0.536094;stroke-dasharray:none;stroke-opacity:0.6;opacity:0.2" />
  <path
     d="m 40.443198,32.601369 c 3.80963,0.278081 6.81819,3.437702 6.81819,7.312553 0,4.060246 -3.290086,7.354902 -7.350328,7.354902 -3.875997,0 -7.045914,-3.015431 -7.312554,-6.822764 4.183837,-0.303245 7.541435,-3.665433 7.844692,-7.844691 h -0.0044 z m -17.100398,0 c -3.706629,0.375352 -6.611055,3.504078 -6.611055,7.312553 0,4.060246 3.288935,7.350319 7.349178,7.350319 3.88172,0 7.042485,-3.010848 7.317134,-6.818181 -4.184982,-0.30328 -7.542576,-3.665433 -7.845834,-7.850412 -0.07324,0.01023 -0.141907,-0.0046 -0.21629,0 z m 15.703112,0.572187 c -0.294089,3.573884 -2.299045,5.578828 -5.871785,5.872937 v -5.872937 z m -8.225766,0 v 5.872937 C 27.246263,38.752384 25.24132,36.74744 24.947215,33.173556 Z m 9.097788,-16.441235 c 4.060243,0 7.350319,3.293513 7.350319,7.353753 0,3.877143 -3.015425,7.03905 -6.822763,7.313701 -0.303262,-4.184979 -3.660858,-7.542577 -7.844695,-7.845834 0.27465,-3.808481 3.435413,-6.82162 7.315993,-6.82162 z m -15.837011,0 c -4.060243,0 -7.349178,3.288934 -7.349178,7.349175 0,3.881721 3.013139,7.042484 6.821621,7.317135 0.30326,-4.184981 3.660856,-7.542574 7.845835,-7.845838 -0.27465,-3.807333 -3.436558,-6.821618 -7.3137,-6.821618 z m 14.964989,14.09298 h -5.871785 v -5.872936 c 3.572739,0.294107 5.577683,2.299051 5.871785,5.872936 z m -8.225766,0 h -5.872931 c 0.294105,-3.573885 2.299048,-5.578829 5.872931,-5.872936 z"
     fill="#ffffff"
     fill-opacity="0.56"
     fill-rule="nonzero"
     id="path2-52"
     style="fill:#4d4d4d;fill-opacity:1;stroke:none;stroke-width:0.536094;stroke-dasharray:none;stroke-opacity:0.6" />
</svg>
