<?xml version="1.0" encoding="UTF-8" standalone="no"?>
<svg
   width="64"
   height="64"
   version="1.1"
   id="svg73"
   sodipodi:docname="abcd.svg"
   inkscape:version="1.4.2 (ebf0e940d0, 2025-05-08)"
   xmlns:inkscape="http://www.inkscape.org/namespaces/inkscape"
   xmlns:sodipodi="http://sodipodi.sourceforge.net/DTD/sodipodi-0.dtd"
   xmlns:xlink="http://www.w3.org/1999/xlink"
   xmlns="http://www.w3.org/2000/svg"
   xmlns:svg="http://www.w3.org/2000/svg"
   xmlns:rdf="http://www.w3.org/1999/02/22-rdf-syntax-ns#"
   xmlns:cc="http://creativecommons.org/ns#"
   xmlns:dc="http://purl.org/dc/elements/1.1/">
  <metadata
     id="metadata77">
    <rdf:RDF>
      <cc:Work
         rdf:about="">
        <dc:format>image/svg+xml</dc:format>
        <dc:type
           rdf:resource="http://purl.org/dc/dcmitype/StillImage" />
      </cc:Work>
    </rdf:RDF>
  </metadata>
  <sodipodi:namedview
     pagecolor="#f5f7fa"
     bordercolor="#666666"
     borderopacity="1"
     objecttolerance="10"
     gridtolerance="10"
     guidetolerance="10"
     inkscape:pageopacity="0"
     inkscape:pageshadow="2"
     inkscape:window-width="1920"
     inkscape:window-height="931"
     id="namedview75"
     showgrid="false"
     inkscape:zoom="6.2890624"
     inkscape:cx="53.346585"
     inkscape:cy="29.734162"
     inkscape:window-x="0"
     inkscape:window-y="0"
     inkscape:window-maximized="1"
     inkscape:current-layer="svg73"
     inkscape:document-rotation="0"
     inkscape:pagecheckerboard="0"
     inkscape:showpageshadow="2"
     inkscape:deskcolor="#d1d1d1" />
  <defs
     id="defs29">
    <linearGradient
       id="linearGradient4"
       inkscape:collect="always">
      <stop
         style="stop-color:#ac5e5e;stop-opacity:1;"
         offset="0"
         id="stop4" />
      <stop
         style="stop-color:#c18181;stop-opacity:1;"
         offset="0.5"
         id="stop1" />
    </linearGradient>
    <linearGradient
       id="linearGradient2"
       inkscape:collect="always">
      <stop
         style="stop-color:#f4ecec;stop-opacity:1;"
         offset="0"
         id="stop2" />
      <stop
         style="stop-color:#e9d8d8;stop-opacity:1;"
         offset="1"
         id="stop3" />
    </linearGradient>
    <linearGradient
       inkscape:collect="always"
       xlink:href="#linearGradient2"
       id="linearGradient8"
       x1="31.721739"
       y1="5.2278585"
       x2="31.88887"
       y2="59.145416"
       gradientUnits="userSpaceOnUse"
       gradientTransform="matrix(0.8505,0,0,0.8505,4.7765033,4.7794869)" />
    <filter
       style="color-interpolation-filters:sRGB;"
       inkscape:label="Blur"
       id="filter9"
       x="-0.047762285"
       y="-0.047489063"
       width="1.0955246"
       height="1.0949781">
      <feGaussianBlur
         stdDeviation="1 1"
         result="blur"
         id="feGaussianBlur9" />
    </filter>
    <linearGradient
       inkscape:collect="always"
       xlink:href="#linearGradient4"
       id="linearGradient7"
       x1="26.723248"
       y1="58.711765"
       x2="25.756926"
       y2="5.950614"
       gradientUnits="userSpaceOnUse" />
    <filter
       style="color-interpolation-filters:sRGB;"
       inkscape:label="Out of Focus"
       id="filter40"
       x="-0.24226652"
       y="-0.2858297"
       width="1.484533"
       height="1.5716594">
      <feFlood
         flood-opacity="1"
         flood-color="rgb(255,255,255)"
         result="flood"
         id="feFlood38" />
      <feColorMatrix
         in="SourceGraphic"
         values="1 0 0 0 0 0 1 0 0 0 0 0 1 0 0 -0.2125 -0.7154 -0.0721 1 0 "
         result="colormatrix1"
         id="feColorMatrix38" />
      <feGaussianBlur
         in="colormatrix1"
         stdDeviation="3 3"
         result="blur"
         id="feGaussianBlur38" />
      <feColorMatrix
         in="blur"
         values="1 0 0 0 0 0 1 0 0 0 0 0 1 0 0 0 0 0 6 -2 "
         result="colormatrix2"
         id="feColorMatrix39" />
      <feBlend
         in="colormatrix2"
         in2="flood"
         mode="normal"
         result="blend"
         id="feBlend39" />
      <feComposite
         in="blend"
         in2="blend"
         operator="arithmetic"
         k2="0.2"
         result="composite1"
         id="feComposite39" />
      <feComposite
         in2="SourceGraphic"
         operator="in"
         id="feComposite40" />
    </filter>
  </defs>
  <g
     id="g877"
     transform="matrix(1.1,0,0,1.1,-3.1845928,-3.2065454)">
    <ellipse
       style="opacity:0.5;fill:#000000;stroke:none;stroke-width:3.89319;stroke-dasharray:none;stroke-opacity:1;filter:url(#filter9)"
       id="path2-5"
       cx="31.949858"
       cy="31.969812"
       rx="25.124426"
       ry="25.268976"
       transform="matrix(1.05,0,0,1.05,-1.5974929,-1.5984906)" />
    <path
       style="fill:#f5f7fa;stroke-width:0.204426;fill-opacity:1"
       d=""
       id="path3" />
    <circle
       style="opacity:1;fill:url(#linearGradient8);stroke:url(#linearGradient7);stroke-width:3.81818;stroke-dasharray:none;stroke-opacity:1"
       id="path2"
       cx="31.949856"
       cy="31.969812"
       r="24.711082" />
    <ellipse
       style="opacity:0.3;fill:none;stroke:#000000;stroke-width:0.974376;stroke-dasharray:none;stroke-opacity:1"
       id="path2-9"
       cx="31.949856"
       cy="31.969812"
       rx="23.129124"
       ry="23.129126" />
  </g>
  <path
     id="path26-6"
     style="fill:#000000;fill-opacity:1;stroke:none;stroke-width:0.267629;stroke-dasharray:none;stroke-opacity:1;opacity:0.2"
     d="m 32.981189,17.543641 c -0.505063,0 -0.592547,0.01498 -0.862475,0.147538 -0.223053,0.109538 -1.221835,0.975028 -3.880513,3.362342 -1.969148,1.768163 -3.649105,3.303462 -3.73313,3.411884 -0.306462,0.395446 -0.348414,0.581056 -0.787538,3.488537 -0.233471,1.545822 -0.424493,2.849291 -0.424539,2.896517 -4.7e-5,0.04804 0.312475,0.318054 0.709173,0.612738 1.261685,0.937232 2.466213,2.246455 3.16729,3.442576 0.345778,0.589943 0.734551,1.469707 0.91373,2.067852 0.07937,0.264955 0.154401,0.514621 0.166701,0.554782 0.01367,0.04467 0.06883,0.06271 0.142081,0.04657 1.570647,-0.345798 2.610719,-0.478309 3.826299,-0.487635 0.478284,-0.0035 0.869717,-0.01154 0.869796,-0.01743 8e-5,-0.0059 -0.167686,-0.511743 -0.372814,-1.124052 -1.26692,-3.781766 -1.409106,-6.564429 -0.473925,-9.274097 0.117211,-0.339619 0.607116,-1.424381 1.088686,-2.410598 1.261695,-2.583851 1.395852,-3.030792 1.349644,-4.49621 -0.02892,-0.917312 -0.153702,-1.519639 -0.360196,-1.739442 -0.06411,-0.06825 -0.264914,-0.204606 -0.44635,-0.303019 -0.314498,-0.170591 -0.356104,-0.178853 -0.89192,-0.178852 z m 2.164911,1.487832 -0.0021,0.915443 c -0.0034,1.495506 -0.131705,1.910231 -1.38532,4.47487 -0.496328,1.015383 -0.971505,2.068536 -1.095542,2.4282 -0.901121,2.612916 -0.740201,5.383534 0.527985,9.091504 0.148194,0.433294 0.312054,0.87762 0.364247,0.987422 l 0.09489,0.199728 0.562105,0.09862 c 2.903215,0.509517 5.223713,2.440498 7.043283,5.86112 0.142425,0.267748 0.274425,0.481961 0.296629,0.481872 4.2e-5,-8e-6 4.23e-4,-5e-6 5.8e-4,0 h 2.77e-4 c 7.8e-5,-2.3e-5 5.77e-4,-2.78e-4 5.77e-4,-2.78e-4 0.08023,-0.02976 1.890463,-2.839289 2.742128,-4.25582 0.199461,-0.331751 0.384269,-0.678489 0.410672,-0.770557 0.08336,-0.290641 -0.02081,-0.544084 -0.477974,-1.163313 -0.63582,-0.860801 -1.292296,-1.882115 -1.80389,-2.805457 -0.803208,-1.449693 -1.094399,-2.246982 -1.334982,-3.656326 -0.154277,-0.903745 -0.292534,-2.400535 -0.293517,-3.178194 -0.0011,-0.809781 -0.08138,-1.407895 -0.232756,-1.730871 -0.07285,-0.155223 -1.241295,-1.685016 -2.66496,-3.489157 -1.394544,-1.766952 -2.58418,-3.274819 -2.643857,-3.350772 z M 23.164153,31.441385 c -0.0027,2.03e-4 -0.0046,0.0011 -0.006,0.0023 -0.04571,0.04568 -3.683031,8.162737 -3.785169,8.446974 -0.08235,0.229145 -0.100496,0.38658 -0.0821,0.710264 0.04343,0.76434 0.0151,0.728994 3.301584,4.11031 1.601819,1.648049 3.016366,3.092363 3.14345,3.209507 0.127087,0.117142 0.244963,0.212972 0.262046,0.212972 0.08884,0 0.902785,-1.945315 1.254141,-2.997473 0.268023,-0.80261 0.605195,-2.169979 0.725999,-2.943882 0.118908,-0.761754 0.162414,-2.403126 0.08242,-3.108086 -0.270295,-2.382318 -1.221074,-4.324863 -2.972196,-6.072535 -0.560449,-0.559346 -1.810991,-1.577725 -1.924055,-1.570402 z m 9.174699,6.120985 c -0.777101,0 -1.441982,0.02746 -1.739594,0.07182 -0.710058,0.105853 -2.135315,0.385385 -2.177999,0.427186 -0.02033,0.01991 -0.0046,0.266971 0.03489,0.549018 0.294919,2.10409 0.0213,4.357093 -0.83412,6.86895 -0.280036,0.822298 -0.743548,1.964952 -1.016087,2.504854 -0.08524,0.168872 -0.155014,0.320384 -0.155014,0.33667 0,0.08737 0.4323,0.142619 2.072525,0.264691 0.994511,0.07402 2.03698,0.16109 2.316653,0.193499 1.049596,0.121617 2.288898,0.426086 4.921995,1.209426 0.749346,0.222929 1.471935,0.423247 1.605766,0.445102 0.698751,0.114124 1.415579,-0.171181 1.999769,-0.795951 0.384723,-0.411437 0.556588,-0.829779 0.710266,-1.72853 0.223474,-1.306956 0.534976,-2.365715 0.978072,-3.324795 L 41.26349,44.135154 40.94723,43.507616 C 39.519606,40.674537 37.586695,38.77193 35.348471,37.996565 34.329595,37.643606 33.76697,37.562366 32.338851,37.562366 Z" />
  <path
     id="path26"
     style="fill:#4d4d4d;fill-opacity:1;stroke:none;stroke-width:0.267629;stroke-dasharray:none;stroke-opacity:1"
     d="m 32.981189,15.543641 c -0.505063,0 -0.592547,0.01498 -0.862475,0.147538 -0.223053,0.109538 -1.221835,0.975028 -3.880513,3.362342 -1.969148,1.768163 -3.649105,3.303462 -3.73313,3.411884 -0.306462,0.395446 -0.348414,0.581056 -0.787538,3.488537 -0.233471,1.545822 -0.424493,2.849291 -0.424539,2.896517 -4.7e-5,0.04804 0.312475,0.318054 0.709173,0.612738 1.261685,0.937232 2.466213,2.246455 3.16729,3.442576 0.345778,0.589943 0.734551,1.469707 0.91373,2.067852 0.07937,0.264955 0.154401,0.514621 0.166701,0.554782 0.01367,0.04467 0.06883,0.06271 0.142081,0.04657 1.570647,-0.345798 2.610719,-0.478309 3.826299,-0.487635 0.478284,-0.0035 0.869717,-0.01154 0.869796,-0.01743 8e-5,-0.0059 -0.167686,-0.511743 -0.372814,-1.124052 -1.26692,-3.781766 -1.409106,-6.564429 -0.473925,-9.274097 0.117211,-0.339619 0.607116,-1.424381 1.088686,-2.410598 1.261695,-2.583851 1.395852,-3.030792 1.349644,-4.49621 -0.02892,-0.917312 -0.153702,-1.519639 -0.360196,-1.739442 -0.06411,-0.06825 -0.264914,-0.204606 -0.44635,-0.303019 -0.314498,-0.170591 -0.356104,-0.178853 -0.89192,-0.178852 z m 2.164911,1.487832 -0.0021,0.915443 c -0.0034,1.495506 -0.131705,1.910231 -1.38532,4.47487 -0.496328,1.015383 -0.971505,2.068536 -1.095542,2.4282 -0.901121,2.612916 -0.740201,5.383534 0.527985,9.091504 0.148194,0.433294 0.312054,0.87762 0.364247,0.987422 l 0.09489,0.199728 0.562105,0.09862 c 2.903215,0.509517 5.223713,2.440498 7.043283,5.86112 0.142425,0.267748 0.274425,0.481961 0.296629,0.481872 4.2e-5,-8e-6 4.23e-4,-5e-6 5.8e-4,0 h 2.77e-4 c 7.8e-5,-2.3e-5 5.77e-4,-2.78e-4 5.77e-4,-2.78e-4 0.08023,-0.02976 1.890463,-2.839289 2.742128,-4.25582 0.199461,-0.331751 0.384269,-0.678489 0.410672,-0.770557 0.08336,-0.290641 -0.02081,-0.544084 -0.477974,-1.163313 -0.63582,-0.860801 -1.292296,-1.882115 -1.80389,-2.805457 -0.803208,-1.449693 -1.094399,-2.246982 -1.334982,-3.656326 -0.154277,-0.903745 -0.292534,-2.400535 -0.293517,-3.178194 -0.0011,-0.809781 -0.08138,-1.407895 -0.232756,-1.730871 -0.07285,-0.155223 -1.241295,-1.685016 -2.66496,-3.489157 -1.394544,-1.766952 -2.58418,-3.274819 -2.643857,-3.350772 z M 23.164153,29.441385 c -0.0027,2.03e-4 -0.0046,0.0011 -0.006,0.0023 -0.04571,0.04568 -3.683031,8.162737 -3.785169,8.446974 -0.08235,0.229145 -0.100496,0.38658 -0.0821,0.710264 0.04343,0.76434 0.0151,0.728994 3.301584,4.11031 1.601819,1.648049 3.016366,3.092363 3.14345,3.209507 0.127087,0.117142 0.244963,0.212972 0.262046,0.212972 0.08884,0 0.902785,-1.945315 1.254141,-2.997473 0.268023,-0.80261 0.605195,-2.169979 0.725999,-2.943882 0.118908,-0.761754 0.162414,-2.403126 0.08242,-3.108086 -0.270295,-2.382318 -1.221074,-4.324863 -2.972196,-6.072535 -0.560449,-0.559346 -1.810991,-1.577725 -1.924055,-1.570402 z m 9.174699,6.120985 c -0.777101,0 -1.441982,0.02746 -1.739594,0.07182 -0.710058,0.105853 -2.135315,0.385385 -2.177999,0.427186 -0.02033,0.01991 -0.0046,0.266971 0.03489,0.549018 0.294919,2.10409 0.0213,4.357093 -0.83412,6.86895 -0.280036,0.822298 -0.743548,1.964952 -1.016087,2.504854 -0.08524,0.168872 -0.155014,0.320384 -0.155014,0.33667 0,0.08737 0.4323,0.142619 2.072525,0.264691 0.994511,0.07402 2.03698,0.16109 2.316653,0.193499 1.049596,0.121617 2.288898,0.426086 4.921995,1.209426 0.749346,0.222929 1.471935,0.423247 1.605766,0.445102 0.698751,0.114124 1.415579,-0.171181 1.999769,-0.795951 0.384723,-0.411437 0.556588,-0.829779 0.710266,-1.72853 0.223474,-1.306956 0.534976,-2.365715 0.978072,-3.324795 L 41.26349,42.135154 40.94723,41.507616 C 39.519606,38.674537 37.586695,36.77193 35.348471,35.996565 34.329595,35.643606 33.76697,35.562366 32.338851,35.562366 Z" />
</svg>
