<?xml version="1.0" encoding="UTF-8" standalone="no"?>
<svg
   width="64"
   height="64"
   version="1.1"
   id="svg73"
   sodipodi:docname="abcd.svg"
   inkscape:version="1.4.2 (ebf0e940d0, 2025-05-08)"
   xmlns:inkscape="http://www.inkscape.org/namespaces/inkscape"
   xmlns:sodipodi="http://sodipodi.sourceforge.net/DTD/sodipodi-0.dtd"
   xmlns:xlink="http://www.w3.org/1999/xlink"
   xmlns="http://www.w3.org/2000/svg"
   xmlns:svg="http://www.w3.org/2000/svg"
   xmlns:rdf="http://www.w3.org/1999/02/22-rdf-syntax-ns#"
   xmlns:cc="http://creativecommons.org/ns#"
   xmlns:dc="http://purl.org/dc/elements/1.1/">
  <metadata
     id="metadata77">
    <rdf:RDF>
      <cc:Work
         rdf:about="">
        <dc:format>image/svg+xml</dc:format>
        <dc:type
           rdf:resource="http://purl.org/dc/dcmitype/StillImage" />
      </cc:Work>
    </rdf:RDF>
  </metadata>
  <sodipodi:namedview
     pagecolor="#f5f7fa"
     bordercolor="#666666"
     borderopacity="1"
     objecttolerance="10"
     gridtolerance="10"
     guidetolerance="10"
     inkscape:pageopacity="0"
     inkscape:pageshadow="2"
     inkscape:window-width="1263"
     inkscape:window-height="693"
     id="namedview75"
     showgrid="false"
     inkscape:zoom="4.4470387"
     inkscape:cx="36.091433"
     inkscape:cy="29.682674"
     inkscape:window-x="24"
     inkscape:window-y="21"
     inkscape:window-maximized="0"
     inkscape:current-layer="svg73"
     inkscape:document-rotation="0"
     inkscape:pagecheckerboard="0"
     inkscape:showpageshadow="2"
     inkscape:deskcolor="#d1d1d1" />
  <defs
     id="defs29">
    <linearGradient
       id="linearGradient4"
       inkscape:collect="always">
      <stop
         style="stop-color:#ac5e5e;stop-opacity:1;"
         offset="0"
         id="stop4" />
      <stop
         style="stop-color:#c18181;stop-opacity:1;"
         offset="0.5"
         id="stop1" />
    </linearGradient>
    <linearGradient
       id="linearGradient2"
       inkscape:collect="always">
      <stop
         style="stop-color:#f4ecec;stop-opacity:1;"
         offset="0"
         id="stop2" />
      <stop
         style="stop-color:#e9d8d8;stop-opacity:1;"
         offset="1"
         id="stop3" />
    </linearGradient>
    <linearGradient
       inkscape:collect="always"
       xlink:href="#linearGradient2"
       id="linearGradient8"
       x1="31.721739"
       y1="5.2278585"
       x2="31.88887"
       y2="59.145416"
       gradientUnits="userSpaceOnUse"
       gradientTransform="matrix(0.8505,0,0,0.8505,4.7765033,4.7794869)" />
    <filter
       style="color-interpolation-filters:sRGB;"
       inkscape:label="Blur"
       id="filter9"
       x="-0.047762285"
       y="-0.047489063"
       width="1.0955246"
       height="1.0949781">
      <feGaussianBlur
         stdDeviation="1 1"
         result="blur"
         id="feGaussianBlur9" />
    </filter>
    <linearGradient
       inkscape:collect="always"
       xlink:href="#linearGradient4"
       id="linearGradient7"
       x1="26.723248"
       y1="58.711765"
       x2="25.756926"
       y2="5.950614"
       gradientUnits="userSpaceOnUse" />
    <filter
       style="color-interpolation-filters:sRGB;"
       inkscape:label="Out of Focus"
       id="filter40"
       x="-0.24226652"
       y="-0.2858297"
       width="1.484533"
       height="1.5716594">
      <feFlood
         flood-opacity="1"
         flood-color="rgb(255,255,255)"
         result="flood"
         id="feFlood38" />
      <feColorMatrix
         in="SourceGraphic"
         values="1 0 0 0 0 0 1 0 0 0 0 0 1 0 0 -0.2125 -0.7154 -0.0721 1 0 "
         result="colormatrix1"
         id="feColorMatrix38" />
      <feGaussianBlur
         in="colormatrix1"
         stdDeviation="3 3"
         result="blur"
         id="feGaussianBlur38" />
      <feColorMatrix
         in="blur"
         values="1 0 0 0 0 0 1 0 0 0 0 0 1 0 0 0 0 0 6 -2 "
         result="colormatrix2"
         id="feColorMatrix39" />
      <feBlend
         in="colormatrix2"
         in2="flood"
         mode="normal"
         result="blend"
         id="feBlend39" />
      <feComposite
         in="blend"
         in2="blend"
         operator="arithmetic"
         k2="0.2"
         result="composite1"
         id="feComposite39" />
      <feComposite
         in2="SourceGraphic"
         operator="in"
         id="feComposite40" />
    </filter>
  </defs>
  <g
     id="g877"
     transform="matrix(1.1,0,0,1.1,-3.1845928,-3.2065454)">
    <ellipse
       style="opacity:0.5;fill:#000000;stroke:none;stroke-width:3.89319;stroke-dasharray:none;stroke-opacity:1;filter:url(#filter9)"
       id="path2-5"
       cx="31.949858"
       cy="31.969812"
       rx="25.124426"
       ry="25.268976"
       transform="matrix(1.05,0,0,1.05,-1.5974929,-1.5984906)" />
    <path
       style="fill:#f5f7fa;stroke-width:0.204426;fill-opacity:1"
       d=""
       id="path3" />
    <circle
       style="opacity:1;fill:url(#linearGradient8);stroke:url(#linearGradient7);stroke-width:3.81818;stroke-dasharray:none;stroke-opacity:1"
       id="path2"
       cx="31.949856"
       cy="31.969812"
       r="24.711082" />
    <ellipse
       style="opacity:0.3;fill:none;stroke:#000000;stroke-width:0.974376;stroke-dasharray:none;stroke-opacity:1"
       id="path2-9"
       cx="31.949856"
       cy="31.969812"
       rx="23.129124"
       ry="23.129126" />
  </g>
  <path
     d="M 24.123985,42.186834 H 16.53615 l 6.153928,-15.118907 c 0.443621,-0.692503 0.911692,-0.485537 1.468839,0.647966 0.789435,1.607688 2.909731,7.039422 2.831138,7.253374 -0.234907,0.639232 -2.861702,7.207091 -2.86607,7.217567 z m 23.339864,0 h -7.612284 c 0,0 -1.509882,-3.705281 -1.509882,-3.934076 0,-0.206964 2.10807,-1.061023 4.505191,-1.825132 1.006881,-0.32049 1.225198,-0.348435 1.670567,-0.212207 0.282084,0.08646 0.573739,0.234033 0.647095,0.328351 0.193853,0.247133 2.296695,5.634333 2.299313,5.643064 z m -9.601596,-4.578548 c -3.148133,1.133503 -5.764447,2.096719 -6.036034,2.139509 -0.498636,0.08035 -0.828732,-0.09518 -0.828732,-0.439255 0,-0.296045 3.148135,-7.679529 3.371691,-7.910945 0.118766,-0.122257 0.944004,-0.53968 2.058296,-0.927412 2.301936,-0.800787 3.003174,-0.875888 3.677339,-0.395591 0.569367,0.406944 4.688579,5.062341 4.688579,5.293758 0,0.120511 -0.196516,0.179019 -0.603429,0.179019 -0.433138,0 -2.212861,0.579851 -6.32771,2.060917 z m -7.396586,1.339594 c 0.43838,-0.695122 3.350732,-7.47955 3.348112,-7.797421 -0.0018,-0.188624 -0.411309,-1.286324 -0.909946,-2.438166 -0.911693,-2.107199 -1.31689,-2.685303 -1.998039,-2.855591 -0.160681,-0.04017 -1.858317,-0.05501 -3.773395,-0.03404 l -3.480852,0.03842 0.356294,0.431395 c 0.446241,0.542299 0.920425,1.584109 2.683556,5.888454 2.600595,6.352158 2.953396,7.076097 3.442426,7.076097 0.07598,0 0.2253,-0.139725 0.331843,-0.309132 z"
     fill="#ffffff"
     id="path3-7-5"
     style="fill:#000000;fill-opacity:1;stroke:none;stroke-width:0.4455;stroke-dasharray:none;stroke-opacity:0.6;opacity:0.2" />
  <path
     d="M 24.123985,40.186834 H 16.53615 l 6.153928,-15.118907 c 0.443621,-0.692503 0.911692,-0.485537 1.468839,0.647966 0.789435,1.607688 2.909731,7.039422 2.831138,7.253374 -0.234907,0.639232 -2.861702,7.207091 -2.86607,7.217567 z m 23.339864,0 h -7.612284 c 0,0 -1.509882,-3.705281 -1.509882,-3.934076 0,-0.206964 2.10807,-1.061023 4.505191,-1.825132 1.006881,-0.32049 1.225198,-0.348435 1.670567,-0.212207 0.282084,0.08646 0.573739,0.234033 0.647095,0.328351 0.193853,0.247133 2.296695,5.634333 2.299313,5.643064 z m -9.601596,-4.578548 c -3.148133,1.133503 -5.764447,2.096719 -6.036034,2.139509 -0.498636,0.08035 -0.828732,-0.09518 -0.828732,-0.439255 0,-0.296045 3.148135,-7.679529 3.371691,-7.910945 0.118766,-0.122257 0.944004,-0.53968 2.058296,-0.927412 2.301936,-0.800787 3.003174,-0.875888 3.677339,-0.395591 0.569367,0.406944 4.688579,5.062341 4.688579,5.293758 0,0.120511 -0.196516,0.179019 -0.603429,0.179019 -0.433138,0 -2.212861,0.579851 -6.32771,2.060917 z m -7.396586,1.339594 c 0.43838,-0.695122 3.350732,-7.47955 3.348112,-7.797421 -0.0018,-0.188624 -0.411309,-1.286324 -0.909946,-2.438166 -0.911693,-2.107199 -1.31689,-2.685303 -1.998039,-2.855591 -0.160681,-0.04017 -1.858317,-0.05501 -3.773395,-0.03404 l -3.480852,0.03842 0.356294,0.431395 c 0.446241,0.542299 0.920425,1.584109 2.683556,5.888454 2.600595,6.352158 2.953396,7.076097 3.442426,7.076097 0.07598,0 0.2253,-0.139725 0.331843,-0.309132 z"
     fill="#ffffff"
     id="path3-7"
     style="fill:#4d4d4d;fill-opacity:1;stroke:none;stroke-width:0.4455;stroke-dasharray:none;stroke-opacity:0.6" />
</svg>
