<?xml version="1.0" encoding="UTF-8" standalone="no"?>
<svg
   width="64"
   height="64"
   version="1.1"
   id="svg73"
   sodipodi:docname="abcd.svg"
   inkscape:version="1.4.2 (ebf0e940d0, 2025-05-08)"
   xmlns:inkscape="http://www.inkscape.org/namespaces/inkscape"
   xmlns:sodipodi="http://sodipodi.sourceforge.net/DTD/sodipodi-0.dtd"
   xmlns:xlink="http://www.w3.org/1999/xlink"
   xmlns="http://www.w3.org/2000/svg"
   xmlns:svg="http://www.w3.org/2000/svg"
   xmlns:rdf="http://www.w3.org/1999/02/22-rdf-syntax-ns#"
   xmlns:cc="http://creativecommons.org/ns#"
   xmlns:dc="http://purl.org/dc/elements/1.1/">
  <metadata
     id="metadata77">
    <rdf:RDF>
      <cc:Work
         rdf:about="">
        <dc:format>image/svg+xml</dc:format>
        <dc:type
           rdf:resource="http://purl.org/dc/dcmitype/StillImage" />
      </cc:Work>
    </rdf:RDF>
  </metadata>
  <sodipodi:namedview
     pagecolor="#f5f7fa"
     bordercolor="#666666"
     borderopacity="1"
     objecttolerance="10"
     gridtolerance="10"
     guidetolerance="10"
     inkscape:pageopacity="0"
     inkscape:pageshadow="2"
     inkscape:window-width="1263"
     inkscape:window-height="693"
     id="namedview75"
     showgrid="false"
     inkscape:zoom="4.4470387"
     inkscape:cx="36.091433"
     inkscape:cy="29.682674"
     inkscape:window-x="24"
     inkscape:window-y="21"
     inkscape:window-maximized="0"
     inkscape:current-layer="svg73"
     inkscape:document-rotation="0"
     inkscape:pagecheckerboard="0"
     inkscape:showpageshadow="2"
     inkscape:deskcolor="#d1d1d1" />
  <defs
     id="defs29">
    <linearGradient
       id="linearGradient4"
       inkscape:collect="always">
      <stop
         style="stop-color:#ac5e5e;stop-opacity:1;"
         offset="0"
         id="stop4" />
      <stop
         style="stop-color:#c18181;stop-opacity:1;"
         offset="0.5"
         id="stop1" />
    </linearGradient>
    <linearGradient
       id="linearGradient2"
       inkscape:collect="always">
      <stop
         style="stop-color:#f4ecec;stop-opacity:1;"
         offset="0"
         id="stop2" />
      <stop
         style="stop-color:#e9d8d8;stop-opacity:1;"
         offset="1"
         id="stop3" />
    </linearGradient>
    <linearGradient
       inkscape:collect="always"
       xlink:href="#linearGradient2"
       id="linearGradient8"
       x1="31.721739"
       y1="5.2278585"
       x2="31.88887"
       y2="59.145416"
       gradientUnits="userSpaceOnUse"
       gradientTransform="matrix(0.8505,0,0,0.8505,4.7765033,4.7794869)" />
    <filter
       style="color-interpolation-filters:sRGB;"
       inkscape:label="Blur"
       id="filter9"
       x="-0.047762285"
       y="-0.047489063"
       width="1.0955246"
       height="1.0949781">
      <feGaussianBlur
         stdDeviation="1 1"
         result="blur"
         id="feGaussianBlur9" />
    </filter>
    <linearGradient
       inkscape:collect="always"
       xlink:href="#linearGradient4"
       id="linearGradient7"
       x1="26.723248"
       y1="58.711765"
       x2="25.756926"
       y2="5.950614"
       gradientUnits="userSpaceOnUse" />
    <filter
       style="color-interpolation-filters:sRGB;"
       inkscape:label="Out of Focus"
       id="filter40"
       x="-0.24226652"
       y="-0.2858297"
       width="1.484533"
       height="1.5716594">
      <feFlood
         flood-opacity="1"
         flood-color="rgb(255,255,255)"
         result="flood"
         id="feFlood38" />
      <feColorMatrix
         in="SourceGraphic"
         values="1 0 0 0 0 0 1 0 0 0 0 0 1 0 0 -0.2125 -0.7154 -0.0721 1 0 "
         result="colormatrix1"
         id="feColorMatrix38" />
      <feGaussianBlur
         in="colormatrix1"
         stdDeviation="3 3"
         result="blur"
         id="feGaussianBlur38" />
      <feColorMatrix
         in="blur"
         values="1 0 0 0 0 0 1 0 0 0 0 0 1 0 0 0 0 0 6 -2 "
         result="colormatrix2"
         id="feColorMatrix39" />
      <feBlend
         in="colormatrix2"
         in2="flood"
         mode="normal"
         result="blend"
         id="feBlend39" />
      <feComposite
         in="blend"
         in2="blend"
         operator="arithmetic"
         k2="0.2"
         result="composite1"
         id="feComposite39" />
      <feComposite
         in2="SourceGraphic"
         operator="in"
         id="feComposite40" />
    </filter>
  </defs>
  <g
     id="g877"
     transform="matrix(1.1,0,0,1.1,-3.1845928,-3.2065454)">
    <ellipse
       style="opacity:0.5;fill:#000000;stroke:none;stroke-width:3.89319;stroke-dasharray:none;stroke-opacity:1;filter:url(#filter9)"
       id="path2-5"
       cx="31.949858"
       cy="31.969812"
       rx="25.124426"
       ry="25.268976"
       transform="matrix(1.05,0,0,1.05,-1.5974929,-1.5984906)" />
    <path
       style="fill:#f5f7fa;stroke-width:0.204426;fill-opacity:1"
       d=""
       id="path3" />
    <circle
       style="opacity:1;fill:url(#linearGradient8);stroke:url(#linearGradient7);stroke-width:3.81818;stroke-dasharray:none;stroke-opacity:1"
       id="path2"
       cx="31.949856"
       cy="31.969812"
       r="24.711082" />
    <ellipse
       style="opacity:0.3;fill:none;stroke:#000000;stroke-width:0.974376;stroke-dasharray:none;stroke-opacity:1"
       id="path2-9"
       cx="31.949856"
       cy="31.969812"
       rx="23.129124"
       ry="23.129126" />
  </g>
  <path
     style="fill:#000000;fill-opacity:1;stroke-width:0.117853;opacity:0.2"
     d="m 23.588506,47.21741 c -0.966772,-0.826363 -1.584647,-1.883286 -2.30561,-3.943717 -0.85138,-2.433203 -1.262529,-4.732767 -1.253087,-7.008678 0.0094,-2.246201 0.435597,-4.470546 1.2614,-6.581792 0.802467,-2.051613 1.903947,-3.473308 3.437405,-4.436739 1.371196,-0.861484 2.661671,-1.173598 4.189879,-1.013408 0.402949,0.04226 0.415984,0.04638 0.444215,0.140753 0.01967,0.06559 0.103433,0.152291 0.257113,0.266509 0.125232,0.09347 0.399186,0.345041 0.608171,0.560115 0.314374,0.323146 0.439337,0.427575 0.722401,0.603013 0.29909,0.189128 0.334406,0.214015 0.272133,0.235734 -1.11479,0.373435 -1.883012,0.585653 -2.715943,0.750315 -0.330089,0.06526 -0.840086,0.171792 -1.1333,0.236733 -0.293214,0.06497 -0.597415,0.132025 -0.676028,0.149067 -0.171618,0.03707 -0.270872,0.174294 -0.228826,0.316194 0.04829,0.16322 0.286261,0.312532 0.546259,0.341627 1.344176,0.155771 2.949717,0.290585 3.638784,0.305563 l 0.182261,0.0038 -0.0948,0.08578 c -0.257989,0.233431 -0.987955,1.481994 -1.270706,2.173582 -0.24983,0.611245 -0.287195,1.19408 -0.08449,1.317621 0.105831,0.06449 0.474667,-0.06622 0.872497,-0.309063 0.968615,-0.591393 1.732125,-0.966708 2.522198,-1.239831 0.438356,-0.151542 1.054537,-0.282547 1.138932,-0.242157 0.09488,0.04588 0.137491,0.118928 0.399534,0.691062 0.244766,0.534554 0.518264,1.089241 1.198051,2.429844 0.290216,0.572342 0.439743,0.805497 0.625934,0.976051 0.193093,0.176952 0.334697,0.236545 0.467742,0.197195 0.129364,-0.03831 0.162053,-0.146712 0.23494,-0.783952 0.03375,-0.295383 0.08182,-0.638596 0.106733,-0.762712 0.116913,-0.582261 0.489537,-1.805998 0.55479,-1.821809 0.014,-0.0034 0.125852,0.103763 0.245372,0.238819 0.119459,0.13516 0.339033,0.371931 0.487873,0.526281 0.148805,0.154401 0.564292,0.597712 0.923207,0.98527 0.358854,0.38761 0.802697,0.865898 0.986242,1.062965 0.183548,0.197003 0.391217,0.434673 0.461579,0.52802 0.151414,0.200882 0.261034,0.24578 0.472764,0.19461 0.35542,-0.08623 0.365666,-0.379336 0.0566,-1.622792 -0.197466,-0.794563 -0.291215,-1.323923 -0.327875,-1.85117 -0.02078,-0.298777 -0.01371,-0.34756 0.05727,-0.395682 0.04451,-0.03028 0.09761,-0.04466 0.118106,-0.03216 0.02048,0.01249 0.181294,0.161889 0.357544,0.332172 1.91935,1.853636 2.797214,3.910391 2.596559,6.083569 -0.07262,0.786819 -0.235839,1.41928 -0.588818,2.281671 -0.236608,0.577661 -1.330704,2.372463 -1.746019,2.853757 -1.357002,1.598168 -2.945015,2.825799 -5.175023,4.000631 -1.665087,0.877261 -3.231568,1.4793 -4.912545,1.888068 -2.477911,0.602543 -4.745985,0.685746 -6.212642,0.227898 -0.49688,-0.155012 -1.343718,-0.618222 -1.722525,-0.941922 z m 2.883996,-2.521242 c 0.197735,-0.04154 0.386935,-0.209328 0.496708,-0.44053 0.123521,-0.260554 0.184648,-0.60448 0.147114,-0.829394 -0.02625,-0.157309 -0.04398,-0.184735 -0.138598,-0.214122 -0.168077,-0.05225 -0.479722,0.05081 -0.674098,0.222904 -0.242547,0.214734 -0.454776,0.573318 -0.440735,0.743113 0.02618,0.30525 0.3421,0.573753 0.609057,0.517827 z m 6.160068,-0.07663 c 0.258168,0.01946 0.366159,-0.05192 0.558452,-0.369528 0.280428,-0.471148 0.348235,-1.032125 0.132749,-1.163458 -0.119029,-0.07254 -0.405894,0.01177 -0.684624,0.201059 -0.18155,0.123387 -0.250331,0.196028 -0.372307,0.393033 -0.183905,0.290522 -0.196339,0.455645 -0.06287,0.666764 0.11161,0.176623 0.239524,0.25783 0.428976,0.271654 z M 24.327717,39.00264 c 0.364599,-0.01195 0.657933,-0.557187 0.633818,-1.178178 -0.01473,-0.379195 -0.148347,-0.50044 -0.46311,-0.420306 -0.274472,0.06987 -0.756765,0.646166 -0.775265,0.926347 -0.02498,0.378242 0.249755,0.683679 0.604503,0.672082 z m 4.590491,1.490786 c 0.165159,-0.01186 0.36884,-0.142456 0.462912,-0.296803 0.111117,-0.182316 0.247971,-0.840524 0.211462,-1.017009 -0.02579,-0.125176 -0.05719,-0.168657 -0.172528,-0.238949 -0.266911,-0.162675 -0.441837,-0.08737 -0.778717,0.335232 -0.3306,0.414584 -0.379129,0.685043 -0.177725,0.987654 0.110467,0.165991 0.263827,0.243367 0.454542,0.229963 z M 23.508,34.561236 c 0.343867,0.03597 0.646722,-0.374811 0.693615,-0.940809 0.03626,-0.437534 -0.04008,-0.672676 -0.222615,-0.685719 -0.303034,-0.02163 -0.485095,0.09754 -0.766783,0.501997 -0.179445,0.257595 -0.209601,0.320771 -0.23167,0.489455 -0.02044,0.154386 -0.0053,0.223462 0.0745,0.340663 0.121763,0.179228 0.269678,0.275025 0.452913,0.294195 z m 9.966439,5.556577 c 0.284235,-0.05664 0.490784,-0.3273 0.591514,-0.774923 0.03447,-0.153809 0.05807,-0.361152 0.05221,-0.460825 -0.01827,-0.31106 -0.110773,-0.396398 -0.386894,-0.356917 -0.22494,0.03214 -0.356231,0.125528 -0.612762,0.435728 -0.240583,0.291047 -0.317564,0.509824 -0.259885,0.729662 0.06821,0.256927 0.381189,0.47409 0.615939,0.427281 z M 27.677654,36.08488 c 0.216717,-0.03322 0.340868,-0.121544 0.470852,-0.334906 0.130946,-0.214957 0.294608,-0.637156 0.313213,-0.808333 0.01405,-0.12984 -0.06904,-0.293532 -0.183521,-0.360929 -0.18642,-0.106898 -0.405057,-0.03979 -0.720227,0.226552 -0.446501,0.377326 -0.537276,0.562189 -0.438845,0.893526 0.05142,0.172991 0.07708,0.206286 0.232358,0.300921 0.141305,0.08612 0.203358,0.102014 0.32617,0.08317 z m 9.343278,5.476783 c 0.197303,0.0139 0.358791,-0.08886 0.497938,-0.316808 0.246318,-0.398821 0.300082,-1.159999 0.09451,-1.285288 -0.08667,-0.05282 -0.383503,0.0365 -0.588474,0.177196 -0.473924,0.32538 -0.672212,0.840163 -0.446973,1.160539 0.09843,0.139973 0.28862,0.253667 0.444356,0.262129 z M 25.953906,31.155306 c 0.189953,0.01332 0.32695,-0.07422 0.495791,-0.316833 0.312064,-0.44837 0.417616,-1.00652 0.219804,-1.162148 -0.113421,-0.089 -0.457704,-0.0078 -0.755692,0.178474 -0.207351,0.129671 -0.266211,0.187683 -0.385488,0.379792 -0.125647,0.201209 -0.139215,0.246108 -0.122352,0.403321 0.01012,0.09713 0.04188,0.208122 0.07054,0.24661 0.08296,0.1112 0.347933,0.261724 0.477396,0.270753 z m 7.143636,4.048588 c 0.310032,-0.08225 0.394109,-0.190998 0.51464,-0.665625 0.05199,-0.205063 0.09428,-0.437427 0.09378,-0.516458 -0.0011,-0.174156 -0.10439,-0.326424 -0.260028,-0.383231 -0.232188,-0.0848 -0.392215,0.0031 -0.718492,0.394342 -0.265365,0.318488 -0.32771,0.505946 -0.256233,0.773134 0.05845,0.218514 0.08143,0.250303 0.265315,0.366947 0.124495,0.08261 0.164045,0.08285 0.360991,0.03088 z m 5.638623,2.440701 c 0.174611,-0.01246 0.404371,-0.185877 0.467666,-0.353024 0.103961,-0.274241 0.054,-0.923252 -0.08991,-1.170106 -0.09885,-0.169687 -0.295708,-0.234196 -0.442235,-0.145185 -0.157524,0.09575 -0.439792,0.553243 -0.511668,0.828488 -0.116432,0.448778 0.171328,0.868338 0.575738,0.839411 z m -8.943419,-6.676639 c 0.138306,-0.518505 0.867539,-1.899909 1.196496,-2.26657 0.40232,-0.448572 0.455845,-0.595651 0.301596,-0.830877 -0.113116,-0.172567 -0.252544,-0.223134 -0.618158,-0.224475 -0.321409,-0.0012 -1.069589,-0.05442 -2.15103,-0.153142 l -0.66939,-0.06111 0.580366,-0.118893 c 1.131759,-0.231886 2.711331,-0.678513 3.090111,-0.873749 0.167983,-0.08658 0.271524,-0.252621 0.271456,-0.435313 -1.39e-4,-0.223847 -0.05761,-0.289773 -0.48227,-0.552928 -0.325498,-0.205223 -0.444203,-0.298128 -0.781422,-0.638141 -0.218297,-0.219722 -0.46812,-0.456086 -0.555336,-0.525001 -0.104137,-0.08232 -0.182729,-0.182775 -0.228834,-0.293111 -0.03862,-0.09222 -0.13377,-0.251965 -0.211426,-0.354628 -0.07765,-0.102828 -0.146657,-0.203813 -0.153279,-0.224814 -0.02787,-0.08687 2.868058,0.828905 3.953773,1.250517 0.642132,0.249371 1.603121,0.837125 2.012307,1.233291 0.271934,0.261144 0.305382,0.284426 0.440485,0.305102 0.202274,0.03076 0.358638,-0.06935 0.46269,-0.296408 0.158588,-0.346207 0.403207,-1.574645 0.431901,-2.169068 0.0046,-0.09428 0.01504,-0.306629 0.02331,-0.471641 0.04105,-0.821062 -0.02781,-1.87634 -0.183121,-2.805609 -0.09014,-0.539443 -0.07114,-0.730082 0.08409,-0.843444 0.192565,-0.140676 0.501664,-0.04771 0.622768,0.187299 0.06882,0.133403 0.221102,1.074767 0.281945,1.742295 0.08723,0.957322 0.06797,1.989615 -0.05355,2.867451 -0.06329,0.457403 -0.143828,0.824565 -0.390161,1.778863 -0.05463,0.211344 -0.0592,0.317771 -0.01912,0.445859 0.04845,0.154919 0.06764,0.175693 0.241917,0.262696 0.142091,0.07121 0.279636,0.09832 0.551806,0.110565 0.909482,0.04047 1.646807,0.26918 2.453953,0.761117 0.590995,0.360195 0.844006,0.576588 1.960223,1.675357 0.258173,0.253961 0.577419,0.553467 0.709652,0.665335 0.132251,0.11178 0.23553,0.211038 0.229717,0.220179 -0.03208,0.04142 -1.161228,-0.11782 -1.672703,-0.238801 -0.475547,-0.112529 -0.633602,-0.114321 -0.900347,-0.01034 -0.305198,0.119031 -0.346261,0.235115 -0.30229,0.854916 0.03961,0.557927 0.108306,0.970164 0.311772,1.870166 0.142447,0.630093 0.176794,0.848016 0.12607,0.799458 -0.03905,-0.03573 -0.368409,-0.391889 -0.733501,-0.789244 -0.801474,-0.872401 -1.954872,-2.108808 -2.119002,-2.271484 -0.253745,-0.251447 -0.568395,-0.258216 -0.769832,-0.01638 -0.24241,0.290923 -0.705013,1.9485 -0.772226,2.766693 -0.02319,0.281725 -0.03489,0.277028 -0.211337,-0.08511 -0.06214,-0.127462 -0.205187,-0.406425 -0.317928,-0.619968 -0.339846,-0.643584 -0.606764,-1.183381 -0.96649,-1.954518 -0.416505,-0.89281 -0.472552,-0.9862 -0.660436,-1.100711 -0.215714,-0.131472 -0.422427,-0.130521 -0.991495,0.0048 -0.707256,0.168182 -1.336238,0.415379 -2.167852,0.851985 -0.337076,0.176989 -1.057847,0.592383 -1.07635,0.620315 -0.0065,0.0097 -0.05911,0.03696 -0.11603,0.05879 l -0.103543,0.03985 z"
     id="path1-8" />
  <path
     style="fill:#4d4d4d;fill-opacity:1;stroke-width:0.117853"
     d="m 23.588506,45.21741 c -0.966772,-0.826363 -1.584647,-1.883286 -2.30561,-3.943717 -0.85138,-2.433203 -1.262529,-4.732767 -1.253087,-7.008678 0.0094,-2.246201 0.435597,-4.470546 1.2614,-6.581792 0.802467,-2.051613 1.903947,-3.473308 3.437405,-4.436739 1.371196,-0.861484 2.661671,-1.173598 4.189879,-1.013408 0.402949,0.04226 0.415984,0.04638 0.444215,0.140753 0.01967,0.06559 0.103433,0.152291 0.257113,0.266509 0.125232,0.09347 0.399186,0.345041 0.608171,0.560115 0.314374,0.323146 0.439337,0.427575 0.722401,0.603013 0.29909,0.189128 0.334406,0.214015 0.272133,0.235734 -1.11479,0.373435 -1.883012,0.585653 -2.715943,0.750315 -0.330089,0.06526 -0.840086,0.171792 -1.1333,0.236733 -0.293214,0.06497 -0.597415,0.132025 -0.676028,0.149067 -0.171618,0.03707 -0.270872,0.174294 -0.228826,0.316194 0.04829,0.16322 0.286261,0.312532 0.546259,0.341627 1.344176,0.155771 2.949717,0.290585 3.638784,0.305563 l 0.182261,0.0038 -0.0948,0.08578 c -0.257989,0.233431 -0.987955,1.481994 -1.270706,2.173582 -0.24983,0.611245 -0.287195,1.19408 -0.08449,1.317621 0.105831,0.06449 0.474667,-0.06622 0.872497,-0.309063 0.968615,-0.591393 1.732125,-0.966708 2.522198,-1.239831 0.438356,-0.151542 1.054537,-0.282547 1.138932,-0.242157 0.09488,0.04588 0.137491,0.118928 0.399534,0.691062 0.244766,0.534554 0.518264,1.089241 1.198051,2.429844 0.290216,0.572342 0.439743,0.805497 0.625934,0.976051 0.193093,0.176952 0.334697,0.236545 0.467742,0.197195 0.129364,-0.03831 0.162053,-0.146712 0.23494,-0.783952 0.03375,-0.295383 0.08182,-0.638596 0.106733,-0.762712 0.116913,-0.582261 0.489537,-1.805998 0.55479,-1.821809 0.014,-0.0034 0.125852,0.103763 0.245372,0.238819 0.119459,0.13516 0.339033,0.371931 0.487873,0.526281 0.148805,0.154401 0.564292,0.597712 0.923207,0.98527 0.358854,0.38761 0.802697,0.865898 0.986242,1.062965 0.183548,0.197003 0.391217,0.434673 0.461579,0.52802 0.151414,0.200882 0.261034,0.24578 0.472764,0.19461 0.35542,-0.08623 0.365666,-0.379336 0.0566,-1.622792 -0.197466,-0.794563 -0.291215,-1.323923 -0.327875,-1.85117 -0.02078,-0.298777 -0.01371,-0.34756 0.05727,-0.395682 0.04451,-0.03028 0.09761,-0.04466 0.118106,-0.03216 0.02048,0.01249 0.181294,0.161889 0.357544,0.332172 1.91935,1.853636 2.797214,3.910391 2.596559,6.083569 -0.07262,0.786819 -0.235839,1.41928 -0.588818,2.281671 -0.236608,0.577661 -1.330704,2.372463 -1.746019,2.853757 -1.357002,1.598168 -2.945015,2.825799 -5.175023,4.000631 -1.665087,0.877261 -3.231568,1.4793 -4.912545,1.888068 -2.477911,0.602543 -4.745985,0.685746 -6.212642,0.227898 -0.49688,-0.155012 -1.343718,-0.618222 -1.722525,-0.941922 z m 2.883996,-2.521242 c 0.197735,-0.04154 0.386935,-0.209328 0.496708,-0.44053 0.123521,-0.260554 0.184648,-0.60448 0.147114,-0.829394 -0.02625,-0.157309 -0.04398,-0.184735 -0.138598,-0.214122 -0.168077,-0.05225 -0.479722,0.05081 -0.674098,0.222904 -0.242547,0.214734 -0.454776,0.573318 -0.440735,0.743113 0.02618,0.30525 0.3421,0.573753 0.609057,0.517827 z m 6.160068,-0.07663 c 0.258168,0.01946 0.366159,-0.05192 0.558452,-0.369528 0.280428,-0.471148 0.348235,-1.032125 0.132749,-1.163458 -0.119029,-0.07254 -0.405894,0.01177 -0.684624,0.201059 -0.18155,0.123387 -0.250331,0.196028 -0.372307,0.393033 -0.183905,0.290522 -0.196339,0.455645 -0.06287,0.666764 0.11161,0.176623 0.239524,0.25783 0.428976,0.271654 z M 24.327717,37.00264 c 0.364599,-0.01195 0.657933,-0.557187 0.633818,-1.178178 -0.01473,-0.379195 -0.148347,-0.50044 -0.46311,-0.420306 -0.274472,0.06987 -0.756765,0.646166 -0.775265,0.926347 -0.02498,0.378242 0.249755,0.683679 0.604503,0.672082 z m 4.590491,1.490786 c 0.165159,-0.01186 0.36884,-0.142456 0.462912,-0.296803 0.111117,-0.182316 0.247971,-0.840524 0.211462,-1.017009 -0.02579,-0.125176 -0.05719,-0.168657 -0.172528,-0.238949 -0.266911,-0.162675 -0.441837,-0.08737 -0.778717,0.335232 -0.3306,0.414584 -0.379129,0.685043 -0.177725,0.987654 0.110467,0.165991 0.263827,0.243367 0.454542,0.229963 z M 23.508,32.561236 c 0.343867,0.03597 0.646722,-0.374811 0.693615,-0.940809 0.03626,-0.437534 -0.04008,-0.672676 -0.222615,-0.685719 -0.303034,-0.02163 -0.485095,0.09754 -0.766783,0.501997 -0.179445,0.257595 -0.209601,0.320771 -0.23167,0.489455 -0.02044,0.154386 -0.0053,0.223462 0.0745,0.340663 0.121763,0.179228 0.269678,0.275025 0.452913,0.294195 z m 9.966439,5.556577 c 0.284235,-0.05664 0.490784,-0.3273 0.591514,-0.774923 0.03447,-0.153809 0.05807,-0.361152 0.05221,-0.460825 -0.01827,-0.31106 -0.110773,-0.396398 -0.386894,-0.356917 -0.22494,0.03214 -0.356231,0.125528 -0.612762,0.435728 -0.240583,0.291047 -0.317564,0.509824 -0.259885,0.729662 0.06821,0.256927 0.381189,0.47409 0.615939,0.427281 z M 27.677654,34.08488 c 0.216717,-0.03322 0.340868,-0.121544 0.470852,-0.334906 0.130946,-0.214957 0.294608,-0.637156 0.313213,-0.808333 0.01405,-0.12984 -0.06904,-0.293532 -0.183521,-0.360929 -0.18642,-0.106898 -0.405057,-0.03979 -0.720227,0.226552 -0.446501,0.377326 -0.537276,0.562189 -0.438845,0.893526 0.05142,0.172991 0.07708,0.206286 0.232358,0.300921 0.141305,0.08612 0.203358,0.102014 0.32617,0.08317 z m 9.343278,5.476783 c 0.197303,0.0139 0.358791,-0.08886 0.497938,-0.316808 0.246318,-0.398821 0.300082,-1.159999 0.09451,-1.285288 -0.08667,-0.05282 -0.383503,0.0365 -0.588474,0.177196 -0.473924,0.32538 -0.672212,0.840163 -0.446973,1.160539 0.09843,0.139973 0.28862,0.253667 0.444356,0.262129 z M 25.953906,29.155306 c 0.189953,0.01332 0.32695,-0.07422 0.495791,-0.316833 0.312064,-0.44837 0.417616,-1.00652 0.219804,-1.162148 -0.113421,-0.089 -0.457704,-0.0078 -0.755692,0.178474 -0.207351,0.129671 -0.266211,0.187683 -0.385488,0.379792 -0.125647,0.201209 -0.139215,0.246108 -0.122352,0.403321 0.01012,0.09713 0.04188,0.208122 0.07054,0.24661 0.08296,0.1112 0.347933,0.261724 0.477396,0.270753 z m 7.143636,4.048588 c 0.310032,-0.08225 0.394109,-0.190998 0.51464,-0.665625 0.05199,-0.205063 0.09428,-0.437427 0.09378,-0.516458 -0.0011,-0.174156 -0.10439,-0.326424 -0.260028,-0.383231 -0.232188,-0.0848 -0.392215,0.0031 -0.718492,0.394342 -0.265365,0.318488 -0.32771,0.505946 -0.256233,0.773134 0.05845,0.218514 0.08143,0.250303 0.265315,0.366947 0.124495,0.08261 0.164045,0.08285 0.360991,0.03088 z m 5.638623,2.440701 c 0.174611,-0.01246 0.404371,-0.185877 0.467666,-0.353024 0.103961,-0.274241 0.054,-0.923252 -0.08991,-1.170106 -0.09885,-0.169687 -0.295708,-0.234196 -0.442235,-0.145185 -0.157524,0.09575 -0.439792,0.553243 -0.511668,0.828488 -0.116432,0.448778 0.171328,0.868338 0.575738,0.839411 z m -8.943419,-6.676639 c 0.138306,-0.518505 0.867539,-1.899909 1.196496,-2.26657 0.40232,-0.448572 0.455845,-0.595651 0.301596,-0.830877 -0.113116,-0.172567 -0.252544,-0.223134 -0.618158,-0.224475 -0.321409,-0.0012 -1.069589,-0.05442 -2.15103,-0.153142 l -0.66939,-0.06111 0.580366,-0.118893 c 1.131759,-0.231886 2.711331,-0.678513 3.090111,-0.873749 0.167983,-0.08658 0.271524,-0.252621 0.271456,-0.435313 -1.39e-4,-0.223847 -0.05761,-0.289773 -0.48227,-0.552928 -0.325498,-0.205223 -0.444203,-0.298128 -0.781422,-0.638141 -0.218297,-0.219722 -0.46812,-0.456086 -0.555336,-0.525001 -0.104137,-0.08232 -0.182729,-0.182775 -0.228834,-0.293111 -0.03862,-0.09222 -0.13377,-0.251965 -0.211426,-0.354628 -0.07765,-0.102828 -0.146657,-0.203813 -0.153279,-0.224814 -0.02787,-0.08687 2.868058,0.828905 3.953773,1.250517 0.642132,0.249371 1.603121,0.837125 2.012307,1.233291 0.271934,0.261144 0.305382,0.284426 0.440485,0.305102 0.202274,0.03076 0.358638,-0.06935 0.46269,-0.296408 0.158588,-0.346207 0.403207,-1.574645 0.431901,-2.169068 0.0046,-0.09428 0.01504,-0.306629 0.02331,-0.471641 0.04105,-0.821062 -0.02781,-1.87634 -0.183121,-2.805609 -0.09014,-0.539443 -0.07114,-0.730082 0.08409,-0.843444 0.192565,-0.140676 0.501664,-0.04771 0.622768,0.187299 0.06882,0.133403 0.221102,1.074767 0.281945,1.742295 0.08723,0.957322 0.06797,1.989615 -0.05355,2.867451 -0.06329,0.457403 -0.143828,0.824565 -0.390161,1.778863 -0.05463,0.211344 -0.0592,0.317771 -0.01912,0.445859 0.04845,0.154919 0.06764,0.175693 0.241917,0.262696 0.142091,0.07121 0.279636,0.09832 0.551806,0.110565 0.909482,0.04047 1.646807,0.26918 2.453953,0.761117 0.590995,0.360195 0.844006,0.576588 1.960223,1.675357 0.258173,0.253961 0.577419,0.553467 0.709652,0.665335 0.132251,0.11178 0.23553,0.211038 0.229717,0.220179 -0.03208,0.04142 -1.161228,-0.11782 -1.672703,-0.238801 -0.475547,-0.112529 -0.633602,-0.114321 -0.900347,-0.01034 -0.305198,0.119031 -0.346261,0.235115 -0.30229,0.854916 0.03961,0.557927 0.108306,0.970164 0.311772,1.870166 0.142447,0.630093 0.176794,0.848016 0.12607,0.799458 -0.03905,-0.03573 -0.368409,-0.391889 -0.733501,-0.789244 -0.801474,-0.872401 -1.954872,-2.108808 -2.119002,-2.271484 -0.253745,-0.251447 -0.568395,-0.258216 -0.769832,-0.01638 -0.24241,0.290923 -0.705013,1.9485 -0.772226,2.766693 -0.02319,0.281725 -0.03489,0.277028 -0.211337,-0.08511 -0.06214,-0.127462 -0.205187,-0.406425 -0.317928,-0.619968 -0.339846,-0.643584 -0.606764,-1.183381 -0.96649,-1.954518 -0.416505,-0.89281 -0.472552,-0.9862 -0.660436,-1.100711 -0.215714,-0.131472 -0.422427,-0.130521 -0.991495,0.0048 -0.707256,0.168182 -1.336238,0.415379 -2.167852,0.851985 -0.337076,0.176989 -1.057847,0.592383 -1.07635,0.620315 -0.0065,0.0097 -0.05911,0.03696 -0.11603,0.05879 l -0.103543,0.03985 z"
     id="path1" />
</svg>
