<?xml version="1.0" encoding="UTF-8" standalone="no"?>
<svg
   width="64"
   height="64"
   version="1.1"
   id="svg73"
   sodipodi:docname="abcd.svg"
   inkscape:version="1.4.2 (ebf0e940d0, 2025-05-08)"
   xmlns:inkscape="http://www.inkscape.org/namespaces/inkscape"
   xmlns:sodipodi="http://sodipodi.sourceforge.net/DTD/sodipodi-0.dtd"
   xmlns:xlink="http://www.w3.org/1999/xlink"
   xmlns="http://www.w3.org/2000/svg"
   xmlns:svg="http://www.w3.org/2000/svg"
   xmlns:rdf="http://www.w3.org/1999/02/22-rdf-syntax-ns#"
   xmlns:cc="http://creativecommons.org/ns#"
   xmlns:dc="http://purl.org/dc/elements/1.1/">
  <metadata
     id="metadata77">
    <rdf:RDF>
      <cc:Work
         rdf:about="">
        <dc:format>image/svg+xml</dc:format>
        <dc:type
           rdf:resource="http://purl.org/dc/dcmitype/StillImage" />
      </cc:Work>
    </rdf:RDF>
  </metadata>
  <sodipodi:namedview
     pagecolor="#f5f7fa"
     bordercolor="#666666"
     borderopacity="1"
     objecttolerance="10"
     gridtolerance="10"
     guidetolerance="10"
     inkscape:pageopacity="0"
     inkscape:pageshadow="2"
     inkscape:window-width="1366"
     inkscape:window-height="927"
     id="namedview75"
     showgrid="false"
     inkscape:zoom="6.2890624"
     inkscape:cx="53.505591"
     inkscape:cy="29.734162"
     inkscape:window-x="24"
     inkscape:window-y="21"
     inkscape:window-maximized="0"
     inkscape:current-layer="svg73"
     inkscape:document-rotation="0"
     inkscape:pagecheckerboard="0"
     inkscape:showpageshadow="2"
     inkscape:deskcolor="#d1d1d1" />
  <defs
     id="defs29">
    <linearGradient
       id="linearGradient4"
       inkscape:collect="always">
      <stop
         style="stop-color:#ac5e5e;stop-opacity:1;"
         offset="0"
         id="stop4" />
      <stop
         style="stop-color:#c18181;stop-opacity:1;"
         offset="0.5"
         id="stop1" />
    </linearGradient>
    <linearGradient
       id="linearGradient2"
       inkscape:collect="always">
      <stop
         style="stop-color:#f4ecec;stop-opacity:1;"
         offset="0"
         id="stop2" />
      <stop
         style="stop-color:#e9d8d8;stop-opacity:1;"
         offset="1"
         id="stop3" />
    </linearGradient>
    <linearGradient
       inkscape:collect="always"
       xlink:href="#linearGradient2"
       id="linearGradient8"
       x1="31.721739"
       y1="5.2278585"
       x2="31.88887"
       y2="59.145416"
       gradientUnits="userSpaceOnUse"
       gradientTransform="matrix(0.8505,0,0,0.8505,4.7765033,4.7794869)" />
    <filter
       style="color-interpolation-filters:sRGB;"
       inkscape:label="Blur"
       id="filter9"
       x="-0.047762285"
       y="-0.047489063"
       width="1.0955246"
       height="1.0949781">
      <feGaussianBlur
         stdDeviation="1 1"
         result="blur"
         id="feGaussianBlur9" />
    </filter>
    <linearGradient
       inkscape:collect="always"
       xlink:href="#linearGradient4"
       id="linearGradient7"
       x1="26.723248"
       y1="58.711765"
       x2="25.756926"
       y2="5.950614"
       gradientUnits="userSpaceOnUse" />
    <filter
       style="color-interpolation-filters:sRGB;"
       inkscape:label="Out of Focus"
       id="filter40"
       x="-0.24226652"
       y="-0.2858297"
       width="1.484533"
       height="1.5716594">
      <feFlood
         flood-opacity="1"
         flood-color="rgb(255,255,255)"
         result="flood"
         id="feFlood38" />
      <feColorMatrix
         in="SourceGraphic"
         values="1 0 0 0 0 0 1 0 0 0 0 0 1 0 0 -0.2125 -0.7154 -0.0721 1 0 "
         result="colormatrix1"
         id="feColorMatrix38" />
      <feGaussianBlur
         in="colormatrix1"
         stdDeviation="3 3"
         result="blur"
         id="feGaussianBlur38" />
      <feColorMatrix
         in="blur"
         values="1 0 0 0 0 0 1 0 0 0 0 0 1 0 0 0 0 0 6 -2 "
         result="colormatrix2"
         id="feColorMatrix39" />
      <feBlend
         in="colormatrix2"
         in2="flood"
         mode="normal"
         result="blend"
         id="feBlend39" />
      <feComposite
         in="blend"
         in2="blend"
         operator="arithmetic"
         k2="0.2"
         result="composite1"
         id="feComposite39" />
      <feComposite
         in2="SourceGraphic"
         operator="in"
         id="feComposite40" />
    </filter>
  </defs>
  <g
     id="g877"
     transform="matrix(1.1,0,0,1.1,-3.1845928,-3.2065454)">
    <ellipse
       style="opacity:0.5;fill:#000000;stroke:none;stroke-width:3.89319;stroke-dasharray:none;stroke-opacity:1;filter:url(#filter9)"
       id="path2-5"
       cx="31.949858"
       cy="31.969812"
       rx="25.124426"
       ry="25.268976"
       transform="matrix(1.05,0,0,1.05,-1.5974929,-1.5984906)" />
    <path
       style="fill:#f5f7fa;stroke-width:0.204426;fill-opacity:1"
       d=""
       id="path3" />
    <circle
       style="opacity:1;fill:url(#linearGradient8);stroke:url(#linearGradient7);stroke-width:3.81818;stroke-dasharray:none;stroke-opacity:1"
       id="path2"
       cx="31.949856"
       cy="31.969812"
       r="24.711082" />
    <ellipse
       style="opacity:0.3;fill:none;stroke:#000000;stroke-width:0.974376;stroke-dasharray:none;stroke-opacity:1"
       id="path2-9"
       cx="31.949856"
       cy="31.969812"
       rx="23.129124"
       ry="23.129126" />
  </g>
  <path
     id="path7-62-6"
     style="fill:#000000;fill-opacity:1;stroke:none;stroke-width:0.977243;stroke-dasharray:none;stroke-opacity:0.3;opacity:0.2"
     d="m 32.099907,18.37015 c -3.302471,-0.0247 -6.610375,1.258277 -9.205516,3.853606 -3.785147,3.78542 -5.154963,9.500319 -3.510046,14.645228 0.898043,2.808861 2.935135,5.680473 5.057977,7.126981 0.354807,0.241805 0.645131,0.485592 0.645131,0.542067 0,0.242259 0.837158,1.740046 1.305532,2.336204 1.096854,1.396128 2.921406,2.453599 4.701053,2.727492 0.551688,0.08491 2.088073,-0.03073 2.74467,-0.206172 2.015723,-0.538974 3.723402,-2.004068 4.727773,-4.057837 0.397129,-0.812082 0.538659,-0.984272 1.284534,-1.555568 2.157338,-1.652372 3.816215,-4.017831 4.708703,-6.716611 1.70412,-5.153068 0.416275,-10.906478 -3.290553,-14.704355 -2.570798,-2.633943 -5.866783,-3.966357 -9.169258,-3.991035 z m 8.482135,14.038271 c 0.530466,-0.02244 1.042296,0.002 1.399054,0.07825 0.322623,0.06888 0.340624,0.103202 0.433263,0.855085 0.123759,1.004716 -0.05008,2.478878 -0.41799,3.536767 -0.869957,2.501559 -3.025943,4.417117 -5.496975,4.884283 -1.288642,0.243627 -2.701482,0.168412 -2.864911,-0.150733 -0.175475,-0.342719 -0.238546,-1.565961 -0.125977,-2.456434 0.41037,-3.246121 2.56302,-5.778787 5.56568,-6.546741 0.427474,-0.109329 0.977388,-0.177975 1.507851,-0.200415 z m -16.937545,0.0057 c 1.775264,0.06326 3.20937,0.726377 4.599897,2.103358 0.783438,0.775805 1.053751,1.137121 1.429594,1.910583 0.738109,1.51896 1.005689,2.892874 0.86272,4.418573 -0.05919,0.631517 -0.124142,0.857431 -0.265313,0.912338 -0.103224,0.04004 -0.616635,0.09274 -1.141382,0.116406 -3.466705,0.156444 -6.570616,-2.3113 -7.357925,-5.850086 -0.180402,-0.810857 -0.205549,-3.297565 -0.03435,-3.468057 0.04061,-0.04044 0.547481,-0.101222 1.124209,-0.1336 0.268408,-0.01508 0.528947,-0.0186 0.782557,-0.0095 z" />
  <path
     id="path7-62"
     style="fill:#4d4d4d;fill-opacity:1;stroke:none;stroke-width:0.977243;stroke-dasharray:none;stroke-opacity:0.3"
     d="m 32.099907,16.37015 c -3.302471,-0.0247 -6.610375,1.258277 -9.205516,3.853606 -3.785147,3.78542 -5.154963,9.500319 -3.510046,14.645228 0.898043,2.808861 2.935135,5.680473 5.057977,7.126981 0.354807,0.241805 0.645131,0.485592 0.645131,0.542067 0,0.242259 0.837158,1.740046 1.305532,2.336204 1.096854,1.396128 2.921406,2.453599 4.701053,2.727492 0.551688,0.08491 2.088073,-0.03073 2.74467,-0.206172 2.015723,-0.538974 3.723402,-2.004068 4.727773,-4.057837 0.397129,-0.812082 0.538659,-0.984272 1.284534,-1.555568 2.157338,-1.652372 3.816215,-4.017831 4.708703,-6.716611 1.70412,-5.153068 0.416275,-10.906478 -3.290553,-14.704355 -2.570798,-2.633943 -5.866783,-3.966357 -9.169258,-3.991035 z m 8.482135,14.038271 c 0.530466,-0.02244 1.042296,0.002 1.399054,0.07825 0.322623,0.06888 0.340624,0.103202 0.433263,0.855085 0.123759,1.004716 -0.05008,2.478878 -0.41799,3.536767 -0.869957,2.501559 -3.025943,4.417117 -5.496975,4.884283 -1.288642,0.243627 -2.701482,0.168412 -2.864911,-0.150733 -0.175475,-0.342719 -0.238546,-1.565961 -0.125977,-2.456434 0.41037,-3.246121 2.56302,-5.778787 5.56568,-6.546741 0.427474,-0.109329 0.977388,-0.177975 1.507851,-0.200415 z m -16.937545,0.0057 c 1.775264,0.06326 3.20937,0.726377 4.599897,2.103358 0.783438,0.775805 1.053751,1.137121 1.429594,1.910583 0.738109,1.51896 1.005689,2.892874 0.86272,4.418573 -0.05919,0.631517 -0.124142,0.857431 -0.265313,0.912338 -0.103224,0.04004 -0.616635,0.09274 -1.141382,0.116406 -3.466705,0.156444 -6.570616,-2.3113 -7.357925,-5.850086 -0.180402,-0.810857 -0.205549,-3.297565 -0.03435,-3.468057 0.04061,-0.04044 0.547481,-0.101222 1.124209,-0.1336 0.268408,-0.01508 0.528947,-0.0186 0.782557,-0.0095 z" />
</svg>
