<?xml version="1.0" encoding="UTF-8" standalone="no"?>
<svg
   width="64"
   height="64"
   version="1.1"
   id="svg73"
   sodipodi:docname="abcd.svg"
   inkscape:version="1.4.2 (ebf0e940d0, 2025-05-08)"
   xmlns:inkscape="http://www.inkscape.org/namespaces/inkscape"
   xmlns:sodipodi="http://sodipodi.sourceforge.net/DTD/sodipodi-0.dtd"
   xmlns:xlink="http://www.w3.org/1999/xlink"
   xmlns="http://www.w3.org/2000/svg"
   xmlns:svg="http://www.w3.org/2000/svg"
   xmlns:rdf="http://www.w3.org/1999/02/22-rdf-syntax-ns#"
   xmlns:cc="http://creativecommons.org/ns#"
   xmlns:dc="http://purl.org/dc/elements/1.1/">
  <metadata
     id="metadata77">
    <rdf:RDF>
      <cc:Work
         rdf:about="">
        <dc:format>image/svg+xml</dc:format>
        <dc:type
           rdf:resource="http://purl.org/dc/dcmitype/StillImage" />
      </cc:Work>
    </rdf:RDF>
  </metadata>
  <sodipodi:namedview
     pagecolor="#f5f7fa"
     bordercolor="#666666"
     borderopacity="1"
     objecttolerance="10"
     gridtolerance="10"
     guidetolerance="10"
     inkscape:pageopacity="0"
     inkscape:pageshadow="2"
     inkscape:window-width="1462"
     inkscape:window-height="840"
     id="namedview75"
     showgrid="false"
     inkscape:zoom="6.2890624"
     inkscape:cx="53.585094"
     inkscape:cy="29.654659"
     inkscape:window-x="24"
     inkscape:window-y="21"
     inkscape:window-maximized="0"
     inkscape:current-layer="svg73"
     inkscape:document-rotation="0"
     inkscape:pagecheckerboard="0"
     inkscape:showpageshadow="2"
     inkscape:deskcolor="#d1d1d1" />
  <defs
     id="defs29">
    <linearGradient
       id="linearGradient4"
       inkscape:collect="always">
      <stop
         style="stop-color:#ac5e5e;stop-opacity:1;"
         offset="0"
         id="stop4" />
      <stop
         style="stop-color:#c18181;stop-opacity:1;"
         offset="0.5"
         id="stop1" />
    </linearGradient>
    <linearGradient
       id="linearGradient2"
       inkscape:collect="always">
      <stop
         style="stop-color:#f4ecec;stop-opacity:1;"
         offset="0"
         id="stop2" />
      <stop
         style="stop-color:#e9d8d8;stop-opacity:1;"
         offset="1"
         id="stop3" />
    </linearGradient>
    <linearGradient
       inkscape:collect="always"
       xlink:href="#linearGradient2"
       id="linearGradient8"
       x1="31.721739"
       y1="5.2278585"
       x2="31.88887"
       y2="59.145416"
       gradientUnits="userSpaceOnUse"
       gradientTransform="matrix(0.8505,0,0,0.8505,4.7765033,4.7794869)" />
    <filter
       style="color-interpolation-filters:sRGB;"
       inkscape:label="Blur"
       id="filter9"
       x="-0.047762285"
       y="-0.047489063"
       width="1.0955246"
       height="1.0949781">
      <feGaussianBlur
         stdDeviation="1 1"
         result="blur"
         id="feGaussianBlur9" />
    </filter>
    <linearGradient
       inkscape:collect="always"
       xlink:href="#linearGradient4"
       id="linearGradient7"
       x1="26.723248"
       y1="58.711765"
       x2="25.756926"
       y2="5.950614"
       gradientUnits="userSpaceOnUse" />
  </defs>
  <g
     id="g877"
     transform="matrix(1.1,0,0,1.1,-3.1845928,-3.2065454)">
    <ellipse
       style="opacity:0.5;fill:#000000;stroke:none;stroke-width:3.89319;stroke-dasharray:none;stroke-opacity:1;filter:url(#filter9)"
       id="path2-5"
       cx="31.949858"
       cy="31.969812"
       rx="25.124426"
       ry="25.268976"
       transform="matrix(1.05,0,0,1.05,-1.5974929,-1.5984906)" />
    <path
       style="fill:#f5f7fa;stroke-width:0.204426;fill-opacity:1"
       d=""
       id="path3" />
    <circle
       style="opacity:1;fill:url(#linearGradient8);stroke:url(#linearGradient7);stroke-width:3.81818;stroke-dasharray:none;stroke-opacity:1"
       id="path2"
       cx="31.949856"
       cy="31.969812"
       r="24.711082" />
    <ellipse
       style="opacity:0.3;fill:none;stroke:#000000;stroke-width:0.974376;stroke-dasharray:none;stroke-opacity:1"
       id="path2-9"
       cx="31.949856"
       cy="31.969812"
       rx="23.129124"
       ry="23.129126" />
  </g>
  <path
     style="fill:#000000;fill-opacity:1;stroke:none;stroke-width:0.50546;stroke-dasharray:none;stroke-opacity:0.6;opacity:0.2"
     d="m 30.532444,49.435308 c -3.227951,-0.32797 -6.147548,-1.563275 -8.601001,-3.639168 -0.231653,-0.196003 -0.727723,-0.673124 -1.102374,-1.060276 -3.380045,-3.49274 -4.88668,-8.377109 -4.097523,-13.283727 0.310073,-1.927887 1.000807,-3.801199 2.040202,-5.533145 1.105177,-1.841564 2.961719,-3.746955 4.817166,-4.943921 2.122845,-1.369466 4.520715,-2.180753 7.12646,-2.411147 0.824427,-0.07292 2.678964,-0.03181 3.479992,0.07715 2.965326,0.403246 5.562919,1.437952 7.77999,3.099027 2.630874,1.971111 4.460689,4.654384 5.169951,7.581334 0.274309,1.131968 0.327715,1.598753 0.32877,2.873969 8.94e-4,1.024957 -0.01224,1.232718 -0.11433,1.73429 -0.659891,3.262513 -2.824567,5.779109 -5.837466,6.786462 -1.099083,0.367492 -1.472142,0.40791 -3.982247,0.431647 -2.167166,0.02042 -2.211943,0.02279 -2.607729,0.142156 -0.946813,0.285294 -1.576426,0.986257 -1.702837,1.895791 -0.09041,0.650476 0.12949,1.306377 0.692727,2.066368 0.379195,0.511659 0.40843,0.601796 0.434569,1.340193 0.01748,0.494 0.0038,0.721903 -0.05772,0.966254 -0.201549,0.799576 -0.668287,1.394196 -1.349718,1.719577 l -0.389187,0.185866 -0.792819,0.0078 c -0.436053,0.0044 -0.991762,-0.01224 -1.234912,-0.03667 z M 21.805503,33.952926 c 0.773671,-0.201513 1.417577,-0.770655 1.715719,-1.516515 0.162089,-0.405489 0.185037,-1.031294 0.05369,-1.463782 -0.454582,-1.496604 -2.134929,-2.199291 -3.460368,-1.447062 -0.602046,0.341684 -1.100371,1.053505 -1.217912,1.739695 -0.273208,1.594975 1.34913,3.093933 2.908895,2.687664 z m 20.199801,0.02606 c 0.433165,-0.08083 0.874624,-0.326997 1.236565,-0.689519 0.763284,-0.76452 0.937013,-1.76391 0.470655,-2.707512 -0.608139,-1.230474 -2.02973,-1.706805 -3.247534,-1.088146 -0.410418,0.208491 -0.858486,0.685458 -1.077814,1.147305 -0.16134,0.339661 -0.185933,0.441636 -0.203452,0.843335 -0.0153,0.364408 9.9e-4,0.526536 0.08439,0.800494 0.357466,1.176866 1.550877,1.915452 2.73724,1.694041 z M 27.880981,26.76491 c 0.876001,-0.256993 1.570776,-1.037432 1.733333,-1.947044 0.222401,-1.244465 -0.719644,-2.521356 -2.021646,-2.740239 -1.1342,-0.190674 -2.336262,0.59004 -2.669682,1.733902 -0.164789,0.565318 -0.0636,1.341929 0.239146,1.835734 0.156621,0.255439 0.521683,0.637352 0.777676,0.813551 0.518705,0.357019 1.328407,0.483868 1.941173,0.304096 z m 8.72581,-0.154876 c 0.537352,-0.266268 0.911619,-0.64649 1.168208,-1.186806 0.16032,-0.337639 0.184982,-0.440238 0.202568,-0.841477 0.01565,-0.364408 -9.91e-4,-0.526537 -0.08439,-0.800493 -0.344403,-1.133975 -1.523679,-1.894686 -2.640317,-1.703206 -1.2998,0.222893 -2.239005,1.475912 -2.033927,2.713524 0.113217,0.683211 0.594055,1.392606 1.174525,1.732782 0.416956,0.244346 0.740828,0.320966 1.294181,0.306149 0.476165,-0.01272 0.522213,-0.02385 0.919125,-0.220479 z"
     id="path7-5" />
  <path
     style="fill:#4d4d4d;fill-opacity:1;stroke:none;stroke-width:0.50546;stroke-dasharray:none;stroke-opacity:0.6"
     d="m 30.532444,47.435308 c -3.227951,-0.32797 -6.147548,-1.563275 -8.601001,-3.639168 -0.231653,-0.196003 -0.727723,-0.673124 -1.102374,-1.060276 -3.380045,-3.49274 -4.88668,-8.377109 -4.097523,-13.283727 0.310073,-1.927887 1.000807,-3.801199 2.040202,-5.533145 1.105177,-1.841564 2.961719,-3.746955 4.817166,-4.943921 2.122845,-1.369466 4.520715,-2.180753 7.12646,-2.411147 0.824427,-0.07292 2.678964,-0.03181 3.479992,0.07715 2.965326,0.403246 5.562919,1.437952 7.77999,3.099027 2.630874,1.971111 4.460689,4.654384 5.169951,7.581334 0.274309,1.131968 0.327715,1.598753 0.32877,2.873969 8.94e-4,1.024957 -0.01224,1.232718 -0.11433,1.73429 -0.659891,3.262513 -2.824567,5.779109 -5.837466,6.786462 -1.099083,0.367492 -1.472142,0.40791 -3.982247,0.431647 -2.167166,0.02042 -2.211943,0.02279 -2.607729,0.142156 -0.946813,0.285294 -1.576426,0.986257 -1.702837,1.895791 -0.09041,0.650476 0.12949,1.306377 0.692727,2.066368 0.379195,0.511659 0.40843,0.601796 0.434569,1.340193 0.01748,0.494 0.0038,0.721903 -0.05772,0.966254 -0.201549,0.799576 -0.668287,1.394196 -1.349718,1.719577 l -0.389187,0.185866 -0.792819,0.0078 c -0.436053,0.0044 -0.991762,-0.01224 -1.234912,-0.03667 z M 21.805503,31.952926 c 0.773671,-0.201513 1.417577,-0.770655 1.715719,-1.516515 0.162089,-0.405489 0.185037,-1.031294 0.05369,-1.463782 -0.454582,-1.496604 -2.134929,-2.199291 -3.460368,-1.447062 -0.602046,0.341684 -1.100371,1.053505 -1.217912,1.739695 -0.273208,1.594975 1.34913,3.093933 2.908895,2.687664 z m 20.199801,0.02606 c 0.433165,-0.08083 0.874624,-0.326997 1.236565,-0.689519 0.763284,-0.76452 0.937013,-1.76391 0.470655,-2.707512 -0.608139,-1.230474 -2.02973,-1.706805 -3.247534,-1.088146 -0.410418,0.208491 -0.858486,0.685458 -1.077814,1.147305 -0.16134,0.339661 -0.185933,0.441636 -0.203452,0.843335 -0.0153,0.364408 9.9e-4,0.526536 0.08439,0.800494 0.357466,1.176866 1.550877,1.915452 2.73724,1.694041 z M 27.880981,24.76491 c 0.876001,-0.256993 1.570776,-1.037432 1.733333,-1.947044 0.222401,-1.244465 -0.719644,-2.521356 -2.021646,-2.740239 -1.1342,-0.190674 -2.336262,0.59004 -2.669682,1.733902 -0.164789,0.565318 -0.0636,1.341929 0.239146,1.835734 0.156621,0.255439 0.521683,0.637352 0.777676,0.813551 0.518705,0.357019 1.328407,0.483868 1.941173,0.304096 z m 8.72581,-0.154876 c 0.537352,-0.266268 0.911619,-0.64649 1.168208,-1.186806 0.16032,-0.337639 0.184982,-0.440238 0.202568,-0.841477 0.01565,-0.364408 -9.91e-4,-0.526537 -0.08439,-0.800493 -0.344403,-1.133975 -1.523679,-1.894686 -2.640317,-1.703206 -1.2998,0.222893 -2.239005,1.475912 -2.033927,2.713524 0.113217,0.683211 0.594055,1.392606 1.174525,1.732782 0.416956,0.244346 0.740828,0.320966 1.294181,0.306149 0.476165,-0.01272 0.522213,-0.02385 0.919125,-0.220479 z"
     id="path7" />
</svg>
