<?xml version="1.0" encoding="UTF-8" standalone="no"?>
<svg
   width="64"
   height="64"
   version="1.1"
   id="svg73"
   sodipodi:docname="abcd.svg"
   inkscape:version="1.4.2 (ebf0e940d0, 2025-05-08)"
   xmlns:inkscape="http://www.inkscape.org/namespaces/inkscape"
   xmlns:sodipodi="http://sodipodi.sourceforge.net/DTD/sodipodi-0.dtd"
   xmlns:xlink="http://www.w3.org/1999/xlink"
   xmlns="http://www.w3.org/2000/svg"
   xmlns:svg="http://www.w3.org/2000/svg"
   xmlns:rdf="http://www.w3.org/1999/02/22-rdf-syntax-ns#"
   xmlns:cc="http://creativecommons.org/ns#"
   xmlns:dc="http://purl.org/dc/elements/1.1/">
  <metadata
     id="metadata77">
    <rdf:RDF>
      <cc:Work
         rdf:about="">
        <dc:format>image/svg+xml</dc:format>
        <dc:type
           rdf:resource="http://purl.org/dc/dcmitype/StillImage" />
      </cc:Work>
    </rdf:RDF>
  </metadata>
  <sodipodi:namedview
     pagecolor="#f5f7fa"
     bordercolor="#666666"
     borderopacity="1"
     objecttolerance="10"
     gridtolerance="10"
     guidetolerance="10"
     inkscape:pageopacity="0"
     inkscape:pageshadow="2"
     inkscape:window-width="1462"
     inkscape:window-height="840"
     id="namedview75"
     showgrid="false"
     inkscape:zoom="6.2890624"
     inkscape:cx="53.585094"
     inkscape:cy="29.654659"
     inkscape:window-x="24"
     inkscape:window-y="21"
     inkscape:window-maximized="0"
     inkscape:current-layer="svg73"
     inkscape:document-rotation="0"
     inkscape:pagecheckerboard="0"
     inkscape:showpageshadow="2"
     inkscape:deskcolor="#d1d1d1" />
  <defs
     id="defs29">
    <linearGradient
       id="linearGradient4"
       inkscape:collect="always">
      <stop
         style="stop-color:#ac5e5e;stop-opacity:1;"
         offset="0"
         id="stop4" />
      <stop
         style="stop-color:#c18181;stop-opacity:1;"
         offset="0.5"
         id="stop1" />
    </linearGradient>
    <linearGradient
       id="linearGradient2"
       inkscape:collect="always">
      <stop
         style="stop-color:#f4ecec;stop-opacity:1;"
         offset="0"
         id="stop2" />
      <stop
         style="stop-color:#e9d8d8;stop-opacity:1;"
         offset="1"
         id="stop3" />
    </linearGradient>
    <linearGradient
       inkscape:collect="always"
       xlink:href="#linearGradient2"
       id="linearGradient8"
       x1="31.721739"
       y1="5.2278585"
       x2="31.88887"
       y2="59.145416"
       gradientUnits="userSpaceOnUse"
       gradientTransform="matrix(0.8505,0,0,0.8505,4.7765033,4.7794869)" />
    <filter
       style="color-interpolation-filters:sRGB;"
       inkscape:label="Blur"
       id="filter9"
       x="-0.047762285"
       y="-0.047489063"
       width="1.0955246"
       height="1.0949781">
      <feGaussianBlur
         stdDeviation="1 1"
         result="blur"
         id="feGaussianBlur9" />
    </filter>
    <linearGradient
       inkscape:collect="always"
       xlink:href="#linearGradient4"
       id="linearGradient7"
       x1="26.723248"
       y1="58.711765"
       x2="25.756926"
       y2="5.950614"
       gradientUnits="userSpaceOnUse" />
    <filter
       style="color-interpolation-filters:sRGB;"
       inkscape:label="Out of Focus"
       id="filter40"
       x="-0.24226652"
       y="-0.2858297"
       width="1.484533"
       height="1.5716594">
      <feFlood
         flood-opacity="1"
         flood-color="rgb(255,255,255)"
         result="flood"
         id="feFlood38" />
      <feColorMatrix
         in="SourceGraphic"
         values="1 0 0 0 0 0 1 0 0 0 0 0 1 0 0 -0.2125 -0.7154 -0.0721 1 0 "
         result="colormatrix1"
         id="feColorMatrix38" />
      <feGaussianBlur
         in="colormatrix1"
         stdDeviation="3 3"
         result="blur"
         id="feGaussianBlur38" />
      <feColorMatrix
         in="blur"
         values="1 0 0 0 0 0 1 0 0 0 0 0 1 0 0 0 0 0 6 -2 "
         result="colormatrix2"
         id="feColorMatrix39" />
      <feBlend
         in="colormatrix2"
         in2="flood"
         mode="normal"
         result="blend"
         id="feBlend39" />
      <feComposite
         in="blend"
         in2="blend"
         operator="arithmetic"
         k2="0.2"
         result="composite1"
         id="feComposite39" />
      <feComposite
         in2="SourceGraphic"
         operator="in"
         id="feComposite40" />
    </filter>
  </defs>
  <g
     id="g877"
     transform="matrix(1.1,0,0,1.1,-3.1845928,-3.2065454)">
    <ellipse
       style="opacity:0.5;fill:#000000;stroke:none;stroke-width:3.89319;stroke-dasharray:none;stroke-opacity:1;filter:url(#filter9)"
       id="path2-5"
       cx="31.949858"
       cy="31.969812"
       rx="25.124426"
       ry="25.268976"
       transform="matrix(1.05,0,0,1.05,-1.5974929,-1.5984906)" />
    <path
       style="fill:#f5f7fa;stroke-width:0.204426;fill-opacity:1"
       d=""
       id="path3" />
    <circle
       style="opacity:1;fill:url(#linearGradient8);stroke:url(#linearGradient7);stroke-width:3.81818;stroke-dasharray:none;stroke-opacity:1"
       id="path2"
       cx="31.949856"
       cy="31.969812"
       r="24.711082" />
    <ellipse
       style="opacity:0.3;fill:none;stroke:#000000;stroke-width:0.974376;stroke-dasharray:none;stroke-opacity:1"
       id="path2-9"
       cx="31.949856"
       cy="31.969812"
       rx="23.129124"
       ry="23.129126" />
  </g>
  <path
     id="path17-4"
     style="fill:#000000;fill-opacity:1;stroke:none;stroke-width:0.45951;stroke-dasharray:none;stroke-dashoffset:2.2;stroke-opacity:0.6;opacity:0.2"
     d="m 31.470421,18.066417 c -0.212311,0.02848 -0.426008,0.207501 -0.574401,0.494471 -0.141844,0.274292 -0.165443,1.23516 -0.165443,6.827759 0,3.580447 -0.03671,6.510488 -0.08182,6.509883 -0.04509,-6.04e-4 -1.766309,-1.422385 -3.823761,-3.15828 -2.057453,-1.735893 -3.821787,-3.186632 -3.92229,-3.225199 -0.100507,-0.03855 -0.301614,0.0076 -0.446138,0.102235 -0.444936,0.291534 -0.597879,0.966872 -0.343897,1.5243 0.07069,0.15511 1.854308,1.737889 3.963186,3.517048 2.108871,1.779162 3.845268,3.291319 3.859084,3.359044 0.0138,0.06771 -1.672675,1.499667 -3.74941,3.182445 -2.076735,1.682778 -3.852773,3.143997 -3.946456,3.247512 -0.279653,0.308987 -0.301595,1.069196 -0.04276,1.481536 0.423325,0.674385 0.480325,0.641756 4.598932,-2.704703 2.071964,-1.683507 3.805376,-3.061611 3.851648,-3.061611 0.04629,0 0.08364,2.899476 0.08364,6.442961 0,4.211003 0.03872,6.548548 0.11339,6.749696 0.06283,0.169274 0.196596,0.369122 0.295564,0.444273 0.09897,0.07518 0.285301,0.137536 0.414536,0.137536 0.242596,0 9.57627,-7.052035 10.136605,-7.658685 0.402191,-0.435453 0.429187,-1.318578 0.05392,-1.756676 -0.134954,-0.157568 -2.041863,-1.653469 -4.236441,-3.323696 -2.194585,-1.670233 -4.028495,-3.069725 -4.076586,-3.11181 -0.04807,-0.0421 1.759693,-1.493212 4.018954,-3.223341 2.259253,-1.730133 4.205115,-3.269495 4.323814,-3.420386 0.247961,-0.315207 0.289587,-1.138904 0.0762,-1.520587 -0.138176,-0.247136 -9.822029,-7.702792 -10.17194,-7.831567 -0.06813,-0.02508 -0.13743,-0.03365 -0.208203,-0.0241 z m 0.962913,3.228919 c 0.112061,0 6.933714,5.259813 6.933714,5.346212 0,0.04623 -1.533901,1.261459 -3.409232,2.699126 -1.87533,1.437677 -3.449778,2.628901 -3.49846,2.648945 -0.04866,0.02005 -0.08922,-2.376464 -0.08922,-5.327623 0,-2.951157 0.0289,-5.36666 0.06321,-5.36666 z m 0.01862,14.75971 c 0.158245,0.003 6.859356,5.207842 6.859356,5.327621 0,0.06657 -1.543441,1.305534 -3.431535,2.753044 -1.888092,1.4475 -3.449685,2.63035 -3.470575,2.63035 -0.02089,0 -0.03904,-2.409364 -0.03904,-5.355507 0,-2.946149 0.03671,-5.356395 0.08182,-5.355508 z" />
  <path
     id="path17"
     style="fill:#4d4d4d;fill-opacity:1;stroke:none;stroke-width:0.45951;stroke-dasharray:none;stroke-dashoffset:2.2;stroke-opacity:0.6"
     d="m 31.470421,16.066417 c -0.212311,0.02848 -0.426008,0.207501 -0.574401,0.494471 -0.141844,0.274292 -0.165443,1.23516 -0.165443,6.827759 0,3.580447 -0.03671,6.510488 -0.08182,6.509883 -0.04509,-6.04e-4 -1.766309,-1.422385 -3.823761,-3.15828 -2.057453,-1.735893 -3.821787,-3.186632 -3.92229,-3.225199 -0.100507,-0.03855 -0.301614,0.0076 -0.446138,0.102235 -0.444936,0.291534 -0.597879,0.966872 -0.343897,1.5243 0.07069,0.15511 1.854308,1.737889 3.963186,3.517048 2.108871,1.779162 3.845268,3.291319 3.859084,3.359044 0.0138,0.06771 -1.672675,1.499667 -3.74941,3.182445 -2.076735,1.682778 -3.852773,3.143997 -3.946456,3.247512 -0.279653,0.308987 -0.301595,1.069196 -0.04276,1.481536 0.423325,0.674385 0.480325,0.641756 4.598932,-2.704703 2.071964,-1.683507 3.805376,-3.061611 3.851648,-3.061611 0.04629,0 0.08364,2.899476 0.08364,6.442961 0,4.211003 0.03872,6.548548 0.11339,6.749696 0.06283,0.169274 0.196596,0.369122 0.295564,0.444273 0.09897,0.07518 0.285301,0.137536 0.414536,0.137536 0.242596,0 9.57627,-7.052035 10.136605,-7.658685 0.402191,-0.435453 0.429187,-1.318578 0.05392,-1.756676 -0.134954,-0.157568 -2.041863,-1.653469 -4.236441,-3.323696 -2.194585,-1.670233 -4.028495,-3.069725 -4.076586,-3.11181 -0.04807,-0.0421 1.759693,-1.493212 4.018954,-3.223341 2.259253,-1.730133 4.205115,-3.269495 4.323814,-3.420386 0.247961,-0.315207 0.289587,-1.138904 0.0762,-1.520587 -0.138176,-0.247136 -9.822029,-7.702792 -10.17194,-7.831567 -0.06813,-0.02508 -0.13743,-0.03365 -0.208203,-0.0241 z m 0.962913,3.228919 c 0.112061,0 6.933714,5.259813 6.933714,5.346212 0,0.04623 -1.533901,1.261459 -3.409232,2.699126 -1.87533,1.437677 -3.449778,2.628901 -3.49846,2.648945 -0.04866,0.02005 -0.08922,-2.376464 -0.08922,-5.327623 0,-2.951157 0.0289,-5.36666 0.06321,-5.36666 z m 0.01862,14.75971 c 0.158245,0.003 6.859356,5.207842 6.859356,5.327621 0,0.06657 -1.543441,1.305534 -3.431535,2.753044 -1.888092,1.4475 -3.449685,2.63035 -3.470575,2.63035 -0.02089,0 -0.03904,-2.409364 -0.03904,-5.355507 0,-2.946149 0.03671,-5.356395 0.08182,-5.355508 z" />
</svg>
