<?xml version="1.0" encoding="UTF-8" standalone="no"?>
<svg
   width="64"
   height="64"
   version="1.1"
   id="svg73"
   sodipodi:docname="abcd.svg"
   inkscape:version="1.4.2 (ebf0e940d0, 2025-05-08)"
   xmlns:inkscape="http://www.inkscape.org/namespaces/inkscape"
   xmlns:sodipodi="http://sodipodi.sourceforge.net/DTD/sodipodi-0.dtd"
   xmlns:xlink="http://www.w3.org/1999/xlink"
   xmlns="http://www.w3.org/2000/svg"
   xmlns:svg="http://www.w3.org/2000/svg"
   xmlns:rdf="http://www.w3.org/1999/02/22-rdf-syntax-ns#"
   xmlns:cc="http://creativecommons.org/ns#"
   xmlns:dc="http://purl.org/dc/elements/1.1/">
  <metadata
     id="metadata77">
    <rdf:RDF>
      <cc:Work
         rdf:about="">
        <dc:format>image/svg+xml</dc:format>
        <dc:type
           rdf:resource="http://purl.org/dc/dcmitype/StillImage" />
      </cc:Work>
    </rdf:RDF>
  </metadata>
  <sodipodi:namedview
     pagecolor="#f5f7fa"
     bordercolor="#666666"
     borderopacity="1"
     objecttolerance="10"
     gridtolerance="10"
     guidetolerance="10"
     inkscape:pageopacity="0"
     inkscape:pageshadow="2"
     inkscape:window-width="1024"
     inkscape:window-height="621"
     id="namedview75"
     showgrid="false"
     inkscape:zoom="6.2890624"
     inkscape:cx="34.822361"
     inkscape:cy="29.734162"
     inkscape:window-x="24"
     inkscape:window-y="21"
     inkscape:window-maximized="0"
     inkscape:current-layer="svg73"
     inkscape:document-rotation="0"
     inkscape:pagecheckerboard="0"
     inkscape:showpageshadow="2"
     inkscape:deskcolor="#d1d1d1" />
  <defs
     id="defs29">
    <linearGradient
       id="linearGradient4"
       inkscape:collect="always">
      <stop
         style="stop-color:#ac5e5e;stop-opacity:1;"
         offset="0"
         id="stop4" />
      <stop
         style="stop-color:#c18181;stop-opacity:1;"
         offset="0.5"
         id="stop1" />
    </linearGradient>
    <linearGradient
       id="linearGradient2"
       inkscape:collect="always">
      <stop
         style="stop-color:#f4ecec;stop-opacity:1;"
         offset="0"
         id="stop2" />
      <stop
         style="stop-color:#e9d8d8;stop-opacity:1;"
         offset="1"
         id="stop3" />
    </linearGradient>
    <linearGradient
       inkscape:collect="always"
       xlink:href="#linearGradient2"
       id="linearGradient8"
       x1="31.721739"
       y1="5.2278585"
       x2="31.88887"
       y2="59.145416"
       gradientUnits="userSpaceOnUse"
       gradientTransform="matrix(0.8505,0,0,0.8505,4.7765033,4.7794869)" />
    <filter
       style="color-interpolation-filters:sRGB;"
       inkscape:label="Blur"
       id="filter9"
       x="-0.047762285"
       y="-0.047489063"
       width="1.0955246"
       height="1.0949781">
      <feGaussianBlur
         stdDeviation="1 1"
         result="blur"
         id="feGaussianBlur9" />
    </filter>
    <linearGradient
       inkscape:collect="always"
       xlink:href="#linearGradient4"
       id="linearGradient7"
       x1="26.723248"
       y1="58.711765"
       x2="25.756926"
       y2="5.950614"
       gradientUnits="userSpaceOnUse" />
    <filter
       style="color-interpolation-filters:sRGB;"
       inkscape:label="Out of Focus"
       id="filter40"
       x="-0.24226652"
       y="-0.2858297"
       width="1.484533"
       height="1.5716594">
      <feFlood
         flood-opacity="1"
         flood-color="rgb(255,255,255)"
         result="flood"
         id="feFlood38" />
      <feColorMatrix
         in="SourceGraphic"
         values="1 0 0 0 0 0 1 0 0 0 0 0 1 0 0 -0.2125 -0.7154 -0.0721 1 0 "
         result="colormatrix1"
         id="feColorMatrix38" />
      <feGaussianBlur
         in="colormatrix1"
         stdDeviation="3 3"
         result="blur"
         id="feGaussianBlur38" />
      <feColorMatrix
         in="blur"
         values="1 0 0 0 0 0 1 0 0 0 0 0 1 0 0 0 0 0 6 -2 "
         result="colormatrix2"
         id="feColorMatrix39" />
      <feBlend
         in="colormatrix2"
         in2="flood"
         mode="normal"
         result="blend"
         id="feBlend39" />
      <feComposite
         in="blend"
         in2="blend"
         operator="arithmetic"
         k2="0.2"
         result="composite1"
         id="feComposite39" />
      <feComposite
         in2="SourceGraphic"
         operator="in"
         id="feComposite40" />
    </filter>
    <clipPath
       id="clip0_2648_607">
      <rect
         width="16"
         height="16"
         fill="#ffffff"
         id="rect1-3"
         x="0"
         y="0" />
    </clipPath>
    <clipPath
       id="clip0_2648_607-9">
      <rect
         width="16"
         height="16"
         fill="#ffffff"
         id="rect1-3-5"
         x="0"
         y="0" />
    </clipPath>
  </defs>
  <g
     id="g877"
     transform="matrix(1.1,0,0,1.1,-3.1845928,-3.2065454)">
    <ellipse
       style="opacity:0.5;fill:#000000;stroke:none;stroke-width:3.89319;stroke-dasharray:none;stroke-opacity:1;filter:url(#filter9)"
       id="path2-5"
       cx="31.949858"
       cy="31.969812"
       rx="25.124426"
       ry="25.268976"
       transform="matrix(1.05,0,0,1.05,-1.5974929,-1.5984906)" />
    <path
       style="fill:#f5f7fa;stroke-width:0.204426;fill-opacity:1"
       d=""
       id="path3" />
    <circle
       style="opacity:1;fill:url(#linearGradient8);stroke:url(#linearGradient7);stroke-width:3.81818;stroke-dasharray:none;stroke-opacity:1"
       id="path2"
       cx="31.949856"
       cy="31.969812"
       r="24.711082" />
    <ellipse
       style="opacity:0.3;fill:none;stroke:#000000;stroke-width:0.974376;stroke-dasharray:none;stroke-opacity:1"
       id="path2-9"
       cx="31.949856"
       cy="31.969812"
       rx="23.129124"
       ry="23.129126" />
  </g>
  <path
     id="path13-1"
     style="fill:#000000;fill-opacity:1;stroke:none;stroke-width:0.51975;stroke-dasharray:none;stroke-opacity:0.6;opacity:0.2"
     d="m 19.254662,19.02791 -0.0015,0.816153 -0.0014,0.817621 -0.186087,0.128945 c -0.102509,0.07087 -0.235137,0.204312 -0.294529,0.295984 l -0.108372,0.16704 h -0.817718 -0.816154 v 0.735561 0.734099 h 0.734099 0.734099 v 0.780994 0.78245 h -0.627135 c -0.921752,9.92e-4 -0.841063,-0.06934 -0.841063,0.739964 v 0.68135 h 0.734099 0.734099 v 0.782453 0.780987 l -0.627135,0.0014 c -0.923461,9.9e-4 -0.841063,-0.07489 -0.841063,0.761939 v 0.706259 h 0.734099 0.734099 v 0.75751 0.757546 h -0.734099 -0.734099 v 0.735562 0.7341 h 0.734099 0.734099 v 0.78102 0.782453 h -0.734099 -0.734099 v 0.710655 0.710655 h 0.734099 0.734099 v 0.782454 0.780987 h -0.734099 -0.734099 v 0.734102 0.735561 h 0.734099 0.734099 v 0.757539 0.757546 h -0.734099 -0.734099 v 0.735565 0.7341 h 0.734099 0.734099 v 0.780985 0.782459 h -0.704793 -0.704795 l -0.02925,0.147975 c -0.01625,0.08143 -0.02926,0.401184 -0.02926,0.710653 v 0.562663 h 0.734091 0.734099 v 0.782455 0.78099 h -0.734196 -0.734098 v 0.734099 0.735569 l 0.816152,0.0015 0.817623,0.0014 0.128942,0.186086 c 0.07087,0.102509 0.204313,0.235092 0.295986,0.294525 l 0.167035,0.108438 v 0.817625 0.816153 h 0.735567 0.734099 v -0.734228 -0.734104 h 0.780989 0.782453 v 0.734104 0.734096 H 22.9984 23.709055 V 48.2379 47.503796 h 0.782453 0.780992 v 0.734104 0.734093 h 0.734098 0.735565 v -0.734082 -0.734103 h 0.757543 0.757545 v 0.734103 0.734093 h 0.735562 0.7341 v -0.734093 -0.734103 h 0.78099 0.782452 v 0.734103 0.734093 h 0.710655 0.710655 v -0.734093 -0.734103 h 0.782452 0.780991 v 0.734103 0.734093 h 0.7341 0.735563 v -0.734089 -0.7341 h 0.757546 0.757542 v 0.7341 0.734104 h 0.735565 0.734096 v -0.734104 -0.7341 h 0.78099 0.782453 v 0.7341 0.734104 h 0.71066 0.71065 v -0.734104 -0.7341 h 0.782455 0.780986 v 0.7341 0.734104 h 0.734103 0.735566 v -0.816161 -0.817617 l 0.167083,-0.108438 c 0.09168,-0.0594 0.225126,-0.192015 0.295954,-0.294524 l 0.128904,-0.186086 0.817618,-0.0014 0.816156,-0.0015 V 46.010754 45.276649 H 46.23894 45.504841 v -0.780962 -0.782459 h 0.734099 0.734089 v -0.710637 -0.710652 h -0.734082 -0.734101 v -0.782395 -0.780985 h 0.734101 0.734088 v -0.734122 -0.735563 h -0.734068 -0.7341 v -0.757548 -0.757537 h 0.7341 0.734093 v -0.735561 -0.734102 h -0.734093 -0.7341 v -0.780989 -0.782452 h 0.7341 0.734093 v -0.710656 -0.710654 h -0.734093 -0.7341 v -0.782453 -0.780988 h 0.7341 0.734093 v -0.734101 -0.735564 h -0.734093 -0.7341 V 29.498724 28.74118 h 0.7341 0.734093 v -0.735565 -0.7341 h -0.734093 -0.7341 v -0.780988 -0.782452 h 0.7341 0.734093 v -0.710656 -0.710654 h -0.734093 -0.7341 v -0.782454 -0.78099 h 0.7341 0.734093 V 21.989218 21.253653 H 46.156909 45.339286 L 45.230848,21.08661 c -0.05936,-0.09166 -0.192015,-0.225101 -0.294524,-0.295986 l -0.186087,-0.128945 -0.0015,-0.81762 -0.0015,-0.816155 h -0.735343 -0.734099 v 0.734102 0.734101 h -0.780906 -0.782457 v -0.734097 -0.7341 h -0.710653 -0.710651 v 0.7341 0.734099 h -0.782514 -0.780985 v -0.734099 -0.7341 h -0.734101 -0.735564 v 0.7341 0.734099 H 36.502338 35.744796 V 19.76201 19.02791 H 35.00923 34.275132 v 0.7341 0.734099 h -0.780989 -0.782455 v -0.734099 -0.7341 h -0.710653 -0.710657 v 0.7341 0.734099 h -0.782451 -0.78099 v -0.734099 -0.7341 h -0.734101 -0.735562 v 0.7341 0.734099 h -0.757545 -0.757544 v -0.734099 -0.7341 h -0.735565 -0.7341 v 0.7341 0.734099 h -0.780988 -0.782453 v -0.734099 -0.7341 h -0.710655 -0.710655 v 0.7341 0.734099 h -0.782456 -0.780986 v -0.734099 -0.7341 h -0.734101 z m 12.746373,4.452952 c 0.469014,0 0.938627,0.106359 1.368561,0.317966 0.480243,0.236359 1.052615,0.798111 1.295296,1.270387 0.364751,0.70983 0.340199,0.384595 0.367784,4.910114 l 0.0249,4.058796 0.400018,0.287195 c 1.629545,1.16472 2.562065,2.963405 2.56131,4.94381 -0.0013,2.99772 -2.27527,5.573111 -5.260307,5.959247 -2.82393,0.36529 -5.553339,-1.355791 -6.461851,-4.073452 -0.388278,-1.16145 -0.414592,-2.367894 -0.07619,-3.601625 0.136924,-0.499207 0.606272,-1.433693 0.943632,-1.881403 0.353815,-0.469549 1.024467,-1.11264 1.466734,-1.406656 l 0.334081,-0.222722 0.01464,-4.060262 c 0.01624,-4.532337 -0.0085,-4.200757 0.357553,-4.913045 0.242684,-0.472277 0.815053,-1.034027 1.295296,-1.270386 0.429938,-0.211598 0.89955,-0.317965 1.368565,-0.317961 z m 0,1.563442 c -0.311549,0 -0.405329,0.02176 -0.654976,0.146519 -0.337742,0.168775 -0.587672,0.445522 -0.722377,0.80004 -0.0876,0.230665 -0.09084,0.410955 -0.09084,4.634644 v 4.395808 l -0.320892,0.136268 c -1.022675,0.435675 -1.918457,1.350789 -2.345893,2.395717 -1.057614,2.585501 0.466397,5.472559 3.211868,6.083796 0.489691,0.109054 1.630356,0.0751 2.104126,-0.06302 2.11761,-0.617276 3.471046,-2.578942 3.269017,-4.738679 -0.147852,-1.580531 -1.11333,-2.951803 -2.542243,-3.613345 l -0.438122,-0.203666 v -4.394343 c -7.28e-4,-4.221399 -0.0045,-4.402569 -0.09231,-4.633178 C 33.243688,25.63635 32.993758,25.3596 32.656016,25.190827 32.406367,25.06608 32.312582,25.044301 32.00104,25.044301 Z" />
  <path
     id="path13"
     style="fill:#4d4d4d;fill-opacity:1;stroke:none;stroke-width:0.51975;stroke-dasharray:none;stroke-opacity:0.6"
     d="m 19.254662,17.02791 -0.0015,0.816153 -0.0014,0.817621 -0.186087,0.128945 c -0.102509,0.07087 -0.235137,0.204312 -0.294529,0.295984 l -0.108372,0.16704 h -0.817718 -0.816154 v 0.735561 0.734099 h 0.734099 0.734099 v 0.780994 0.78245 h -0.627135 c -0.921752,9.92e-4 -0.841063,-0.06934 -0.841063,0.739964 v 0.68135 h 0.734099 0.734099 v 0.782453 0.780987 l -0.627135,0.0014 c -0.923461,9.9e-4 -0.841063,-0.07489 -0.841063,0.761939 v 0.706259 h 0.734099 0.734099 v 0.75751 0.757546 h -0.734099 -0.734099 v 0.735562 0.7341 h 0.734099 0.734099 v 0.78102 0.782453 h -0.734099 -0.734099 v 0.710655 0.710655 h 0.734099 0.734099 v 0.782454 0.780987 h -0.734099 -0.734099 v 0.734102 0.735561 h 0.734099 0.734099 v 0.757539 0.757546 h -0.734099 -0.734099 v 0.735565 0.7341 h 0.734099 0.734099 v 0.780985 0.782459 h -0.704793 -0.704795 l -0.02925,0.147975 c -0.01625,0.08143 -0.02926,0.401184 -0.02926,0.710653 v 0.562663 h 0.734091 0.734099 v 0.782455 0.78099 h -0.734196 -0.734098 v 0.734099 0.735569 l 0.816152,0.0015 0.817623,0.0014 0.128942,0.186086 c 0.07087,0.102509 0.204313,0.235092 0.295986,0.294525 l 0.167035,0.108438 v 0.817625 0.816153 h 0.735567 0.734099 v -0.734228 -0.734104 h 0.780989 0.782453 v 0.734104 0.734096 H 22.9984 23.709055 V 46.2379 45.503796 h 0.782453 0.780992 v 0.734104 0.734093 h 0.734098 0.735565 v -0.734082 -0.734103 h 0.757543 0.757545 v 0.734103 0.734093 h 0.735562 0.7341 v -0.734093 -0.734103 h 0.78099 0.782452 v 0.734103 0.734093 h 0.710655 0.710655 v -0.734093 -0.734103 h 0.782452 0.780991 v 0.734103 0.734093 h 0.7341 0.735563 v -0.734089 -0.7341 h 0.757546 0.757542 v 0.7341 0.734104 h 0.735565 0.734096 v -0.734104 -0.7341 h 0.78099 0.782453 v 0.7341 0.734104 h 0.71066 0.71065 v -0.734104 -0.7341 h 0.782455 0.780986 v 0.7341 0.734104 h 0.734103 0.735566 v -0.816161 -0.817617 l 0.167083,-0.108438 c 0.09168,-0.0594 0.225126,-0.192015 0.295954,-0.294524 l 0.128904,-0.186086 0.817618,-0.0014 0.816156,-0.0015 V 44.010754 43.276649 H 46.23894 45.504841 v -0.780962 -0.782459 h 0.734099 0.734089 v -0.710637 -0.710652 h -0.734082 -0.734101 v -0.782395 -0.780985 h 0.734101 0.734088 v -0.734122 -0.735563 h -0.734068 -0.7341 v -0.757548 -0.757537 h 0.7341 0.734093 v -0.735561 -0.734102 h -0.734093 -0.7341 v -0.780989 -0.782452 h 0.7341 0.734093 v -0.710656 -0.710654 h -0.734093 -0.7341 v -0.782453 -0.780988 h 0.7341 0.734093 v -0.734101 -0.735564 h -0.734093 -0.7341 V 27.498724 26.74118 h 0.7341 0.734093 v -0.735565 -0.7341 h -0.734093 -0.7341 v -0.780988 -0.782452 h 0.7341 0.734093 v -0.710656 -0.710654 h -0.734093 -0.7341 v -0.782454 -0.78099 h 0.7341 0.734093 V 19.989218 19.253653 H 46.156909 45.339286 L 45.230848,19.08661 c -0.05936,-0.09166 -0.192015,-0.225101 -0.294524,-0.295986 l -0.186087,-0.128945 -0.0015,-0.81762 -0.0015,-0.816155 h -0.735343 -0.734099 v 0.734102 0.734101 h -0.780906 -0.782457 v -0.734097 -0.7341 h -0.710653 -0.710651 v 0.7341 0.734099 h -0.782514 -0.780985 v -0.734099 -0.7341 h -0.734101 -0.735564 v 0.7341 0.734099 H 36.502338 35.744796 V 17.76201 17.02791 H 35.00923 34.275132 v 0.7341 0.734099 h -0.780989 -0.782455 v -0.734099 -0.7341 h -0.710653 -0.710657 v 0.7341 0.734099 h -0.782451 -0.78099 v -0.734099 -0.7341 h -0.734101 -0.735562 v 0.7341 0.734099 h -0.757545 -0.757544 v -0.734099 -0.7341 h -0.735565 -0.7341 v 0.7341 0.734099 h -0.780988 -0.782453 v -0.734099 -0.7341 h -0.710655 -0.710655 v 0.7341 0.734099 h -0.782456 -0.780986 v -0.734099 -0.7341 h -0.734101 z m 12.746373,4.452952 c 0.469014,0 0.938627,0.106359 1.368561,0.317966 0.480243,0.236359 1.052615,0.798111 1.295296,1.270387 0.364751,0.70983 0.340199,0.384595 0.367784,4.910114 l 0.0249,4.058796 0.400018,0.287195 c 1.629545,1.16472 2.562065,2.963405 2.56131,4.94381 -0.0013,2.99772 -2.27527,5.573111 -5.260307,5.959247 -2.82393,0.36529 -5.553339,-1.355791 -6.461851,-4.073452 -0.388278,-1.16145 -0.414592,-2.367894 -0.07619,-3.601625 0.136924,-0.499207 0.606272,-1.433693 0.943632,-1.881403 0.353815,-0.469549 1.024467,-1.11264 1.466734,-1.406656 l 0.334081,-0.222722 0.01464,-4.060262 c 0.01624,-4.532337 -0.0085,-4.200757 0.357553,-4.913045 0.242684,-0.472277 0.815053,-1.034027 1.295296,-1.270386 0.429938,-0.211598 0.89955,-0.317965 1.368565,-0.317961 z m 0,1.563442 c -0.311549,0 -0.405329,0.02176 -0.654976,0.146519 -0.337742,0.168775 -0.587672,0.445522 -0.722377,0.80004 -0.0876,0.230665 -0.09084,0.410955 -0.09084,4.634644 v 4.395808 l -0.320892,0.136268 c -1.022675,0.435675 -1.918457,1.350789 -2.345893,2.395717 -1.057614,2.585501 0.466397,5.472559 3.211868,6.083796 0.489691,0.109054 1.630356,0.0751 2.104126,-0.06302 2.11761,-0.617276 3.471046,-2.578942 3.269017,-4.738679 -0.147852,-1.580531 -1.11333,-2.951803 -2.542243,-3.613345 l -0.438122,-0.203666 v -4.394343 c -7.28e-4,-4.221399 -0.0045,-4.402569 -0.09231,-4.633178 C 33.243688,23.63635 32.993758,23.3596 32.656016,23.190827 32.406367,23.06608 32.312582,23.044301 32.00104,23.044301 Z" />
</svg>
