<?xml version="1.0" encoding="UTF-8" standalone="no"?>
<svg
   width="64"
   height="64"
   version="1.1"
   id="svg73"
   sodipodi:docname="abcd.svg"
   inkscape:version="1.4.2 (ebf0e940d0, 2025-05-08)"
   xmlns:inkscape="http://www.inkscape.org/namespaces/inkscape"
   xmlns:sodipodi="http://sodipodi.sourceforge.net/DTD/sodipodi-0.dtd"
   xmlns:xlink="http://www.w3.org/1999/xlink"
   xmlns="http://www.w3.org/2000/svg"
   xmlns:svg="http://www.w3.org/2000/svg"
   xmlns:rdf="http://www.w3.org/1999/02/22-rdf-syntax-ns#"
   xmlns:cc="http://creativecommons.org/ns#"
   xmlns:dc="http://purl.org/dc/elements/1.1/">
  <metadata
     id="metadata77">
    <rdf:RDF>
      <cc:Work
         rdf:about="">
        <dc:format>image/svg+xml</dc:format>
        <dc:type
           rdf:resource="http://purl.org/dc/dcmitype/StillImage" />
      </cc:Work>
    </rdf:RDF>
  </metadata>
  <sodipodi:namedview
     pagecolor="#f5f7fa"
     bordercolor="#666666"
     borderopacity="1"
     objecttolerance="10"
     gridtolerance="10"
     guidetolerance="10"
     inkscape:pageopacity="0"
     inkscape:pageshadow="2"
     inkscape:window-width="1462"
     inkscape:window-height="840"
     id="namedview75"
     showgrid="false"
     inkscape:zoom="6.2890624"
     inkscape:cx="53.585094"
     inkscape:cy="29.654659"
     inkscape:window-x="24"
     inkscape:window-y="21"
     inkscape:window-maximized="0"
     inkscape:current-layer="svg73"
     inkscape:document-rotation="0"
     inkscape:pagecheckerboard="0"
     inkscape:showpageshadow="2"
     inkscape:deskcolor="#d1d1d1" />
  <defs
     id="defs29">
    <linearGradient
       id="linearGradient4"
       inkscape:collect="always">
      <stop
         style="stop-color:#ac5e5e;stop-opacity:1;"
         offset="0"
         id="stop4" />
      <stop
         style="stop-color:#c18181;stop-opacity:1;"
         offset="0.5"
         id="stop1" />
    </linearGradient>
    <linearGradient
       id="linearGradient2"
       inkscape:collect="always">
      <stop
         style="stop-color:#f4ecec;stop-opacity:1;"
         offset="0"
         id="stop2" />
      <stop
         style="stop-color:#e9d8d8;stop-opacity:1;"
         offset="1"
         id="stop3" />
    </linearGradient>
    <linearGradient
       inkscape:collect="always"
       xlink:href="#linearGradient2"
       id="linearGradient8"
       x1="31.721739"
       y1="5.2278585"
       x2="31.88887"
       y2="59.145416"
       gradientUnits="userSpaceOnUse"
       gradientTransform="matrix(0.8505,0,0,0.8505,4.7765033,4.7794869)" />
    <filter
       style="color-interpolation-filters:sRGB;"
       inkscape:label="Blur"
       id="filter9"
       x="-0.047762285"
       y="-0.047489063"
       width="1.0955246"
       height="1.0949781">
      <feGaussianBlur
         stdDeviation="1 1"
         result="blur"
         id="feGaussianBlur9" />
    </filter>
    <linearGradient
       inkscape:collect="always"
       xlink:href="#linearGradient4"
       id="linearGradient7"
       x1="26.723248"
       y1="58.711765"
       x2="25.756926"
       y2="5.950614"
       gradientUnits="userSpaceOnUse" />
    <filter
       style="color-interpolation-filters:sRGB;"
       inkscape:label="Out of Focus"
       id="filter40"
       x="-0.24226652"
       y="-0.2858297"
       width="1.484533"
       height="1.5716594">
      <feFlood
         flood-opacity="1"
         flood-color="rgb(255,255,255)"
         result="flood"
         id="feFlood38" />
      <feColorMatrix
         in="SourceGraphic"
         values="1 0 0 0 0 0 1 0 0 0 0 0 1 0 0 -0.2125 -0.7154 -0.0721 1 0 "
         result="colormatrix1"
         id="feColorMatrix38" />
      <feGaussianBlur
         in="colormatrix1"
         stdDeviation="3 3"
         result="blur"
         id="feGaussianBlur38" />
      <feColorMatrix
         in="blur"
         values="1 0 0 0 0 0 1 0 0 0 0 0 1 0 0 0 0 0 6 -2 "
         result="colormatrix2"
         id="feColorMatrix39" />
      <feBlend
         in="colormatrix2"
         in2="flood"
         mode="normal"
         result="blend"
         id="feBlend39" />
      <feComposite
         in="blend"
         in2="blend"
         operator="arithmetic"
         k2="0.2"
         result="composite1"
         id="feComposite39" />
      <feComposite
         in2="SourceGraphic"
         operator="in"
         id="feComposite40" />
    </filter>
  </defs>
  <g
     id="g877"
     transform="matrix(1.1,0,0,1.1,-3.1845928,-3.2065454)">
    <ellipse
       style="opacity:0.5;fill:#000000;stroke:none;stroke-width:3.89319;stroke-dasharray:none;stroke-opacity:1;filter:url(#filter9)"
       id="path2-5"
       cx="31.949858"
       cy="31.969812"
       rx="25.124426"
       ry="25.268976"
       transform="matrix(1.05,0,0,1.05,-1.5974929,-1.5984906)" />
    <path
       style="fill:#f5f7fa;stroke-width:0.204426;fill-opacity:1"
       d=""
       id="path3" />
    <circle
       style="opacity:1;fill:url(#linearGradient8);stroke:url(#linearGradient7);stroke-width:3.81818;stroke-dasharray:none;stroke-opacity:1"
       id="path2"
       cx="31.949856"
       cy="31.969812"
       r="24.711082" />
    <ellipse
       style="opacity:0.3;fill:none;stroke:#000000;stroke-width:0.974376;stroke-dasharray:none;stroke-opacity:1"
       id="path2-9"
       cx="31.949856"
       cy="31.969812"
       rx="23.129124"
       ry="23.129126" />
  </g>
  <path
     d="m 27.64359,22.306003 c -2.172351,0.378163 -4.251191,1.038908 -6.191304,1.937033 -0.01639,0.0084 -0.02873,0.01847 -0.03906,0.03491 -3.941881,5.94365 -5.02292,11.742408 -4.492676,17.46821 0.0021,0.02885 0.01639,0.05443 0.03803,0.07091 2.60189,1.927788 5.120541,3.099254 7.593979,3.875096 0.03906,0.01124 0.08221,-0.0021 0.106876,-0.03493 0.585732,-0.805642 1.106725,-1.30609 1.553732,-2.200097 0.02677,-0.05243 9.9e-4,-0.114069 -0.05241,-0.134603 -0.827217,-0.316509 -1.613334,-0.700823 -2.371705,-1.139607 -0.05961,-0.03492 -0.06578,-0.123304 -0.0113,-0.164434 0.159278,-0.120203 0.320615,-0.2456 0.472696,-0.371983 0.02771,-0.02339 0.06678,-0.02885 0.09864,-0.01459 4.976677,2.293608 10.364396,2.293608 15.282499,0 0.03275,-0.01549 0.06984,-0.01124 0.09867,0.01124 0.152101,0.127403 0.312366,0.254866 0.472707,0.375063 0.05553,0.04113 0.05036,0.129531 -0.0094,0.164435 -0.75735,0.447005 -1.545516,0.824135 -2.373766,1.139609 -0.05341,0.02066 -0.07609,0.08224 -0.05036,0.134603 0.457287,0.892983 0.977255,1.391368 1.551685,2.198037 0.0234,0.03381 0.06784,0.04829 0.106898,0.03682 2.484744,-0.775838 5.004425,-1.94731 7.605279,-3.875095 0.02248,-0.0158 0.03923,-0.04213 0.04113,-0.07091 0.63396,-6.619815 -1.063648,-12.368221 -4.497888,-17.466156 -0.0079,-0.01747 -0.02248,-0.02976 -0.03923,-0.03698 -1.937819,-0.897063 -4.015616,-1.557811 -6.187978,-1.936994 -0.04006,-0.0073 -0.08015,0.0091 -0.100683,0.04623 -0.267028,0.479924 -0.562973,0.871442 -0.769519,1.363664 -2.337794,-0.353496 -4.664287,-0.353496 -6.953784,0 -0.207527,-0.503348 -0.512724,-0.883561 -0.781953,-1.363453 -0.01957,-0.03595 -0.06064,-0.0524 -0.09968,-0.04623 z m -0.90943,10.524704 c 1.641081,0 2.952303,1.32355 2.92661,2.923526 0,1.612307 -1.297861,2.924556 -2.92661,2.924556 -1.603058,0 -2.921469,-1.312249 -2.921469,-2.924556 0,-1.611279 1.292722,-2.923526 2.921469,-2.923526 z m 10.528817,0 c 1.641076,0 2.949214,1.32355 2.923525,2.923526 0,1.612307 -1.282449,2.924556 -2.923525,2.924556 -1.603062,0 -2.924559,-1.312249 -2.924559,-2.924556 0,-1.611279 1.295805,-2.923526 2.924559,-2.923526 z"
     fill="#ffffff"
     fill-rule="nonzero"
     id="path2-3-3"
     style="fill:#000000;fill-opacity:1;stroke:none;stroke-width:0.529529;stroke-dasharray:none;stroke-opacity:0.6;opacity:0.2" />
  <path
     d="m 27.64359,20.306003 c -2.172351,0.378163 -4.251191,1.038908 -6.191304,1.937033 -0.01639,0.0084 -0.02873,0.01847 -0.03906,0.03491 -3.941881,5.94365 -5.02292,11.742408 -4.492676,17.46821 0.0021,0.02885 0.01639,0.05443 0.03803,0.07091 2.60189,1.927788 5.120541,3.099254 7.593979,3.875096 0.03906,0.01124 0.08221,-0.0021 0.106876,-0.03493 0.585732,-0.805642 1.106725,-1.30609 1.553732,-2.200097 0.02677,-0.05243 9.9e-4,-0.114069 -0.05241,-0.134603 -0.827217,-0.316509 -1.613334,-0.700823 -2.371705,-1.139607 -0.05961,-0.03492 -0.06578,-0.123304 -0.0113,-0.164434 0.159278,-0.120203 0.320615,-0.2456 0.472696,-0.371983 0.02771,-0.02339 0.06678,-0.02885 0.09864,-0.01459 4.976677,2.293608 10.364396,2.293608 15.282499,0 0.03275,-0.01549 0.06984,-0.01124 0.09867,0.01124 0.152101,0.127403 0.312366,0.254866 0.472707,0.375063 0.05553,0.04113 0.05036,0.129531 -0.0094,0.164435 -0.75735,0.447005 -1.545516,0.824135 -2.373766,1.139609 -0.05341,0.02066 -0.07609,0.08224 -0.05036,0.134603 0.457287,0.892983 0.977255,1.391368 1.551685,2.198037 0.0234,0.03381 0.06784,0.04829 0.106898,0.03682 2.484744,-0.775838 5.004425,-1.94731 7.605279,-3.875095 0.02248,-0.0158 0.03923,-0.04213 0.04113,-0.07091 0.63396,-6.619815 -1.063648,-12.368221 -4.497888,-17.466156 -0.0079,-0.01747 -0.02248,-0.02976 -0.03923,-0.03698 -1.937819,-0.897063 -4.015616,-1.557811 -6.187978,-1.936994 -0.04006,-0.0073 -0.08015,0.0091 -0.100683,0.04623 -0.267028,0.479924 -0.562973,0.871442 -0.769519,1.363664 -2.337794,-0.353496 -4.664287,-0.353496 -6.953784,0 -0.207527,-0.503348 -0.512724,-0.883561 -0.781953,-1.363453 -0.01957,-0.03595 -0.06064,-0.0524 -0.09968,-0.04623 z m -0.90943,10.524704 c 1.641081,0 2.952303,1.32355 2.92661,2.923526 0,1.612307 -1.297861,2.924556 -2.92661,2.924556 -1.603058,0 -2.921469,-1.312249 -2.921469,-2.924556 0,-1.611279 1.292722,-2.923526 2.921469,-2.923526 z m 10.528817,0 c 1.641076,0 2.949214,1.32355 2.923525,2.923526 0,1.612307 -1.282449,2.924556 -2.923525,2.924556 -1.603062,0 -2.924559,-1.312249 -2.924559,-2.924556 0,-1.611279 1.295805,-2.923526 2.924559,-2.923526 z"
     fill="#ffffff"
     fill-rule="nonzero"
     id="path2-3"
     style="fill:#4d4d4d;fill-opacity:1;stroke:none;stroke-width:0.529529;stroke-dasharray:none;stroke-opacity:0.6" />
</svg>
