<?xml version="1.0" encoding="UTF-8" standalone="no"?>
<svg
   width="64"
   height="64"
   version="1.1"
   id="svg73"
   sodipodi:docname="steam_icon_2694490.svg"
   inkscape:version="1.4.2 (ebf0e940d0, 2025-05-08)"
   xmlns:inkscape="http://www.inkscape.org/namespaces/inkscape"
   xmlns:sodipodi="http://sodipodi.sourceforge.net/DTD/sodipodi-0.dtd"
   xmlns:xlink="http://www.w3.org/1999/xlink"
   xmlns="http://www.w3.org/2000/svg"
   xmlns:svg="http://www.w3.org/2000/svg"
   xmlns:rdf="http://www.w3.org/1999/02/22-rdf-syntax-ns#"
   xmlns:cc="http://creativecommons.org/ns#"
   xmlns:dc="http://purl.org/dc/elements/1.1/">
  <metadata
     id="metadata77">
    <rdf:RDF>
      <cc:Work
         rdf:about="">
        <dc:format>image/svg+xml</dc:format>
        <dc:type
           rdf:resource="http://purl.org/dc/dcmitype/StillImage" />
      </cc:Work>
    </rdf:RDF>
  </metadata>
  <sodipodi:namedview
     pagecolor="#f5f7fa"
     bordercolor="#666666"
     borderopacity="1"
     objecttolerance="10"
     gridtolerance="10"
     guidetolerance="10"
     inkscape:pageopacity="0"
     inkscape:pageshadow="2"
     inkscape:window-width="1920"
     inkscape:window-height="931"
     id="namedview75"
     showgrid="false"
     inkscape:zoom="6.2890624"
     inkscape:cx="30.688199"
     inkscape:cy="29.575156"
     inkscape:window-x="0"
     inkscape:window-y="0"
     inkscape:window-maximized="1"
     inkscape:current-layer="svg73"
     inkscape:document-rotation="0"
     inkscape:pagecheckerboard="0"
     inkscape:showpageshadow="2"
     inkscape:deskcolor="#d1d1d1" />
  <defs
     id="defs29">
    <linearGradient
       id="linearGradient4"
       inkscape:collect="always">
      <stop
         style="stop-color:#ac5e5e;stop-opacity:1;"
         offset="0"
         id="stop4" />
      <stop
         style="stop-color:#c18181;stop-opacity:1;"
         offset="0.5"
         id="stop1" />
    </linearGradient>
    <linearGradient
       id="linearGradient2"
       inkscape:collect="always">
      <stop
         style="stop-color:#f4ecec;stop-opacity:1;"
         offset="0"
         id="stop2" />
      <stop
         style="stop-color:#e9d8d8;stop-opacity:1;"
         offset="1"
         id="stop3" />
    </linearGradient>
    <linearGradient
       inkscape:collect="always"
       xlink:href="#linearGradient2"
       id="linearGradient8"
       x1="31.721739"
       y1="5.2278585"
       x2="31.88887"
       y2="59.145416"
       gradientUnits="userSpaceOnUse"
       gradientTransform="matrix(0.8505,0,0,0.8505,4.7765033,4.7794869)" />
    <filter
       style="color-interpolation-filters:sRGB;"
       inkscape:label="Blur"
       id="filter9"
       x="-0.047762285"
       y="-0.047489063"
       width="1.0955246"
       height="1.0949781">
      <feGaussianBlur
         stdDeviation="1 1"
         result="blur"
         id="feGaussianBlur9" />
    </filter>
    <linearGradient
       inkscape:collect="always"
       xlink:href="#linearGradient4"
       id="linearGradient7"
       x1="26.723248"
       y1="58.711765"
       x2="25.756926"
       y2="5.950614"
       gradientUnits="userSpaceOnUse" />
    <filter
       style="color-interpolation-filters:sRGB;"
       inkscape:label="Out of Focus"
       id="filter40"
       x="-0.24226652"
       y="-0.2858297"
       width="1.484533"
       height="1.5716594">
      <feFlood
         flood-opacity="1"
         flood-color="rgb(255,255,255)"
         result="flood"
         id="feFlood38" />
      <feColorMatrix
         in="SourceGraphic"
         values="1 0 0 0 0 0 1 0 0 0 0 0 1 0 0 -0.2125 -0.7154 -0.0721 1 0 "
         result="colormatrix1"
         id="feColorMatrix38" />
      <feGaussianBlur
         in="colormatrix1"
         stdDeviation="3 3"
         result="blur"
         id="feGaussianBlur38" />
      <feColorMatrix
         in="blur"
         values="1 0 0 0 0 0 1 0 0 0 0 0 1 0 0 0 0 0 6 -2 "
         result="colormatrix2"
         id="feColorMatrix39" />
      <feBlend
         in="colormatrix2"
         in2="flood"
         mode="normal"
         result="blend"
         id="feBlend39" />
      <feComposite
         in="blend"
         in2="blend"
         operator="arithmetic"
         k2="0.2"
         result="composite1"
         id="feComposite39" />
      <feComposite
         in2="SourceGraphic"
         operator="in"
         id="feComposite40" />
    </filter>
    <filter
       style="color-interpolation-filters:sRGB"
       inkscape:label="Blur"
       id="filter9-0"
       x="-0.047762285"
       y="-0.047489063"
       width="1.0955246"
       height="1.0949781">
      <feGaussianBlur
         stdDeviation="1 1"
         result="blur"
         id="feGaussianBlur9-6" />
    </filter>
    <linearGradient
       inkscape:collect="always"
       xlink:href="#linearGradient2"
       id="linearGradient1"
       gradientUnits="userSpaceOnUse"
       gradientTransform="matrix(0.8505,0,0,0.8505,4.7765033,4.7794869)"
       x1="31.721739"
       y1="5.2278585"
       x2="31.88887"
       y2="59.145416" />
    <linearGradient
       inkscape:collect="always"
       xlink:href="#linearGradient4"
       id="linearGradient3"
       gradientUnits="userSpaceOnUse"
       x1="26.723248"
       y1="58.711765"
       x2="25.756926"
       y2="5.950614" />
  </defs>
  <g
     id="g877"
     transform="matrix(1.1,0,0,1.1,-3.1845928,-3.2065454)">
    <ellipse
       style="opacity:0.5;fill:#000000;stroke:none;stroke-width:3.89319;stroke-dasharray:none;stroke-opacity:1;filter:url(#filter9)"
       id="path2-5"
       cx="31.949858"
       cy="31.969812"
       rx="25.124426"
       ry="25.268976"
       transform="matrix(1.05,0,0,1.05,-1.5974929,-1.5984906)" />
    <path
       style="fill:#f5f7fa;stroke-width:0.204426;fill-opacity:1"
       d=""
       id="path3" />
    <circle
       style="opacity:1;fill:url(#linearGradient8);stroke:url(#linearGradient7);stroke-width:3.81818;stroke-dasharray:none;stroke-opacity:1"
       id="path2"
       cx="31.949856"
       cy="31.969812"
       r="24.711082" />
    <ellipse
       style="opacity:0.3;fill:none;stroke:#000000;stroke-width:0.974376;stroke-dasharray:none;stroke-opacity:1"
       id="path2-9"
       cx="31.949856"
       cy="31.969812"
       rx="23.129124"
       ry="23.129126" />
  </g>
  <path
     d="m 40.155789,20.375289 c -0.171986,-0.0051 -0.344328,0.01777 -0.504572,0.06771 -0.312373,0.09897 -0.635709,0.293259 -0.792906,0.580621 -0.318904,0.583066 -0.348171,1.365006 -0.1245,1.990768 0.61365,1.716771 2.388245,2.776122 3.72425,4.005527 0.455531,0.419166 4.749951,3.457801 2.553457,6.782082 -0.08311,0.125957 -0.178518,0.242807 -0.286148,0.351446 0.292337,0.41992 0.56931,0.849395 0.79073,1.307534 0.102696,-0.07934 0.201479,-0.159685 0.297065,-0.240041 1.612406,-1.356518 1.507394,-4.04563 0.847506,-5.400335 -0.585777,-1.202574 -1.493851,-2.238733 -2.435508,-3.189133 -0.849784,-0.857707 -3.756497,-2.522315 -4.091205,-3.564598 -0.158653,-0.493872 -0.298664,-1.279243 0.144162,-1.549828 0.236583,-0.14456 0.855301,0.02518 1.159861,0.43002 0.175899,0.234221 0.463957,0.582409 0.423759,-0.0076 -0.04331,-0.633918 -0.754684,-1.338711 -1.201371,-1.479961 -0.160252,-0.05063 -0.332545,-0.08061 -0.504573,-0.08516 z m -1.255971,8.423607 c -0.05391,0.0024 -0.07473,0.0738 -0.06769,0.244568 0.05875,1.421677 -1.006627,1.828102 -1.164249,1.685138 -0.17869,-0.162228 -0.242129,-0.06625 -0.21842,0.128695 0.0313,0.258334 0.055,0.30444 0.286146,0.709428 0.03868,0.0677 0.06064,0.219636 -0.04806,0.05241 -0.647806,-0.997417 -0.322987,-1.802078 -0.107019,-2.348748 0.123445,-0.312502 -0.02109,-0.342374 -0.187873,-0.141787 -0.811152,0.977674 -1.612563,1.722289 -2.313212,3.040673 -0.09931,0.186911 -0.102003,0.314838 0.161642,0.08516 0.650651,-0.566792 1.156471,-0.115099 0.945847,0.340541 -0.558075,1.207104 -1.539712,1.496083 -1.891615,1.648033 -1.31723,0.568735 -1.462144,0.526044 -2.040146,2.868246 -0.359796,1.458036 0.120171,5.022025 0.56137,6.963298 0.04264,0.187669 0.08839,0.368138 0.137593,0.543541 0.384731,-0.367888 0.771969,-0.759395 1.269088,-0.94518 -0.115959,-0.533647 -0.217988,-1.194265 -0.29052,-2.03006 -0.05816,-2.773785 -0.01855,-5.460308 3.79196,-4.874298 2.970942,0.412194 4.853398,0.149873 6.175041,-0.377611 -0.188039,-0.478385 -0.417031,-0.938308 -0.679277,-1.381727 -1.783464,0.574847 -4.168961,0.358261 -5.063231,-0.133248 -1.603941,-0.881412 -0.357537,-1.508 -0.0437,-1.497451 0.763117,0.02578 1.091025,0.632637 1.144584,0.763993 0.157088,0.385417 0.251143,0.261519 0.456528,0.06118 1.436084,-1.401332 0.942774,-4.041799 -0.626906,-5.299935 -0.08447,-0.06771 -0.145896,-0.106788 -0.187873,-0.104797 z m 2.741309,8.899439 c -0.6007,0.02034 -1.290165,0.2262 -1.817351,0.85351 -0.87724,1.043714 -1.226439,2.331211 -1.382668,3.488183 0.440664,0.165046 0.895971,0.275906 1.36302,0.329584 0.156713,-1.649065 0.585796,-2.65737 1.168597,-3.186959 0.591307,-0.53733 1.193169,-0.399023 1.317139,-0.33615 0.202431,0.102542 0.332103,0.52067 0.34294,0.803278 0.02926,0.774057 0.577999,0.443969 0.679325,-0.130996 0.05116,-0.290433 0.123684,-1.3603 -0.550451,-1.639296 -0.239373,-0.09896 -0.65334,-0.19672 -1.120552,-0.1811 z m -3.348552,6.28006 c -0.01668,0.301997 -0.03572,0.558681 -0.07205,0.748725 -0.305298,1.594683 -1.107763,3.327914 -3.145408,1.104523 -0.08408,-0.134466 -0.188388,-0.296556 -0.29925,-0.512974 -0.493923,0.149876 -0.930575,0.468311 -1.223212,0.892797 0.303096,0.620838 0.628764,1.080512 0.913041,1.353345 1.391689,1.335684 3.023074,1.02011 3.815983,0.388545 0.601567,-0.479152 1.201287,-1.262255 1.408886,-3.732659 -0.474438,-0.03061 -0.942432,-0.110384 -1.397959,-0.242299 z m 4.742133,-20.429241 c -0.510451,0.01518 -1.084337,0.207787 -1.670989,0.718145 0.35321,0.306604 0.741933,0.576136 1.124916,0.849142 0.320538,-0.210814 0.702869,-0.309482 1.135839,-0.261962 1.20858,0.132753 1.631063,0.907276 1.812976,1.741909 0.100386,0.460554 0.455351,0.808441 0.454338,-0.05014 -8.03e-4,-0.654444 -0.01837,-1.40742 -1.122732,-2.364014 -0.288902,-0.250364 -0.887707,-0.622861 -1.633867,-0.633036 -0.03333,-5.01e-4 -0.0664,-9.9e-4 -0.100452,0 z m -2.651746,1.892508 c -0.03684,0.05742 -0.07473,0.112129 -0.111404,0.172542 -0.363528,0.599918 -0.660164,2.886503 0.380079,5.016198 0.48435,0.991607 1.209273,2.173225 2.16246,3.503447 2.387559,3.331942 2.202175,6.668302 -0.284002,7.906262 0.214711,0.458861 0.364397,0.950368 0.412833,1.453764 1.523591,-0.678519 2.320345,-1.721156 2.706387,-2.842047 1.016737,-2.952141 -0.293732,-5.319513 -0.672763,-5.871867 L 42.514849,31.193463 C 41.39876,29.567035 41.172785,27.721727 41.57342,26.441424 41.173141,26.111649 40.76936,25.785923 40.382962,25.441662 Z m -5.650809,12.780576 c -0.300531,0.01001 -0.30515,0.120694 -0.384439,0.285959 -0.260219,0.542589 -0.287527,1.125753 -0.307986,1.68951 -0.02017,0.55519 0.137767,0.755914 0.316724,0.84258 0.279626,0.135488 1.323141,1.154844 2.138439,1.835778 1.426058,1.191017 3.244969,1.331232 4.571753,1.154728 0.06769,-0.524576 -0.106579,-1.051632 -0.375694,-1.510549 -0.04868,0.0055 -0.09674,0.0075 -0.146306,0.0099 -2.229205,0.131201 -5.119126,-1.529082 -4.803338,-3.798418 0.04163,-0.298932 -0.199439,-0.314216 -0.268665,-0.366698 -0.173112,-0.131055 -0.392752,-0.131055 -0.591945,-0.141608 -0.05608,-0.0024 -0.1056,-0.0024 -0.148546,-0.002 z M 20.778794,23.549154 c -0.746155,0.01001 -1.344994,0.382724 -1.633872,0.633037 -1.104077,0.956593 -1.119771,1.709568 -1.120547,2.364012 -9.9e-4,0.858641 0.351777,0.51075 0.452153,0.05013 0.181877,-0.834636 0.606584,-1.609273 1.815167,-1.741909 2.23655,-0.245577 3.122514,3.402491 1.107444,6.338965 l -1.994281,2.90537 c 0.345972,0.331115 0.779079,0.567496 1.231952,0.733434 0.141993,-0.232484 0.296007,-0.465367 0.463075,-0.698498 0.953188,-1.330226 1.678109,-2.511841 2.162466,-3.503446 1.040231,-2.129696 0.743606,-4.416284 0.38007,-5.016197 C 22.65872,23.990695 21.62443,23.53755 20.778794,23.549083 Z m -2.306633,12.092959 c -0.464653,1.059913 -0.939782,2.883417 -0.207518,5.009625 0.457084,1.327155 1.490543,2.545093 3.623766,3.178229 0.569269,0.169027 1.381383,0.299005 2.267313,0.253184 -0.03573,-0.521608 -0.04766,-1.046005 -0.08738,-1.56729 -0.236934,0.02279 -0.471674,0.02857 -0.698976,0.01497 -3.446076,-0.202921 -4.708546,-2.904743 -3.527657,-6.081278 -0.486545,-0.215856 -0.943653,-0.489318 -1.369562,-0.80766 z m 10.709665,2.580125 c -0.04295,-0.0014 -0.09248,-8.03e-4 -0.14856,0.002 -0.19921,0.01001 -0.418842,0.01001 -0.59195,0.141781 -0.06923,0.05241 -0.310276,0.06774 -0.268668,0.366703 0.209194,1.503183 -0.988147,2.738699 -2.468273,3.363751 0.06965,0.55261 0.105391,1.1087 0.133246,1.665521 0.549658,-0.190695 1.089209,-0.475116 1.581439,-0.886215 0.815305,-0.680945 1.858815,-1.700338 2.138439,-1.835794 0.179001,-0.0866 0.336871,-0.287405 0.316723,-0.842564 -0.02044,-0.563771 -0.04776,-1.146939 -0.307981,-1.689522 -0.07931,-0.165234 -0.08384,-0.276787 -0.384435,-0.28596 z m 7.022553,-1.340268 c -0.480455,0.01001 -0.949186,0.155902 -1.382671,0.700684 -0.117903,0.148329 -0.338785,0.365171 0.06553,0.412577 1.018433,0.119415 1.31625,0.317828 1.732155,0.622095 0.709646,0.519138 1.4452,1.018985 2.120967,1.562907 0.189267,-0.51611 0.446482,-1.007165 0.768877,-1.451575 -0.330538,-0.286519 -0.772377,-0.655277 -1.463488,-1.228949 -0.03027,-0.0252 -0.06161,-0.158183 -0.05456,-0.235747 0.01735,-0.196466 -0.07212,-0.272767 -0.334211,-0.270658 -0.480965,0.005 -0.972138,-0.121655 -1.452593,-0.111326 z m 4.44288,2.922817 c -0.299311,0.503974 -0.460841,1.071882 -0.574466,1.645885 0.02857,0.03368 0.05739,0.06827 0.08518,0.10252 0.779428,0.964315 1.769922,2.325345 0.331999,3.743572 -0.263661,0.260055 -0.57186,0.366985 -0.889019,0.375442 -3.7e-5,1.54e-4 -0.002,-1.22e-4 -0.002,0 -0.112288,0.482819 -0.266179,0.953143 -0.487105,1.392666 1.103027,0.289105 2.158101,0.137528 2.944452,-1.006298 1.095523,-1.593495 1.242957,-3.571917 -1.164236,-6.00719 -0.09875,-0.09998 -0.162667,-0.163959 -0.244647,-0.246551 z M 34.95277,43.6837 c -1.024454,0.0024 -1.53914,0.729384 -2.027038,1.154735 -0.699581,0.609901 -0.87069,1.86713 -0.506765,2.876993 0.122745,0.340576 0.391137,1.247233 1.214482,1.357725 0.690509,0.09273 1.034731,0.03603 0.46307,-0.347036 -0.385309,-0.258117 -0.571809,-0.568758 -0.742667,-0.82733 -0.513504,-0.777059 -0.02317,-1.838078 0.519869,-2.25269 1.663643,-1.269697 2.45794,0.105523 3.477415,0.670161 0.02994,0.01735 0.05974,0.03164 0.0896,0.04806 0.287983,-0.373875 0.458484,-0.82096 0.563537,-1.285688 -0.02653,-0.02006 -0.05342,-0.03783 -0.07862,-0.05674 -1.33204,-1.003777 -2.271946,-1.340124 -2.972889,-1.338056 z m -7.190743,-6.80173 c -0.480455,-0.01001 -0.973806,0.115092 -1.454753,0.111337 -0.262042,-0.002 -0.351956,0.0743 -0.334198,0.270658 0.007,0.07758 -0.02419,0.210579 -0.05459,0.235748 -1.884104,1.563916 -1.93285,1.627797 -2.84615,2.551738 -0.675452,0.683331 -1.150457,1.329777 -1.459121,1.942735 0.50166,0.217875 1.041339,0.334993 1.58799,0.386375 0.184965,-0.298765 0.4022,-0.576315 0.605052,-0.827313 0.940187,-1.163197 2.281475,-2.016307 3.538578,-2.935918 0.415911,-0.304264 0.713723,-0.502741 1.732155,-0.622106 0.404313,-0.04733 0.183446,-0.264347 0.06555,-0.412572 -0.43348,-0.544829 -0.90003,-0.690289 -1.380481,-0.700695 z m 1.225395,6.803917 c -0.698243,0.0052 -1.631903,0.343497 -2.948818,1.335903 -0.649707,0.489612 -1.795622,1.033279 -2.564376,0.275023 -0.388416,-0.383079 -0.597641,-0.762651 -0.683686,-1.130705 -0.562937,-0.08113 -1.112672,-0.233966 -1.64042,-0.445297 -0.02312,0.858231 0.275009,1.635344 0.757952,2.337816 1.202925,1.749716 3.034936,1.182578 4.705008,0.257607 0.8064,-0.446642 1.471725,-1.397649 2.538163,-1.14819 0.209651,-0.442822 0.35145,-0.91181 0.46089,-1.388285 -0.186175,-0.06075 -0.391964,-0.09548 -0.624713,-0.09389 z m 2.123146,1.218047 c -0.141552,0.463191 -0.313782,0.917399 -0.524229,1.353366 0.262983,0.492847 0.363362,1.127998 0.02395,1.641469 -0.170845,0.258594 -0.357353,0.56918 -0.742661,0.827327 -0.571669,0.382975 -0.227444,0.439727 0.46307,0.34704 0.823334,-0.110588 1.091738,-1.017142 1.214476,-1.357729 0.351344,-0.974923 0.205377,-2.180502 -0.43467,-2.811497 z m -7.265006,-24.51338 c -0.172004,0.0051 -0.344292,0.0345 -0.504579,0.08516 -0.446678,0.141308 -1.158103,0.846043 -1.201366,1.479957 -0.04024,0.588962 0.245673,0.240789 0.421572,0.0075 0.304559,-0.405383 0.923226,-0.574641 1.159866,-0.430042 0.442813,0.270581 0.302762,1.055955 0.144178,1.549839 -0.11417,0.355504 -0.530464,0.783495 -1.059386,1.22674 0.299718,0.29308 0.558356,0.625602 0.790718,0.975734 0.720388,-0.652785 1.352678,-1.366496 1.670994,-2.257046 0.223666,-0.625755 0.194422,-1.405509 -0.124506,-1.98857 -0.157186,-0.287366 -0.480527,-0.481562 -0.792899,-0.580643 -0.160249,-0.05087 -0.332571,-0.07228 -0.50458,-0.06777 z m -2.367786,4.93323 c -0.699364,0.507499 -1.364974,0.978681 -1.703765,1.320654 -0.941664,0.950395 -1.849736,1.988743 -2.435507,3.191295 -0.659888,1.354726 -0.762719,4.04384 0.849695,5.40036 1.340798,1.128042 3.302374,2.209185 8.086314,1.545473 3.810576,-0.586037 3.852288,2.102653 3.794139,4.87646 -0.244989,2.823896 -0.830057,3.686155 -1.144574,4.1889 -1.168457,1.274956 -1.929324,1.247233 -2.424588,0.691945 -0.472352,0.250362 -0.962245,0.474302 -1.474407,0.624304 0.214623,0.374501 0.454952,0.612398 0.694614,0.80327 0.792911,0.631576 2.424299,0.949341 3.815989,-0.386348 0.54902,-0.526945 1.250583,-1.746267 1.646968,-3.490367 0.441194,-1.941272 0.923348,-5.505263 0.563549,-6.963296 -0.577999,-2.342235 -0.722914,-2.301706 -2.04015,-2.87044 -0.351898,-0.151889 -1.333536,-0.438738 -1.891604,-1.645869 -0.210615,-0.455592 0.295198,-0.907301 0.945803,-0.340506 0.263655,0.229712 0.258773,0.101761 0.159489,-0.08516 -0.700645,-1.318388 -1.499874,-2.065195 -2.310997,-3.042868 -0.16632,-0.2005 -0.313471,-0.170501 -0.190053,0.141791 0.215923,0.546664 0.540776,1.351331 -0.107008,2.348726 -0.10868,0.167528 -0.08677,0.01487 -0.04805,-0.05243 0.231094,-0.404989 0.257008,-0.451079 0.288333,-0.709426 0.02338,-0.194941 -0.0419,-0.288673 -0.220616,-0.126679 -0.157598,0.143071 -1.220833,-0.265617 -1.16205,-1.687304 0.01232,-0.303511 -0.06251,-0.292275 -0.255566,-0.137545 -1.569676,1.258143 -2.062985,3.898609 -0.626896,5.299961 0.205351,0.200502 0.299399,0.324292 0.456518,-0.06118 0.05354,-0.131466 0.381471,-0.740453 1.144582,-0.766172 0.313855,-0.0099 1.558068,0.618228 -0.04587,1.499637 -1.275681,0.700986 -5.586122,0.845434 -6.854361,-1.073971 -2.196492,-3.32431 2.097924,-6.362926 2.55346,-6.782118 0.211502,-0.194692 0.434606,-0.384586 0.661844,-0.574072 -0.146794,-0.434158 -0.373892,-0.846094 -0.725194,-1.137286 z m 0.806,12.387654 c -0.04117,-2.75e-4 -0.08221,8.35e-4 -0.122309,0.0022 -0.384968,0.01228 -0.716541,0.09623 -0.921778,0.181089 -0.674184,0.279034 -0.603808,1.348919 -0.552629,1.639305 0.101321,0.574955 0.651734,0.90506 0.681507,0.130997 0.01078,-0.282609 0.138348,-0.7028 0.340753,-0.805443 0.123935,-0.06302 0.728015,-0.201261 1.319319,0.336157 0.114904,0.104269 0.223481,0.228247 0.325458,0.371059 0.300053,-0.299079 0.606098,-0.591769 0.92615,-0.870951 -0.03459,-0.04407 -0.06847,-0.08768 -0.10483,-0.130987 -0.549142,-0.65335 -1.274372,-0.849032 -1.891608,-0.853491 z m 2.896398,2.682734 c -0.397689,0.328974 -0.770935,0.679162 -1.111817,1.065232 1.41e-4,7.08e-4 -1.36e-4,0.0015 0,0.0021 0.0946,0.50609 0.15745,1.092638 0.181311,1.765914 0.03364,0.948967 0.113357,1.698713 0.227165,2.300691 0.488265,-0.02824 0.95517,-0.252979 1.356461,-0.532609 -0.01915,-0.08538 -0.03829,-0.170251 -0.05463,-0.255361 -0.147581,-0.770727 -0.0046,-2.603821 -0.598504,-4.346043 z m 6.214352,-21.5054 c -0.08897,9.9e-4 -0.178636,0.015 -0.264311,0.03048 -1.308455,0.232727 -2.551827,0.812518 -3.704591,1.47341 -0.583579,0.33459 -0.740038,0.475991 -1.024441,1.106712 -0.621073,1.377375 -1.13535,3.109863 -1.496246,4.278363 -0.193655,0.627011 -0.05865,0.735092 0.139803,0.997572 2.093872,2.769557 4.760671,5.791744 6.166297,8.196587 0.132024,0.225913 0.304175,0.651776 0.730998,-0.143814 0.04693,-0.110561 0.05682,-0.07781 0.101695,0.0076 0.423841,0.785236 0.595305,0.361332 0.726905,0.136256 1.405623,-2.40483 4.07243,-5.427019 6.166305,-8.196575 0.198422,-0.262488 0.333457,-0.370559 0.139774,-0.997575 -0.360881,-1.168504 -0.875164,-2.900998 -1.496236,-4.278368 -0.284412,-0.630721 -0.440873,-0.772119 -1.024446,-1.106715 -1.152765,-0.66089 -2.396132,-1.240781 -3.704587,-1.47341 -0.171284,-0.03048 -0.361553,-0.05389 -0.522049,0.01296 -0.101024,0.04233 -0.172204,0.153908 -0.277693,0.194193 -0.03512,0.01296 -0.07553,0.02269 -0.111945,0.01296 -0.114499,-0.02949 -0.181433,-0.16346 -0.287499,-0.207783 -0.08027,-0.03347 -0.168803,-0.04484 -0.257757,-0.04357 z"
     id="path339-7"
     style="fill:#000000;fill-opacity:1;stroke:none;stroke-width:0.454912;stroke-dasharray:none;stroke-opacity:0.6;opacity:0.2" />
  <path
     d="m 40.155789,18.375289 c -0.171986,-0.0051 -0.344328,0.01777 -0.504572,0.06771 -0.312373,0.09897 -0.635709,0.293259 -0.792906,0.580621 -0.318904,0.583066 -0.348171,1.365006 -0.1245,1.990768 0.61365,1.716771 2.388245,2.776122 3.72425,4.005527 0.455531,0.419166 4.749951,3.457801 2.553457,6.782082 -0.08311,0.125957 -0.178518,0.242807 -0.286148,0.351446 0.292337,0.41992 0.56931,0.849395 0.79073,1.307534 0.102696,-0.07934 0.201479,-0.159685 0.297065,-0.240041 1.612406,-1.356518 1.507394,-4.04563 0.847506,-5.400335 -0.585777,-1.202574 -1.493851,-2.238733 -2.435508,-3.189133 -0.849784,-0.857707 -3.756497,-2.522315 -4.091205,-3.564598 -0.158653,-0.493872 -0.298664,-1.279243 0.144162,-1.549828 0.236583,-0.14456 0.855301,0.02518 1.159861,0.43002 0.175899,0.234221 0.463957,0.582409 0.423759,-0.0076 -0.04331,-0.633918 -0.754684,-1.338711 -1.201371,-1.479961 -0.160252,-0.05063 -0.332545,-0.08061 -0.504573,-0.08516 z m -1.255971,8.423607 c -0.05391,0.0024 -0.07473,0.0738 -0.06769,0.244568 0.05875,1.421677 -1.006627,1.828102 -1.164249,1.685138 -0.17869,-0.162228 -0.242129,-0.06625 -0.21842,0.128695 0.0313,0.258334 0.055,0.30444 0.286146,0.709428 0.03868,0.0677 0.06064,0.219636 -0.04806,0.05241 -0.647806,-0.997417 -0.322987,-1.802078 -0.107019,-2.348748 0.123445,-0.312502 -0.02109,-0.342374 -0.187873,-0.141787 -0.811152,0.977674 -1.612563,1.722289 -2.313212,3.040673 -0.09931,0.186911 -0.102003,0.314838 0.161642,0.08516 0.650651,-0.566792 1.156471,-0.115099 0.945847,0.340541 -0.558075,1.207104 -1.539712,1.496083 -1.891615,1.648033 -1.31723,0.568735 -1.462144,0.526044 -2.040146,2.868246 -0.359796,1.458036 0.120171,5.022025 0.56137,6.963298 0.04264,0.187669 0.08839,0.368138 0.137593,0.543541 0.384731,-0.367888 0.771969,-0.759395 1.269088,-0.94518 -0.115959,-0.533647 -0.217988,-1.194265 -0.29052,-2.03006 -0.05816,-2.773785 -0.01855,-5.460308 3.79196,-4.874298 2.970942,0.412194 4.853398,0.149873 6.175041,-0.377611 -0.188039,-0.478385 -0.417031,-0.938308 -0.679277,-1.381727 -1.783464,0.574847 -4.168961,0.358261 -5.063231,-0.133248 -1.603941,-0.881412 -0.357537,-1.508 -0.0437,-1.497451 0.763117,0.02578 1.091025,0.632637 1.144584,0.763993 0.157088,0.385417 0.251143,0.261519 0.456528,0.06118 1.436084,-1.401332 0.942774,-4.041799 -0.626906,-5.299935 -0.08447,-0.06771 -0.145896,-0.106788 -0.187873,-0.104797 z m 2.741309,8.899439 c -0.6007,0.02034 -1.290165,0.2262 -1.817351,0.85351 -0.87724,1.043714 -1.226439,2.331211 -1.382668,3.488183 0.440664,0.165046 0.895971,0.275906 1.36302,0.329584 0.156713,-1.649065 0.585796,-2.65737 1.168597,-3.186959 0.591307,-0.53733 1.193169,-0.399023 1.317139,-0.33615 0.202431,0.102542 0.332103,0.52067 0.34294,0.803278 0.02926,0.774057 0.577999,0.443969 0.679325,-0.130996 0.05116,-0.290433 0.123684,-1.3603 -0.550451,-1.639296 -0.239373,-0.09896 -0.65334,-0.19672 -1.120552,-0.1811 z m -3.348552,6.28006 c -0.01668,0.301997 -0.03572,0.558681 -0.07205,0.748725 -0.305298,1.594683 -1.107763,3.327914 -3.145408,1.104523 -0.08408,-0.134466 -0.188388,-0.296556 -0.29925,-0.512974 -0.493923,0.149876 -0.930575,0.468311 -1.223212,0.892797 0.303096,0.620838 0.628764,1.080512 0.913041,1.353345 1.391689,1.335684 3.023074,1.02011 3.815983,0.388545 0.601567,-0.479152 1.201287,-1.262255 1.408886,-3.732659 -0.474438,-0.03061 -0.942432,-0.110384 -1.397959,-0.242299 z m 4.742133,-20.429241 c -0.510451,0.01518 -1.084337,0.207787 -1.670989,0.718145 0.35321,0.306604 0.741933,0.576136 1.124916,0.849142 0.320538,-0.210814 0.702869,-0.309482 1.135839,-0.261962 1.20858,0.132753 1.631063,0.907276 1.812976,1.741909 0.100386,0.460554 0.455351,0.808441 0.454338,-0.05014 -8.03e-4,-0.654444 -0.01837,-1.40742 -1.122732,-2.364014 -0.288902,-0.250364 -0.887707,-0.622861 -1.633867,-0.633036 -0.03333,-5.01e-4 -0.0664,-9.9e-4 -0.100452,0 z m -2.651746,1.892508 c -0.03684,0.05742 -0.07473,0.112129 -0.111404,0.172542 -0.363528,0.599918 -0.660164,2.886503 0.380079,5.016198 0.48435,0.991607 1.209273,2.173225 2.16246,3.503447 2.387559,3.331942 2.202175,6.668302 -0.284002,7.906262 0.214711,0.458861 0.364397,0.950368 0.412833,1.453764 1.523591,-0.678519 2.320345,-1.721156 2.706387,-2.842047 1.016737,-2.952141 -0.293732,-5.319513 -0.672763,-5.871867 L 42.514849,29.193463 C 41.39876,27.567035 41.172785,25.721727 41.57342,24.441424 41.173141,24.111649 40.76936,23.785923 40.382962,23.441662 Z m -5.650809,12.780576 c -0.300531,0.01001 -0.30515,0.120694 -0.384439,0.285959 -0.260219,0.542589 -0.287527,1.125753 -0.307986,1.68951 -0.02017,0.55519 0.137767,0.755914 0.316724,0.84258 0.279626,0.135488 1.323141,1.154844 2.138439,1.835778 1.426058,1.191017 3.244969,1.331232 4.571753,1.154728 0.06769,-0.524576 -0.106579,-1.051632 -0.375694,-1.510549 -0.04868,0.0055 -0.09674,0.0075 -0.146306,0.0099 -2.229205,0.131201 -5.119126,-1.529082 -4.803338,-3.798418 0.04163,-0.298932 -0.199439,-0.314216 -0.268665,-0.366698 -0.173112,-0.131055 -0.392752,-0.131055 -0.591945,-0.141608 -0.05608,-0.0024 -0.1056,-0.0024 -0.148546,-0.002 z M 20.778794,21.549154 c -0.746155,0.01001 -1.344994,0.382724 -1.633872,0.633037 -1.104077,0.956593 -1.119771,1.709568 -1.120547,2.364012 -9.9e-4,0.858641 0.351777,0.51075 0.452153,0.05013 0.181877,-0.834636 0.606584,-1.609273 1.815167,-1.741909 2.23655,-0.245577 3.122514,3.402491 1.107444,6.338965 l -1.994281,2.90537 c 0.345972,0.331115 0.779079,0.567496 1.231952,0.733434 0.141993,-0.232484 0.296007,-0.465367 0.463075,-0.698498 0.953188,-1.330226 1.678109,-2.511841 2.162466,-3.503446 1.040231,-2.129696 0.743606,-4.416284 0.38007,-5.016197 C 22.65872,21.990695 21.62443,21.53755 20.778794,21.549083 Z m -2.306633,12.092959 c -0.464653,1.059913 -0.939782,2.883417 -0.207518,5.009625 0.457084,1.327155 1.490543,2.545093 3.623766,3.178229 0.569269,0.169027 1.381383,0.299005 2.267313,0.253184 -0.03573,-0.521608 -0.04766,-1.046005 -0.08738,-1.56729 -0.236934,0.02279 -0.471674,0.02857 -0.698976,0.01497 -3.446076,-0.202921 -4.708546,-2.904743 -3.527657,-6.081278 -0.486545,-0.215856 -0.943653,-0.489318 -1.369562,-0.80766 z m 10.709665,2.580125 c -0.04295,-0.0014 -0.09248,-8.03e-4 -0.14856,0.002 -0.19921,0.01001 -0.418842,0.01001 -0.59195,0.141781 -0.06923,0.05241 -0.310276,0.06774 -0.268668,0.366703 0.209194,1.503183 -0.988147,2.738699 -2.468273,3.363751 0.06965,0.55261 0.105391,1.1087 0.133246,1.665521 0.549658,-0.190695 1.089209,-0.475116 1.581439,-0.886215 0.815305,-0.680945 1.858815,-1.700338 2.138439,-1.835794 0.179001,-0.0866 0.336871,-0.287405 0.316723,-0.842564 -0.02044,-0.563771 -0.04776,-1.146939 -0.307981,-1.689522 -0.07931,-0.165234 -0.08384,-0.276787 -0.384435,-0.28596 z m 7.022553,-1.340268 c -0.480455,0.01001 -0.949186,0.155902 -1.382671,0.700684 -0.117903,0.148329 -0.338785,0.365171 0.06553,0.412577 1.018433,0.119415 1.31625,0.317828 1.732155,0.622095 0.709646,0.519138 1.4452,1.018985 2.120967,1.562907 0.189267,-0.51611 0.446482,-1.007165 0.768877,-1.451575 -0.330538,-0.286519 -0.772377,-0.655277 -1.463488,-1.228949 -0.03027,-0.0252 -0.06161,-0.158183 -0.05456,-0.235747 0.01735,-0.196466 -0.07212,-0.272767 -0.334211,-0.270658 -0.480965,0.005 -0.972138,-0.121655 -1.452593,-0.111326 z m 4.44288,2.922817 c -0.299311,0.503974 -0.460841,1.071882 -0.574466,1.645885 0.02857,0.03368 0.05739,0.06827 0.08518,0.10252 0.779428,0.964315 1.769922,2.325345 0.331999,3.743572 -0.263661,0.260055 -0.57186,0.366985 -0.889019,0.375442 -3.7e-5,1.54e-4 -0.002,-1.22e-4 -0.002,0 -0.112288,0.482819 -0.266179,0.953143 -0.487105,1.392666 1.103027,0.289105 2.158101,0.137528 2.944452,-1.006298 1.095523,-1.593495 1.242957,-3.571917 -1.164236,-6.00719 -0.09875,-0.09998 -0.162667,-0.163959 -0.244647,-0.246551 z M 34.95277,41.6837 c -1.024454,0.0024 -1.53914,0.729384 -2.027038,1.154735 -0.699581,0.609901 -0.87069,1.86713 -0.506765,2.876993 0.122745,0.340576 0.391137,1.247233 1.214482,1.357725 0.690509,0.09273 1.034731,0.03603 0.46307,-0.347036 -0.385309,-0.258117 -0.571809,-0.568758 -0.742667,-0.82733 -0.513504,-0.777059 -0.02317,-1.838078 0.519869,-2.25269 1.663643,-1.269697 2.45794,0.105523 3.477415,0.670161 0.02994,0.01735 0.05974,0.03164 0.0896,0.04806 0.287983,-0.373875 0.458484,-0.82096 0.563537,-1.285688 -0.02653,-0.02006 -0.05342,-0.03783 -0.07862,-0.05674 -1.33204,-1.003777 -2.271946,-1.340124 -2.972889,-1.338056 z m -7.190743,-6.80173 c -0.480455,-0.01001 -0.973806,0.115092 -1.454753,0.111337 -0.262042,-0.002 -0.351956,0.0743 -0.334198,0.270658 0.007,0.07758 -0.02419,0.210579 -0.05459,0.235748 -1.884104,1.563916 -1.93285,1.627797 -2.84615,2.551738 -0.675452,0.683331 -1.150457,1.329777 -1.459121,1.942735 0.50166,0.217875 1.041339,0.334993 1.58799,0.386375 0.184965,-0.298765 0.4022,-0.576315 0.605052,-0.827313 0.940187,-1.163197 2.281475,-2.016307 3.538578,-2.935918 0.415911,-0.304264 0.713723,-0.502741 1.732155,-0.622106 0.404313,-0.04733 0.183446,-0.264347 0.06555,-0.412572 -0.43348,-0.544829 -0.90003,-0.690289 -1.380481,-0.700695 z m 1.225395,6.803917 c -0.698243,0.0052 -1.631903,0.343497 -2.948818,1.335903 -0.649707,0.489612 -1.795622,1.033279 -2.564376,0.275023 -0.388416,-0.383079 -0.597641,-0.762651 -0.683686,-1.130705 -0.562937,-0.08113 -1.112672,-0.233966 -1.64042,-0.445297 -0.02312,0.858231 0.275009,1.635344 0.757952,2.337816 1.202925,1.749716 3.034936,1.182578 4.705008,0.257607 0.8064,-0.446642 1.471725,-1.397649 2.538163,-1.14819 0.209651,-0.442822 0.35145,-0.91181 0.46089,-1.388285 -0.186175,-0.06075 -0.391964,-0.09548 -0.624713,-0.09389 z m 2.123146,1.218047 c -0.141552,0.463191 -0.313782,0.917399 -0.524229,1.353366 0.262983,0.492847 0.363362,1.127998 0.02395,1.641469 -0.170845,0.258594 -0.357353,0.56918 -0.742661,0.827327 -0.571669,0.382975 -0.227444,0.439727 0.46307,0.34704 0.823334,-0.110588 1.091738,-1.017142 1.214476,-1.357729 0.351344,-0.974923 0.205377,-2.180502 -0.43467,-2.811497 z m -7.265006,-24.51338 c -0.172004,0.0051 -0.344292,0.0345 -0.504579,0.08516 -0.446678,0.141308 -1.158103,0.846043 -1.201366,1.479957 -0.04024,0.588962 0.245673,0.240789 0.421572,0.0075 0.304559,-0.405383 0.923226,-0.574641 1.159866,-0.430042 0.442813,0.270581 0.302762,1.055955 0.144178,1.549839 -0.11417,0.355504 -0.530464,0.783495 -1.059386,1.22674 0.299718,0.29308 0.558356,0.625602 0.790718,0.975734 0.720388,-0.652785 1.352678,-1.366496 1.670994,-2.257046 0.223666,-0.625755 0.194422,-1.405509 -0.124506,-1.98857 -0.157186,-0.287366 -0.480527,-0.481562 -0.792899,-0.580643 -0.160249,-0.05087 -0.332571,-0.07228 -0.50458,-0.06777 z m -2.367786,4.93323 c -0.699364,0.507499 -1.364974,0.978681 -1.703765,1.320654 -0.941664,0.950395 -1.849736,1.988743 -2.435507,3.191295 -0.659888,1.354726 -0.762719,4.04384 0.849695,5.40036 1.340798,1.128042 3.302374,2.209185 8.086314,1.545473 3.810576,-0.586037 3.852288,2.102653 3.794139,4.87646 -0.244989,2.823896 -0.830057,3.686155 -1.144574,4.1889 -1.168457,1.274956 -1.929324,1.247233 -2.424588,0.691945 -0.472352,0.250362 -0.962245,0.474302 -1.474407,0.624304 0.214623,0.374501 0.454952,0.612398 0.694614,0.80327 0.792911,0.631576 2.424299,0.949341 3.815989,-0.386348 0.54902,-0.526945 1.250583,-1.746267 1.646968,-3.490367 0.441194,-1.941272 0.923348,-5.505263 0.563549,-6.963296 -0.577999,-2.342235 -0.722914,-2.301706 -2.04015,-2.87044 -0.351898,-0.151889 -1.333536,-0.438738 -1.891604,-1.645869 -0.210615,-0.455592 0.295198,-0.907301 0.945803,-0.340506 0.263655,0.229712 0.258773,0.101761 0.159489,-0.08516 -0.700645,-1.318388 -1.499874,-2.065195 -2.310997,-3.042868 -0.16632,-0.2005 -0.313471,-0.170501 -0.190053,0.141791 0.215923,0.546664 0.540776,1.351331 -0.107008,2.348726 -0.10868,0.167528 -0.08677,0.01487 -0.04805,-0.05243 0.231094,-0.404989 0.257008,-0.451079 0.288333,-0.709426 0.02338,-0.194941 -0.0419,-0.288673 -0.220616,-0.126679 -0.157598,0.143071 -1.220833,-0.265617 -1.16205,-1.687304 0.01232,-0.303511 -0.06251,-0.292275 -0.255566,-0.137545 -1.569676,1.258143 -2.062985,3.898609 -0.626896,5.299961 0.205351,0.200502 0.299399,0.324292 0.456518,-0.06118 0.05354,-0.131466 0.381471,-0.740453 1.144582,-0.766172 0.313855,-0.0099 1.558068,0.618228 -0.04587,1.499637 -1.275681,0.700986 -5.586122,0.845434 -6.854361,-1.073971 -2.196492,-3.32431 2.097924,-6.362926 2.55346,-6.782118 0.211502,-0.194692 0.434606,-0.384586 0.661844,-0.574072 -0.146794,-0.434158 -0.373892,-0.846094 -0.725194,-1.137286 z m 0.806,12.387654 c -0.04117,-2.75e-4 -0.08221,8.35e-4 -0.122309,0.0022 -0.384968,0.01228 -0.716541,0.09623 -0.921778,0.181089 -0.674184,0.279034 -0.603808,1.348919 -0.552629,1.639305 0.101321,0.574955 0.651734,0.90506 0.681507,0.130997 0.01078,-0.282609 0.138348,-0.7028 0.340753,-0.805443 0.123935,-0.06302 0.728015,-0.201261 1.319319,0.336157 0.114904,0.104269 0.223481,0.228247 0.325458,0.371059 0.300053,-0.299079 0.606098,-0.591769 0.92615,-0.870951 -0.03459,-0.04407 -0.06847,-0.08768 -0.10483,-0.130987 -0.549142,-0.65335 -1.274372,-0.849032 -1.891608,-0.853491 z m 2.896398,2.682734 c -0.397689,0.328974 -0.770935,0.679162 -1.111817,1.065232 1.41e-4,7.08e-4 -1.36e-4,0.0015 0,0.0021 0.0946,0.50609 0.15745,1.092638 0.181311,1.765914 0.03364,0.948967 0.113357,1.698713 0.227165,2.300691 0.488265,-0.02824 0.95517,-0.252979 1.356461,-0.532609 -0.01915,-0.08538 -0.03829,-0.170251 -0.05463,-0.255361 -0.147581,-0.770727 -0.0046,-2.603821 -0.598504,-4.346043 z m 6.214352,-21.5054 c -0.08897,9.9e-4 -0.178636,0.015 -0.264311,0.03048 -1.308455,0.232727 -2.551827,0.812518 -3.704591,1.47341 -0.583579,0.33459 -0.740038,0.475991 -1.024441,1.106712 -0.621073,1.377375 -1.13535,3.109863 -1.496246,4.278363 -0.193655,0.627011 -0.05865,0.735092 0.139803,0.997572 2.093872,2.769557 4.760671,5.791744 6.166297,8.196587 0.132024,0.225913 0.304175,0.651776 0.730998,-0.143814 0.04693,-0.110561 0.05682,-0.07781 0.101695,0.0076 0.423841,0.785236 0.595305,0.361332 0.726905,0.136256 1.405623,-2.40483 4.07243,-5.427019 6.166305,-8.196575 0.198422,-0.262488 0.333457,-0.370559 0.139774,-0.997575 -0.360881,-1.168504 -0.875164,-2.900998 -1.496236,-4.278368 -0.284412,-0.630721 -0.440873,-0.772119 -1.024446,-1.106715 -1.152765,-0.66089 -2.396132,-1.240781 -3.704587,-1.47341 -0.171284,-0.03048 -0.361553,-0.05389 -0.522049,0.01296 -0.101024,0.04233 -0.172204,0.153908 -0.277693,0.194193 -0.03512,0.01296 -0.07553,0.02269 -0.111945,0.01296 -0.114499,-0.02949 -0.181433,-0.16346 -0.287499,-0.207783 -0.08027,-0.03347 -0.168803,-0.04484 -0.257757,-0.04357 z"
     id="path339"
     style="fill:#4d4d4d;fill-opacity:1;stroke:none;stroke-width:0.454912;stroke-dasharray:none;stroke-opacity:0.6" />
  <g
     id="g877-6"
     transform="matrix(0.47351393,0,0,0.47351393,34.958256,34.948805)">
    <ellipse
       style="opacity:0.5;fill:#000000;stroke:none;stroke-width:3.89319;stroke-dasharray:none;stroke-opacity:1;filter:url(#filter9-0)"
       id="path2-5-5"
       cx="31.949858"
       cy="31.969812"
       rx="25.124426"
       ry="25.268976"
       transform="matrix(1.05,0,0,1.05,-1.5974929,-1.5984906)" />
    <path
       style="fill:#f5f7fa;fill-opacity:1;stroke-width:0.204426"
       d=""
       id="path3-6" />
    <circle
       style="opacity:1;fill:url(#linearGradient1);stroke:url(#linearGradient3);stroke-width:3.81818;stroke-dasharray:none;stroke-opacity:1"
       id="path2-93"
       cx="31.949856"
       cy="31.969812"
       r="24.711082" />
    <ellipse
       style="opacity:0.3;fill:none;stroke:#000000;stroke-width:0.974376;stroke-dasharray:none;stroke-opacity:1"
       id="path2-9-7"
       cx="31.949856"
       cy="31.969812"
       rx="23.129124"
       ry="23.129126" />
  </g>
  <path
     id="path1-5"
     style="fill:#000000;fill-opacity:1;stroke:none;stroke-width:0.199802;stroke-dasharray:none;stroke-dashoffset:2.2;stroke-opacity:0.6;opacity:0.2"
     d="m 53.772064,47.128604 c -0.205977,-8.9e-5 -0.426442,0.08284 -0.702373,0.24452 -0.656611,0.384724 -1.515337,0.566161 -2.694593,0.566161 -1.179149,0 -2.066519,-0.18531 -2.71922,-0.567802 -0.523381,-0.306709 -0.835848,-0.310774 -1.275092,-0.0147 -1.127693,0.759949 -1.977585,3.196479 -2.226905,6.380401 -0.149491,1.909262 -0.0098,2.915833 0.484105,3.482301 0.238245,0.273115 0.823094,0.226825 1.350587,-0.108317 0.447145,-0.284074 0.979915,-0.910935 1.616432,-1.901985 0.575182,-0.895565 1.270899,-1.190523 2.809475,-1.193042 1.535519,-0.0023 2.138957,0.288145 2.847222,1.376838 1.188297,1.826589 2.286653,2.4625 2.930911,1.696839 0.356916,-0.424165 0.422245,-0.833983 0.405336,-2.540338 -0.0308,-3.099693 -0.841049,-5.919544 -2.008638,-6.995787 -0.310964,-0.286642 -0.552408,-0.424923 -0.817247,-0.425033 z m -6.670862,1.826483 h 0.712216 0.712213 v 0.610471 0.61047 h 0.610474 0.610468 v 0.763089 0.763086 h -0.610468 -0.610474 v 0.661344 0.661343 h -0.644927 c -0.354309,0 -0.67328,-0.03178 -0.710575,-0.06891 -0.03729,-0.03728 -0.06888,-0.333362 -0.06888,-0.6597 v -0.594078 h -0.61048 -0.610474 v -0.763084 -0.763086 h 0.610474 0.610467 v -0.610478 z m 5.806034,0 c 0.64251,0 0.917669,0.711889 0.454572,1.174991 -0.294514,0.294485 -0.563307,0.31763 -0.853347,0.07221 -0.503087,-0.425699 -0.24051,-1.247201 0.398775,-1.247201 z m -1.23571,1.304633 c 0.160453,1.11e-4 0.321973,0.06404 0.449643,0.205119 0.199026,0.219937 0.220517,0.723415 0.04105,0.958372 -0.351257,0.45984 -1.194681,0.164065 -1.194681,-0.418466 0,-0.442109 0.351045,-0.745278 0.704009,-0.745034 z m 2.522294,0.02481 c 0.184913,0.0034 0.364454,0.06462 0.469333,0.180504 0.199028,0.219938 0.220488,0.723415 0.04103,0.958375 -0.37361,0.489096 -1.194687,0.161738 -1.194687,-0.475907 0,-0.19327 0.07746,-0.402765 0.185434,-0.500518 0.123439,-0.111743 0.313978,-0.16584 0.498883,-0.162441 z m -1.242274,1.316117 c 0.569617,0 0.846776,0.604205 0.502156,1.09622 -0.117807,0.168198 -0.261481,0.226457 -0.557958,0.226457 -0.341328,0 -0.420537,-0.04442 -0.557951,-0.310169 -0.270972,-0.52397 0.02481,-1.01253 0.613753,-1.01253 z" />
  <path
     id="path1"
     style="fill:#4d4d4d;fill-opacity:1;stroke:none;stroke-width:0.199802;stroke-dasharray:none;stroke-dashoffset:2.2;stroke-opacity:0.6"
     d="m 53.772064,45.128604 c -0.205977,-8.9e-5 -0.426442,0.08284 -0.702373,0.24452 -0.656611,0.384724 -1.515337,0.566161 -2.694593,0.566161 -1.179149,0 -2.066519,-0.18531 -2.71922,-0.567802 -0.523381,-0.306709 -0.835848,-0.310774 -1.275092,-0.0147 -1.127693,0.759949 -1.977585,3.196479 -2.226905,6.380401 -0.149491,1.909262 -0.0098,2.915833 0.484105,3.482301 0.238245,0.273115 0.823094,0.226825 1.350587,-0.108317 0.447145,-0.284074 0.979915,-0.910935 1.616432,-1.901985 0.575182,-0.895565 1.270899,-1.190523 2.809475,-1.193042 1.535519,-0.0023 2.138957,0.288145 2.847222,1.376838 1.188297,1.826589 2.286653,2.4625 2.930911,1.696839 0.356916,-0.424165 0.422245,-0.833983 0.405336,-2.540338 -0.0308,-3.099693 -0.841049,-5.919544 -2.008638,-6.995787 -0.310964,-0.286642 -0.552408,-0.424923 -0.817247,-0.425033 z m -6.670862,1.826483 h 0.712216 0.712213 v 0.610471 0.61047 h 0.610474 0.610468 v 0.763089 0.763086 h -0.610468 -0.610474 v 0.661344 0.661343 h -0.644927 c -0.354309,0 -0.67328,-0.03178 -0.710575,-0.06891 -0.03729,-0.03728 -0.06888,-0.333362 -0.06888,-0.6597 v -0.594078 h -0.61048 -0.610474 v -0.763084 -0.763086 h 0.610474 0.610467 v -0.610478 z m 5.806034,0 c 0.64251,0 0.917669,0.711889 0.454572,1.174991 -0.294514,0.294485 -0.563307,0.31763 -0.853347,0.07221 -0.503087,-0.425699 -0.24051,-1.247201 0.398775,-1.247201 z m -1.23571,1.304633 c 0.160453,1.11e-4 0.321973,0.06404 0.449643,0.205119 0.199026,0.219937 0.220517,0.723415 0.04105,0.958372 -0.351257,0.45984 -1.194681,0.164065 -1.194681,-0.418466 0,-0.442109 0.351045,-0.745278 0.704009,-0.745034 z m 2.522294,0.02481 c 0.184913,0.0034 0.364454,0.06462 0.469333,0.180504 0.199028,0.219938 0.220488,0.723415 0.04103,0.958375 -0.37361,0.489096 -1.194687,0.161738 -1.194687,-0.475907 0,-0.19327 0.07746,-0.402765 0.185434,-0.500518 0.123439,-0.111743 0.313978,-0.16584 0.498883,-0.162441 z m -1.242274,1.316117 c 0.569617,0 0.846776,0.604205 0.502156,1.09622 -0.117807,0.168198 -0.261481,0.226457 -0.557958,0.226457 -0.341328,0 -0.420537,-0.04442 -0.557951,-0.310169 -0.270972,-0.52397 0.02481,-1.01253 0.613753,-1.01253 z" />
</svg>
