<?xml version="1.0" encoding="UTF-8" standalone="no"?>
<svg
   width="64"
   height="64"
   version="1.1"
   id="svg73"
   sodipodi:docname="1password.svg"
   inkscape:version="1.4.2 (ebf0e940d0, 2025-05-08)"
   xmlns:inkscape="http://www.inkscape.org/namespaces/inkscape"
   xmlns:sodipodi="http://sodipodi.sourceforge.net/DTD/sodipodi-0.dtd"
   xmlns:xlink="http://www.w3.org/1999/xlink"
   xmlns="http://www.w3.org/2000/svg"
   xmlns:svg="http://www.w3.org/2000/svg"
   xmlns:rdf="http://www.w3.org/1999/02/22-rdf-syntax-ns#"
   xmlns:cc="http://creativecommons.org/ns#"
   xmlns:dc="http://purl.org/dc/elements/1.1/">
  <metadata
     id="metadata77">
    <rdf:RDF>
      <cc:Work
         rdf:about="">
        <dc:format>image/svg+xml</dc:format>
        <dc:type
           rdf:resource="http://purl.org/dc/dcmitype/StillImage" />
      </cc:Work>
    </rdf:RDF>
  </metadata>
  <sodipodi:namedview
     pagecolor="#f5f7fa"
     bordercolor="#666666"
     borderopacity="1"
     objecttolerance="10"
     gridtolerance="10"
     guidetolerance="10"
     inkscape:pageopacity="0"
     inkscape:pageshadow="2"
     inkscape:window-width="1198"
     inkscape:window-height="726"
     id="namedview75"
     showgrid="false"
     inkscape:zoom="6.2890624"
     inkscape:cx="39.274535"
     inkscape:cy="29.654659"
     inkscape:window-x="24"
     inkscape:window-y="21"
     inkscape:window-maximized="0"
     inkscape:current-layer="svg73"
     inkscape:document-rotation="0"
     inkscape:pagecheckerboard="0"
     inkscape:showpageshadow="2"
     inkscape:deskcolor="#d1d1d1" />
  <defs
     id="defs29">
    <linearGradient
       id="linearGradient4"
       inkscape:collect="always">
      <stop
         style="stop-color:#5ea9ac;stop-opacity:1;"
         offset="0"
         id="stop4" />
      <stop
         style="stop-color:#81bfc1;stop-opacity:1;"
         offset="0.5"
         id="stop1" />
    </linearGradient>
    <linearGradient
       id="linearGradient2"
       inkscape:collect="always">
      <stop
         style="stop-color:#ecf4f4;stop-opacity:1;"
         offset="0"
         id="stop2" />
      <stop
         style="stop-color:#d8e8e9;stop-opacity:1;"
         offset="1"
         id="stop3" />
    </linearGradient>
    <linearGradient
       inkscape:collect="always"
       xlink:href="#linearGradient2"
       id="linearGradient8"
       x1="31.721739"
       y1="5.2278585"
       x2="31.88887"
       y2="59.145416"
       gradientUnits="userSpaceOnUse"
       gradientTransform="matrix(0.8505,0,0,0.8505,4.7765033,4.7794869)" />
    <filter
       style="color-interpolation-filters:sRGB;"
       inkscape:label="Blur"
       id="filter9"
       x="-0.047762285"
       y="-0.047489063"
       width="1.0955246"
       height="1.0949781">
      <feGaussianBlur
         stdDeviation="1 1"
         result="blur"
         id="feGaussianBlur9" />
    </filter>
    <linearGradient
       inkscape:collect="always"
       xlink:href="#linearGradient4"
       id="linearGradient7"
       x1="26.723248"
       y1="58.711765"
       x2="25.756926"
       y2="5.950614"
       gradientUnits="userSpaceOnUse" />
    <filter
       style="color-interpolation-filters:sRGB;"
       inkscape:label="Out of Focus"
       id="filter40"
       x="-0.24226652"
       y="-0.2858297"
       width="1.484533"
       height="1.5716594">
      <feFlood
         flood-opacity="1"
         flood-color="rgb(255,255,255)"
         result="flood"
         id="feFlood38" />
      <feColorMatrix
         in="SourceGraphic"
         values="1 0 0 0 0 0 1 0 0 0 0 0 1 0 0 -0.2125 -0.7154 -0.0721 1 0 "
         result="colormatrix1"
         id="feColorMatrix38" />
      <feGaussianBlur
         in="colormatrix1"
         stdDeviation="3 3"
         result="blur"
         id="feGaussianBlur38" />
      <feColorMatrix
         in="blur"
         values="1 0 0 0 0 0 1 0 0 0 0 0 1 0 0 0 0 0 6 -2 "
         result="colormatrix2"
         id="feColorMatrix39" />
      <feBlend
         in="colormatrix2"
         in2="flood"
         mode="normal"
         result="blend"
         id="feBlend39" />
      <feComposite
         in="blend"
         in2="blend"
         operator="arithmetic"
         k2="0.2"
         result="composite1"
         id="feComposite39" />
      <feComposite
         in2="SourceGraphic"
         operator="in"
         id="feComposite40" />
    </filter>
  </defs>
  <g
     id="g877"
     transform="matrix(1.1,0,0,1.1,-3.1845928,-3.2065454)">
    <ellipse
       style="opacity:0.5;fill:#000000;stroke:none;stroke-width:3.89319;stroke-dasharray:none;stroke-opacity:1;filter:url(#filter9)"
       id="path2-5"
       cx="31.949858"
       cy="31.969812"
       rx="25.124426"
       ry="25.268976"
       transform="matrix(1.05,0,0,1.05,-1.5974929,-1.5984906)" />
    <path
       style="fill:#f5f7fa;stroke-width:0.204426;fill-opacity:1"
       d=""
       id="path3" />
    <circle
       style="opacity:1;fill:url(#linearGradient8);stroke:url(#linearGradient7);stroke-width:3.81818;stroke-dasharray:none;stroke-opacity:1"
       id="path2"
       cx="31.949856"
       cy="31.969812"
       r="24.711082" />
    <ellipse
       style="opacity:0.3;fill:none;stroke:#000000;stroke-width:0.974376;stroke-dasharray:none;stroke-opacity:1"
       id="path2-9"
       cx="31.949856"
       cy="31.969812"
       rx="23.129124"
       ry="23.129126" />
  </g>
  <path
     id="path17-9"
     style="fill:#000000;fill-opacity:1;stroke:none;stroke-width:1.03563;stroke-dasharray:none;stroke-dashoffset:2.2;stroke-opacity:0.3;opacity:0.2"
     d="m 31.423739,16.662361 c -0.231019,0.03098 -0.463544,0.225783 -0.625017,0.538041 -0.154338,0.298464 -0.180022,1.344002 -0.180022,7.429419 0,3.895957 -0.03994,7.084192 -0.089,7.083533 -0.04906,-6.56e-4 -1.921958,-1.547727 -4.160714,-3.436585 -2.238753,-1.888862 -4.158561,-3.46744 -4.26792,-3.509405 -0.109362,-0.04197 -0.328194,0.0084 -0.485449,0.111251 -0.484146,0.317225 -0.650566,1.05207 -0.374204,1.658621 0.0769,0.168775 2.017708,1.891032 4.312419,3.82697 2.294706,1.935942 4.184111,3.581346 4.199147,3.655041 0.01504,0.07368 -1.820071,1.631816 -4.079807,3.462881 -2.259736,1.831063 -4.192279,3.421042 -4.294217,3.533677 -0.304298,0.336221 -0.328172,1.16342 -0.04652,1.612094 0.460627,0.73381 0.522646,0.698307 5.004188,-2.943041 2.254546,-1.83186 4.140704,-3.331403 4.191056,-3.331403 0.05036,0 0.09103,3.154978 0.09103,7.010714 0,4.582072 0.04214,7.125602 0.123383,7.344472 0.06838,0.184175 0.21392,0.401641 0.321612,0.483426 0.10769,0.08177 0.310444,0.149666 0.451065,0.149666 0.263968,0 10.420135,-7.673461 11.029845,-8.333571 0.437631,-0.473824 0.467005,-1.434765 0.05867,-1.911468 -0.146871,-0.171448 -2.221803,-1.799187 -4.609764,-3.616592 -2.387976,-1.81741 -4.383488,-3.340222 -4.435817,-3.386018 -0.05232,-0.04579 1.914758,-1.624793 4.373105,-3.507382 2.458339,-1.882588 4.575664,-3.557598 4.704825,-3.721787 0.269807,-0.342986 0.315172,-1.239265 0.08295,-1.654582 -0.150369,-0.268911 -10.687543,-8.381558 -11.068289,-8.521681 -0.07414,-0.02728 -0.149535,-0.03664 -0.226546,-0.02626 z m 1.047767,3.513448 c 0.121928,0 7.544712,5.723305 7.544712,5.817321 0,0.0503 -1.669068,1.372618 -3.709653,2.936973 -2.040584,1.56436 -3.753772,2.860556 -3.806741,2.882366 -0.05296,0.02181 -0.09707,-2.585878 -0.09707,-5.797091 0,-3.211212 0.03143,-5.839569 0.06876,-5.839569 z m 0.02025,16.060329 c 0.172188,0.0033 7.463802,5.666759 7.463802,5.797091 0,0.07248 -1.679449,1.420579 -3.733923,2.995639 -2.05447,1.575052 -3.753669,2.862136 -3.776401,2.862136 -0.0227,0 -0.04248,-2.621675 -0.04248,-5.827432 0,-3.20576 0.03994,-5.828395 0.08899,-5.827434 z" />
  <path
     id="path17"
     style="fill:#4d4d4d;fill-opacity:1;stroke:none;stroke-width:1.03563;stroke-dasharray:none;stroke-dashoffset:2.2;stroke-opacity:0.3"
     d="m 31.423739,14.662361 c -0.231019,0.03098 -0.463544,0.225783 -0.625017,0.538041 -0.154338,0.298464 -0.180022,1.344002 -0.180022,7.429419 0,3.895957 -0.03994,7.084192 -0.089,7.083533 -0.04906,-6.56e-4 -1.921958,-1.547727 -4.160714,-3.436585 -2.238753,-1.888862 -4.158561,-3.46744 -4.26792,-3.509405 -0.109362,-0.04197 -0.328194,0.0084 -0.485449,0.111251 -0.484146,0.317225 -0.650566,1.05207 -0.374204,1.658621 0.0769,0.168775 2.017708,1.891032 4.312419,3.82697 2.294706,1.935942 4.184111,3.581346 4.199147,3.655041 0.01504,0.07368 -1.820071,1.631816 -4.079807,3.462881 -2.259736,1.831063 -4.192279,3.421042 -4.294217,3.533677 -0.304298,0.336221 -0.328172,1.16342 -0.04652,1.612094 0.460627,0.73381 0.522646,0.698307 5.004188,-2.943041 2.254546,-1.83186 4.140704,-3.331403 4.191056,-3.331403 0.05036,0 0.09103,3.154978 0.09103,7.010714 0,4.582072 0.04214,7.125602 0.123383,7.344472 0.06838,0.184175 0.21392,0.401641 0.321612,0.483426 0.10769,0.08177 0.310444,0.149666 0.451065,0.149666 0.263968,0 10.420135,-7.673461 11.029845,-8.333571 0.437631,-0.473824 0.467005,-1.434765 0.05867,-1.911468 -0.146871,-0.171448 -2.221803,-1.799187 -4.609764,-3.616592 -2.387976,-1.81741 -4.383488,-3.340222 -4.435817,-3.386018 -0.05232,-0.04579 1.914758,-1.624793 4.373105,-3.507382 2.458339,-1.882588 4.575664,-3.557598 4.704825,-3.721787 0.269807,-0.342986 0.315172,-1.239265 0.08295,-1.654582 -0.150369,-0.268911 -10.687543,-8.381558 -11.068289,-8.521681 -0.07414,-0.02728 -0.149535,-0.03664 -0.226546,-0.02626 z m 1.047767,3.513448 c 0.121928,0 7.544712,5.723305 7.544712,5.817321 0,0.0503 -1.669068,1.372618 -3.709653,2.936973 -2.040584,1.56436 -3.753772,2.860556 -3.806741,2.882366 -0.05296,0.02181 -0.09707,-2.585878 -0.09707,-5.797091 0,-3.211212 0.03143,-5.839569 0.06876,-5.839569 z m 0.02025,16.060329 c 0.172188,0.0033 7.463802,5.666759 7.463802,5.797091 0,0.07248 -1.679449,1.420579 -3.733923,2.995639 -2.05447,1.575052 -3.753669,2.862136 -3.776401,2.862136 -0.0227,0 -0.04248,-2.621675 -0.04248,-5.827432 0,-3.20576 0.03994,-5.828395 0.08899,-5.827434 z" />
</svg>
