<?xml version="1.0" encoding="UTF-8" standalone="no"?>
<svg
   width="64"
   height="64"
   version="1.1"
   id="svg73"
   sodipodi:docname="camera-photo.svg"
   inkscape:version="1.4.2 (ebf0e940d0, 2025-05-08)"
   xmlns:inkscape="http://www.inkscape.org/namespaces/inkscape"
   xmlns:sodipodi="http://sodipodi.sourceforge.net/DTD/sodipodi-0.dtd"
   xmlns:xlink="http://www.w3.org/1999/xlink"
   xmlns="http://www.w3.org/2000/svg"
   xmlns:svg="http://www.w3.org/2000/svg"
   xmlns:rdf="http://www.w3.org/1999/02/22-rdf-syntax-ns#"
   xmlns:cc="http://creativecommons.org/ns#"
   xmlns:dc="http://purl.org/dc/elements/1.1/">
  <metadata
     id="metadata77">
    <rdf:RDF>
      <cc:Work
         rdf:about="">
        <dc:format>image/svg+xml</dc:format>
        <dc:type
           rdf:resource="http://purl.org/dc/dcmitype/StillImage" />
      </cc:Work>
    </rdf:RDF>
  </metadata>
  <sodipodi:namedview
     pagecolor="#f5f7fa"
     bordercolor="#666666"
     borderopacity="1"
     objecttolerance="10"
     gridtolerance="10"
     guidetolerance="10"
     inkscape:pageopacity="0"
     inkscape:pageshadow="2"
     inkscape:window-width="1253"
     inkscape:window-height="697"
     id="namedview75"
     showgrid="false"
     inkscape:zoom="6.2890624"
     inkscape:cx="39.354038"
     inkscape:cy="29.575156"
     inkscape:window-x="24"
     inkscape:window-y="21"
     inkscape:window-maximized="0"
     inkscape:current-layer="svg73"
     inkscape:document-rotation="0"
     inkscape:pagecheckerboard="0"
     inkscape:showpageshadow="2"
     inkscape:deskcolor="#d1d1d1" />
  <defs
     id="defs29">
    <linearGradient
       id="linearGradient4"
       inkscape:collect="always">
      <stop
         style="stop-color:#5ea9ac;stop-opacity:1;"
         offset="0"
         id="stop4" />
      <stop
         style="stop-color:#81bfc1;stop-opacity:1;"
         offset="0.5"
         id="stop1" />
    </linearGradient>
    <linearGradient
       id="linearGradient2"
       inkscape:collect="always">
      <stop
         style="stop-color:#ecf4f4;stop-opacity:1;"
         offset="0"
         id="stop2" />
      <stop
         style="stop-color:#d8e8e9;stop-opacity:1;"
         offset="1"
         id="stop3" />
    </linearGradient>
    <linearGradient
       inkscape:collect="always"
       xlink:href="#linearGradient2"
       id="linearGradient8"
       x1="31.721739"
       y1="5.2278585"
       x2="31.88887"
       y2="59.145416"
       gradientUnits="userSpaceOnUse"
       gradientTransform="matrix(0.8505,0,0,0.8505,4.7765033,4.7794869)" />
    <filter
       style="color-interpolation-filters:sRGB;"
       inkscape:label="Blur"
       id="filter9"
       x="-0.047762285"
       y="-0.047489063"
       width="1.0955246"
       height="1.0949781">
      <feGaussianBlur
         stdDeviation="1 1"
         result="blur"
         id="feGaussianBlur9" />
    </filter>
    <linearGradient
       inkscape:collect="always"
       xlink:href="#linearGradient4"
       id="linearGradient7"
       x1="26.723248"
       y1="58.711765"
       x2="25.756926"
       y2="5.950614"
       gradientUnits="userSpaceOnUse" />
    <filter
       style="color-interpolation-filters:sRGB;"
       inkscape:label="Out of Focus"
       id="filter40"
       x="-0.24226652"
       y="-0.2858297"
       width="1.484533"
       height="1.5716594">
      <feFlood
         flood-opacity="1"
         flood-color="rgb(255,255,255)"
         result="flood"
         id="feFlood38" />
      <feColorMatrix
         in="SourceGraphic"
         values="1 0 0 0 0 0 1 0 0 0 0 0 1 0 0 -0.2125 -0.7154 -0.0721 1 0 "
         result="colormatrix1"
         id="feColorMatrix38" />
      <feGaussianBlur
         in="colormatrix1"
         stdDeviation="3 3"
         result="blur"
         id="feGaussianBlur38" />
      <feColorMatrix
         in="blur"
         values="1 0 0 0 0 0 1 0 0 0 0 0 1 0 0 0 0 0 6 -2 "
         result="colormatrix2"
         id="feColorMatrix39" />
      <feBlend
         in="colormatrix2"
         in2="flood"
         mode="normal"
         result="blend"
         id="feBlend39" />
      <feComposite
         in="blend"
         in2="blend"
         operator="arithmetic"
         k2="0.2"
         result="composite1"
         id="feComposite39" />
      <feComposite
         in2="SourceGraphic"
         operator="in"
         id="feComposite40" />
    </filter>
  </defs>
  <g
     id="g877"
     transform="matrix(1.1,0,0,1.1,-3.1845928,-3.2065454)">
    <ellipse
       style="opacity:0.5;fill:#000000;stroke:none;stroke-width:3.89319;stroke-dasharray:none;stroke-opacity:1;filter:url(#filter9)"
       id="path2-5"
       cx="31.949858"
       cy="31.969812"
       rx="25.124426"
       ry="25.268976"
       transform="matrix(1.05,0,0,1.05,-1.5974929,-1.5984906)" />
    <path
       style="fill:#f5f7fa;stroke-width:0.204426;fill-opacity:1"
       d=""
       id="path3" />
    <circle
       style="opacity:1;fill:url(#linearGradient8);stroke:url(#linearGradient7);stroke-width:3.81818;stroke-dasharray:none;stroke-opacity:1"
       id="path2"
       cx="31.949856"
       cy="31.969812"
       r="24.711082" />
    <ellipse
       style="opacity:0.3;fill:none;stroke:#000000;stroke-width:0.974376;stroke-dasharray:none;stroke-opacity:1"
       id="path2-9"
       cx="31.949856"
       cy="31.969812"
       rx="23.129124"
       ry="23.129126" />
  </g>
  <path
     id="path53-1"
     style="fill:#000000;fill-opacity:1;stroke:none;stroke-width:1.03563;stroke-dasharray:none;stroke-dashoffset:2.2;stroke-opacity:0.3;opacity:0.2"
     d="m 41.336836,17.852703 -2.823707,2.825728 -2.825729,2.823702 2.793363,2.79539 c 1.536585,1.537627 2.822314,2.795388 2.856073,2.795388 0.03411,0 1.31746,-1.257761 2.854044,-2.795388 l 2.795387,-2.79539 -2.825737,-2.823702 z m -18.675693,0.0021 -2.823707,2.821681 -2.823703,2.823706 1.007311,1.013378 c 0.553844,0.556736 1.035342,1.011354 1.070014,1.011354 0.03466,0 1.319631,-1.257906 2.856065,-2.795386 l 2.793366,-2.795388 -1.039671,-1.039673 z m 3.630766,3.624698 -2.825726,2.823706 -2.825729,2.823702 0.978994,0.983041 c 0.537868,0.540683 1.004988,0.983038 1.03967,0.983038 0.03466,0 1.320123,-1.256373 2.856071,-2.793367 l 2.793364,-2.795388 -1.007312,-1.011354 z m 5.706066,4.413556 c -0.535886,0 -1.070418,0.07563 -1.652556,0.224522 -1.310297,0.335118 -2.257669,0.875178 -3.23229,1.842689 -0.959628,0.952632 -1.375532,1.602177 -1.804259,2.829774 -0.385044,1.102511 -0.430254,2.859135 -0.103158,3.954399 0.860653,2.88187 3.202185,4.869814 6.080265,5.161961 3.618749,0.367338 6.862624,-2.057329 7.625622,-5.697978 0.739836,-3.530097 -1.620424,-7.160243 -5.259047,-8.090845 -0.582137,-0.148886 -1.118698,-0.224522 -1.654581,-0.224522 z m 0,3.023953 c 0.999233,0.0012 1.278301,0.04576 1.741556,0.27509 0.844504,0.418066 1.446633,0.999111 1.893256,1.826509 0.380378,0.704665 0.406932,0.822897 0.408588,1.881118 0.0015,0.998392 -0.03606,1.210319 -0.329706,1.808308 -0.479794,0.977049 -1.434633,1.810415 -2.423202,2.115755 -0.963442,0.297571 -1.66658,0.295899 -2.619411,-0.0061 -0.944626,-0.29936 -1.915383,-1.157953 -2.382753,-2.109687 -0.289111,-0.588736 -0.331725,-0.816412 -0.331725,-1.747622 0,-0.904658 0.04801,-1.17401 0.309472,-1.731439 0.426207,-0.908683 0.920029,-1.431238 1.798193,-1.90742 0.709618,-0.384786 0.806706,-0.405885 1.935732,-0.404545 z m -3.984739,13.260914 v 1.428038 1.428035 h 3.984739 3.986765 v -1.428114 -1.428038 h -3.986765 z m 0,4.996101 v 1.486686 1.486696 h 3.984739 3.986765 v -1.486808 -1.486691 h -3.986765 z" />
  <path
     id="path53"
     style="fill:#4d4d4d;fill-opacity:1;stroke:none;stroke-width:1.03563;stroke-dasharray:none;stroke-dashoffset:2.2;stroke-opacity:0.3"
     d="m 41.336836,15.852703 -2.823707,2.825728 -2.825729,2.823702 2.793363,2.79539 c 1.536585,1.537627 2.822314,2.795388 2.856073,2.795388 0.03411,0 1.31746,-1.257761 2.854044,-2.795388 l 2.795387,-2.79539 -2.825737,-2.823702 z m -18.675693,0.0021 -2.823707,2.821681 -2.823703,2.823706 1.007311,1.013378 c 0.553844,0.556736 1.035342,1.011354 1.070014,1.011354 0.03466,0 1.319631,-1.257906 2.856065,-2.795386 l 2.793366,-2.795388 -1.039671,-1.039673 z m 3.630766,3.624698 -2.825726,2.823706 -2.825729,2.823702 0.978994,0.983041 c 0.537868,0.540683 1.004988,0.983038 1.03967,0.983038 0.03466,0 1.320123,-1.256373 2.856071,-2.793367 l 2.793364,-2.795388 -1.007312,-1.011354 z m 5.706066,4.413556 c -0.535886,0 -1.070418,0.07563 -1.652556,0.224522 -1.310297,0.335118 -2.257669,0.875178 -3.23229,1.842689 -0.959628,0.952632 -1.375532,1.602177 -1.804259,2.829774 -0.385044,1.102511 -0.430254,2.859135 -0.103158,3.954399 0.860653,2.88187 3.202185,4.869814 6.080265,5.161961 3.618749,0.367338 6.862624,-2.057329 7.625622,-5.697978 0.739836,-3.530097 -1.620424,-7.160243 -5.259047,-8.090845 -0.582137,-0.148886 -1.118698,-0.224522 -1.654581,-0.224522 z m 0,3.023953 c 0.999233,0.0012 1.278301,0.04576 1.741556,0.27509 0.844504,0.418066 1.446633,0.999111 1.893256,1.826509 0.380378,0.704665 0.406932,0.822897 0.408588,1.881118 0.0015,0.998392 -0.03606,1.210319 -0.329706,1.808308 -0.479794,0.977049 -1.434633,1.810415 -2.423202,2.115755 -0.963442,0.297571 -1.66658,0.295899 -2.619411,-0.0061 -0.944626,-0.29936 -1.915383,-1.157953 -2.382753,-2.109687 -0.289111,-0.588736 -0.331725,-0.816412 -0.331725,-1.747622 0,-0.904658 0.04801,-1.17401 0.309472,-1.731439 0.426207,-0.908683 0.920029,-1.431238 1.798193,-1.90742 0.709618,-0.384786 0.806706,-0.405885 1.935732,-0.404545 z m -3.984739,13.260914 v 1.428038 1.428035 h 3.984739 3.986765 v -1.428114 -1.428038 h -3.986765 z m 0,4.996101 v 1.486686 1.486696 h 3.984739 3.986765 v -1.486808 -1.486691 h -3.986765 z" />
</svg>
