<?xml version="1.0" encoding="UTF-8" standalone="no"?>
<svg
   width="64"
   height="64"
   version="1.1"
   id="svg73"
   sodipodi:docname="abcd.svg"
   inkscape:version="1.4.2 (ebf0e940d0, 2025-05-08)"
   xmlns:inkscape="http://www.inkscape.org/namespaces/inkscape"
   xmlns:sodipodi="http://sodipodi.sourceforge.net/DTD/sodipodi-0.dtd"
   xmlns:xlink="http://www.w3.org/1999/xlink"
   xmlns="http://www.w3.org/2000/svg"
   xmlns:svg="http://www.w3.org/2000/svg"
   xmlns:rdf="http://www.w3.org/1999/02/22-rdf-syntax-ns#"
   xmlns:cc="http://creativecommons.org/ns#"
   xmlns:dc="http://purl.org/dc/elements/1.1/">
  <metadata
     id="metadata77">
    <rdf:RDF>
      <cc:Work
         rdf:about="">
        <dc:format>image/svg+xml</dc:format>
        <dc:type
           rdf:resource="http://purl.org/dc/dcmitype/StillImage" />
      </cc:Work>
    </rdf:RDF>
  </metadata>
  <sodipodi:namedview
     pagecolor="#f5f7fa"
     bordercolor="#666666"
     borderopacity="1"
     objecttolerance="10"
     gridtolerance="10"
     guidetolerance="10"
     inkscape:pageopacity="0"
     inkscape:pageshadow="2"
     inkscape:window-width="1920"
     inkscape:window-height="931"
     id="namedview75"
     showgrid="false"
     inkscape:zoom="6.2890624"
     inkscape:cx="53.585094"
     inkscape:cy="29.734162"
     inkscape:window-x="0"
     inkscape:window-y="0"
     inkscape:window-maximized="1"
     inkscape:current-layer="svg73"
     inkscape:document-rotation="0"
     inkscape:pagecheckerboard="0"
     inkscape:showpageshadow="2"
     inkscape:deskcolor="#d1d1d1" />
  <defs
     id="defs29">
    <linearGradient
       id="linearGradient4"
       inkscape:collect="always">
      <stop
         style="stop-color:#5ea9ac;stop-opacity:1;"
         offset="0"
         id="stop4" />
      <stop
         style="stop-color:#81bfc1;stop-opacity:1;"
         offset="0.5"
         id="stop1" />
    </linearGradient>
    <linearGradient
       id="linearGradient2"
       inkscape:collect="always">
      <stop
         style="stop-color:#ecf4f4;stop-opacity:1;"
         offset="0"
         id="stop2" />
      <stop
         style="stop-color:#d8e8e9;stop-opacity:1;"
         offset="1"
         id="stop3" />
    </linearGradient>
    <linearGradient
       inkscape:collect="always"
       xlink:href="#linearGradient2"
       id="linearGradient8"
       x1="31.721739"
       y1="5.2278585"
       x2="31.88887"
       y2="59.145416"
       gradientUnits="userSpaceOnUse"
       gradientTransform="matrix(0.8505,0,0,0.8505,4.7765033,4.7794869)" />
    <filter
       style="color-interpolation-filters:sRGB;"
       inkscape:label="Blur"
       id="filter9"
       x="-0.047762285"
       y="-0.047489063"
       width="1.0955246"
       height="1.0949781">
      <feGaussianBlur
         stdDeviation="1 1"
         result="blur"
         id="feGaussianBlur9" />
    </filter>
    <linearGradient
       inkscape:collect="always"
       xlink:href="#linearGradient4"
       id="linearGradient7"
       x1="26.723248"
       y1="58.711765"
       x2="25.756926"
       y2="5.950614"
       gradientUnits="userSpaceOnUse" />
    <filter
       style="color-interpolation-filters:sRGB;"
       inkscape:label="Out of Focus"
       id="filter40"
       x="-0.24226652"
       y="-0.2858297"
       width="1.484533"
       height="1.5716594">
      <feFlood
         flood-opacity="1"
         flood-color="rgb(255,255,255)"
         result="flood"
         id="feFlood38" />
      <feColorMatrix
         in="SourceGraphic"
         values="1 0 0 0 0 0 1 0 0 0 0 0 1 0 0 -0.2125 -0.7154 -0.0721 1 0 "
         result="colormatrix1"
         id="feColorMatrix38" />
      <feGaussianBlur
         in="colormatrix1"
         stdDeviation="3 3"
         result="blur"
         id="feGaussianBlur38" />
      <feColorMatrix
         in="blur"
         values="1 0 0 0 0 0 1 0 0 0 0 0 1 0 0 0 0 0 6 -2 "
         result="colormatrix2"
         id="feColorMatrix39" />
      <feBlend
         in="colormatrix2"
         in2="flood"
         mode="normal"
         result="blend"
         id="feBlend39" />
      <feComposite
         in="blend"
         in2="blend"
         operator="arithmetic"
         k2="0.2"
         result="composite1"
         id="feComposite39" />
      <feComposite
         in2="SourceGraphic"
         operator="in"
         id="feComposite40" />
    </filter>
  </defs>
  <g
     id="g877"
     transform="matrix(1.1,0,0,1.1,-3.1845928,-3.2065454)">
    <ellipse
       style="opacity:0.5;fill:#000000;stroke:none;stroke-width:3.89319;stroke-dasharray:none;stroke-opacity:1;filter:url(#filter9)"
       id="path2-5"
       cx="31.949858"
       cy="31.969812"
       rx="25.124426"
       ry="25.268976"
       transform="matrix(1.05,0,0,1.05,-1.5974929,-1.5984906)" />
    <path
       style="fill:#f5f7fa;stroke-width:0.204426;fill-opacity:1"
       d=""
       id="path3" />
    <circle
       style="opacity:1;fill:url(#linearGradient8);stroke:url(#linearGradient7);stroke-width:3.81818;stroke-dasharray:none;stroke-opacity:1"
       id="path2"
       cx="31.949856"
       cy="31.969812"
       r="24.711082" />
    <ellipse
       style="opacity:0.3;fill:none;stroke:#000000;stroke-width:0.974376;stroke-dasharray:none;stroke-opacity:1"
       id="path2-9"
       cx="31.949856"
       cy="31.969812"
       rx="23.129124"
       ry="23.129126" />
  </g>
  <path
     id="path3211-5"
     style="fill:#000000;fill-opacity:1;stroke:none;stroke-width:0.086795;stroke-opacity:1;opacity:0.2"
     d="m 39.124337,21.005452 c -1.042842,-0.01636 -1.954718,0.399142 -2.80672,1.262009 -0.204747,0.207356 -0.489905,0.581095 -0.633033,0.830518 -0.252856,0.440629 -0.540867,0.71446 -1.562297,1.485196 -0.951496,0.717966 -2.34844,2.303901 -4.295975,4.874903 -1.232776,1.627424 -2.29867,3.134603 -2.975801,4.209406 -1.164954,1.849119 -2.164363,2.978336 -3.443813,3.890184 -0.388281,0.276721 -0.989752,0.765918 -1.336404,1.086167 l -0.63033,0.581633 0.144734,0.279996 c 0.144489,0.279414 0.144154,0.280497 -0.139322,0.53835 -0.212544,0.193332 -0.246637,0.259158 -0.135263,0.261057 0.08186,0.0013 0.191023,0.08038 0.242122,0.175843 0.05108,0.09548 0.109879,0.174491 0.131204,0.174491 0.02133,0 0.49405,-0.392882 1.049648,-0.872451 0.555596,-0.479571 1.024646,-0.856869 1.042881,-0.838635 0.01824,0.01825 -0.04508,0.260491 -0.140673,0.53835 -0.09559,0.277861 -0.17449,0.526697 -0.17449,0.553229 0,0.02654 0.195509,-0.143642 0.434195,-0.378739 l 0.434197,-0.427432 v 0.335455 c 0,0.333586 0.0033,0.329772 0.614097,-0.595162 0.687539,-1.041022 1.666875,-2.134463 1.911276,-2.134463 0.278382,0 2.214135,-0.669132 3.000148,-1.03747 l 0.754772,-0.354392 0.266469,0.239418 c 0.146715,0.131138 0.529936,0.492107 0.852161,0.802114 l 0.585692,0.562696 v -0.834577 c 0,-0.901741 0.02206,-0.940045 0.507239,-0.93873 0.214231,5.67e-4 0.241245,0.04445 0.373327,0.592455 0.148007,0.614066 0.734136,2.065847 0.86704,2.147987 0.04168,0.02576 0.07575,-0.224524 0.07575,-0.555933 0,-0.551508 0.01604,-0.606774 0.19478,-0.654676 0.408169,-0.109384 0.564973,-0.06335 0.626271,0.183957 0.06901,0.278432 0.710243,1.586536 0.839988,1.713793 0.06011,0.05896 0.068,-0.449046 0.0257,-1.58394 -0.05447,-1.460925 -0.04445,-1.670506 0.07033,-1.670506 0.0722,0 0.242846,-0.02265 0.38009,-0.05005 0.240553,-0.04804 0.253575,-0.0329 0.35845,0.412555 0.05984,0.254151 0.262859,0.782372 0.450428,1.174088 0.339701,0.709427 1.030954,1.805525 1.096988,1.73949 0.02909,-0.02909 -0.602658,-1.981371 -0.781824,-2.415808 -0.04157,-0.100815 0.03626,-0.178256 0.294875,-0.294876 0.193417,-0.08721 0.361195,-0.143846 0.373328,-0.124441 0.804019,1.285775 1.407372,1.906005 2.526725,2.598416 0.66775,0.413053 2.057668,0.985138 2.272428,0.93467 0.06124,-0.0144 -0.281202,-0.556569 -0.795348,-1.259303 -0.49675,-0.678954 -0.903562,-1.288057 -0.903562,-1.352638 0,-0.06458 0.09654,-0.207786 0.213717,-0.31787 l 0.212364,-0.200189 0.56946,0.24212 c 0.31301,0.133031 0.589191,0.222393 0.612745,0.198839 0.05992,-0.05993 -1.314027,-1.694907 -2.686337,-3.197633 -0.907795,-0.994068 -1.267852,-1.464131 -1.686738,-2.203446 -0.51659,-0.911748 -0.619673,-1.179499 -0.453134,-1.179499 0.164071,0 0.631242,-0.558465 0.88192,-1.055057 0.280544,-0.555753 0.59788,-1.665849 0.819697,-2.873 0.134835,-0.733789 0.154816,-0.776854 0.570812,-1.165968 0.532455,-0.498049 1.069129,-1.542793 1.255247,-2.44557 0.0726,-0.352128 0.190753,-0.754165 0.262412,-0.89274 0.128161,-0.247843 0.126676,-0.251001 -0.08116,-0.198837 -0.132115,0.03317 -0.516141,-0.05101 -1.023946,-0.225889 -0.534954,-0.184243 -1.035522,-0.282033 -1.509543,-0.289465 z m -22.540338,2.376582 0.127148,0.196132 c 0.06984,0.107404 1.855492,2.840705 3.967283,6.074691 l 3.838784,5.879914 0.373328,-0.449077 c 0.205287,-0.247205 0.622767,-0.834223 0.926556,-1.303942 2.907907,-4.496255 6.601053,-9.086863 8.045482,-9.99869 0.190326,-0.120147 0.372385,-0.258731 0.403086,-0.308401 0.03851,-0.06233 -2.692192,-0.09063 -8.812427,-0.09063 z m 28.182187,0 c -2.445623,0 -2.653305,0.01264 -2.701216,0.152849 -0.209185,0.612154 -0.712476,1.481512 -1.102398,1.905863 -0.437808,0.476464 -0.468016,0.542288 -0.610039,1.283654 -0.316347,1.651317 -0.674689,2.666341 -1.197086,3.393765 l -0.284052,0.396321 0.301637,0.573518 c 0.16612,0.315716 0.631165,0.938555 1.033415,1.383749 0.40225,0.445193 0.758549,0.779532 0.791291,0.742598 0.04903,-0.05529 2.819518,-4.29921 5.782524,-8.855713 L 47.416,23.382034 Z m -14.258144,12.997485 -0.834578,0.358449 c -0.459692,0.197179 -1.235474,0.476329 -1.723258,0.620861 -0.7657,0.226877 -0.936258,0.31258 -1.245779,0.628976 l -0.358448,0.366566 2.825658,4.320321 2.825658,4.32032 1.266068,-1.932916 c 0.696271,-1.063462 1.657199,-2.53173 2.13446,-3.26256 l 0.867041,-1.328289 -0.390913,-0.407145 c -0.215234,-0.223908 -0.518466,-0.599644 -0.673614,-0.834575 l -0.2827,-0.427435 v 0.883273 c 0,0.485552 -0.03082,0.881918 -0.06898,0.881918 -0.09342,0 -1.053032,-1.392538 -1.4365,-2.084412 -0.309142,-0.557776 -0.33233,-0.56029 -0.445018,-0.05005 l -0.05546,0.252943 -0.493712,-0.469365 C 32.14628,37.958603 31.605978,37.440501 31.216826,37.063958 Z m 6.181549,1.671862 c -0.01977,0 -0.03517,0.38967 -0.03517,0.867039 0,0.477369 0.01493,0.868392 0.0338,0.868392 0.0189,0 0.158004,-0.191708 0.308402,-0.426079 L 37.26987,38.93465 36.997989,38.492339 c -0.149508,-0.242996 -0.28862,-0.440958 -0.308392,-0.440958 z" />
  <path
     id="path3211"
     style="fill:#4d4d4d;fill-opacity:1;stroke:none;stroke-width:0.086795;stroke-opacity:1"
     d="m 39.124337,19.005452 c -1.042842,-0.01636 -1.954718,0.399142 -2.80672,1.262009 -0.204747,0.207356 -0.489905,0.581095 -0.633033,0.830518 -0.252856,0.440629 -0.540867,0.71446 -1.562297,1.485196 -0.951496,0.717966 -2.34844,2.303901 -4.295975,4.874903 -1.232776,1.627424 -2.29867,3.134603 -2.975801,4.209406 -1.164954,1.849119 -2.164363,2.978336 -3.443813,3.890184 -0.388281,0.276721 -0.989752,0.765918 -1.336404,1.086167 l -0.63033,0.581633 0.144734,0.279996 c 0.144489,0.279414 0.144154,0.280497 -0.139322,0.53835 -0.212544,0.193332 -0.246637,0.259158 -0.135263,0.261057 0.08186,0.0013 0.191023,0.08038 0.242122,0.175843 0.05108,0.09548 0.109879,0.174491 0.131204,0.174491 0.02133,0 0.49405,-0.392882 1.049648,-0.872451 0.555596,-0.479571 1.024646,-0.856869 1.042881,-0.838635 0.01824,0.01825 -0.04508,0.260491 -0.140673,0.53835 -0.09559,0.277861 -0.17449,0.526697 -0.17449,0.553229 0,0.02654 0.195509,-0.143642 0.434195,-0.378739 l 0.434197,-0.427432 v 0.335455 c 0,0.333586 0.0033,0.329772 0.614097,-0.595162 0.687539,-1.041022 1.666875,-2.134463 1.911276,-2.134463 0.278382,0 2.214135,-0.669132 3.000148,-1.03747 l 0.754772,-0.354392 0.266469,0.239418 c 0.146715,0.131138 0.529936,0.492107 0.852161,0.802114 l 0.585692,0.562696 v -0.834577 c 0,-0.901741 0.02206,-0.940045 0.507239,-0.93873 0.214231,5.67e-4 0.241245,0.04445 0.373327,0.592455 0.148007,0.614066 0.734136,2.065847 0.86704,2.147987 0.04168,0.02576 0.07575,-0.224524 0.07575,-0.555933 0,-0.551508 0.01604,-0.606774 0.19478,-0.654676 0.408169,-0.109384 0.564973,-0.06335 0.626271,0.183957 0.06901,0.278432 0.710243,1.586536 0.839988,1.713793 0.06011,0.05896 0.068,-0.449046 0.0257,-1.58394 -0.05447,-1.460925 -0.04445,-1.670506 0.07033,-1.670506 0.0722,0 0.242846,-0.02265 0.38009,-0.05005 0.240553,-0.04804 0.253575,-0.0329 0.35845,0.412555 0.05984,0.254151 0.262859,0.782372 0.450428,1.174088 0.339701,0.709427 1.030954,1.805525 1.096988,1.73949 0.02909,-0.02909 -0.602658,-1.981371 -0.781824,-2.415808 -0.04157,-0.100815 0.03626,-0.178256 0.294875,-0.294876 0.193417,-0.08721 0.361195,-0.143846 0.373328,-0.124441 0.804019,1.285775 1.407372,1.906005 2.526725,2.598416 0.66775,0.413053 2.057668,0.985138 2.272428,0.93467 0.06124,-0.0144 -0.281202,-0.556569 -0.795348,-1.259303 -0.49675,-0.678954 -0.903562,-1.288057 -0.903562,-1.352638 0,-0.06458 0.09654,-0.207786 0.213717,-0.31787 l 0.212364,-0.200189 0.56946,0.24212 c 0.31301,0.133031 0.589191,0.222393 0.612745,0.198839 0.05992,-0.05993 -1.314027,-1.694907 -2.686337,-3.197633 -0.907795,-0.994068 -1.267852,-1.464131 -1.686738,-2.203446 -0.51659,-0.911748 -0.619673,-1.179499 -0.453134,-1.179499 0.164071,0 0.631242,-0.558465 0.88192,-1.055057 0.280544,-0.555753 0.59788,-1.665849 0.819697,-2.873 0.134835,-0.733789 0.154816,-0.776854 0.570812,-1.165968 0.532455,-0.498049 1.069129,-1.542793 1.255247,-2.44557 0.0726,-0.352128 0.190753,-0.754165 0.262412,-0.89274 0.128161,-0.247843 0.126676,-0.251001 -0.08116,-0.198837 -0.132115,0.03317 -0.516141,-0.05101 -1.023946,-0.225889 -0.534954,-0.184243 -1.035522,-0.282033 -1.509543,-0.289465 z m -22.540338,2.376582 0.127148,0.196132 c 0.06984,0.107404 1.855492,2.840705 3.967283,6.074691 l 3.838784,5.879914 0.373328,-0.449077 c 0.205287,-0.247205 0.622767,-0.834223 0.926556,-1.303942 2.907907,-4.496255 6.601053,-9.086863 8.045482,-9.99869 0.190326,-0.120147 0.372385,-0.258731 0.403086,-0.308401 0.03851,-0.06233 -2.692192,-0.09063 -8.812427,-0.09063 z m 28.182187,0 c -2.445623,0 -2.653305,0.01264 -2.701216,0.152849 -0.209185,0.612154 -0.712476,1.481512 -1.102398,1.905863 -0.437808,0.476464 -0.468016,0.542288 -0.610039,1.283654 -0.316347,1.651317 -0.674689,2.666341 -1.197086,3.393765 l -0.284052,0.396321 0.301637,0.573518 c 0.16612,0.315716 0.631165,0.938555 1.033415,1.383749 0.40225,0.445193 0.758549,0.779532 0.791291,0.742598 0.04903,-0.05529 2.819518,-4.29921 5.782524,-8.855713 L 47.416,21.382034 Z m -14.258144,12.997485 -0.834578,0.358449 c -0.459692,0.197179 -1.235474,0.476329 -1.723258,0.620861 -0.7657,0.226877 -0.936258,0.31258 -1.245779,0.628976 l -0.358448,0.366566 2.825658,4.320321 2.825658,4.32032 1.266068,-1.932916 c 0.696271,-1.063462 1.657199,-2.53173 2.13446,-3.26256 l 0.867041,-1.328289 -0.390913,-0.407145 c -0.215234,-0.223908 -0.518466,-0.599644 -0.673614,-0.834575 l -0.2827,-0.427435 v 0.883273 c 0,0.485552 -0.03082,0.881918 -0.06898,0.881918 -0.09342,0 -1.053032,-1.392538 -1.4365,-2.084412 -0.309142,-0.557776 -0.33233,-0.56029 -0.445018,-0.05005 l -0.05546,0.252943 -0.493712,-0.469365 C 32.14628,35.958603 31.605978,35.440501 31.216826,35.063958 Z m 6.181549,1.671862 c -0.01977,0 -0.03517,0.38967 -0.03517,0.867039 0,0.477369 0.01493,0.868392 0.0338,0.868392 0.0189,0 0.158004,-0.191708 0.308402,-0.426079 L 37.26987,36.93465 36.997989,36.492339 c -0.149508,-0.242996 -0.28862,-0.440958 -0.308392,-0.440958 z" />
</svg>
