<?xml version="1.0" encoding="UTF-8" standalone="no"?>
<svg
   width="64"
   height="64"
   version="1.1"
   id="svg73"
   sodipodi:docname="abcd.svg"
   inkscape:version="1.4.2 (ebf0e940d0, 2025-05-08)"
   xmlns:inkscape="http://www.inkscape.org/namespaces/inkscape"
   xmlns:sodipodi="http://sodipodi.sourceforge.net/DTD/sodipodi-0.dtd"
   xmlns:xlink="http://www.w3.org/1999/xlink"
   xmlns="http://www.w3.org/2000/svg"
   xmlns:svg="http://www.w3.org/2000/svg"
   xmlns:rdf="http://www.w3.org/1999/02/22-rdf-syntax-ns#"
   xmlns:cc="http://creativecommons.org/ns#"
   xmlns:dc="http://purl.org/dc/elements/1.1/">
  <metadata
     id="metadata77">
    <rdf:RDF>
      <cc:Work
         rdf:about="">
        <dc:format>image/svg+xml</dc:format>
        <dc:type
           rdf:resource="http://purl.org/dc/dcmitype/StillImage" />
      </cc:Work>
    </rdf:RDF>
  </metadata>
  <sodipodi:namedview
     pagecolor="#f5f7fa"
     bordercolor="#666666"
     borderopacity="1"
     objecttolerance="10"
     gridtolerance="10"
     guidetolerance="10"
     inkscape:pageopacity="0"
     inkscape:pageshadow="2"
     inkscape:window-width="1462"
     inkscape:window-height="840"
     id="namedview75"
     showgrid="false"
     inkscape:zoom="6.2890624"
     inkscape:cx="53.585094"
     inkscape:cy="29.654659"
     inkscape:window-x="24"
     inkscape:window-y="21"
     inkscape:window-maximized="0"
     inkscape:current-layer="svg73"
     inkscape:document-rotation="0"
     inkscape:pagecheckerboard="0"
     inkscape:showpageshadow="2"
     inkscape:deskcolor="#d1d1d1" />
  <defs
     id="defs29">
    <linearGradient
       id="linearGradient4"
       inkscape:collect="always">
      <stop
         style="stop-color:#5ea9ac;stop-opacity:1;"
         offset="0"
         id="stop4" />
      <stop
         style="stop-color:#81bfc1;stop-opacity:1;"
         offset="0.5"
         id="stop1" />
    </linearGradient>
    <linearGradient
       id="linearGradient2"
       inkscape:collect="always">
      <stop
         style="stop-color:#ecf4f4;stop-opacity:1;"
         offset="0"
         id="stop2" />
      <stop
         style="stop-color:#d8e8e9;stop-opacity:1;"
         offset="1"
         id="stop3" />
    </linearGradient>
    <linearGradient
       inkscape:collect="always"
       xlink:href="#linearGradient2"
       id="linearGradient8"
       x1="31.721739"
       y1="5.2278585"
       x2="31.88887"
       y2="59.145416"
       gradientUnits="userSpaceOnUse"
       gradientTransform="matrix(0.8505,0,0,0.8505,4.7765033,4.7794869)" />
    <filter
       style="color-interpolation-filters:sRGB;"
       inkscape:label="Blur"
       id="filter9"
       x="-0.047762285"
       y="-0.047489063"
       width="1.0955246"
       height="1.0949781">
      <feGaussianBlur
         stdDeviation="1 1"
         result="blur"
         id="feGaussianBlur9" />
    </filter>
    <linearGradient
       inkscape:collect="always"
       xlink:href="#linearGradient4"
       id="linearGradient7"
       x1="26.723248"
       y1="58.711765"
       x2="25.756926"
       y2="5.950614"
       gradientUnits="userSpaceOnUse" />
    <filter
       style="color-interpolation-filters:sRGB;"
       inkscape:label="Out of Focus"
       id="filter40"
       x="-0.24226652"
       y="-0.2858297"
       width="1.484533"
       height="1.5716594">
      <feFlood
         flood-opacity="1"
         flood-color="rgb(255,255,255)"
         result="flood"
         id="feFlood38" />
      <feColorMatrix
         in="SourceGraphic"
         values="1 0 0 0 0 0 1 0 0 0 0 0 1 0 0 -0.2125 -0.7154 -0.0721 1 0 "
         result="colormatrix1"
         id="feColorMatrix38" />
      <feGaussianBlur
         in="colormatrix1"
         stdDeviation="3 3"
         result="blur"
         id="feGaussianBlur38" />
      <feColorMatrix
         in="blur"
         values="1 0 0 0 0 0 1 0 0 0 0 0 1 0 0 0 0 0 6 -2 "
         result="colormatrix2"
         id="feColorMatrix39" />
      <feBlend
         in="colormatrix2"
         in2="flood"
         mode="normal"
         result="blend"
         id="feBlend39" />
      <feComposite
         in="blend"
         in2="blend"
         operator="arithmetic"
         k2="0.2"
         result="composite1"
         id="feComposite39" />
      <feComposite
         in2="SourceGraphic"
         operator="in"
         id="feComposite40" />
    </filter>
  </defs>
  <g
     id="g877"
     transform="matrix(1.1,0,0,1.1,-3.1845928,-3.2065454)">
    <ellipse
       style="opacity:0.5;fill:#000000;stroke:none;stroke-width:3.89319;stroke-dasharray:none;stroke-opacity:1;filter:url(#filter9)"
       id="path2-5"
       cx="31.949858"
       cy="31.969812"
       rx="25.124426"
       ry="25.268976"
       transform="matrix(1.05,0,0,1.05,-1.5974929,-1.5984906)" />
    <path
       style="fill:#f5f7fa;stroke-width:0.204426;fill-opacity:1"
       d=""
       id="path3" />
    <circle
       style="opacity:1;fill:url(#linearGradient8);stroke:url(#linearGradient7);stroke-width:3.81818;stroke-dasharray:none;stroke-opacity:1"
       id="path2"
       cx="31.949856"
       cy="31.969812"
       r="24.711082" />
    <ellipse
       style="opacity:0.3;fill:none;stroke:#000000;stroke-width:0.974376;stroke-dasharray:none;stroke-opacity:1"
       id="path2-9"
       cx="31.949856"
       cy="31.969812"
       rx="23.129124"
       ry="23.129126" />
  </g>
  <path
     d="m 31.839216,18.334572 c -0.374697,0.0065 -0.750699,0.04306 -1.118874,0.107063 -3.044584,0.926956 -5.130881,3.581176 -6.709313,6.202757 -2.48319,4.390628 -4.038124,9.462761 -3.719566,14.541425 0.468699,5.190941 4.792741,9.697765 9.954961,10.385793 0.567921,0.07571 1.141064,0.08488 1.712907,0.08874 5.339777,0.18535 10.404068,-3.873615 11.49292,-9.089361 0.780729,-3.749575 -0.08876,-7.633644 -1.292515,-11.19654 -1.45571,-3.886663 -3.534175,-7.851672 -7.119264,-10.159919 -0.951761,-0.641036 -2.075855,-0.899538 -3.201255,-0.879953 z m 0.326391,9.148118 c 0.921736,0.07962 1.822576,0.600556 2.417915,1.316013 1.954435,2.14766 3.091578,5.032965 3.253484,7.922189 0.342054,2.818722 -1.698554,5.616558 -4.449387,6.25237 -2.17377,0.537892 -4.565573,-0.254586 -5.959919,-2.011881 -1.438737,-1.642407 -1.493571,-3.962403 -1.081008,-5.995174 0.638421,-2.684249 1.83171,-5.506885 4.202622,-7.095765 0.505257,-0.323779 1.06404,-0.436058 1.616293,-0.387752 z"
     fill="#02ad7b"
     fill-rule="nonzero"
     id="path2-50-2"
     style="fill:#000000;fill-opacity:1;stroke:none;stroke-width:0.505459;stroke-dasharray:none;stroke-opacity:0.6;opacity:0.2" />
  <path
     d="m 31.839216,16.334572 c -0.374697,0.0065 -0.750699,0.04306 -1.118874,0.107063 -3.044584,0.926956 -5.130881,3.581176 -6.709313,6.202757 -2.48319,4.390628 -4.038124,9.462761 -3.719566,14.541425 0.468699,5.190941 4.792741,9.697765 9.954961,10.385793 0.567921,0.07571 1.141064,0.08488 1.712907,0.08874 5.339777,0.18535 10.404068,-3.873615 11.49292,-9.089361 0.780729,-3.749575 -0.08876,-7.633644 -1.292515,-11.19654 -1.45571,-3.886663 -3.534175,-7.851672 -7.119264,-10.159919 -0.951761,-0.641036 -2.075855,-0.899538 -3.201255,-0.879953 z m 0.326391,9.148118 c 0.921736,0.07962 1.822576,0.600556 2.417915,1.316013 1.954435,2.14766 3.091578,5.032965 3.253484,7.922189 0.342054,2.818722 -1.698554,5.616558 -4.449387,6.25237 -2.17377,0.537892 -4.565573,-0.254586 -5.959919,-2.011881 -1.438737,-1.642407 -1.493571,-3.962403 -1.081008,-5.995174 0.638421,-2.684249 1.83171,-5.506885 4.202622,-7.095765 0.505257,-0.323779 1.06404,-0.436058 1.616293,-0.387752 z"
     fill="#02ad7b"
     fill-rule="nonzero"
     id="path2-50"
     style="fill:#4d4d4d;fill-opacity:1;stroke:none;stroke-width:0.505459;stroke-dasharray:none;stroke-opacity:0.6" />
</svg>
