<?xml version="1.0" encoding="UTF-8" standalone="no"?>
<svg
   width="64"
   height="64"
   version="1.1"
   id="svg73"
   sodipodi:docname="chromium.svg"
   inkscape:version="1.4.2 (ebf0e940d0, 2025-05-08)"
   xmlns:inkscape="http://www.inkscape.org/namespaces/inkscape"
   xmlns:sodipodi="http://sodipodi.sourceforge.net/DTD/sodipodi-0.dtd"
   xmlns:xlink="http://www.w3.org/1999/xlink"
   xmlns="http://www.w3.org/2000/svg"
   xmlns:svg="http://www.w3.org/2000/svg"
   xmlns:rdf="http://www.w3.org/1999/02/22-rdf-syntax-ns#"
   xmlns:cc="http://creativecommons.org/ns#"
   xmlns:dc="http://purl.org/dc/elements/1.1/">
  <metadata
     id="metadata77">
    <rdf:RDF>
      <cc:Work
         rdf:about="">
        <dc:format>image/svg+xml</dc:format>
        <dc:type
           rdf:resource="http://purl.org/dc/dcmitype/StillImage" />
      </cc:Work>
    </rdf:RDF>
  </metadata>
  <sodipodi:namedview
     pagecolor="#f5f7fa"
     bordercolor="#666666"
     borderopacity="1"
     objecttolerance="10"
     gridtolerance="10"
     guidetolerance="10"
     inkscape:pageopacity="0"
     inkscape:pageshadow="2"
     inkscape:window-width="1920"
     inkscape:window-height="931"
     id="namedview75"
     showgrid="false"
     inkscape:zoom="6.2890624"
     inkscape:cx="53.267082"
     inkscape:cy="29.734162"
     inkscape:window-x="0"
     inkscape:window-y="0"
     inkscape:window-maximized="1"
     inkscape:current-layer="svg73"
     inkscape:document-rotation="0"
     inkscape:pagecheckerboard="0"
     inkscape:showpageshadow="2"
     inkscape:deskcolor="#d1d1d1" />
  <defs
     id="defs29">
    <linearGradient
       id="linearGradient4"
       inkscape:collect="always">
      <stop
         style="stop-color:#5ea9ac;stop-opacity:1;"
         offset="0"
         id="stop4" />
      <stop
         style="stop-color:#81bfc1;stop-opacity:1;"
         offset="0.5"
         id="stop1" />
    </linearGradient>
    <linearGradient
       id="linearGradient2"
       inkscape:collect="always">
      <stop
         style="stop-color:#ecf4f4;stop-opacity:1;"
         offset="0"
         id="stop2" />
      <stop
         style="stop-color:#d8e8e9;stop-opacity:1;"
         offset="1"
         id="stop3" />
    </linearGradient>
    <linearGradient
       inkscape:collect="always"
       xlink:href="#linearGradient2"
       id="linearGradient8"
       x1="31.721739"
       y1="5.2278585"
       x2="31.88887"
       y2="59.145416"
       gradientUnits="userSpaceOnUse"
       gradientTransform="matrix(0.8505,0,0,0.8505,4.7765033,4.7794869)" />
    <filter
       style="color-interpolation-filters:sRGB;"
       inkscape:label="Blur"
       id="filter9"
       x="-0.047762285"
       y="-0.047489063"
       width="1.0955246"
       height="1.0949781">
      <feGaussianBlur
         stdDeviation="1 1"
         result="blur"
         id="feGaussianBlur9" />
    </filter>
    <linearGradient
       inkscape:collect="always"
       xlink:href="#linearGradient4"
       id="linearGradient7"
       x1="26.723248"
       y1="58.711765"
       x2="25.756926"
       y2="5.950614"
       gradientUnits="userSpaceOnUse" />
    <filter
       style="color-interpolation-filters:sRGB;"
       inkscape:label="Out of Focus"
       id="filter40"
       x="-0.24226652"
       y="-0.2858297"
       width="1.484533"
       height="1.5716594">
      <feFlood
         flood-opacity="1"
         flood-color="rgb(255,255,255)"
         result="flood"
         id="feFlood38" />
      <feColorMatrix
         in="SourceGraphic"
         values="1 0 0 0 0 0 1 0 0 0 0 0 1 0 0 -0.2125 -0.7154 -0.0721 1 0 "
         result="colormatrix1"
         id="feColorMatrix38" />
      <feGaussianBlur
         in="colormatrix1"
         stdDeviation="3 3"
         result="blur"
         id="feGaussianBlur38" />
      <feColorMatrix
         in="blur"
         values="1 0 0 0 0 0 1 0 0 0 0 0 1 0 0 0 0 0 6 -2 "
         result="colormatrix2"
         id="feColorMatrix39" />
      <feBlend
         in="colormatrix2"
         in2="flood"
         mode="normal"
         result="blend"
         id="feBlend39" />
      <feComposite
         in="blend"
         in2="blend"
         operator="arithmetic"
         k2="0.2"
         result="composite1"
         id="feComposite39" />
      <feComposite
         in2="SourceGraphic"
         operator="in"
         id="feComposite40" />
    </filter>
  </defs>
  <g
     id="g877"
     transform="matrix(1.1,0,0,1.1,-3.1845928,-3.2065454)">
    <ellipse
       style="opacity:0.5;fill:#000000;stroke:none;stroke-width:3.89319;stroke-dasharray:none;stroke-opacity:1;filter:url(#filter9)"
       id="path2-5"
       cx="31.949858"
       cy="31.969812"
       rx="25.124426"
       ry="25.268976"
       transform="matrix(1.05,0,0,1.05,-1.5974929,-1.5984906)" />
    <path
       style="fill:#f5f7fa;stroke-width:0.204426;fill-opacity:1"
       d=""
       id="path3" />
    <circle
       style="opacity:1;fill:url(#linearGradient8);stroke:url(#linearGradient7);stroke-width:3.81818;stroke-dasharray:none;stroke-opacity:1"
       id="path2"
       cx="31.949856"
       cy="31.969812"
       r="24.711082" />
    <ellipse
       style="opacity:0.3;fill:none;stroke:#000000;stroke-width:0.974376;stroke-dasharray:none;stroke-opacity:1"
       id="path2-9"
       cx="31.949856"
       cy="31.969812"
       rx="23.129124"
       ry="23.129126" />
  </g>
  <path
     style="fill:#000000;fill-opacity:1;stroke-width:0.729001;opacity:0.2"
     d="m 47.57204,22.336078 c -0.333705,0.0029 -1.348374,0.07654 -4.637311,0.303014 -1.23458,0.085 -3.140622,0.21613 -4.235641,0.291422 -1.09502,0.0753 -2.878089,0.197881 -3.962374,0.272437 -1.084285,0.07456 -2.893705,0.197996 -4.020932,0.274267 -3.853043,0.260707 -3.616374,0.239568 -3.797073,0.339384 -0.225505,0.124572 -0.367891,0.371085 -0.435748,0.754404 -0.03027,0.171124 -0.07171,0.355016 -0.09203,0.408695 -0.02034,0.05368 -0.04964,0.20074 -0.06511,0.326804 -0.01547,0.126059 -0.05145,0.295217 -0.0799,0.375906 -0.02846,0.08069 -0.06461,0.249362 -0.08029,0.374761 -0.01566,0.125404 -0.05024,0.281246 -0.07678,0.346323 -0.02653,0.06508 -0.06068,0.221403 -0.07587,0.347467 -0.0152,0.126059 -0.05027,0.293359 -0.07792,0.371711 -0.02766,0.07836 -0.0634,0.238322 -0.07952,0.355549 -0.01613,0.117238 -0.05127,0.275338 -0.07807,0.351353 -0.02682,0.076 -0.06195,0.234129 -0.07807,0.351354 -0.01613,0.117238 -0.05127,0.275338 -0.07809,0.351358 -0.02682,0.076 -0.06195,0.234126 -0.07807,0.351352 -0.01613,0.117238 -0.05127,0.275339 -0.07809,0.351353 -0.02683,0.076 -0.06195,0.23413 -0.07809,0.351356 -0.0161,0.117239 -0.05127,0.275337 -0.07809,0.351354 -0.02683,0.076 -0.06195,0.234126 -0.07809,0.351355 -0.01613,0.117238 -0.05127,0.275339 -0.07809,0.351353 -0.02683,0.076 -0.06197,0.234535 -0.07809,0.352195 -0.01608,0.11766 -0.04608,0.257797 -0.06663,0.311475 -0.02054,0.05368 -0.06228,0.238142 -0.0928,0.409914 -0.05168,0.290964 -0.05057,0.318989 0.01547,0.409915 0.139429,0.191928 0.307753,0.235404 1.521954,0.39314 0.637696,0.08284 1.633795,0.213325 2.213512,0.289898 0.579717,0.07657 1.585438,0.208935 2.234937,0.294167 0.649496,0.08523 1.721092,0.225959 2.381328,0.312695 0.660232,0.08674 1.665955,0.217929 2.234934,0.291575 1.236784,0.160087 3.231765,0.421388 4.030694,0.52795 1.309888,0.174707 1.778925,0.236984 2.800988,0.372016 0.590451,0.07801 1.503944,0.199523 2.029986,0.269999 1.201282,0.160934 1.231868,0.162084 1.302667,0.04965 0.0548,-0.08701 0.131482,-0.431173 0.297822,-1.337103 0.04731,-0.25766 0.126467,-0.679282 0.175976,-0.936943 0.0495,-0.257659 0.128099,-0.670501 0.174604,-0.917427 0.04649,-0.246923 0.117224,-0.598278 0.157142,-0.780788 0.03992,-0.182508 0.084,-0.402105 0.09798,-0.487993 0.02599,-0.159651 0.09265,-0.508057 0.268767,-1.405417 0.0548,-0.279133 0.135537,-0.696237 0.179485,-0.926957 0.04395,-0.230718 0.115968,-0.608426 0.159965,-0.839345 0.04401,-0.230922 0.121248,-0.630717 0.171631,-0.888375 0.05038,-0.257661 0.128522,-0.661719 0.173766,-0.897905 0.0747,-0.390025 0.128756,-0.666957 0.35432,-1.815333 0.168575,-0.858289 0.176545,-0.952144 0.09249,-1.096077 -0.04202,-0.07196 -0.13399,-0.164477 -0.20434,-0.205566 -0.05409,-0.03159 -0.0092,-0.05537 -0.209374,-0.05368 z M 23.981543,33.0392 c -0.160099,-0.0018 -0.312422,0.0099 -0.468306,0.034 -0.214708,0.03329 -1.892374,0.273314 -3.728144,0.533359 -1.835772,0.260047 -3.413961,0.500402 -3.507032,0.534125 -0.394735,0.143031 -0.427463,0.64036 -0.05444,0.827221 0.08007,0.04012 0.251033,0.103532 0.379859,0.140988 0.128825,0.03747 0.278147,0.08191 0.331824,0.09866 0.05368,0.01679 0.167864,0.04959 0.253749,0.07297 0.244902,0.06667 0.878956,0.245001 1.122348,0.31567 0.06979,0.02025 0.197143,0.0564 0.283027,0.08029 0.08588,0.0239 0.208854,0.05861 0.273266,0.07718 0.190237,0.0548 0.964533,0.273355 1.112588,0.314068 0.07515,0.02067 0.255211,0.07284 0.400142,0.11597 0.144929,0.04312 0.382086,0.113724 0.527014,0.156843 0.144931,0.04312 0.333779,0.09783 0.419662,0.121628 0.08589,0.02378 0.200069,0.05672 0.253748,0.07321 0.05369,0.01649 0.167864,0.0488 0.253748,0.07173 0.365995,0.09777 0.636522,0.17453 1.522488,0.4321 0.515304,0.149812 1.095022,0.314799 1.28826,0.366682 0.579117,0.15549 3.251261,0.920347 3.650069,1.044761 0.203973,0.06363 0.441132,0.135566 0.527016,0.159892 0.08589,0.02434 0.234683,0.06909 0.330681,0.09958 0.09597,0.03047 0.280451,0.08182 0.4099,0.114059 0.129457,0.03225 0.288076,0.0741 0.352489,0.09295 0.06442,0.01885 0.178599,0.05137 0.253746,0.0723 0.07516,0.02092 0.321089,0.09363 0.546537,0.161571 0.58723,0.176992 0.851414,0.252058 1.112586,0.315975 0.08589,0.02101 0.270339,0.07235 0.409901,0.114072 0.13956,0.04172 0.446988,0.130172 0.683168,0.196646 0.236181,0.06648 0.505108,0.146081 0.597699,0.176898 0.09259,0.03083 0.312176,0.09235 0.487978,0.13679 0.175796,0.04442 0.671043,0.184219 1.100462,0.310638 1.134575,0.334005 1.197528,0.349635 1.337515,0.33168 0.07004,-0.009 1.932041,-0.926501 4.13782,-2.038966 4.337213,-2.187441 4.186614,-2.100645 4.186614,-2.414115 0,-0.213875 0.172186,-0.171868 -2.010468,-0.490584 -0.579716,-0.08466 -1.291185,-0.188239 -1.581044,-0.230272 -0.289859,-0.04203 -0.702687,-0.103477 -0.9174,-0.136484 -0.214709,-0.03301 -0.873477,-0.129936 -1.463926,-0.215401 -0.590456,-0.08546 -1.556651,-0.226059 -2.147103,-0.312469 -0.590453,-0.08639 -1.433678,-0.209194 -1.873832,-0.272818 -1.015962,-0.146856 -3.177217,-0.463699 -4.391795,-0.643845 -0.515304,-0.07643 -1.297044,-0.190901 -1.7372,-0.254365 -2.691033,-0.388006 -3.521709,-0.512735 -3.747664,-0.562639 -0.362306,-0.08004 -0.650716,-0.119715 -0.91755,-0.12253 z m -2.26856,4.362575 c -0.07022,0.0149 -1.49847,3.081276 -1.49847,3.217167 0,0.154143 0.111095,0.328983 0.246503,0.387876 0.157893,0.06867 0.188409,0.06889 0.367508,0.0029 0.08095,-0.02987 0.331688,-0.110502 0.557134,-0.179186 0.225445,-0.06869 0.545864,-0.167714 0.712065,-0.220054 0.289928,-0.09132 0.486238,-0.151343 1.259361,-0.38536 0.63954,-0.193585 1.040499,-0.331354 1.145527,-0.393674 0.209418,-0.12425 0.433037,-0.532907 0.671502,-1.226918 0.069,-0.200814 0.06952,-0.217892 0.0078,-0.264279 -0.03621,-0.02727 -0.136702,-0.06732 -0.223253,-0.08897 -0.308871,-0.07737 -1.18802,-0.313263 -2.18068,-0.585211 -0.554626,-0.151948 -1.033913,-0.270884 -1.065085,-0.264281 z m 18.223814,2.422805 c -0.04102,0.0012 -0.09198,0.01808 -0.150054,0.05177 -0.07106,0.04123 -0.283383,0.160691 -0.471811,0.265422 -0.302564,0.168167 -0.900178,0.51816 -1.299011,0.760735 -0.07516,0.04568 -0.224472,0.127735 -0.331826,0.182311 -0.107349,0.05457 -0.291809,0.159156 -0.409901,0.232481 -0.577515,0.35859 -0.813749,0.433412 -1.061959,0.336181 -0.04932,-0.01932 -0.305583,-0.09264 -0.569485,-0.162942 -0.412814,-0.109945 -0.486962,-0.120024 -0.530903,-0.07221 -0.04745,0.05163 -0.102773,0.186971 -0.301861,0.7387 -0.04261,0.118084 -0.11333,0.302555 -0.157143,0.409913 -0.04381,0.107371 -0.09453,0.247899 -0.112602,0.312313 -0.01807,0.06442 -0.08806,0.266447 -0.155542,0.448956 -0.0675,0.182507 -0.137431,0.375753 -0.155467,0.429432 -0.01802,0.05368 -0.0879,0.246924 -0.155238,0.429434 -0.114642,0.31074 -0.314972,1.025443 -0.311846,1.112546 0.0032,0.08655 0.190012,0.261838 0.333804,0.313078 0.200226,0.07132 0.214713,0.07085 0.476088,-0.01784 0.346496,-0.117603 2.543409,-1.243108 3.13159,-1.604352 0.289859,-0.178021 0.715379,-0.424928 0.945685,-0.548685 0.230305,-0.123755 0.456053,-0.251114 0.501625,-0.283035 0.159372,-0.111625 0.273106,-0.336864 0.353022,-0.699355 0.04375,-0.198506 0.105149,-0.475152 0.136484,-0.614719 0.03132,-0.139558 0.07283,-0.33281 0.09226,-0.429434 0.01943,-0.09662 0.09787,-0.444612 0.174297,-0.773389 0.0764,-0.328777 0.138918,-0.641226 0.138918,-0.694246 0,-0.08277 -0.04075,-0.124937 -0.10912,-0.123056 z"
     id="path3-6-8" />
  <path
     style="fill:#4d4d4d;fill-opacity:1;stroke-width:0.729001"
     d="m 47.57204,20.336078 c -0.333705,0.0029 -1.348374,0.07654 -4.637311,0.303014 -1.23458,0.085 -3.140622,0.21613 -4.235641,0.291422 -1.09502,0.0753 -2.878089,0.197881 -3.962374,0.272437 -1.084285,0.07456 -2.893705,0.197996 -4.020932,0.274267 -3.853043,0.260707 -3.616374,0.239568 -3.797073,0.339384 -0.225505,0.124572 -0.367891,0.371085 -0.435748,0.754404 -0.03027,0.171124 -0.07171,0.355016 -0.09203,0.408695 -0.02034,0.05368 -0.04964,0.20074 -0.06511,0.326804 -0.01547,0.126059 -0.05145,0.295217 -0.0799,0.375906 -0.02846,0.08069 -0.06461,0.249362 -0.08029,0.374761 -0.01566,0.125404 -0.05024,0.281246 -0.07678,0.346323 -0.02653,0.06508 -0.06068,0.221403 -0.07587,0.347467 -0.0152,0.126059 -0.05027,0.293359 -0.07792,0.371711 -0.02766,0.07836 -0.0634,0.238322 -0.07952,0.355549 -0.01613,0.117238 -0.05127,0.275338 -0.07807,0.351353 -0.02682,0.076 -0.06195,0.234129 -0.07807,0.351354 -0.01613,0.117238 -0.05127,0.275338 -0.07809,0.351358 -0.02682,0.076 -0.06195,0.234126 -0.07807,0.351352 -0.01613,0.117238 -0.05127,0.275339 -0.07809,0.351353 -0.02683,0.076 -0.06195,0.23413 -0.07809,0.351356 -0.0161,0.117239 -0.05127,0.275337 -0.07809,0.351354 -0.02683,0.076 -0.06195,0.234126 -0.07809,0.351355 -0.01613,0.117238 -0.05127,0.275339 -0.07809,0.351353 -0.02683,0.076 -0.06197,0.234535 -0.07809,0.352195 -0.01608,0.11766 -0.04608,0.257797 -0.06663,0.311475 -0.02054,0.05368 -0.06228,0.238142 -0.0928,0.409914 -0.05168,0.290964 -0.05057,0.318989 0.01547,0.409915 0.139429,0.191928 0.307753,0.235404 1.521954,0.39314 0.637696,0.08284 1.633795,0.213325 2.213512,0.289898 0.579717,0.07657 1.585438,0.208935 2.234937,0.294167 0.649496,0.08523 1.721092,0.225959 2.381328,0.312695 0.660232,0.08674 1.665955,0.217929 2.234934,0.291575 1.236784,0.160087 3.231765,0.421388 4.030694,0.52795 1.309888,0.174707 1.778925,0.236984 2.800988,0.372016 0.590451,0.07801 1.503944,0.199523 2.029986,0.269999 1.201282,0.160934 1.231868,0.162084 1.302667,0.04965 0.0548,-0.08701 0.131482,-0.431173 0.297822,-1.337103 0.04731,-0.25766 0.126467,-0.679282 0.175976,-0.936943 0.0495,-0.257659 0.128099,-0.670501 0.174604,-0.917427 0.04649,-0.246923 0.117224,-0.598278 0.157142,-0.780788 0.03992,-0.182508 0.084,-0.402105 0.09798,-0.487993 0.02599,-0.159651 0.09265,-0.508057 0.268767,-1.405417 0.0548,-0.279133 0.135537,-0.696237 0.179485,-0.926957 0.04395,-0.230718 0.115968,-0.608426 0.159965,-0.839345 0.04401,-0.230922 0.121248,-0.630717 0.171631,-0.888375 0.05038,-0.257661 0.128522,-0.661719 0.173766,-0.897905 0.0747,-0.390025 0.128756,-0.666957 0.35432,-1.815333 0.168575,-0.858289 0.176545,-0.952144 0.09249,-1.096077 -0.04202,-0.07196 -0.13399,-0.164477 -0.20434,-0.205566 -0.05409,-0.03159 -0.0092,-0.05537 -0.209374,-0.05368 z M 23.981543,31.0392 c -0.160099,-0.0018 -0.312422,0.0099 -0.468306,0.034 -0.214708,0.03329 -1.892374,0.273314 -3.728144,0.533359 -1.835772,0.260047 -3.413961,0.500402 -3.507032,0.534125 -0.394735,0.143031 -0.427463,0.64036 -0.05444,0.827221 0.08007,0.04012 0.251033,0.103532 0.379859,0.140988 0.128825,0.03747 0.278147,0.08191 0.331824,0.09866 0.05368,0.01679 0.167864,0.04959 0.253749,0.07297 0.244902,0.06667 0.878956,0.245001 1.122348,0.31567 0.06979,0.02025 0.197143,0.0564 0.283027,0.08029 0.08588,0.0239 0.208854,0.05861 0.273266,0.07718 0.190237,0.0548 0.964533,0.273355 1.112588,0.314068 0.07515,0.02067 0.255211,0.07284 0.400142,0.11597 0.144929,0.04312 0.382086,0.113724 0.527014,0.156843 0.144931,0.04312 0.333779,0.09783 0.419662,0.121628 0.08589,0.02378 0.200069,0.05672 0.253748,0.07321 0.05369,0.01649 0.167864,0.0488 0.253748,0.07173 0.365995,0.09777 0.636522,0.17453 1.522488,0.4321 0.515304,0.149812 1.095022,0.314799 1.28826,0.366682 0.579117,0.15549 3.251261,0.920347 3.650069,1.044761 0.203973,0.06363 0.441132,0.135566 0.527016,0.159892 0.08589,0.02434 0.234683,0.06909 0.330681,0.09958 0.09597,0.03047 0.280451,0.08182 0.4099,0.114059 0.129457,0.03225 0.288076,0.0741 0.352489,0.09295 0.06442,0.01885 0.178599,0.05137 0.253746,0.0723 0.07516,0.02092 0.321089,0.09363 0.546537,0.161571 0.58723,0.176992 0.851414,0.252058 1.112586,0.315975 0.08589,0.02101 0.270339,0.07235 0.409901,0.114072 0.13956,0.04172 0.446988,0.130172 0.683168,0.196646 0.236181,0.06648 0.505108,0.146081 0.597699,0.176898 0.09259,0.03083 0.312176,0.09235 0.487978,0.13679 0.175796,0.04442 0.671043,0.184219 1.100462,0.310638 1.134575,0.334005 1.197528,0.349635 1.337515,0.33168 0.07004,-0.009 1.932041,-0.926501 4.13782,-2.038966 4.337213,-2.187441 4.186614,-2.100645 4.186614,-2.414115 0,-0.213875 0.172186,-0.171868 -2.010468,-0.490584 -0.579716,-0.08466 -1.291185,-0.188239 -1.581044,-0.230272 -0.289859,-0.04203 -0.702687,-0.103477 -0.9174,-0.136484 -0.214709,-0.03301 -0.873477,-0.129936 -1.463926,-0.215401 -0.590456,-0.08546 -1.556651,-0.226059 -2.147103,-0.312469 -0.590453,-0.08639 -1.433678,-0.209194 -1.873832,-0.272818 -1.015962,-0.146856 -3.177217,-0.463699 -4.391795,-0.643845 -0.515304,-0.07643 -1.297044,-0.190901 -1.7372,-0.254365 -2.691033,-0.388006 -3.521709,-0.512735 -3.747664,-0.562639 -0.362306,-0.08004 -0.650716,-0.119715 -0.91755,-0.12253 z m -2.26856,4.362575 c -0.07022,0.0149 -1.49847,3.081276 -1.49847,3.217167 0,0.154143 0.111095,0.328983 0.246503,0.387876 0.157893,0.06867 0.188409,0.06889 0.367508,0.0029 0.08095,-0.02987 0.331688,-0.110502 0.557134,-0.179186 0.225445,-0.06869 0.545864,-0.167714 0.712065,-0.220054 0.289928,-0.09132 0.486238,-0.151343 1.259361,-0.38536 0.63954,-0.193585 1.040499,-0.331354 1.145527,-0.393674 0.209418,-0.12425 0.433037,-0.532907 0.671502,-1.226918 0.069,-0.200814 0.06952,-0.217892 0.0078,-0.264279 -0.03621,-0.02727 -0.136702,-0.06732 -0.223253,-0.08897 -0.308871,-0.07737 -1.18802,-0.313263 -2.18068,-0.585211 -0.554626,-0.151948 -1.033913,-0.270884 -1.065085,-0.264281 z m 18.223814,2.422805 c -0.04102,0.0012 -0.09198,0.01808 -0.150054,0.05177 -0.07106,0.04123 -0.283383,0.160691 -0.471811,0.265422 -0.302564,0.168167 -0.900178,0.51816 -1.299011,0.760735 -0.07516,0.04568 -0.224472,0.127735 -0.331826,0.182311 -0.107349,0.05457 -0.291809,0.159156 -0.409901,0.232481 -0.577515,0.35859 -0.813749,0.433412 -1.061959,0.336181 -0.04932,-0.01932 -0.305583,-0.09264 -0.569485,-0.162942 -0.412814,-0.109945 -0.486962,-0.120024 -0.530903,-0.07221 -0.04745,0.05163 -0.102773,0.186971 -0.301861,0.7387 -0.04261,0.118084 -0.11333,0.302555 -0.157143,0.409913 -0.04381,0.107371 -0.09453,0.247899 -0.112602,0.312313 -0.01807,0.06442 -0.08806,0.266447 -0.155542,0.448956 -0.0675,0.182507 -0.137431,0.375753 -0.155467,0.429432 -0.01802,0.05368 -0.0879,0.246924 -0.155238,0.429434 -0.114642,0.31074 -0.314972,1.025443 -0.311846,1.112546 0.0032,0.08655 0.190012,0.261838 0.333804,0.313078 0.200226,0.07132 0.214713,0.07085 0.476088,-0.01784 0.346496,-0.117603 2.543409,-1.243108 3.13159,-1.604352 0.289859,-0.178021 0.715379,-0.424928 0.945685,-0.548685 0.230305,-0.123755 0.456053,-0.251114 0.501625,-0.283035 0.159372,-0.111625 0.273106,-0.336864 0.353022,-0.699355 0.04375,-0.198506 0.105149,-0.475152 0.136484,-0.614719 0.03132,-0.139558 0.07283,-0.33281 0.09226,-0.429434 0.01943,-0.09662 0.09787,-0.444612 0.174297,-0.773389 0.0764,-0.328777 0.138918,-0.641226 0.138918,-0.694246 0,-0.08277 -0.04075,-0.124937 -0.10912,-0.123056 z"
     id="path3-6" />
</svg>
