<?xml version="1.0" encoding="UTF-8" standalone="no"?>
<svg
   width="64"
   height="64"
   version="1.1"
   id="svg73"
   sodipodi:docname="abcd.svg"
   inkscape:version="1.4.2 (ebf0e940d0, 2025-05-08)"
   xmlns:inkscape="http://www.inkscape.org/namespaces/inkscape"
   xmlns:sodipodi="http://sodipodi.sourceforge.net/DTD/sodipodi-0.dtd"
   xmlns:xlink="http://www.w3.org/1999/xlink"
   xmlns="http://www.w3.org/2000/svg"
   xmlns:svg="http://www.w3.org/2000/svg"
   xmlns:rdf="http://www.w3.org/1999/02/22-rdf-syntax-ns#"
   xmlns:cc="http://creativecommons.org/ns#"
   xmlns:dc="http://purl.org/dc/elements/1.1/">
  <metadata
     id="metadata77">
    <rdf:RDF>
      <cc:Work
         rdf:about="">
        <dc:format>image/svg+xml</dc:format>
        <dc:type
           rdf:resource="http://purl.org/dc/dcmitype/StillImage" />
      </cc:Work>
    </rdf:RDF>
  </metadata>
  <sodipodi:namedview
     pagecolor="#f5f7fa"
     bordercolor="#666666"
     borderopacity="1"
     objecttolerance="10"
     gridtolerance="10"
     guidetolerance="10"
     inkscape:pageopacity="0"
     inkscape:pageshadow="2"
     inkscape:window-width="1920"
     inkscape:window-height="931"
     id="namedview75"
     showgrid="false"
     inkscape:zoom="6.2890624"
     inkscape:cx="53.505591"
     inkscape:cy="29.734162"
     inkscape:window-x="0"
     inkscape:window-y="0"
     inkscape:window-maximized="1"
     inkscape:current-layer="svg73"
     inkscape:document-rotation="0"
     inkscape:pagecheckerboard="0"
     inkscape:showpageshadow="2"
     inkscape:deskcolor="#d1d1d1" />
  <defs
     id="defs29">
    <linearGradient
       id="linearGradient4"
       inkscape:collect="always">
      <stop
         style="stop-color:#5ea9ac;stop-opacity:1;"
         offset="0"
         id="stop4" />
      <stop
         style="stop-color:#81bfc1;stop-opacity:1;"
         offset="0.5"
         id="stop1" />
    </linearGradient>
    <linearGradient
       id="linearGradient2"
       inkscape:collect="always">
      <stop
         style="stop-color:#ecf4f4;stop-opacity:1;"
         offset="0"
         id="stop2" />
      <stop
         style="stop-color:#d8e8e9;stop-opacity:1;"
         offset="1"
         id="stop3" />
    </linearGradient>
    <linearGradient
       inkscape:collect="always"
       xlink:href="#linearGradient2"
       id="linearGradient8"
       x1="31.721739"
       y1="5.2278585"
       x2="31.88887"
       y2="59.145416"
       gradientUnits="userSpaceOnUse"
       gradientTransform="matrix(0.8505,0,0,0.8505,4.7765033,4.7794869)" />
    <filter
       style="color-interpolation-filters:sRGB;"
       inkscape:label="Blur"
       id="filter9"
       x="-0.047762285"
       y="-0.047489063"
       width="1.0955246"
       height="1.0949781">
      <feGaussianBlur
         stdDeviation="1 1"
         result="blur"
         id="feGaussianBlur9" />
    </filter>
    <linearGradient
       inkscape:collect="always"
       xlink:href="#linearGradient4"
       id="linearGradient7"
       x1="26.723248"
       y1="58.711765"
       x2="25.756926"
       y2="5.950614"
       gradientUnits="userSpaceOnUse" />
    <filter
       style="color-interpolation-filters:sRGB;"
       inkscape:label="Out of Focus"
       id="filter40"
       x="-0.24226652"
       y="-0.2858297"
       width="1.484533"
       height="1.5716594">
      <feFlood
         flood-opacity="1"
         flood-color="rgb(255,255,255)"
         result="flood"
         id="feFlood38" />
      <feColorMatrix
         in="SourceGraphic"
         values="1 0 0 0 0 0 1 0 0 0 0 0 1 0 0 -0.2125 -0.7154 -0.0721 1 0 "
         result="colormatrix1"
         id="feColorMatrix38" />
      <feGaussianBlur
         in="colormatrix1"
         stdDeviation="3 3"
         result="blur"
         id="feGaussianBlur38" />
      <feColorMatrix
         in="blur"
         values="1 0 0 0 0 0 1 0 0 0 0 0 1 0 0 0 0 0 6 -2 "
         result="colormatrix2"
         id="feColorMatrix39" />
      <feBlend
         in="colormatrix2"
         in2="flood"
         mode="normal"
         result="blend"
         id="feBlend39" />
      <feComposite
         in="blend"
         in2="blend"
         operator="arithmetic"
         k2="0.2"
         result="composite1"
         id="feComposite39" />
      <feComposite
         in2="SourceGraphic"
         operator="in"
         id="feComposite40" />
    </filter>
  </defs>
  <g
     id="g877"
     transform="matrix(1.1,0,0,1.1,-3.1845928,-3.2065454)">
    <ellipse
       style="opacity:0.5;fill:#000000;stroke:none;stroke-width:3.89319;stroke-dasharray:none;stroke-opacity:1;filter:url(#filter9)"
       id="path2-5"
       cx="31.949858"
       cy="31.969812"
       rx="25.124426"
       ry="25.268976"
       transform="matrix(1.05,0,0,1.05,-1.5974929,-1.5984906)" />
    <path
       style="fill:#f5f7fa;stroke-width:0.204426;fill-opacity:1"
       d=""
       id="path3" />
    <circle
       style="opacity:1;fill:url(#linearGradient8);stroke:url(#linearGradient7);stroke-width:3.81818;stroke-dasharray:none;stroke-opacity:1"
       id="path2"
       cx="31.949856"
       cy="31.969812"
       r="24.711082" />
    <ellipse
       style="opacity:0.3;fill:none;stroke:#000000;stroke-width:0.974376;stroke-dasharray:none;stroke-opacity:1"
       id="path2-9"
       cx="31.949856"
       cy="31.969812"
       rx="23.129124"
       ry="23.129126" />
  </g>
  <path
     id="path5-2-6"
     style="fill:#000000;fill-opacity:1;stroke:none;stroke-width:0.525427;stroke-dasharray:none;stroke-opacity:0.6;opacity:0.2"
     d="m 32.157069,18.405287 c -0.524238,3.23e-4 -1.046733,0.01665 -1.385258,0.04801 -3.658235,0.338754 -7.058184,1.951286 -9.714225,4.607332 -3.026009,3.026007 -4.656418,6.921551 -4.656418,11.12784 0,2.49339 0.533648,4.757802 1.6394,6.964446 2.195938,4.38223 6.34069,7.412669 11.270729,8.240631 0.382447,0.06427 0.883098,0.135304 1.112565,0.157075 0.69835,0.06635 2.310715,0.05599 3.013746,-0.01875 1.602181,-0.169902 2.808779,-0.474135 4.588793,-1.158385 1.817493,-0.69865 2.473311,-0.857542 3.546026,-0.857328 1.072174,2.08e-4 1.867753,0.182458 3.712916,0.850781 1.17802,0.426676 1.64799,0.572785 1.695031,0.525746 0.04451,-0.04451 -0.09093,-0.374809 -0.565005,-1.376527 -0.935226,-1.975853 -1.237258,-3.213344 -1.131118,-4.635693 0.06525,-0.873979 0.23146,-1.458534 0.923869,-3.244988 1.203109,-3.10396 1.391882,-3.930534 1.390707,-6.089476 -0.0018,-3.058152 -0.811877,-5.769508 -2.462913,-8.239502 -2.63893,-3.947886 -6.83353,-6.429796 -11.582687,-6.85428 -0.34599,-0.03094 -0.871926,-0.04721 -1.396158,-0.0469 z m -0.225791,4.409906 c 1.346943,-0.01208 2.811293,0.100628 3.845987,0.323948 1.429436,0.308535 2.591198,1.07451 2.867588,1.889182 0.08182,0.241128 0.06361,0.604265 -0.04257,0.838789 -0.114273,0.252397 -0.456722,0.58408 -0.765713,0.74171 -0.193108,0.09849 -0.290001,0.11635 -0.64463,0.115618 -0.66336,-0.0017 -1.033454,-0.186793 -2.363627,-1.182367 -0.863345,-0.646172 -1.434645,-1.027188 -1.869547,-1.246727 -1.711752,-0.864091 -4.537823,-0.368325 -5.112351,0.896597 -0.123893,0.272791 -0.109252,0.436159 0.07636,0.807155 0.445941,0.891381 1.66705,1.832508 4.76113,3.67256 0.82239,0.48907 1.813482,1.08728 2.203317,1.328532 2.15726,1.335022 3.518589,2.564684 4.279014,3.866709 0.913661,1.564394 0.88802,4.022418 -0.06215,5.970778 -0.428812,0.879283 -1.091472,1.681108 -1.95462,2.363654 -1.368658,1.082288 -2.599487,1.615796 -4.337914,1.881547 -0.591259,0.09036 -1.918628,0.125723 -2.454195,0.06546 -1.680172,-0.189163 -3.205662,-0.865838 -4.293215,-1.90555 -1.156675,-1.105788 -1.732219,-2.284662 -1.87609,-3.84162 -0.102608,-1.110459 0.147604,-2.474995 0.628274,-3.428234 0.451554,-0.895501 1.392146,-1.881738 2.455279,-2.575265 0.92285,-0.602014 1.84405,-1.003721 3.19481,-1.392885 0.980279,-0.28243 1.278361,-0.398194 1.278361,-0.497385 0,-0.195739 -1.181338,-1.276436 -2.429105,-2.221859 -2.087522,-1.581701 -2.667157,-2.240824 -2.816318,-3.200265 -0.137361,-0.883538 0.245711,-1.727256 1.023123,-2.254583 0.580309,-0.393625 1.442188,-0.724288 2.229497,-0.855147 0.605427,-0.100639 1.371155,-0.153057 2.179321,-0.16034 z m 0.832247,10.103626 c -0.161368,-4.11e-4 -0.365417,0.03028 -0.663175,0.09053 -1.210358,0.24498 -2.346655,0.80387 -3.116278,1.534687 -1.104902,1.049196 -1.448709,2.01075 -1.398345,3.905977 0.02626,0.987065 0.120698,1.407749 0.497384,2.196778 0.629589,1.318742 1.591467,2.222316 2.795596,2.626523 0.198961,0.06675 0.479753,0.139022 0.625001,0.160357 v -0.0011 c 0.581034,0.08523 1.218998,0.0278 1.832461,-0.165781 1.445691,-0.455662 2.497778,-1.617732 2.930845,-3.237363 0.150336,-0.562199 0.203364,-1.515826 0.116714,-2.108424 -0.163768,-1.11997 -0.613321,-2.13679 -1.383082,-3.13156 -0.406886,-0.525823 -1.561334,-1.647731 -1.83028,-1.777925 -0.126756,-0.06136 -0.245481,-0.09231 -0.40685,-0.09273 z" />
  <path
     id="path5-2"
     style="fill:#4d4d4d;fill-opacity:1;stroke:none;stroke-width:0.525427;stroke-dasharray:none;stroke-opacity:0.6"
     d="m 32.157069,16.405287 c -0.524238,3.23e-4 -1.046733,0.01665 -1.385258,0.04801 -3.658235,0.338754 -7.058184,1.951286 -9.714225,4.607332 -3.026009,3.026007 -4.656418,6.921551 -4.656418,11.12784 0,2.49339 0.533648,4.757802 1.6394,6.964446 2.195938,4.38223 6.34069,7.412669 11.270729,8.240631 0.382447,0.06427 0.883098,0.135304 1.112565,0.157075 0.69835,0.06635 2.310715,0.05599 3.013746,-0.01875 1.602181,-0.169902 2.808779,-0.474135 4.588793,-1.158385 1.817493,-0.69865 2.473311,-0.857542 3.546026,-0.857328 1.072174,2.08e-4 1.867753,0.182458 3.712916,0.850781 1.17802,0.426676 1.64799,0.572785 1.695031,0.525746 0.04451,-0.04451 -0.09093,-0.374809 -0.565005,-1.376527 -0.935226,-1.975853 -1.237258,-3.213344 -1.131118,-4.635693 0.06525,-0.873979 0.23146,-1.458534 0.923869,-3.244988 1.203109,-3.10396 1.391882,-3.930534 1.390707,-6.089476 -0.0018,-3.058152 -0.811877,-5.769508 -2.462913,-8.239502 -2.63893,-3.947886 -6.83353,-6.429796 -11.582687,-6.85428 -0.34599,-0.03094 -0.871926,-0.04721 -1.396158,-0.0469 z m -0.225791,4.409906 c 1.346943,-0.01208 2.811293,0.100628 3.845987,0.323948 1.429436,0.308535 2.591198,1.07451 2.867588,1.889182 0.08182,0.241128 0.06361,0.604265 -0.04257,0.838789 -0.114273,0.252397 -0.456722,0.58408 -0.765713,0.74171 -0.193108,0.09849 -0.290001,0.11635 -0.64463,0.115618 -0.66336,-0.0017 -1.033454,-0.186793 -2.363627,-1.182367 -0.863345,-0.646172 -1.434645,-1.027188 -1.869547,-1.246727 -1.711752,-0.864091 -4.537823,-0.368325 -5.112351,0.896597 -0.123893,0.272791 -0.109252,0.436159 0.07636,0.807155 0.445941,0.891381 1.66705,1.832508 4.76113,3.67256 0.82239,0.48907 1.813482,1.08728 2.203317,1.328532 2.15726,1.335022 3.518589,2.564684 4.279014,3.866709 0.913661,1.564394 0.88802,4.022418 -0.06215,5.970778 -0.428812,0.879283 -1.091472,1.681108 -1.95462,2.363654 -1.368658,1.082288 -2.599487,1.615796 -4.337914,1.881547 -0.591259,0.09036 -1.918628,0.125723 -2.454195,0.06546 -1.680172,-0.189163 -3.205662,-0.865838 -4.293215,-1.90555 -1.156675,-1.105788 -1.732219,-2.284662 -1.87609,-3.84162 -0.102608,-1.110459 0.147604,-2.474995 0.628274,-3.428234 0.451554,-0.895501 1.392146,-1.881738 2.455279,-2.575265 0.92285,-0.602014 1.84405,-1.003721 3.19481,-1.392885 0.980279,-0.28243 1.278361,-0.398194 1.278361,-0.497385 0,-0.195739 -1.181338,-1.276436 -2.429105,-2.221859 -2.087522,-1.581701 -2.667157,-2.240824 -2.816318,-3.200265 -0.137361,-0.883538 0.245711,-1.727256 1.023123,-2.254583 0.580309,-0.393625 1.442188,-0.724288 2.229497,-0.855147 0.605427,-0.100639 1.371155,-0.153057 2.179321,-0.16034 z m 0.832247,10.103626 c -0.161368,-4.11e-4 -0.365417,0.03028 -0.663175,0.09053 -1.210358,0.24498 -2.346655,0.80387 -3.116278,1.534687 -1.104902,1.049196 -1.448709,2.01075 -1.398345,3.905977 0.02626,0.987065 0.120698,1.407749 0.497384,2.196778 0.629589,1.318742 1.591467,2.222316 2.795596,2.626523 0.198961,0.06675 0.479753,0.139022 0.625001,0.160357 v -0.0011 c 0.581034,0.08523 1.218998,0.0278 1.832461,-0.165781 1.445691,-0.455662 2.497778,-1.617732 2.930845,-3.237363 0.150336,-0.562199 0.203364,-1.515826 0.116714,-2.108424 -0.163768,-1.11997 -0.613321,-2.13679 -1.383082,-3.13156 -0.406886,-0.525823 -1.561334,-1.647731 -1.83028,-1.777925 -0.126756,-0.06136 -0.245481,-0.09231 -0.40685,-0.09273 z" />
</svg>
