<?xml version="1.0" encoding="UTF-8" standalone="no"?>
<svg
   width="64"
   height="64"
   version="1.1"
   id="svg73"
   sodipodi:docname="abcd.svg"
   inkscape:version="1.4.2 (ebf0e940d0, 2025-05-08)"
   xmlns:inkscape="http://www.inkscape.org/namespaces/inkscape"
   xmlns:sodipodi="http://sodipodi.sourceforge.net/DTD/sodipodi-0.dtd"
   xmlns:xlink="http://www.w3.org/1999/xlink"
   xmlns="http://www.w3.org/2000/svg"
   xmlns:svg="http://www.w3.org/2000/svg"
   xmlns:rdf="http://www.w3.org/1999/02/22-rdf-syntax-ns#"
   xmlns:cc="http://creativecommons.org/ns#"
   xmlns:dc="http://purl.org/dc/elements/1.1/">
  <metadata
     id="metadata77">
    <rdf:RDF>
      <cc:Work
         rdf:about="">
        <dc:format>image/svg+xml</dc:format>
        <dc:type
           rdf:resource="http://purl.org/dc/dcmitype/StillImage" />
      </cc:Work>
    </rdf:RDF>
  </metadata>
  <sodipodi:namedview
     pagecolor="#f5f7fa"
     bordercolor="#666666"
     borderopacity="1"
     objecttolerance="10"
     gridtolerance="10"
     guidetolerance="10"
     inkscape:pageopacity="0"
     inkscape:pageshadow="2"
     inkscape:window-width="1366"
     inkscape:window-height="927"
     id="namedview75"
     showgrid="false"
     inkscape:zoom="6.2890624"
     inkscape:cx="53.505591"
     inkscape:cy="29.734162"
     inkscape:window-x="24"
     inkscape:window-y="21"
     inkscape:window-maximized="0"
     inkscape:current-layer="svg73"
     inkscape:document-rotation="0"
     inkscape:pagecheckerboard="0"
     inkscape:showpageshadow="2"
     inkscape:deskcolor="#d1d1d1" />
  <defs
     id="defs29">
    <linearGradient
       id="linearGradient4"
       inkscape:collect="always">
      <stop
         style="stop-color:#5ea9ac;stop-opacity:1;"
         offset="0"
         id="stop4" />
      <stop
         style="stop-color:#81bfc1;stop-opacity:1;"
         offset="0.5"
         id="stop1" />
    </linearGradient>
    <linearGradient
       id="linearGradient2"
       inkscape:collect="always">
      <stop
         style="stop-color:#ecf4f4;stop-opacity:1;"
         offset="0"
         id="stop2" />
      <stop
         style="stop-color:#d8e8e9;stop-opacity:1;"
         offset="1"
         id="stop3" />
    </linearGradient>
    <linearGradient
       inkscape:collect="always"
       xlink:href="#linearGradient2"
       id="linearGradient8"
       x1="31.721739"
       y1="5.2278585"
       x2="31.88887"
       y2="59.145416"
       gradientUnits="userSpaceOnUse"
       gradientTransform="matrix(0.8505,0,0,0.8505,4.7765033,4.7794869)" />
    <filter
       style="color-interpolation-filters:sRGB;"
       inkscape:label="Blur"
       id="filter9"
       x="-0.047762285"
       y="-0.047489063"
       width="1.0955246"
       height="1.0949781">
      <feGaussianBlur
         stdDeviation="1 1"
         result="blur"
         id="feGaussianBlur9" />
    </filter>
    <linearGradient
       inkscape:collect="always"
       xlink:href="#linearGradient4"
       id="linearGradient7"
       x1="26.723248"
       y1="58.711765"
       x2="25.756926"
       y2="5.950614"
       gradientUnits="userSpaceOnUse" />
    <filter
       style="color-interpolation-filters:sRGB;"
       inkscape:label="Out of Focus"
       id="filter40"
       x="-0.24226652"
       y="-0.2858297"
       width="1.484533"
       height="1.5716594">
      <feFlood
         flood-opacity="1"
         flood-color="rgb(255,255,255)"
         result="flood"
         id="feFlood38" />
      <feColorMatrix
         in="SourceGraphic"
         values="1 0 0 0 0 0 1 0 0 0 0 0 1 0 0 -0.2125 -0.7154 -0.0721 1 0 "
         result="colormatrix1"
         id="feColorMatrix38" />
      <feGaussianBlur
         in="colormatrix1"
         stdDeviation="3 3"
         result="blur"
         id="feGaussianBlur38" />
      <feColorMatrix
         in="blur"
         values="1 0 0 0 0 0 1 0 0 0 0 0 1 0 0 0 0 0 6 -2 "
         result="colormatrix2"
         id="feColorMatrix39" />
      <feBlend
         in="colormatrix2"
         in2="flood"
         mode="normal"
         result="blend"
         id="feBlend39" />
      <feComposite
         in="blend"
         in2="blend"
         operator="arithmetic"
         k2="0.2"
         result="composite1"
         id="feComposite39" />
      <feComposite
         in2="SourceGraphic"
         operator="in"
         id="feComposite40" />
    </filter>
  </defs>
  <g
     id="g877"
     transform="matrix(1.1,0,0,1.1,-3.1845928,-3.2065454)">
    <ellipse
       style="opacity:0.5;fill:#000000;stroke:none;stroke-width:3.89319;stroke-dasharray:none;stroke-opacity:1;filter:url(#filter9)"
       id="path2-5"
       cx="31.949858"
       cy="31.969812"
       rx="25.124426"
       ry="25.268976"
       transform="matrix(1.05,0,0,1.05,-1.5974929,-1.5984906)" />
    <path
       style="fill:#f5f7fa;stroke-width:0.204426;fill-opacity:1"
       d=""
       id="path3" />
    <circle
       style="opacity:1;fill:url(#linearGradient8);stroke:url(#linearGradient7);stroke-width:3.81818;stroke-dasharray:none;stroke-opacity:1"
       id="path2"
       cx="31.949856"
       cy="31.969812"
       r="24.711082" />
    <ellipse
       style="opacity:0.3;fill:none;stroke:#000000;stroke-width:0.974376;stroke-dasharray:none;stroke-opacity:1"
       id="path2-9"
       cx="31.949856"
       cy="31.969812"
       rx="23.129124"
       ry="23.129126" />
  </g>
  <path
     id="path9-2"
     style="fill:#000000;fill-opacity:1;stroke-width:0.0422666;opacity:0.2"
     d="m 33.643901,23.401528 c -0.131676,-0.0019 -0.264074,-2.5e-5 -0.396723,0.005 -1.289633,0.04831 -2.378456,0.357109 -3.486447,0.98834 -1.081654,0.616224 -2.021651,1.527976 -2.697938,2.617803 l -0.202816,0.326481 -0.456086,0.119713 c -0.835684,0.217938 -1.575344,0.633062 -2.22009,1.245581 -0.758298,0.720401 -1.279123,1.671666 -1.483024,2.709812 -0.04258,0.216706 -0.06748,0.264158 -0.135542,0.264158 -0.04563,0 -0.27537,0.03919 -0.511492,0.08705 -1.263214,0.256196 -2.303216,0.808384 -3.255927,1.728384 -2.701122,2.608388 -2.602706,6.978153 0.212708,9.476922 0.941297,0.835428 2.09654,1.381121 3.336067,1.575031 0.314322,0.04921 1.927056,0.05809 9.802412,0.05136 l 9.425474,-0.008 0.391796,-0.09097 c 1.762957,-0.408694 3.145964,-1.342679 4.113692,-2.77691 1.01713,-1.507544 1.33919,-3.403587 0.884477,-5.204042 -0.489641,-1.93878 -1.905695,-3.578458 -3.777338,-4.373974 -0.462995,-0.196793 -1.224185,-0.402863 -1.637358,-0.443224 -0.510305,-0.04985 -0.462021,0.02232 -0.462021,-0.675722 0,-2.084713 -0.76631,-3.955643 -2.218112,-5.413686 -1.396017,-1.402025 -3.250555,-2.182665 -5.225712,-2.209208 z m -7.729738,8.066115 h 6.086441 6.086436 v 5.071373 5.072359 h -6.086436 -6.086441 v -5.072359 z m 3.085764,1.563163 v 1.225796 1.225795 h 3.000677 3.000677 v -1.225795 -1.225796 h -3.000677 z m 0,4.015745 v 1.500831 1.499842 h 3.000677 3.000677 v -1.499842 -1.500831 h -3.000677 z" />
  <path
     id="path9"
     style="fill:#4d4d4d;fill-opacity:1;stroke-width:0.0422666"
     d="m 33.643901,21.401528 c -0.131676,-0.0019 -0.264074,-2.5e-5 -0.396723,0.005 -1.289633,0.04831 -2.378456,0.357109 -3.486447,0.98834 -1.081654,0.616224 -2.021651,1.527976 -2.697938,2.617803 l -0.202816,0.326481 -0.456086,0.119713 c -0.835684,0.217938 -1.575344,0.633062 -2.22009,1.245581 -0.758298,0.720401 -1.279123,1.671666 -1.483024,2.709812 -0.04258,0.216706 -0.06748,0.264158 -0.135542,0.264158 -0.04563,0 -0.27537,0.03919 -0.511492,0.08705 -1.263214,0.256196 -2.303216,0.808384 -3.255927,1.728384 -2.701122,2.608388 -2.602706,6.978153 0.212708,9.476922 0.941297,0.835428 2.09654,1.381121 3.336067,1.575031 0.314322,0.04921 1.927056,0.05809 9.802412,0.05136 l 9.425474,-0.008 0.391796,-0.09097 c 1.762957,-0.408694 3.145964,-1.342679 4.113692,-2.77691 1.01713,-1.507544 1.33919,-3.403587 0.884477,-5.204042 -0.489641,-1.93878 -1.905695,-3.578458 -3.777338,-4.373974 -0.462995,-0.196793 -1.224185,-0.402863 -1.637358,-0.443224 -0.510305,-0.04985 -0.462021,0.02232 -0.462021,-0.675722 0,-2.084713 -0.76631,-3.955643 -2.218112,-5.413686 -1.396017,-1.402025 -3.250555,-2.182665 -5.225712,-2.209208 z m -7.729738,8.066115 h 6.086441 6.086436 v 5.071373 5.072359 h -6.086436 -6.086441 v -5.072359 z m 3.085764,1.563163 v 1.225796 1.225795 h 3.000677 3.000677 v -1.225795 -1.225796 h -3.000677 z m 0,4.015745 v 1.500831 1.499842 h 3.000677 3.000677 v -1.499842 -1.500831 h -3.000677 z" />
</svg>
