<?xml version="1.0" encoding="UTF-8" standalone="no"?>
<svg
   width="64"
   height="64"
   version="1.1"
   id="svg73"
   sodipodi:docname="abcd.svg"
   inkscape:version="1.4.2 (ebf0e940d0, 2025-05-08)"
   xmlns:inkscape="http://www.inkscape.org/namespaces/inkscape"
   xmlns:sodipodi="http://sodipodi.sourceforge.net/DTD/sodipodi-0.dtd"
   xmlns:xlink="http://www.w3.org/1999/xlink"
   xmlns="http://www.w3.org/2000/svg"
   xmlns:svg="http://www.w3.org/2000/svg"
   xmlns:rdf="http://www.w3.org/1999/02/22-rdf-syntax-ns#"
   xmlns:cc="http://creativecommons.org/ns#"
   xmlns:dc="http://purl.org/dc/elements/1.1/">
  <metadata
     id="metadata77">
    <rdf:RDF>
      <cc:Work
         rdf:about="">
        <dc:format>image/svg+xml</dc:format>
        <dc:type
           rdf:resource="http://purl.org/dc/dcmitype/StillImage" />
      </cc:Work>
    </rdf:RDF>
  </metadata>
  <sodipodi:namedview
     pagecolor="#f5f7fa"
     bordercolor="#666666"
     borderopacity="1"
     objecttolerance="10"
     gridtolerance="10"
     guidetolerance="10"
     inkscape:pageopacity="0"
     inkscape:pageshadow="2"
     inkscape:window-width="1920"
     inkscape:window-height="931"
     id="namedview75"
     showgrid="false"
     inkscape:zoom="6.2890624"
     inkscape:cx="53.346585"
     inkscape:cy="29.734162"
     inkscape:window-x="0"
     inkscape:window-y="0"
     inkscape:window-maximized="1"
     inkscape:current-layer="svg73"
     inkscape:document-rotation="0"
     inkscape:pagecheckerboard="0"
     inkscape:showpageshadow="2"
     inkscape:deskcolor="#d1d1d1" />
  <defs
     id="defs29">
    <linearGradient
       id="linearGradient4"
       inkscape:collect="always">
      <stop
         style="stop-color:#5ea9ac;stop-opacity:1;"
         offset="0"
         id="stop4" />
      <stop
         style="stop-color:#81bfc1;stop-opacity:1;"
         offset="0.5"
         id="stop1" />
    </linearGradient>
    <linearGradient
       id="linearGradient2"
       inkscape:collect="always">
      <stop
         style="stop-color:#ecf4f4;stop-opacity:1;"
         offset="0"
         id="stop2" />
      <stop
         style="stop-color:#d8e8e9;stop-opacity:1;"
         offset="1"
         id="stop3" />
    </linearGradient>
    <linearGradient
       inkscape:collect="always"
       xlink:href="#linearGradient2"
       id="linearGradient8"
       x1="31.721739"
       y1="5.2278585"
       x2="31.88887"
       y2="59.145416"
       gradientUnits="userSpaceOnUse"
       gradientTransform="matrix(0.8505,0,0,0.8505,4.7765033,4.7794869)" />
    <filter
       style="color-interpolation-filters:sRGB;"
       inkscape:label="Blur"
       id="filter9"
       x="-0.047762285"
       y="-0.047489063"
       width="1.0955246"
       height="1.0949781">
      <feGaussianBlur
         stdDeviation="1 1"
         result="blur"
         id="feGaussianBlur9" />
    </filter>
    <linearGradient
       inkscape:collect="always"
       xlink:href="#linearGradient4"
       id="linearGradient7"
       x1="26.723248"
       y1="58.711765"
       x2="25.756926"
       y2="5.950614"
       gradientUnits="userSpaceOnUse" />
    <filter
       style="color-interpolation-filters:sRGB;"
       inkscape:label="Out of Focus"
       id="filter40"
       x="-0.24226652"
       y="-0.2858297"
       width="1.484533"
       height="1.5716594">
      <feFlood
         flood-opacity="1"
         flood-color="rgb(255,255,255)"
         result="flood"
         id="feFlood38" />
      <feColorMatrix
         in="SourceGraphic"
         values="1 0 0 0 0 0 1 0 0 0 0 0 1 0 0 -0.2125 -0.7154 -0.0721 1 0 "
         result="colormatrix1"
         id="feColorMatrix38" />
      <feGaussianBlur
         in="colormatrix1"
         stdDeviation="3 3"
         result="blur"
         id="feGaussianBlur38" />
      <feColorMatrix
         in="blur"
         values="1 0 0 0 0 0 1 0 0 0 0 0 1 0 0 0 0 0 6 -2 "
         result="colormatrix2"
         id="feColorMatrix39" />
      <feBlend
         in="colormatrix2"
         in2="flood"
         mode="normal"
         result="blend"
         id="feBlend39" />
      <feComposite
         in="blend"
         in2="blend"
         operator="arithmetic"
         k2="0.2"
         result="composite1"
         id="feComposite39" />
      <feComposite
         in2="SourceGraphic"
         operator="in"
         id="feComposite40" />
    </filter>
  </defs>
  <g
     id="g877"
     transform="matrix(1.1,0,0,1.1,-3.1845928,-3.2065454)">
    <ellipse
       style="opacity:0.5;fill:#000000;stroke:none;stroke-width:3.89319;stroke-dasharray:none;stroke-opacity:1;filter:url(#filter9)"
       id="path2-5"
       cx="31.949858"
       cy="31.969812"
       rx="25.124426"
       ry="25.268976"
       transform="matrix(1.05,0,0,1.05,-1.5974929,-1.5984906)" />
    <path
       style="fill:#f5f7fa;stroke-width:0.204426;fill-opacity:1"
       d=""
       id="path3" />
    <circle
       style="opacity:1;fill:url(#linearGradient8);stroke:url(#linearGradient7);stroke-width:3.81818;stroke-dasharray:none;stroke-opacity:1"
       id="path2"
       cx="31.949856"
       cy="31.969812"
       r="24.711082" />
    <ellipse
       style="opacity:0.3;fill:none;stroke:#000000;stroke-width:0.974376;stroke-dasharray:none;stroke-opacity:1"
       id="path2-9"
       cx="31.949856"
       cy="31.969812"
       rx="23.129124"
       ry="23.129126" />
  </g>
  <path
     id="path10-7"
     style="fill:#000000;fill-opacity:1;stroke:none;stroke-width:0.417735;stroke-dasharray:none;stroke-opacity:0.6;opacity:0.2"
     d="m 38.874922,20.861902 c -0.152427,-3.3e-5 -2.719549,0.939342 -7.630898,2.791138 l -7.400525,2.79011 0.18409,0.2098 c 0.104412,0.118914 0.22904,0.370791 0.286935,0.578998 l 0.102839,0.368181 h 0.322928 c 0.27505,0 1.371616,-0.395514 7.392296,-2.664644 3.887973,-1.465338 7.129306,-2.71913 7.203067,-2.787027 0.343913,-0.316601 0.337817,-0.787016 -0.01463,-1.096298 -0.158653,-0.139312 -0.278152,-0.190215 -0.446342,-0.190257 z m -16.07836,5.262435 c -0.368967,-0.0025 -0.743585,0.122935 -1.042819,0.385663 -0.232642,0.204263 -0.508066,0.718603 -0.509068,0.95129 v 0.138838 h 1.544691 c 0.849931,0 1.545907,-0.02075 1.545717,-0.04629 -0.0015,-0.166523 -0.164914,-0.578961 -0.317781,-0.801144 -0.281569,-0.409245 -0.746347,-0.624875 -1.22074,-0.628367 z m 13.71607,1.533382 v 9.740185 9.740192 l 4.372848,-0.01973 c 3.998289,-0.01803 4.397254,-0.02857 4.651554,-0.127562 0.411691,-0.160931 0.847519,-0.505076 1.056189,-0.834051 0.384413,-0.606026 0.365088,-0.150862 0.365088,-8.799183 0,-7.853236 -4.83e-4,-7.900495 -0.128582,-8.242809 -0.233285,-0.623631 -0.750378,-1.140215 -1.343097,-1.341127 -0.170797,-0.05788 -1.315425,-0.08215 -4.601162,-0.09667 z m -0.0617,0.0021 -8.885566,0.01647 -8.886595,0.01647 -0.388747,0.179948 c -0.488331,0.225507 -0.941903,0.704071 -1.120983,1.182699 -0.127021,0.339504 -0.127521,0.402845 -0.127521,8.342563 0,7.918591 8.36e-4,8.003637 0.1265,8.339478 0.246364,0.658455 0.918381,1.210521 1.611535,1.32564 0.18309,0.03027 4.233679,0.05875 9.001781,0.0627 l 8.669604,0.0072 v -9.73606 z m -9.852287,2.609104 c 1.059359,-0.02061 2.123564,0.18893 3.092467,0.636591 0.435139,0.20105 1.505612,0.860595 1.505612,0.927639 -1e-6,0.01769 -2.022612,0.03187 -4.49421,0.03187 -2.605738,0 -4.468607,-0.02283 -4.434554,-0.05451 0.03224,-0.03006 0.246754,-0.182236 0.477184,-0.338348 1.136591,-0.769986 2.491466,-1.176718 3.8535,-1.203236 z m 15.216536,2.108262 c 0.749507,0.02956 1.479718,0.450263 1.847054,1.207371 0.14753,0.304104 0.170491,0.427102 0.170695,0.908095 1.73e-4,0.43792 -0.02857,0.617894 -0.132665,0.847422 -0.184471,0.404704 -0.648778,0.880473 -1.052076,1.077785 -0.575858,0.281737 -1.361595,0.259294 -1.967381,-0.05656 -0.306113,-0.159636 -0.714126,-0.607465 -0.886491,-0.972887 -0.135589,-0.287608 -0.160694,-0.425127 -0.160422,-0.895759 3.81e-4,-0.668679 0.121099,-0.981382 0.559463,-1.450074 0.444195,-0.474884 1.038874,-0.688386 1.62183,-0.665387 z m -1.016077,0.964662 c -0.06064,0.0023 -0.122765,0.02452 -0.180016,0.07199 -0.124601,0.1034 -0.112083,0.409747 0.01939,0.486445 0.166205,0.09682 0.294072,0.07897 0.418559,-0.05863 0.194744,-0.215191 -0.02006,-0.508229 -0.258083,-0.499814 z m -20.038812,0.06893 h 5.94634 5.947368 l 0.195398,0.323958 c 0.240566,0.398343 0.571804,1.122943 0.571804,1.250563 0,0.08364 -0.743026,0.0946 -6.706343,0.0946 -5.556716,0 -6.706343,-0.01487 -6.706343,-0.08331 0,-0.04544 0.168654,-0.420539 0.375375,-0.834051 z m -1.106579,3.152121 h 7.062176 7.062178 l 0.03703,0.138838 c 0.04871,0.181852 0.05049,1.306403 0.0021,1.432592 -0.03388,0.08837 -0.71711,0.0977 -7.10023,0.0977 h -7.063138 l -0.03907,-0.286929 c -0.02166,-0.157731 -0.03906,-0.403624 -0.03906,-0.54712 0,-0.143499 0.01746,-0.390416 0.03906,-0.54815 z m 20.774129,1.607403 c 0.760282,0 0.78263,0.02307 0.78263,0.81451 0,0.491366 -0.01871,0.604621 -0.113138,0.690077 -0.08783,0.07953 -0.239033,0.102828 -0.679788,0.102828 -0.768315,0 -0.814509,-0.04588 -0.814509,-0.804225 0,-0.76032 0.0443,-0.803198 0.824795,-0.803198 z m 2.615279,0 c 0.780499,0 0.8248,0.04287 0.8248,0.8032 0,0.473899 -0.01803,0.574475 -0.123447,0.679789 -0.105996,0.105996 -0.206207,0.124399 -0.701384,0.124399 -0.76692,0 -0.81348,-0.04633 -0.81348,-0.804229 0,-0.757883 0.04653,-0.803197 0.81348,-0.803197 z m -16.32826,1.544689 c 4.258046,0 6.706343,0.02211 6.706343,0.05966 0,0.126643 -0.265927,0.734204 -0.509069,1.162126 l -0.254018,0.447374 h -5.918575 -5.919601 l -0.13061,-0.184131 c -0.152916,-0.214711 -0.680814,-1.311088 -0.680814,-1.414075 0,-0.05181 1.747032,-0.07095 6.70634,-0.07095 z m 13.67288,1.051042 c 0.440544,0 0.677998,0.0649 0.775428,0.210834 0.02518,0.03746 0.04575,0.325197 0.04622,0.639692 8.37e-4,0.490116 -0.01632,0.589239 -0.12239,0.695214 -0.103917,0.103917 -0.206039,0.123445 -0.640709,0.123445 -0.429512,0 -0.545529,-0.02109 -0.680812,-0.127561 -0.15515,-0.122017 -0.162463,-0.15549 -0.162463,-0.706524 0,-0.551073 0.0075,-0.584443 0.162463,-0.706532 0.131575,-0.10351 0.251109,-0.128582 0.622197,-0.128582 z m 2.9238,9.9e-4 c 0.237706,4.25e-4 0.286928,0.033 0.39903,0.145012 0.145691,0.145692 0.157326,0.200493 0.157326,0.712706 0,0.52556 -0.0078,0.561471 -0.162497,0.682865 -0.134875,0.106128 -0.251008,0.127562 -0.673617,0.127562 -0.745375,0 -0.802173,-0.05851 -0.802173,-0.826847 0,-0.773547 0.02857,-0.804029 0.77235,-0.833032 0.130624,-0.0052 0.230326,-0.0078 0.309584,-0.0078 z m -16.596689,2.101103 c 2.743857,0 4.481868,0.02211 4.481868,0.05759 0,0.105721 -1.05322,0.760695 -1.607429,0.999622 -0.616063,0.265601 -1.286827,0.449173 -1.998223,0.546096 -1.29243,0.17607 -2.777742,-0.07021 -3.966624,-0.657149 -0.482444,-0.238183 -1.391455,-0.825272 -1.391455,-0.898846 0,-0.02619 2.017071,-0.04736 4.481863,-0.04736 z" />
  <path
     id="path10"
     style="fill:#4d4d4d;fill-opacity:1;stroke:none;stroke-width:0.417735;stroke-dasharray:none;stroke-opacity:0.6"
     d="m 38.874922,18.861902 c -0.152427,-3.3e-5 -2.719549,0.939342 -7.630898,2.791138 l -7.400525,2.79011 0.18409,0.2098 c 0.104412,0.118914 0.22904,0.370791 0.286935,0.578998 l 0.102839,0.368181 h 0.322928 c 0.27505,0 1.371616,-0.395514 7.392296,-2.664644 3.887973,-1.465338 7.129306,-2.71913 7.203067,-2.787027 0.343913,-0.316601 0.337817,-0.787016 -0.01463,-1.096298 -0.158653,-0.139312 -0.278152,-0.190215 -0.446342,-0.190257 z m -16.07836,5.262435 c -0.368967,-0.0025 -0.743585,0.122935 -1.042819,0.385663 -0.232642,0.204263 -0.508066,0.718603 -0.509068,0.95129 v 0.138838 h 1.544691 c 0.849931,0 1.545907,-0.02075 1.545717,-0.04629 -0.0015,-0.166523 -0.164914,-0.578961 -0.317781,-0.801144 -0.281569,-0.409245 -0.746347,-0.624875 -1.22074,-0.628367 z m 13.71607,1.533382 v 9.740185 9.740192 l 4.372848,-0.01973 c 3.998289,-0.01803 4.397254,-0.02857 4.651554,-0.127562 0.411691,-0.160931 0.847519,-0.505076 1.056189,-0.834051 0.384413,-0.606026 0.365088,-0.150862 0.365088,-8.799183 0,-7.853236 -4.83e-4,-7.900495 -0.128582,-8.242809 -0.233285,-0.623631 -0.750378,-1.140215 -1.343097,-1.341127 -0.170797,-0.05788 -1.315425,-0.08215 -4.601162,-0.09667 z m -0.0617,0.0021 -8.885566,0.01647 -8.886595,0.01647 -0.388747,0.179948 c -0.488331,0.225507 -0.941903,0.704071 -1.120983,1.182699 -0.127021,0.339504 -0.127521,0.402845 -0.127521,8.342563 0,7.918591 8.36e-4,8.003637 0.1265,8.339478 0.246364,0.658455 0.918381,1.210521 1.611535,1.32564 0.18309,0.03027 4.233679,0.05875 9.001781,0.0627 l 8.669604,0.0072 v -9.73606 z m -9.852287,2.609104 c 1.059359,-0.02061 2.123564,0.18893 3.092467,0.636591 0.435139,0.20105 1.505612,0.860595 1.505612,0.927639 -1e-6,0.01769 -2.022612,0.03187 -4.49421,0.03187 -2.605738,0 -4.468607,-0.02283 -4.434554,-0.05451 0.03224,-0.03006 0.246754,-0.182236 0.477184,-0.338348 1.136591,-0.769986 2.491466,-1.176718 3.8535,-1.203236 z m 15.216536,2.108262 c 0.749507,0.02956 1.479718,0.450263 1.847054,1.207371 0.14753,0.304104 0.170491,0.427102 0.170695,0.908095 1.73e-4,0.43792 -0.02857,0.617894 -0.132665,0.847422 -0.184471,0.404704 -0.648778,0.880473 -1.052076,1.077785 -0.575858,0.281737 -1.361595,0.259294 -1.967381,-0.05656 -0.306113,-0.159636 -0.714126,-0.607465 -0.886491,-0.972887 -0.135589,-0.287608 -0.160694,-0.425127 -0.160422,-0.895759 3.81e-4,-0.668679 0.121099,-0.981382 0.559463,-1.450074 0.444195,-0.474884 1.038874,-0.688386 1.62183,-0.665387 z m -1.016077,0.964662 c -0.06064,0.0023 -0.122765,0.02452 -0.180016,0.07199 -0.124601,0.1034 -0.112083,0.409747 0.01939,0.486445 0.166205,0.09682 0.294072,0.07897 0.418559,-0.05863 0.194744,-0.215191 -0.02006,-0.508229 -0.258083,-0.499814 z m -20.038812,0.06893 h 5.94634 5.947368 l 0.195398,0.323958 c 0.240566,0.398343 0.571804,1.122943 0.571804,1.250563 0,0.08364 -0.743026,0.0946 -6.706343,0.0946 -5.556716,0 -6.706343,-0.01487 -6.706343,-0.08331 0,-0.04544 0.168654,-0.420539 0.375375,-0.834051 z m -1.106579,3.152121 h 7.062176 7.062178 l 0.03703,0.138838 c 0.04871,0.181852 0.05049,1.306403 0.0021,1.432592 -0.03388,0.08837 -0.71711,0.0977 -7.10023,0.0977 h -7.063138 l -0.03907,-0.286929 c -0.02166,-0.157731 -0.03906,-0.403624 -0.03906,-0.54712 0,-0.143499 0.01746,-0.390416 0.03906,-0.54815 z m 20.774129,1.607403 c 0.760282,0 0.78263,0.02307 0.78263,0.81451 0,0.491366 -0.01871,0.604621 -0.113138,0.690077 -0.08783,0.07953 -0.239033,0.102828 -0.679788,0.102828 -0.768315,0 -0.814509,-0.04588 -0.814509,-0.804225 0,-0.76032 0.0443,-0.803198 0.824795,-0.803198 z m 2.615279,0 c 0.780499,0 0.8248,0.04287 0.8248,0.8032 0,0.473899 -0.01803,0.574475 -0.123447,0.679789 -0.105996,0.105996 -0.206207,0.124399 -0.701384,0.124399 -0.76692,0 -0.81348,-0.04633 -0.81348,-0.804229 0,-0.757883 0.04653,-0.803197 0.81348,-0.803197 z m -16.32826,1.544689 c 4.258046,0 6.706343,0.02211 6.706343,0.05966 0,0.126643 -0.265927,0.734204 -0.509069,1.162126 l -0.254018,0.447374 h -5.918575 -5.919601 l -0.13061,-0.184131 c -0.152916,-0.214711 -0.680814,-1.311088 -0.680814,-1.414075 0,-0.05181 1.747032,-0.07095 6.70634,-0.07095 z m 13.67288,1.051042 c 0.440544,0 0.677998,0.0649 0.775428,0.210834 0.02518,0.03746 0.04575,0.325197 0.04622,0.639692 8.37e-4,0.490116 -0.01632,0.589239 -0.12239,0.695214 -0.103917,0.103917 -0.206039,0.123445 -0.640709,0.123445 -0.429512,0 -0.545529,-0.02109 -0.680812,-0.127561 -0.15515,-0.122017 -0.162463,-0.15549 -0.162463,-0.706524 0,-0.551073 0.0075,-0.584443 0.162463,-0.706532 0.131575,-0.10351 0.251109,-0.128582 0.622197,-0.128582 z m 2.9238,9.9e-4 c 0.237706,4.25e-4 0.286928,0.033 0.39903,0.145012 0.145691,0.145692 0.157326,0.200493 0.157326,0.712706 0,0.52556 -0.0078,0.561471 -0.162497,0.682865 -0.134875,0.106128 -0.251008,0.127562 -0.673617,0.127562 -0.745375,0 -0.802173,-0.05851 -0.802173,-0.826847 0,-0.773547 0.02857,-0.804029 0.77235,-0.833032 0.130624,-0.0052 0.230326,-0.0078 0.309584,-0.0078 z m -16.596689,2.101103 c 2.743857,0 4.481868,0.02211 4.481868,0.05759 0,0.105721 -1.05322,0.760695 -1.607429,0.999622 -0.616063,0.265601 -1.286827,0.449173 -1.998223,0.546096 -1.29243,0.17607 -2.777742,-0.07021 -3.966624,-0.657149 -0.482444,-0.238183 -1.391455,-0.825272 -1.391455,-0.898846 0,-0.02619 2.017071,-0.04736 4.481863,-0.04736 z" />
</svg>
