<?xml version="1.0" encoding="UTF-8" standalone="no"?>
<svg
   width="64"
   height="64"
   version="1.1"
   id="svg73"
   sodipodi:docname="1password.svg"
   inkscape:version="1.4.2 (ebf0e940d0, 2025-05-08)"
   xmlns:inkscape="http://www.inkscape.org/namespaces/inkscape"
   xmlns:sodipodi="http://sodipodi.sourceforge.net/DTD/sodipodi-0.dtd"
   xmlns:xlink="http://www.w3.org/1999/xlink"
   xmlns="http://www.w3.org/2000/svg"
   xmlns:svg="http://www.w3.org/2000/svg"
   xmlns:rdf="http://www.w3.org/1999/02/22-rdf-syntax-ns#"
   xmlns:cc="http://creativecommons.org/ns#"
   xmlns:dc="http://purl.org/dc/elements/1.1/">
  <metadata
     id="metadata77">
    <rdf:RDF>
      <cc:Work
         rdf:about="">
        <dc:format>image/svg+xml</dc:format>
        <dc:type
           rdf:resource="http://purl.org/dc/dcmitype/StillImage" />
      </cc:Work>
    </rdf:RDF>
  </metadata>
  <sodipodi:namedview
     pagecolor="#f5f7fa"
     bordercolor="#666666"
     borderopacity="1"
     objecttolerance="10"
     gridtolerance="10"
     guidetolerance="10"
     inkscape:pageopacity="0"
     inkscape:pageshadow="2"
     inkscape:window-width="1414"
     inkscape:window-height="797"
     id="namedview75"
     showgrid="false"
     inkscape:zoom="6.2890624"
     inkscape:cx="34.345342"
     inkscape:cy="29.734162"
     inkscape:window-x="24"
     inkscape:window-y="21"
     inkscape:window-maximized="0"
     inkscape:current-layer="svg73"
     inkscape:document-rotation="0"
     inkscape:pagecheckerboard="0"
     inkscape:showpageshadow="2"
     inkscape:deskcolor="#d1d1d1" />
  <defs
     id="defs29">
    <linearGradient
       id="linearGradient4"
       inkscape:collect="always">
      <stop
         style="stop-color:#5ea9ac;stop-opacity:1;"
         offset="0"
         id="stop4" />
      <stop
         style="stop-color:#81bfc1;stop-opacity:1;"
         offset="0.5"
         id="stop1" />
    </linearGradient>
    <linearGradient
       id="linearGradient2"
       inkscape:collect="always">
      <stop
         style="stop-color:#ecf4f4;stop-opacity:1;"
         offset="0"
         id="stop2" />
      <stop
         style="stop-color:#d8e8e9;stop-opacity:1;"
         offset="1"
         id="stop3" />
    </linearGradient>
    <linearGradient
       inkscape:collect="always"
       xlink:href="#linearGradient2"
       id="linearGradient8"
       x1="31.721739"
       y1="5.2278585"
       x2="31.88887"
       y2="59.145416"
       gradientUnits="userSpaceOnUse"
       gradientTransform="matrix(0.8505,0,0,0.8505,4.7765033,4.7794869)" />
    <filter
       style="color-interpolation-filters:sRGB;"
       inkscape:label="Blur"
       id="filter9"
       x="-0.047762285"
       y="-0.047489063"
       width="1.0955246"
       height="1.0949781">
      <feGaussianBlur
         stdDeviation="1 1"
         result="blur"
         id="feGaussianBlur9" />
    </filter>
    <linearGradient
       inkscape:collect="always"
       xlink:href="#linearGradient4"
       id="linearGradient7"
       x1="26.723248"
       y1="58.711765"
       x2="25.756926"
       y2="5.950614"
       gradientUnits="userSpaceOnUse" />
    <filter
       style="color-interpolation-filters:sRGB;"
       inkscape:label="Out of Focus"
       id="filter40"
       x="-0.24226652"
       y="-0.2858297"
       width="1.484533"
       height="1.5716594">
      <feFlood
         flood-opacity="1"
         flood-color="rgb(255,255,255)"
         result="flood"
         id="feFlood38" />
      <feColorMatrix
         in="SourceGraphic"
         values="1 0 0 0 0 0 1 0 0 0 0 0 1 0 0 -0.2125 -0.7154 -0.0721 1 0 "
         result="colormatrix1"
         id="feColorMatrix38" />
      <feGaussianBlur
         in="colormatrix1"
         stdDeviation="3 3"
         result="blur"
         id="feGaussianBlur38" />
      <feColorMatrix
         in="blur"
         values="1 0 0 0 0 0 1 0 0 0 0 0 1 0 0 0 0 0 6 -2 "
         result="colormatrix2"
         id="feColorMatrix39" />
      <feBlend
         in="colormatrix2"
         in2="flood"
         mode="normal"
         result="blend"
         id="feBlend39" />
      <feComposite
         in="blend"
         in2="blend"
         operator="arithmetic"
         k2="0.2"
         result="composite1"
         id="feComposite39" />
      <feComposite
         in2="SourceGraphic"
         operator="in"
         id="feComposite40" />
    </filter>
  </defs>
  <g
     id="g877"
     transform="matrix(1.1,0,0,1.1,-3.1845928,-3.2065454)">
    <ellipse
       style="opacity:0.5;fill:#000000;stroke:none;stroke-width:3.89319;stroke-dasharray:none;stroke-opacity:1;filter:url(#filter9)"
       id="path2-5"
       cx="31.949858"
       cy="31.969812"
       rx="25.124426"
       ry="25.268976"
       transform="matrix(1.05,0,0,1.05,-1.5974929,-1.5984906)" />
    <path
       style="fill:#f5f7fa;stroke-width:0.204426;fill-opacity:1"
       d=""
       id="path3" />
    <circle
       style="opacity:1;fill:url(#linearGradient8);stroke:url(#linearGradient7);stroke-width:3.81818;stroke-dasharray:none;stroke-opacity:1"
       id="path2"
       cx="31.949856"
       cy="31.969812"
       r="24.711082" />
    <ellipse
       style="opacity:0.3;fill:none;stroke:#000000;stroke-width:0.974376;stroke-dasharray:none;stroke-opacity:1"
       id="path2-9"
       cx="31.949856"
       cy="31.969812"
       rx="23.129124"
       ry="23.129126" />
  </g>
  <path
     style="fill:#000000;fill-opacity:1;stroke:none;stroke-width:0.0279737;stroke-opacity:0.5;opacity:0.2"
     d="m 22.478931,49.44358 c -1.500815,-0.387522 -2.645215,-1.516712 -3.087547,-3.046509 l -0.129413,-0.447573 v -8.00045 c 0,-6.273926 0.01569,-8.109108 0.07282,-8.50397 0.21248,-1.469347 0.597609,-2.743071 1.193813,-3.948284 2.582266,-5.219967 8.459827,-8.006536 14.254764,-6.758224 2.223508,0.478975 4.456465,1.673641 6.096143,3.261527 2.053345,1.988478 3.253886,4.300906 3.734486,7.19322 0.08882,0.53433 0.09952,1.28806 0.11838,8.336127 0.01429,5.259307 0.0015,7.913706 -0.03886,8.262341 -0.06805,0.585938 -0.288009,1.257732 -0.56734,1.732798 -0.105347,0.179139 -0.405523,0.54114 -0.667071,0.804413 -0.806533,0.811821 -1.811953,1.228305 -2.965199,1.228305 -0.935193,0 -1.679041,-0.239525 -2.50884,-0.807798 -0.565213,-0.387086 -0.856465,-0.516005 -1.349815,-0.597479 -0.704947,-0.116407 -1.318207,0.06202 -2.199833,0.640087 -0.81813,0.536445 -1.552815,0.763552 -2.473461,0.764613 -0.880767,9.72e-4 -1.617597,-0.228956 -2.405135,-0.75058 -0.826972,-0.547772 -1.135387,-0.657106 -1.84798,-0.655115 -0.592538,0.0015 -1.037317,0.150338 -1.621334,0.541991 -0.592692,0.397473 -1.189999,0.667323 -1.718016,0.776174 -0.583721,0.120327 -1.366437,0.109725 -1.890578,-0.0252 z m 1.403774,-14.05899 c 0.326424,-0.099 5.342495,-2.965627 5.573796,-3.185363 0.278708,-0.264772 0.407659,-0.592731 0.406229,-1.033161 -0.0014,-0.455807 -0.119825,-0.741898 -0.425693,-1.029081 -0.217771,-0.204473 -5.156573,-3.052241 -5.502616,-3.17287 -0.254054,-0.08856 -0.66749,-0.08108 -0.945822,0.01711 -0.966391,0.340962 -1.267744,1.632541 -0.546491,2.34224 0.145901,0.143565 0.781929,0.542899 1.651383,1.036837 1.239134,0.70395 1.401508,0.811789 1.312428,0.87163 -0.0559,0.03757 -0.693296,0.403583 -1.416413,0.813391 -1.381303,0.782815 -1.612888,0.951396 -1.807903,1.316046 -0.168805,0.315643 -0.168805,0.97114 0,1.286785 0.176146,0.329373 0.474389,0.588552 0.811072,0.704834 0.357834,0.123584 0.562714,0.130859 0.89003,0.03158 z m 16.903528,-2.836995 c 0.548802,-0.152419 0.994477,-0.748338 0.994477,-1.329736 0,-0.432384 -0.09764,-0.705782 -0.35735,-1.00086 -0.430434,-0.489003 -0.162609,-0.461753 -4.538028,-0.461753 -3.619224,0 -3.874411,0.0064 -4.085385,0.102223 -0.287287,0.130511 -0.574805,0.418023 -0.705309,0.705311 -0.127146,0.279884 -0.138006,0.886904 -0.02091,1.167217 0.160179,0.383364 0.514407,0.69957 0.922887,0.823824 0.221475,0.06736 7.545675,0.06152 7.789595,-0.0063 z"
     id="path9-3" />
  <path
     style="fill:#4d4d4d;fill-opacity:1;stroke:none;stroke-width:0.0279737;stroke-opacity:0.5"
     d="m 22.478931,47.44358 c -1.500815,-0.387522 -2.645215,-1.516712 -3.087547,-3.046509 l -0.129413,-0.447573 v -8.00045 c 0,-6.273926 0.01569,-8.109108 0.07282,-8.50397 0.21248,-1.469347 0.597609,-2.743071 1.193813,-3.948284 2.582266,-5.219967 8.459827,-8.006536 14.254764,-6.758224 2.223508,0.478975 4.456465,1.673641 6.096143,3.261527 2.053345,1.988478 3.253886,4.300906 3.734486,7.19322 0.08882,0.53433 0.09952,1.28806 0.11838,8.336127 0.01429,5.259307 0.0015,7.913706 -0.03886,8.262341 -0.06805,0.585938 -0.288009,1.257732 -0.56734,1.732798 -0.105347,0.179139 -0.405523,0.54114 -0.667071,0.804413 -0.806533,0.811821 -1.811953,1.228305 -2.965199,1.228305 -0.935193,0 -1.679041,-0.239525 -2.50884,-0.807798 -0.565213,-0.387086 -0.856465,-0.516005 -1.349815,-0.597479 -0.704947,-0.116407 -1.318207,0.06202 -2.199833,0.640087 -0.81813,0.536445 -1.552815,0.763552 -2.473461,0.764613 -0.880767,9.72e-4 -1.617597,-0.228956 -2.405135,-0.75058 -0.826972,-0.547772 -1.135387,-0.657106 -1.84798,-0.655115 -0.592538,0.0015 -1.037317,0.150338 -1.621334,0.541991 -0.592692,0.397473 -1.189999,0.667323 -1.718016,0.776174 -0.583721,0.120327 -1.366437,0.109725 -1.890578,-0.0252 z m 1.403774,-14.05899 c 0.326424,-0.099 5.342495,-2.965627 5.573796,-3.185363 0.278708,-0.264772 0.407659,-0.592731 0.406229,-1.033161 -0.0014,-0.455807 -0.119825,-0.741898 -0.425693,-1.029081 -0.217771,-0.204473 -5.156573,-3.052241 -5.502616,-3.17287 -0.254054,-0.08856 -0.66749,-0.08108 -0.945822,0.01711 -0.966391,0.340962 -1.267744,1.632541 -0.546491,2.34224 0.145901,0.143565 0.781929,0.542899 1.651383,1.036837 1.239134,0.70395 1.401508,0.811789 1.312428,0.87163 -0.0559,0.03757 -0.693296,0.403583 -1.416413,0.813391 -1.381303,0.782815 -1.612888,0.951396 -1.807903,1.316046 -0.168805,0.315643 -0.168805,0.97114 0,1.286785 0.176146,0.329373 0.474389,0.588552 0.811072,0.704834 0.357834,0.123584 0.562714,0.130859 0.89003,0.03158 z m 16.903528,-2.836995 c 0.548802,-0.152419 0.994477,-0.748338 0.994477,-1.329736 0,-0.432384 -0.09764,-0.705782 -0.35735,-1.00086 -0.430434,-0.489003 -0.162609,-0.461753 -4.538028,-0.461753 -3.619224,0 -3.874411,0.0064 -4.085385,0.102223 -0.287287,0.130511 -0.574805,0.418023 -0.705309,0.705311 -0.127146,0.279884 -0.138006,0.886904 -0.02091,1.167217 0.160179,0.383364 0.514407,0.69957 0.922887,0.823824 0.221475,0.06736 7.545675,0.06152 7.789595,-0.0063 z"
     id="path9" />
</svg>
