<?xml version="1.0" encoding="UTF-8" standalone="no"?>
<svg
   width="64"
   height="64"
   version="1.1"
   id="svg73"
   sodipodi:docname="abcd.svg"
   inkscape:version="1.4.2 (ebf0e940d0, 2025-05-08)"
   xmlns:inkscape="http://www.inkscape.org/namespaces/inkscape"
   xmlns:sodipodi="http://sodipodi.sourceforge.net/DTD/sodipodi-0.dtd"
   xmlns:xlink="http://www.w3.org/1999/xlink"
   xmlns="http://www.w3.org/2000/svg"
   xmlns:svg="http://www.w3.org/2000/svg"
   xmlns:rdf="http://www.w3.org/1999/02/22-rdf-syntax-ns#"
   xmlns:cc="http://creativecommons.org/ns#"
   xmlns:dc="http://purl.org/dc/elements/1.1/">
  <metadata
     id="metadata77">
    <rdf:RDF>
      <cc:Work
         rdf:about="">
        <dc:format>image/svg+xml</dc:format>
        <dc:type
           rdf:resource="http://purl.org/dc/dcmitype/StillImage" />
      </cc:Work>
    </rdf:RDF>
  </metadata>
  <sodipodi:namedview
     pagecolor="#f5f7fa"
     bordercolor="#666666"
     borderopacity="1"
     objecttolerance="10"
     gridtolerance="10"
     guidetolerance="10"
     inkscape:pageopacity="0"
     inkscape:pageshadow="2"
     inkscape:window-width="1320"
     inkscape:window-height="766"
     id="namedview75"
     showgrid="false"
     inkscape:zoom="4.4470387"
     inkscape:cx="53.518761"
     inkscape:cy="22.37444"
     inkscape:window-x="24"
     inkscape:window-y="21"
     inkscape:window-maximized="0"
     inkscape:current-layer="svg73"
     inkscape:document-rotation="0"
     inkscape:pagecheckerboard="0"
     inkscape:showpageshadow="2"
     inkscape:deskcolor="#d1d1d1" />
  <defs
     id="defs29">
    <linearGradient
       id="linearGradient4"
       inkscape:collect="always">
      <stop
         style="stop-color:#5ea9ac;stop-opacity:1;"
         offset="0"
         id="stop4" />
      <stop
         style="stop-color:#81bfc1;stop-opacity:1;"
         offset="0.5"
         id="stop1" />
    </linearGradient>
    <linearGradient
       id="linearGradient2"
       inkscape:collect="always">
      <stop
         style="stop-color:#ecf4f4;stop-opacity:1;"
         offset="0"
         id="stop2" />
      <stop
         style="stop-color:#d8e8e9;stop-opacity:1;"
         offset="1"
         id="stop3" />
    </linearGradient>
    <linearGradient
       inkscape:collect="always"
       xlink:href="#linearGradient2"
       id="linearGradient8"
       x1="31.721739"
       y1="5.2278585"
       x2="31.88887"
       y2="59.145416"
       gradientUnits="userSpaceOnUse"
       gradientTransform="matrix(0.8505,0,0,0.8505,4.7765033,4.7794869)" />
    <filter
       style="color-interpolation-filters:sRGB;"
       inkscape:label="Blur"
       id="filter9"
       x="-0.047762285"
       y="-0.047489063"
       width="1.0955246"
       height="1.0949781">
      <feGaussianBlur
         stdDeviation="1 1"
         result="blur"
         id="feGaussianBlur9" />
    </filter>
    <linearGradient
       inkscape:collect="always"
       xlink:href="#linearGradient4"
       id="linearGradient7"
       x1="26.723248"
       y1="58.711765"
       x2="25.756926"
       y2="5.950614"
       gradientUnits="userSpaceOnUse" />
    <filter
       style="color-interpolation-filters:sRGB;"
       inkscape:label="Out of Focus"
       id="filter40"
       x="-0.24226652"
       y="-0.2858297"
       width="1.484533"
       height="1.5716594">
      <feFlood
         flood-opacity="1"
         flood-color="rgb(255,255,255)"
         result="flood"
         id="feFlood38" />
      <feColorMatrix
         in="SourceGraphic"
         values="1 0 0 0 0 0 1 0 0 0 0 0 1 0 0 -0.2125 -0.7154 -0.0721 1 0 "
         result="colormatrix1"
         id="feColorMatrix38" />
      <feGaussianBlur
         in="colormatrix1"
         stdDeviation="3 3"
         result="blur"
         id="feGaussianBlur38" />
      <feColorMatrix
         in="blur"
         values="1 0 0 0 0 0 1 0 0 0 0 0 1 0 0 0 0 0 6 -2 "
         result="colormatrix2"
         id="feColorMatrix39" />
      <feBlend
         in="colormatrix2"
         in2="flood"
         mode="normal"
         result="blend"
         id="feBlend39" />
      <feComposite
         in="blend"
         in2="blend"
         operator="arithmetic"
         k2="0.2"
         result="composite1"
         id="feComposite39" />
      <feComposite
         in2="SourceGraphic"
         operator="in"
         id="feComposite40" />
    </filter>
  </defs>
  <g
     id="g877"
     transform="matrix(1.1,0,0,1.1,-3.1845928,-3.2065454)">
    <ellipse
       style="opacity:0.5;fill:#000000;stroke:none;stroke-width:3.89319;stroke-dasharray:none;stroke-opacity:1;filter:url(#filter9)"
       id="path2-5"
       cx="31.949858"
       cy="31.969812"
       rx="25.124426"
       ry="25.268976"
       transform="matrix(1.05,0,0,1.05,-1.5974929,-1.5984906)" />
    <path
       style="fill:#f5f7fa;stroke-width:0.204426;fill-opacity:1"
       d=""
       id="path3" />
    <circle
       style="opacity:1;fill:url(#linearGradient8);stroke:url(#linearGradient7);stroke-width:3.81818;stroke-dasharray:none;stroke-opacity:1"
       id="path2"
       cx="31.949856"
       cy="31.969812"
       r="24.711082" />
    <ellipse
       style="opacity:0.3;fill:none;stroke:#000000;stroke-width:0.974376;stroke-dasharray:none;stroke-opacity:1"
       id="path2-9"
       cx="31.949856"
       cy="31.969812"
       rx="23.129124"
       ry="23.129126" />
  </g>
  <path
     id="path8-0"
     style="fill:#000000;fill-opacity:1;stroke:none;stroke-width:0.515722;stroke-dasharray:none;stroke-opacity:0.6;opacity:0.2"
     d="m 33.663998,19.272963 c -0.07827,0.0021 -0.129001,0.01211 -0.145718,0.03016 -0.09475,0.102366 -0.613796,1.442198 -0.90094,2.326113 l -0.247003,0.758814 -0.947144,0.04264 c -0.832859,0.03863 -1.796083,0.186668 -2.175051,0.332313 -0.09298,0.03574 -0.215755,-0.09363 -0.467353,-0.488675 -0.598554,-0.939809 -1.531953,-2.228908 -1.613519,-2.228366 -0.308684,0.0021 -2.937388,1.268246 -3.726377,1.794777 -0.108614,0.07248 0.06438,1.235693 0.374948,2.523345 0.08692,0.360436 0.158152,0.720303 0.158152,0.797875 0,0.07954 -0.214358,0.307924 -0.492231,0.524219 -0.270976,0.210919 -0.874564,0.766241 -1.339861,1.235016 l -0.845854,0.852962 -0.296762,-0.151047 c -0.322078,-0.164158 -1.549073,-0.69401 -2.196376,-0.947143 l -0.403382,-0.156377 -0.554424,0.840522 c -0.619611,0.939978 -1.358261,2.24348 -1.560209,2.754356 l -0.133278,0.335859 0.380278,0.453134 c 0.208783,0.248853 0.702976,0.806791 1.098189,1.240349 l 0.717912,0.788989 0.417593,3.388749 c 0.229415,1.864317 0.441628,3.51271 0.470908,3.66241 0.05211,0.266333 0.06591,0.275159 0.639722,0.394498 0.717983,0.149346 0.735159,0.176777 0.868953,1.377178 l 0.09774,0.884948 0.980906,0.179435 c 0.538827,0.09849 0.997313,0.159518 1.020004,0.136871 0.02268,-0.02302 -0.01242,-0.459439 -0.07818,-0.970242 -0.123583,-0.959626 -0.100419,-1.140846 0.16526,-1.275893 0.08081,-0.04103 0.912443,-0.01843 2.045333,0.05689 1.506331,0.09984 1.935388,0.152959 2.032893,0.250565 0.08297,0.08303 0.165968,0.464706 0.252332,1.160384 l 0.127945,1.03599 0.598851,0.02658 c 0.328879,0.01489 1.012764,0.03189 1.521115,0.04086 l 0.924046,0.0156 -0.03555,-0.21679 c -0.213743,-1.256429 -0.243651,-2.088598 -0.07997,-2.224444 0.155622,-0.129179 5.388685,-0.785336 5.611778,-0.703697 0.213668,0.07814 0.229699,0.130881 0.383835,1.330983 0.06949,0.541068 0.135733,0.995798 0.149268,1.009332 0.02302,0.02305 2.813108,-0.693904 2.869866,-0.737452 0.01453,-0.01135 -0.03585,-0.505451 -0.110181,-1.098192 -0.131661,-1.047867 -0.130315,-1.082031 0.01418,-1.217248 0.14984,-0.140174 3.530026,-1.265232 3.80101,-1.265229 0.28161,0 0.388129,0.251871 0.510004,1.208359 0.06532,0.512581 0.136906,0.949031 0.158167,0.970249 0.02161,0.02162 0.440635,-0.14878 0.932931,-0.376706 0.492272,-0.227954 0.901893,-0.416282 0.90981,-0.419374 0.0083,-0.0032 -0.03821,-0.41072 -0.103037,-0.906275 -0.06468,-0.49556 -0.09782,-0.98269 -0.07287,-1.082197 0.02976,-0.115819 0.18748,-0.252857 0.438923,-0.380279 0.216046,-0.109472 0.391074,-0.243298 0.389183,-0.296757 -0.002,-0.05346 -0.209595,-1.728438 -0.462025,-3.722823 l -0.460366,-3.62689 0.296743,-0.511776 c 0.162602,-0.281818 0.509182,-0.941994 0.771217,-1.466029 l 0.476404,-0.952697 -0.531321,-0.623729 c -0.616618,-0.722708 -2.512764,-2.55501 -2.644203,-2.555011 -0.07631,0 -1.557055,1.093119 -2.290558,1.689931 l -0.236317,0.19192 -0.591734,-0.390942 c -0.325215,-0.214947 -1.038846,-0.611551 -1.585115,-0.881399 l -0.993349,-0.490454 -0.05155,-0.945366 c -0.02925,-0.520278 -0.0749,-1.292215 -0.101288,-1.714816 l -0.04796,-0.769441 -0.600628,-0.188364 c -1.038954,-0.327278 -2.93685,-0.675875 -3.484715,-0.661055 z m 5.901435,11.525653 c 0.420842,0.0045 0.831139,0.07877 1.146168,0.223899 0.617457,0.284445 1.008892,0.607541 1.338082,1.10352 1.134267,1.708983 0.341007,4.020449 -1.588642,4.629095 -1.738282,0.548295 -3.4633,-0.42053 -3.920075,-2.203481 -0.153549,-0.599365 -0.106315,-1.21913 0.142155,-1.885403 0.231906,-0.621849 1.028122,-1.412962 1.677496,-1.66683 0.353554,-0.138219 0.783968,-0.205142 1.204812,-0.200801 z m -0.31099,1.30432 c -1.024005,9.9e-4 -1.951942,0.833971 -1.95649,1.977808 -0.0031,0.800179 0.532104,1.562044 1.295445,1.844531 0.412577,0.152679 1.105447,0.107294 1.506896,-0.09952 1.471692,-0.758143 1.481698,-2.787184 0.01807,-3.516692 -0.283629,-0.141372 -0.576803,-0.206421 -0.863524,-0.206136 z M 25.352946,32.61649 c 0.793336,0 0.90575,0.02054 1.323869,0.225681 0.583153,0.286183 1.162082,0.863332 1.448258,1.446482 0.205191,0.418122 0.223903,0.530534 0.223903,1.323869 0,0.793337 -0.01872,0.905748 -0.223903,1.323866 -0.28602,0.582832 -0.864197,1.16069 -1.444704,1.444706 -0.594004,0.290622 -1.72607,0.353799 -2.350976,0.129722 -0.8619,-0.309054 -1.525403,-0.964187 -1.858748,-1.833868 -0.248137,-0.647383 -0.195777,-1.759238 0.113735,-2.391849 0.284016,-0.580505 0.861878,-1.156908 1.444705,-1.442928 0.418122,-0.205185 0.53053,-0.225681 1.323868,-0.225681 z m 0.259448,1.171047 c -0.343455,0.0088 -0.695172,0.110823 -1.021781,0.326969 -0.645693,0.427302 -1.022669,1.295621 -0.865401,1.995579 0.152675,0.679507 0.577678,1.197419 1.208364,1.471359 0.370901,0.161098 1.139777,0.148187 1.524669,-0.02666 0.707106,-0.321207 1.13742,-0.995166 1.13906,-1.784105 0.0024,-1.18631 -0.954557,-2.009929 -1.984911,-1.983138 z m 21.995759,3.630421 c -0.07752,-0.04791 -1.325642,0.514245 -1.325642,0.597073 0,0.02846 0.0539,0.455049 0.119044,0.948922 0.06512,0.493879 0.09859,0.960507 0.0746,1.035996 -0.04263,0.13439 -0.302129,0.2708 -2.187495,1.147948 -0.995198,0.463038 -1.262702,0.493029 -1.387824,0.158135 -0.03587,-0.09637 -0.110823,-0.592303 -0.166995,-1.101744 -0.06106,-0.552975 -0.13719,-0.926173 -0.188366,-0.925824 -0.04717,3.23e-4 -0.618431,0.17049 -1.268783,0.378499 -0.99955,0.31971 -1.180332,0.4035 -1.174593,0.53311 0.004,0.08432 0.05331,0.587293 0.111958,1.11951 0.09221,0.836271 0.09272,0.984028 -0.0054,1.080418 -0.122236,0.120181 -3.880901,1.144389 -4.199071,1.144389 -0.105677,0 -0.236245,-0.05111 -0.289651,-0.115498 -0.05329,-0.06437 -0.156893,-0.596452 -0.230894,-1.181703 -0.074,-0.585242 -0.156733,-1.087879 -0.184804,-1.115957 -0.04855,-0.0486 -4.084105,0.425194 -4.147526,0.486898 -0.01665,0.01595 0.02686,0.487588 0.09772,1.046653 0.157572,1.24362 0.157958,1.235213 0.0055,1.387845 -0.106447,0.106469 -0.420511,0.12266 -2.237252,0.12266 -1.912571,0 -2.131394,-0.01275 -2.28878,-0.140345 -0.149,-0.120639 -0.191442,-0.292279 -0.303869,-1.20126 l -0.131499,-1.062649 -1.300768,-0.08529 c -0.71498,-0.04731 -1.312586,-0.07559 -1.329289,-0.06223 -0.01669,0.01311 0.0258,0.476786 0.09598,1.028876 0.113745,0.895573 0.114752,1.023696 0.0089,1.185268 -0.07526,0.114934 -0.195541,0.181244 -0.330521,0.181244 -0.403939,0 -3.214105,-0.566956 -3.321221,-0.669939 -0.06344,-0.06095 -0.1561,-0.504953 -0.227446,-1.083972 l -0.120988,-0.979123 -0.717912,-0.136835 c -0.394762,-0.07489 -0.798055,-0.155798 -0.89561,-0.179471 -0.171054,-0.04162 -0.175926,-0.02375 -0.175926,0.504672 0,1.917192 1.25127,3.807337 3.37631,5.098225 1.639961,0.99622 4.05565,1.752114 6.555366,2.050667 1.09758,0.131058 4.08908,0.155229 5.213734,0.04263 5.068608,-0.507287 9.576362,-2.292593 12.296872,-4.870773 1.555939,-1.474521 2.33703,-2.950676 2.414954,-4.566899 0.03821,-0.796156 -0.07949,-1.705356 -0.23281,-1.800108 z" />
  <path
     id="path8"
     style="fill:#4d4d4d;fill-opacity:1;stroke:none;stroke-width:0.515722;stroke-dasharray:none;stroke-opacity:0.6"
     d="m 33.663998,17.272963 c -0.07827,0.0021 -0.129001,0.01211 -0.145718,0.03016 -0.09475,0.102366 -0.613796,1.442198 -0.90094,2.326113 l -0.247003,0.758814 -0.947144,0.04264 c -0.832859,0.03863 -1.796083,0.186668 -2.175051,0.332313 -0.09298,0.03574 -0.215755,-0.09363 -0.467353,-0.488675 -0.598554,-0.939809 -1.531953,-2.228908 -1.613519,-2.228366 -0.308684,0.0021 -2.937388,1.268246 -3.726377,1.794777 -0.108614,0.07248 0.06438,1.235693 0.374948,2.523345 0.08692,0.360436 0.158152,0.720303 0.158152,0.797875 0,0.07954 -0.214358,0.307924 -0.492231,0.524219 -0.270976,0.210919 -0.874564,0.766241 -1.339861,1.235016 l -0.845854,0.852962 -0.296762,-0.151047 c -0.322078,-0.164158 -1.549073,-0.69401 -2.196376,-0.947143 l -0.403382,-0.156377 -0.554424,0.840522 c -0.619611,0.939978 -1.358261,2.24348 -1.560209,2.754356 l -0.133278,0.335859 0.380278,0.453134 c 0.208783,0.248853 0.702976,0.806791 1.098189,1.240349 l 0.717912,0.788989 0.417593,3.388749 c 0.229415,1.864317 0.441628,3.51271 0.470908,3.66241 0.05211,0.266333 0.06591,0.275159 0.639722,0.394498 0.717983,0.149346 0.735159,0.176777 0.868953,1.377178 l 0.09774,0.884948 0.980906,0.179435 c 0.538827,0.09849 0.997313,0.159518 1.020004,0.136871 0.02268,-0.02302 -0.01242,-0.459439 -0.07818,-0.970242 -0.123583,-0.959626 -0.100419,-1.140846 0.16526,-1.275893 0.08081,-0.04103 0.912443,-0.01843 2.045333,0.05689 1.506331,0.09984 1.935388,0.152959 2.032893,0.250565 0.08297,0.08303 0.165968,0.464706 0.252332,1.160384 l 0.127945,1.03599 0.598851,0.02658 c 0.328879,0.01489 1.012764,0.03189 1.521115,0.04086 l 0.924046,0.0156 -0.03555,-0.21679 c -0.213743,-1.256429 -0.243651,-2.088598 -0.07997,-2.224444 0.155622,-0.129179 5.388685,-0.785336 5.611778,-0.703697 0.213668,0.07814 0.229699,0.130881 0.383835,1.330983 0.06949,0.541068 0.135733,0.995798 0.149268,1.009332 0.02302,0.02305 2.813108,-0.693904 2.869866,-0.737452 0.01453,-0.01135 -0.03585,-0.505451 -0.110181,-1.098192 -0.131661,-1.047867 -0.130315,-1.082031 0.01418,-1.217248 0.14984,-0.140174 3.530026,-1.265232 3.80101,-1.265229 0.28161,0 0.388129,0.251871 0.510004,1.208359 0.06532,0.512581 0.136906,0.949031 0.158167,0.970249 0.02161,0.02162 0.440635,-0.14878 0.932931,-0.376706 0.492272,-0.227954 0.901893,-0.416282 0.90981,-0.419374 0.0083,-0.0032 -0.03821,-0.41072 -0.103037,-0.906275 -0.06468,-0.49556 -0.09782,-0.98269 -0.07287,-1.082197 0.02976,-0.115819 0.18748,-0.252857 0.438923,-0.380279 0.216046,-0.109472 0.391074,-0.243298 0.389183,-0.296757 -0.002,-0.05346 -0.209595,-1.728438 -0.462025,-3.722823 l -0.460366,-3.62689 0.296743,-0.511776 c 0.162602,-0.281818 0.509182,-0.941994 0.771217,-1.466029 l 0.476404,-0.952697 -0.531321,-0.623729 c -0.616618,-0.722708 -2.512764,-2.55501 -2.644203,-2.555011 -0.07631,0 -1.557055,1.093119 -2.290558,1.689931 l -0.236317,0.19192 -0.591734,-0.390942 c -0.325215,-0.214947 -1.038846,-0.611551 -1.585115,-0.881399 l -0.993349,-0.490454 -0.05155,-0.945366 c -0.02925,-0.520278 -0.0749,-1.292215 -0.101288,-1.714816 l -0.04796,-0.769441 -0.600628,-0.188364 c -1.038954,-0.327278 -2.93685,-0.675875 -3.484715,-0.661055 z m 5.901435,11.525653 c 0.420842,0.0045 0.831139,0.07877 1.146168,0.223899 0.617457,0.284445 1.008892,0.607541 1.338082,1.10352 1.134267,1.708983 0.341007,4.020449 -1.588642,4.629095 -1.738282,0.548295 -3.4633,-0.42053 -3.920075,-2.203481 -0.153549,-0.599365 -0.106315,-1.21913 0.142155,-1.885403 0.231906,-0.621849 1.028122,-1.412962 1.677496,-1.66683 0.353554,-0.138219 0.783968,-0.205142 1.204812,-0.200801 z m -0.31099,1.30432 c -1.024005,9.9e-4 -1.951942,0.833971 -1.95649,1.977808 -0.0031,0.800179 0.532104,1.562044 1.295445,1.844531 0.412577,0.152679 1.105447,0.107294 1.506896,-0.09952 1.471692,-0.758143 1.481698,-2.787184 0.01807,-3.516692 -0.283629,-0.141372 -0.576803,-0.206421 -0.863524,-0.206136 z M 25.352946,30.61649 c 0.793336,0 0.90575,0.02054 1.323869,0.225681 0.583153,0.286183 1.162082,0.863332 1.448258,1.446482 0.205191,0.418122 0.223903,0.530534 0.223903,1.323869 0,0.793337 -0.01872,0.905748 -0.223903,1.323866 -0.28602,0.582832 -0.864197,1.16069 -1.444704,1.444706 -0.594004,0.290622 -1.72607,0.353799 -2.350976,0.129722 -0.8619,-0.309054 -1.525403,-0.964187 -1.858748,-1.833868 -0.248137,-0.647383 -0.195777,-1.759238 0.113735,-2.391849 0.284016,-0.580505 0.861878,-1.156908 1.444705,-1.442928 0.418122,-0.205185 0.53053,-0.225681 1.323868,-0.225681 z m 0.259448,1.171047 c -0.343455,0.0088 -0.695172,0.110823 -1.021781,0.326969 -0.645693,0.427302 -1.022669,1.295621 -0.865401,1.995579 0.152675,0.679507 0.577678,1.197419 1.208364,1.471359 0.370901,0.161098 1.139777,0.148187 1.524669,-0.02666 0.707106,-0.321207 1.13742,-0.995166 1.13906,-1.784105 0.0024,-1.18631 -0.954557,-2.009929 -1.984911,-1.983138 z m 21.995759,3.630421 c -0.07752,-0.04791 -1.325642,0.514245 -1.325642,0.597073 0,0.02846 0.0539,0.455049 0.119044,0.948922 0.06512,0.493879 0.09859,0.960507 0.0746,1.035996 -0.04263,0.13439 -0.302129,0.2708 -2.187495,1.147948 -0.995198,0.463038 -1.262702,0.493029 -1.387824,0.158135 -0.03587,-0.09637 -0.110823,-0.592303 -0.166995,-1.101744 -0.06106,-0.552975 -0.13719,-0.926173 -0.188366,-0.925824 -0.04717,3.23e-4 -0.618431,0.17049 -1.268783,0.378499 -0.99955,0.31971 -1.180332,0.4035 -1.174593,0.53311 0.004,0.08432 0.05331,0.587293 0.111958,1.11951 0.09221,0.836271 0.09272,0.984028 -0.0054,1.080418 -0.122236,0.120181 -3.880901,1.144389 -4.199071,1.144389 -0.105677,0 -0.236245,-0.05111 -0.289651,-0.115498 -0.05329,-0.06437 -0.156893,-0.596452 -0.230894,-1.181703 -0.074,-0.585242 -0.156733,-1.087879 -0.184804,-1.115957 -0.04855,-0.0486 -4.084105,0.425194 -4.147526,0.486898 -0.01665,0.01595 0.02686,0.487588 0.09772,1.046653 0.157572,1.24362 0.157958,1.235213 0.0055,1.387845 -0.106447,0.106469 -0.420511,0.12266 -2.237252,0.12266 -1.912571,0 -2.131394,-0.01275 -2.28878,-0.140345 -0.149,-0.120639 -0.191442,-0.292279 -0.303869,-1.20126 l -0.131499,-1.062649 -1.300768,-0.08529 c -0.71498,-0.04731 -1.312586,-0.07559 -1.329289,-0.06223 -0.01669,0.01311 0.0258,0.476786 0.09598,1.028876 0.113745,0.895573 0.114752,1.023696 0.0089,1.185268 -0.07526,0.114934 -0.195541,0.181244 -0.330521,0.181244 -0.403939,0 -3.214105,-0.566956 -3.321221,-0.669939 -0.06344,-0.06095 -0.1561,-0.504953 -0.227446,-1.083972 l -0.120988,-0.979123 -0.717912,-0.136835 c -0.394762,-0.07489 -0.798055,-0.155798 -0.89561,-0.179471 -0.171054,-0.04162 -0.175926,-0.02375 -0.175926,0.504672 0,1.917192 1.25127,3.807337 3.37631,5.098225 1.639961,0.99622 4.05565,1.752114 6.555366,2.050667 1.09758,0.131058 4.08908,0.155229 5.213734,0.04263 5.068608,-0.507287 9.576362,-2.292593 12.296872,-4.870773 1.555939,-1.474521 2.33703,-2.950676 2.414954,-4.566899 0.03821,-0.796156 -0.07949,-1.705356 -0.23281,-1.800108 z" />
</svg>
