<?xml version="1.0" encoding="UTF-8" standalone="no"?>
<svg
   width="64"
   height="64"
   version="1.1"
   id="svg73"
   sodipodi:docname="abcd.svg"
   inkscape:version="1.4.2 (ebf0e940d0, 2025-05-08)"
   xmlns:inkscape="http://www.inkscape.org/namespaces/inkscape"
   xmlns:sodipodi="http://sodipodi.sourceforge.net/DTD/sodipodi-0.dtd"
   xmlns:xlink="http://www.w3.org/1999/xlink"
   xmlns="http://www.w3.org/2000/svg"
   xmlns:svg="http://www.w3.org/2000/svg"
   xmlns:rdf="http://www.w3.org/1999/02/22-rdf-syntax-ns#"
   xmlns:cc="http://creativecommons.org/ns#"
   xmlns:dc="http://purl.org/dc/elements/1.1/">
  <metadata
     id="metadata77">
    <rdf:RDF>
      <cc:Work
         rdf:about="">
        <dc:format>image/svg+xml</dc:format>
        <dc:type
           rdf:resource="http://purl.org/dc/dcmitype/StillImage" />
      </cc:Work>
    </rdf:RDF>
  </metadata>
  <sodipodi:namedview
     pagecolor="#f5f7fa"
     bordercolor="#666666"
     borderopacity="1"
     objecttolerance="10"
     gridtolerance="10"
     guidetolerance="10"
     inkscape:pageopacity="0"
     inkscape:pageshadow="2"
     inkscape:window-width="1320"
     inkscape:window-height="766"
     id="namedview75"
     showgrid="false"
     inkscape:zoom="3.1445312"
     inkscape:cx="53.426088"
     inkscape:cy="22.419876"
     inkscape:window-x="24"
     inkscape:window-y="21"
     inkscape:window-maximized="0"
     inkscape:current-layer="svg73"
     inkscape:document-rotation="0"
     inkscape:pagecheckerboard="0"
     inkscape:showpageshadow="2"
     inkscape:deskcolor="#d1d1d1" />
  <defs
     id="defs29">
    <linearGradient
       id="linearGradient4"
       inkscape:collect="always">
      <stop
         style="stop-color:#5ea9ac;stop-opacity:1;"
         offset="0"
         id="stop4" />
      <stop
         style="stop-color:#81bfc1;stop-opacity:1;"
         offset="0.5"
         id="stop1" />
    </linearGradient>
    <linearGradient
       id="linearGradient2"
       inkscape:collect="always">
      <stop
         style="stop-color:#ecf4f4;stop-opacity:1;"
         offset="0"
         id="stop2" />
      <stop
         style="stop-color:#d8e8e9;stop-opacity:1;"
         offset="1"
         id="stop3" />
    </linearGradient>
    <linearGradient
       inkscape:collect="always"
       xlink:href="#linearGradient2"
       id="linearGradient8"
       x1="31.721739"
       y1="5.2278585"
       x2="31.88887"
       y2="59.145416"
       gradientUnits="userSpaceOnUse"
       gradientTransform="matrix(0.8505,0,0,0.8505,4.7765033,4.7794869)" />
    <filter
       style="color-interpolation-filters:sRGB;"
       inkscape:label="Blur"
       id="filter9"
       x="-0.047762285"
       y="-0.047489063"
       width="1.0955246"
       height="1.0949781">
      <feGaussianBlur
         stdDeviation="1 1"
         result="blur"
         id="feGaussianBlur9" />
    </filter>
    <linearGradient
       inkscape:collect="always"
       xlink:href="#linearGradient4"
       id="linearGradient7"
       x1="26.723248"
       y1="58.711765"
       x2="25.756926"
       y2="5.950614"
       gradientUnits="userSpaceOnUse" />
    <filter
       style="color-interpolation-filters:sRGB;"
       inkscape:label="Out of Focus"
       id="filter40"
       x="-0.24226652"
       y="-0.2858297"
       width="1.484533"
       height="1.5716594">
      <feFlood
         flood-opacity="1"
         flood-color="rgb(255,255,255)"
         result="flood"
         id="feFlood38" />
      <feColorMatrix
         in="SourceGraphic"
         values="1 0 0 0 0 0 1 0 0 0 0 0 1 0 0 -0.2125 -0.7154 -0.0721 1 0 "
         result="colormatrix1"
         id="feColorMatrix38" />
      <feGaussianBlur
         in="colormatrix1"
         stdDeviation="3 3"
         result="blur"
         id="feGaussianBlur38" />
      <feColorMatrix
         in="blur"
         values="1 0 0 0 0 0 1 0 0 0 0 0 1 0 0 0 0 0 6 -2 "
         result="colormatrix2"
         id="feColorMatrix39" />
      <feBlend
         in="colormatrix2"
         in2="flood"
         mode="normal"
         result="blend"
         id="feBlend39" />
      <feComposite
         in="blend"
         in2="blend"
         operator="arithmetic"
         k2="0.2"
         result="composite1"
         id="feComposite39" />
      <feComposite
         in2="SourceGraphic"
         operator="in"
         id="feComposite40" />
    </filter>
  </defs>
  <g
     id="g877"
     transform="matrix(1.1,0,0,1.1,-3.1845928,-3.2065454)">
    <ellipse
       style="opacity:0.5;fill:#000000;stroke:none;stroke-width:3.89319;stroke-dasharray:none;stroke-opacity:1;filter:url(#filter9)"
       id="path2-5"
       cx="31.949858"
       cy="31.969812"
       rx="25.124426"
       ry="25.268976"
       transform="matrix(1.05,0,0,1.05,-1.5974929,-1.5984906)" />
    <path
       style="fill:#f5f7fa;stroke-width:0.204426;fill-opacity:1"
       d=""
       id="path3" />
    <circle
       style="opacity:1;fill:url(#linearGradient8);stroke:url(#linearGradient7);stroke-width:3.81818;stroke-dasharray:none;stroke-opacity:1"
       id="path2"
       cx="31.949856"
       cy="31.969812"
       r="24.711082" />
    <ellipse
       style="opacity:0.3;fill:none;stroke:#000000;stroke-width:0.974376;stroke-dasharray:none;stroke-opacity:1"
       id="path2-9"
       cx="31.949856"
       cy="31.969812"
       rx="23.129124"
       ry="23.129126" />
  </g>
  <path
     id="path71-5"
     style="fill:#000000;fill-opacity:1;stroke:none;stroke-width:0.491164;stroke-dasharray:none;stroke-opacity:0.6;opacity:0.2"
     d="m 32.056717,18.503317 c -2.51958,0 -3.088685,0.07319 -4.639195,0.58901 -2.438248,0.81114 -4.344432,1.979454 -6.197104,3.800764 -2.546415,2.503312 -4.046453,5.585236 -4.547102,9.345542 -0.217381,1.632704 -0.200036,2.276144 0.105523,4.084718 0.423813,2.508502 1.135108,4.327761 2.49803,6.385132 1.976015,2.982852 5.428219,5.431903 8.963739,6.358265 0.985477,0.258209 2.375569,0.424662 3.595471,0.429768 4.352785,0.01822 7.964298,-1.448975 11.02432,-4.476115 1.509755,-1.49353 2.001975,-2.165272 2.854887,-3.902448 1.343351,-2.736089 1.757456,-4.4282 1.757456,-7.179432 0,-2.670377 -0.415319,-4.445854 -1.60204,-6.847514 -1.963173,-3.973014 -4.994399,-6.614411 -9.176707,-8.000598 -1.54785,-0.513015 -2.122017,-0.587092 -4.637278,-0.587092 z m 0.289711,3.004538 c 3.071516,0.07668 6.112847,1.316049 8.461062,3.702917 2.390001,2.429334 3.500388,5.186562 3.5053,8.697051 0.0046,3.600346 -1.087466,6.319967 -3.524488,8.769962 -1.761973,1.77135 -3.396409,2.726901 -5.652217,3.303841 -2.127454,0.544122 -4.141615,0.540446 -6.241235,-0.0099 -2.258279,-0.591434 -3.652853,-1.406726 -5.477625,-3.198149 -2.559198,-2.512426 -3.67126,-5.22025 -3.656868,-8.911938 0.01419,-3.642841 1.335877,-6.684312 3.94274,-9.076935 2.469534,-2.266582 5.571814,-3.353671 8.643331,-3.276984 z m -0.297385,4.811871 -3.748962,3.754718 -3.74896,3.754716 h 1.045643 1.04756 v 3.975355 3.975358 h 5.412393 5.410476 V 37.804515 33.82916 h 1.041804 1.041807 L 38.508997,32.772005 37.467193,31.714852 V 29.56793 27.422927 h -0.993841 -0.993836 v 1.153082 1.155001 l -1.715237,-1.70564 z" />
  <path
     id="path71"
     style="fill:#4d4d4d;fill-opacity:1;stroke:none;stroke-width:0.491164;stroke-dasharray:none;stroke-opacity:0.6"
     d="m 32.056717,16.503317 c -2.51958,0 -3.088685,0.07319 -4.639195,0.58901 -2.438248,0.81114 -4.344432,1.979454 -6.197104,3.800764 -2.546415,2.503312 -4.046453,5.585236 -4.547102,9.345542 -0.217381,1.632704 -0.200036,2.276144 0.105523,4.084718 0.423813,2.508502 1.135108,4.327761 2.49803,6.385132 1.976015,2.982852 5.428219,5.431903 8.963739,6.358265 0.985477,0.258209 2.375569,0.424662 3.595471,0.429768 4.352785,0.01822 7.964298,-1.448975 11.02432,-4.476115 1.509755,-1.49353 2.001975,-2.165272 2.854887,-3.902448 1.343351,-2.736089 1.757456,-4.4282 1.757456,-7.179432 0,-2.670377 -0.415319,-4.445854 -1.60204,-6.847514 -1.963173,-3.973014 -4.994399,-6.614411 -9.176707,-8.000598 -1.54785,-0.513015 -2.122017,-0.587092 -4.637278,-0.587092 z m 0.289711,3.004538 c 3.071516,0.07668 6.112847,1.316049 8.461062,3.702917 2.390001,2.429334 3.500388,5.186562 3.5053,8.697051 0.0046,3.600346 -1.087466,6.319967 -3.524488,8.769962 -1.761973,1.77135 -3.396409,2.726901 -5.652217,3.303841 -2.127454,0.544122 -4.141615,0.540446 -6.241235,-0.0099 -2.258279,-0.591434 -3.652853,-1.406726 -5.477625,-3.198149 -2.559198,-2.512426 -3.67126,-5.22025 -3.656868,-8.911938 0.01419,-3.642841 1.335877,-6.684312 3.94274,-9.076935 2.469534,-2.266582 5.571814,-3.353671 8.643331,-3.276984 z m -0.297385,4.811871 -3.748962,3.754718 -3.74896,3.754716 h 1.045643 1.04756 v 3.975355 3.975358 h 5.412393 5.410476 V 35.804515 31.82916 h 1.041804 1.041807 L 38.508997,30.772005 37.467193,29.714852 V 27.56793 25.422927 h -0.993841 -0.993836 v 1.153082 1.155001 l -1.715237,-1.70564 z" />
</svg>
