<?xml version="1.0" encoding="UTF-8" standalone="no"?>
<svg
   width="64"
   height="64"
   version="1.1"
   id="svg73"
   sodipodi:docname="1password.svg"
   inkscape:version="1.4.2 (ebf0e940d0, 2025-05-08)"
   xmlns:inkscape="http://www.inkscape.org/namespaces/inkscape"
   xmlns:sodipodi="http://sodipodi.sourceforge.net/DTD/sodipodi-0.dtd"
   xmlns:xlink="http://www.w3.org/1999/xlink"
   xmlns="http://www.w3.org/2000/svg"
   xmlns:svg="http://www.w3.org/2000/svg"
   xmlns:rdf="http://www.w3.org/1999/02/22-rdf-syntax-ns#"
   xmlns:cc="http://creativecommons.org/ns#"
   xmlns:dc="http://purl.org/dc/elements/1.1/">
  <metadata
     id="metadata77">
    <rdf:RDF>
      <cc:Work
         rdf:about="">
        <dc:format>image/svg+xml</dc:format>
        <dc:type
           rdf:resource="http://purl.org/dc/dcmitype/StillImage" />
      </cc:Work>
    </rdf:RDF>
  </metadata>
  <sodipodi:namedview
     pagecolor="#f5f7fa"
     bordercolor="#666666"
     borderopacity="1"
     objecttolerance="10"
     gridtolerance="10"
     guidetolerance="10"
     inkscape:pageopacity="0"
     inkscape:pageshadow="2"
     inkscape:window-width="1920"
     inkscape:window-height="931"
     id="namedview75"
     showgrid="false"
     inkscape:zoom="6.2890624"
     inkscape:cx="53.585094"
     inkscape:cy="29.734162"
     inkscape:window-x="0"
     inkscape:window-y="0"
     inkscape:window-maximized="1"
     inkscape:current-layer="svg73"
     inkscape:document-rotation="0"
     inkscape:pagecheckerboard="0"
     inkscape:showpageshadow="2"
     inkscape:deskcolor="#d1d1d1" />
  <defs
     id="defs29">
    <linearGradient
       id="linearGradient4"
       inkscape:collect="always">
      <stop
         style="stop-color:#5ea9ac;stop-opacity:1;"
         offset="0"
         id="stop4" />
      <stop
         style="stop-color:#81bfc1;stop-opacity:1;"
         offset="0.5"
         id="stop1" />
    </linearGradient>
    <linearGradient
       id="linearGradient2"
       inkscape:collect="always">
      <stop
         style="stop-color:#eceff4;stop-opacity:1;"
         offset="0"
         id="stop2" />
      <stop
         style="stop-color:#d8e8e9;stop-opacity:1;"
         offset="1"
         id="stop3" />
    </linearGradient>
    <linearGradient
       inkscape:collect="always"
       xlink:href="#linearGradient2"
       id="linearGradient8"
       x1="31.721739"
       y1="5.2278585"
       x2="31.88887"
       y2="59.145416"
       gradientUnits="userSpaceOnUse"
       gradientTransform="matrix(0.8505,0,0,0.8505,4.7765033,4.7794869)" />
    <filter
       style="color-interpolation-filters:sRGB;"
       inkscape:label="Blur"
       id="filter9"
       x="-0.047762285"
       y="-0.047489063"
       width="1.0955246"
       height="1.0949781">
      <feGaussianBlur
         stdDeviation="1 1"
         result="blur"
         id="feGaussianBlur9" />
    </filter>
    <linearGradient
       inkscape:collect="always"
       xlink:href="#linearGradient4"
       id="linearGradient7"
       x1="26.723248"
       y1="58.711765"
       x2="25.756926"
       y2="5.950614"
       gradientUnits="userSpaceOnUse" />
    <filter
       style="color-interpolation-filters:sRGB;"
       inkscape:label="Out of Focus"
       id="filter40"
       x="-0.24226652"
       y="-0.2858297"
       width="1.484533"
       height="1.5716594">
      <feFlood
         flood-opacity="1"
         flood-color="rgb(255,255,255)"
         result="flood"
         id="feFlood38" />
      <feColorMatrix
         in="SourceGraphic"
         values="1 0 0 0 0 0 1 0 0 0 0 0 1 0 0 -0.2125 -0.7154 -0.0721 1 0 "
         result="colormatrix1"
         id="feColorMatrix38" />
      <feGaussianBlur
         in="colormatrix1"
         stdDeviation="3 3"
         result="blur"
         id="feGaussianBlur38" />
      <feColorMatrix
         in="blur"
         values="1 0 0 0 0 0 1 0 0 0 0 0 1 0 0 0 0 0 6 -2 "
         result="colormatrix2"
         id="feColorMatrix39" />
      <feBlend
         in="colormatrix2"
         in2="flood"
         mode="normal"
         result="blend"
         id="feBlend39" />
      <feComposite
         in="blend"
         in2="blend"
         operator="arithmetic"
         k2="0.2"
         result="composite1"
         id="feComposite39" />
      <feComposite
         in2="SourceGraphic"
         operator="in"
         id="feComposite40" />
    </filter>
  </defs>
  <g
     id="g877"
     transform="matrix(1.1,0,0,1.1,-3.1845928,-3.2065454)">
    <ellipse
       style="opacity:0.5;fill:#000000;stroke:none;stroke-width:3.89319;stroke-dasharray:none;stroke-opacity:1;filter:url(#filter9)"
       id="path2-5"
       cx="31.949858"
       cy="31.969812"
       rx="25.124426"
       ry="25.268976"
       transform="matrix(1.05,0,0,1.05,-1.5974929,-1.5984906)" />
    <path
       style="fill:#f5f7fa;stroke-width:0.204426;fill-opacity:1"
       d=""
       id="path3" />
    <circle
       style="opacity:1;fill:url(#linearGradient8);stroke:url(#linearGradient7);stroke-width:3.81818;stroke-dasharray:none;stroke-opacity:1"
       id="path2"
       cx="31.949856"
       cy="31.969812"
       r="24.711082" />
    <ellipse
       style="opacity:0.3;fill:none;stroke:#000000;stroke-width:0.974376;stroke-dasharray:none;stroke-opacity:1"
       id="path2-9"
       cx="31.949856"
       cy="31.969812"
       rx="23.129124"
       ry="23.129126" />
  </g>
  <path
     id="path5-2"
     style="fill:#000000;fill-opacity:1;stroke:none;stroke-width:0.0272153;stroke-opacity:0.5;opacity:0.2"
     d="m 31.934927,17.296455 c -0.35997,0.0045 -0.720252,0.03039 -0.940204,0.07719 -0.825117,0.175515 -1.038294,0.278859 -3.129336,1.516724 l -1.225539,0.725033 v 7.046854 7.045681 l 0.145006,0.39526 c 0.495354,1.355424 1.850287,2.61371 3.39362,3.151556 0.404885,0.141099 0.494874,0.151992 1.279334,0.150852 0.774637,-9.43e-4 0.881428,-0.01374 1.306228,-0.15319 1.662587,-0.54575 2.831254,-1.771516 3.245108,-3.402977 0.148908,-0.587008 0.180046,-1.439978 0.07367,-2.026586 C 35.923949,30.94678 35.483821,30.09605 34.84324,29.425563 34.007735,28.551049 33.015096,28.074037 31.743139,27.936906 L 31.40284,27.90065 v -1.771649 -1.771654 l 0.504015,0.03159 c 0.573788,0.03586 1.294375,0.228126 1.798549,0.480627 0.18571,0.09302 1.11276,0.622952 2.060498,1.177594 1.83333,1.072914 2.307344,1.420759 2.820612,2.069853 0.556689,0.704001 0.920674,1.476612 1.095735,2.324783 0.08832,0.427939 0.101134,0.75691 0.101739,2.575036 5.82e-4,1.692814 -0.01522,2.162956 -0.08536,2.503703 -0.243817,1.184452 -0.773035,2.137836 -1.641849,2.957433 -0.497096,0.468933 -0.561946,0.51163 -2.545801,1.668745 -1.819613,1.061315 -2.272095,1.273341 -3.073206,1.439541 -1.008813,0.209292 -2.305186,0.06416 -3.240429,-0.361346 -0.33331,-0.151665 -3.341152,-1.910164 -3.84852,-2.249955 -0.42685,-0.285869 -1.123279,-0.994218 -1.422,-1.44656 -0.286027,-0.43311 -0.600691,-1.120822 -0.751932,-1.643013 l -0.126293,-0.436191 -0.0152,-6.844543 c -0.0084,-3.76456 -0.02713,-6.844546 -0.0421,-6.844546 -0.108042,0 -3.75886,2.212897 -4.043814,2.451079 -0.896077,0.748993 -1.502962,1.747876 -1.783348,2.937553 -0.08822,0.374315 -0.09826,0.903533 -0.116939,6.367428 -0.02074,6.065291 -0.0011,6.856464 0.182426,7.567239 0.282839,1.094135 0.97668,2.160279 1.837141,2.824122 0.264632,0.204161 2.488109,1.520083 8.608012,5.09277 2.507811,1.464017 2.860384,1.619965 3.849691,1.710845 0.24768,0.02275 0.511033,0.03522 0.585875,0.02691 0.07483,-0.0084 0.296394,-0.02906 0.49232,-0.04562 0.492642,-0.04161 1.09245,-0.216371 1.576363,-0.459577 0.458135,-0.230254 10.181656,-5.915202 10.552738,-6.169797 0.403732,-0.276999 0.959802,-0.838087 1.255944,-1.26647 0.554217,-0.801703 0.838436,-1.599941 0.928509,-2.611289 0.06817,-0.765275 0.06817,-11.561414 0,-12.317374 -0.143664,-1.593604 -0.945388,-3.011316 -2.205499,-3.902325 -0.343998,-0.243233 -10.090483,-5.957944 -10.558592,-6.190846 -0.337084,-0.167713 -0.883857,-0.349565 -1.279332,-0.424495 -0.218125,-0.04132 -0.577895,-0.05829 -0.937865,-0.0538 z m -1.130818,7.180165 v 1.738907 c 0,1.870134 0.0097,1.8044 -0.274809,1.8044 -0.05629,0 -0.286536,0.05816 -0.512202,0.129805 l -0.410463,0.130974 v -1.790365 c 0,-0.984736 0.01034,-1.790366 0.02337,-1.790364 0.013,0 0.191231,-0.03447 0.395262,-0.07601 0.204029,-0.04154 0.461914,-0.09141 0.574179,-0.111092 z m -1.796211,0.61277 v 1.750605 1.751772 l -0.254929,0.161379 c -0.14036,0.08868 -0.41064,0.305917 -0.599908,0.482965 l -0.343806,0.321587 0.01405,-1.998517 0.01404,-1.99852 0.585872,-0.236219 z" />
  <path
     id="path5"
     style="fill:#4d4d4d;fill-opacity:1;stroke:none;stroke-width:0.0272153;stroke-opacity:0.5"
     d="m 31.934927,15.296455 c -0.35997,0.0045 -0.720252,0.03039 -0.940204,0.07719 -0.825117,0.175515 -1.038294,0.278859 -3.129336,1.516724 l -1.225539,0.725033 v 7.046854 7.045681 l 0.145006,0.39526 c 0.495354,1.355424 1.850287,2.61371 3.39362,3.151556 0.404885,0.141099 0.494874,0.151992 1.279334,0.150852 0.774637,-9.43e-4 0.881428,-0.01374 1.306228,-0.15319 1.662587,-0.54575 2.831254,-1.771516 3.245108,-3.402977 0.148908,-0.587008 0.180046,-1.439978 0.07367,-2.026586 C 35.923949,28.94678 35.483821,28.09605 34.84324,27.425563 34.007735,26.551049 33.015096,26.074037 31.743139,25.936906 L 31.40284,25.90065 v -1.771649 -1.771654 l 0.504015,0.03159 c 0.573788,0.03586 1.294375,0.228126 1.798549,0.480627 0.18571,0.09302 1.11276,0.622952 2.060498,1.177594 1.83333,1.072914 2.307344,1.420759 2.820612,2.069853 0.556689,0.704001 0.920674,1.476612 1.095735,2.324783 0.08832,0.427939 0.101134,0.75691 0.101739,2.575036 5.82e-4,1.692814 -0.01522,2.162956 -0.08536,2.503703 -0.243817,1.184452 -0.773035,2.137836 -1.641849,2.957433 -0.497096,0.468933 -0.561946,0.51163 -2.545801,1.668745 -1.819613,1.061315 -2.272095,1.273341 -3.073206,1.439541 -1.008813,0.209292 -2.305186,0.06416 -3.240429,-0.361346 -0.33331,-0.151665 -3.341152,-1.910164 -3.84852,-2.249955 -0.42685,-0.285869 -1.123279,-0.994218 -1.422,-1.44656 -0.286027,-0.43311 -0.600691,-1.120822 -0.751932,-1.643013 l -0.126293,-0.436191 -0.0152,-6.844543 c -0.0084,-3.76456 -0.02713,-6.844546 -0.0421,-6.844546 -0.108042,0 -3.75886,2.212897 -4.043814,2.451079 -0.896077,0.748993 -1.502962,1.747876 -1.783348,2.937553 -0.08822,0.374315 -0.09826,0.903533 -0.116939,6.367428 -0.02074,6.065291 -0.0011,6.856464 0.182426,7.567239 0.282839,1.094135 0.97668,2.160279 1.837141,2.824122 0.264632,0.204161 2.488109,1.520083 8.608012,5.09277 2.507811,1.464017 2.860384,1.619965 3.849691,1.710845 0.24768,0.02275 0.511033,0.03522 0.585875,0.02691 0.07483,-0.0084 0.296394,-0.02906 0.49232,-0.04562 0.492642,-0.04161 1.09245,-0.216371 1.576363,-0.459577 0.458135,-0.230254 10.181656,-5.915202 10.552738,-6.169797 0.403732,-0.276999 0.959802,-0.838087 1.255944,-1.26647 0.554217,-0.801703 0.838436,-1.599941 0.928509,-2.611289 0.06817,-0.765275 0.06817,-11.561414 0,-12.317374 -0.143664,-1.593604 -0.945388,-3.011316 -2.205499,-3.902325 -0.343998,-0.243233 -10.090483,-5.957944 -10.558592,-6.190846 -0.337084,-0.167713 -0.883857,-0.349565 -1.279332,-0.424495 -0.218125,-0.04132 -0.577895,-0.05829 -0.937865,-0.0538 z m -1.130818,7.180165 v 1.738907 c 0,1.870134 0.0097,1.8044 -0.274809,1.8044 -0.05629,0 -0.286536,0.05816 -0.512202,0.129805 l -0.410463,0.130974 v -1.790365 c 0,-0.984736 0.01034,-1.790366 0.02337,-1.790364 0.013,0 0.191231,-0.03447 0.395262,-0.07601 0.204029,-0.04154 0.461914,-0.09141 0.574179,-0.111092 z m -1.796211,0.61277 v 1.750605 1.751772 l -0.254929,0.161379 c -0.14036,0.08868 -0.41064,0.305917 -0.599908,0.482965 l -0.343806,0.321587 0.01405,-1.998517 0.01404,-1.99852 0.585872,-0.236219 z" />
</svg>
