<?xml version="1.0" encoding="UTF-8" standalone="no"?>
<svg
   width="64"
   height="64"
   version="1.1"
   id="svg73"
   sodipodi:docname="abcd.svg"
   inkscape:version="1.4.2 (ebf0e940d0, 2025-05-08)"
   xmlns:inkscape="http://www.inkscape.org/namespaces/inkscape"
   xmlns:sodipodi="http://sodipodi.sourceforge.net/DTD/sodipodi-0.dtd"
   xmlns:xlink="http://www.w3.org/1999/xlink"
   xmlns="http://www.w3.org/2000/svg"
   xmlns:svg="http://www.w3.org/2000/svg"
   xmlns:rdf="http://www.w3.org/1999/02/22-rdf-syntax-ns#"
   xmlns:cc="http://creativecommons.org/ns#"
   xmlns:dc="http://purl.org/dc/elements/1.1/">
  <metadata
     id="metadata77">
    <rdf:RDF>
      <cc:Work
         rdf:about="">
        <dc:format>image/svg+xml</dc:format>
        <dc:type
           rdf:resource="http://purl.org/dc/dcmitype/StillImage" />
      </cc:Work>
    </rdf:RDF>
  </metadata>
  <sodipodi:namedview
     pagecolor="#f5f7fa"
     bordercolor="#666666"
     borderopacity="1"
     objecttolerance="10"
     gridtolerance="10"
     guidetolerance="10"
     inkscape:pageopacity="0"
     inkscape:pageshadow="2"
     inkscape:window-width="1263"
     inkscape:window-height="693"
     id="namedview75"
     showgrid="false"
     inkscape:zoom="4.4470387"
     inkscape:cx="36.091433"
     inkscape:cy="29.682674"
     inkscape:window-x="24"
     inkscape:window-y="21"
     inkscape:window-maximized="0"
     inkscape:current-layer="svg73"
     inkscape:document-rotation="0"
     inkscape:pagecheckerboard="0"
     inkscape:showpageshadow="2"
     inkscape:deskcolor="#d1d1d1" />
  <defs
     id="defs29">
    <linearGradient
       id="linearGradient4"
       inkscape:collect="always">
      <stop
         style="stop-color:#5ea9ac;stop-opacity:1;"
         offset="0"
         id="stop4" />
      <stop
         style="stop-color:#81bfc1;stop-opacity:1;"
         offset="0.5"
         id="stop1" />
    </linearGradient>
    <linearGradient
       id="linearGradient2"
       inkscape:collect="always">
      <stop
         style="stop-color:#ecf4f4;stop-opacity:1;"
         offset="0"
         id="stop2" />
      <stop
         style="stop-color:#d8e8e9;stop-opacity:1;"
         offset="1"
         id="stop3" />
    </linearGradient>
    <linearGradient
       inkscape:collect="always"
       xlink:href="#linearGradient2"
       id="linearGradient8"
       x1="31.721739"
       y1="5.2278585"
       x2="31.88887"
       y2="59.145416"
       gradientUnits="userSpaceOnUse"
       gradientTransform="matrix(0.8505,0,0,0.8505,4.7765033,4.7794869)" />
    <filter
       style="color-interpolation-filters:sRGB;"
       inkscape:label="Blur"
       id="filter9"
       x="-0.047762285"
       y="-0.047489063"
       width="1.0955246"
       height="1.0949781">
      <feGaussianBlur
         stdDeviation="1 1"
         result="blur"
         id="feGaussianBlur9" />
    </filter>
    <linearGradient
       inkscape:collect="always"
       xlink:href="#linearGradient4"
       id="linearGradient7"
       x1="26.723248"
       y1="58.711765"
       x2="25.756926"
       y2="5.950614"
       gradientUnits="userSpaceOnUse" />
    <filter
       style="color-interpolation-filters:sRGB;"
       inkscape:label="Out of Focus"
       id="filter40"
       x="-0.24226652"
       y="-0.2858297"
       width="1.484533"
       height="1.5716594">
      <feFlood
         flood-opacity="1"
         flood-color="rgb(255,255,255)"
         result="flood"
         id="feFlood38" />
      <feColorMatrix
         in="SourceGraphic"
         values="1 0 0 0 0 0 1 0 0 0 0 0 1 0 0 -0.2125 -0.7154 -0.0721 1 0 "
         result="colormatrix1"
         id="feColorMatrix38" />
      <feGaussianBlur
         in="colormatrix1"
         stdDeviation="3 3"
         result="blur"
         id="feGaussianBlur38" />
      <feColorMatrix
         in="blur"
         values="1 0 0 0 0 0 1 0 0 0 0 0 1 0 0 0 0 0 6 -2 "
         result="colormatrix2"
         id="feColorMatrix39" />
      <feBlend
         in="colormatrix2"
         in2="flood"
         mode="normal"
         result="blend"
         id="feBlend39" />
      <feComposite
         in="blend"
         in2="blend"
         operator="arithmetic"
         k2="0.2"
         result="composite1"
         id="feComposite39" />
      <feComposite
         in2="SourceGraphic"
         operator="in"
         id="feComposite40" />
    </filter>
  </defs>
  <g
     id="g877"
     transform="matrix(1.1,0,0,1.1,-3.1845928,-3.2065454)">
    <ellipse
       style="opacity:0.5;fill:#000000;stroke:none;stroke-width:3.89319;stroke-dasharray:none;stroke-opacity:1;filter:url(#filter9)"
       id="path2-5"
       cx="31.949858"
       cy="31.969812"
       rx="25.124426"
       ry="25.268976"
       transform="matrix(1.05,0,0,1.05,-1.5974929,-1.5984906)" />
    <path
       style="fill:#f5f7fa;stroke-width:0.204426;fill-opacity:1"
       d=""
       id="path3" />
    <circle
       style="opacity:1;fill:url(#linearGradient8);stroke:url(#linearGradient7);stroke-width:3.81818;stroke-dasharray:none;stroke-opacity:1"
       id="path2"
       cx="31.949856"
       cy="31.969812"
       r="24.711082" />
    <ellipse
       style="opacity:0.3;fill:none;stroke:#000000;stroke-width:0.974376;stroke-dasharray:none;stroke-opacity:1"
       id="path2-9"
       cx="31.949856"
       cy="31.969812"
       rx="23.129124"
       ry="23.129126" />
  </g>
  <path
     id="path4-7"
     style="fill:#000000;fill-opacity:1;stroke:none;stroke-width:1.01396;stroke-dasharray:none;stroke-dashoffset:2.2;stroke-opacity:0.3;opacity:0.2"
     d="m 28.955181,18.418823 -0.355735,0.136817 c -0.867836,0.334477 -1.49213,0.964602 -1.806024,1.823916 l -0.114717,0.314687 -0.0115,4.52033 c -0.0073,2.819318 0.003,4.520328 0.0284,4.520328 0.08616,0 0.321577,0.240692 0.396777,0.406253 0.09652,0.21251 0.101398,0.447219 0.0147,0.654631 -0.111148,0.266025 -0.142386,0.284367 -0.285216,0.164191 -0.06921,-0.05823 -0.201983,-0.126313 -0.295746,-0.151555 -0.480214,-0.129313 -0.962302,0.262206 -0.955636,0.776719 0.006,0.463618 0.415855,0.813151 0.880913,0.751459 l 0.206279,-0.02741 v 1.069304 1.0693 l 0.194703,0.02211 c 0.11951,0.01351 0.293044,0.08306 0.448351,0.178917 0.28716,0.177245 0.559283,0.283111 0.72725,0.283111 0.117697,0 0.456475,0.305683 0.556754,0.502025 0.114439,0.224066 0.03302,0.460202 -0.190491,0.553596 -0.304909,0.127438 -0.65944,0.05976 -1.113471,-0.211518 -0.249661,-0.149189 -0.335932,-0.178396 -0.515675,-0.175754 -0.403246,0.0059 -0.79982,0.276189 -1.636583,1.112452 -0.596709,0.596358 -0.902384,0.791203 -1.299791,0.827237 -0.425258,0.03857 -0.867225,-0.224263 -0.990369,-0.589378 -0.0279,-0.08266 -0.07036,-0.431055 -0.09472,-0.773562 -0.0667,-0.938315 -0.186644,-1.420035 -0.464137,-1.857596 -0.191316,-0.301674 -0.429081,-0.439931 -0.754615,-0.439931 -0.218958,0 -0.300529,0.02269 -0.475714,0.130497 -0.11653,0.07173 -0.27123,0.219416 -0.345209,0.329419 -0.315754,0.46951 -0.208683,0.77005 0.494656,1.383992 0.245676,0.214445 0.465343,0.431433 0.488346,0.483077 0.07247,0.162693 0.0029,0.30213 -0.215752,0.430462 -0.179377,0.105292 -0.247732,0.119813 -0.569385,0.119975 -0.595177,3.1e-4 -0.91799,-0.179611 -1.20402,-0.669362 -0.262426,-0.449323 -0.486526,-0.57821 -0.787242,-0.452561 -0.262532,0.109692 -0.432871,0.508688 -0.318898,0.747248 0.05203,0.108933 0.08546,0.120337 0.447299,0.165236 0.218487,0.02707 0.43875,0.0813 0.500972,0.122088 0.06114,0.04006 0.23222,0.240247 0.379941,0.445194 1.041106,1.444365 3.01128,3.974289 4.220378,5.419126 2.097107,2.505992 4.203869,4.652378 5.63068,5.738035 0.815322,0.620375 1.414847,0.968258 2.030203,1.176653 0.662557,0.224371 1.169936,0.170251 1.963894,-0.209405 1.017432,-0.486528 2.275441,-1.485665 3.822546,-3.034251 2.124036,-2.126071 4.829862,-5.366027 7.243054,-8.674399 0.310196,-0.425185 0.646455,-0.859869 0.747249,-0.966163 0.233013,-0.245685 0.406228,-0.504596 0.406228,-0.607274 0,-0.205564 -0.672257,-0.01705 -1.10613,0.310482 -0.318394,0.240401 -0.691835,0.385227 -1.067192,0.413615 -0.381727,0.02885 -0.52264,-0.0043 -0.583073,-0.136818 -0.03834,-0.08378 -0.02926,-0.130193 0.04212,-0.246271 0.09762,-0.157492 0.277506,-0.298919 0.960889,-0.75988 0.485091,-0.327192 0.70829,-0.541671 0.84408,-0.80829 0.239136,-0.469484 0.29567,-1.104438 0.124194,-1.407144 -0.219065,-0.38679 -0.61712,-0.474926 -1.087193,-0.239966 -0.476518,0.238183 -0.99682,0.791419 -1.115612,1.186124 -0.03232,0.106733 -0.07974,0.48815 -0.105215,0.847235 -0.04766,0.669761 -0.127799,1.09546 -0.236823,1.261902 -0.191478,0.292236 -0.660275,0.452804 -0.84197,0.288376 -0.04913,-0.04442 -0.116439,-0.132965 -0.149468,-0.196816 -0.114568,-0.221508 -0.07718,-0.342219 0.222093,-0.72199 0.330572,-0.419608 0.39355,-0.530908 0.431495,-0.768297 0.0581,-0.363437 -0.213998,-0.871959 -0.56202,-1.051412 -0.328258,-0.169245 -0.862571,-0.05796 -1.239802,0.257855 -0.370035,0.309832 -0.37297,0.484781 -0.02313,1.254535 0.144433,0.31783 0.27196,0.651392 0.284138,0.741989 0.02892,0.218123 -0.06851,0.363402 -0.325197,0.482027 -0.176102,0.08138 -0.275736,0.09262 -0.823023,0.09262 -0.781422,0 -1.026007,-0.06411 -1.273482,-0.332586 -0.198521,-0.215231 -0.288733,-0.392098 -0.549549,-1.079854 -0.195221,-0.514886 -0.296284,-0.71357 -0.363119,-0.71357 -0.02006,0 -0.183927,0.09604 -0.364158,0.213651 -0.504793,0.329564 -0.663756,0.398737 -0.973458,0.42097 -0.378697,0.02715 -0.709449,-0.1067 -0.799874,-0.323109 -0.05632,-0.134765 -0.05236,-0.163163 0.04736,-0.380996 0.05926,-0.129488 0.147869,-0.291197 0.196806,-0.359943 0.07708,-0.108229 0.102894,-0.119899 0.196808,-0.08419 0.309265,0.117581 0.693011,0.0086 1.23454,-0.350472 0.209341,-0.138865 0.416737,-0.252593 0.460979,-0.252593 0.113444,0 0.176885,0.114955 0.423089,0.768297 0.215902,0.572856 0.346273,0.836673 0.513593,1.037727 l 0.08837,0.105237 9.9e-4,-1.101927 9.9e-4,-1.101929 0.268356,-0.502025 c 0.147632,-0.276107 0.369373,-0.617507 0.491488,-0.758828 0.267506,-0.309509 0.338907,-0.54211 0.273664,-0.883015 -0.06402,-0.334355 -0.220937,-0.610252 -0.430454,-0.754616 -0.351394,-0.242204 -0.602289,0.119637 -0.775663,1.119823 -0.130079,0.750343 -0.17209,0.911431 -0.237877,0.911431 -0.102971,0 -0.158857,-0.172605 -0.13161,-0.404144 0.01395,-0.120248 0.08255,-0.469647 0.152666,-0.776718 0.07011,-0.307077 0.160047,-0.741764 0.199948,-0.966161 0.04004,-0.224402 0.0994,-0.4831 0.131577,-0.574646 0.04783,-0.135991 0.05783,-0.90607 0.05783,-4.209853 0,-4.249286 -0.01089,-4.54115 -0.192603,-5.064452 -0.290238,-0.837056 -0.98557,-1.526688 -1.833165,-1.817574 l -0.356782,-0.122091 h -3.564695 z m 4.141445,7.479857 c 0.14143,0.0032 0.283227,0.02767 0.400989,0.07261 0.244305,0.0933 0.551482,0.418532 0.624109,0.660946 0.162919,0.543764 -0.106898,1.15433 -0.602007,1.360834 -0.196139,0.08182 -0.692365,0.08567 -0.874598,0.0065 -0.196293,-0.08548 -0.440804,-0.315537 -0.546229,-0.514654 -0.131076,-0.247547 -0.130773,-0.748684 0,-0.995631 0.119574,-0.225788 0.386611,-0.46551 0.597801,-0.536754 0.117395,-0.03961 0.258508,-0.0569 0.399935,-0.05369 z m -4.850805,3.235273 c 0.362999,0 0.680084,0.313433 1.025101,1.012468 0.375489,0.760773 0.641713,1.764537 0.593587,2.23859 -0.03894,0.383445 -0.09244,0.405502 -0.175759,0.07158 -0.165336,-0.662685 -0.568287,-1.515117 -0.888279,-1.878648 -0.318184,-0.361472 -0.608451,-0.427972 -0.869336,-0.198916 L 27.78379,30.508476 27.73644,30.31693 c -0.06851,-0.272053 -0.06114,-0.734174 0.0147,-0.880911 0.105204,-0.203432 0.267345,-0.302056 0.494662,-0.302056 z m -8.095548,0.04522 c -0.158248,10e-5 -0.316336,0.02606 -0.430455,0.07788 -0.218509,0.09925 -0.50542,0.421483 -0.571488,0.642002 -0.166721,0.556467 0.139291,1.148771 0.679891,1.316632 0.251576,0.0781 0.372115,0.07817 0.617796,0.0043 0.572693,-0.172343 0.898303,-0.801988 0.692519,-1.340827 -0.09703,-0.254041 -0.337582,-0.521226 -0.558856,-0.622004 -0.113507,-0.05169 -0.271161,-0.07797 -0.429407,-0.07788 z m 15.617504,0.988265 c 0.111979,-0.01442 0.216005,0.01242 0.307326,0.08419 0.167135,0.131473 0.217772,0.342812 0.190487,0.799873 -0.0131,0.2193 -0.03552,0.416345 -0.04946,0.438878 -0.01385,0.02245 -0.08162,-0.01534 -0.150512,-0.08419 -0.161786,-0.161769 -0.316268,-0.161082 -0.573598,0.0021 -0.250042,0.158578 -0.53929,0.547987 -0.788287,1.059834 -0.180584,0.371211 -0.19306,0.423156 -0.232598,0.924064 -0.07524,0.953501 -0.118234,1.202641 -0.245221,1.452401 -0.266289,0.523706 -1.123964,0.877838 -1.622899,0.669367 -0.190503,-0.07958 -0.217924,-0.158433 -0.126297,-0.351522 0.125194,-0.263816 -0.03542,-0.705186 -0.334687,-0.921958 -0.591166,-0.428239 -1.446944,0.29915 -1.099823,0.934585 0.09571,0.175202 0.09797,0.19617 0.03687,0.305217 -0.03609,0.06442 -0.120711,0.144273 -0.18839,0.176814 -0.152852,0.07348 -0.588038,0.09869 -0.825134,0.04842 -0.464479,-0.09852 -0.853114,-0.426918 -0.986175,-0.833558 -0.261741,-0.799868 -1.049615,-1.76399 -1.517653,-1.857597 -0.115529,-0.02311 -0.154585,-0.06248 -0.225231,-0.225226 -0.110147,-0.253758 -0.143885,-0.635068 -0.0684,-0.777771 0.07422,-0.140348 0.274513,-0.161261 0.491502,-0.05052 0.215293,0.10989 0.273998,0.18169 0.466238,0.566226 0.194801,0.389671 0.514149,0.867411 0.719886,1.077722 0.08321,0.08509 0.19144,0.232196 0.239968,0.327313 0.258512,0.506718 0.992765,0.805374 1.569225,0.637792 0.316196,-0.0919 0.372326,-0.195032 0.244177,-0.446245 -0.15574,-0.305271 -0.108625,-0.600469 0.137875,-0.860915 0.174684,-0.184581 0.36038,-0.263114 0.619899,-0.263114 0.288327,0 0.478402,0.11356 0.643056,0.385201 0.173429,0.286125 0.21765,0.542317 0.124193,0.723041 -0.09547,0.184622 -0.09031,0.199514 0.102091,0.286273 0.519655,0.234328 1.453519,-0.237462 1.645002,-0.831445 0.04234,-0.13131 0.09282,-0.502013 0.117867,-0.858811 0.05692,-0.810817 0.0951,-0.985405 0.301,-1.400829 0.336379,-0.67862 0.741767,-1.092331 1.077725,-1.135606 z m -11.560259,0.0842 c -0.102421,-4.39e-4 -0.20901,0.03754 -0.295744,0.110522 -0.19996,0.16826 -0.179591,0.310561 0.10418,0.724095 0.304617,0.443893 0.449268,0.845425 0.450455,1.254536 8.08e-4,0.270845 -0.01323,0.3249 -0.112618,0.443089 -0.08953,0.106403 -0.14139,0.131351 -0.247324,0.12104 -0.205053,-0.01995 -0.280549,-0.21926 -0.336787,-0.891437 -0.05471,-0.654164 -0.101057,-0.759759 -0.404141,-0.907211 -0.246542,-0.119949 -0.703468,-0.16081 -0.938799,-0.08315 -0.362061,0.119497 -0.620282,0.487529 -0.622002,0.886173 -0.0017,0.40784 0.219759,0.743911 0.613585,0.930377 0.314998,0.149145 0.457929,0.330725 0.668314,0.85039 0.231559,0.571976 0.28553,0.639728 0.595694,0.750407 0.312356,0.111455 0.925894,0.05629 1.261904,-0.113676 0.364477,-0.184335 0.572018,-0.634355 0.543071,-1.177704 -0.02053,-0.38548 -0.125006,-0.6396 -0.397832,-0.966161 -0.290346,-0.347519 -0.447579,-0.74472 -0.517812,-1.309263 -0.04381,-0.352266 -0.102993,-0.533635 -0.189444,-0.579908 -0.05352,-0.02863 -0.113265,-0.04188 -0.174706,-0.04211 z m 18.543354,9.9e-4 c -0.100243,0.0014 -0.202908,0.0166 -0.30625,0.04523 -0.225597,0.06262 -0.59146,0.431034 -0.660942,0.666208 -0.164266,0.556037 0.125078,1.136841 0.66199,1.328208 0.829439,0.295661 1.651977,-0.58141 1.304009,-1.390302 -0.178389,-0.414648 -0.564577,-0.655639 -0.998814,-0.649359 z m -25.60854,2.686937 c -0.04022,9.9e-4 -0.07918,0.0052 -0.116816,0.01364 -0.324115,0.07398 -0.629482,0.427927 -0.631475,0.732521 -0.0021,0.306613 0.210132,0.63298 0.492554,0.75672 0.296143,0.129755 0.641788,0.04612 0.866175,-0.209438 0.239217,-0.272456 0.279863,-0.584504 0.11788,-0.897756 -0.120923,-0.233852 -0.446887,-0.402976 -0.728303,-0.395731 z m 29.633155,1.095613 c -0.251007,0.0058 -0.432536,0.102168 -0.578848,0.304161 -0.287812,0.397322 -0.157801,0.934669 0.27788,1.15034 0.645385,0.319469 1.353841,-0.343915 1.065089,-0.996681 -0.123378,-0.278986 -0.343913,-0.43234 -0.652527,-0.454666 -0.03882,-0.0028 -0.07572,-0.004 -0.11154,-0.0031 z" />
  <path
     id="path4"
     style="fill:#4d4d4d;fill-opacity:1;stroke:none;stroke-width:1.01396;stroke-dasharray:none;stroke-dashoffset:2.2;stroke-opacity:0.3"
     d="m 28.955181,16.418823 -0.355735,0.136817 c -0.867836,0.334477 -1.49213,0.964602 -1.806024,1.823916 l -0.114717,0.314687 -0.0115,4.52033 c -0.0073,2.819318 0.003,4.520328 0.0284,4.520328 0.08616,0 0.321577,0.240692 0.396777,0.406253 0.09652,0.21251 0.101398,0.447219 0.0147,0.654631 -0.111148,0.266025 -0.142386,0.284367 -0.285216,0.164191 -0.06921,-0.05823 -0.201983,-0.126313 -0.295746,-0.151555 -0.480214,-0.129313 -0.962302,0.262206 -0.955636,0.776719 0.006,0.463618 0.415855,0.813151 0.880913,0.751459 l 0.206279,-0.02741 v 1.069304 1.0693 l 0.194703,0.02211 c 0.11951,0.01351 0.293044,0.08306 0.448351,0.178917 0.28716,0.177245 0.559283,0.283111 0.72725,0.283111 0.117697,0 0.456475,0.305683 0.556754,0.502025 0.114439,0.224066 0.03302,0.460202 -0.190491,0.553596 -0.304909,0.127438 -0.65944,0.05976 -1.113471,-0.211518 -0.249661,-0.149189 -0.335932,-0.178396 -0.515675,-0.175754 -0.403246,0.0059 -0.79982,0.276189 -1.636583,1.112452 -0.596709,0.596358 -0.902384,0.791203 -1.299791,0.827237 -0.425258,0.03857 -0.867225,-0.224263 -0.990369,-0.589378 -0.0279,-0.08266 -0.07036,-0.431055 -0.09472,-0.773562 -0.0667,-0.938315 -0.186644,-1.420035 -0.464137,-1.857596 -0.191316,-0.301674 -0.429081,-0.439931 -0.754615,-0.439931 -0.218958,0 -0.300529,0.02269 -0.475714,0.130497 -0.11653,0.07173 -0.27123,0.219416 -0.345209,0.329419 -0.315754,0.46951 -0.208683,0.77005 0.494656,1.383992 0.245676,0.214445 0.465343,0.431433 0.488346,0.483077 0.07247,0.162693 0.0029,0.30213 -0.215752,0.430462 -0.179377,0.105292 -0.247732,0.119813 -0.569385,0.119975 -0.595177,3.1e-4 -0.91799,-0.179611 -1.20402,-0.669362 -0.262426,-0.449323 -0.486526,-0.57821 -0.787242,-0.452561 -0.262532,0.109692 -0.432871,0.508688 -0.318898,0.747248 0.05203,0.108933 0.08546,0.120337 0.447299,0.165236 0.218487,0.02707 0.43875,0.0813 0.500972,0.122088 0.06114,0.04006 0.23222,0.240247 0.379941,0.445194 1.041106,1.444365 3.01128,3.974289 4.220378,5.419126 2.097107,2.505992 4.203869,4.652378 5.63068,5.738035 0.815322,0.620375 1.414847,0.968258 2.030203,1.176653 0.662557,0.224371 1.169936,0.170251 1.963894,-0.209405 1.017432,-0.486528 2.275441,-1.485665 3.822546,-3.034251 2.124036,-2.126071 4.829862,-5.366027 7.243054,-8.674399 0.310196,-0.425185 0.646455,-0.859869 0.747249,-0.966163 0.233013,-0.245685 0.406228,-0.504596 0.406228,-0.607274 0,-0.205564 -0.672257,-0.01705 -1.10613,0.310482 -0.318394,0.240401 -0.691835,0.385227 -1.067192,0.413615 -0.381727,0.02885 -0.52264,-0.0043 -0.583073,-0.136818 -0.03834,-0.08378 -0.02926,-0.130193 0.04212,-0.246271 0.09762,-0.157492 0.277506,-0.298919 0.960889,-0.75988 0.485091,-0.327192 0.70829,-0.541671 0.84408,-0.80829 0.239136,-0.469484 0.29567,-1.104438 0.124194,-1.407144 -0.219065,-0.38679 -0.61712,-0.474926 -1.087193,-0.239966 -0.476518,0.238183 -0.99682,0.791419 -1.115612,1.186124 -0.03232,0.106733 -0.07974,0.48815 -0.105215,0.847235 -0.04766,0.669761 -0.127799,1.09546 -0.236823,1.261902 -0.191478,0.292236 -0.660275,0.452804 -0.84197,0.288376 -0.04913,-0.04442 -0.116439,-0.132965 -0.149468,-0.196816 -0.114568,-0.221508 -0.07718,-0.342219 0.222093,-0.72199 0.330572,-0.419608 0.39355,-0.530908 0.431495,-0.768297 0.0581,-0.363437 -0.213998,-0.871959 -0.56202,-1.051412 -0.328258,-0.169245 -0.862571,-0.05796 -1.239802,0.257855 -0.370035,0.309832 -0.37297,0.484781 -0.02313,1.254535 0.144433,0.31783 0.27196,0.651392 0.284138,0.741989 0.02892,0.218123 -0.06851,0.363402 -0.325197,0.482027 -0.176102,0.08138 -0.275736,0.09262 -0.823023,0.09262 -0.781422,0 -1.026007,-0.06411 -1.273482,-0.332586 -0.198521,-0.215231 -0.288733,-0.392098 -0.549549,-1.079854 -0.195221,-0.514886 -0.296284,-0.71357 -0.363119,-0.71357 -0.02006,0 -0.183927,0.09604 -0.364158,0.213651 -0.504793,0.329564 -0.663756,0.398737 -0.973458,0.42097 -0.378697,0.02715 -0.709449,-0.1067 -0.799874,-0.323109 -0.05632,-0.134765 -0.05236,-0.163163 0.04736,-0.380996 0.05926,-0.129488 0.147869,-0.291197 0.196806,-0.359943 0.07708,-0.108229 0.102894,-0.119899 0.196808,-0.08419 0.309265,0.117581 0.693011,0.0086 1.23454,-0.350472 0.209341,-0.138865 0.416737,-0.252593 0.460979,-0.252593 0.113444,0 0.176885,0.114955 0.423089,0.768297 0.215902,0.572856 0.346273,0.836673 0.513593,1.037727 l 0.08837,0.105237 9.9e-4,-1.101927 9.9e-4,-1.101929 0.268356,-0.502025 c 0.147632,-0.276107 0.369373,-0.617507 0.491488,-0.758828 0.267506,-0.309509 0.338907,-0.54211 0.273664,-0.883015 -0.06402,-0.334355 -0.220937,-0.610252 -0.430454,-0.754616 -0.351394,-0.242204 -0.602289,0.119637 -0.775663,1.119823 -0.130079,0.750343 -0.17209,0.911431 -0.237877,0.911431 -0.102971,0 -0.158857,-0.172605 -0.13161,-0.404144 0.01395,-0.120248 0.08255,-0.469647 0.152666,-0.776718 0.07011,-0.307077 0.160047,-0.741764 0.199948,-0.966161 0.04004,-0.224402 0.0994,-0.4831 0.131577,-0.574646 0.04783,-0.135991 0.05783,-0.90607 0.05783,-4.209853 0,-4.249286 -0.01089,-4.54115 -0.192603,-5.064452 -0.290238,-0.837056 -0.98557,-1.526688 -1.833165,-1.817574 l -0.356782,-0.122091 h -3.564695 z m 4.141445,7.479857 c 0.14143,0.0032 0.283227,0.02767 0.400989,0.07261 0.244305,0.0933 0.551482,0.418532 0.624109,0.660946 0.162919,0.543764 -0.106898,1.15433 -0.602007,1.360834 -0.196139,0.08182 -0.692365,0.08567 -0.874598,0.0065 -0.196293,-0.08548 -0.440804,-0.315537 -0.546229,-0.514654 -0.131076,-0.247547 -0.130773,-0.748684 0,-0.995631 0.119574,-0.225788 0.386611,-0.46551 0.597801,-0.536754 0.117395,-0.03961 0.258508,-0.0569 0.399935,-0.05369 z m -4.850805,3.235273 c 0.362999,0 0.680084,0.313433 1.025101,1.012468 0.375489,0.760773 0.641713,1.764537 0.593587,2.23859 -0.03894,0.383445 -0.09244,0.405502 -0.175759,0.07158 -0.165336,-0.662685 -0.568287,-1.515117 -0.888279,-1.878648 -0.318184,-0.361472 -0.608451,-0.427972 -0.869336,-0.198916 L 27.78379,28.508476 27.73644,28.31693 c -0.06851,-0.272053 -0.06114,-0.734174 0.0147,-0.880911 0.105204,-0.203432 0.267345,-0.302056 0.494662,-0.302056 z m -8.095548,0.04522 c -0.158248,10e-5 -0.316336,0.02606 -0.430455,0.07788 -0.218509,0.09925 -0.50542,0.421483 -0.571488,0.642002 -0.166721,0.556467 0.139291,1.148771 0.679891,1.316632 0.251576,0.0781 0.372115,0.07817 0.617796,0.0043 0.572693,-0.172343 0.898303,-0.801988 0.692519,-1.340827 -0.09703,-0.254041 -0.337582,-0.521226 -0.558856,-0.622004 -0.113507,-0.05169 -0.271161,-0.07797 -0.429407,-0.07788 z m 15.617504,0.988265 c 0.111979,-0.01442 0.216005,0.01242 0.307326,0.08419 0.167135,0.131473 0.217772,0.342812 0.190487,0.799873 -0.0131,0.2193 -0.03552,0.416345 -0.04946,0.438878 -0.01385,0.02245 -0.08162,-0.01534 -0.150512,-0.08419 -0.161786,-0.161769 -0.316268,-0.161082 -0.573598,0.0021 -0.250042,0.158578 -0.53929,0.547987 -0.788287,1.059834 -0.180584,0.371211 -0.19306,0.423156 -0.232598,0.924064 -0.07524,0.953501 -0.118234,1.202641 -0.245221,1.452401 -0.266289,0.523706 -1.123964,0.877838 -1.622899,0.669367 -0.190503,-0.07958 -0.217924,-0.158433 -0.126297,-0.351522 0.125194,-0.263816 -0.03542,-0.705186 -0.334687,-0.921958 -0.591166,-0.428239 -1.446944,0.29915 -1.099823,0.934585 0.09571,0.175202 0.09797,0.19617 0.03687,0.305217 -0.03609,0.06442 -0.120711,0.144273 -0.18839,0.176814 -0.152852,0.07348 -0.588038,0.09869 -0.825134,0.04842 -0.464479,-0.09852 -0.853114,-0.426918 -0.986175,-0.833558 -0.261741,-0.799868 -1.049615,-1.76399 -1.517653,-1.857597 -0.115529,-0.02311 -0.154585,-0.06248 -0.225231,-0.225226 -0.110147,-0.253758 -0.143885,-0.635068 -0.0684,-0.777771 0.07422,-0.140348 0.274513,-0.161261 0.491502,-0.05052 0.215293,0.10989 0.273998,0.18169 0.466238,0.566226 0.194801,0.389671 0.514149,0.867411 0.719886,1.077722 0.08321,0.08509 0.19144,0.232196 0.239968,0.327313 0.258512,0.506718 0.992765,0.805374 1.569225,0.637792 0.316196,-0.0919 0.372326,-0.195032 0.244177,-0.446245 -0.15574,-0.305271 -0.108625,-0.600469 0.137875,-0.860915 0.174684,-0.184581 0.36038,-0.263114 0.619899,-0.263114 0.288327,0 0.478402,0.11356 0.643056,0.385201 0.173429,0.286125 0.21765,0.542317 0.124193,0.723041 -0.09547,0.184622 -0.09031,0.199514 0.102091,0.286273 0.519655,0.234328 1.453519,-0.237462 1.645002,-0.831445 0.04234,-0.13131 0.09282,-0.502013 0.117867,-0.858811 0.05692,-0.810817 0.0951,-0.985405 0.301,-1.400829 0.336379,-0.67862 0.741767,-1.092331 1.077725,-1.135606 z m -11.560259,0.0842 c -0.102421,-4.39e-4 -0.20901,0.03754 -0.295744,0.110522 -0.19996,0.16826 -0.179591,0.310561 0.10418,0.724095 0.304617,0.443893 0.449268,0.845425 0.450455,1.254536 8.08e-4,0.270845 -0.01323,0.3249 -0.112618,0.443089 -0.08953,0.106403 -0.14139,0.131351 -0.247324,0.12104 -0.205053,-0.01995 -0.280549,-0.21926 -0.336787,-0.891437 -0.05471,-0.654164 -0.101057,-0.759759 -0.404141,-0.907211 -0.246542,-0.119949 -0.703468,-0.16081 -0.938799,-0.08315 -0.362061,0.119497 -0.620282,0.487529 -0.622002,0.886173 -0.0017,0.40784 0.219759,0.743911 0.613585,0.930377 0.314998,0.149145 0.457929,0.330725 0.668314,0.85039 0.231559,0.571976 0.28553,0.639728 0.595694,0.750407 0.312356,0.111455 0.925894,0.05629 1.261904,-0.113676 0.364477,-0.184335 0.572018,-0.634355 0.543071,-1.177704 -0.02053,-0.38548 -0.125006,-0.6396 -0.397832,-0.966161 -0.290346,-0.347519 -0.447579,-0.74472 -0.517812,-1.309263 -0.04381,-0.352266 -0.102993,-0.533635 -0.189444,-0.579908 -0.05352,-0.02863 -0.113265,-0.04188 -0.174706,-0.04211 z m 18.543354,9.9e-4 c -0.100243,0.0014 -0.202908,0.0166 -0.30625,0.04523 -0.225597,0.06262 -0.59146,0.431034 -0.660942,0.666208 -0.164266,0.556037 0.125078,1.136841 0.66199,1.328208 0.829439,0.295661 1.651977,-0.58141 1.304009,-1.390302 -0.178389,-0.414648 -0.564577,-0.655639 -0.998814,-0.649359 z m -25.60854,2.686937 c -0.04022,9.9e-4 -0.07918,0.0052 -0.116816,0.01364 -0.324115,0.07398 -0.629482,0.427927 -0.631475,0.732521 -0.0021,0.306613 0.210132,0.63298 0.492554,0.75672 0.296143,0.129755 0.641788,0.04612 0.866175,-0.209438 0.239217,-0.272456 0.279863,-0.584504 0.11788,-0.897756 -0.120923,-0.233852 -0.446887,-0.402976 -0.728303,-0.395731 z m 29.633155,1.095613 c -0.251007,0.0058 -0.432536,0.102168 -0.578848,0.304161 -0.287812,0.397322 -0.157801,0.934669 0.27788,1.15034 0.645385,0.319469 1.353841,-0.343915 1.065089,-0.996681 -0.123378,-0.278986 -0.343913,-0.43234 -0.652527,-0.454666 -0.03882,-0.0028 -0.07572,-0.004 -0.11154,-0.0031 z" />
</svg>
