<?xml version="1.0" encoding="UTF-8" standalone="no"?>
<svg
   width="64"
   height="64"
   version="1.1"
   id="svg73"
   sodipodi:docname="abcd.svg"
   inkscape:version="1.4.2 (ebf0e940d0, 2025-05-08)"
   xmlns:inkscape="http://www.inkscape.org/namespaces/inkscape"
   xmlns:sodipodi="http://sodipodi.sourceforge.net/DTD/sodipodi-0.dtd"
   xmlns:xlink="http://www.w3.org/1999/xlink"
   xmlns="http://www.w3.org/2000/svg"
   xmlns:svg="http://www.w3.org/2000/svg"
   xmlns:rdf="http://www.w3.org/1999/02/22-rdf-syntax-ns#"
   xmlns:cc="http://creativecommons.org/ns#"
   xmlns:dc="http://purl.org/dc/elements/1.1/">
  <metadata
     id="metadata77">
    <rdf:RDF>
      <cc:Work
         rdf:about="">
        <dc:format>image/svg+xml</dc:format>
        <dc:type
           rdf:resource="http://purl.org/dc/dcmitype/StillImage" />
      </cc:Work>
    </rdf:RDF>
  </metadata>
  <sodipodi:namedview
     pagecolor="#f5f7fa"
     bordercolor="#666666"
     borderopacity="1"
     objecttolerance="10"
     gridtolerance="10"
     guidetolerance="10"
     inkscape:pageopacity="0"
     inkscape:pageshadow="2"
     inkscape:window-width="1920"
     inkscape:window-height="931"
     id="namedview75"
     showgrid="false"
     inkscape:zoom="6.2890624"
     inkscape:cx="53.505591"
     inkscape:cy="29.734162"
     inkscape:window-x="0"
     inkscape:window-y="0"
     inkscape:window-maximized="1"
     inkscape:current-layer="svg73"
     inkscape:document-rotation="0"
     inkscape:pagecheckerboard="0"
     inkscape:showpageshadow="2"
     inkscape:deskcolor="#d1d1d1" />
  <defs
     id="defs29">
    <linearGradient
       id="linearGradient4"
       inkscape:collect="always">
      <stop
         style="stop-color:#5ea9ac;stop-opacity:1;"
         offset="0"
         id="stop4" />
      <stop
         style="stop-color:#81bfc1;stop-opacity:1;"
         offset="0.5"
         id="stop1" />
    </linearGradient>
    <linearGradient
       id="linearGradient2"
       inkscape:collect="always">
      <stop
         style="stop-color:#ecf4f4;stop-opacity:1;"
         offset="0"
         id="stop2" />
      <stop
         style="stop-color:#d8e8e9;stop-opacity:1;"
         offset="1"
         id="stop3" />
    </linearGradient>
    <linearGradient
       inkscape:collect="always"
       xlink:href="#linearGradient2"
       id="linearGradient8"
       x1="31.721739"
       y1="5.2278585"
       x2="31.88887"
       y2="59.145416"
       gradientUnits="userSpaceOnUse"
       gradientTransform="matrix(0.8505,0,0,0.8505,4.7765033,4.7794869)" />
    <filter
       style="color-interpolation-filters:sRGB;"
       inkscape:label="Blur"
       id="filter9"
       x="-0.047762285"
       y="-0.047489063"
       width="1.0955246"
       height="1.0949781">
      <feGaussianBlur
         stdDeviation="1 1"
         result="blur"
         id="feGaussianBlur9" />
    </filter>
    <linearGradient
       inkscape:collect="always"
       xlink:href="#linearGradient4"
       id="linearGradient7"
       x1="26.723248"
       y1="58.711765"
       x2="25.756926"
       y2="5.950614"
       gradientUnits="userSpaceOnUse" />
    <filter
       style="color-interpolation-filters:sRGB;"
       inkscape:label="Out of Focus"
       id="filter40"
       x="-0.24226652"
       y="-0.2858297"
       width="1.484533"
       height="1.5716594">
      <feFlood
         flood-opacity="1"
         flood-color="rgb(255,255,255)"
         result="flood"
         id="feFlood38" />
      <feColorMatrix
         in="SourceGraphic"
         values="1 0 0 0 0 0 1 0 0 0 0 0 1 0 0 -0.2125 -0.7154 -0.0721 1 0 "
         result="colormatrix1"
         id="feColorMatrix38" />
      <feGaussianBlur
         in="colormatrix1"
         stdDeviation="3 3"
         result="blur"
         id="feGaussianBlur38" />
      <feColorMatrix
         in="blur"
         values="1 0 0 0 0 0 1 0 0 0 0 0 1 0 0 0 0 0 6 -2 "
         result="colormatrix2"
         id="feColorMatrix39" />
      <feBlend
         in="colormatrix2"
         in2="flood"
         mode="normal"
         result="blend"
         id="feBlend39" />
      <feComposite
         in="blend"
         in2="blend"
         operator="arithmetic"
         k2="0.2"
         result="composite1"
         id="feComposite39" />
      <feComposite
         in2="SourceGraphic"
         operator="in"
         id="feComposite40" />
    </filter>
  </defs>
  <g
     id="g877"
     transform="matrix(1.1,0,0,1.1,-3.1845928,-3.2065454)">
    <ellipse
       style="opacity:0.5;fill:#000000;stroke:none;stroke-width:3.89319;stroke-dasharray:none;stroke-opacity:1;filter:url(#filter9)"
       id="path2-5"
       cx="31.949858"
       cy="31.969812"
       rx="25.124426"
       ry="25.268976"
       transform="matrix(1.05,0,0,1.05,-1.5974929,-1.5984906)" />
    <path
       style="fill:#f5f7fa;stroke-width:0.204426;fill-opacity:1"
       d=""
       id="path3" />
    <circle
       style="opacity:1;fill:url(#linearGradient8);stroke:url(#linearGradient7);stroke-width:3.81818;stroke-dasharray:none;stroke-opacity:1"
       id="path2"
       cx="31.949856"
       cy="31.969812"
       r="24.711082" />
    <ellipse
       style="opacity:0.3;fill:none;stroke:#000000;stroke-width:0.974376;stroke-dasharray:none;stroke-opacity:1"
       id="path2-9"
       cx="31.949856"
       cy="31.969812"
       rx="23.129124"
       ry="23.129126" />
  </g>
  <path
     style="fill:#000000;fill-opacity:1;stroke:none;stroke-width:0.505459;stroke-dasharray:none;stroke-opacity:0.6;opacity:0.2"
     d="m 27.844914,45.793668 c -1.775729,-0.167969 -3.48286,-1.126316 -4.741348,-2.661683 -0.937853,-1.144199 -1.689312,-3.260772 -1.971445,-5.552835 l -0.0557,-0.452407 -0.602598,-0.02786 c -0.331431,-0.01532 -1.403987,-0.04133 -2.383467,-0.05771 l -1.780866,-0.02984 1.14e-4,-0.518912 c 6.3e-5,-0.285407 0.01351,-0.953287 0.03012,-1.484186 l 0.02985,-0.965271 0.739739,0.01624 c 0.406857,0.0088 1.452544,0.0345 2.323753,0.05705 0.871209,0.02245 1.589602,0.0354 1.596434,0.02867 0.0067,-0.0065 0.03254,-0.282469 0.05717,-0.61294 0.117538,-1.578348 0.592179,-3.336484 1.248408,-4.624193 0.998327,-1.959 2.398761,-3.11129 4.131112,-3.399116 1.992301,-0.33102 3.965233,0.155191 5.670269,1.397368 0.60323,0.439476 1.629299,1.440571 2.237047,2.182596 0.264365,0.322772 0.894129,1.147957 1.399478,1.833739 1.613021,2.188947 2.138285,2.785549 2.687837,3.052891 0.333527,0.162263 0.455946,0.172096 0.712715,0.05734 0.258421,-0.115517 0.33742,-0.22 0.396097,-0.523516 0.113355,-0.586635 -0.01469,-1.389479 -0.583412,-3.655694 -0.548393,-2.185539 -0.630691,-2.667335 -0.632057,-3.700481 -9.9e-4,-0.758662 0.0087,-0.86502 0.122098,-1.275105 0.447851,-1.626141 1.700004,-2.70681 3.13631,-2.70681 1.165824,0 2.709508,0.64822 4.284024,1.798931 0.477454,0.348941 1.769406,1.408011 1.793745,1.470414 0.02232,0.05749 -1.92088,2.239637 -1.968821,2.210803 -0.02232,-0.01381 -0.296063,-0.237769 -0.606477,-0.497494 -1.047181,-0.876055 -1.803786,-1.385388 -2.5866,-1.741271 -0.55567,-0.252614 -0.82501,-0.314868 -0.967932,-0.223704 -0.139162,0.08878 -0.203402,0.322609 -0.203753,0.741709 -5.32e-4,0.700043 0.147777,1.49859 0.626974,3.376747 0.54904,2.151765 0.69132,3.040191 0.647804,4.04512 -0.02966,0.699264 -0.150041,1.179705 -0.435882,1.74879 -0.182672,0.363766 -0.276734,0.486631 -0.652698,0.852302 -0.357501,0.347855 -0.516041,0.465512 -0.852791,0.633035 -1.437388,0.715079 -2.841004,0.610289 -4.183642,-0.312327 -0.729751,-0.501468 -1.589634,-1.419711 -2.506647,-2.676777 -0.267279,-0.366386 -0.690951,-0.948029 -0.941492,-1.292531 -1.755601,-2.41398 -3.152781,-3.612391 -4.53364,-3.888671 -0.665895,-0.133231 -1.599273,-0.05137 -2.071716,0.181694 -0.507338,0.25028 -1.073739,0.924328 -1.459172,1.736501 -0.458518,0.96616 -0.816276,2.393199 -0.894148,3.566592 l -0.0317,0.47761 0.222486,0.02906 c 1.914902,0.250356 3.108756,0.565771 4.253918,1.12388 1.63023,0.794511 2.622233,1.785276 3.487784,3.483447 0.953565,1.870842 1.028349,3.530678 0.21798,4.838192 -0.686845,1.108224 -1.889745,1.799651 -3.3756,1.940311 -0.500573,0.04739 -0.531574,0.04739 -1.029668,2.57e-4 z m 1.5085,-3.146976 c 0.181872,-0.09184 0.262205,-0.164423 0.312997,-0.282728 0.241394,-0.562439 0.0078,-1.494687 -0.640268,-2.556845 -0.618286,-1.013147 -1.35096,-1.548063 -2.719865,-1.985796 -0.495619,-0.158479 -1.691453,-0.393141 -2.005802,-0.393595 l -0.120586,-1.79e-4 0.08692,0.480962 c 0.202241,1.11932 0.522563,2.122436 0.92784,2.905641 0.351872,0.680003 0.952208,1.230403 1.754099,1.608189 0.624074,0.294023 0.996067,0.376298 1.631503,0.360746 0.473029,-0.01148 0.554202,-0.02584 0.773179,-0.13639 z"
     id="path109-9" />
  <path
     style="fill:#4d4d4d;fill-opacity:1;stroke:none;stroke-width:0.505459;stroke-dasharray:none;stroke-opacity:0.6"
     d="m 27.844914,43.793668 c -1.775729,-0.167969 -3.48286,-1.126316 -4.741348,-2.661683 -0.937853,-1.144199 -1.689312,-3.260772 -1.971445,-5.552835 l -0.0557,-0.452407 -0.602598,-0.02786 c -0.331431,-0.01532 -1.403987,-0.04133 -2.383467,-0.05771 l -1.780866,-0.02984 1.14e-4,-0.518912 c 6.3e-5,-0.285407 0.01351,-0.953287 0.03012,-1.484186 l 0.02985,-0.965271 0.739739,0.01624 c 0.406857,0.0088 1.452544,0.0345 2.323753,0.05705 0.871209,0.02245 1.589602,0.0354 1.596434,0.02867 0.0067,-0.0065 0.03254,-0.282469 0.05717,-0.61294 0.117538,-1.578348 0.592179,-3.336484 1.248408,-4.624193 0.998327,-1.959 2.398761,-3.11129 4.131112,-3.399116 1.992301,-0.33102 3.965233,0.155191 5.670269,1.397368 0.60323,0.439476 1.629299,1.440571 2.237047,2.182596 0.264365,0.322772 0.894129,1.147957 1.399478,1.833739 1.613021,2.188947 2.138285,2.785549 2.687837,3.052891 0.333527,0.162263 0.455946,0.172096 0.712715,0.05734 0.258421,-0.115517 0.33742,-0.22 0.396097,-0.523516 0.113355,-0.586635 -0.01469,-1.389479 -0.583412,-3.655694 -0.548393,-2.185539 -0.630691,-2.667335 -0.632057,-3.700481 -9.9e-4,-0.758662 0.0087,-0.86502 0.122098,-1.275105 0.447851,-1.626141 1.700004,-2.70681 3.13631,-2.70681 1.165824,0 2.709508,0.64822 4.284024,1.798931 0.477454,0.348941 1.769406,1.408011 1.793745,1.470414 0.02232,0.05749 -1.92088,2.239637 -1.968821,2.210803 -0.02232,-0.01381 -0.296063,-0.237769 -0.606477,-0.497494 -1.047181,-0.876055 -1.803786,-1.385388 -2.5866,-1.741271 -0.55567,-0.252614 -0.82501,-0.314868 -0.967932,-0.223704 -0.139162,0.08878 -0.203402,0.322609 -0.203753,0.741709 -5.32e-4,0.700043 0.147777,1.49859 0.626974,3.376747 0.54904,2.151765 0.69132,3.040191 0.647804,4.04512 -0.02966,0.699264 -0.150041,1.179705 -0.435882,1.74879 -0.182672,0.363766 -0.276734,0.486631 -0.652698,0.852302 -0.357501,0.347855 -0.516041,0.465512 -0.852791,0.633035 -1.437388,0.715079 -2.841004,0.610289 -4.183642,-0.312327 -0.729751,-0.501468 -1.589634,-1.419711 -2.506647,-2.676777 -0.267279,-0.366386 -0.690951,-0.948029 -0.941492,-1.292531 -1.755601,-2.41398 -3.152781,-3.612391 -4.53364,-3.888671 -0.665895,-0.133231 -1.599273,-0.05137 -2.071716,0.181694 -0.507338,0.25028 -1.073739,0.924328 -1.459172,1.736501 -0.458518,0.96616 -0.816276,2.393199 -0.894148,3.566592 l -0.0317,0.47761 0.222486,0.02906 c 1.914902,0.250356 3.108756,0.565771 4.253918,1.12388 1.63023,0.794511 2.622233,1.785276 3.487784,3.483447 0.953565,1.870842 1.028349,3.530678 0.21798,4.838192 -0.686845,1.108224 -1.889745,1.799651 -3.3756,1.940311 -0.500573,0.04739 -0.531574,0.04739 -1.029668,2.57e-4 z m 1.5085,-3.146976 c 0.181872,-0.09184 0.262205,-0.164423 0.312997,-0.282728 0.241394,-0.562439 0.0078,-1.494687 -0.640268,-2.556845 -0.618286,-1.013147 -1.35096,-1.548063 -2.719865,-1.985796 -0.495619,-0.158479 -1.691453,-0.393141 -2.005802,-0.393595 l -0.120586,-1.79e-4 0.08692,0.480962 c 0.202241,1.11932 0.522563,2.122436 0.92784,2.905641 0.351872,0.680003 0.952208,1.230403 1.754099,1.608189 0.624074,0.294023 0.996067,0.376298 1.631503,0.360746 0.473029,-0.01148 0.554202,-0.02584 0.773179,-0.13639 z"
     id="path109" />
</svg>
