<?xml version="1.0" encoding="UTF-8" standalone="no"?>
<svg
   width="64"
   height="64"
   version="1.1"
   id="svg73"
   sodipodi:docname="1password.svg"
   inkscape:version="1.4.2 (ebf0e940d0, 2025-05-08)"
   xmlns:inkscape="http://www.inkscape.org/namespaces/inkscape"
   xmlns:sodipodi="http://sodipodi.sourceforge.net/DTD/sodipodi-0.dtd"
   xmlns:xlink="http://www.w3.org/1999/xlink"
   xmlns="http://www.w3.org/2000/svg"
   xmlns:svg="http://www.w3.org/2000/svg"
   xmlns:rdf="http://www.w3.org/1999/02/22-rdf-syntax-ns#"
   xmlns:cc="http://creativecommons.org/ns#"
   xmlns:dc="http://purl.org/dc/elements/1.1/">
  <metadata
     id="metadata77">
    <rdf:RDF>
      <cc:Work
         rdf:about="">
        <dc:format>image/svg+xml</dc:format>
        <dc:type
           rdf:resource="http://purl.org/dc/dcmitype/StillImage" />
      </cc:Work>
    </rdf:RDF>
  </metadata>
  <sodipodi:namedview
     pagecolor="#f5f7fa"
     bordercolor="#666666"
     borderopacity="1"
     objecttolerance="10"
     gridtolerance="10"
     guidetolerance="10"
     inkscape:pageopacity="0"
     inkscape:pageshadow="2"
     inkscape:window-width="1414"
     inkscape:window-height="797"
     id="namedview75"
     showgrid="false"
     inkscape:zoom="6.2890624"
     inkscape:cx="34.345342"
     inkscape:cy="29.734162"
     inkscape:window-x="24"
     inkscape:window-y="21"
     inkscape:window-maximized="0"
     inkscape:current-layer="svg73"
     inkscape:document-rotation="0"
     inkscape:pagecheckerboard="0"
     inkscape:showpageshadow="2"
     inkscape:deskcolor="#d1d1d1" />
  <defs
     id="defs29">
    <linearGradient
       id="linearGradient4"
       inkscape:collect="always">
      <stop
         style="stop-color:#5ea9ac;stop-opacity:1;"
         offset="0"
         id="stop4" />
      <stop
         style="stop-color:#81bfc1;stop-opacity:1;"
         offset="0.5"
         id="stop1" />
    </linearGradient>
    <linearGradient
       id="linearGradient2"
       inkscape:collect="always">
      <stop
         style="stop-color:#ecf4f4;stop-opacity:1;"
         offset="0"
         id="stop2" />
      <stop
         style="stop-color:#d8e8e9;stop-opacity:1;"
         offset="1"
         id="stop3" />
    </linearGradient>
    <linearGradient
       inkscape:collect="always"
       xlink:href="#linearGradient2"
       id="linearGradient8"
       x1="31.721739"
       y1="5.2278585"
       x2="31.88887"
       y2="59.145416"
       gradientUnits="userSpaceOnUse"
       gradientTransform="matrix(0.8505,0,0,0.8505,4.7765033,4.7794869)" />
    <filter
       style="color-interpolation-filters:sRGB;"
       inkscape:label="Blur"
       id="filter9"
       x="-0.047762285"
       y="-0.047489063"
       width="1.0955246"
       height="1.0949781">
      <feGaussianBlur
         stdDeviation="1 1"
         result="blur"
         id="feGaussianBlur9" />
    </filter>
    <linearGradient
       inkscape:collect="always"
       xlink:href="#linearGradient4"
       id="linearGradient7"
       x1="26.723248"
       y1="58.711765"
       x2="25.756926"
       y2="5.950614"
       gradientUnits="userSpaceOnUse" />
    <filter
       style="color-interpolation-filters:sRGB;"
       inkscape:label="Out of Focus"
       id="filter40"
       x="-0.24226652"
       y="-0.2858297"
       width="1.484533"
       height="1.5716594">
      <feFlood
         flood-opacity="1"
         flood-color="rgb(255,255,255)"
         result="flood"
         id="feFlood38" />
      <feColorMatrix
         in="SourceGraphic"
         values="1 0 0 0 0 0 1 0 0 0 0 0 1 0 0 -0.2125 -0.7154 -0.0721 1 0 "
         result="colormatrix1"
         id="feColorMatrix38" />
      <feGaussianBlur
         in="colormatrix1"
         stdDeviation="3 3"
         result="blur"
         id="feGaussianBlur38" />
      <feColorMatrix
         in="blur"
         values="1 0 0 0 0 0 1 0 0 0 0 0 1 0 0 0 0 0 6 -2 "
         result="colormatrix2"
         id="feColorMatrix39" />
      <feBlend
         in="colormatrix2"
         in2="flood"
         mode="normal"
         result="blend"
         id="feBlend39" />
      <feComposite
         in="blend"
         in2="blend"
         operator="arithmetic"
         k2="0.2"
         result="composite1"
         id="feComposite39" />
      <feComposite
         in2="SourceGraphic"
         operator="in"
         id="feComposite40" />
    </filter>
  </defs>
  <g
     id="g877"
     transform="matrix(1.1,0,0,1.1,-3.1845928,-3.2065454)">
    <ellipse
       style="opacity:0.5;fill:#000000;stroke:none;stroke-width:3.89319;stroke-dasharray:none;stroke-opacity:1;filter:url(#filter9)"
       id="path2-5"
       cx="31.949858"
       cy="31.969812"
       rx="25.124426"
       ry="25.268976"
       transform="matrix(1.05,0,0,1.05,-1.5974929,-1.5984906)" />
    <path
       style="fill:#f5f7fa;stroke-width:0.204426;fill-opacity:1"
       d=""
       id="path3" />
    <circle
       style="opacity:1;fill:url(#linearGradient8);stroke:url(#linearGradient7);stroke-width:3.81818;stroke-dasharray:none;stroke-opacity:1"
       id="path2"
       cx="31.949856"
       cy="31.969812"
       r="24.711082" />
    <ellipse
       style="opacity:0.3;fill:none;stroke:#000000;stroke-width:0.974376;stroke-dasharray:none;stroke-opacity:1"
       id="path2-9"
       cx="31.949856"
       cy="31.969812"
       rx="23.129124"
       ry="23.129126" />
  </g>
  <path
     id="path127-2"
     style="fill:#000000;fill-opacity:1;stroke:none;stroke-width:0.48139;stroke-dasharray:none;stroke-dashoffset:2.2;stroke-opacity:0.6;opacity:0.2"
     d="m 31.860395,18.815382 c -1.018878,-0.0013 -2.018373,0.05637 -2.695275,0.175444 -3.050094,0.536516 -5.891553,2.034086 -8.170652,4.305109 -1.752069,1.745867 -2.979807,3.718657 -3.730584,5.994 -0.600949,1.821274 -0.608259,2.096648 -0.02894,0.958191 1.075159,-2.112804 2.723034,-3.782003 4.731191,-4.792885 1.556955,-0.783753 2.451933,-0.977214 4.52297,-0.971686 5.233986,0.01392 8.53783,1.957554 9.373695,5.512009 0.231975,0.986503 0.181065,3.403795 -0.08482,4.017849 -0.0945,0.21826 -0.237054,0.600789 -0.318117,0.850225 -0.08104,0.249436 -0.343842,0.75689 -0.584169,1.12785 -0.240331,0.370963 -0.437645,0.708425 -0.437645,0.749971 0,0.04154 0.106271,0.2115 0.237143,0.377882 0.470651,0.598334 1.887144,1.135113 3.462599,1.311001 2.327218,0.259853 4.170911,-0.132931 5.889894,-1.255091 2.502776,-1.63383 3.425497,-3.561976 3.104002,-6.483697 -0.154963,-1.408197 -0.436359,-2.32926 -1.156775,-3.765288 -0.74943,-1.493865 -1.300514,-2.285252 -2.342459,-3.375841 -2.284374,-2.391024 -5.433818,-3.992027 -8.955335,-4.551888 -0.759875,-0.120828 -1.797857,-0.181916 -2.816735,-0.183155 z m -6.992675,6.587803 c -0.712033,-0.0075 -0.993199,0.04431 -1.555854,0.214008 -3.108757,0.937575 -5.65343,4.192767 -6.119316,7.825548 -0.214412,1.671886 0.119494,4.301744 0.809742,6.377662 1.614355,4.85518 5.338457,8.359844 9.803626,9.227156 0.721892,0.140133 1.206491,0.142624 4.023629,0.02642 0.09353,-0.0043 0.707701,0.03276 1.364991,0.07907 1.357466,0.09654 2.227269,-0.01915 3.589838,-0.474277 2.803535,-0.937109 5.728196,-3.085622 7.441895,-5.465737 0.669306,-0.929586 0.747801,-1.149182 0.487775,-1.36498 -0.12069,-0.100122 -0.289953,-0.03567 -0.759615,0.287249 -0.33228,0.228562 -0.912327,0.553701 -1.289806,0.722984 -1.195033,0.535932 -1.762033,0.621876 -4.031347,0.613089 -1.950806,-0.0075 -2.168442,-0.02916 -3.117491,-0.318078 -2.025132,-0.616902 -3.620769,-1.594199 -5.049302,-3.089985 -1.001867,-1.049035 -1.590225,-1.969927 -2.033983,-3.186898 -0.722674,-1.981859 -0.681983,-3.791472 0.107954,-4.90085 0.370326,-0.520071 0.269792,-0.504152 -0.46271,0.07132 -1.589697,1.248939 -2.817158,3.09832 -3.466452,5.22089 -0.267707,0.875124 -0.306555,1.192599 -0.310401,2.585388 -0.0053,1.81206 0.139639,2.483923 0.848294,3.967704 0.559028,1.170504 1.449883,2.323435 2.436929,3.15413 0.817583,0.688077 2.416655,1.55566 3.393196,1.839271 l 0.566819,0.163795 -0.817452,-0.05589 c -3.466934,-0.239938 -6.33194,-3.041839 -7.123776,-6.963703 -0.28024,-1.388006 -0.183205,-3.564548 0.219788,-4.916268 0.842813,-2.826985 2.790179,-5.229906 4.943264,-6.09618 0.983862,-0.395845 2.402036,-0.0067 3.171476,0.869507 0.452468,0.515329 0.904198,1.450774 0.923488,1.914455 0.02904,0.697931 0.201555,-0.53583 0.206294,-1.474881 0.01332,-2.646072 -1.167226,-4.791065 -3.225463,-5.862898 -1.264881,-0.658691 -2.259455,-0.892368 -4.094965,-0.963976 -0.359594,-0.014 -0.643732,-0.02253 -0.881073,-0.02506 z" />
  <path
     id="path127"
     style="fill:#4d4d4d;fill-opacity:1;stroke:none;stroke-width:0.48139;stroke-dasharray:none;stroke-dashoffset:2.2;stroke-opacity:0.6"
     d="m 31.860395,16.815382 c -1.018878,-0.0013 -2.018373,0.05637 -2.695275,0.175444 -3.050094,0.536516 -5.891553,2.034086 -8.170652,4.305109 -1.752069,1.745867 -2.979807,3.718657 -3.730584,5.994 -0.600949,1.821274 -0.608259,2.096648 -0.02894,0.958191 1.075159,-2.112804 2.723034,-3.782003 4.731191,-4.792885 1.556955,-0.783753 2.451933,-0.977214 4.52297,-0.971686 5.233986,0.01392 8.53783,1.957554 9.373695,5.512009 0.231975,0.986503 0.181065,3.403795 -0.08482,4.017849 -0.0945,0.21826 -0.237054,0.600789 -0.318117,0.850225 -0.08104,0.249436 -0.343842,0.75689 -0.584169,1.12785 -0.240331,0.370963 -0.437645,0.708425 -0.437645,0.749971 0,0.04154 0.106271,0.2115 0.237143,0.377882 0.470651,0.598334 1.887144,1.135113 3.462599,1.311001 2.327218,0.259853 4.170911,-0.132931 5.889894,-1.255091 2.502776,-1.63383 3.425497,-3.561976 3.104002,-6.483697 -0.154963,-1.408197 -0.436359,-2.32926 -1.156775,-3.765288 -0.74943,-1.493865 -1.300514,-2.285252 -2.342459,-3.375841 -2.284374,-2.391024 -5.433818,-3.992027 -8.955335,-4.551888 -0.759875,-0.120828 -1.797857,-0.181916 -2.816735,-0.183155 z m -6.992675,6.587803 c -0.712033,-0.0075 -0.993199,0.04431 -1.555854,0.214008 -3.108757,0.937575 -5.65343,4.192767 -6.119316,7.825548 -0.214412,1.671886 0.119494,4.301744 0.809742,6.377662 1.614355,4.85518 5.338457,8.359844 9.803626,9.227156 0.721892,0.140133 1.206491,0.142624 4.023629,0.02642 0.09353,-0.0043 0.707701,0.03276 1.364991,0.07907 1.357466,0.09654 2.227269,-0.01915 3.589838,-0.474277 2.803535,-0.937109 5.728196,-3.085622 7.441895,-5.465737 0.669306,-0.929586 0.747801,-1.149182 0.487775,-1.36498 -0.12069,-0.100122 -0.289953,-0.03567 -0.759615,0.287249 -0.33228,0.228562 -0.912327,0.553701 -1.289806,0.722984 -1.195033,0.535932 -1.762033,0.621876 -4.031347,0.613089 -1.950806,-0.0075 -2.168442,-0.02916 -3.117491,-0.318078 -2.025132,-0.616902 -3.620769,-1.594199 -5.049302,-3.089985 -1.001867,-1.049035 -1.590225,-1.969927 -2.033983,-3.186898 -0.722674,-1.981859 -0.681983,-3.791472 0.107954,-4.90085 0.370326,-0.520071 0.269792,-0.504152 -0.46271,0.07132 -1.589697,1.248939 -2.817158,3.09832 -3.466452,5.22089 -0.267707,0.875124 -0.306555,1.192599 -0.310401,2.585388 -0.0053,1.81206 0.139639,2.483923 0.848294,3.967704 0.559028,1.170504 1.449883,2.323435 2.436929,3.15413 0.817583,0.688077 2.416655,1.55566 3.393196,1.839271 l 0.566819,0.163795 -0.817452,-0.05589 c -3.466934,-0.239938 -6.33194,-3.041839 -7.123776,-6.963703 -0.28024,-1.388006 -0.183205,-3.564548 0.219788,-4.916268 0.842813,-2.826985 2.790179,-5.229906 4.943264,-6.09618 0.983862,-0.395845 2.402036,-0.0067 3.171476,0.869507 0.452468,0.515329 0.904198,1.450774 0.923488,1.914455 0.02904,0.697931 0.201555,-0.53583 0.206294,-1.474881 0.01332,-2.646072 -1.167226,-4.791065 -3.225463,-5.862898 -1.264881,-0.658691 -2.259455,-0.892368 -4.094965,-0.963976 -0.359594,-0.014 -0.643732,-0.02253 -0.881073,-0.02506 z" />
</svg>
