<?xml version="1.0" encoding="UTF-8" standalone="no"?>
<svg
   width="64"
   height="64"
   version="1.1"
   id="svg73"
   sodipodi:docname="abcd.svg"
   inkscape:version="1.4.2 (ebf0e940d0, 2025-05-08)"
   xmlns:inkscape="http://www.inkscape.org/namespaces/inkscape"
   xmlns:sodipodi="http://sodipodi.sourceforge.net/DTD/sodipodi-0.dtd"
   xmlns:xlink="http://www.w3.org/1999/xlink"
   xmlns="http://www.w3.org/2000/svg"
   xmlns:svg="http://www.w3.org/2000/svg"
   xmlns:rdf="http://www.w3.org/1999/02/22-rdf-syntax-ns#"
   xmlns:cc="http://creativecommons.org/ns#"
   xmlns:dc="http://purl.org/dc/elements/1.1/">
  <metadata
     id="metadata77">
    <rdf:RDF>
      <cc:Work
         rdf:about="">
        <dc:format>image/svg+xml</dc:format>
        <dc:type
           rdf:resource="http://purl.org/dc/dcmitype/StillImage" />
      </cc:Work>
    </rdf:RDF>
  </metadata>
  <sodipodi:namedview
     pagecolor="#f5f7fa"
     bordercolor="#666666"
     borderopacity="1"
     objecttolerance="10"
     gridtolerance="10"
     guidetolerance="10"
     inkscape:pageopacity="0"
     inkscape:pageshadow="2"
     inkscape:window-width="1261"
     inkscape:window-height="714"
     id="namedview75"
     showgrid="false"
     inkscape:zoom="6.2890624"
     inkscape:cx="32.516771"
     inkscape:cy="29.654659"
     inkscape:window-x="24"
     inkscape:window-y="21"
     inkscape:window-maximized="0"
     inkscape:current-layer="svg73"
     inkscape:document-rotation="0"
     inkscape:pagecheckerboard="0"
     inkscape:showpageshadow="2"
     inkscape:deskcolor="#d1d1d1" />
  <defs
     id="defs29">
    <linearGradient
       id="linearGradient4"
       inkscape:collect="always">
      <stop
         style="stop-color:#5ea9ac;stop-opacity:1;"
         offset="0"
         id="stop4" />
      <stop
         style="stop-color:#81bfc1;stop-opacity:1;"
         offset="0.5"
         id="stop1" />
    </linearGradient>
    <linearGradient
       id="linearGradient2"
       inkscape:collect="always">
      <stop
         style="stop-color:#ecf4f4;stop-opacity:1;"
         offset="0"
         id="stop2" />
      <stop
         style="stop-color:#d8e8e9;stop-opacity:1;"
         offset="1"
         id="stop3" />
    </linearGradient>
    <linearGradient
       inkscape:collect="always"
       xlink:href="#linearGradient2"
       id="linearGradient8"
       x1="31.721739"
       y1="5.2278585"
       x2="31.88887"
       y2="59.145416"
       gradientUnits="userSpaceOnUse"
       gradientTransform="matrix(0.8505,0,0,0.8505,4.7765033,4.7794869)" />
    <filter
       style="color-interpolation-filters:sRGB;"
       inkscape:label="Blur"
       id="filter9"
       x="-0.047762285"
       y="-0.047489063"
       width="1.0955246"
       height="1.0949781">
      <feGaussianBlur
         stdDeviation="1 1"
         result="blur"
         id="feGaussianBlur9" />
    </filter>
    <linearGradient
       inkscape:collect="always"
       xlink:href="#linearGradient4"
       id="linearGradient7"
       x1="26.723248"
       y1="58.711765"
       x2="25.756926"
       y2="5.950614"
       gradientUnits="userSpaceOnUse" />
    <filter
       style="color-interpolation-filters:sRGB;"
       inkscape:label="Out of Focus"
       id="filter40"
       x="-0.24226652"
       y="-0.2858297"
       width="1.484533"
       height="1.5716594">
      <feFlood
         flood-opacity="1"
         flood-color="rgb(255,255,255)"
         result="flood"
         id="feFlood38" />
      <feColorMatrix
         in="SourceGraphic"
         values="1 0 0 0 0 0 1 0 0 0 0 0 1 0 0 -0.2125 -0.7154 -0.0721 1 0 "
         result="colormatrix1"
         id="feColorMatrix38" />
      <feGaussianBlur
         in="colormatrix1"
         stdDeviation="3 3"
         result="blur"
         id="feGaussianBlur38" />
      <feColorMatrix
         in="blur"
         values="1 0 0 0 0 0 1 0 0 0 0 0 1 0 0 0 0 0 6 -2 "
         result="colormatrix2"
         id="feColorMatrix39" />
      <feBlend
         in="colormatrix2"
         in2="flood"
         mode="normal"
         result="blend"
         id="feBlend39" />
      <feComposite
         in="blend"
         in2="blend"
         operator="arithmetic"
         k2="0.2"
         result="composite1"
         id="feComposite39" />
      <feComposite
         in2="SourceGraphic"
         operator="in"
         id="feComposite40" />
    </filter>
  </defs>
  <g
     id="g877"
     transform="matrix(1.1,0,0,1.1,-3.1845928,-3.2065454)">
    <ellipse
       style="opacity:0.5;fill:#000000;stroke:none;stroke-width:3.89319;stroke-dasharray:none;stroke-opacity:1;filter:url(#filter9)"
       id="path2-5"
       cx="31.949858"
       cy="31.969812"
       rx="25.124426"
       ry="25.268976"
       transform="matrix(1.05,0,0,1.05,-1.5974929,-1.5984906)" />
    <path
       style="fill:#f5f7fa;stroke-width:0.204426;fill-opacity:1"
       d=""
       id="path3" />
    <circle
       style="opacity:1;fill:url(#linearGradient8);stroke:url(#linearGradient7);stroke-width:3.81818;stroke-dasharray:none;stroke-opacity:1"
       id="path2"
       cx="31.949856"
       cy="31.969812"
       r="24.711082" />
    <ellipse
       style="opacity:0.3;fill:none;stroke:#000000;stroke-width:0.974376;stroke-dasharray:none;stroke-opacity:1"
       id="path2-9"
       cx="31.949856"
       cy="31.969812"
       rx="23.129124"
       ry="23.129126" />
  </g>
  <path
     style="fill:#000000;fill-opacity:1;stroke:none;stroke-width:0.495;stroke-dasharray:none;stroke-opacity:0.6;opacity:0.2"
     d="m 26.750014,49.160888 c 0,-0.01905 0.474073,-0.743609 1.053499,-1.609432 l 1.053499,-1.574219 0.379951,0.08847 c 1.637064,0.381359 3.889485,0.381359 5.526551,0 l 0.37995,-0.08847 1.053497,1.574219 c 0.579425,0.865823 1.053504,1.590064 1.053504,1.609432 0,0.01905 -2.362604,0.03518 -5.250228,0.03518 -2.887622,0 -5.250223,-0.01565 -5.250223,-0.03518 z m 4.697568,-4.22973 C 29.835746,44.871714 27.944687,44.336115 26.521333,43.53588 25.114078,42.744695 23.81564,41.591817 22.934986,40.351578 22.516702,39.762502 21.79044,38.420816 21.674025,38.022103 l -0.04539,-0.155425 H 32.000232 42.37183 l -0.04539,0.155425 c -0.02518,0.08548 -0.214373,0.497387 -0.420907,0.915331 -1.894136,3.833045 -5.953904,6.159809 -10.457979,5.993726 z M 29.871164,36.35998 c 0.03323,-0.188287 2.08921,-5.469904 2.129073,-5.469413 0.04034,5.17e-4 2.096349,5.281018 2.129071,5.468195 0.02099,0.120069 -0.08349,0.126266 -2.129071,0.126266 -2.038006,0 -2.149986,-0.0066 -2.129073,-0.125048 z m -2.819639,-6.380351 c -0.198379,-0.09606 -0.330124,-0.35931 -0.322069,-0.643536 0.0087,-0.309342 0.321379,-0.693161 1.02163,-1.254351 2.494443,-1.999078 6.003861,-1.999078 8.498306,0 0.700252,0.56119 1.012857,0.945008 1.021626,1.254351 0.01191,0.432634 -0.263458,0.724319 -0.684623,0.724319 -0.244442,0 -0.363323,-0.0763 -0.82913,-0.532089 -2.112296,-2.066881 -5.456436,-2.054652 -7.543725,0.02758 -0.201928,0.201441 -0.425264,0.397362 -0.496302,0.43538 -0.162525,0.08698 -0.473241,0.08154 -0.665713,-0.01166 z m -2.908568,-2.511823 c -0.224326,-0.157125 -0.311895,-0.547686 -0.188831,-0.842215 0.131196,-0.313999 1.152301,-1.317635 1.932364,-1.899308 0.672069,-0.501146 1.782876,-1.109364 2.556029,-1.399546 3.513354,-1.318642 7.310506,-0.613367 10.309111,1.91479 0.629409,0.530659 1.221251,1.179254 1.324944,1.451991 0.08987,0.23638 -0.02313,0.637363 -0.219067,0.774288 -0.08301,0.05811 -0.282234,0.105655 -0.442798,0.105655 -0.278969,0 -0.325435,-0.03331 -1.045464,-0.749548 -1.425016,-1.417518 -3.045562,-2.288484 -4.84854,-2.605869 -0.760494,-0.13387 -2.284501,-0.133439 -3.040268,8.73e-4 -1.809725,0.321596 -3.423693,1.189857 -4.855187,2.611925 -0.713739,0.709041 -0.760758,0.742629 -1.039497,0.742629 -0.160571,0 -0.359827,-0.04755 -0.442796,-0.105656 z m -3.222301,-2.470571 c -0.389128,-0.389126 -0.329612,-0.708308 0.25762,-1.381601 1.816718,-2.082973 4.655593,-3.767342 7.48073,-4.43849 2.288091,-0.543563 5.04812,-0.490313 7.244361,0.139777 2.701546,0.775058 5.254693,2.367557 6.952399,4.336492 0.553144,0.64152 0.606479,0.961399 0.224065,1.343823 -0.148582,0.148585 -0.220765,0.170004 -0.475815,0.141258 -0.278845,-0.03144 -0.365019,-0.09924 -1.186414,-0.933651 -1.276885,-1.297081 -2.601242,-2.231753 -4.082623,-2.881324 -4.390323,-1.925113 -9.376114,-1.351988 -13.258364,1.524064 -0.296402,0.219581 -0.95422,0.817371 -1.461824,1.328424 -0.853135,0.858934 -0.945451,0.931731 -1.220952,0.962783 -0.252113,0.02843 -0.325023,0.0066 -0.473183,-0.141555 z"
     id="path1-0" />
  <path
     style="fill:#4d4d4d;fill-opacity:1;stroke:none;stroke-width:0.495;stroke-dasharray:none;stroke-opacity:0.6"
     d="m 26.750014,47.160888 c 0,-0.01905 0.474073,-0.743609 1.053499,-1.609432 l 1.053499,-1.574219 0.379951,0.08847 c 1.637064,0.381359 3.889485,0.381359 5.526551,0 l 0.37995,-0.08847 1.053497,1.574219 c 0.579425,0.865823 1.053504,1.590064 1.053504,1.609432 0,0.01905 -2.362604,0.03518 -5.250228,0.03518 -2.887622,0 -5.250223,-0.01565 -5.250223,-0.03518 z m 4.697568,-4.22973 C 29.835746,42.871714 27.944687,42.336115 26.521333,41.53588 25.114078,40.744695 23.81564,39.591817 22.934986,38.351578 22.516702,37.762502 21.79044,36.420816 21.674025,36.022103 l -0.04539,-0.155425 H 32.000232 42.37183 l -0.04539,0.155425 c -0.02518,0.08548 -0.214373,0.497387 -0.420907,0.915331 -1.894136,3.833045 -5.953904,6.159809 -10.457979,5.993726 z M 29.871164,34.35998 c 0.03323,-0.188287 2.08921,-5.469904 2.129073,-5.469413 0.04034,5.17e-4 2.096349,5.281018 2.129071,5.468195 0.02099,0.120069 -0.08349,0.126266 -2.129071,0.126266 -2.038006,0 -2.149986,-0.0066 -2.129073,-0.125048 z m -2.819639,-6.380351 c -0.198379,-0.09606 -0.330124,-0.35931 -0.322069,-0.643536 0.0087,-0.309342 0.321379,-0.693161 1.02163,-1.254351 2.494443,-1.999078 6.003861,-1.999078 8.498306,0 0.700252,0.56119 1.012857,0.945008 1.021626,1.254351 0.01191,0.432634 -0.263458,0.724319 -0.684623,0.724319 -0.244442,0 -0.363323,-0.0763 -0.82913,-0.532089 -2.112296,-2.066881 -5.456436,-2.054652 -7.543725,0.02758 -0.201928,0.201441 -0.425264,0.397362 -0.496302,0.43538 -0.162525,0.08698 -0.473241,0.08154 -0.665713,-0.01166 z m -2.908568,-2.511823 c -0.224326,-0.157125 -0.311895,-0.547686 -0.188831,-0.842215 0.131196,-0.313999 1.152301,-1.317635 1.932364,-1.899308 0.672069,-0.501146 1.782876,-1.109364 2.556029,-1.399546 3.513354,-1.318642 7.310506,-0.613367 10.309111,1.91479 0.629409,0.530659 1.221251,1.179254 1.324944,1.451991 0.08987,0.23638 -0.02313,0.637363 -0.219067,0.774288 -0.08301,0.05811 -0.282234,0.105655 -0.442798,0.105655 -0.278969,0 -0.325435,-0.03331 -1.045464,-0.749548 -1.425016,-1.417518 -3.045562,-2.288484 -4.84854,-2.605869 -0.760494,-0.13387 -2.284501,-0.133439 -3.040268,8.73e-4 -1.809725,0.321596 -3.423693,1.189857 -4.855187,2.611925 -0.713739,0.709041 -0.760758,0.742629 -1.039497,0.742629 -0.160571,0 -0.359827,-0.04755 -0.442796,-0.105656 z m -3.222301,-2.470571 c -0.389128,-0.389126 -0.329612,-0.708308 0.25762,-1.381601 1.816718,-2.082973 4.655593,-3.767342 7.48073,-4.43849 2.288091,-0.543563 5.04812,-0.490313 7.244361,0.139777 2.701546,0.775058 5.254693,2.367557 6.952399,4.336492 0.553144,0.64152 0.606479,0.961399 0.224065,1.343823 -0.148582,0.148585 -0.220765,0.170004 -0.475815,0.141258 -0.278845,-0.03144 -0.365019,-0.09924 -1.186414,-0.933651 -1.276885,-1.297081 -2.601242,-2.231753 -4.082623,-2.881324 -4.390323,-1.925113 -9.376114,-1.351988 -13.258364,1.524064 -0.296402,0.219581 -0.95422,0.817371 -1.461824,1.328424 -0.853135,0.858934 -0.945451,0.931731 -1.220952,0.962783 -0.252113,0.02843 -0.325023,0.0066 -0.473183,-0.141555 z"
     id="path1" />
</svg>
