<?xml version="1.0" encoding="UTF-8" standalone="no"?>
<svg
   width="64"
   height="64"
   version="1.1"
   id="svg73"
   sodipodi:docname="abcd.svg"
   inkscape:version="1.4.2 (ebf0e940d0, 2025-05-08)"
   xmlns:inkscape="http://www.inkscape.org/namespaces/inkscape"
   xmlns:sodipodi="http://sodipodi.sourceforge.net/DTD/sodipodi-0.dtd"
   xmlns:xlink="http://www.w3.org/1999/xlink"
   xmlns="http://www.w3.org/2000/svg"
   xmlns:svg="http://www.w3.org/2000/svg"
   xmlns:rdf="http://www.w3.org/1999/02/22-rdf-syntax-ns#"
   xmlns:cc="http://creativecommons.org/ns#"
   xmlns:dc="http://purl.org/dc/elements/1.1/">
  <metadata
     id="metadata77">
    <rdf:RDF>
      <cc:Work
         rdf:about="">
        <dc:format>image/svg+xml</dc:format>
        <dc:type
           rdf:resource="http://purl.org/dc/dcmitype/StillImage" />
      </cc:Work>
    </rdf:RDF>
  </metadata>
  <sodipodi:namedview
     pagecolor="#f5f7fa"
     bordercolor="#666666"
     borderopacity="1"
     objecttolerance="10"
     gridtolerance="10"
     guidetolerance="10"
     inkscape:pageopacity="0"
     inkscape:pageshadow="2"
     inkscape:window-width="1320"
     inkscape:window-height="766"
     id="namedview75"
     showgrid="false"
     inkscape:zoom="4.4470387"
     inkscape:cx="53.518761"
     inkscape:cy="22.37444"
     inkscape:window-x="24"
     inkscape:window-y="21"
     inkscape:window-maximized="0"
     inkscape:current-layer="svg73"
     inkscape:document-rotation="0"
     inkscape:pagecheckerboard="0"
     inkscape:showpageshadow="2"
     inkscape:deskcolor="#d1d1d1" />
  <defs
     id="defs29">
    <linearGradient
       id="linearGradient4"
       inkscape:collect="always">
      <stop
         style="stop-color:#5ea9ac;stop-opacity:1;"
         offset="0"
         id="stop4" />
      <stop
         style="stop-color:#81bfc1;stop-opacity:1;"
         offset="0.5"
         id="stop1" />
    </linearGradient>
    <linearGradient
       id="linearGradient2"
       inkscape:collect="always">
      <stop
         style="stop-color:#ecf4f4;stop-opacity:1;"
         offset="0"
         id="stop2" />
      <stop
         style="stop-color:#d8e8e9;stop-opacity:1;"
         offset="1"
         id="stop3" />
    </linearGradient>
    <linearGradient
       inkscape:collect="always"
       xlink:href="#linearGradient2"
       id="linearGradient8"
       x1="31.721739"
       y1="5.2278585"
       x2="31.88887"
       y2="59.145416"
       gradientUnits="userSpaceOnUse"
       gradientTransform="matrix(0.8505,0,0,0.8505,4.7765033,4.7794869)" />
    <filter
       style="color-interpolation-filters:sRGB;"
       inkscape:label="Blur"
       id="filter9"
       x="-0.047762285"
       y="-0.047489063"
       width="1.0955246"
       height="1.0949781">
      <feGaussianBlur
         stdDeviation="1 1"
         result="blur"
         id="feGaussianBlur9" />
    </filter>
    <linearGradient
       inkscape:collect="always"
       xlink:href="#linearGradient4"
       id="linearGradient7"
       x1="26.723248"
       y1="58.711765"
       x2="25.756926"
       y2="5.950614"
       gradientUnits="userSpaceOnUse" />
    <filter
       style="color-interpolation-filters:sRGB;"
       inkscape:label="Out of Focus"
       id="filter40"
       x="-0.24226652"
       y="-0.2858297"
       width="1.484533"
       height="1.5716594">
      <feFlood
         flood-opacity="1"
         flood-color="rgb(255,255,255)"
         result="flood"
         id="feFlood38" />
      <feColorMatrix
         in="SourceGraphic"
         values="1 0 0 0 0 0 1 0 0 0 0 0 1 0 0 -0.2125 -0.7154 -0.0721 1 0 "
         result="colormatrix1"
         id="feColorMatrix38" />
      <feGaussianBlur
         in="colormatrix1"
         stdDeviation="3 3"
         result="blur"
         id="feGaussianBlur38" />
      <feColorMatrix
         in="blur"
         values="1 0 0 0 0 0 1 0 0 0 0 0 1 0 0 0 0 0 6 -2 "
         result="colormatrix2"
         id="feColorMatrix39" />
      <feBlend
         in="colormatrix2"
         in2="flood"
         mode="normal"
         result="blend"
         id="feBlend39" />
      <feComposite
         in="blend"
         in2="blend"
         operator="arithmetic"
         k2="0.2"
         result="composite1"
         id="feComposite39" />
      <feComposite
         in2="SourceGraphic"
         operator="in"
         id="feComposite40" />
    </filter>
  </defs>
  <g
     id="g877"
     transform="matrix(1.1,0,0,1.1,-3.1845928,-3.2065454)">
    <ellipse
       style="opacity:0.5;fill:#000000;stroke:none;stroke-width:3.89319;stroke-dasharray:none;stroke-opacity:1;filter:url(#filter9)"
       id="path2-5"
       cx="31.949858"
       cy="31.969812"
       rx="25.124426"
       ry="25.268976"
       transform="matrix(1.05,0,0,1.05,-1.5974929,-1.5984906)" />
    <path
       style="fill:#f5f7fa;stroke-width:0.204426;fill-opacity:1"
       d=""
       id="path3" />
    <circle
       style="opacity:1;fill:url(#linearGradient8);stroke:url(#linearGradient7);stroke-width:3.81818;stroke-dasharray:none;stroke-opacity:1"
       id="path2"
       cx="31.949856"
       cy="31.969812"
       r="24.711082" />
    <ellipse
       style="opacity:0.3;fill:none;stroke:#000000;stroke-width:0.974376;stroke-dasharray:none;stroke-opacity:1"
       id="path2-9"
       cx="31.949856"
       cy="31.969812"
       rx="23.129124"
       ry="23.129126" />
  </g>
  <path
     id="path21-9"
     style="fill:#000000;fill-opacity:1;stroke:none;stroke-width:0.491164;stroke-dasharray:none;stroke-opacity:0.6;opacity:0.2"
     d="m 30.860911,19.569336 c -0.650586,-0.0091 -1.317059,0.205914 -1.877248,0.699011 -1.082634,0.952972 -1.301019,2.457647 -0.532471,3.669525 0.336734,0.530972 0.832267,0.915264 1.478459,1.146516 1.034795,0.370314 2.265523,0.02963 3.030559,-0.839495 0.475884,-0.54063 0.693432,-1.144035 0.692214,-1.91803 -0.0024,-1.629195 -1.360221,-2.737153 -2.791513,-2.757527 z m 3.867785,0.168809 0.277565,0.552863 c 0.153132,0.303592 0.305874,0.69488 0.338745,0.870084 l 0.06005,0.318349 0.833831,0.06685 c 3.139688,0.250049 5.649793,1.612511 6.999172,3.798678 l 0.355724,0.575523 0.831567,-0.05664 c 0.457752,-0.03084 0.846571,-0.06778 0.863283,-0.08158 0.04964,-0.04097 -0.562819,-1.213372 -0.878005,-1.681254 -1.413274,-2.097964 -3.69108,-3.5491 -6.425914,-4.093236 -0.395918,-0.07877 -1.290656,-0.171432 -1.988272,-0.206189 z m -8.633976,2.994301 -0.770385,0.550601 c -1.66635,1.191455 -3.355571,2.760668 -4.488626,4.16914 -0.559272,0.695219 -0.621075,0.87984 -0.296824,0.891608 0.08956,0.0033 0.379809,0.108635 0.64463,0.233383 0.264825,0.124757 0.502594,0.229118 0.529075,0.232247 0.02647,0.0031 0.178713,-0.169352 0.337608,-0.38406 0.696835,-0.941609 3.438893,-3.413916 4.357208,-3.927831 0.139991,-0.07834 0.140293,-0.130268 0.0023,-0.601579 -0.0832,-0.284082 -0.188268,-0.662898 -0.233381,-0.840627 z m 18.60367,4.946325 c -0.250952,0.0054 -0.506133,0.04396 -0.760193,0.117822 -0.634147,0.184353 -1.424155,0.842402 -1.734499,1.445606 -0.28123,0.546642 -0.348818,1.700921 -0.13032,2.226184 0.358436,0.861556 0.955759,1.452366 1.759424,1.739032 0.498003,0.17763 1.344158,0.170775 1.888577,-0.01475 0.61815,-0.210622 1.336405,-0.880655 1.614425,-1.505649 0.334827,-0.752717 0.32146,-1.676836 -0.03529,-2.40292 -0.506133,-1.03099 -1.514843,-1.628743 -2.602145,-1.605321 z m -25.489553,2.347408 c -0.859523,0.0028 -1.485978,0.278351 -2.047183,0.899538 -0.530158,0.586821 -0.676591,0.942302 -0.72507,1.759424 -0.03768,0.634775 -0.01078,0.806955 0.193733,1.251876 0.337271,0.733717 0.671624,1.088266 1.345909,1.425212 1.896211,0.947546 4.064043,-0.409009 4.067174,-2.545669 0.0015,-1.136784 -0.548473,-2.025165 -1.564559,-2.524144 -0.453438,-0.222668 -0.671448,-0.268267 -1.270004,-0.266237 z m 24.314713,5.035828 -0.385194,0.796441 c -0.503342,1.043004 -1.174958,2.152015 -1.838726,3.033958 l -0.534732,0.710336 0.513207,0.578923 0.513208,0.578922 0.271878,-0.312653 c 0.594006,-0.682877 1.844335,-2.670011 2.372334,-3.771488 0.774013,-1.6147 0.757005,-1.500974 0.217538,-1.502252 -0.249938,-5.78e-4 -0.606254,-0.02593 -0.791912,-0.05663 z m -26.70064,1.868182 c -0.105369,-0.0055 -0.117138,0.152482 -0.116692,0.906335 9.9e-4,1.850028 0.357799,3.443723 1.123856,5.018834 0.381564,0.784546 0.608377,1.083692 0.608377,0.800973 0,-0.04965 0.198138,-0.379819 0.440706,-0.734133 L 19.320996,42.277567 19.06949,41.716768 C 18.931203,41.408629 18.753018,40.948285 18.6741,40.693752 18.487391,40.091538 18.247714,38.53364 18.246989,37.92036 l -9.9e-4,-0.48149 -0.601579,-0.222054 c -0.331012,-0.121904 -0.67768,-0.246537 -0.770368,-0.276428 -0.01914,-0.0063 -0.03595,-0.0093 -0.05098,-0.01023 z m 20.657651,3.544902 c -0.363784,9.9e-4 -0.52714,0.05668 -0.879149,0.228844 -1.768552,0.865279 -2.193438,3.126447 -0.848556,4.519215 0.386916,0.400692 0.722033,0.604262 1.31985,0.802112 0.836767,0.276907 1.985749,-0.04458 2.714477,-0.757927 1.338306,-1.310033 1.032046,-3.508909 -0.624241,-4.479565 -0.350191,-0.205252 -0.592049,-0.264116 -1.237148,-0.297936 -0.180105,-0.0094 -0.323992,-0.01485 -0.445233,-0.01485 z m -15.027042,2.314558 c -0.337078,9.9e-4 -0.516954,0.05383 -0.850821,0.207308 -1.065305,0.489683 -1.616831,1.266111 -1.697115,2.388193 -0.09908,1.384725 0.671262,2.501905 2.031323,2.946723 0.231003,0.07554 0.639514,0.115198 0.960716,0.09288 2.347303,-0.163083 3.493309,-2.935166 1.931628,-4.672136 -0.605729,-0.673711 -1.064629,-0.895015 -1.974679,-0.949388 -0.158784,-0.0093 -0.288698,-0.01384 -0.401052,-0.01351 z m 11.013105,2.323616 -0.71034,0.275288 c -1.578177,0.612816 -3.631249,1.053624 -4.905539,1.053624 h -0.530206 l -0.113292,0.457697 c -0.0628,0.251593 -0.220726,0.647648 -0.350073,0.880276 l -0.23451,0.423716 1.276796,-0.05436 c 1.930661,-0.08154 3.407744,-0.412295 5.539976,-1.241688 l 0.99017,-0.385189 -0.291161,-0.331959 c -0.160024,-0.182265 -0.376747,-0.499372 -0.481488,-0.704677 z" />
  <path
     id="path21"
     style="fill:#4d4d4d;fill-opacity:1;stroke:none;stroke-width:0.491164;stroke-dasharray:none;stroke-opacity:0.6"
     d="m 30.860911,17.569336 c -0.650586,-0.0091 -1.317059,0.205914 -1.877248,0.699011 -1.082634,0.952972 -1.301019,2.457647 -0.532471,3.669525 0.336734,0.530972 0.832267,0.915264 1.478459,1.146516 1.034795,0.370314 2.265523,0.02963 3.030559,-0.839495 0.475884,-0.54063 0.693432,-1.144035 0.692214,-1.91803 -0.0024,-1.629195 -1.360221,-2.737153 -2.791513,-2.757527 z m 3.867785,0.168809 0.277565,0.552863 c 0.153132,0.303592 0.305874,0.69488 0.338745,0.870084 l 0.06005,0.318349 0.833831,0.06685 c 3.139688,0.250049 5.649793,1.612511 6.999172,3.798678 l 0.355724,0.575523 0.831567,-0.05664 c 0.457752,-0.03084 0.846571,-0.06778 0.863283,-0.08158 0.04964,-0.04097 -0.562819,-1.213372 -0.878005,-1.681254 -1.413274,-2.097964 -3.69108,-3.5491 -6.425914,-4.093236 -0.395918,-0.07877 -1.290656,-0.171432 -1.988272,-0.206189 z m -8.633976,2.994301 -0.770385,0.550601 c -1.66635,1.191455 -3.355571,2.760668 -4.488626,4.16914 -0.559272,0.695219 -0.621075,0.87984 -0.296824,0.891608 0.08956,0.0033 0.379809,0.108635 0.64463,0.233383 0.264825,0.124757 0.502594,0.229118 0.529075,0.232247 0.02647,0.0031 0.178713,-0.169352 0.337608,-0.38406 0.696835,-0.941609 3.438893,-3.413916 4.357208,-3.927831 0.139991,-0.07834 0.140293,-0.130268 0.0023,-0.601579 -0.0832,-0.284082 -0.188268,-0.662898 -0.233381,-0.840627 z m 18.60367,4.946325 c -0.250952,0.0054 -0.506133,0.04396 -0.760193,0.117822 -0.634147,0.184353 -1.424155,0.842402 -1.734499,1.445606 -0.28123,0.546642 -0.348818,1.700921 -0.13032,2.226184 0.358436,0.861556 0.955759,1.452366 1.759424,1.739032 0.498003,0.17763 1.344158,0.170775 1.888577,-0.01475 0.61815,-0.210622 1.336405,-0.880655 1.614425,-1.505649 0.334827,-0.752717 0.32146,-1.676836 -0.03529,-2.40292 -0.506133,-1.03099 -1.514843,-1.628743 -2.602145,-1.605321 z m -25.489553,2.347408 c -0.859523,0.0028 -1.485978,0.278351 -2.047183,0.899538 -0.530158,0.586821 -0.676591,0.942302 -0.72507,1.759424 -0.03768,0.634775 -0.01078,0.806955 0.193733,1.251876 0.337271,0.733717 0.671624,1.088266 1.345909,1.425212 1.896211,0.947546 4.064043,-0.409009 4.067174,-2.545669 0.0015,-1.136784 -0.548473,-2.025165 -1.564559,-2.524144 -0.453438,-0.222668 -0.671448,-0.268267 -1.270004,-0.266237 z m 24.314713,5.035828 -0.385194,0.796441 c -0.503342,1.043004 -1.174958,2.152015 -1.838726,3.033958 l -0.534732,0.710336 0.513207,0.578923 0.513208,0.578922 0.271878,-0.312653 c 0.594006,-0.682877 1.844335,-2.670011 2.372334,-3.771488 0.774013,-1.6147 0.757005,-1.500974 0.217538,-1.502252 -0.249938,-5.78e-4 -0.606254,-0.02593 -0.791912,-0.05663 z m -26.70064,1.868182 c -0.105369,-0.0055 -0.117138,0.152482 -0.116692,0.906335 9.9e-4,1.850028 0.357799,3.443723 1.123856,5.018834 0.381564,0.784546 0.608377,1.083692 0.608377,0.800973 0,-0.04965 0.198138,-0.379819 0.440706,-0.734133 L 19.320996,40.277567 19.06949,39.716768 C 18.931203,39.408629 18.753018,38.948285 18.6741,38.693752 18.487391,38.091538 18.247714,36.53364 18.246989,35.92036 l -9.9e-4,-0.48149 -0.601579,-0.222054 c -0.331012,-0.121904 -0.67768,-0.246537 -0.770368,-0.276428 -0.01914,-0.0063 -0.03595,-0.0093 -0.05098,-0.01023 z m 20.657651,3.544902 c -0.363784,9.9e-4 -0.52714,0.05668 -0.879149,0.228844 -1.768552,0.865279 -2.193438,3.126447 -0.848556,4.519215 0.386916,0.400692 0.722033,0.604262 1.31985,0.802112 0.836767,0.276907 1.985749,-0.04458 2.714477,-0.757927 1.338306,-1.310033 1.032046,-3.508909 -0.624241,-4.479565 -0.350191,-0.205252 -0.592049,-0.264116 -1.237148,-0.297936 -0.180105,-0.0094 -0.323992,-0.01485 -0.445233,-0.01485 z m -15.027042,2.314558 c -0.337078,9.9e-4 -0.516954,0.05383 -0.850821,0.207308 -1.065305,0.489683 -1.616831,1.266111 -1.697115,2.388193 -0.09908,1.384725 0.671262,2.501905 2.031323,2.946723 0.231003,0.07554 0.639514,0.115198 0.960716,0.09288 2.347303,-0.163083 3.493309,-2.935166 1.931628,-4.672136 -0.605729,-0.673711 -1.064629,-0.895015 -1.974679,-0.949388 -0.158784,-0.0093 -0.288698,-0.01384 -0.401052,-0.01351 z m 11.013105,2.323616 -0.71034,0.275288 c -1.578177,0.612816 -3.631249,1.053624 -4.905539,1.053624 h -0.530206 l -0.113292,0.457697 c -0.0628,0.251593 -0.220726,0.647648 -0.350073,0.880276 l -0.23451,0.423716 1.276796,-0.05436 c 1.930661,-0.08154 3.407744,-0.412295 5.539976,-1.241688 l 0.99017,-0.385189 -0.291161,-0.331959 c -0.160024,-0.182265 -0.376747,-0.499372 -0.481488,-0.704677 z" />
</svg>
