<?xml version="1.0" encoding="UTF-8" standalone="no"?>
<svg
   width="64"
   height="64"
   version="1.1"
   id="svg73"
   sodipodi:docname="abcd.svg"
   inkscape:version="1.4.2 (ebf0e940d0, 2025-05-08)"
   xmlns:inkscape="http://www.inkscape.org/namespaces/inkscape"
   xmlns:sodipodi="http://sodipodi.sourceforge.net/DTD/sodipodi-0.dtd"
   xmlns:xlink="http://www.w3.org/1999/xlink"
   xmlns="http://www.w3.org/2000/svg"
   xmlns:svg="http://www.w3.org/2000/svg"
   xmlns:rdf="http://www.w3.org/1999/02/22-rdf-syntax-ns#"
   xmlns:cc="http://creativecommons.org/ns#"
   xmlns:dc="http://purl.org/dc/elements/1.1/">
  <metadata
     id="metadata77">
    <rdf:RDF>
      <cc:Work
         rdf:about="">
        <dc:format>image/svg+xml</dc:format>
        <dc:type
           rdf:resource="http://purl.org/dc/dcmitype/StillImage" />
      </cc:Work>
    </rdf:RDF>
  </metadata>
  <sodipodi:namedview
     pagecolor="#f5f7fa"
     bordercolor="#666666"
     borderopacity="1"
     objecttolerance="10"
     gridtolerance="10"
     guidetolerance="10"
     inkscape:pageopacity="0"
     inkscape:pageshadow="2"
     inkscape:window-width="1462"
     inkscape:window-height="840"
     id="namedview75"
     showgrid="false"
     inkscape:zoom="6.2890624"
     inkscape:cx="53.585094"
     inkscape:cy="29.654659"
     inkscape:window-x="24"
     inkscape:window-y="21"
     inkscape:window-maximized="0"
     inkscape:current-layer="svg73"
     inkscape:document-rotation="0"
     inkscape:pagecheckerboard="0"
     inkscape:showpageshadow="2"
     inkscape:deskcolor="#d1d1d1" />
  <defs
     id="defs29">
    <linearGradient
       id="linearGradient4"
       inkscape:collect="always">
      <stop
         style="stop-color:#5ea9ac;stop-opacity:1;"
         offset="0"
         id="stop4" />
      <stop
         style="stop-color:#81bfc1;stop-opacity:1;"
         offset="0.5"
         id="stop1" />
    </linearGradient>
    <linearGradient
       id="linearGradient2"
       inkscape:collect="always">
      <stop
         style="stop-color:#ecf4f4;stop-opacity:1;"
         offset="0"
         id="stop2" />
      <stop
         style="stop-color:#d8e8e9;stop-opacity:1;"
         offset="1"
         id="stop3" />
    </linearGradient>
    <linearGradient
       inkscape:collect="always"
       xlink:href="#linearGradient2"
       id="linearGradient8"
       x1="31.721739"
       y1="5.2278585"
       x2="31.88887"
       y2="59.145416"
       gradientUnits="userSpaceOnUse"
       gradientTransform="matrix(0.8505,0,0,0.8505,4.7765033,4.7794869)" />
    <filter
       style="color-interpolation-filters:sRGB;"
       inkscape:label="Blur"
       id="filter9"
       x="-0.047762285"
       y="-0.047489063"
       width="1.0955246"
       height="1.0949781">
      <feGaussianBlur
         stdDeviation="1 1"
         result="blur"
         id="feGaussianBlur9" />
    </filter>
    <linearGradient
       inkscape:collect="always"
       xlink:href="#linearGradient4"
       id="linearGradient7"
       x1="26.723248"
       y1="58.711765"
       x2="25.756926"
       y2="5.950614"
       gradientUnits="userSpaceOnUse" />
    <filter
       style="color-interpolation-filters:sRGB;"
       inkscape:label="Out of Focus"
       id="filter40"
       x="-0.24226652"
       y="-0.2858297"
       width="1.484533"
       height="1.5716594">
      <feFlood
         flood-opacity="1"
         flood-color="rgb(255,255,255)"
         result="flood"
         id="feFlood38" />
      <feColorMatrix
         in="SourceGraphic"
         values="1 0 0 0 0 0 1 0 0 0 0 0 1 0 0 -0.2125 -0.7154 -0.0721 1 0 "
         result="colormatrix1"
         id="feColorMatrix38" />
      <feGaussianBlur
         in="colormatrix1"
         stdDeviation="3 3"
         result="blur"
         id="feGaussianBlur38" />
      <feColorMatrix
         in="blur"
         values="1 0 0 0 0 0 1 0 0 0 0 0 1 0 0 0 0 0 6 -2 "
         result="colormatrix2"
         id="feColorMatrix39" />
      <feBlend
         in="colormatrix2"
         in2="flood"
         mode="normal"
         result="blend"
         id="feBlend39" />
      <feComposite
         in="blend"
         in2="blend"
         operator="arithmetic"
         k2="0.2"
         result="composite1"
         id="feComposite39" />
      <feComposite
         in2="SourceGraphic"
         operator="in"
         id="feComposite40" />
    </filter>
  </defs>
  <g
     id="g877"
     transform="matrix(1.1,0,0,1.1,-3.1845928,-3.2065454)">
    <ellipse
       style="opacity:0.5;fill:#000000;stroke:none;stroke-width:3.89319;stroke-dasharray:none;stroke-opacity:1;filter:url(#filter9)"
       id="path2-5"
       cx="31.949858"
       cy="31.969812"
       rx="25.124426"
       ry="25.268976"
       transform="matrix(1.05,0,0,1.05,-1.5974929,-1.5984906)" />
    <path
       style="fill:#f5f7fa;stroke-width:0.204426;fill-opacity:1"
       d=""
       id="path3" />
    <circle
       style="opacity:1;fill:url(#linearGradient8);stroke:url(#linearGradient7);stroke-width:3.81818;stroke-dasharray:none;stroke-opacity:1"
       id="path2"
       cx="31.949856"
       cy="31.969812"
       r="24.711082" />
    <ellipse
       style="opacity:0.3;fill:none;stroke:#000000;stroke-width:0.974376;stroke-dasharray:none;stroke-opacity:1"
       id="path2-9"
       cx="31.949856"
       cy="31.969812"
       rx="23.129124"
       ry="23.129126" />
  </g>
  <path
     style="fill:#000000;fill-opacity:1;stroke:none;stroke-width:0.0222582;stroke-opacity:0.5;opacity:0.2"
     d="m 30.530943,49.714681 c -3.772887,-0.375983 -7.176772,-2.012586 -9.816739,-4.719954 -2.424512,-2.486409 -3.870023,-5.473584 -4.370331,-9.031381 -0.11182,-0.795125 -0.11182,-3.122312 0,-3.917436 0.265078,-1.88505 0.723984,-3.394404 1.522659,-5.00809 0.838582,-1.69432 1.784329,-2.993776 3.143353,-4.318973 2.473601,-2.412027 5.496341,-3.879461 8.986863,-4.36281 0.714248,-0.09892 2.507048,-0.135896 3.302294,-0.06812 2.85719,0.243464 5.501833,1.214685 7.87172,2.89082 1.396411,0.987625 2.887738,2.516884 3.868749,3.967149 1.413736,2.089969 2.245914,4.285875 2.616739,6.9049 0.111649,0.788403 0.111649,3.119302 0,3.9077 -0.256236,1.80941 -0.705286,3.327413 -1.43201,4.840457 -0.774137,1.611712 -1.680032,2.905226 -2.938475,4.195791 -1.300524,1.333725 -2.602425,2.287202 -4.252194,3.114181 -1.583406,0.793719 -3.174395,1.282134 -5.032834,1.545021 -0.608376,0.08601 -2.826119,0.124939 -3.469792,0.06071 z m 3.045542,-2.248022 c 1.489282,-0.164064 2.891504,-0.570638 4.288486,-1.243482 1.349246,-0.649855 2.48948,-1.44362 3.5385,-2.463296 1.262211,-1.226921 2.047025,-2.309059 2.797152,-3.856837 0.926668,-1.912029 1.342882,-3.740195 1.342882,-5.898417 0,-2.158219 -0.416214,-3.986385 -1.342882,-5.898417 -0.738859,-1.524524 -1.528846,-2.619817 -2.746959,-3.808562 -0.687786,-0.67121 -1.236019,-1.116247 -2.003131,-1.626088 -0.632773,-0.420556 -2.022456,-1.128557 -2.701853,-1.376516 -1.345545,-0.491083 -2.728979,-0.764909 -4.247888,-0.840795 l -0.50081,-0.02498 v 1.223157 1.223158 l 0.233714,1.54e-4 c 0.408499,2.64e-4 1.238208,0.09152 1.842935,0.202693 4.080519,0.75017 7.474143,3.852897 8.623533,7.884343 0.833006,2.921724 0.427713,6.067566 -1.118267,8.680139 -0.570604,0.964254 -1.349831,1.922952 -2.115641,2.602882 -1.988524,1.765566 -4.302561,2.725499 -6.920945,2.871014 l -0.545328,0.03016 v 1.216471 1.216484 l 0.50081,-0.02441 c 0.275445,-0.01418 0.759509,-0.05349 1.075694,-0.08836 z m -0.432486,-4.493687 c 3.031837,-0.395176 5.627032,-2.24376 6.965871,-4.961873 2.208204,-4.483066 0.350993,-9.943044 -4.125675,-12.129007 -1.11501,-0.54446 -2.601467,-0.914281 -3.67488,-0.914281 h -0.309333 v 1.240359 1.240358 l 0.434034,0.0308 c 1.174246,0.08344 2.270524,0.468822 3.283083,1.154134 0.521166,0.352734 1.304075,1.137211 1.66273,1.666061 0.806909,1.189823 1.214397,2.60148 1.146614,3.972169 -0.08382,1.694628 -0.729575,3.156642 -1.917237,4.340595 -1.127849,1.124337 -2.454907,1.748456 -4.041641,1.90078 l -0.567583,0.05446 v 1.236929 1.236924 h 0.309332 c 0.170138,0 0.545741,-0.0315 0.834682,-0.06852 z m 0.01338,-4.588419 c 1.545712,-0.388522 2.816321,-1.663475 3.233711,-3.24476 0.102762,-0.38943 0.117506,-0.531543 0.117506,-1.135166 0,-0.603619 -0.01477,-0.745735 -0.117506,-1.135166 -0.49257,-1.866195 -2.097966,-3.215867 -4.023847,-3.382912 l -0.36726,-0.03182 v 4.549935 4.549933 l 0.367256,-0.03186 c 0.201993,-0.01754 0.557566,-0.07969 0.790166,-0.138163 z"
     id="path7-3" />
  <path
     style="fill:#4d4d4d;fill-opacity:1;stroke:none;stroke-width:0.0222582;stroke-opacity:0.5"
     d="m 30.530943,47.714681 c -3.772887,-0.375983 -7.176772,-2.012586 -9.816739,-4.719954 -2.424512,-2.486409 -3.870023,-5.473584 -4.370331,-9.031381 -0.11182,-0.795125 -0.11182,-3.122312 0,-3.917436 0.265078,-1.88505 0.723984,-3.394404 1.522659,-5.00809 0.838582,-1.69432 1.784329,-2.993776 3.143353,-4.318973 2.473601,-2.412027 5.496341,-3.879461 8.986863,-4.36281 0.714248,-0.09892 2.507048,-0.135896 3.302294,-0.06812 2.85719,0.243464 5.501833,1.214685 7.87172,2.89082 1.396411,0.987625 2.887738,2.516884 3.868749,3.967149 1.413736,2.089969 2.245914,4.285875 2.616739,6.9049 0.111649,0.788403 0.111649,3.119302 0,3.9077 -0.256236,1.80941 -0.705286,3.327413 -1.43201,4.840457 -0.774137,1.611712 -1.680032,2.905226 -2.938475,4.195791 -1.300524,1.333725 -2.602425,2.287202 -4.252194,3.114181 -1.583406,0.793719 -3.174395,1.282134 -5.032834,1.545021 -0.608376,0.08601 -2.826119,0.124939 -3.469792,0.06071 z m 3.045542,-2.248022 c 1.489282,-0.164064 2.891504,-0.570638 4.288486,-1.243482 1.349246,-0.649855 2.48948,-1.44362 3.5385,-2.463296 1.262211,-1.226921 2.047025,-2.309059 2.797152,-3.856837 0.926668,-1.912029 1.342882,-3.740195 1.342882,-5.898417 0,-2.158219 -0.416214,-3.986385 -1.342882,-5.898417 -0.738859,-1.524524 -1.528846,-2.619817 -2.746959,-3.808562 -0.687786,-0.67121 -1.236019,-1.116247 -2.003131,-1.626088 -0.632773,-0.420556 -2.022456,-1.128557 -2.701853,-1.376516 -1.345545,-0.491083 -2.728979,-0.764909 -4.247888,-0.840795 l -0.50081,-0.02498 v 1.223157 1.223158 l 0.233714,1.54e-4 c 0.408499,2.64e-4 1.238208,0.09152 1.842935,0.202693 4.080519,0.75017 7.474143,3.852897 8.623533,7.884343 0.833006,2.921724 0.427713,6.067566 -1.118267,8.680139 -0.570604,0.964254 -1.349831,1.922952 -2.115641,2.602882 -1.988524,1.765566 -4.302561,2.725499 -6.920945,2.871014 l -0.545328,0.03016 v 1.216471 1.216484 l 0.50081,-0.02441 c 0.275445,-0.01418 0.759509,-0.05349 1.075694,-0.08836 z m -0.432486,-4.493687 c 3.031837,-0.395176 5.627032,-2.24376 6.965871,-4.961873 2.208204,-4.483066 0.350993,-9.943044 -4.125675,-12.129007 -1.11501,-0.54446 -2.601467,-0.914281 -3.67488,-0.914281 h -0.309333 v 1.240359 1.240358 l 0.434034,0.0308 c 1.174246,0.08344 2.270524,0.468822 3.283083,1.154134 0.521166,0.352734 1.304075,1.137211 1.66273,1.666061 0.806909,1.189823 1.214397,2.60148 1.146614,3.972169 -0.08382,1.694628 -0.729575,3.156642 -1.917237,4.340595 -1.127849,1.124337 -2.454907,1.748456 -4.041641,1.90078 l -0.567583,0.05446 v 1.236929 1.236924 h 0.309332 c 0.170138,0 0.545741,-0.0315 0.834682,-0.06852 z m 0.01338,-4.588419 c 1.545712,-0.388522 2.816321,-1.663475 3.233711,-3.24476 0.102762,-0.38943 0.117506,-0.531543 0.117506,-1.135166 0,-0.603619 -0.01477,-0.745735 -0.117506,-1.135166 -0.49257,-1.866195 -2.097966,-3.215867 -4.023847,-3.382912 l -0.36726,-0.03182 v 4.549935 4.549933 l 0.367256,-0.03186 c 0.201993,-0.01754 0.557566,-0.07969 0.790166,-0.138163 z"
     id="path7" />
</svg>
