<?xml version="1.0" encoding="UTF-8" standalone="no"?>
<svg
   width="64"
   height="64"
   version="1.1"
   id="svg73"
   sodipodi:docname="abcd.svg"
   inkscape:version="1.4.2 (ebf0e940d0, 2025-05-08)"
   xmlns:inkscape="http://www.inkscape.org/namespaces/inkscape"
   xmlns:sodipodi="http://sodipodi.sourceforge.net/DTD/sodipodi-0.dtd"
   xmlns:xlink="http://www.w3.org/1999/xlink"
   xmlns="http://www.w3.org/2000/svg"
   xmlns:svg="http://www.w3.org/2000/svg"
   xmlns:rdf="http://www.w3.org/1999/02/22-rdf-syntax-ns#"
   xmlns:cc="http://creativecommons.org/ns#"
   xmlns:dc="http://purl.org/dc/elements/1.1/">
  <metadata
     id="metadata77">
    <rdf:RDF>
      <cc:Work
         rdf:about="">
        <dc:format>image/svg+xml</dc:format>
        <dc:type
           rdf:resource="http://purl.org/dc/dcmitype/StillImage" />
      </cc:Work>
    </rdf:RDF>
  </metadata>
  <sodipodi:namedview
     pagecolor="#f5f7fa"
     bordercolor="#666666"
     borderopacity="1"
     objecttolerance="10"
     gridtolerance="10"
     guidetolerance="10"
     inkscape:pageopacity="0"
     inkscape:pageshadow="2"
     inkscape:window-width="1920"
     inkscape:window-height="931"
     id="namedview75"
     showgrid="false"
     inkscape:zoom="6.2890624"
     inkscape:cx="53.426088"
     inkscape:cy="29.734162"
     inkscape:window-x="0"
     inkscape:window-y="0"
     inkscape:window-maximized="1"
     inkscape:current-layer="svg73"
     inkscape:document-rotation="0"
     inkscape:pagecheckerboard="0"
     inkscape:showpageshadow="2"
     inkscape:deskcolor="#d1d1d1" />
  <defs
     id="defs29">
    <linearGradient
       id="linearGradient4"
       inkscape:collect="always">
      <stop
         style="stop-color:#5ea9ac;stop-opacity:1;"
         offset="0"
         id="stop4" />
      <stop
         style="stop-color:#81bfc1;stop-opacity:1;"
         offset="0.5"
         id="stop1" />
    </linearGradient>
    <linearGradient
       id="linearGradient2"
       inkscape:collect="always">
      <stop
         style="stop-color:#ecf4f4;stop-opacity:1;"
         offset="0"
         id="stop2" />
      <stop
         style="stop-color:#d8e8e9;stop-opacity:1;"
         offset="1"
         id="stop3" />
    </linearGradient>
    <linearGradient
       inkscape:collect="always"
       xlink:href="#linearGradient2"
       id="linearGradient8"
       x1="31.721739"
       y1="5.2278585"
       x2="31.88887"
       y2="59.145416"
       gradientUnits="userSpaceOnUse"
       gradientTransform="matrix(0.8505,0,0,0.8505,4.7765033,4.7794869)" />
    <filter
       style="color-interpolation-filters:sRGB;"
       inkscape:label="Blur"
       id="filter9"
       x="-0.047762285"
       y="-0.047489063"
       width="1.0955246"
       height="1.0949781">
      <feGaussianBlur
         stdDeviation="1 1"
         result="blur"
         id="feGaussianBlur9" />
    </filter>
    <linearGradient
       inkscape:collect="always"
       xlink:href="#linearGradient4"
       id="linearGradient7"
       x1="26.723248"
       y1="58.711765"
       x2="25.756926"
       y2="5.950614"
       gradientUnits="userSpaceOnUse" />
    <filter
       style="color-interpolation-filters:sRGB;"
       inkscape:label="Out of Focus"
       id="filter40"
       x="-0.24226652"
       y="-0.2858297"
       width="1.484533"
       height="1.5716594">
      <feFlood
         flood-opacity="1"
         flood-color="rgb(255,255,255)"
         result="flood"
         id="feFlood38" />
      <feColorMatrix
         in="SourceGraphic"
         values="1 0 0 0 0 0 1 0 0 0 0 0 1 0 0 -0.2125 -0.7154 -0.0721 1 0 "
         result="colormatrix1"
         id="feColorMatrix38" />
      <feGaussianBlur
         in="colormatrix1"
         stdDeviation="3 3"
         result="blur"
         id="feGaussianBlur38" />
      <feColorMatrix
         in="blur"
         values="1 0 0 0 0 0 1 0 0 0 0 0 1 0 0 0 0 0 6 -2 "
         result="colormatrix2"
         id="feColorMatrix39" />
      <feBlend
         in="colormatrix2"
         in2="flood"
         mode="normal"
         result="blend"
         id="feBlend39" />
      <feComposite
         in="blend"
         in2="blend"
         operator="arithmetic"
         k2="0.2"
         result="composite1"
         id="feComposite39" />
      <feComposite
         in2="SourceGraphic"
         operator="in"
         id="feComposite40" />
    </filter>
  </defs>
  <g
     id="g877"
     transform="matrix(1.1,0,0,1.1,-3.1845928,-3.2065454)">
    <ellipse
       style="opacity:0.5;fill:#000000;stroke:none;stroke-width:3.89319;stroke-dasharray:none;stroke-opacity:1;filter:url(#filter9)"
       id="path2-5"
       cx="31.949858"
       cy="31.969812"
       rx="25.124426"
       ry="25.268976"
       transform="matrix(1.05,0,0,1.05,-1.5974929,-1.5984906)" />
    <path
       style="fill:#f5f7fa;stroke-width:0.204426;fill-opacity:1"
       d=""
       id="path3" />
    <circle
       style="opacity:1;fill:url(#linearGradient8);stroke:url(#linearGradient7);stroke-width:3.81818;stroke-dasharray:none;stroke-opacity:1"
       id="path2"
       cx="31.949856"
       cy="31.969812"
       r="24.711082" />
    <ellipse
       style="opacity:0.3;fill:none;stroke:#000000;stroke-width:0.974376;stroke-dasharray:none;stroke-opacity:1"
       id="path2-9"
       cx="31.949856"
       cy="31.969812"
       rx="23.129124"
       ry="23.129126" />
  </g>
  <path
     style="fill:#000000;fill-opacity:1;stroke:none;stroke-width:0.495;stroke-dasharray:none;stroke-opacity:0.6;opacity:0.2"
     d="m 26.35312,18.851736 c -0.747346,1.2e-5 -1.518311,0.06971 -2.307157,0.207109 -0.788846,0.130527 -1.600819,0.329731 -2.439488,0.597642 v 1.751519 c 0.697517,-0.316007 1.424939,-0.555019 2.180581,-0.713036 0.755645,-0.158003 1.533005,-0.236686 2.330171,-0.236693 1.253853,9e-6 2.224936,0.241038 2.914153,0.721908 0.697505,0.47403 1.044249,1.248886 1.044259,2.121351 v 0.195275 h -3.210457 c -2.084231,9e-6 -3.657556,0.319812 -4.712124,0.979313 -1.04627,0.659511 -1.567841,1.535986 -1.567829,2.834382 -1.2e-5,1.112913 0.418463,2.005284 1.257139,2.671657 0.846978,0.659506 1.98646,0.988188 3.414709,0.988188 1.129298,0 2.084688,-0.164346 2.865248,-0.494092 0.780535,-0.336624 1.430173,-0.855526 1.953314,-1.556249 v 2.050344 h 2.292776 v -6.275291 c -2.3e-5,-1.758673 -0.496598,-3.678875 -1.493038,-4.544482 -0.996447,-0.86559 -2.504464,-1.298833 -4.522257,-1.298845 z m 8.961092,3.029654 V 38.544484 H 39.7329 v -2.008921 c 0.630961,1.564696 1.485704,1.772795 2.925663,2.008921 1.295452,0 3.094161,-0.572529 3.926516,-1.721931 0.832331,-1.156409 1.248501,-2.747014 1.248515,-4.562232 -1.4e-5,-1.815208 -0.416184,-2.995652 -1.248515,-4.145065 -0.832355,-1.156404 -2.631064,-1.733755 -3.926516,-1.733766 -1.654249,0.0247 -2.34896,0.854796 -2.925663,2.005963 V 21.88139 Z m -7.396137,2.627278 h 2.485517 v 0.565102 c -1.3e-5,1.660517 -0.420265,2.388036 -1.262897,3.393567 -0.833588,0.996304 -1.94214,1.494116 -3.328405,1.494112 -1.005738,4e-6 -1.804522,-0.264125 -2.393459,-0.789955 -0.579887,-0.535051 -0.868781,-1.252794 -0.868781,-2.156855 0,-1.134675 0.38874,-1.33133 1.167964,-1.801816 0.779201,-0.470468 2.179527,-0.704145 4.200061,-0.704155 z m 14.032807,4.946857 c 0.714641,1.1e-5 1.258248,0.257854 1.631118,0.775162 0.379067,0.517319 0.569594,1.269134 0.569599,2.25449 -5e-6,0.985362 -0.190527,1.737177 -0.569599,2.254488 -0.37287,0.517315 -0.916477,0.775167 -1.631118,0.775164 -0.714654,3e-6 -1.263097,-0.257845 -1.648374,-0.775164 -0.379107,-0.523467 -0.569613,-1.275286 -0.569608,-2.254488 -5e-6,-0.979198 0.190491,-1.728293 0.569608,-2.245614 0.385301,-0.52346 0.93372,-0.784027 1.648374,-0.784038 z m -16.558596,4.544478 c -2.223471,1.2e-5 -4.162629,0.689822 -5.811044,2.068093 -1.63886,1.36929 -2.701547,3.202978 -3.190321,5.500116 -0.479198,2.288143 -0.191199,4.124665 0.863026,5.511957 1.054228,1.37829 2.692902,2.068096 4.91637,2.068096 1.686751,0 3.147836,-0.399462 4.384174,-1.201215 1.236301,-0.801746 2.20588,-1.971599 2.905524,-3.503038 h -2.128799 c -0.488794,1.126055 -1.133898,1.971126 -1.93893,2.529644 -0.795471,0.558526 -1.765049,0.837305 -2.905524,0.837302 -1.43759,3e-6 -2.411975,-0.523105 -2.919904,-1.568083 -0.498365,-1.044981 -0.524266,-2.602732 -0.08345,-4.674663 0.44085,-2.071924 1.133966,-3.626844 2.08277,-4.662819 0.958384,-1.04496 2.153547,-1.56807 3.581559,-1.56808 1.255472,10e-6 2.154976,0.29036 2.701274,0.86688 0.555854,0.576554 0.800639,1.496295 0.733571,2.757462 h 1.536185 l 0.77673,-3.677599 c -0.87211,-0.432392 -1.766835,-0.751394 -2.686874,-0.958601 -0.91047,-0.216184 -1.848381,-0.32544 -2.816345,-0.325452 z"
     id="path8-2-9" />
  <path
     style="fill:#4d4d4d;fill-opacity:1;stroke:none;stroke-width:0.495;stroke-dasharray:none;stroke-opacity:0.6"
     d="m 26.35312,16.851736 c -0.747346,1.2e-5 -1.518311,0.06971 -2.307157,0.207109 -0.788846,0.130527 -1.600819,0.329731 -2.439488,0.597642 v 1.751519 c 0.697517,-0.316007 1.424939,-0.555019 2.180581,-0.713036 0.755645,-0.158003 1.533005,-0.236686 2.330171,-0.236693 1.253853,9e-6 2.224936,0.241038 2.914153,0.721908 0.697505,0.47403 1.044249,1.248886 1.044259,2.121351 v 0.195275 h -3.210457 c -2.084231,9e-6 -3.657556,0.319812 -4.712124,0.979313 -1.04627,0.659511 -1.567841,1.535986 -1.567829,2.834382 -1.2e-5,1.112913 0.418463,2.005284 1.257139,2.671657 0.846978,0.659506 1.98646,0.988188 3.414709,0.988188 1.129298,0 2.084688,-0.164346 2.865248,-0.494092 0.780535,-0.336624 1.430173,-0.855526 1.953314,-1.556249 v 2.050344 h 2.292776 v -6.275291 c -2.3e-5,-1.758673 -0.496598,-3.678875 -1.493038,-4.544482 -0.996447,-0.86559 -2.504464,-1.298833 -4.522257,-1.298845 z m 8.961092,3.029654 V 36.544484 H 39.7329 v -2.008921 c 0.630961,1.564696 1.485704,1.772795 2.925663,2.008921 1.295452,0 3.094161,-0.572529 3.926516,-1.721931 0.832331,-1.156409 1.248501,-2.747014 1.248515,-4.562232 -1.4e-5,-1.815208 -0.416184,-2.995652 -1.248515,-4.145065 -0.832355,-1.156404 -2.631064,-1.733755 -3.926516,-1.733766 -1.654249,0.0247 -2.34896,0.854796 -2.925663,2.005963 V 19.88139 Z m -7.396137,2.627278 h 2.485517 v 0.565102 c -1.3e-5,1.660517 -0.420265,2.388036 -1.262897,3.393567 -0.833588,0.996304 -1.94214,1.494116 -3.328405,1.494112 -1.005738,4e-6 -1.804522,-0.264125 -2.393459,-0.789955 -0.579887,-0.535051 -0.868781,-1.252794 -0.868781,-2.156855 0,-1.134675 0.38874,-1.33133 1.167964,-1.801816 0.779201,-0.470468 2.179527,-0.704145 4.200061,-0.704155 z m 14.032807,4.946857 c 0.714641,1.1e-5 1.258248,0.257854 1.631118,0.775162 0.379067,0.517319 0.569594,1.269134 0.569599,2.25449 -5e-6,0.985362 -0.190527,1.737177 -0.569599,2.254488 -0.37287,0.517315 -0.916477,0.775167 -1.631118,0.775164 -0.714654,3e-6 -1.263097,-0.257845 -1.648374,-0.775164 -0.379107,-0.523467 -0.569613,-1.275286 -0.569608,-2.254488 -5e-6,-0.979198 0.190491,-1.728293 0.569608,-2.245614 0.385301,-0.52346 0.93372,-0.784027 1.648374,-0.784038 z m -16.558596,4.544478 c -2.223471,1.2e-5 -4.162629,0.689822 -5.811044,2.068093 -1.63886,1.36929 -2.701547,3.202978 -3.190321,5.500116 -0.479198,2.288143 -0.191199,4.124665 0.863026,5.511957 1.054228,1.37829 2.692902,2.068096 4.91637,2.068096 1.686751,0 3.147836,-0.399462 4.384174,-1.201215 1.236301,-0.801746 2.20588,-1.971599 2.905524,-3.503038 h -2.128799 c -0.488794,1.126055 -1.133898,1.971126 -1.93893,2.529644 -0.795471,0.558526 -1.765049,0.837305 -2.905524,0.837302 -1.43759,3e-6 -2.411975,-0.523105 -2.919904,-1.568083 -0.498365,-1.044981 -0.524266,-2.602732 -0.08345,-4.674663 0.44085,-2.071924 1.133966,-3.626844 2.08277,-4.662819 0.958384,-1.04496 2.153547,-1.56807 3.581559,-1.56808 1.255472,10e-6 2.154976,0.29036 2.701274,0.86688 0.555854,0.576554 0.800639,1.496295 0.733571,2.757462 h 1.536185 l 0.77673,-3.677599 c -0.87211,-0.432392 -1.766835,-0.751394 -2.686874,-0.958601 -0.91047,-0.216184 -1.848381,-0.32544 -2.816345,-0.325452 z"
     id="path8-2" />
</svg>
