<?xml version="1.0" encoding="UTF-8" standalone="no"?>
<svg
   width="64"
   height="64"
   version="1.1"
   id="svg73"
   sodipodi:docname="chromium.svg"
   inkscape:version="1.4.2 (ebf0e940d0, 2025-05-08)"
   xmlns:inkscape="http://www.inkscape.org/namespaces/inkscape"
   xmlns:sodipodi="http://sodipodi.sourceforge.net/DTD/sodipodi-0.dtd"
   xmlns:xlink="http://www.w3.org/1999/xlink"
   xmlns="http://www.w3.org/2000/svg"
   xmlns:svg="http://www.w3.org/2000/svg"
   xmlns:rdf="http://www.w3.org/1999/02/22-rdf-syntax-ns#"
   xmlns:cc="http://creativecommons.org/ns#"
   xmlns:dc="http://purl.org/dc/elements/1.1/">
  <metadata
     id="metadata77">
    <rdf:RDF>
      <cc:Work
         rdf:about="">
        <dc:format>image/svg+xml</dc:format>
        <dc:type
           rdf:resource="http://purl.org/dc/dcmitype/StillImage" />
      </cc:Work>
    </rdf:RDF>
  </metadata>
  <sodipodi:namedview
     pagecolor="#f5f7fa"
     bordercolor="#666666"
     borderopacity="1"
     objecttolerance="10"
     gridtolerance="10"
     guidetolerance="10"
     inkscape:pageopacity="0"
     inkscape:pageshadow="2"
     inkscape:window-width="1920"
     inkscape:window-height="931"
     id="namedview75"
     showgrid="false"
     inkscape:zoom="6.2890624"
     inkscape:cx="53.267082"
     inkscape:cy="29.734162"
     inkscape:window-x="0"
     inkscape:window-y="0"
     inkscape:window-maximized="1"
     inkscape:current-layer="svg73"
     inkscape:document-rotation="0"
     inkscape:pagecheckerboard="0"
     inkscape:showpageshadow="2"
     inkscape:deskcolor="#d1d1d1" />
  <defs
     id="defs29">
    <linearGradient
       id="linearGradient4"
       inkscape:collect="always">
      <stop
         style="stop-color:#5ea9ac;stop-opacity:1;"
         offset="0"
         id="stop4" />
      <stop
         style="stop-color:#81bfc1;stop-opacity:1;"
         offset="0.5"
         id="stop1" />
    </linearGradient>
    <linearGradient
       id="linearGradient2"
       inkscape:collect="always">
      <stop
         style="stop-color:#ecf4f4;stop-opacity:1;"
         offset="0"
         id="stop2" />
      <stop
         style="stop-color:#d8e8e9;stop-opacity:1;"
         offset="1"
         id="stop3" />
    </linearGradient>
    <linearGradient
       inkscape:collect="always"
       xlink:href="#linearGradient2"
       id="linearGradient8"
       x1="31.721739"
       y1="5.2278585"
       x2="31.88887"
       y2="59.145416"
       gradientUnits="userSpaceOnUse"
       gradientTransform="matrix(0.8505,0,0,0.8505,4.7765033,4.7794869)" />
    <filter
       style="color-interpolation-filters:sRGB;"
       inkscape:label="Blur"
       id="filter9"
       x="-0.047762285"
       y="-0.047489063"
       width="1.0955246"
       height="1.0949781">
      <feGaussianBlur
         stdDeviation="1 1"
         result="blur"
         id="feGaussianBlur9" />
    </filter>
    <linearGradient
       inkscape:collect="always"
       xlink:href="#linearGradient4"
       id="linearGradient7"
       x1="26.723248"
       y1="58.711765"
       x2="25.756926"
       y2="5.950614"
       gradientUnits="userSpaceOnUse" />
    <filter
       style="color-interpolation-filters:sRGB;"
       inkscape:label="Out of Focus"
       id="filter40"
       x="-0.24226652"
       y="-0.2858297"
       width="1.484533"
       height="1.5716594">
      <feFlood
         flood-opacity="1"
         flood-color="rgb(255,255,255)"
         result="flood"
         id="feFlood38" />
      <feColorMatrix
         in="SourceGraphic"
         values="1 0 0 0 0 0 1 0 0 0 0 0 1 0 0 -0.2125 -0.7154 -0.0721 1 0 "
         result="colormatrix1"
         id="feColorMatrix38" />
      <feGaussianBlur
         in="colormatrix1"
         stdDeviation="3 3"
         result="blur"
         id="feGaussianBlur38" />
      <feColorMatrix
         in="blur"
         values="1 0 0 0 0 0 1 0 0 0 0 0 1 0 0 0 0 0 6 -2 "
         result="colormatrix2"
         id="feColorMatrix39" />
      <feBlend
         in="colormatrix2"
         in2="flood"
         mode="normal"
         result="blend"
         id="feBlend39" />
      <feComposite
         in="blend"
         in2="blend"
         operator="arithmetic"
         k2="0.2"
         result="composite1"
         id="feComposite39" />
      <feComposite
         in2="SourceGraphic"
         operator="in"
         id="feComposite40" />
    </filter>
  </defs>
  <g
     id="g877"
     transform="matrix(1.1,0,0,1.1,-3.1845928,-3.2065454)">
    <ellipse
       style="opacity:0.5;fill:#000000;stroke:none;stroke-width:3.89319;stroke-dasharray:none;stroke-opacity:1;filter:url(#filter9)"
       id="path2-5"
       cx="31.949858"
       cy="31.969812"
       rx="25.124426"
       ry="25.268976"
       transform="matrix(1.05,0,0,1.05,-1.5974929,-1.5984906)" />
    <path
       style="fill:#f5f7fa;stroke-width:0.204426;fill-opacity:1"
       d=""
       id="path3" />
    <circle
       style="opacity:1;fill:url(#linearGradient8);stroke:url(#linearGradient7);stroke-width:3.81818;stroke-dasharray:none;stroke-opacity:1"
       id="path2"
       cx="31.949856"
       cy="31.969812"
       r="24.711082" />
    <ellipse
       style="opacity:0.3;fill:none;stroke:#000000;stroke-width:0.974376;stroke-dasharray:none;stroke-opacity:1"
       id="path2-9"
       cx="31.949856"
       cy="31.969812"
       rx="23.129124"
       ry="23.129126" />
  </g>
  <path
     d="m 40.676498,44.344373 c -1.469557,0 -2.704031,-0.423573 -3.702378,-1.271745 -0.979704,-0.848189 -1.469557,-1.968741 -1.469557,-3.363731 0,-1.506837 0.584095,-2.684348 1.752285,-3.532526 1.168195,-0.866819 2.60979,-1.30075 4.323752,-1.30075 1.526513,0 2.779617,0.282725 3.759324,0.84818 V 35.32819 c 0,-1.016987 -0.348998,-1.827884 -1.045978,-2.430619 -0.696979,-0.621376 -1.554485,-0.933102 -2.57146,-0.933102 -0.753947,0 -1.441603,0.179165 -2.06298,0.537491 -0.603769,0.358327 -1.018023,0.84818 -1.243794,1.469558 l -2.374693,-1.016986 c 0.321047,-0.829539 0.951743,-1.592798 1.894167,-2.289774 0.941384,-0.715621 2.185177,-1.073947 3.730336,-1.073947 1.770922,0 3.241512,0.517814 4.409698,1.554478 1.168191,1.036663 1.752288,2.496899 1.752288,4.380706 v 8.365809 h -2.487584 v -1.922131 h -0.112867 c -1.036657,1.583477 -2.552813,2.3747 -4.550542,2.3747 z m -6.301805,-0.452569 h -2.883188 l -1.95009,-5.482621 h -8.507684 l -1.97805,5.482621 h -2.88319 l 7.631544,-20.236177 h 2.939114 z m 6.725371,-1.922131 c 1.073952,0 2.044331,-0.395618 2.911151,-1.186831 0.885465,-0.809859 1.328709,-1.761599 1.328709,-2.854189 -0.735292,-0.602733 -1.837199,-0.904103 -3.306753,-0.904103 -1.262434,0 -2.214177,0.272365 -2.854195,0.819181 -0.641056,0.546811 -0.961063,1.186829 -0.961063,1.922123 0,0.678343 0.292065,1.214795 0.876144,1.610409 0.584092,0.395621 1.253108,0.59341 2.006007,0.59341 z M 25.330552,26.849503 h -0.112885 l -3.306762,9.129062 h 6.726405 z"
     fill="#ffffff"
     fill-opacity="0.85"
     fill-rule="nonzero"
     id="path3-3-6"
     style="fill:#000000;fill-opacity:1;stroke:none;stroke-width:0.495;stroke-dasharray:none;stroke-opacity:0.6;opacity:0.2" />
  <path
     d="m 40.676498,42.344373 c -1.469557,0 -2.704031,-0.423573 -3.702378,-1.271745 -0.979704,-0.848189 -1.469557,-1.968741 -1.469557,-3.363731 0,-1.506837 0.584095,-2.684348 1.752285,-3.532526 1.168195,-0.866819 2.60979,-1.30075 4.323752,-1.30075 1.526513,0 2.779617,0.282725 3.759324,0.84818 V 33.32819 c 0,-1.016987 -0.348998,-1.827884 -1.045978,-2.430619 -0.696979,-0.621376 -1.554485,-0.933102 -2.57146,-0.933102 -0.753947,0 -1.441603,0.179165 -2.06298,0.537491 -0.603769,0.358327 -1.018023,0.84818 -1.243794,1.469558 l -2.374693,-1.016986 c 0.321047,-0.829539 0.951743,-1.592798 1.894167,-2.289774 0.941384,-0.715621 2.185177,-1.073947 3.730336,-1.073947 1.770922,0 3.241512,0.517814 4.409698,1.554478 1.168191,1.036663 1.752288,2.496899 1.752288,4.380706 v 8.365809 h -2.487584 v -1.922131 h -0.112867 c -1.036657,1.583477 -2.552813,2.3747 -4.550542,2.3747 z m -6.301805,-0.452569 h -2.883188 l -1.95009,-5.482621 h -8.507684 l -1.97805,5.482621 h -2.88319 l 7.631544,-20.236177 h 2.939114 z m 6.725371,-1.922131 c 1.073952,0 2.044331,-0.395618 2.911151,-1.186831 0.885465,-0.809859 1.328709,-1.761599 1.328709,-2.854189 -0.735292,-0.602733 -1.837199,-0.904103 -3.306753,-0.904103 -1.262434,0 -2.214177,0.272365 -2.854195,0.819181 -0.641056,0.546811 -0.961063,1.186829 -0.961063,1.922123 0,0.678343 0.292065,1.214795 0.876144,1.610409 0.584092,0.395621 1.253108,0.59341 2.006007,0.59341 z M 25.330552,24.849503 h -0.112885 l -3.306762,9.129062 h 6.726405 z"
     fill="#ffffff"
     fill-opacity="0.85"
     fill-rule="nonzero"
     id="path3-3"
     style="fill:#4d4d4d;fill-opacity:1;stroke:none;stroke-width:0.495;stroke-dasharray:none;stroke-opacity:0.6" />
</svg>
