<?xml version="1.0" encoding="UTF-8" standalone="no"?>
<svg
   width="64"
   height="64"
   version="1.1"
   id="svg73"
   sodipodi:docname="abcd.svg"
   inkscape:version="1.4.2 (ebf0e940d0, 2025-05-08)"
   xmlns:inkscape="http://www.inkscape.org/namespaces/inkscape"
   xmlns:sodipodi="http://sodipodi.sourceforge.net/DTD/sodipodi-0.dtd"
   xmlns:xlink="http://www.w3.org/1999/xlink"
   xmlns="http://www.w3.org/2000/svg"
   xmlns:svg="http://www.w3.org/2000/svg"
   xmlns:rdf="http://www.w3.org/1999/02/22-rdf-syntax-ns#"
   xmlns:cc="http://creativecommons.org/ns#"
   xmlns:dc="http://purl.org/dc/elements/1.1/">
  <metadata
     id="metadata77">
    <rdf:RDF>
      <cc:Work
         rdf:about="">
        <dc:format>image/svg+xml</dc:format>
        <dc:type
           rdf:resource="http://purl.org/dc/dcmitype/StillImage" />
      </cc:Work>
    </rdf:RDF>
  </metadata>
  <sodipodi:namedview
     pagecolor="#f5f7fa"
     bordercolor="#666666"
     borderopacity="1"
     objecttolerance="10"
     gridtolerance="10"
     guidetolerance="10"
     inkscape:pageopacity="0"
     inkscape:pageshadow="2"
     inkscape:window-width="1920"
     inkscape:window-height="931"
     id="namedview75"
     showgrid="false"
     inkscape:zoom="6.2890624"
     inkscape:cx="53.426088"
     inkscape:cy="29.734162"
     inkscape:window-x="0"
     inkscape:window-y="0"
     inkscape:window-maximized="1"
     inkscape:current-layer="svg73"
     inkscape:document-rotation="0"
     inkscape:pagecheckerboard="0"
     inkscape:showpageshadow="2"
     inkscape:deskcolor="#d1d1d1" />
  <defs
     id="defs29">
    <linearGradient
       id="linearGradient4"
       inkscape:collect="always">
      <stop
         style="stop-color:#5ea9ac;stop-opacity:1;"
         offset="0"
         id="stop4" />
      <stop
         style="stop-color:#81bfc1;stop-opacity:1;"
         offset="0.5"
         id="stop1" />
    </linearGradient>
    <linearGradient
       id="linearGradient2"
       inkscape:collect="always">
      <stop
         style="stop-color:#ecf4f4;stop-opacity:1;"
         offset="0"
         id="stop2" />
      <stop
         style="stop-color:#d8e8e9;stop-opacity:1;"
         offset="1"
         id="stop3" />
    </linearGradient>
    <linearGradient
       inkscape:collect="always"
       xlink:href="#linearGradient2"
       id="linearGradient8"
       x1="31.721739"
       y1="5.2278585"
       x2="31.88887"
       y2="59.145416"
       gradientUnits="userSpaceOnUse"
       gradientTransform="matrix(0.8505,0,0,0.8505,4.7765033,4.7794869)" />
    <filter
       style="color-interpolation-filters:sRGB;"
       inkscape:label="Blur"
       id="filter9"
       x="-0.047762285"
       y="-0.047489063"
       width="1.0955246"
       height="1.0949781">
      <feGaussianBlur
         stdDeviation="1 1"
         result="blur"
         id="feGaussianBlur9" />
    </filter>
    <linearGradient
       inkscape:collect="always"
       xlink:href="#linearGradient4"
       id="linearGradient7"
       x1="26.723248"
       y1="58.711765"
       x2="25.756926"
       y2="5.950614"
       gradientUnits="userSpaceOnUse" />
    <filter
       style="color-interpolation-filters:sRGB;"
       inkscape:label="Out of Focus"
       id="filter40"
       x="-0.24226652"
       y="-0.2858297"
       width="1.484533"
       height="1.5716594">
      <feFlood
         flood-opacity="1"
         flood-color="rgb(255,255,255)"
         result="flood"
         id="feFlood38" />
      <feColorMatrix
         in="SourceGraphic"
         values="1 0 0 0 0 0 1 0 0 0 0 0 1 0 0 -0.2125 -0.7154 -0.0721 1 0 "
         result="colormatrix1"
         id="feColorMatrix38" />
      <feGaussianBlur
         in="colormatrix1"
         stdDeviation="3 3"
         result="blur"
         id="feGaussianBlur38" />
      <feColorMatrix
         in="blur"
         values="1 0 0 0 0 0 1 0 0 0 0 0 1 0 0 0 0 0 6 -2 "
         result="colormatrix2"
         id="feColorMatrix39" />
      <feBlend
         in="colormatrix2"
         in2="flood"
         mode="normal"
         result="blend"
         id="feBlend39" />
      <feComposite
         in="blend"
         in2="blend"
         operator="arithmetic"
         k2="0.2"
         result="composite1"
         id="feComposite39" />
      <feComposite
         in2="SourceGraphic"
         operator="in"
         id="feComposite40" />
    </filter>
  </defs>
  <g
     id="g877"
     transform="matrix(1.1,0,0,1.1,-3.1845928,-3.2065454)">
    <ellipse
       style="opacity:0.5;fill:#000000;stroke:none;stroke-width:3.89319;stroke-dasharray:none;stroke-opacity:1;filter:url(#filter9)"
       id="path2-5"
       cx="31.949858"
       cy="31.969812"
       rx="25.124426"
       ry="25.268976"
       transform="matrix(1.05,0,0,1.05,-1.5974929,-1.5984906)" />
    <path
       style="fill:#f5f7fa;stroke-width:0.204426;fill-opacity:1"
       d=""
       id="path3" />
    <circle
       style="opacity:1;fill:url(#linearGradient8);stroke:url(#linearGradient7);stroke-width:3.81818;stroke-dasharray:none;stroke-opacity:1"
       id="path2"
       cx="31.949856"
       cy="31.969812"
       r="24.711082" />
    <ellipse
       style="opacity:0.3;fill:none;stroke:#000000;stroke-width:0.974376;stroke-dasharray:none;stroke-opacity:1"
       id="path2-9"
       cx="31.949856"
       cy="31.969812"
       rx="23.129124"
       ry="23.129126" />
  </g>
  <g
     id="svg7-5-7"
     transform="matrix(2.8793196,0,0,2.8793196,7.4453806,9.2868309)"
     style="fill:#000000;fill-opacity:1;stroke:none;stroke-width:0.16332;stroke-dasharray:none;stroke-opacity:0.6;opacity:0.2">
    <path
       d="m 8.5279242,3.317016 c -2.9226931,0 -5.2920051,2.3576591 -5.2920051,5.2659734 0,2.9083126 2.369312,5.2659726 5.2920051,5.2659726 2.9226898,0 5.2920048,-2.35766 5.2920048,-5.2659726 0,-2.9083143 -2.369315,-5.2659734 -5.2920048,-5.2659734 z M 8.1499236,4.7745625 c 0.050576,-0.00526 0.1143535,0.00301 0.1653867,0 0.006,0.024084 -0.036832,0.109736 -0.094494,0.2350892 -0.3673105,0.7984418 -0.388147,1.7335284 -0.04726,2.2333369 0.06169,0.090618 0.1181235,0.1768599 0.1181235,0.1880714 0,0.011205 -0.066519,0.023456 -0.141755,0.023456 -0.1765854,0 -0.3436944,-0.1070949 -0.6851257,-0.3761334 C 7.3131287,6.9588671 7.1159408,6.8584829 7.0395455,6.8432887 6.9195927,6.8194351 6.8876188,6.8298973 6.7324142,6.9843399 6.5880303,7.1279968 6.5434272,7.2054574 6.5434272,7.3369726 c 0,0.4987179 0.5950324,0.8951698 1.7010026,1.1284228 1.5019451,0.3167636 1.8721982,0.6011635 1.9136252,1.3870193 0.05201,0.9854733 -0.4752201,1.7285703 -1.6301273,2.3038623 -0.1378405,0.06868 -0.2256766,0.09535 -0.2835091,0.11754 -0.025714,-0.0023 -0.04529,0.0023 -0.070836,0 -0.00971,-0.03046 -0.023723,-0.101145 -0.023723,-0.235089 0,-0.523422 -0.2073323,-1.062184 -0.5197414,-1.36351 C 7.5462566,10.594334 7.3114426,10.422941 7.1103637,10.299079 6.9092887,10.175224 6.7066946,10.031344 6.6614854,9.9699574 6.5865651,9.8680894 6.5803355,9.8055078 6.6377663,9.617325 6.7426596,9.2736299 6.8675282,9.0822044 7.1102599,8.8650435 7.2375265,8.7511933 7.3655664,8.6557203 7.3937694,8.6534627 7.4220537,8.6512536 7.2311269,8.5941818 6.9448944,8.5359198 6.6586595,8.4775575 6.2399932,8.3552949 6.0234979,8.2773358 5.6276707,8.1348174 5.0932547,7.8356262 4.8894884,7.6190902 4.8809119,7.6099054 4.8734878,7.6037331 4.8657693,7.5956336 5.157685,6.4385786 5.9768878,5.4902523 7.0628901,5.0331737 7.2901085,4.9375348 7.524368,4.8719223 7.771641,4.8215925 7.8947935,4.7965479 8.022461,4.7874407 8.1496402,4.7745756 Z m 3.5437534,1.76316 c 0.08878,0.054614 0.424046,0.7763929 0.51975,1.1284225 0.123553,0.4545215 0.114611,1.2410775 0,1.6926353 -0.04364,0.17185 -0.09952,0.3326208 -0.118122,0.3526321 C 12.076735,9.7314334 12.009275,9.6162254 11.92992,9.476323 11.850577,9.3364452 11.597166,9.039211 11.386551,8.8180774 10.778622,8.1797441 10.683024,7.8464457 10.937677,7.3370226 c 0.12841,-0.2568975 0.68728,-0.8415028 0.756,-0.7993001 z"
       fill="#4d4d4d"
       id="path2-0-5"
       style="fill:#000000;fill-opacity:1;stroke:none;stroke-width:0.16332;stroke-dasharray:none;stroke-opacity:0.6" />
  </g>
  <g
     id="svg7-5"
     transform="matrix(2.8793196,0,0,2.8793196,7.4453806,7.2868309)"
     style="fill:#4d4d4d;fill-opacity:1;stroke:none;stroke-width:0.16332;stroke-dasharray:none;stroke-opacity:0.6">
    <path
       d="m 8.5279242,3.317016 c -2.9226931,0 -5.2920051,2.3576591 -5.2920051,5.2659734 0,2.9083126 2.369312,5.2659726 5.2920051,5.2659726 2.9226898,0 5.2920048,-2.35766 5.2920048,-5.2659726 0,-2.9083143 -2.369315,-5.2659734 -5.2920048,-5.2659734 z M 8.1499236,4.7745625 c 0.050576,-0.00526 0.1143535,0.00301 0.1653867,0 0.006,0.024084 -0.036832,0.109736 -0.094494,0.2350892 -0.3673105,0.7984418 -0.388147,1.7335284 -0.04726,2.2333369 0.06169,0.090618 0.1181235,0.1768599 0.1181235,0.1880714 0,0.011205 -0.066519,0.023456 -0.141755,0.023456 -0.1765854,0 -0.3436944,-0.1070949 -0.6851257,-0.3761334 C 7.3131287,6.9588671 7.1159408,6.8584829 7.0395455,6.8432887 6.9195927,6.8194351 6.8876188,6.8298973 6.7324142,6.9843399 6.5880303,7.1279968 6.5434272,7.2054574 6.5434272,7.3369726 c 0,0.4987179 0.5950324,0.8951698 1.7010026,1.1284228 1.5019451,0.3167636 1.8721982,0.6011635 1.9136252,1.3870193 0.05201,0.9854733 -0.4752201,1.7285703 -1.6301273,2.3038623 -0.1378405,0.06868 -0.2256766,0.09535 -0.2835091,0.11754 -0.025714,-0.0023 -0.04529,0.0023 -0.070836,0 -0.00971,-0.03046 -0.023723,-0.101145 -0.023723,-0.235089 0,-0.523422 -0.2073323,-1.062184 -0.5197414,-1.36351 C 7.5462566,10.594334 7.3114426,10.422941 7.1103637,10.299079 6.9092887,10.175224 6.7066946,10.031344 6.6614854,9.9699574 6.5865651,9.8680894 6.5803355,9.8055078 6.6377663,9.617325 6.7426596,9.2736299 6.8675282,9.0822044 7.1102599,8.8650435 7.2375265,8.7511933 7.3655664,8.6557203 7.3937694,8.6534627 7.4220537,8.6512536 7.2311269,8.5941818 6.9448944,8.5359198 6.6586595,8.4775575 6.2399932,8.3552949 6.0234979,8.2773358 5.6276707,8.1348174 5.0932547,7.8356262 4.8894884,7.6190902 4.8809119,7.6099054 4.8734878,7.6037331 4.8657693,7.5956336 5.157685,6.4385786 5.9768878,5.4902523 7.0628901,5.0331737 7.2901085,4.9375348 7.524368,4.8719223 7.771641,4.8215925 7.8947935,4.7965479 8.022461,4.7874407 8.1496402,4.7745756 Z m 3.5437534,1.76316 c 0.08878,0.054614 0.424046,0.7763929 0.51975,1.1284225 0.123553,0.4545215 0.114611,1.2410775 0,1.6926353 -0.04364,0.17185 -0.09952,0.3326208 -0.118122,0.3526321 C 12.076735,9.7314334 12.009275,9.6162254 11.92992,9.476323 11.850577,9.3364452 11.597166,9.039211 11.386551,8.8180774 10.778622,8.1797441 10.683024,7.8464457 10.937677,7.3370226 c 0.12841,-0.2568975 0.68728,-0.8415028 0.756,-0.7993001 z"
       fill="#4d4d4d"
       id="path2-0"
       style="fill:#4d4d4d;fill-opacity:1;stroke:none;stroke-width:0.16332;stroke-dasharray:none;stroke-opacity:0.6" />
  </g>
</svg>
