<?xml version="1.0" encoding="UTF-8" standalone="no"?>
<svg
   width="64"
   height="64"
   version="1.1"
   id="svg73"
   sodipodi:docname="abcd.svg"
   inkscape:version="1.4.2 (ebf0e940d0, 2025-05-08)"
   xmlns:inkscape="http://www.inkscape.org/namespaces/inkscape"
   xmlns:sodipodi="http://sodipodi.sourceforge.net/DTD/sodipodi-0.dtd"
   xmlns:xlink="http://www.w3.org/1999/xlink"
   xmlns="http://www.w3.org/2000/svg"
   xmlns:svg="http://www.w3.org/2000/svg"
   xmlns:rdf="http://www.w3.org/1999/02/22-rdf-syntax-ns#"
   xmlns:cc="http://creativecommons.org/ns#"
   xmlns:dc="http://purl.org/dc/elements/1.1/">
  <metadata
     id="metadata77">
    <rdf:RDF>
      <cc:Work
         rdf:about="">
        <dc:format>image/svg+xml</dc:format>
        <dc:type
           rdf:resource="http://purl.org/dc/dcmitype/StillImage" />
      </cc:Work>
    </rdf:RDF>
  </metadata>
  <sodipodi:namedview
     pagecolor="#f5f7fa"
     bordercolor="#666666"
     borderopacity="1"
     objecttolerance="10"
     gridtolerance="10"
     guidetolerance="10"
     inkscape:pageopacity="0"
     inkscape:pageshadow="2"
     inkscape:window-width="1024"
     inkscape:window-height="621"
     id="namedview75"
     showgrid="false"
     inkscape:zoom="6.2890624"
     inkscape:cx="34.822361"
     inkscape:cy="29.734162"
     inkscape:window-x="24"
     inkscape:window-y="21"
     inkscape:window-maximized="0"
     inkscape:current-layer="svg73"
     inkscape:document-rotation="0"
     inkscape:pagecheckerboard="0"
     inkscape:showpageshadow="2"
     inkscape:deskcolor="#d1d1d1" />
  <defs
     id="defs29">
    <linearGradient
       id="linearGradient4"
       inkscape:collect="always">
      <stop
         style="stop-color:#5ea9ac;stop-opacity:1;"
         offset="0"
         id="stop4" />
      <stop
         style="stop-color:#81bfc1;stop-opacity:1;"
         offset="0.5"
         id="stop1" />
    </linearGradient>
    <linearGradient
       id="linearGradient2"
       inkscape:collect="always">
      <stop
         style="stop-color:#ecf4f4;stop-opacity:1;"
         offset="0"
         id="stop2" />
      <stop
         style="stop-color:#d8e8e9;stop-opacity:1;"
         offset="1"
         id="stop3" />
    </linearGradient>
    <linearGradient
       inkscape:collect="always"
       xlink:href="#linearGradient2"
       id="linearGradient8"
       x1="31.721739"
       y1="5.2278585"
       x2="31.88887"
       y2="59.145416"
       gradientUnits="userSpaceOnUse"
       gradientTransform="matrix(0.8505,0,0,0.8505,4.7765033,4.7794869)" />
    <filter
       style="color-interpolation-filters:sRGB;"
       inkscape:label="Blur"
       id="filter9"
       x="-0.047762285"
       y="-0.047489063"
       width="1.0955246"
       height="1.0949781">
      <feGaussianBlur
         stdDeviation="1 1"
         result="blur"
         id="feGaussianBlur9" />
    </filter>
    <linearGradient
       inkscape:collect="always"
       xlink:href="#linearGradient4"
       id="linearGradient7"
       x1="26.723248"
       y1="58.711765"
       x2="25.756926"
       y2="5.950614"
       gradientUnits="userSpaceOnUse" />
    <filter
       style="color-interpolation-filters:sRGB;"
       inkscape:label="Out of Focus"
       id="filter40"
       x="-0.24226652"
       y="-0.2858297"
       width="1.484533"
       height="1.5716594">
      <feFlood
         flood-opacity="1"
         flood-color="rgb(255,255,255)"
         result="flood"
         id="feFlood38" />
      <feColorMatrix
         in="SourceGraphic"
         values="1 0 0 0 0 0 1 0 0 0 0 0 1 0 0 -0.2125 -0.7154 -0.0721 1 0 "
         result="colormatrix1"
         id="feColorMatrix38" />
      <feGaussianBlur
         in="colormatrix1"
         stdDeviation="3 3"
         result="blur"
         id="feGaussianBlur38" />
      <feColorMatrix
         in="blur"
         values="1 0 0 0 0 0 1 0 0 0 0 0 1 0 0 0 0 0 6 -2 "
         result="colormatrix2"
         id="feColorMatrix39" />
      <feBlend
         in="colormatrix2"
         in2="flood"
         mode="normal"
         result="blend"
         id="feBlend39" />
      <feComposite
         in="blend"
         in2="blend"
         operator="arithmetic"
         k2="0.2"
         result="composite1"
         id="feComposite39" />
      <feComposite
         in2="SourceGraphic"
         operator="in"
         id="feComposite40" />
    </filter>
  </defs>
  <g
     id="g877"
     transform="matrix(1.1,0,0,1.1,-3.1845928,-3.2065454)">
    <ellipse
       style="opacity:0.5;fill:#000000;stroke:none;stroke-width:3.89319;stroke-dasharray:none;stroke-opacity:1;filter:url(#filter9)"
       id="path2-5"
       cx="31.949858"
       cy="31.969812"
       rx="25.124426"
       ry="25.268976"
       transform="matrix(1.05,0,0,1.05,-1.5974929,-1.5984906)" />
    <path
       style="fill:#f5f7fa;stroke-width:0.204426;fill-opacity:1"
       d=""
       id="path3" />
    <circle
       style="opacity:1;fill:url(#linearGradient8);stroke:url(#linearGradient7);stroke-width:3.81818;stroke-dasharray:none;stroke-opacity:1"
       id="path2"
       cx="31.949856"
       cy="31.969812"
       r="24.711082" />
    <ellipse
       style="opacity:0.3;fill:none;stroke:#000000;stroke-width:0.974376;stroke-dasharray:none;stroke-opacity:1"
       id="path2-9"
       cx="31.949856"
       cy="31.969812"
       rx="23.129124"
       ry="23.129126" />
  </g>
  <path
     style="fill:#000000;fill-opacity:1;stroke:none;stroke-width:0.544501;stroke-dasharray:none;stroke-dashoffset:2.2;stroke-opacity:0.6;opacity:0.2"
     d="m 17.692136,47.29356 c -0.149414,-0.02824 -0.408204,-0.148821 -0.575109,-0.267573 -0.664528,-0.473186 -0.62786,0.284785 -0.62786,-12.977779 0,-11.717637 0.007,-12.148303 0.208069,-12.539648 0.114434,-0.222899 0.372492,-0.503573 0.573461,-0.623728 0.360464,-0.215515 0.560014,-0.218464 14.783849,-0.218464 h 14.418449 l 0.356594,0.254375 c 0.726475,0.518166 0.681046,-0.351891 0.681046,13.040738 0,11.652218 -0.0085,12.174915 -0.203554,12.539646 -0.111914,0.209269 -0.36999,0.478917 -0.573456,0.599071 -0.364526,0.215255 -0.578299,0.218622 -14.569946,0.231719 -7.809994,0.0075 -14.322231,-0.01056 -14.471639,-0.03827 z m 26.589307,-2.769967 c 0.594944,-0.149876 1.202916,-0.645727 1.496046,-1.220292 0.181035,-0.354797 0.218181,-0.593454 0.184709,-1.186265 -0.05116,-0.904224 -0.431363,-1.526256 -1.172122,-1.917328 l -0.481417,-0.25416 H 32.143085 c -10.733453,0 -12.213183,0.02006 -12.570168,0.169095 -1.469538,0.614025 -1.854932,2.472779 -0.768591,3.706929 0.750452,0.85256 -0.02684,0.804771 13.229156,0.813336 8.14971,0.0052 11.921229,-0.02892 12.247961,-0.111268 z"
     id="path90-3" />
  <path
     style="fill:#4d4d4d;fill-opacity:1;stroke:none;stroke-width:0.544501;stroke-dasharray:none;stroke-dashoffset:2.2;stroke-opacity:0.6"
     d="m 17.692136,45.29356 c -0.149414,-0.02824 -0.408204,-0.148821 -0.575109,-0.267573 -0.664528,-0.473186 -0.62786,0.284785 -0.62786,-12.977779 0,-11.717637 0.007,-12.148303 0.208069,-12.539648 0.114434,-0.222899 0.372492,-0.503573 0.573461,-0.623728 0.360464,-0.215515 0.560014,-0.218464 14.783849,-0.218464 h 14.418449 l 0.356594,0.254375 c 0.726475,0.518166 0.681046,-0.351891 0.681046,13.040738 0,11.652218 -0.0085,12.174915 -0.203554,12.539646 -0.111914,0.209269 -0.36999,0.478917 -0.573456,0.599071 -0.364526,0.215255 -0.578299,0.218622 -14.569946,0.231719 -7.809994,0.0075 -14.322231,-0.01056 -14.471639,-0.03827 z m 26.589307,-2.769967 c 0.594944,-0.149876 1.202916,-0.645727 1.496046,-1.220292 0.181035,-0.354797 0.218181,-0.593454 0.184709,-1.186265 -0.05116,-0.904224 -0.431363,-1.526256 -1.172122,-1.917328 l -0.481417,-0.25416 H 32.143085 c -10.733453,0 -12.213183,0.02006 -12.570168,0.169095 -1.469538,0.614025 -1.854932,2.472779 -0.768591,3.706929 0.750452,0.85256 -0.02684,0.804771 13.229156,0.813336 8.14971,0.0052 11.921229,-0.02892 12.247961,-0.111268 z"
     id="path90" />
</svg>
