<?xml version="1.0" encoding="UTF-8" standalone="no"?>
<svg
   width="64"
   height="64"
   version="1.1"
   id="svg73"
   sodipodi:docname="abcd.svg"
   inkscape:version="1.4.2 (ebf0e940d0, 2025-05-08)"
   xmlns:inkscape="http://www.inkscape.org/namespaces/inkscape"
   xmlns:sodipodi="http://sodipodi.sourceforge.net/DTD/sodipodi-0.dtd"
   xmlns:xlink="http://www.w3.org/1999/xlink"
   xmlns="http://www.w3.org/2000/svg"
   xmlns:svg="http://www.w3.org/2000/svg"
   xmlns:rdf="http://www.w3.org/1999/02/22-rdf-syntax-ns#"
   xmlns:cc="http://creativecommons.org/ns#"
   xmlns:dc="http://purl.org/dc/elements/1.1/">
  <metadata
     id="metadata77">
    <rdf:RDF>
      <cc:Work
         rdf:about="">
        <dc:format>image/svg+xml</dc:format>
        <dc:type
           rdf:resource="http://purl.org/dc/dcmitype/StillImage" />
      </cc:Work>
    </rdf:RDF>
  </metadata>
  <sodipodi:namedview
     pagecolor="#f5f7fa"
     bordercolor="#666666"
     borderopacity="1"
     objecttolerance="10"
     gridtolerance="10"
     guidetolerance="10"
     inkscape:pageopacity="0"
     inkscape:pageshadow="2"
     inkscape:window-width="1263"
     inkscape:window-height="693"
     id="namedview75"
     showgrid="false"
     inkscape:zoom="4.4470387"
     inkscape:cx="36.091433"
     inkscape:cy="29.682674"
     inkscape:window-x="24"
     inkscape:window-y="21"
     inkscape:window-maximized="0"
     inkscape:current-layer="svg73"
     inkscape:document-rotation="0"
     inkscape:pagecheckerboard="0"
     inkscape:showpageshadow="2"
     inkscape:deskcolor="#d1d1d1" />
  <defs
     id="defs29">
    <linearGradient
       id="linearGradient4"
       inkscape:collect="always">
      <stop
         style="stop-color:#5ea9ac;stop-opacity:1;"
         offset="0"
         id="stop4" />
      <stop
         style="stop-color:#81bfc1;stop-opacity:1;"
         offset="0.5"
         id="stop1" />
    </linearGradient>
    <linearGradient
       id="linearGradient2"
       inkscape:collect="always">
      <stop
         style="stop-color:#ecf4f4;stop-opacity:1;"
         offset="0"
         id="stop2" />
      <stop
         style="stop-color:#d8e8e9;stop-opacity:1;"
         offset="1"
         id="stop3" />
    </linearGradient>
    <linearGradient
       inkscape:collect="always"
       xlink:href="#linearGradient2"
       id="linearGradient8"
       x1="31.721739"
       y1="5.2278585"
       x2="31.88887"
       y2="59.145416"
       gradientUnits="userSpaceOnUse"
       gradientTransform="matrix(0.8505,0,0,0.8505,4.7765033,4.7794869)" />
    <filter
       style="color-interpolation-filters:sRGB;"
       inkscape:label="Blur"
       id="filter9"
       x="-0.047762285"
       y="-0.047489063"
       width="1.0955246"
       height="1.0949781">
      <feGaussianBlur
         stdDeviation="1 1"
         result="blur"
         id="feGaussianBlur9" />
    </filter>
    <linearGradient
       inkscape:collect="always"
       xlink:href="#linearGradient4"
       id="linearGradient7"
       x1="26.723248"
       y1="58.711765"
       x2="25.756926"
       y2="5.950614"
       gradientUnits="userSpaceOnUse" />
    <filter
       style="color-interpolation-filters:sRGB;"
       inkscape:label="Out of Focus"
       id="filter40"
       x="-0.24226652"
       y="-0.2858297"
       width="1.484533"
       height="1.5716594">
      <feFlood
         flood-opacity="1"
         flood-color="rgb(255,255,255)"
         result="flood"
         id="feFlood38" />
      <feColorMatrix
         in="SourceGraphic"
         values="1 0 0 0 0 0 1 0 0 0 0 0 1 0 0 -0.2125 -0.7154 -0.0721 1 0 "
         result="colormatrix1"
         id="feColorMatrix38" />
      <feGaussianBlur
         in="colormatrix1"
         stdDeviation="3 3"
         result="blur"
         id="feGaussianBlur38" />
      <feColorMatrix
         in="blur"
         values="1 0 0 0 0 0 1 0 0 0 0 0 1 0 0 0 0 0 6 -2 "
         result="colormatrix2"
         id="feColorMatrix39" />
      <feBlend
         in="colormatrix2"
         in2="flood"
         mode="normal"
         result="blend"
         id="feBlend39" />
      <feComposite
         in="blend"
         in2="blend"
         operator="arithmetic"
         k2="0.2"
         result="composite1"
         id="feComposite39" />
      <feComposite
         in2="SourceGraphic"
         operator="in"
         id="feComposite40" />
    </filter>
  </defs>
  <g
     id="g877"
     transform="matrix(1.1,0,0,1.1,-3.1845928,-3.2065454)">
    <ellipse
       style="opacity:0.5;fill:#000000;stroke:none;stroke-width:3.89319;stroke-dasharray:none;stroke-opacity:1;filter:url(#filter9)"
       id="path2-5"
       cx="31.949858"
       cy="31.969812"
       rx="25.124426"
       ry="25.268976"
       transform="matrix(1.05,0,0,1.05,-1.5974929,-1.5984906)" />
    <path
       style="fill:#f5f7fa;stroke-width:0.204426;fill-opacity:1"
       d=""
       id="path3" />
    <circle
       style="opacity:1;fill:url(#linearGradient8);stroke:url(#linearGradient7);stroke-width:3.81818;stroke-dasharray:none;stroke-opacity:1"
       id="path2"
       cx="31.949856"
       cy="31.969812"
       r="24.711082" />
    <ellipse
       style="opacity:0.3;fill:none;stroke:#000000;stroke-width:0.974376;stroke-dasharray:none;stroke-opacity:1"
       id="path2-9"
       cx="31.949856"
       cy="31.969812"
       rx="23.129124"
       ry="23.129126" />
  </g>
  <path
     style="fill:#000000;fill-opacity:1;stroke:none;stroke-width:0.51975;stroke-dasharray:none;stroke-opacity:0.6;opacity:0.2"
     d="m 19.92176,49.254083 c -2.024006,-0.567611 -3.32469,-2.233457 -3.32469,-4.258067 0,-0.577166 0.10538,-1.100634 0.575546,-2.85903 l 0.575549,-2.152505 -0.341474,-1.014162 c -0.648835,-1.927027 -0.75811,-2.65458 -0.756035,-5.033692 0.002,-2.353874 0.0993,-3.00697 0.727207,-4.88342 1.518518,-4.538028 5.158134,-8.181206 9.684262,-9.693742 1.892992,-0.632597 2.540337,-0.729274 4.897022,-0.731328 2.321705,-0.002 3.035815,0.09919 4.830055,0.684619 6.833137,2.229514 11.303189,9.113038 10.526235,16.209551 -0.432825,3.953299 -2.312379,7.572987 -5.228607,10.069372 -4.297698,3.678962 -10.003807,4.7492 -15.317308,2.872914 l -0.787359,-0.278049 -2.101628,0.568401 c -2.323014,0.628276 -3.133748,0.730492 -3.958775,0.499119 z m 1.502238,-1.629157 c -0.03039,-0.11351 -0.05588,-0.484933 -0.05654,-0.825425 -0.0012,-0.602085 -0.0078,-0.61907 -0.235091,-0.61907 -0.456499,0 -1.136893,-0.528028 -1.276919,-0.990971 -0.03511,-0.116295 -0.112039,-0.192373 -0.170807,-0.169084 -0.05877,0.02321 -0.406076,0.138225 -0.771785,0.255377 -0.36571,0.117189 -0.664926,0.246199 -0.664926,0.286738 0,0.04055 0.104588,0.280132 0.23243,0.532377 0.506252,0.999043 1.587987,1.693465 2.690187,1.726974 0.277129,0.0083 0.3031,-0.01179 0.253459,-0.196944 z m 12.690427,0.0072 c 0.378321,-0.05514 0.724003,-0.132976 0.768183,-0.172907 0.07795,-0.07044 -0.181551,-1.353602 -0.298404,-1.475658 -0.03136,-0.03286 -0.428507,-0.0026 -0.882491,0.06683 -0.453984,0.0695 -1.078955,0.127333 -1.388824,0.128439 -0.667969,0.0024 -0.674738,0.01251 -0.674738,0.983388 v 0.691253 l 0.894211,-0.06051 c 0.491814,-0.03321 1.203744,-0.105622 1.582064,-0.160799 z M 30.1227,47.441819 c 0.09558,-0.418045 0.211114,-1.308683 0.177087,-1.365123 -0.01928,-0.03214 -0.220421,-0.08601 -0.446925,-0.119938 -0.22651,-0.03392 -0.835142,-0.202375 -1.352518,-0.374228 -0.517374,-0.171872 -0.96813,-0.282988 -1.001679,-0.246877 -0.03353,0.03615 -0.185162,0.36024 -0.336913,0.720376 l -0.275923,0.654787 0.335527,0.141583 c 0.632095,0.266737 2.354772,0.762046 2.741268,0.788205 0.06209,0.0046 0.134126,-0.08518 0.160073,-0.198731 z M 25.661481,46.73669 c 0.236134,-0.06454 0.381454,-0.152905 0.358042,-0.217697 -0.02168,-0.06001 -0.114671,-0.39794 -0.206662,-0.751044 -0.09197,-0.353101 -0.176361,-0.654676 -0.187496,-0.670173 -0.01682,-0.02357 -2.596845,0.64281 -2.946606,0.76087 -0.09557,0.03214 0.03024,0.670894 0.292413,1.484255 0.03229,0.100287 0.450521,0.0057 2.690314,-0.606222 z m 11.983928,-0.158086 c 0.403545,-0.176906 0.972131,-0.46632 1.263519,-0.643084 l 0.529811,-0.321385 -0.203408,-0.335776 c -0.49556,-0.81815 -0.63262,-1.02365 -0.682719,-1.02365 -0.02966,0 -0.163048,0.07736 -0.296916,0.171943 -0.332779,0.234983 -1.45162,0.787018 -1.870087,0.922669 -0.188458,0.06112 -0.366397,0.149441 -0.39542,0.196445 -0.02904,0.04694 0.06302,0.396704 0.20451,0.777215 0.29851,0.802702 0.230405,0.790696 1.450703,0.255663 z m -12.808266,-2.563626 1.590814,-0.424395 0.793747,0.37246 c 1.629145,0.764477 2.957608,1.057976 4.783301,1.056764 1.313782,-9.9e-4 1.926402,-0.08804 3.18772,-0.453539 3.087215,-0.894792 5.829114,-3.371194 7.044664,-6.362688 1.911097,-4.703237 0.410276,-10.128851 -3.637022,-13.148206 -2.726191,-2.033785 -6.39454,-2.694399 -9.703365,-1.747431 -1.067982,0.305652 -2.647025,1.091185 -3.55198,1.767016 -4.231253,3.159957 -5.650142,8.991641 -3.340037,13.727674 l 0.349746,0.717028 -0.723555,2.703537 c -0.397956,1.486937 -0.723555,2.734923 -0.723555,2.773286 0,0.0385 0.526212,-0.07129 1.169354,-0.24377 0.643143,-0.172407 1.885217,-0.504494 2.760166,-0.737911 z M 41.873179,43.59597 c 0.509341,-0.523538 0.971138,-1.036107 1.026229,-1.139037 0.08955,-0.167336 0.03179,-0.238306 -0.545056,-0.67001 l -0.64522,-0.482843 -0.143262,0.214232 c -0.07876,0.117866 -0.525759,0.600867 -0.993282,1.073425 l -0.850039,0.859195 0.468171,0.625602 c 0.361104,0.482515 0.501127,0.607965 0.612271,0.54846 0.07926,-0.04246 0.560822,-0.505496 1.070164,-1.029032 z M 20.252395,42.62652 c 0.210552,-0.794476 0.382207,-1.488537 0.381457,-1.542366 -8.25e-4,-0.05386 -0.300586,-0.171228 -0.666296,-0.26088 -0.365706,-0.08968 -0.706255,-0.1798 -0.756773,-0.200267 -0.08907,-0.03615 -0.939286,2.951867 -0.861943,3.029206 0.03172,0.03179 1.28497,0.382477 1.466545,0.410447 0.02982,0.0046 0.226459,-0.641677 0.437011,-1.436142 z m 24.065526,-2.40816 c 0.334421,-0.667591 0.893889,-2.045618 0.893889,-2.201792 0,-0.07401 -0.709884,-0.310318 -1.266633,-0.421669 -0.253093,-0.05061 -0.272274,-0.02939 -0.47689,0.529054 -0.117224,0.319987 -0.374424,0.906834 -0.571494,1.304104 -0.232483,0.468648 -0.32692,0.753679 -0.269022,0.811633 0.203159,0.203159 1.080844,0.699505 1.208308,0.683325 0.07568,-0.01001 0.292487,-0.326706 0.481825,-0.704655 z M 20.291559,39.408534 c 0.339228,-0.143116 0.640301,-0.283711 0.669044,-0.312482 0.02875,-0.02866 -0.01448,-0.181203 -0.09593,-0.338823 -0.08151,-0.157609 -0.307873,-0.763093 -0.503042,-1.345515 -0.195174,-0.582426 -0.372616,-1.07671 -0.394316,-1.09841 -0.052,-0.052 -1.37746,0.241238 -1.470445,0.325304 -0.150007,0.135618 0.879109,3.030136 1.07733,3.030136 0.05532,0 0.37813,-0.117082 0.717364,-0.2602 z m 25.327434,-3.106023 c 0.09979,-0.259999 0.26395,-2.650154 0.199624,-2.906418 -0.05532,-0.220347 -0.09844,-0.239034 -0.551206,-0.239034 -0.270201,0 -0.620187,0.02582 -0.777825,0.05733 l -0.28656,0.05732 v 0.773465 c 0,0.425406 -0.04492,1.063153 -0.09987,1.417218 -0.05493,0.354063 -0.07432,0.669277 -0.04315,0.700471 0.03108,0.03119 0.354745,0.106084 0.71896,0.166431 0.364249,0.06035 0.688769,0.114148 0.721202,0.119595 0.03251,0.0055 0.08597,-0.06043 0.118939,-0.146369 z M 19.580672,34.944069 c 0.172867,-0.03511 0.187102,-0.110642 0.197069,-1.045049 0.0058,-0.553941 0.03865,-1.210226 0.07281,-1.458414 l 0.06207,-0.451252 -0.744151,-0.115761 c -0.409285,-0.06367 -0.768447,-0.09146 -0.798136,-0.06178 -0.125467,0.125467 -0.20638,0.920024 -0.210113,2.063328 l -0.004,1.222511 0.619069,-0.05785 c 0.340485,-0.03182 0.702916,-0.07489 0.805396,-0.09576 z m 25.386203,-3.213253 c 0.356602,-0.04277 0.55297,-0.111899 0.589682,-0.207567 0.131903,-0.343671 -0.772104,-3.110232 -1.001699,-3.065643 -0.06747,0.01308 -0.402342,0.155751 -0.744228,0.317019 -0.470871,0.2221 -0.606928,0.327526 -0.561078,0.434756 0.13676,0.319798 0.675515,2.051359 0.732096,2.352941 0.05112,0.272512 0.09237,0.317411 0.25577,0.27873 0.107151,-0.02539 0.435412,-0.07498 0.729468,-0.110241 z M 20.450038,29.947074 c 0.1171,-0.327877 0.324488,-0.823133 0.460858,-1.100569 0.436321,-0.887651 0.442936,-0.850577 -0.227334,-1.273895 -0.328278,-0.207324 -0.638631,-0.376954 -0.689677,-0.376954 -0.190679,0 -1.287397,2.48843 -1.287397,2.921078 0,0.118955 0.172749,0.202108 0.710784,0.342134 0.390929,0.10175 0.735324,0.162349 0.765318,0.134666 0.02996,-0.02771 0.150348,-0.318587 0.267448,-0.64646 z m 22.85695,-2.522134 c 0.339528,-0.201767 0.618101,-0.394351 0.619066,-0.427957 0.0057,-0.21107 -1.703015,-2.460376 -1.928349,-2.537875 -0.08089,-0.02786 -1.107927,0.840407 -1.166182,0.985901 -0.01286,0.03276 0.185587,0.30598 0.441629,0.607071 0.256021,0.301093 0.652993,0.827969 0.882152,1.17084 0.229161,0.342871 0.44314,0.611134 0.47551,0.596139 0.03251,-0.015 0.336671,-0.192348 0.676174,-0.394119 z m -20.001353,-2.017705 0.7971,-0.825424 -0.551814,-0.585195 -0.551814,-0.585194 -0.776591,0.768624 c -0.904727,0.895437 -1.466676,1.616669 -1.350091,1.73276 0.04459,0.04439 0.328684,0.268143 0.631337,0.497225 l 0.550284,0.416513 0.227244,-0.29694 c 0.12498,-0.16332 0.585936,-0.668385 1.024345,-1.122369 z m 17.047363,-1.496019 c 0.273135,-0.328094 0.446597,-0.612231 0.400432,-0.655864 -0.434292,-0.410427 -2.657298,-1.819396 -2.73515,-1.733574 -0.04625,0.05095 -0.693869,1.353486 -0.693869,1.395494 0,0.02017 0.361123,0.247795 0.802503,0.505745 0.441372,0.257947 0.98821,0.612782 1.215204,0.788522 0.226981,0.175735 0.438879,0.310301 0.470848,0.299035 0.03179,-0.01132 0.274988,-0.28098 0.540032,-0.599358 z M 25.697893,23.500261 c 0.265805,-0.16609 0.834085,-0.461773 1.262846,-0.657073 0.428763,-0.195297 0.790908,-0.363084 0.804769,-0.372857 0.01386,-0.0098 -0.09536,-0.343476 -0.242713,-0.741566 -0.21342,-0.576582 -0.30249,-0.718844 -0.437912,-0.699456 -0.217277,0.03113 -2.305363,1.071861 -2.574693,1.283283 l -0.203564,0.159799 0.386992,0.663532 c 0.212839,0.364944 0.417141,0.66416 0.453993,0.664925 0.03685,8.26e-4 0.284484,-0.134496 0.550282,-0.300587 z m 10.630871,-1.810349 c 0.144065,-0.375075 0.261937,-0.705293 0.261937,-0.733812 0,-0.129229 -1.446671,-0.515516 -2.54506,-0.679573 l -0.75664,-0.113018 -8.26e-4,0.329014 c -4.38e-4,0.180958 -0.02649,0.542801 -0.05787,0.8041 l -0.05707,0.475089 0.355944,0.05661 c 0.665091,0.105765 2.097919,0.43502 2.236076,0.513826 0.228323,0.130241 0.290668,0.05808 0.563494,-0.652238 z m -6.69791,0.273487 c 0.271712,-0.05295 0.919934,-0.131507 1.4405,-0.174556 0.520566,-0.04306 0.956727,-0.09259 0.969246,-0.110081 0.01251,-0.01753 0.0051,-0.372283 -0.01611,-0.788438 l -0.03892,-0.756643 -0.563502,-5.26e-4 c -0.587078,-5.47e-4 -2.443132,0.253705 -2.611453,0.357735 -0.06536,0.04039 -0.0353,0.304538 0.09274,0.814286 0.104214,0.414975 0.199376,0.754499 0.211477,0.754499 0.01211,0 0.244299,-0.04332 0.516008,-0.09628 z"
     id="path6-9" />
  <path
     style="fill:#4d4d4d;fill-opacity:1;stroke:none;stroke-width:0.51975;stroke-dasharray:none;stroke-opacity:0.6"
     d="m 19.92176,47.254083 c -2.024006,-0.567611 -3.32469,-2.233457 -3.32469,-4.258067 0,-0.577166 0.10538,-1.100634 0.575546,-2.85903 l 0.575549,-2.152505 -0.341474,-1.014162 c -0.648835,-1.927027 -0.75811,-2.65458 -0.756035,-5.033692 0.002,-2.353874 0.0993,-3.00697 0.727207,-4.88342 1.518518,-4.538028 5.158134,-8.181206 9.684262,-9.693742 1.892992,-0.632597 2.540337,-0.729274 4.897022,-0.731328 2.321705,-0.002 3.035815,0.09919 4.830055,0.684619 6.833137,2.229514 11.303189,9.113038 10.526235,16.209551 -0.432825,3.953299 -2.312379,7.572987 -5.228607,10.069372 -4.297698,3.678962 -10.003807,4.7492 -15.317308,2.872914 l -0.787359,-0.278049 -2.101628,0.568401 c -2.323014,0.628276 -3.133748,0.730492 -3.958775,0.499119 z m 1.502238,-1.629157 c -0.03039,-0.11351 -0.05588,-0.484933 -0.05654,-0.825425 -0.0012,-0.602085 -0.0078,-0.61907 -0.235091,-0.61907 -0.456499,0 -1.136893,-0.528028 -1.276919,-0.990971 -0.03511,-0.116295 -0.112039,-0.192373 -0.170807,-0.169084 -0.05877,0.02321 -0.406076,0.138225 -0.771785,0.255377 -0.36571,0.117189 -0.664926,0.246199 -0.664926,0.286738 0,0.04055 0.104588,0.280132 0.23243,0.532377 0.506252,0.999043 1.587987,1.693465 2.690187,1.726974 0.277129,0.0083 0.3031,-0.01179 0.253459,-0.196944 z m 12.690427,0.0072 c 0.378321,-0.05514 0.724003,-0.132976 0.768183,-0.172907 0.07795,-0.07044 -0.181551,-1.353602 -0.298404,-1.475658 -0.03136,-0.03286 -0.428507,-0.0026 -0.882491,0.06683 -0.453984,0.0695 -1.078955,0.127333 -1.388824,0.128439 -0.667969,0.0024 -0.674738,0.01251 -0.674738,0.983388 v 0.691253 l 0.894211,-0.06051 c 0.491814,-0.03321 1.203744,-0.105622 1.582064,-0.160799 z M 30.1227,45.441819 c 0.09558,-0.418045 0.211114,-1.308683 0.177087,-1.365123 -0.01928,-0.03214 -0.220421,-0.08601 -0.446925,-0.119938 -0.22651,-0.03392 -0.835142,-0.202375 -1.352518,-0.374228 -0.517374,-0.171872 -0.96813,-0.282988 -1.001679,-0.246877 -0.03353,0.03615 -0.185162,0.36024 -0.336913,0.720376 l -0.275923,0.654787 0.335527,0.141583 c 0.632095,0.266737 2.354772,0.762046 2.741268,0.788205 0.06209,0.0046 0.134126,-0.08518 0.160073,-0.198731 z M 25.661481,44.73669 c 0.236134,-0.06454 0.381454,-0.152905 0.358042,-0.217697 -0.02168,-0.06001 -0.114671,-0.39794 -0.206662,-0.751044 -0.09197,-0.353101 -0.176361,-0.654676 -0.187496,-0.670173 -0.01682,-0.02357 -2.596845,0.64281 -2.946606,0.76087 -0.09557,0.03214 0.03024,0.670894 0.292413,1.484255 0.03229,0.100287 0.450521,0.0057 2.690314,-0.606222 z m 11.983928,-0.158086 c 0.403545,-0.176906 0.972131,-0.46632 1.263519,-0.643084 l 0.529811,-0.321385 -0.203408,-0.335776 c -0.49556,-0.81815 -0.63262,-1.02365 -0.682719,-1.02365 -0.02966,0 -0.163048,0.07736 -0.296916,0.171943 -0.332779,0.234983 -1.45162,0.787018 -1.870087,0.922669 -0.188458,0.06112 -0.366397,0.149441 -0.39542,0.196445 -0.02904,0.04694 0.06302,0.396704 0.20451,0.777215 0.29851,0.802702 0.230405,0.790696 1.450703,0.255663 z m -12.808266,-2.563626 1.590814,-0.424395 0.793747,0.37246 c 1.629145,0.764477 2.957608,1.057976 4.783301,1.056764 1.313782,-9.9e-4 1.926402,-0.08804 3.18772,-0.453539 3.087215,-0.894792 5.829114,-3.371194 7.044664,-6.362688 1.911097,-4.703237 0.410276,-10.128851 -3.637022,-13.148206 -2.726191,-2.033785 -6.39454,-2.694399 -9.703365,-1.747431 -1.067982,0.305652 -2.647025,1.091185 -3.55198,1.767016 -4.231253,3.159957 -5.650142,8.991641 -3.340037,13.727674 l 0.349746,0.717028 -0.723555,2.703537 c -0.397956,1.486937 -0.723555,2.734923 -0.723555,2.773286 0,0.0385 0.526212,-0.07129 1.169354,-0.24377 0.643143,-0.172407 1.885217,-0.504494 2.760166,-0.737911 z M 41.873179,41.59597 c 0.509341,-0.523538 0.971138,-1.036107 1.026229,-1.139037 0.08955,-0.167336 0.03179,-0.238306 -0.545056,-0.67001 l -0.64522,-0.482843 -0.143262,0.214232 c -0.07876,0.117866 -0.525759,0.600867 -0.993282,1.073425 l -0.850039,0.859195 0.468171,0.625602 c 0.361104,0.482515 0.501127,0.607965 0.612271,0.54846 0.07926,-0.04246 0.560822,-0.505496 1.070164,-1.029032 z M 20.252395,40.62652 c 0.210552,-0.794476 0.382207,-1.488537 0.381457,-1.542366 -8.25e-4,-0.05386 -0.300586,-0.171228 -0.666296,-0.26088 -0.365706,-0.08968 -0.706255,-0.1798 -0.756773,-0.200267 -0.08907,-0.03615 -0.939286,2.951867 -0.861943,3.029206 0.03172,0.03179 1.28497,0.382477 1.466545,0.410447 0.02982,0.0046 0.226459,-0.641677 0.437011,-1.436142 z m 24.065526,-2.40816 c 0.334421,-0.667591 0.893889,-2.045618 0.893889,-2.201792 0,-0.07401 -0.709884,-0.310318 -1.266633,-0.421669 -0.253093,-0.05061 -0.272274,-0.02939 -0.47689,0.529054 -0.117224,0.319987 -0.374424,0.906834 -0.571494,1.304104 -0.232483,0.468648 -0.32692,0.753679 -0.269022,0.811633 0.203159,0.203159 1.080844,0.699505 1.208308,0.683325 0.07568,-0.01001 0.292487,-0.326706 0.481825,-0.704655 z M 20.291559,37.408534 c 0.339228,-0.143116 0.640301,-0.283711 0.669044,-0.312482 0.02875,-0.02866 -0.01448,-0.181203 -0.09593,-0.338823 -0.08151,-0.157609 -0.307873,-0.763093 -0.503042,-1.345515 -0.195174,-0.582426 -0.372616,-1.07671 -0.394316,-1.09841 -0.052,-0.052 -1.37746,0.241238 -1.470445,0.325304 -0.150007,0.135618 0.879109,3.030136 1.07733,3.030136 0.05532,0 0.37813,-0.117082 0.717364,-0.2602 z m 25.327434,-3.106023 c 0.09979,-0.259999 0.26395,-2.650154 0.199624,-2.906418 -0.05532,-0.220347 -0.09844,-0.239034 -0.551206,-0.239034 -0.270201,0 -0.620187,0.02582 -0.777825,0.05733 l -0.28656,0.05732 v 0.773465 c 0,0.425406 -0.04492,1.063153 -0.09987,1.417218 -0.05493,0.354063 -0.07432,0.669277 -0.04315,0.700471 0.03108,0.03119 0.354745,0.106084 0.71896,0.166431 0.364249,0.06035 0.688769,0.114148 0.721202,0.119595 0.03251,0.0055 0.08597,-0.06043 0.118939,-0.146369 z M 19.580672,32.944069 c 0.172867,-0.03511 0.187102,-0.110642 0.197069,-1.045049 0.0058,-0.553941 0.03865,-1.210226 0.07281,-1.458414 l 0.06207,-0.451252 -0.744151,-0.115761 c -0.409285,-0.06367 -0.768447,-0.09146 -0.798136,-0.06178 -0.125467,0.125467 -0.20638,0.920024 -0.210113,2.063328 l -0.004,1.222511 0.619069,-0.05785 c 0.340485,-0.03182 0.702916,-0.07489 0.805396,-0.09576 z m 25.386203,-3.213253 c 0.356602,-0.04277 0.55297,-0.111899 0.589682,-0.207567 0.131903,-0.343671 -0.772104,-3.110232 -1.001699,-3.065643 -0.06747,0.01308 -0.402342,0.155751 -0.744228,0.317019 -0.470871,0.2221 -0.606928,0.327526 -0.561078,0.434756 0.13676,0.319798 0.675515,2.051359 0.732096,2.352941 0.05112,0.272512 0.09237,0.317411 0.25577,0.27873 0.107151,-0.02539 0.435412,-0.07498 0.729468,-0.110241 z M 20.450038,27.947074 c 0.1171,-0.327877 0.324488,-0.823133 0.460858,-1.100569 0.436321,-0.887651 0.442936,-0.850577 -0.227334,-1.273895 -0.328278,-0.207324 -0.638631,-0.376954 -0.689677,-0.376954 -0.190679,0 -1.287397,2.48843 -1.287397,2.921078 0,0.118955 0.172749,0.202108 0.710784,0.342134 0.390929,0.10175 0.735324,0.162349 0.765318,0.134666 0.02996,-0.02771 0.150348,-0.318587 0.267448,-0.64646 z m 22.85695,-2.522134 c 0.339528,-0.201767 0.618101,-0.394351 0.619066,-0.427957 0.0057,-0.21107 -1.703015,-2.460376 -1.928349,-2.537875 -0.08089,-0.02786 -1.107927,0.840407 -1.166182,0.985901 -0.01286,0.03276 0.185587,0.30598 0.441629,0.607071 0.256021,0.301093 0.652993,0.827969 0.882152,1.17084 0.229161,0.342871 0.44314,0.611134 0.47551,0.596139 0.03251,-0.015 0.336671,-0.192348 0.676174,-0.394119 z m -20.001353,-2.017705 0.7971,-0.825424 -0.551814,-0.585195 -0.551814,-0.585194 -0.776591,0.768624 c -0.904727,0.895437 -1.466676,1.616669 -1.350091,1.73276 0.04459,0.04439 0.328684,0.268143 0.631337,0.497225 l 0.550284,0.416513 0.227244,-0.29694 c 0.12498,-0.16332 0.585936,-0.668385 1.024345,-1.122369 z m 17.047363,-1.496019 c 0.273135,-0.328094 0.446597,-0.612231 0.400432,-0.655864 -0.434292,-0.410427 -2.657298,-1.819396 -2.73515,-1.733574 -0.04625,0.05095 -0.693869,1.353486 -0.693869,1.395494 0,0.02017 0.361123,0.247795 0.802503,0.505745 0.441372,0.257947 0.98821,0.612782 1.215204,0.788522 0.226981,0.175735 0.438879,0.310301 0.470848,0.299035 0.03179,-0.01132 0.274988,-0.28098 0.540032,-0.599358 z M 25.697893,21.500261 c 0.265805,-0.16609 0.834085,-0.461773 1.262846,-0.657073 0.428763,-0.195297 0.790908,-0.363084 0.804769,-0.372857 0.01386,-0.0098 -0.09536,-0.343476 -0.242713,-0.741566 -0.21342,-0.576582 -0.30249,-0.718844 -0.437912,-0.699456 -0.217277,0.03113 -2.305363,1.071861 -2.574693,1.283283 l -0.203564,0.159799 0.386992,0.663532 c 0.212839,0.364944 0.417141,0.66416 0.453993,0.664925 0.03685,8.26e-4 0.284484,-0.134496 0.550282,-0.300587 z m 10.630871,-1.810349 c 0.144065,-0.375075 0.261937,-0.705293 0.261937,-0.733812 0,-0.129229 -1.446671,-0.515516 -2.54506,-0.679573 l -0.75664,-0.113018 -8.26e-4,0.329014 c -4.38e-4,0.180958 -0.02649,0.542801 -0.05787,0.8041 l -0.05707,0.475089 0.355944,0.05661 c 0.665091,0.105765 2.097919,0.43502 2.236076,0.513826 0.228323,0.130241 0.290668,0.05808 0.563494,-0.652238 z m -6.69791,0.273487 c 0.271712,-0.05295 0.919934,-0.131507 1.4405,-0.174556 0.520566,-0.04306 0.956727,-0.09259 0.969246,-0.110081 0.01251,-0.01753 0.0051,-0.372283 -0.01611,-0.788438 l -0.03892,-0.756643 -0.563502,-5.26e-4 c -0.587078,-5.47e-4 -2.443132,0.253705 -2.611453,0.357735 -0.06536,0.04039 -0.0353,0.304538 0.09274,0.814286 0.104214,0.414975 0.199376,0.754499 0.211477,0.754499 0.01211,0 0.244299,-0.04332 0.516008,-0.09628 z"
     id="path6" />
</svg>
