<?xml version="1.0" encoding="UTF-8" standalone="no"?>
<svg
   width="64"
   height="64"
   version="1.1"
   id="svg73"
   sodipodi:docname="abcd.svg"
   inkscape:version="1.4.2 (ebf0e940d0, 2025-05-08)"
   xmlns:inkscape="http://www.inkscape.org/namespaces/inkscape"
   xmlns:sodipodi="http://sodipodi.sourceforge.net/DTD/sodipodi-0.dtd"
   xmlns:xlink="http://www.w3.org/1999/xlink"
   xmlns="http://www.w3.org/2000/svg"
   xmlns:svg="http://www.w3.org/2000/svg"
   xmlns:rdf="http://www.w3.org/1999/02/22-rdf-syntax-ns#"
   xmlns:cc="http://creativecommons.org/ns#"
   xmlns:dc="http://purl.org/dc/elements/1.1/">
  <metadata
     id="metadata77">
    <rdf:RDF>
      <cc:Work
         rdf:about="">
        <dc:format>image/svg+xml</dc:format>
        <dc:type
           rdf:resource="http://purl.org/dc/dcmitype/StillImage" />
      </cc:Work>
    </rdf:RDF>
  </metadata>
  <sodipodi:namedview
     pagecolor="#f5f7fa"
     bordercolor="#666666"
     borderopacity="1"
     objecttolerance="10"
     gridtolerance="10"
     guidetolerance="10"
     inkscape:pageopacity="0"
     inkscape:pageshadow="2"
     inkscape:window-width="1024"
     inkscape:window-height="621"
     id="namedview75"
     showgrid="false"
     inkscape:zoom="6.2890624"
     inkscape:cx="34.822361"
     inkscape:cy="29.734162"
     inkscape:window-x="24"
     inkscape:window-y="21"
     inkscape:window-maximized="0"
     inkscape:current-layer="svg73"
     inkscape:document-rotation="0"
     inkscape:pagecheckerboard="0"
     inkscape:showpageshadow="2"
     inkscape:deskcolor="#d1d1d1" />
  <defs
     id="defs29">
    <linearGradient
       id="linearGradient4"
       inkscape:collect="always">
      <stop
         style="stop-color:#5ea9ac;stop-opacity:1;"
         offset="0"
         id="stop4" />
      <stop
         style="stop-color:#81bfc1;stop-opacity:1;"
         offset="0.5"
         id="stop1" />
    </linearGradient>
    <linearGradient
       id="linearGradient2"
       inkscape:collect="always">
      <stop
         style="stop-color:#ecf4f4;stop-opacity:1;"
         offset="0"
         id="stop2" />
      <stop
         style="stop-color:#d8e8e9;stop-opacity:1;"
         offset="1"
         id="stop3" />
    </linearGradient>
    <linearGradient
       inkscape:collect="always"
       xlink:href="#linearGradient2"
       id="linearGradient8"
       x1="31.721739"
       y1="5.2278585"
       x2="31.88887"
       y2="59.145416"
       gradientUnits="userSpaceOnUse"
       gradientTransform="matrix(0.8505,0,0,0.8505,4.7765033,4.7794869)" />
    <filter
       style="color-interpolation-filters:sRGB;"
       inkscape:label="Blur"
       id="filter9"
       x="-0.047762285"
       y="-0.047489063"
       width="1.0955246"
       height="1.0949781">
      <feGaussianBlur
         stdDeviation="1 1"
         result="blur"
         id="feGaussianBlur9" />
    </filter>
    <linearGradient
       inkscape:collect="always"
       xlink:href="#linearGradient4"
       id="linearGradient7"
       x1="26.723248"
       y1="58.711765"
       x2="25.756926"
       y2="5.950614"
       gradientUnits="userSpaceOnUse" />
    <filter
       style="color-interpolation-filters:sRGB;"
       inkscape:label="Out of Focus"
       id="filter40"
       x="-0.24226652"
       y="-0.2858297"
       width="1.484533"
       height="1.5716594">
      <feFlood
         flood-opacity="1"
         flood-color="rgb(255,255,255)"
         result="flood"
         id="feFlood38" />
      <feColorMatrix
         in="SourceGraphic"
         values="1 0 0 0 0 0 1 0 0 0 0 0 1 0 0 -0.2125 -0.7154 -0.0721 1 0 "
         result="colormatrix1"
         id="feColorMatrix38" />
      <feGaussianBlur
         in="colormatrix1"
         stdDeviation="3 3"
         result="blur"
         id="feGaussianBlur38" />
      <feColorMatrix
         in="blur"
         values="1 0 0 0 0 0 1 0 0 0 0 0 1 0 0 0 0 0 6 -2 "
         result="colormatrix2"
         id="feColorMatrix39" />
      <feBlend
         in="colormatrix2"
         in2="flood"
         mode="normal"
         result="blend"
         id="feBlend39" />
      <feComposite
         in="blend"
         in2="blend"
         operator="arithmetic"
         k2="0.2"
         result="composite1"
         id="feComposite39" />
      <feComposite
         in2="SourceGraphic"
         operator="in"
         id="feComposite40" />
    </filter>
    <clipPath
       id="clip0_2648_607">
      <rect
         width="16"
         height="16"
         fill="#ffffff"
         id="rect1-3"
         x="0"
         y="0" />
    </clipPath>
    <clipPath
       id="clip0_2648_607-9">
      <rect
         width="16"
         height="16"
         fill="#ffffff"
         id="rect1-3-5"
         x="0"
         y="0" />
    </clipPath>
  </defs>
  <g
     id="g877"
     transform="matrix(1.1,0,0,1.1,-3.1845928,-3.2065454)">
    <ellipse
       style="opacity:0.5;fill:#000000;stroke:none;stroke-width:3.89319;stroke-dasharray:none;stroke-opacity:1;filter:url(#filter9)"
       id="path2-5"
       cx="31.949858"
       cy="31.969812"
       rx="25.124426"
       ry="25.268976"
       transform="matrix(1.05,0,0,1.05,-1.5974929,-1.5984906)" />
    <path
       style="fill:#f5f7fa;stroke-width:0.204426;fill-opacity:1"
       d=""
       id="path3" />
    <circle
       style="opacity:1;fill:url(#linearGradient8);stroke:url(#linearGradient7);stroke-width:3.81818;stroke-dasharray:none;stroke-opacity:1"
       id="path2"
       cx="31.949856"
       cy="31.969812"
       r="24.711082" />
    <ellipse
       style="opacity:0.3;fill:none;stroke:#000000;stroke-width:0.974376;stroke-dasharray:none;stroke-opacity:1"
       id="path2-9"
       cx="31.949856"
       cy="31.969812"
       rx="23.129124"
       ry="23.129126" />
  </g>
  <path
     style="fill:#000000;fill-opacity:1;stroke-width:0.157779;opacity:0.2"
     d="m 18.891672,50.032619 c -1.095149,-0.394413 -1.577113,-0.735686 -2.21055,-1.565267 -0.667502,-0.874206 -1.011275,-1.989499 -1.011275,-3.280864 0,-1.208309 0.211451,-1.839102 0.592132,-1.766444 0.227434,0.04342 0.291887,0.286925 0.368452,1.39205 0.104863,1.513559 0.334913,2.065795 1.294061,3.10635 0.933539,1.012765 1.674614,1.342334 3.267627,1.453147 1.210006,0.08418 1.345782,0.12592 1.388744,0.426949 0.03764,0.26378 -0.05734,0.354634 -0.453616,0.433893 -0.922592,0.184518 -2.426261,0.09165 -3.235575,-0.199814 z m 19.783084,-4.86721 c -3.688516,-3.628553 -4.733349,-4.812435 -4.596518,-5.20825 0.05219,-0.151014 0.634045,-0.825073 1.29297,-1.497904 l 1.198051,-1.223324 -0.54906,-0.543827 -0.549061,-0.543823 -1.19915,1.147246 -1.199149,1.147247 -0.531368,-1.09308 c -0.862576,-1.774403 -2.157903,-3.02907 -4.152188,-4.021845 l -0.899474,-0.447771 0.966539,-0.921922 0.966541,-0.921922 -0.564382,-0.564382 -0.564387,-0.564384 -0.991331,0.98252 c -0.753767,0.747067 -1.100025,0.982524 -1.444879,0.982524 -0.381692,0 -1.062171,-0.607363 -4.295239,-3.833716 -3.304817,-3.297954 -3.841692,-3.89961 -3.841692,-4.305226 0,-0.401252 0.418806,-0.88798 2.810528,-3.266351 2.096334,-2.084631 2.908034,-2.794839 3.19423,-2.794839 0.555072,0 8.195688,7.658557 8.19465,8.213884 -4.86e-4,0.26467 -0.37536,0.774131 -1.198792,1.629242 l -1.198072,1.244156 0.561124,0.561127 0.561126,0.561123 0.940556,-0.897139 c 0.999506,-0.953371 1.483949,-1.214521 2.252959,-1.214521 0.262691,0 0.657842,-0.141762 0.878113,-0.315026 0.876273,-0.689279 2.284497,-0.707318 3.177355,-0.0407 0.757281,0.565389 1.029628,1.096591 1.093291,2.132443 0.05437,0.884663 0.01272,1.055114 -0.411178,1.682061 -0.259427,0.3837 -0.436617,0.789026 -0.393758,0.900724 0.146231,0.38107 -0.3071,1.371765 -0.94377,2.062468 l -0.635632,0.689578 0.524154,0.540789 0.524154,0.540788 1.005906,-0.940976 c 0.709375,-0.663581 1.130164,-0.94098 1.427394,-0.94098 0.340265,0 1.175194,0.753714 4.333154,3.911675 2.961492,2.961492 3.911673,4.004698 3.911673,4.294622 0,0.285865 -0.711216,1.094161 -2.805444,3.188389 -2.289278,2.28928 -2.886109,2.805442 -3.243877,2.805442 -0.357665,0 -1.021954,-0.574033 -3.606067,-3.116138 z m 4.336275,-1.49348 -0.744025,-0.755383 -0.75539,0.744029 -0.755385,0.744023 0.744027,0.75539 0.744028,0.755383 0.75539,-0.744025 0.755382,-0.744029 z m -2.094271,-0.678266 0.699057,-0.712285 -0.745096,-0.745093 -0.745096,-0.745096 -0.745095,0.745096 -0.745094,0.745093 0.699056,0.712285 c 0.384482,0.391762 0.740492,0.71229 0.791133,0.71229 0.05064,0 0.406653,-0.320528 0.791135,-0.71229 z m 4.218559,-1.452819 -0.745096,-0.745095 -0.712873,0.699634 -0.712875,0.699634 0.746021,0.757409 0.746022,0.75741 0.711948,-0.711949 0.711949,-0.711948 z m -6.427469,-0.756087 0.699055,-0.712289 -0.745092,-0.745092 -0.745097,-0.745097 -0.745094,0.745097 -0.745095,0.745092 0.699058,0.712289 c 0.38448,0.391759 0.740488,0.712287 0.791131,0.712287 0.05064,0 0.406654,-0.320528 0.791134,-0.712287 z m 4.382709,0.03577 0.663947,-0.676515 -0.755446,-0.744087 -0.75545,-0.744087 -0.697394,0.710592 -0.6974,0.710598 0.696824,0.710006 c 0.383249,0.390502 0.738253,0.710006 0.788895,0.710006 0.05064,0 0.390854,-0.304433 0.756024,-0.676513 z m -2.208577,-2.209248 0.664279,-0.676848 -0.692317,-0.679459 c -0.775516,-0.761113 -0.913218,-0.750014 -1.73736,0.140032 l -0.456814,0.493347 0.686888,0.699891 c 0.37779,0.384939 0.728326,0.69989 0.778967,0.69989 0.05064,0 0.391004,-0.304581 0.756357,-0.676853 z M 26.663352,28.75637 27.33268,28.006917 26.675126,27.336355 c -0.361653,-0.368807 -0.744516,-0.670559 -0.850808,-0.670559 -0.106282,0 -0.457897,0.322961 -0.78135,0.717694 l -0.588096,0.717694 0.689274,0.702317 c 0.379098,0.386277 0.725409,0.702319 0.769576,0.702319 0.04419,0 0.381504,-0.337252 0.74963,-0.74945 z m -2.155631,-2.171745 0.699056,-0.712287 -0.745094,-0.745093 -0.745095,-0.745096 -0.745097,0.745096 -0.745094,0.745093 0.699057,0.712287 c 0.384479,0.391758 0.74049,0.712286 0.791134,0.712286 0.05063,0 0.406653,-0.320528 0.791133,-0.712286 z m 4.38271,0.03577 0.663947,-0.676514 -0.755448,-0.74409 -0.755447,-0.744086 -0.697397,0.710594 -0.697396,0.710595 0.69682,0.710007 c 0.383249,0.390501 0.738254,0.710005 0.788895,0.710005 0.05065,0 0.390853,-0.304433 0.756026,-0.676511 z m -6.548477,-3.617547 -0.744027,-0.755387 -0.755386,0.744027 -0.755388,0.744029 0.744028,0.755387 0.744029,0.755385 0.755386,-0.744029 0.755388,-0.744026 z m 4.339566,1.408638 0.663949,-0.676512 -0.755449,-0.744089 -0.755447,-0.744087 -0.697396,0.710591 -0.697395,0.710597 0.696817,0.710006 c 0.383252,0.390504 0.738256,0.710006 0.788899,0.710006 0.05064,0 0.390853,-0.30443 0.756022,-0.676512 z m -2.215277,-3.53973 -0.745096,-0.745094 -0.712873,0.699633 -0.712876,0.699633 0.746021,0.757412 0.746022,0.757409 0.711947,-0.711948 0.71195,-0.71195 z m -3.984129,27.113129 c -1.238361,-0.324124 -2.062819,-1.095825 -2.445455,-2.288977 -0.2099,-0.654515 -0.120509,-2.090468 0.146775,-2.357754 0.292079,-0.292078 0.602145,0.200642 0.674375,1.071634 0.131463,1.585256 1.377462,2.767299 2.917034,2.767299 0.67994,0 1.174544,0.356974 0.889523,0.641994 -0.212083,0.212084 -1.601967,0.317682 -2.182252,0.165804 z m 9.255698,-2.068836 c -1.236826,-0.444957 -3.654537,-1.901789 -3.654537,-2.202095 0,-0.07404 0.250875,-0.282638 0.557498,-0.46355 l 0.5575,-0.32893 1.13863,0.779372 c 1.385715,0.948501 1.750544,1.038979 1.81851,0.450982 0.09963,-0.861918 -1.027595,-2.599866 -3.031829,-4.674449 -1.617469,-1.674242 -3.119078,-2.842686 -4.416692,-3.436754 -0.717944,-0.328685 -0.941469,-0.372078 -1.126346,-0.218642 -0.126855,0.105281 -0.230647,0.250983 -0.230647,0.323786 0,0.0728 0.380382,0.690986 0.84529,1.373751 l 0.845292,1.24139 -0.350042,0.68614 -0.350038,0.686137 -0.569748,-0.777531 c -0.986979,-1.346935 -1.885157,-3.277942 -1.963367,-4.221083 -0.0678,-0.817341 -0.04896,-0.868483 0.459854,-1.248733 0.79013,-0.590496 1.648352,-0.818348 3.055,-0.811081 1.423447,0.0074 2.671362,0.324721 4.094011,1.041175 3.288768,1.656246 5.469095,5.084778 5.496609,8.643337 0.01034,1.332913 -0.220624,2.205936 -0.782544,2.958361 -0.460929,0.617201 -1.084567,0.668927 -2.392404,0.198417 z m -8.49641,-1.145089 c -0.447908,-0.494919 -0.542883,-1.026651 -0.291038,-1.629398 0.270813,-0.64815 0.724975,-0.894541 1.527142,-0.828509 l 0.628944,0.05177 0.90714,-1.498903 c 1.074006,-1.774617 1.335172,-1.898856 2.157887,-1.026521 0.298605,0.316609 0.542916,0.706949 0.542916,0.86742 0,0.19723 -0.503877,0.612103 -1.555095,1.280411 l -1.555096,0.988645 0.07536,0.668599 c 0.06362,0.564427 0.01203,0.731924 -0.331081,1.075043 -0.547731,0.547729 -1.633934,0.574247 -2.10708,0.05144 z"
     id="path1880-7" />
  <path
     style="fill:#4d4d4d;fill-opacity:1;stroke-width:0.157779"
     d="m 18.891672,48.032619 c -1.095149,-0.394413 -1.577113,-0.735686 -2.21055,-1.565267 -0.667502,-0.874206 -1.011275,-1.989499 -1.011275,-3.280864 0,-1.208309 0.211451,-1.839102 0.592132,-1.766444 0.227434,0.04342 0.291887,0.286925 0.368452,1.39205 0.104863,1.513559 0.334913,2.065795 1.294061,3.10635 0.933539,1.012765 1.674614,1.342334 3.267627,1.453147 1.210006,0.08418 1.345782,0.12592 1.388744,0.426949 0.03764,0.26378 -0.05734,0.354634 -0.453616,0.433893 -0.922592,0.184518 -2.426261,0.09165 -3.235575,-0.199814 z m 19.783084,-4.86721 c -3.688516,-3.628553 -4.733349,-4.812435 -4.596518,-5.20825 0.05219,-0.151014 0.634045,-0.825073 1.29297,-1.497904 l 1.198051,-1.223324 -0.54906,-0.543827 -0.549061,-0.543823 -1.19915,1.147246 -1.199149,1.147247 -0.531368,-1.09308 c -0.862576,-1.774403 -2.157903,-3.02907 -4.152188,-4.021845 l -0.899474,-0.447771 0.966539,-0.921922 0.966541,-0.921922 -0.564382,-0.564382 -0.564387,-0.564384 -0.991331,0.98252 c -0.753767,0.747067 -1.100025,0.982524 -1.444879,0.982524 -0.381692,0 -1.062171,-0.607363 -4.295239,-3.833716 -3.304817,-3.297954 -3.841692,-3.89961 -3.841692,-4.305226 0,-0.401252 0.418806,-0.88798 2.810528,-3.266351 2.096334,-2.084631 2.908034,-2.794839 3.19423,-2.794839 0.555072,0 8.195688,7.658557 8.19465,8.213884 -4.86e-4,0.26467 -0.37536,0.774131 -1.198792,1.629242 l -1.198072,1.244156 0.561124,0.561127 0.561126,0.561123 0.940556,-0.897139 c 0.999506,-0.953371 1.483949,-1.214521 2.252959,-1.214521 0.262691,0 0.657842,-0.141762 0.878113,-0.315026 0.876273,-0.689279 2.284497,-0.707318 3.177355,-0.0407 0.757281,0.565389 1.029628,1.096591 1.093291,2.132443 0.05437,0.884663 0.01272,1.055114 -0.411178,1.682061 -0.259427,0.3837 -0.436617,0.789026 -0.393758,0.900724 0.146231,0.38107 -0.3071,1.371765 -0.94377,2.062468 l -0.635632,0.689578 0.524154,0.540789 0.524154,0.540788 1.005906,-0.940976 c 0.709375,-0.663581 1.130164,-0.94098 1.427394,-0.94098 0.340265,0 1.175194,0.753714 4.333154,3.911675 2.961492,2.961492 3.911673,4.004698 3.911673,4.294622 0,0.285865 -0.711216,1.094161 -2.805444,3.188389 -2.289278,2.28928 -2.886109,2.805442 -3.243877,2.805442 -0.357665,0 -1.021954,-0.574033 -3.606067,-3.116138 z m 4.336275,-1.49348 -0.744025,-0.755383 -0.75539,0.744029 -0.755385,0.744023 0.744027,0.75539 0.744028,0.755383 0.75539,-0.744025 0.755382,-0.744029 z m -2.094271,-0.678266 0.699057,-0.712285 -0.745096,-0.745093 -0.745096,-0.745096 -0.745095,0.745096 -0.745094,0.745093 0.699056,0.712285 c 0.384482,0.391762 0.740492,0.71229 0.791133,0.71229 0.05064,0 0.406653,-0.320528 0.791135,-0.71229 z m 4.218559,-1.452819 -0.745096,-0.745095 -0.712873,0.699634 -0.712875,0.699634 0.746021,0.757409 0.746022,0.75741 0.711948,-0.711949 0.711949,-0.711948 z m -6.427469,-0.756087 0.699055,-0.712289 -0.745092,-0.745092 -0.745097,-0.745097 -0.745094,0.745097 -0.745095,0.745092 0.699058,0.712289 c 0.38448,0.391759 0.740488,0.712287 0.791131,0.712287 0.05064,0 0.406654,-0.320528 0.791134,-0.712287 z m 4.382709,0.03577 0.663947,-0.676515 -0.755446,-0.744087 -0.75545,-0.744087 -0.697394,0.710592 -0.6974,0.710598 0.696824,0.710006 c 0.383249,0.390502 0.738253,0.710006 0.788895,0.710006 0.05064,0 0.390854,-0.304433 0.756024,-0.676513 z m -2.208577,-2.209248 0.664279,-0.676848 -0.692317,-0.679459 c -0.775516,-0.761113 -0.913218,-0.750014 -1.73736,0.140032 l -0.456814,0.493347 0.686888,0.699891 c 0.37779,0.384939 0.728326,0.69989 0.778967,0.69989 0.05064,0 0.391004,-0.304581 0.756357,-0.676853 z M 26.663352,26.75637 27.33268,26.006917 26.675126,25.336355 c -0.361653,-0.368807 -0.744516,-0.670559 -0.850808,-0.670559 -0.106282,0 -0.457897,0.322961 -0.78135,0.717694 l -0.588096,0.717694 0.689274,0.702317 c 0.379098,0.386277 0.725409,0.702319 0.769576,0.702319 0.04419,0 0.381504,-0.337252 0.74963,-0.74945 z m -2.155631,-2.171745 0.699056,-0.712287 -0.745094,-0.745093 -0.745095,-0.745096 -0.745097,0.745096 -0.745094,0.745093 0.699057,0.712287 c 0.384479,0.391758 0.74049,0.712286 0.791134,0.712286 0.05063,0 0.406653,-0.320528 0.791133,-0.712286 z m 4.38271,0.03577 0.663947,-0.676514 -0.755448,-0.74409 -0.755447,-0.744086 -0.697397,0.710594 -0.697396,0.710595 0.69682,0.710007 c 0.383249,0.390501 0.738254,0.710005 0.788895,0.710005 0.05065,0 0.390853,-0.304433 0.756026,-0.676511 z m -6.548477,-3.617547 -0.744027,-0.755387 -0.755386,0.744027 -0.755388,0.744029 0.744028,0.755387 0.744029,0.755385 0.755386,-0.744029 0.755388,-0.744026 z m 4.339566,1.408638 0.663949,-0.676512 -0.755449,-0.744089 -0.755447,-0.744087 -0.697396,0.710591 -0.697395,0.710597 0.696817,0.710006 c 0.383252,0.390504 0.738256,0.710006 0.788899,0.710006 0.05064,0 0.390853,-0.30443 0.756022,-0.676512 z m -2.215277,-3.53973 -0.745096,-0.745094 -0.712873,0.699633 -0.712876,0.699633 0.746021,0.757412 0.746022,0.757409 0.711947,-0.711948 0.71195,-0.71195 z m -3.984129,27.113129 c -1.238361,-0.324124 -2.062819,-1.095825 -2.445455,-2.288977 -0.2099,-0.654515 -0.120509,-2.090468 0.146775,-2.357754 0.292079,-0.292078 0.602145,0.200642 0.674375,1.071634 0.131463,1.585256 1.377462,2.767299 2.917034,2.767299 0.67994,0 1.174544,0.356974 0.889523,0.641994 -0.212083,0.212084 -1.601967,0.317682 -2.182252,0.165804 z m 9.255698,-2.068836 c -1.236826,-0.444957 -3.654537,-1.901789 -3.654537,-2.202095 0,-0.07404 0.250875,-0.282638 0.557498,-0.46355 l 0.5575,-0.32893 1.13863,0.779372 c 1.385715,0.948501 1.750544,1.038979 1.81851,0.450982 0.09963,-0.861918 -1.027595,-2.599866 -3.031829,-4.674449 -1.617469,-1.674242 -3.119078,-2.842686 -4.416692,-3.436754 -0.717944,-0.328685 -0.941469,-0.372078 -1.126346,-0.218642 -0.126855,0.105281 -0.230647,0.250983 -0.230647,0.323786 0,0.0728 0.380382,0.690986 0.84529,1.373751 l 0.845292,1.24139 -0.350042,0.68614 -0.350038,0.686137 -0.569748,-0.777531 c -0.986979,-1.346935 -1.885157,-3.277942 -1.963367,-4.221083 -0.0678,-0.817341 -0.04896,-0.868483 0.459854,-1.248733 0.79013,-0.590496 1.648352,-0.818348 3.055,-0.811081 1.423447,0.0074 2.671362,0.324721 4.094011,1.041175 3.288768,1.656246 5.469095,5.084778 5.496609,8.643337 0.01034,1.332913 -0.220624,2.205936 -0.782544,2.958361 -0.460929,0.617201 -1.084567,0.668927 -2.392404,0.198417 z m -8.49641,-1.145089 c -0.447908,-0.494919 -0.542883,-1.026651 -0.291038,-1.629398 0.270813,-0.64815 0.724975,-0.894541 1.527142,-0.828509 l 0.628944,0.05177 0.90714,-1.498903 c 1.074006,-1.774617 1.335172,-1.898856 2.157887,-1.026521 0.298605,0.316609 0.542916,0.706949 0.542916,0.86742 0,0.19723 -0.503877,0.612103 -1.555095,1.280411 l -1.555096,0.988645 0.07536,0.668599 c 0.06362,0.564427 0.01203,0.731924 -0.331081,1.075043 -0.547731,0.547729 -1.633934,0.574247 -2.10708,0.05144 z"
     id="path1880" />
</svg>
