<?xml version="1.0" encoding="UTF-8" standalone="no"?>
<svg
   width="64"
   height="64"
   version="1.1"
   id="svg73"
   sodipodi:docname="abcd.svg"
   inkscape:version="1.4.2 (ebf0e940d0, 2025-05-08)"
   xmlns:inkscape="http://www.inkscape.org/namespaces/inkscape"
   xmlns:sodipodi="http://sodipodi.sourceforge.net/DTD/sodipodi-0.dtd"
   xmlns:xlink="http://www.w3.org/1999/xlink"
   xmlns="http://www.w3.org/2000/svg"
   xmlns:svg="http://www.w3.org/2000/svg"
   xmlns:rdf="http://www.w3.org/1999/02/22-rdf-syntax-ns#"
   xmlns:cc="http://creativecommons.org/ns#"
   xmlns:dc="http://purl.org/dc/elements/1.1/">
  <metadata
     id="metadata77">
    <rdf:RDF>
      <cc:Work
         rdf:about="">
        <dc:format>image/svg+xml</dc:format>
        <dc:type
           rdf:resource="http://purl.org/dc/dcmitype/StillImage" />
      </cc:Work>
    </rdf:RDF>
  </metadata>
  <sodipodi:namedview
     pagecolor="#f5f7fa"
     bordercolor="#666666"
     borderopacity="1"
     objecttolerance="10"
     gridtolerance="10"
     guidetolerance="10"
     inkscape:pageopacity="0"
     inkscape:pageshadow="2"
     inkscape:window-width="1345"
     inkscape:window-height="785"
     id="namedview75"
     showgrid="false"
     inkscape:zoom="6.2890624"
     inkscape:cx="31.880746"
     inkscape:cy="29.734162"
     inkscape:window-x="24"
     inkscape:window-y="21"
     inkscape:window-maximized="0"
     inkscape:current-layer="svg73"
     inkscape:document-rotation="0"
     inkscape:pagecheckerboard="0"
     inkscape:showpageshadow="2"
     inkscape:deskcolor="#d1d1d1" />
  <defs
     id="defs29">
    <linearGradient
       id="linearGradient4"
       inkscape:collect="always">
      <stop
         style="stop-color:#5ea9ac;stop-opacity:1;"
         offset="0"
         id="stop4" />
      <stop
         style="stop-color:#81bfc1;stop-opacity:1;"
         offset="0.5"
         id="stop1" />
    </linearGradient>
    <linearGradient
       id="linearGradient2"
       inkscape:collect="always">
      <stop
         style="stop-color:#ecf4f4;stop-opacity:1;"
         offset="0"
         id="stop2" />
      <stop
         style="stop-color:#d8e8e9;stop-opacity:1;"
         offset="1"
         id="stop3" />
    </linearGradient>
    <linearGradient
       inkscape:collect="always"
       xlink:href="#linearGradient2"
       id="linearGradient8"
       x1="31.721739"
       y1="5.2278585"
       x2="31.88887"
       y2="59.145416"
       gradientUnits="userSpaceOnUse"
       gradientTransform="matrix(0.8505,0,0,0.8505,4.7765033,4.7794869)" />
    <filter
       style="color-interpolation-filters:sRGB;"
       inkscape:label="Blur"
       id="filter9"
       x="-0.047762285"
       y="-0.047489063"
       width="1.0955246"
       height="1.0949781">
      <feGaussianBlur
         stdDeviation="1 1"
         result="blur"
         id="feGaussianBlur9" />
    </filter>
    <linearGradient
       inkscape:collect="always"
       xlink:href="#linearGradient4"
       id="linearGradient7"
       x1="26.723248"
       y1="58.711765"
       x2="25.756926"
       y2="5.950614"
       gradientUnits="userSpaceOnUse" />
    <filter
       style="color-interpolation-filters:sRGB;"
       inkscape:label="Out of Focus"
       id="filter40"
       x="-0.24226652"
       y="-0.2858297"
       width="1.484533"
       height="1.5716594">
      <feFlood
         flood-opacity="1"
         flood-color="rgb(255,255,255)"
         result="flood"
         id="feFlood38" />
      <feColorMatrix
         in="SourceGraphic"
         values="1 0 0 0 0 0 1 0 0 0 0 0 1 0 0 -0.2125 -0.7154 -0.0721 1 0 "
         result="colormatrix1"
         id="feColorMatrix38" />
      <feGaussianBlur
         in="colormatrix1"
         stdDeviation="3 3"
         result="blur"
         id="feGaussianBlur38" />
      <feColorMatrix
         in="blur"
         values="1 0 0 0 0 0 1 0 0 0 0 0 1 0 0 0 0 0 6 -2 "
         result="colormatrix2"
         id="feColorMatrix39" />
      <feBlend
         in="colormatrix2"
         in2="flood"
         mode="normal"
         result="blend"
         id="feBlend39" />
      <feComposite
         in="blend"
         in2="blend"
         operator="arithmetic"
         k2="0.2"
         result="composite1"
         id="feComposite39" />
      <feComposite
         in2="SourceGraphic"
         operator="in"
         id="feComposite40" />
    </filter>
  </defs>
  <g
     id="g877"
     transform="matrix(1.1,0,0,1.1,-3.1845928,-3.2065454)">
    <ellipse
       style="opacity:0.5;fill:#000000;stroke:none;stroke-width:3.89319;stroke-dasharray:none;stroke-opacity:1;filter:url(#filter9)"
       id="path2-5"
       cx="31.949858"
       cy="31.969812"
       rx="25.124426"
       ry="25.268976"
       transform="matrix(1.05,0,0,1.05,-1.5974929,-1.5984906)" />
    <path
       style="fill:#f5f7fa;stroke-width:0.204426;fill-opacity:1"
       d=""
       id="path3" />
    <circle
       style="opacity:1;fill:url(#linearGradient8);stroke:url(#linearGradient7);stroke-width:3.81818;stroke-dasharray:none;stroke-opacity:1"
       id="path2"
       cx="31.949856"
       cy="31.969812"
       r="24.711082" />
    <ellipse
       style="opacity:0.3;fill:none;stroke:#000000;stroke-width:0.974376;stroke-dasharray:none;stroke-opacity:1"
       id="path2-9"
       cx="31.949856"
       cy="31.969812"
       rx="23.129124"
       ry="23.129126" />
  </g>
  <path
     style="fill:#000000;fill-opacity:1;stroke:none;stroke-width:0.525427;stroke-dasharray:none;stroke-opacity:0.6;opacity:0.2"
     d="m 39.842229,17.98877 c -3.1e-5,0 -1.040364,0.132705 -1.798917,0.276499 -1.783773,0.234016 -3.495482,0.445428 -5.125185,0.515155 h -4.682448 -3.326267 c -0.203204,-0.03015 -0.351117,-0.06586 -0.870655,-0.06586 -0.294622,8.5e-5 -0.589198,0.0221 -0.880533,0.06586 -0.838047,0.125472 -1.900333,0.236697 -3.405265,1.252494 -1.504856,1.015864 -2.92139,3.652349 -2.92139,5.492208 0.06536,1.267069 0.372223,2.377767 0.605671,3.197887 0.101277,0.700146 0.203158,1.400007 0.304485,2.088585 0.01206,0.08202 0.02565,0.1638 0.04114,0.24523 0.195811,1.028314 0.381692,1.931262 0.941431,3.127117 0.279865,0.597934 0.640737,1.311021 1.504305,2.154425 0.805404,0.786593 2.365782,1.630332 4.09982,1.74954 -0.560611,0.469956 -1.077848,0.976301 -1.385806,1.435187 -0.01668,0.0251 -0.03302,0.05029 -0.04936,0.07575 -1.117329,1.721658 -1.163842,5.561278 0.121792,7.389874 0.710956,1.011203 2.460154,2.319516 3.844712,2.705776 1.384548,0.386239 2.308933,0.330727 3.2127,0.283037 l 0.0066,-0.0017 c 1.102761,-0.05918 2.047963,-0.148399 2.960891,-0.251755 0.404277,-0.01241 0.697208,1.24e-4 0.799882,0.0097 0.01702,0.0018 0.03397,0.0038 0.05102,0.0046 0.468202,0.04053 0.914506,0.08697 1.6475,0.04281 0.732991,-0.04413 1.716904,-0.298641 2.116564,-0.444381 0.06707,-0.02445 0.132993,-0.05037 0.199172,-0.07736 2.03442,-0.82674 4.394429,-4.017422 4.394429,-6.456672 0,-1.458397 -0.586015,-3.892408 -2.534619,-5.451067 -0.283302,-0.226609 -0.572787,-0.360334 -0.860779,-0.526672 -6.58e-4,-0.189663 -0.0025,-0.35181 -0.0034,-0.53161 0.345528,0.05279 0.79748,0.250176 1.071453,0.250176 1.098703,0 2.628594,-0.09582 4.340107,-1.334785 1.711518,-1.238969 2.728824,-3.768313 2.728824,-5.396749 0,-0.822376 -0.04418,-1.154513 -0.148165,-1.848292 0.06282,-0.499047 0.130751,-0.980432 0.22054,-1.352889 l -0.01241,0.05431 C 47.550703,24.668519 46.41978,20.928185 44.43891,19.460141 43.107275,18.492795 41.344831,17.999246 39.842039,17.988749 Z m 0.007,3.370704 c 0.865881,0.0021 1.814506,0.275405 2.551072,0.811407 1.048022,0.754389 1.604867,2.566853 1.32491,3.683416 l 0.007,-0.02308 c -0.146289,0.607803 -0.262268,1.292464 -0.342357,2.047441 0.0025,-0.0017 0.0044,0.08796 0.03281,0.241941 0.0044,0.02238 0.0081,0.04496 0.01146,0.06748 0.107283,0.679314 0.131756,1.121989 0.131756,1.631041 0,0.857014 -0.48785,2.060813 -1.329853,2.671218 -0.841995,0.610397 -1.662647,0.689611 -2.351922,0.689611 -0.965025,0 -2.463777,-0.424207 -3.186369,-1.69852 -0.194868,-0.344184 -0.305506,-0.729231 -0.324236,-1.124116 -0.02174,-0.453477 0.0052,-1.088346 0.02308,-1.686999 -0.313299,0.01873 -0.61358,0.03861 -0.920031,0.05928 -0.0037,0.05338 -0.0091,0.106612 -0.01651,0.159655 -0.05905,0.434435 -0.107503,1.321288 -0.110272,2.514861 0.05697,0.584886 0.05851,1.183013 0.07406,2.271276 0.01735,1.214831 0.02628,2.874397 0.02628,4.990223 v 0.623796 c 0.680299,0.01675 1.417657,0.140629 2.113273,0.69784 0.956464,0.766163 1.267313,1.97285 1.267313,2.824277 0,1.314657 -1.143166,2.870039 -2.284451,3.334504 -0.02834,0.01145 -0.05679,0.02277 -0.08559,0.03281 -0.254801,0.09308 -0.745035,0.220305 -1.15868,0.245257 -0.413646,0.02479 -0.735828,-0.0023 -1.148806,-0.03766 -0.0072,-5.9e-4 -0.01427,-9.9e-4 -0.0214,-0.0018 -0.302805,-0.02846 -0.732329,-0.04013 -1.260723,-0.02143 -0.876501,0.106051 -1.849298,0.191669 -2.998742,0.253493 h -0.0016 c -0.734686,0.03893 -1.363066,0.05017 -2.119858,-0.161293 -0.756928,-0.211429 -1.600153,-0.850516 -1.981742,-1.394046 -0.653311,-0.93057 -0.633947,-2.727193 -0.05268,-3.62416 0.007,-0.01067 0.0142,-0.02111 0.02137,-0.03147 0.383061,-0.571597 1.153383,-1.222844 1.930586,-1.502664 0.303562,-0.109274 0.606277,-0.07907 0.900281,-0.128438 0.0044,-0.09954 0.0026,-0.222147 0.0083,-0.31763 -1e-6,-0.0023 -1e-6,-0.0046 0,-0.007 0.05953,-1.018584 0.06467,-2.596627 -0.0017,-4.652928 -5.9e-4,-0.0023 -9.9e-4,-0.0044 -0.0016,-0.0066 -0.06398,-2.156663 0.0149,-3.983586 0.07406,-5.855939 -0.275652,-0.0045 -0.457743,0.0034 -0.76861,-0.0048 0.06556,0.575999 0.206522,1.4332 0.228775,1.866399 0.0054,0.109175 0.0023,0.218576 -0.0066,0.327518 l -0.06632,0.84822 c -0.0607,0.864617 -0.752417,1.954575 -1.499373,2.379902 -0.746957,0.425333 -1.351387,0.452608 -1.872978,0.452608 -0.869,0 -1.654419,-0.450773 -2.080358,-0.86736 -0.425936,-0.416592 -0.63519,-0.803755 -0.806469,-1.170205 -0.342551,-0.732897 -0.515475,-1.450972 -0.683027,-2.332171 -0.0068,-0.03496 -0.01281,-0.07009 -0.01812,-0.105347 -0.135712,-0.923566 -0.270876,-1.858261 -0.406523,-2.802888 -0.0044,0.0048 -0.0135,0.0083 -0.01323,0.01477 -0.0091,-0.04314 -0.02097,-0.08949 -0.0428,-0.139891 -0.02394,-0.05516 -0.04581,-0.111177 -0.0658,-0.167883 -0.180493,-0.514585 -0.343822,-0.929985 -0.343822,-1.703403 0,-0.941514 0.668645,-2.18432 1.435187,-2.702487 0.766572,-0.51817 1.402808,-0.618879 2.00629,-0.709363 0.125003,-0.01873 0.25214,-0.02806 0.378543,-0.02793 0.327966,0 0.468174,0.02605 0.67645,0.05431 0.05702,0.0079 0.101211,0.01034 0.123438,0.01155 h 3.39209 4.781201 c 1.889105,-0.07891 3.773766,-0.31653 5.661736,-0.566198 0.582086,-0.119866 0.732729,-0.182733 1.191591,-0.230416 z m 0,2.528029 c -0.0569,6.92e-4 -0.115339,0.0045 -0.174419,0.0099 -0.27004,0.06424 -0.470657,0.126685 -0.60568,0.190919 -1.935508,0.256944 -3.938986,0.513449 -6.009256,0.599094 h -4.861987 -3.510601 c -0.06751,0 -0.178229,-0.01312 -0.335753,-0.03451 -0.157521,-0.02137 -0.269896,-0.03134 -0.337401,-0.03134 -0.855104,0.128473 -1.283756,0.376517 -1.283756,0.911807 0,0.192705 0.06577,0.481951 0.200794,0.867362 0.157524,0.363999 0.238647,0.620379 0.238647,0.77026 0.135024,0.942115 0.269864,1.873953 0.404878,2.794658 0.292541,1.541642 0.652125,2.314067 1.079682,2.314067 0.540071,0 0.821817,-0.161061 0.844321,-0.482236 l 0.06739,-0.867382 c -0.04499,-0.87788 -0.226442,-2.343839 -0.541484,-4.39936 1.282671,-0.08565 1.970597,-0.130025 2.060605,-0.130025 1.912755,0.06424 3.301827,0.07409 3.999422,0.03133 l 0.102036,0.09875 c -0.157521,2.419519 -0.192049,5.149293 -0.102036,8.189756 0.0675,2.098346 0.0675,3.723718 0,4.879955 -0.02247,0.406821 -0.03455,0.878492 -0.03455,1.413782 0.02246,0.171308 0.03455,0.352048 0.03455,0.54478 0,0.363983 -0.433106,0.548069 -1.130701,0.548069 -1.327671,0 -1.811396,0.236649 -2.126438,0.707717 -0.18002,0.278412 -0.18002,0.544586 0,0.80153 0.270039,0.385429 0.674276,0.54647 1.889438,0.482234 1.192656,-0.06417 2.207276,-0.149673 3.039887,-0.256811 0.607578,-0.02143 1.134898,-0.01145 1.584954,0.03114 0.742599,0.06419 0.923746,0.0429 1.216285,-0.06419 0.472562,-0.192673 0.707718,-0.52304 0.707718,-0.994098 0,-0.792237 -0.427007,-1.13736 -1.282119,-1.030302 h -1.922333 c -0.11252,-0.149816 -0.169515,-0.406248 -0.169515,-0.770244 v -2.345253 c 0,-4.218111 -0.03452,-6.606044 -0.102047,-7.162749 0,-1.306114 0.04496,-2.288897 0.134957,-2.952661 L 32.78975,27.396428 c -0.04498,-0.40682 -0.04498,-0.748658 0,-1.02701 1.845243,-0.171296 3.982066,-0.301131 6.074847,-0.386773 0.045,0.04282 0.0795,0.06587 0.102047,0.06587 0,0.321176 -0.02443,0.963766 -0.06913,1.927291 -0.045,0.813644 -0.05551,1.793636 -0.03281,2.264694 0.157474,0.278355 0.484208,0.414755 0.979276,0.414755 0.765108,0 1.147157,-0.276093 1.147157,-0.8328 0,-0.171298 -0.03499,-0.809445 -0.10208,-1.237681 -0.06753,-0.363998 -0.08995,-0.664752 -0.06744,-0.900281 0.08996,-0.87788 0.224829,-1.69139 0.40488,-2.440799 0.112427,-0.449647 1.45e-4,-0.791485 -0.337384,-1.027012 -0.295392,-0.224813 -0.641422,-0.334004 -1.040179,-0.329178 z"
     id="path4-3" />
  <path
     style="fill:#4d4d4d;fill-opacity:1;stroke:none;stroke-width:0.525427;stroke-dasharray:none;stroke-opacity:0.6"
     d="m 39.842229,15.98877 c -3.1e-5,0 -1.040364,0.132705 -1.798917,0.276499 -1.783773,0.234016 -3.495482,0.445428 -5.125185,0.515155 h -4.682448 -3.326267 c -0.203204,-0.03015 -0.351117,-0.06586 -0.870655,-0.06586 -0.294622,8.5e-5 -0.589198,0.0221 -0.880533,0.06586 -0.838047,0.125472 -1.900333,0.236697 -3.405265,1.252494 -1.504856,1.015864 -2.92139,3.652349 -2.92139,5.492208 0.06536,1.267069 0.372223,2.377767 0.605671,3.197887 0.101277,0.700146 0.203158,1.400007 0.304485,2.088585 0.01206,0.08202 0.02565,0.1638 0.04114,0.24523 0.195811,1.028314 0.381692,1.931262 0.941431,3.127117 0.279865,0.597934 0.640737,1.311021 1.504305,2.154425 0.805404,0.786593 2.365782,1.630332 4.09982,1.74954 -0.560611,0.469956 -1.077848,0.976301 -1.385806,1.435187 -0.01668,0.0251 -0.03302,0.05029 -0.04936,0.07575 -1.117329,1.721658 -1.163842,5.561278 0.121792,7.389874 0.710956,1.011203 2.460154,2.319516 3.844712,2.705776 1.384548,0.386239 2.308933,0.330727 3.2127,0.283037 l 0.0066,-0.0017 c 1.102761,-0.05918 2.047963,-0.148399 2.960891,-0.251755 0.404277,-0.01241 0.697208,1.24e-4 0.799882,0.0097 0.01702,0.0018 0.03397,0.0038 0.05102,0.0046 0.468202,0.04053 0.914506,0.08697 1.6475,0.04281 0.732991,-0.04413 1.716904,-0.298641 2.116564,-0.444381 0.06707,-0.02445 0.132993,-0.05037 0.199172,-0.07736 2.03442,-0.82674 4.394429,-4.017422 4.394429,-6.456672 0,-1.458397 -0.586015,-3.892408 -2.534619,-5.451067 -0.283302,-0.226609 -0.572787,-0.360334 -0.860779,-0.526672 -6.58e-4,-0.189663 -0.0025,-0.35181 -0.0034,-0.53161 0.345528,0.05279 0.79748,0.250176 1.071453,0.250176 1.098703,0 2.628594,-0.09582 4.340107,-1.334785 1.711518,-1.238969 2.728824,-3.768313 2.728824,-5.396749 0,-0.822376 -0.04418,-1.154513 -0.148165,-1.848292 0.06282,-0.499047 0.130751,-0.980432 0.22054,-1.352889 l -0.01241,0.05431 C 47.550703,22.668519 46.41978,18.928185 44.43891,17.460141 43.107275,16.492795 41.344831,15.999246 39.842039,15.988749 Z m 0.007,3.370704 c 0.865881,0.0021 1.814506,0.275405 2.551072,0.811407 1.048022,0.754389 1.604867,2.566853 1.32491,3.683416 l 0.007,-0.02308 c -0.146289,0.607803 -0.262268,1.292464 -0.342357,2.047441 0.0025,-0.0017 0.0044,0.08796 0.03281,0.241941 0.0044,0.02238 0.0081,0.04496 0.01146,0.06748 0.107283,0.679314 0.131756,1.121989 0.131756,1.631041 0,0.857014 -0.48785,2.060813 -1.329853,2.671218 -0.841995,0.610397 -1.662647,0.689611 -2.351922,0.689611 -0.965025,0 -2.463777,-0.424207 -3.186369,-1.69852 -0.194868,-0.344184 -0.305506,-0.729231 -0.324236,-1.124116 -0.02174,-0.453477 0.0052,-1.088346 0.02308,-1.686999 -0.313299,0.01873 -0.61358,0.03861 -0.920031,0.05928 -0.0037,0.05338 -0.0091,0.106612 -0.01651,0.159655 -0.05905,0.434435 -0.107503,1.321288 -0.110272,2.514861 0.05697,0.584886 0.05851,1.183013 0.07406,2.271276 0.01735,1.214831 0.02628,2.874397 0.02628,4.990223 v 0.623796 c 0.680299,0.01675 1.417657,0.140629 2.113273,0.69784 0.956464,0.766163 1.267313,1.97285 1.267313,2.824277 0,1.314657 -1.143166,2.870039 -2.284451,3.334504 -0.02834,0.01145 -0.05679,0.02277 -0.08559,0.03281 -0.254801,0.09308 -0.745035,0.220305 -1.15868,0.245257 -0.413646,0.02479 -0.735828,-0.0023 -1.148806,-0.03766 -0.0072,-5.9e-4 -0.01427,-9.9e-4 -0.0214,-0.0018 -0.302805,-0.02846 -0.732329,-0.04013 -1.260723,-0.02143 -0.876501,0.106051 -1.849298,0.191669 -2.998742,0.253493 h -0.0016 c -0.734686,0.03893 -1.363066,0.05017 -2.119858,-0.161293 -0.756928,-0.211429 -1.600153,-0.850516 -1.981742,-1.394046 -0.653311,-0.93057 -0.633947,-2.727193 -0.05268,-3.62416 0.007,-0.01067 0.0142,-0.02111 0.02137,-0.03147 0.383061,-0.571597 1.153383,-1.222844 1.930586,-1.502664 0.303562,-0.109274 0.606277,-0.07907 0.900281,-0.128438 0.0044,-0.09954 0.0026,-0.222147 0.0083,-0.31763 -1e-6,-0.0023 -1e-6,-0.0046 0,-0.007 0.05953,-1.018584 0.06467,-2.596627 -0.0017,-4.652928 -5.9e-4,-0.0023 -9.9e-4,-0.0044 -0.0016,-0.0066 -0.06398,-2.156663 0.0149,-3.983586 0.07406,-5.855939 -0.275652,-0.0045 -0.457743,0.0034 -0.76861,-0.0048 0.06556,0.575999 0.206522,1.4332 0.228775,1.866399 0.0054,0.109175 0.0023,0.218576 -0.0066,0.327518 l -0.06632,0.84822 c -0.0607,0.864617 -0.752417,1.954575 -1.499373,2.379902 -0.746957,0.425333 -1.351387,0.452608 -1.872978,0.452608 -0.869,0 -1.654419,-0.450773 -2.080358,-0.86736 -0.425936,-0.416592 -0.63519,-0.803755 -0.806469,-1.170205 -0.342551,-0.732897 -0.515475,-1.450972 -0.683027,-2.332171 -0.0068,-0.03496 -0.01281,-0.07009 -0.01812,-0.105347 -0.135712,-0.923566 -0.270876,-1.858261 -0.406523,-2.802888 -0.0044,0.0048 -0.0135,0.0083 -0.01323,0.01477 -0.0091,-0.04314 -0.02097,-0.08949 -0.0428,-0.139891 -0.02394,-0.05516 -0.04581,-0.111177 -0.0658,-0.167883 -0.180493,-0.514585 -0.343822,-0.929985 -0.343822,-1.703403 0,-0.941514 0.668645,-2.18432 1.435187,-2.702487 0.766572,-0.51817 1.402808,-0.618879 2.00629,-0.709363 0.125003,-0.01873 0.25214,-0.02806 0.378543,-0.02793 0.327966,0 0.468174,0.02605 0.67645,0.05431 0.05702,0.0079 0.101211,0.01034 0.123438,0.01155 h 3.39209 4.781201 c 1.889105,-0.07891 3.773766,-0.31653 5.661736,-0.566198 0.582086,-0.119866 0.732729,-0.182733 1.191591,-0.230416 z m 0,2.528029 c -0.0569,6.92e-4 -0.115339,0.0045 -0.174419,0.0099 -0.27004,0.06424 -0.470657,0.126685 -0.60568,0.190919 -1.935508,0.256944 -3.938986,0.513449 -6.009256,0.599094 h -4.861987 -3.510601 c -0.06751,0 -0.178229,-0.01312 -0.335753,-0.03451 -0.157521,-0.02137 -0.269896,-0.03134 -0.337401,-0.03134 -0.855104,0.128473 -1.283756,0.376517 -1.283756,0.911807 0,0.192705 0.06577,0.481951 0.200794,0.867362 0.157524,0.363999 0.238647,0.620379 0.238647,0.77026 0.135024,0.942115 0.269864,1.873953 0.404878,2.794658 0.292541,1.541642 0.652125,2.314067 1.079682,2.314067 0.540071,0 0.821817,-0.161061 0.844321,-0.482236 l 0.06739,-0.867382 c -0.04499,-0.87788 -0.226442,-2.343839 -0.541484,-4.39936 1.282671,-0.08565 1.970597,-0.130025 2.060605,-0.130025 1.912755,0.06424 3.301827,0.07409 3.999422,0.03133 l 0.102036,0.09875 c -0.157521,2.419519 -0.192049,5.149293 -0.102036,8.189756 0.0675,2.098346 0.0675,3.723718 0,4.879955 -0.02247,0.406821 -0.03455,0.878492 -0.03455,1.413782 0.02246,0.171308 0.03455,0.352048 0.03455,0.54478 0,0.363983 -0.433106,0.548069 -1.130701,0.548069 -1.327671,0 -1.811396,0.236649 -2.126438,0.707717 -0.18002,0.278412 -0.18002,0.544586 0,0.80153 0.270039,0.385429 0.674276,0.54647 1.889438,0.482234 1.192656,-0.06417 2.207276,-0.149673 3.039887,-0.256811 0.607578,-0.02143 1.134898,-0.01145 1.584954,0.03114 0.742599,0.06419 0.923746,0.0429 1.216285,-0.06419 0.472562,-0.192673 0.707718,-0.52304 0.707718,-0.994098 0,-0.792237 -0.427007,-1.13736 -1.282119,-1.030302 h -1.922333 c -0.11252,-0.149816 -0.169515,-0.406248 -0.169515,-0.770244 v -2.345253 c 0,-4.218111 -0.03452,-6.606044 -0.102047,-7.162749 0,-1.306114 0.04496,-2.288897 0.134957,-2.952661 L 32.78975,25.396428 c -0.04498,-0.40682 -0.04498,-0.748658 0,-1.02701 1.845243,-0.171296 3.982066,-0.301131 6.074847,-0.386773 0.045,0.04282 0.0795,0.06587 0.102047,0.06587 0,0.321176 -0.02443,0.963766 -0.06913,1.927291 -0.045,0.813644 -0.05551,1.793636 -0.03281,2.264694 0.157474,0.278355 0.484208,0.414755 0.979276,0.414755 0.765108,0 1.147157,-0.276093 1.147157,-0.8328 0,-0.171298 -0.03499,-0.809445 -0.10208,-1.237681 -0.06753,-0.363998 -0.08995,-0.664752 -0.06744,-0.900281 0.08996,-0.87788 0.224829,-1.69139 0.40488,-2.440799 0.112427,-0.449647 1.45e-4,-0.791485 -0.337384,-1.027012 -0.295392,-0.224813 -0.641422,-0.334004 -1.040179,-0.329178 z"
     id="path4" />
</svg>
