<?xml version="1.0" encoding="UTF-8" standalone="no"?>
<svg
   width="64"
   height="64"
   version="1.1"
   id="svg73"
   sodipodi:docname="abcd.svg"
   inkscape:version="1.4.2 (ebf0e940d0, 2025-05-08)"
   xmlns:inkscape="http://www.inkscape.org/namespaces/inkscape"
   xmlns:sodipodi="http://sodipodi.sourceforge.net/DTD/sodipodi-0.dtd"
   xmlns:xlink="http://www.w3.org/1999/xlink"
   xmlns="http://www.w3.org/2000/svg"
   xmlns:svg="http://www.w3.org/2000/svg"
   xmlns:rdf="http://www.w3.org/1999/02/22-rdf-syntax-ns#"
   xmlns:cc="http://creativecommons.org/ns#"
   xmlns:dc="http://purl.org/dc/elements/1.1/">
  <metadata
     id="metadata77">
    <rdf:RDF>
      <cc:Work
         rdf:about="">
        <dc:format>image/svg+xml</dc:format>
        <dc:type
           rdf:resource="http://purl.org/dc/dcmitype/StillImage" />
      </cc:Work>
    </rdf:RDF>
  </metadata>
  <sodipodi:namedview
     pagecolor="#f5f7fa"
     bordercolor="#666666"
     borderopacity="1"
     objecttolerance="10"
     gridtolerance="10"
     guidetolerance="10"
     inkscape:pageopacity="0"
     inkscape:pageshadow="2"
     inkscape:window-width="1024"
     inkscape:window-height="621"
     id="namedview75"
     showgrid="false"
     inkscape:zoom="6.2890624"
     inkscape:cx="34.822361"
     inkscape:cy="29.734162"
     inkscape:window-x="24"
     inkscape:window-y="21"
     inkscape:window-maximized="0"
     inkscape:current-layer="svg73"
     inkscape:document-rotation="0"
     inkscape:pagecheckerboard="0"
     inkscape:showpageshadow="2"
     inkscape:deskcolor="#d1d1d1" />
  <defs
     id="defs29">
    <linearGradient
       id="linearGradient4"
       inkscape:collect="always">
      <stop
         style="stop-color:#5ea9ac;stop-opacity:1;"
         offset="0"
         id="stop4" />
      <stop
         style="stop-color:#81bfc1;stop-opacity:1;"
         offset="0.5"
         id="stop1" />
    </linearGradient>
    <linearGradient
       id="linearGradient2"
       inkscape:collect="always">
      <stop
         style="stop-color:#ecf4f4;stop-opacity:1;"
         offset="0"
         id="stop2" />
      <stop
         style="stop-color:#d8e8e9;stop-opacity:1;"
         offset="1"
         id="stop3" />
    </linearGradient>
    <linearGradient
       inkscape:collect="always"
       xlink:href="#linearGradient2"
       id="linearGradient8"
       x1="31.721739"
       y1="5.2278585"
       x2="31.88887"
       y2="59.145416"
       gradientUnits="userSpaceOnUse"
       gradientTransform="matrix(0.8505,0,0,0.8505,4.7765033,4.7794869)" />
    <filter
       style="color-interpolation-filters:sRGB;"
       inkscape:label="Blur"
       id="filter9"
       x="-0.047762285"
       y="-0.047489063"
       width="1.0955246"
       height="1.0949781">
      <feGaussianBlur
         stdDeviation="1 1"
         result="blur"
         id="feGaussianBlur9" />
    </filter>
    <linearGradient
       inkscape:collect="always"
       xlink:href="#linearGradient4"
       id="linearGradient7"
       x1="26.723248"
       y1="58.711765"
       x2="25.756926"
       y2="5.950614"
       gradientUnits="userSpaceOnUse" />
    <filter
       style="color-interpolation-filters:sRGB;"
       inkscape:label="Out of Focus"
       id="filter40"
       x="-0.24226652"
       y="-0.2858297"
       width="1.484533"
       height="1.5716594">
      <feFlood
         flood-opacity="1"
         flood-color="rgb(255,255,255)"
         result="flood"
         id="feFlood38" />
      <feColorMatrix
         in="SourceGraphic"
         values="1 0 0 0 0 0 1 0 0 0 0 0 1 0 0 -0.2125 -0.7154 -0.0721 1 0 "
         result="colormatrix1"
         id="feColorMatrix38" />
      <feGaussianBlur
         in="colormatrix1"
         stdDeviation="3 3"
         result="blur"
         id="feGaussianBlur38" />
      <feColorMatrix
         in="blur"
         values="1 0 0 0 0 0 1 0 0 0 0 0 1 0 0 0 0 0 6 -2 "
         result="colormatrix2"
         id="feColorMatrix39" />
      <feBlend
         in="colormatrix2"
         in2="flood"
         mode="normal"
         result="blend"
         id="feBlend39" />
      <feComposite
         in="blend"
         in2="blend"
         operator="arithmetic"
         k2="0.2"
         result="composite1"
         id="feComposite39" />
      <feComposite
         in2="SourceGraphic"
         operator="in"
         id="feComposite40" />
    </filter>
  </defs>
  <g
     id="g877"
     transform="matrix(1.1,0,0,1.1,-3.1845928,-3.2065454)">
    <ellipse
       style="opacity:0.5;fill:#000000;stroke:none;stroke-width:3.89319;stroke-dasharray:none;stroke-opacity:1;filter:url(#filter9)"
       id="path2-5"
       cx="31.949858"
       cy="31.969812"
       rx="25.124426"
       ry="25.268976"
       transform="matrix(1.05,0,0,1.05,-1.5974929,-1.5984906)" />
    <path
       style="fill:#f5f7fa;stroke-width:0.204426;fill-opacity:1"
       d=""
       id="path3" />
    <circle
       style="opacity:1;fill:url(#linearGradient8);stroke:url(#linearGradient7);stroke-width:3.81818;stroke-dasharray:none;stroke-opacity:1"
       id="path2"
       cx="31.949856"
       cy="31.969812"
       r="24.711082" />
    <ellipse
       style="opacity:0.3;fill:none;stroke:#000000;stroke-width:0.974376;stroke-dasharray:none;stroke-opacity:1"
       id="path2-9"
       cx="31.949856"
       cy="31.969812"
       rx="23.129124"
       ry="23.129126" />
  </g>
  <path
     id="path5-2"
     style="fill:#000000;fill-opacity:1;stroke:none;stroke-width:0.544501;stroke-dasharray:none;stroke-opacity:0.6;opacity:0.2"
     d="m 30.790583,17.969254 -6.09937,3.385399 c -4.493984,2.494038 -6.249656,3.537473 -6.671325,3.966397 -0.999364,1.016557 -1.003917,1.054586 -0.959667,8.950113 l 0.03845,6.903054 0.408055,0.735859 c 0.223912,0.404725 0.639349,0.905151 0.923496,1.111135 0.523744,0.379656 11.702086,6.641918 12.314034,6.898521 0.182956,0.0767 0.822226,0.125011 1.420849,0.107393 l 1.088528,-0.03198 5.832607,-3.24184 c 3.207854,-1.78297 6.099657,-3.432373 6.427174,-3.664601 0.351356,-0.24917 0.769245,-0.727218 1.018442,-1.167648 L 46.953476,41.1739 V 33.98179 26.790502 L 46.553315,26.065948 C 46.332824,25.667932 45.994657,25.209919 45.801628,25.047504 45.608588,24.885086 42.707969,23.225562 39.356376,21.3603 l -6.093704,-3.391048 h -1.236606 z m -7.516828,6.173972 h 8.223298 8.223297 l 0.454401,0.4544 c 0.249373,0.249361 0.493768,0.616038 0.5437,0.814983 0.231517,0.922449 0.15185,1.032334 -5.86539,8.061658 l -5.778349,6.750457 5.851823,0.03518 5.852948,0.03518 v 1.763341 1.762212 h -8.223294 -8.224427 l -0.453271,-0.453526 c -0.249363,-0.249381 -0.493763,-0.616038 -0.543697,-0.814982 -0.23317,-0.929019 -0.157912,-1.032643 5.865388,-8.066183 l 5.777218,-6.745929 -5.85182,-0.03505 -5.851826,-0.03618 v -1.762212 z" />
  <path
     id="path5"
     style="fill:#4d4d4d;fill-opacity:1;stroke:none;stroke-width:0.544501;stroke-dasharray:none;stroke-opacity:0.6"
     d="m 30.790583,15.969254 -6.09937,3.385399 c -4.493984,2.494038 -6.249656,3.537473 -6.671325,3.966397 -0.999364,1.016557 -1.003917,1.054586 -0.959667,8.950113 l 0.03845,6.903054 0.408055,0.735859 c 0.223912,0.404725 0.639349,0.905151 0.923496,1.111135 0.523744,0.379656 11.702086,6.641918 12.314034,6.898521 0.182956,0.0767 0.822226,0.125011 1.420849,0.107393 l 1.088528,-0.03198 5.832607,-3.24184 c 3.207854,-1.78297 6.099657,-3.432373 6.427174,-3.664601 0.351356,-0.24917 0.769245,-0.727218 1.018442,-1.167648 L 46.953476,39.1739 V 31.98179 24.790502 L 46.553315,24.065948 C 46.332824,23.667932 45.994657,23.209919 45.801628,23.047504 45.608588,22.885086 42.707969,21.225562 39.356376,19.3603 l -6.093704,-3.391048 h -1.236606 z m -7.516828,6.173972 h 8.223298 8.223297 l 0.454401,0.4544 c 0.249373,0.249361 0.493768,0.616038 0.5437,0.814983 0.231517,0.922449 0.15185,1.032334 -5.86539,8.061658 l -5.778349,6.750457 5.851823,0.03518 5.852948,0.03518 v 1.763341 1.762212 h -8.223294 -8.224427 l -0.453271,-0.453526 c -0.249363,-0.249381 -0.493763,-0.616038 -0.543697,-0.814982 -0.23317,-0.929019 -0.157912,-1.032643 5.865388,-8.066183 l 5.777218,-6.745929 -5.85182,-0.03505 -5.851826,-0.03618 v -1.762212 z" />
</svg>
