<?xml version="1.0" encoding="UTF-8" standalone="no"?>
<svg
   width="64"
   height="64"
   version="1.1"
   id="svg73"
   sodipodi:docname="camera-photo.svg"
   inkscape:version="1.4.2 (ebf0e940d0, 2025-05-08)"
   xmlns:inkscape="http://www.inkscape.org/namespaces/inkscape"
   xmlns:sodipodi="http://sodipodi.sourceforge.net/DTD/sodipodi-0.dtd"
   xmlns:xlink="http://www.w3.org/1999/xlink"
   xmlns="http://www.w3.org/2000/svg"
   xmlns:svg="http://www.w3.org/2000/svg"
   xmlns:rdf="http://www.w3.org/1999/02/22-rdf-syntax-ns#"
   xmlns:cc="http://creativecommons.org/ns#"
   xmlns:dc="http://purl.org/dc/elements/1.1/">
  <metadata
     id="metadata77">
    <rdf:RDF>
      <cc:Work
         rdf:about="">
        <dc:format>image/svg+xml</dc:format>
        <dc:type
           rdf:resource="http://purl.org/dc/dcmitype/StillImage" />
      </cc:Work>
    </rdf:RDF>
  </metadata>
  <sodipodi:namedview
     pagecolor="#f5f7fa"
     bordercolor="#666666"
     borderopacity="1"
     objecttolerance="10"
     gridtolerance="10"
     guidetolerance="10"
     inkscape:pageopacity="0"
     inkscape:pageshadow="2"
     inkscape:window-width="1253"
     inkscape:window-height="697"
     id="namedview75"
     showgrid="false"
     inkscape:zoom="6.2890624"
     inkscape:cx="39.354038"
     inkscape:cy="29.575156"
     inkscape:window-x="24"
     inkscape:window-y="21"
     inkscape:window-maximized="0"
     inkscape:current-layer="svg73"
     inkscape:document-rotation="0"
     inkscape:pagecheckerboard="0"
     inkscape:showpageshadow="2"
     inkscape:deskcolor="#d1d1d1" />
  <defs
     id="defs29">
    <linearGradient
       id="linearGradient4"
       inkscape:collect="always">
      <stop
         style="stop-color:#ac5eac;stop-opacity:1;"
         offset="0"
         id="stop4" />
      <stop
         style="stop-color:#c181c1;stop-opacity:1;"
         offset="0.5"
         id="stop1" />
    </linearGradient>
    <linearGradient
       id="linearGradient2"
       inkscape:collect="always">
      <stop
         style="stop-color:#f4ecf4;stop-opacity:1;"
         offset="0"
         id="stop2" />
      <stop
         style="stop-color:#e9d8e9;stop-opacity:1;"
         offset="1"
         id="stop3" />
    </linearGradient>
    <linearGradient
       inkscape:collect="always"
       xlink:href="#linearGradient2"
       id="linearGradient8"
       x1="31.721739"
       y1="5.2278585"
       x2="31.88887"
       y2="59.145416"
       gradientUnits="userSpaceOnUse"
       gradientTransform="matrix(0.8505,0,0,0.8505,4.7765033,4.7794869)" />
    <filter
       style="color-interpolation-filters:sRGB;"
       inkscape:label="Blur"
       id="filter9"
       x="-0.047762285"
       y="-0.047489063"
       width="1.0955246"
       height="1.0949781">
      <feGaussianBlur
         stdDeviation="1 1"
         result="blur"
         id="feGaussianBlur9" />
    </filter>
    <linearGradient
       inkscape:collect="always"
       xlink:href="#linearGradient4"
       id="linearGradient7"
       x1="26.723248"
       y1="58.711765"
       x2="25.756926"
       y2="5.950614"
       gradientUnits="userSpaceOnUse" />
    <filter
       style="color-interpolation-filters:sRGB;"
       inkscape:label="Out of Focus"
       id="filter40"
       x="-0.24226652"
       y="-0.2858297"
       width="1.484533"
       height="1.5716594">
      <feFlood
         flood-opacity="1"
         flood-color="rgb(255,255,255)"
         result="flood"
         id="feFlood38" />
      <feColorMatrix
         in="SourceGraphic"
         values="1 0 0 0 0 0 1 0 0 0 0 0 1 0 0 -0.2125 -0.7154 -0.0721 1 0 "
         result="colormatrix1"
         id="feColorMatrix38" />
      <feGaussianBlur
         in="colormatrix1"
         stdDeviation="3 3"
         result="blur"
         id="feGaussianBlur38" />
      <feColorMatrix
         in="blur"
         values="1 0 0 0 0 0 1 0 0 0 0 0 1 0 0 0 0 0 6 -2 "
         result="colormatrix2"
         id="feColorMatrix39" />
      <feBlend
         in="colormatrix2"
         in2="flood"
         mode="normal"
         result="blend"
         id="feBlend39" />
      <feComposite
         in="blend"
         in2="blend"
         operator="arithmetic"
         k2="0.2"
         result="composite1"
         id="feComposite39" />
      <feComposite
         in2="SourceGraphic"
         operator="in"
         id="feComposite40" />
    </filter>
  </defs>
  <g
     id="g877"
     transform="matrix(1.1,0,0,1.1,-3.1845928,-3.2065454)">
    <ellipse
       style="opacity:0.5;fill:#000000;stroke:none;stroke-width:3.89319;stroke-dasharray:none;stroke-opacity:1;filter:url(#filter9)"
       id="path2-5"
       cx="31.949858"
       cy="31.969812"
       rx="25.124426"
       ry="25.268976"
       transform="matrix(1.05,0,0,1.05,-1.5974929,-1.5984906)" />
    <path
       style="fill:#f5f7fa;stroke-width:0.204426;fill-opacity:1"
       d=""
       id="path3" />
    <circle
       style="opacity:1;fill:url(#linearGradient8);stroke:url(#linearGradient7);stroke-width:3.81818;stroke-dasharray:none;stroke-opacity:1"
       id="path2"
       cx="31.949856"
       cy="31.969812"
       r="24.711082" />
    <ellipse
       style="opacity:0.3;fill:none;stroke:#000000;stroke-width:0.974376;stroke-dasharray:none;stroke-opacity:1"
       id="path2-9"
       cx="31.949856"
       cy="31.969812"
       rx="23.129124"
       ry="23.129126" />
  </g>
  <path
     id="path6189-7"
     style="fill:#000000;fill-opacity:1;stroke-width:0.0709408;opacity:0.2"
     d="m 25.564829,17.236472 c -4.793155,-8.83e-4 -4.884426,0.0267 -5.177386,0.136316 -0.490923,0.183679 -1.056844,0.685796 -1.306879,1.159716 l -0.191135,0.362337 -0.01848,14.98191 c -0.01825,14.873285 -0.01718,14.984191 0.124883,15.363888 0.259444,0.693422 0.876616,1.24202 1.626711,1.445534 0.252612,0.06853 2.800221,0.08499 11.532663,0.07446 l 11.208432,-0.0135 0.401621,-0.197292 c 0.527811,-0.2592 0.951938,-0.680166 1.184045,-1.175255 l 0.187914,-0.401033 V 33.969684 18.965789 L 44.893906,18.517263 C 44.626823,18.024659 44.25836,17.669094 43.759398,17.423214 L 43.434586,17.263445 32.106837,17.24468 c -2.824226,-0.0046 -4.944297,-0.0079 -6.542013,-0.0083 z m 6.31834,2.916585 c 7.267915,-0.01392 9.829113,0.0025 9.976604,0.06332 0.42086,0.173741 0.404552,-0.101233 0.404552,6.822563 0,4.458636 -0.02358,6.408946 -0.07886,6.567518 -0.04399,0.126171 -0.167486,0.271484 -0.280257,0.329802 -0.174599,0.09029 -1.501503,0.103873 -9.905952,0.09997 -5.337503,-0.0025 -9.77309,-0.03222 -9.856703,-0.06596 -0.398984,-0.161014 -0.379927,0.182995 -0.379927,-6.893508 v -6.506833 l 0.171202,-0.199051 0.171202,-0.199051 z m -2.265785,3.798976 c -0.115463,-0.004 -0.269158,0.0617 -0.372304,0.158597 l -0.175601,0.165046 v 2.812808 2.812809 l 0.159478,0.145406 c 0.08779,0.07987 0.207366,0.16088 0.26589,0.180288 0.05852,0.01938 0.217261,-0.0097 0.352662,-0.06479 0.59317,-0.241197 4.844479,-2.613417 4.970419,-2.773523 0.181383,-0.230589 0.176054,-0.391938 -0.02024,-0.617382 -0.213463,-0.245175 -4.927599,-2.810736 -5.180325,-2.81926 z M 37.511131,35.1892 c 1.472634,0.07138 2.437752,1.24338 2.319139,2.816615 -0.07389,0.979852 -0.660844,1.815286 -1.492738,2.124778 -1.64475,0.611896 -3.227681,-0.394391 -3.358955,-2.135623 -0.124074,-1.645767 0.990389,-2.880527 2.532554,-2.80577 z M 26.58647,35.21151 c 0.594928,-5.23e-4 0.721391,0.02311 1.07851,0.198466 0.511683,0.25127 0.994855,0.782049 1.194308,1.312154 0.129367,0.343807 0.147985,0.516307 0.124298,1.149455 -0.02395,0.64041 -0.05522,0.797256 -0.221918,1.119554 -0.359276,0.694687 -0.9654,1.143691 -1.74397,1.291343 -0.425293,0.08065 -0.486887,0.08052 -0.902619,-0.0018 -0.712772,-0.141071 -1.436309,-0.720781 -1.751886,-1.403619 -0.128984,-0.27909 -0.153319,-0.460975 -0.153319,-1.147405 0,-0.793651 0.0067,-0.827968 0.241851,-1.261732 0.27399,-0.50529 0.556618,-0.780235 1.091116,-1.06151 0.327748,-0.172474 0.446367,-0.194646 1.043629,-0.194948 z m 10.926126,7.15588 c 1.205155,0.03633 2.218638,1.007336 2.318551,2.332623 0.08848,1.173662 -0.434986,2.144895 -1.397757,2.593529 -0.569551,0.265405 -1.379491,0.292306 -1.920448,0.06391 -1.066241,-0.450183 -1.627495,-1.422161 -1.534365,-2.657439 0.09046,-1.199954 0.847579,-2.06316 2.007808,-2.289239 0.177891,-0.03466 0.354047,-0.04858 0.526211,-0.04338 z M 26.58647,42.39053 c 0.300969,0.0023 0.664451,0.05342 0.836954,0.117258 0.677864,0.25088 1.233145,0.815677 1.459905,1.484825 0.169788,0.50103 0.154599,1.500801 -0.0305,1.995499 -0.191557,0.511978 -0.681747,1.048624 -1.180235,1.29251 -0.476799,0.233276 -1.37567,0.304883 -1.806708,0.143941 -0.708285,-0.26446 -1.117232,-0.622125 -1.464887,-1.281082 -0.175493,-0.332638 -0.191137,-0.429211 -0.191137,-1.178185 0,-0.959453 0.107338,-1.269033 0.634679,-1.832798 0.468446,-0.500809 1.047212,-0.747417 1.741919,-0.741968 z" />
  <path
     id="path6189"
     style="fill:#4d4d4d;fill-opacity:1;stroke-width:0.0709408"
     d="m 25.564829,15.236472 c -4.793155,-8.83e-4 -4.884426,0.0267 -5.177386,0.136316 -0.490923,0.183679 -1.056844,0.685796 -1.306879,1.159716 l -0.191135,0.362337 -0.01848,14.98191 c -0.01825,14.873285 -0.01718,14.984191 0.124883,15.363888 0.259444,0.693422 0.876616,1.24202 1.626711,1.445534 0.252612,0.06853 2.800221,0.08499 11.532663,0.07446 l 11.208432,-0.0135 0.401621,-0.197292 c 0.527811,-0.2592 0.951938,-0.680166 1.184045,-1.175255 l 0.187914,-0.401033 V 31.969684 16.965789 L 44.893906,16.517263 C 44.626823,16.024659 44.25836,15.669094 43.759398,15.423214 L 43.434586,15.263445 32.106837,15.24468 c -2.824226,-0.0046 -4.944297,-0.0079 -6.542013,-0.0083 z m 6.31834,2.916585 c 7.267915,-0.01392 9.829113,0.0025 9.976604,0.06332 0.42086,0.173741 0.404552,-0.101233 0.404552,6.822563 0,4.458636 -0.02358,6.408946 -0.07886,6.567518 -0.04399,0.126171 -0.167486,0.271484 -0.280257,0.329802 -0.174599,0.09029 -1.501503,0.103873 -9.905952,0.09997 -5.337503,-0.0025 -9.77309,-0.03222 -9.856703,-0.06596 -0.398984,-0.161014 -0.379927,0.182995 -0.379927,-6.893508 v -6.506833 l 0.171202,-0.199051 0.171202,-0.199051 z m -2.265785,3.798976 c -0.115463,-0.004 -0.269158,0.0617 -0.372304,0.158597 l -0.175601,0.165046 v 2.812808 2.812809 l 0.159478,0.145406 c 0.08779,0.07987 0.207366,0.16088 0.26589,0.180288 0.05852,0.01938 0.217261,-0.0097 0.352662,-0.06479 0.59317,-0.241197 4.844479,-2.613417 4.970419,-2.773523 0.181383,-0.230589 0.176054,-0.391938 -0.02024,-0.617382 -0.213463,-0.245175 -4.927599,-2.810736 -5.180325,-2.81926 z M 37.511131,33.1892 c 1.472634,0.07138 2.437752,1.24338 2.319139,2.816615 -0.07389,0.979852 -0.660844,1.815286 -1.492738,2.124778 -1.64475,0.611896 -3.227681,-0.394391 -3.358955,-2.135623 -0.124074,-1.645767 0.990389,-2.880527 2.532554,-2.80577 z M 26.58647,33.21151 c 0.594928,-5.23e-4 0.721391,0.02311 1.07851,0.198466 0.511683,0.25127 0.994855,0.782049 1.194308,1.312154 0.129367,0.343807 0.147985,0.516307 0.124298,1.149455 -0.02395,0.64041 -0.05522,0.797256 -0.221918,1.119554 -0.359276,0.694687 -0.9654,1.143691 -1.74397,1.291343 -0.425293,0.08065 -0.486887,0.08052 -0.902619,-0.0018 -0.712772,-0.141071 -1.436309,-0.720781 -1.751886,-1.403619 -0.128984,-0.27909 -0.153319,-0.460975 -0.153319,-1.147405 0,-0.793651 0.0067,-0.827968 0.241851,-1.261732 0.27399,-0.50529 0.556618,-0.780235 1.091116,-1.06151 0.327748,-0.172474 0.446367,-0.194646 1.043629,-0.194948 z m 10.926126,7.15588 c 1.205155,0.03633 2.218638,1.007336 2.318551,2.332623 0.08848,1.173662 -0.434986,2.144895 -1.397757,2.593529 -0.569551,0.265405 -1.379491,0.292306 -1.920448,0.06391 -1.066241,-0.450183 -1.627495,-1.422161 -1.534365,-2.657439 0.09046,-1.199954 0.847579,-2.06316 2.007808,-2.289239 0.177891,-0.03466 0.354047,-0.04858 0.526211,-0.04338 z M 26.58647,40.39053 c 0.300969,0.0023 0.664451,0.05342 0.836954,0.117258 0.677864,0.25088 1.233145,0.815677 1.459905,1.484825 0.169788,0.50103 0.154599,1.500801 -0.0305,1.995499 -0.191557,0.511978 -0.681747,1.048624 -1.180235,1.29251 -0.476799,0.233276 -1.37567,0.304883 -1.806708,0.143941 -0.708285,-0.26446 -1.117232,-0.622125 -1.464887,-1.281082 -0.175493,-0.332638 -0.191137,-0.429211 -0.191137,-1.178185 0,-0.959453 0.107338,-1.269033 0.634679,-1.832798 0.468446,-0.500809 1.047212,-0.747417 1.741919,-0.741968 z" />
</svg>
