<?xml version="1.0" encoding="UTF-8" standalone="no"?>
<svg
   width="64"
   height="64"
   version="1.1"
   id="svg73"
   sodipodi:docname="camera-photo.svg"
   inkscape:version="1.4.2 (ebf0e940d0, 2025-05-08)"
   xmlns:inkscape="http://www.inkscape.org/namespaces/inkscape"
   xmlns:sodipodi="http://sodipodi.sourceforge.net/DTD/sodipodi-0.dtd"
   xmlns:xlink="http://www.w3.org/1999/xlink"
   xmlns="http://www.w3.org/2000/svg"
   xmlns:svg="http://www.w3.org/2000/svg"
   xmlns:rdf="http://www.w3.org/1999/02/22-rdf-syntax-ns#"
   xmlns:cc="http://creativecommons.org/ns#"
   xmlns:dc="http://purl.org/dc/elements/1.1/">
  <metadata
     id="metadata77">
    <rdf:RDF>
      <cc:Work
         rdf:about="">
        <dc:format>image/svg+xml</dc:format>
        <dc:type
           rdf:resource="http://purl.org/dc/dcmitype/StillImage" />
      </cc:Work>
    </rdf:RDF>
  </metadata>
  <sodipodi:namedview
     pagecolor="#f5f7fa"
     bordercolor="#666666"
     borderopacity="1"
     objecttolerance="10"
     gridtolerance="10"
     guidetolerance="10"
     inkscape:pageopacity="0"
     inkscape:pageshadow="2"
     inkscape:window-width="1253"
     inkscape:window-height="697"
     id="namedview75"
     showgrid="false"
     inkscape:zoom="6.2890624"
     inkscape:cx="39.354038"
     inkscape:cy="29.575156"
     inkscape:window-x="24"
     inkscape:window-y="21"
     inkscape:window-maximized="0"
     inkscape:current-layer="svg73"
     inkscape:document-rotation="0"
     inkscape:pagecheckerboard="0"
     inkscape:showpageshadow="2"
     inkscape:deskcolor="#d1d1d1" />
  <defs
     id="defs29">
    <linearGradient
       id="linearGradient4"
       inkscape:collect="always">
      <stop
         style="stop-color:#ac5eac;stop-opacity:1;"
         offset="0"
         id="stop4" />
      <stop
         style="stop-color:#c181c1;stop-opacity:1;"
         offset="0.5"
         id="stop1" />
    </linearGradient>
    <linearGradient
       id="linearGradient2"
       inkscape:collect="always">
      <stop
         style="stop-color:#f4ecf4;stop-opacity:1;"
         offset="0"
         id="stop2" />
      <stop
         style="stop-color:#e9d8e9;stop-opacity:1;"
         offset="1"
         id="stop3" />
    </linearGradient>
    <linearGradient
       inkscape:collect="always"
       xlink:href="#linearGradient2"
       id="linearGradient8"
       x1="31.721739"
       y1="5.2278585"
       x2="31.88887"
       y2="59.145416"
       gradientUnits="userSpaceOnUse"
       gradientTransform="matrix(0.8505,0,0,0.8505,4.7765033,4.7794869)" />
    <filter
       style="color-interpolation-filters:sRGB;"
       inkscape:label="Blur"
       id="filter9"
       x="-0.047762285"
       y="-0.047489063"
       width="1.0955246"
       height="1.0949781">
      <feGaussianBlur
         stdDeviation="1 1"
         result="blur"
         id="feGaussianBlur9" />
    </filter>
    <linearGradient
       inkscape:collect="always"
       xlink:href="#linearGradient4"
       id="linearGradient7"
       x1="26.723248"
       y1="58.711765"
       x2="25.756926"
       y2="5.950614"
       gradientUnits="userSpaceOnUse" />
    <filter
       style="color-interpolation-filters:sRGB;"
       inkscape:label="Out of Focus"
       id="filter40"
       x="-0.24226652"
       y="-0.2858297"
       width="1.484533"
       height="1.5716594">
      <feFlood
         flood-opacity="1"
         flood-color="rgb(255,255,255)"
         result="flood"
         id="feFlood38" />
      <feColorMatrix
         in="SourceGraphic"
         values="1 0 0 0 0 0 1 0 0 0 0 0 1 0 0 -0.2125 -0.7154 -0.0721 1 0 "
         result="colormatrix1"
         id="feColorMatrix38" />
      <feGaussianBlur
         in="colormatrix1"
         stdDeviation="3 3"
         result="blur"
         id="feGaussianBlur38" />
      <feColorMatrix
         in="blur"
         values="1 0 0 0 0 0 1 0 0 0 0 0 1 0 0 0 0 0 6 -2 "
         result="colormatrix2"
         id="feColorMatrix39" />
      <feBlend
         in="colormatrix2"
         in2="flood"
         mode="normal"
         result="blend"
         id="feBlend39" />
      <feComposite
         in="blend"
         in2="blend"
         operator="arithmetic"
         k2="0.2"
         result="composite1"
         id="feComposite39" />
      <feComposite
         in2="SourceGraphic"
         operator="in"
         id="feComposite40" />
    </filter>
  </defs>
  <g
     id="g877"
     transform="matrix(1.1,0,0,1.1,-3.1845928,-3.2065454)">
    <ellipse
       style="opacity:0.5;fill:#000000;stroke:none;stroke-width:3.89319;stroke-dasharray:none;stroke-opacity:1;filter:url(#filter9)"
       id="path2-5"
       cx="31.949858"
       cy="31.969812"
       rx="25.124426"
       ry="25.268976"
       transform="matrix(1.05,0,0,1.05,-1.5974929,-1.5984906)" />
    <path
       style="fill:#f5f7fa;stroke-width:0.204426;fill-opacity:1"
       d=""
       id="path3" />
    <circle
       style="opacity:1;fill:url(#linearGradient8);stroke:url(#linearGradient7);stroke-width:3.81818;stroke-dasharray:none;stroke-opacity:1"
       id="path2"
       cx="31.949856"
       cy="31.969812"
       r="24.711082" />
    <ellipse
       style="opacity:0.3;fill:none;stroke:#000000;stroke-width:0.974376;stroke-dasharray:none;stroke-opacity:1"
       id="path2-9"
       cx="31.949856"
       cy="31.969812"
       rx="23.129124"
       ry="23.129126" />
  </g>
  <path
     style="fill:#000000;fill-opacity:1;stroke:none;stroke-width:1.00249;stroke-dasharray:none;stroke-opacity:0.3;opacity:0.2"
     d="m 21.172862,49.404404 c -1.657411,-0.19303 -3.047518,-1.404225 -3.525352,-3.071611 -0.101246,-0.35329 -0.113277,-0.977633 -0.133169,-6.91001 l -0.02189,-6.521623 h 14.505983 14.505973 l -0.02126,6.521623 c -0.02421,7.273675 0.0055,6.79479 -0.485415,7.783864 -0.333105,0.671129 -1.093465,1.4315 -1.764582,1.764591 -0.655483,0.325366 -1.109717,0.429662 -2.085381,0.479047 l -0.824161,0.04178 -0.01796,-3.424428 -0.0176,-3.424437 -0.149701,-0.303913 C 40.947106,41.951343 40.55562,41.559829 40.167729,41.368763 l -0.304022,-0.149699 -7.764832,-0.01725 c -8.922143,-0.01944 -8.147125,-0.07176 -8.811532,0.593713 -0.632133,0.633194 -0.609849,0.474088 -0.609849,4.354233 v 3.322112 l -0.534028,-0.0084 c -0.293425,-0.0052 -0.730069,-0.03155 -0.970042,-0.05926 z M 38.81182,37.915938 c 0.313705,-0.213173 0.436532,-0.46235 0.436237,-0.884973 -4.39e-4,-0.636096 -0.39158,-1.022243 -1.035444,-1.022243 -0.643867,0 -1.034999,0.386139 -1.035445,1.022243 -4.39e-4,0.651764 0.391437,1.048655 1.035445,1.048655 0.276664,0 0.413248,-0.03738 0.599218,-0.163696 z m 4.110545,0.03455 c 0.31587,-0.192596 0.468226,-0.487583 0.468226,-0.906583 0,-0.649688 -0.385492,-1.03521 -1.035206,-1.03521 -0.649693,0 -1.035207,0.385522 -1.035207,1.03521 0,0.649687 0.3855,1.035207 1.035207,1.035207 0.241385,0 0.42398,-0.04151 0.566997,-0.128624 z M 23.71292,47.918687 v -1.553543 h 8.285536 8.285543 v 1.553543 1.553542 H 31.998455 23.71292 Z M 17.515964,30.004453 c 0.03748,-2.0724 0.0716,-2.292724 0.483795,-3.123261 0.332902,-0.670749 1.093327,-1.431313 1.764588,-1.764897 0.795263,-0.395217 1.157026,-0.46099 2.556865,-0.464881 1.1381,-0.0035 1.249203,0.007 1.488803,0.135561 0.567271,0.304498 0.829822,0.705177 0.905721,1.382186 0.05888,0.524993 0.175402,0.813164 0.440725,1.089761 0.449702,0.468815 -0.406748,0.427753 9.690148,0.464532 l 9.094668,0.03311 0.3832,0.145195 c 0.544075,0.206138 0.880611,0.417283 1.232487,0.773288 0.625639,0.63298 0.856262,1.233291 0.91808,2.389742 l 0.04261,0.800654 H 32.000117 17.482342 Z m 9.024639,-3.412777 c -0.457538,-0.160318 -0.691571,-0.48517 -0.691571,-0.959944 0,-0.333 0.191677,-0.660282 0.485704,-0.829372 0.106678,-0.06134 2.53884,-0.932609 5.404798,-1.936127 2.865954,-1.00352 6.870131,-2.405565 8.898173,-3.115655 4.029885,-1.411008 3.959921,-1.394317 4.376207,-1.044044 0.515938,0.434134 0.518528,1.199632 0.0052,1.565082 -0.102465,0.07293 -1.362715,0.544274 -2.800591,1.047398 -1.437989,0.503121 -3.721332,1.302086 -5.074208,1.775479 -8.328587,2.914306 -10.049911,3.513092 -10.195071,3.546499 -0.08903,0.02046 -0.27299,-0.0021 -0.408852,-0.04931 z"
     id="path1-3-0" />
  <path
     style="fill:#4d4d4d;fill-opacity:1;stroke:none;stroke-width:1.00249;stroke-dasharray:none;stroke-opacity:0.3"
     d="m 21.172862,47.404404 c -1.657411,-0.19303 -3.047518,-1.404225 -3.525352,-3.071611 -0.101246,-0.35329 -0.113277,-0.977633 -0.133169,-6.91001 l -0.02189,-6.521623 h 14.505983 14.505973 l -0.02126,6.521623 c -0.02421,7.273675 0.0055,6.79479 -0.485415,7.783864 -0.333105,0.671129 -1.093465,1.4315 -1.764582,1.764591 -0.655483,0.325366 -1.109717,0.429662 -2.085381,0.479047 l -0.824161,0.04178 -0.01796,-3.424428 -0.0176,-3.424437 -0.149701,-0.303913 C 40.947106,39.951343 40.55562,39.559829 40.167729,39.368763 l -0.304022,-0.149699 -7.764832,-0.01725 c -8.922143,-0.01944 -8.147125,-0.07176 -8.811532,0.593713 -0.632133,0.633194 -0.609849,0.474088 -0.609849,4.354233 v 3.322112 l -0.534028,-0.0084 c -0.293425,-0.0052 -0.730069,-0.03155 -0.970042,-0.05926 z M 38.81182,35.915938 c 0.313705,-0.213173 0.436532,-0.46235 0.436237,-0.884973 -4.39e-4,-0.636096 -0.39158,-1.022243 -1.035444,-1.022243 -0.643867,0 -1.034999,0.386139 -1.035445,1.022243 -4.39e-4,0.651764 0.391437,1.048655 1.035445,1.048655 0.276664,0 0.413248,-0.03738 0.599218,-0.163696 z m 4.110545,0.03455 c 0.31587,-0.192596 0.468226,-0.487583 0.468226,-0.906583 0,-0.649688 -0.385492,-1.03521 -1.035206,-1.03521 -0.649693,0 -1.035207,0.385522 -1.035207,1.03521 0,0.649687 0.3855,1.035207 1.035207,1.035207 0.241385,0 0.42398,-0.04151 0.566997,-0.128624 z M 23.71292,45.918687 v -1.553543 h 8.285536 8.285543 v 1.553543 1.553542 H 31.998455 23.71292 Z M 17.515964,28.004453 c 0.03748,-2.0724 0.0716,-2.292724 0.483795,-3.123261 0.332902,-0.670749 1.093327,-1.431313 1.764588,-1.764897 0.795263,-0.395217 1.157026,-0.46099 2.556865,-0.464881 1.1381,-0.0035 1.249203,0.007 1.488803,0.135561 0.567271,0.304498 0.829822,0.705177 0.905721,1.382186 0.05888,0.524993 0.175402,0.813164 0.440725,1.089761 0.449702,0.468815 -0.406748,0.427753 9.690148,0.464532 l 9.094668,0.03311 0.3832,0.145195 c 0.544075,0.206138 0.880611,0.417283 1.232487,0.773288 0.625639,0.63298 0.856262,1.233291 0.91808,2.389742 l 0.04261,0.800654 H 32.000117 17.482342 Z m 9.024639,-3.412777 c -0.457538,-0.160318 -0.691571,-0.48517 -0.691571,-0.959944 0,-0.333 0.191677,-0.660282 0.485704,-0.829372 0.106678,-0.06134 2.53884,-0.932609 5.404798,-1.936127 2.865954,-1.00352 6.870131,-2.405565 8.898173,-3.115655 4.029885,-1.411008 3.959921,-1.394317 4.376207,-1.044044 0.515938,0.434134 0.518528,1.199632 0.0052,1.565082 -0.102465,0.07293 -1.362715,0.544274 -2.800591,1.047398 -1.437989,0.503121 -3.721332,1.302086 -5.074208,1.775479 -8.328587,2.914306 -10.049911,3.513092 -10.195071,3.546499 -0.08903,0.02046 -0.27299,-0.0021 -0.408852,-0.04931 z"
     id="path1-3" />
</svg>
