<?xml version="1.0" encoding="UTF-8" standalone="no"?>
<svg
   width="128"
   height="128"
   version="1.1"
   id="svg73"
   sodipodi:docname="abcd.svg"
   inkscape:version="1.4.2 (ebf0e940d0, 2025-05-08)"
   xmlns:inkscape="http://www.inkscape.org/namespaces/inkscape"
   xmlns:sodipodi="http://sodipodi.sourceforge.net/DTD/sodipodi-0.dtd"
   xmlns:xlink="http://www.w3.org/1999/xlink"
   xmlns="http://www.w3.org/2000/svg"
   xmlns:svg="http://www.w3.org/2000/svg"
   xmlns:rdf="http://www.w3.org/1999/02/22-rdf-syntax-ns#"
   xmlns:cc="http://creativecommons.org/ns#"
   xmlns:dc="http://purl.org/dc/elements/1.1/">
  <metadata
     id="metadata77">
    <rdf:RDF>
      <cc:Work
         rdf:about="">
        <dc:format>image/svg+xml</dc:format>
        <dc:type
           rdf:resource="http://purl.org/dc/dcmitype/StillImage" />
      </cc:Work>
    </rdf:RDF>
  </metadata>
  <sodipodi:namedview
     pagecolor="#f5f7fa"
     bordercolor="#666666"
     borderopacity="1"
     objecttolerance="10"
     gridtolerance="10"
     guidetolerance="10"
     inkscape:pageopacity="0"
     inkscape:pageshadow="2"
     inkscape:window-width="1024"
     inkscape:window-height="621"
     id="namedview75"
     showgrid="false"
     inkscape:zoom="2.8284271"
     inkscape:cx="76.01398"
     inkscape:cy="53.740116"
     inkscape:window-x="24"
     inkscape:window-y="21"
     inkscape:window-maximized="0"
     inkscape:current-layer="g877"
     inkscape:document-rotation="0"
     inkscape:pagecheckerboard="0"
     inkscape:showpageshadow="2"
     inkscape:deskcolor="#d1d1d1" />
  <defs
     id="defs29">
    <linearGradient
       id="linearGradient2"
       inkscape:collect="always">
      <stop
         style="stop-color:#ecf4f4;stop-opacity:1;"
         offset="0"
         id="stop2" />
      <stop
         style="stop-color:#d8e8e9;stop-opacity:1;"
         offset="1"
         id="stop3" />
    </linearGradient>
    <linearGradient
       id="linearGradient4"
       inkscape:collect="always">
      <stop
         style="stop-color:#5ea9ac;stop-opacity:1;"
         offset="0"
         id="stop4" />
      <stop
         style="stop-color:#81bfc1;stop-opacity:1;"
         offset="0.5"
         id="stop1" />
    </linearGradient>
    <linearGradient
       inkscape:collect="always"
       xlink:href="#linearGradient4"
       id="linearGradient10"
       x1="9.2140656"
       y1="59.534302"
       x2="9.3084183"
       y2="3.1454122"
       gradientUnits="userSpaceOnUse" />
    <linearGradient
       inkscape:collect="always"
       xlink:href="#linearGradient2"
       id="linearGradient12"
       x1="31.714066"
       y1="8.1454124"
       x2="31.808418"
       y2="56.756523"
       gradientUnits="userSpaceOnUse" />
    <filter
       style="color-interpolation-filters:sRGB;"
       inkscape:label="Blur"
       id="filter19"
       x="-0.2123234"
       y="-0.16677348"
       width="1.4246668"
       height="1.3335247">
      <feGaussianBlur
         stdDeviation="3 3"
         result="blur"
         id="feGaussianBlur19" />
    </filter>
    <linearGradient
       inkscape:collect="always"
       xlink:href="#linearGradient2"
       id="linearGradient1"
       gradientUnits="userSpaceOnUse"
       x1="31.714066"
       y1="8.1454124"
       x2="31.808418"
       y2="56.756523" />
    <linearGradient
       inkscape:collect="always"
       xlink:href="#linearGradient4"
       id="linearGradient3"
       gradientUnits="userSpaceOnUse"
       x1="9.2140656"
       y1="59.534302"
       x2="9.3084183"
       y2="3.1454122" />
  </defs>
  <g
     id="g877"
     transform="matrix(1.1,0,0,1.1,-3.1845928,-3.2065454)">
    <path
       style="fill:#f5f7fa;fill-opacity:1;stroke-width:0.408852"
       d=""
       id="path3" />
    <g
       id="g6019"
       style="fill:#f4e3cf;fill-opacity:1"
       transform="matrix(1.6363636,0,0,1.6363636,8.6240773,-3.6100595)">
      <g
         id="g9-5-8"
         transform="translate(0.01590346,7.50823)"
         style="opacity:0.5;fill:none;fill-opacity:1;stroke:#000000;stroke-width:3.33333;stroke-dasharray:none;stroke-opacity:1;filter:url(#filter19)">
        <path
           style="fill:none;stroke:#000000;stroke-width:3.33333;stroke-dasharray:none;stroke-opacity:1"
           d="m 13.343599,58.563313 c -0.509985,-0.08683 -1.224187,-0.470908 -1.51513,-0.814789 -0.122413,-0.144688 -0.323232,-0.476818 -0.446265,-0.738068 l -0.223696,-0.475 V 32.051364 7.5672726 l 0.223696,-0.4750002 c 0.324078,-0.6881544 0.619931,-0.994428 1.269542,-1.3142592 l 0.575755,-0.2834685 11.272322,-0.023076 13.494544,-0.023076 7.462164,7.4638153 7.462164,7.463814 -0.02327,19.192675 -0.02327,16.970452 -0.283469,0.57578 c -0.319827,0.649631 -0.626095,0.94548 -1.314258,1.269565 l -0.475,0.223696 -18.525002,0.01214 c -10.18875,0.0067 -18.707617,-0.01898 -18.930817,-0.05698 z"
           id="path7-4"
           sodipodi:nodetypes="csscccsscccccccsscccc" />
      </g>
      <g
         id="g9-5"
         transform="translate(0.01590346,7.50823)"
         style="fill:url(#linearGradient12);fill-opacity:1;stroke:url(#linearGradient10);stroke-width:3.33333;stroke-dasharray:none;stroke-opacity:1">
        <path
           style="fill:url(#linearGradient1);stroke:url(#linearGradient3);stroke-width:3.33333;stroke-dasharray:none;stroke-opacity:1"
           d="m 13.343599,58.563313 c -0.509985,-0.08683 -1.224187,-0.470908 -1.51513,-0.814789 -0.122413,-0.144688 -0.323232,-0.476818 -0.446265,-0.738068 l -0.223696,-0.475 V 32.051364 7.5672726 l 0.223696,-0.4750002 c 0.324078,-0.6881544 0.619931,-0.994428 1.269542,-1.3142592 l 0.575755,-0.2834685 11.272322,-0.023076 13.494544,-0.023076 7.462164,7.4638153 7.462164,7.463814 -0.02327,19.192675 -0.02327,16.970452 -0.283469,0.57578 c -0.319827,0.649631 -0.626095,0.94548 -1.314258,1.269565 l -0.475,0.223696 -18.525002,0.01214 c -10.18875,0.0067 -18.707617,-0.01898 -18.930817,-0.05698 z"
           id="path7"
           sodipodi:nodetypes="csscccsscccccccsscccc" />
      </g>
      <g
         id="g9-5-4"
         transform="matrix(0.95060971,0,0,0.95060971,1.5983299,9.0903999)"
         style="opacity:0.3;fill:none;fill-opacity:1;stroke:#000000;stroke-width:1.2163;stroke-dasharray:none;stroke-opacity:1">
        <path
           style="fill:none;stroke:#000000;stroke-width:1.2209;stroke-dasharray:none;stroke-opacity:1"
           d="m 13.345657,58.767192 c -0.509928,-0.0875 -1.379019,0.09369 -1.66993,-0.252835 -0.122399,-0.1458 -0.564184,-0.815119 -0.549528,-1.105332 l 0.03461,-0.685274 V 32.051492 7.3792344 L 11.126199,6.8489278 C 11.076353,6.085133 11.673733,5.438001 12.395601,5.3696002 l 0.833972,-0.079023 11.271081,-0.023254 13.493057,-0.023254 7.461342,7.5211758 7.461342,7.521176 -0.02327,19.340175 -0.02327,17.100874 -0.07684,0.892523 c -0.06259,0.726926 -0.502095,1.157375 -1.262462,1.175216 l -0.7332,0.01721 -18.522962,0.01224 c -10.187627,0.0067 -18.705557,-0.01912 -18.928733,-0.05742 z"
           id="path7-3"
           sodipodi:nodetypes="csscccsscccccccsscccc" />
      </g>
    </g>
    <path
       d="m 73.962366,100.85137 c -0.05454,0 -0.114541,-0.002 -0.18182,-0.009 -0.06546,-0.005 -0.12364,-0.0128 -0.17454,-0.0218 v -0.69273 c 0.04546,0.009 0.09818,0.0164 0.16,0.0182 0.06182,0.007 0.12,0.011 0.17454,0.011 0.116359,0 0.218182,-0.0146 0.30909,-0.0473 0.09454,-0.0291 0.18,-0.0745 0.254546,-0.14 0.07636,-0.06728 0.14182,-0.15272 0.19636,-0.26 0.06182,-0.10546 0.116359,-0.236364 0.1709,-0.389092 l 0.09818,-0.301818 -1.878182,-5.076362 h 0.87091 l 1.42,4.23818 h 0.02 l 1.42,-4.23818 h 0.86 l -1.985456,5.381818 c -0.1091,0.294544 -0.21818,0.538182 -0.327272,0.732724 -0.1109,0.19818 -0.232728,0.35637 -0.367272,0.47091 -0.13092,0.12 -0.281818,0.20364 -0.45091,0.24909 -0.16728,0.0509 -0.361818,0.0745 -0.58909,0.0745 z m -4.632728,-5.447276 h -0.785454 c 0.0072,-0.212728 0.06,-0.41091 0.16,-0.596364 0.10182,-0.18364 0.236364,-0.343636 0.40909,-0.48 0.17272,-0.13454 0.372728,-0.24 0.601818,-0.314546 0.232728,-0.07818 0.481818,-0.11636 0.749092,-0.11636 0.3,0 0.570908,0.03818 0.814546,0.11636 0.24,0.07454 0.445454,0.18364 0.62,0.329092 0.17272,0.14182 0.303636,0.312726 0.394544,0.516362 0.09272,0.201818 0.14182,0.427274 0.14182,0.674546 v 3.481818 h -0.776362 v -0.88 h -0.02 c -0.07272,0.14 -0.16364,0.269092 -0.278182,0.385454 -0.11092,0.11092 -0.24,0.21091 -0.38,0.29091 -0.14182,0.08 -0.294546,0.14 -0.461818,0.18364 -0.16182,0.04364 -0.334546,0.06546 -0.51091,0.06546 -0.256364,0 -0.492728,-0.03454 -0.7,-0.10364 -0.21091,-0.0709 -0.392728,-0.17272 -0.543636,-0.301818 -0.15092,-0.1309 -0.267274,-0.287272 -0.347274,-0.46909 -0.08182,-0.18546 -0.12364,-0.39091 -0.12364,-0.616364 0,-0.438182 0.16364,-0.783636 0.485456,-1.03091 0.321818,-0.247272 0.794544,-0.38909 1.416362,-0.42909 l 1.42,-0.08182 v -0.423636 c 0,-0.318182 -0.1,-0.558182 -0.3,-0.725456 -0.19636,-0.16908 -0.485454,-0.254544 -0.861818,-0.254544 -0.14728,0 -0.283636,0.02 -0.40909,0.05818 -0.12546,0.03454 -0.238182,0.08546 -0.34,0.15454 -0.09636,0.06546 -0.17636,0.14546 -0.241818,0.245456 -0.06364,0.09636 -0.10728,0.203636 -0.13272,0.321818 z m -14.858182,3.656362 c -0.36,0 -0.681818,-0.06 -0.970908,-0.18364 -0.285456,-0.12182 -0.527274,-0.294544 -0.734546,-0.516364 -0.203636,-0.225454 -0.358182,-0.49818 -0.469092,-0.814544 -0.1091,-0.32 -0.16364,-0.674546 -0.16364,-1.067274 0,-0.394544 0.05454,-0.750908 0.16364,-1.06909 0.1109,-0.32 0.265456,-0.589092 0.469092,-0.812728 0.207272,-0.225454 0.44909,-0.4 0.734546,-0.518182 0.28909,-0.12182 0.610908,-0.18182 0.970908,-0.18182 0.356364,0 0.678182,0.06 0.963636,0.18182 0.289092,0.11818 0.534546,0.292728 0.738181,0.518182 0.203637,0.223636 0.36,0.492728 0.469093,0.812728 0.112719,0.318182 0.165459,0.674546 0.165459,1.06909 0,0.392728 -0.05272,0.747274 -0.165459,1.067274 -0.1091,0.316364 -0.265456,0.58909 -0.469093,0.814544 -0.203636,0.22182 -0.449089,0.394546 -0.738181,0.516364 -0.285454,0.12364 -0.607272,0.18364 -0.963636,0.18364 z m 12.901818,-0.04546 h -0.781819 v -0.856358 h -0.0146 c -0.163639,0.292728 -0.387272,0.518182 -0.665453,0.67091 -0.28,0.15272 -0.603636,0.230908 -0.974546,0.230908 -0.32,0 -0.614544,-0.06 -0.88,-0.18364 -0.261819,-0.12364 -0.492727,-0.301818 -0.687272,-0.527272 -0.1909,-0.225454 -0.338182,-0.496364 -0.445454,-0.814546 -0.10728,-0.32 -0.16,-0.670908 -0.16,-1.056364 0,-0.385454 0.05272,-0.736362 0.16,-1.054544 0.10728,-0.32 0.252726,-0.59091 0.441818,-0.816364 0.1909,-0.229092 0.418182,-0.4 0.68,-0.523636 0.265454,-0.12728 0.556364,-0.18728 0.870908,-0.18728 0.363638,0 0.685456,0.07454 0.965456,0.225456 0.278182,0.1509 0.496364,0.363636 0.654544,0.645454 h 0.0164 v -2.836364 h 0.82 z M 58.438729,93.94227 v 0.825454 h 0.02 c 0.321818,-0.581818 0.874544,-0.87091 1.656362,-0.87091 0.278182,0 0.530911,0.04364 0.752729,0.13092 0.223636,0.08546 0.412728,0.20909 0.567272,0.370908 0.15818,0.16 0.276364,0.356364 0.36,0.589092 0.08364,0.227272 0.12546,0.487272 0.12546,0.776364 v 3.250908 h -0.816368 v -3.110908 c 0,-0.416364 -0.10728,-0.734546 -0.316364,-0.95091 -0.21091,-0.218182 -0.516364,-0.32909 -0.918182,-0.32909 -0.205454,0 -0.394546,0.03636 -0.567272,0.10364 -0.1691,0.0691 -0.314546,0.16728 -0.438182,0.290908 -0.12,0.12728 -0.21091,0.28 -0.276364,0.458182 -0.06908,0.17818 -0.1,0.376364 -0.1,0.592728 v 2.945454 h -0.82 v -5.072726 z m -13.178182,5.072726 h -0.789092 v -6.78909 h 0.981819 l 2.343636,5.663636 h 0.03636 l 2.341818,-5.663636 h 0.983638 v 6.78909 H 50.369634 V 93.78227 h -0.03454 l -2.161818,5.183636 H 47.456912 L 45.293276,93.78227 h -0.03272 z m 24.920001,-0.665454 c 0.207272,0 0.4,-0.0309 0.574544,-0.09454 0.17636,-0.06182 0.327274,-0.1491 0.45091,-0.261818 0.12728,-0.11272 0.22909,-0.247272 0.301818,-0.4 0.0709,-0.15636 0.10728,-0.327272 0.10728,-0.50909 v -0.409092 l -1.325454,0.08546 c -0.383636,0.02546 -0.672729,0.10546 -0.865454,0.243638 -0.19454,0.13636 -0.29091,0.325454 -0.29091,0.570908 0,0.11818 0.02182,0.225454 0.0691,0.32 0.0509,0.09454 0.12182,0.17454 0.210907,0.243636 0.09454,0.0691 0.207275,0.12182 0.334546,0.16 0.1291,0.03454 0.272728,0.05092 0.432728,0.05092 z m -15.709092,-0.0182 c 0.234546,0 0.445454,-0.04182 0.629092,-0.12728 0.18728,-0.08364 0.347272,-0.205456 0.476362,-0.36 0.13092,-0.16 0.229091,-0.356364 0.294546,-0.585456 0.07092,-0.22909 0.105459,-0.48909 0.105459,-0.78 0,-0.290908 -0.03454,-0.552726 -0.105459,-0.78 -0.06546,-0.230908 -0.16364,-0.425454 -0.294546,-0.585454 -0.12908,-0.16 -0.28909,-0.28 -0.476362,-0.36 -0.18364,-0.08546 -0.394546,-0.1291 -0.629092,-0.1291 -0.236364,0 -0.447272,0.04364 -0.636364,0.1291 -0.18364,0.08364 -0.343636,0.205454 -0.474544,0.365454 -0.1291,0.15818 -0.227274,0.349092 -0.296364,0.58 -0.06546,0.227274 -0.09818,0.489092 -0.09818,0.78 0,0.29091 0.03272,0.55091 0.10364,0.78 0.06728,0.229092 0.16728,0.425456 0.296364,0.585456 0.12728,0.15454 0.285454,0.276362 0.46909,0.36 0.1891,0.08546 0.4,0.12728 0.636364,0.12728 z m 10.61091,-3.707272 c -0.223636,0 -0.425456,0.04364 -0.607274,0.13272 -0.18182,0.08728 -0.338182,0.214546 -0.46909,0.376364 -0.1291,0.16 -0.23091,0.354546 -0.301818,0.581818 -0.0691,0.23091 -0.10364,0.485454 -0.10364,0.763636 0,0.281818 0.03454,0.538182 0.10364,0.765456 0.0709,0.225454 0.17272,0.42 0.301818,0.585454 0.1309,0.16 0.287272,0.283636 0.46909,0.370908 0.18182,0.08728 0.383638,0.13092 0.607274,0.13092 0.22,0 0.418182,-0.04364 0.603636,-0.13092 0.18182,-0.09272 0.336364,-0.21818 0.465453,-0.381818 0.127281,-0.16182 0.227274,-0.358182 0.300001,-0.583636 0.07272,-0.227272 0.10728,-0.48 0.10728,-0.756364 0,-0.276362 -0.03454,-0.525454 -0.10728,-0.754544 -0.07272,-0.227274 -0.17272,-0.423638 -0.300001,-0.585456 -0.129099,-0.16364 -0.283636,-0.28909 -0.465453,-0.376362 -0.185461,-0.09272 -0.383636,-0.13818 -0.603636,-0.13818 z"
       style="clip-rule:evenodd;fill:#000000;fill-opacity:1;fill-rule:nonzero;stroke-width:1.81818;stroke-linejoin:round;stroke-miterlimit:2;opacity:0.2"
       id="path2-8" />
    <path
       d="m 73.962366,99.033188 c -0.05454,0 -0.114541,-0.002 -0.18182,-0.009 -0.06546,-0.005 -0.12364,-0.0128 -0.17454,-0.0218 v -0.69273 c 0.04546,0.009 0.09818,0.0164 0.16,0.0182 0.06182,0.007 0.12,0.011 0.17454,0.011 0.116359,0 0.218182,-0.0146 0.30909,-0.0473 0.09454,-0.0291 0.18,-0.0745 0.254546,-0.14 0.07636,-0.06728 0.14182,-0.15272 0.19636,-0.26 0.06182,-0.10546 0.116359,-0.236364 0.1709,-0.389092 l 0.09818,-0.301818 -1.878182,-5.076362 h 0.87091 l 1.42,4.23818 h 0.02 l 1.42,-4.23818 h 0.86 l -1.985456,5.381818 c -0.1091,0.294544 -0.21818,0.538182 -0.327272,0.732724 -0.1109,0.19818 -0.232728,0.35637 -0.367272,0.47091 -0.13092,0.12 -0.281818,0.20364 -0.45091,0.24909 -0.16728,0.0509 -0.361818,0.0745 -0.58909,0.0745 z m -4.632728,-5.447276 h -0.785454 c 0.0072,-0.212728 0.06,-0.41091 0.16,-0.596364 0.10182,-0.18364 0.236364,-0.343636 0.40909,-0.48 0.17272,-0.13454 0.372728,-0.24 0.601818,-0.314546 0.232728,-0.07818 0.481818,-0.11636 0.749092,-0.11636 0.3,0 0.570908,0.03818 0.814546,0.11636 0.24,0.07454 0.445454,0.18364 0.62,0.329092 0.17272,0.14182 0.303636,0.312726 0.394544,0.516362 0.09272,0.201818 0.14182,0.427274 0.14182,0.674546 v 3.481818 h -0.776362 v -0.88 h -0.02 c -0.07272,0.14 -0.16364,0.269092 -0.278182,0.385454 -0.11092,0.11092 -0.24,0.21091 -0.38,0.29091 -0.14182,0.08 -0.294546,0.14 -0.461818,0.18364 -0.16182,0.04364 -0.334546,0.06546 -0.51091,0.06546 -0.256364,0 -0.492728,-0.03454 -0.7,-0.10364 -0.21091,-0.0709 -0.392728,-0.17272 -0.543636,-0.301818 -0.15092,-0.1309 -0.267274,-0.287272 -0.347274,-0.46909 -0.08182,-0.18546 -0.12364,-0.39091 -0.12364,-0.616364 0,-0.438182 0.16364,-0.783636 0.485456,-1.03091 0.321818,-0.247272 0.794544,-0.38909 1.416362,-0.42909 l 1.42,-0.08182 v -0.423636 c 0,-0.318182 -0.1,-0.558182 -0.3,-0.725456 -0.19636,-0.16908 -0.485454,-0.254544 -0.861818,-0.254544 -0.14728,0 -0.283636,0.02 -0.40909,0.05818 -0.12546,0.03454 -0.238182,0.08546 -0.34,0.15454 -0.09636,0.06546 -0.17636,0.14546 -0.241818,0.245456 -0.06364,0.09636 -0.10728,0.203636 -0.13272,0.321818 z m -14.858182,3.656362 c -0.36,0 -0.681818,-0.06 -0.970908,-0.18364 -0.285456,-0.12182 -0.527274,-0.294544 -0.734546,-0.516364 -0.203636,-0.225454 -0.358182,-0.49818 -0.469092,-0.814544 -0.1091,-0.32 -0.16364,-0.674546 -0.16364,-1.067274 0,-0.394544 0.05454,-0.750908 0.16364,-1.06909 0.1109,-0.32 0.265456,-0.589092 0.469092,-0.812728 0.207272,-0.225454 0.44909,-0.4 0.734546,-0.518182 0.28909,-0.12182 0.610908,-0.18182 0.970908,-0.18182 0.356364,0 0.678182,0.06 0.963636,0.18182 0.289092,0.11818 0.534546,0.292728 0.738181,0.518182 0.203637,0.223636 0.36,0.492728 0.469093,0.812728 0.112719,0.318182 0.165459,0.674546 0.165459,1.06909 0,0.392728 -0.05272,0.747274 -0.165459,1.067274 -0.1091,0.316364 -0.265456,0.58909 -0.469093,0.814544 -0.203636,0.22182 -0.449089,0.394546 -0.738181,0.516364 -0.285454,0.12364 -0.607272,0.18364 -0.963636,0.18364 z m 12.901818,-0.04546 h -0.781819 v -0.856358 h -0.0146 c -0.163639,0.292728 -0.387272,0.518182 -0.665453,0.67091 -0.28,0.15272 -0.603636,0.230908 -0.974546,0.230908 -0.32,0 -0.614544,-0.06 -0.88,-0.18364 -0.261819,-0.12364 -0.492727,-0.301818 -0.687272,-0.527272 -0.1909,-0.225454 -0.338182,-0.496364 -0.445454,-0.814546 -0.10728,-0.32 -0.16,-0.670908 -0.16,-1.056364 0,-0.385454 0.05272,-0.736362 0.16,-1.054544 0.10728,-0.32 0.252726,-0.59091 0.441818,-0.816364 0.1909,-0.229092 0.418182,-0.4 0.68,-0.523636 0.265454,-0.12728 0.556364,-0.18728 0.870908,-0.18728 0.363638,0 0.685456,0.07454 0.965456,0.225456 0.278182,0.1509 0.496364,0.363636 0.654544,0.645454 h 0.0164 v -2.836364 h 0.82 z m -8.934545,-5.072726 v 0.825454 h 0.02 c 0.321818,-0.581818 0.874544,-0.87091 1.656362,-0.87091 0.278182,0 0.530911,0.04364 0.752729,0.13092 0.223636,0.08546 0.412728,0.20909 0.567272,0.370908 0.15818,0.16 0.276364,0.356364 0.36,0.589092 0.08364,0.227272 0.12546,0.487272 0.12546,0.776364 v 3.250908 h -0.816368 v -3.110908 c 0,-0.416364 -0.10728,-0.734546 -0.316364,-0.95091 -0.21091,-0.218182 -0.516364,-0.32909 -0.918182,-0.32909 -0.205454,0 -0.394546,0.03636 -0.567272,0.10364 -0.1691,0.0691 -0.314546,0.16728 -0.438182,0.290908 -0.12,0.12728 -0.21091,0.28 -0.276364,0.458182 -0.06908,0.17818 -0.1,0.376364 -0.1,0.592728 v 2.945454 h -0.82 v -5.072726 z m -13.178182,5.072726 h -0.789092 v -6.78909 h 0.981819 l 2.343636,5.663636 h 0.03636 l 2.341818,-5.663636 h 0.983638 v 6.78909 h -0.789092 v -5.232726 h -0.03454 l -2.161818,5.183636 h -0.716364 l -2.163636,-5.183636 h -0.03272 z M 70.180548,96.53136 c 0.207272,0 0.4,-0.0309 0.574544,-0.09454 0.17636,-0.06182 0.327274,-0.1491 0.45091,-0.261818 0.12728,-0.11272 0.22909,-0.247272 0.301818,-0.4 0.0709,-0.15636 0.10728,-0.327272 0.10728,-0.50909 V 94.85682 l -1.325454,0.08546 c -0.383636,0.02546 -0.672729,0.10546 -0.865454,0.243638 -0.19454,0.13636 -0.29091,0.325454 -0.29091,0.570908 0,0.11818 0.02182,0.225454 0.0691,0.32 0.0509,0.09454 0.12182,0.17454 0.210907,0.243636 0.09454,0.0691 0.207275,0.12182 0.334546,0.16 0.1291,0.03454 0.272728,0.05092 0.432728,0.05092 z m -15.709092,-0.0182 c 0.234546,0 0.445454,-0.04182 0.629092,-0.12728 0.18728,-0.08364 0.347272,-0.205456 0.476362,-0.36 0.13092,-0.16 0.229091,-0.356364 0.294546,-0.585456 0.07092,-0.22909 0.105459,-0.48909 0.105459,-0.78 0,-0.290908 -0.03454,-0.552726 -0.105459,-0.78 -0.06546,-0.230908 -0.16364,-0.425454 -0.294546,-0.585454 -0.12908,-0.16 -0.28909,-0.28 -0.476362,-0.36 -0.18364,-0.08546 -0.394546,-0.1291 -0.629092,-0.1291 -0.236364,0 -0.447272,0.04364 -0.636364,0.1291 -0.18364,0.08364 -0.343636,0.205454 -0.474544,0.365454 -0.1291,0.15818 -0.227274,0.349092 -0.296364,0.58 -0.06546,0.227274 -0.09818,0.489092 -0.09818,0.78 0,0.29091 0.03272,0.55091 0.10364,0.78 0.06728,0.229092 0.16728,0.425456 0.296364,0.585456 0.12728,0.15454 0.285454,0.276362 0.46909,0.36 0.1891,0.08546 0.4,0.12728 0.636364,0.12728 z m 10.61091,-3.707272 c -0.223636,0 -0.425456,0.04364 -0.607274,0.13272 -0.18182,0.08728 -0.338182,0.214546 -0.46909,0.376364 -0.1291,0.16 -0.23091,0.354546 -0.301818,0.581818 -0.0691,0.23091 -0.10364,0.485454 -0.10364,0.763636 0,0.281818 0.03454,0.538182 0.10364,0.765456 0.0709,0.225454 0.17272,0.42 0.301818,0.585454 0.1309,0.16 0.287272,0.283636 0.46909,0.370908 0.18182,0.08728 0.383638,0.13092 0.607274,0.13092 0.22,0 0.418182,-0.04364 0.603636,-0.13092 0.18182,-0.09272 0.336364,-0.21818 0.465453,-0.381818 0.127281,-0.16182 0.227274,-0.358182 0.300001,-0.583636 0.07272,-0.227272 0.10728,-0.48 0.10728,-0.756364 0,-0.276362 -0.03454,-0.525454 -0.10728,-0.754544 -0.07272,-0.227274 -0.17272,-0.423638 -0.300001,-0.585456 -0.129099,-0.16364 -0.283636,-0.28909 -0.465453,-0.376362 -0.185461,-0.09272 -0.383636,-0.13818 -0.603636,-0.13818 z"
       style="clip-rule:evenodd;fill:#4d4d4d;fill-opacity:1;fill-rule:nonzero;stroke-width:1.81818;stroke-linejoin:round;stroke-miterlimit:2"
       id="path2" />
    <path
       d="m 44.848568,52.656838 h -3.540556 c 0,-2.206882 0.802829,-4.037996 2.41087,-5.492152 1.621163,-1.467279 3.67416,-2.200918 6.162569,-2.200918 2.629171,0 4.688132,0.695466 6.181655,2.085205 1.492329,1.392125 2.237896,3.324637 2.237896,5.798732 0,1.211994 -0.39366,2.385818 -1.185751,3.521466 -0.777776,1.135651 -1.844236,1.983807 -3.195802,2.545668 1.531695,0.484321 2.711481,1.289535 3.540553,2.41087 0.841,1.122527 1.263291,2.495565 1.263291,4.114343 0,2.502723 -0.815951,4.485338 -2.450235,5.952616 -1.633094,1.467279 -3.756471,2.200919 -6.37252,2.200919 -2.614858,0 -4.746585,-0.707396 -6.391608,-2.124572 -1.633093,-1.415983 -2.450236,-3.285271 -2.450236,-5.606672 h 3.559641 c 0,1.466085 0.478357,2.639908 1.436263,3.521467 0.95552,0.879174 2.239091,1.319358 3.84594,1.319358 1.709439,0 3.016866,-0.446148 3.923478,-1.338444 0.905418,-0.894682 1.358723,-2.175866 1.358723,-3.848326 0,-1.618777 -0.498636,-2.862982 -1.49233,-3.731419 -0.996079,-0.866052 -2.429955,-1.313393 -4.307594,-1.338444 H 46.72382 v -2.890418 h 2.658995 c 1.672459,-0.02505 2.985851,-0.466429 3.943757,-1.320552 0.956714,-0.855315 1.433877,-2.008858 1.433877,-3.464208 0,-3.264992 -1.624742,-4.898083 -4.878998,-4.898083 -1.530503,0 -2.75562,0.440182 -3.67416,1.319356 -0.905418,0.868438 -1.358723,2.02198 -1.358723,3.464208 z m 36.246543,8.668871 c 0,4.146552 -0.708588,7.22903 -2.124572,9.243853 -1.415984,2.016016 -3.630023,3.024025 -6.640924,3.024025 -2.972731,0 -5.173647,-0.982958 -6.601561,-2.94768 -1.430298,-1.976649 -2.169901,-4.924328 -2.221196,-8.841841 v -4.726307 c 0,-4.096449 0.708588,-7.138368 2.125764,-9.128139 1.41479,-1.989773 3.635988,-2.985852 6.658819,-2.985852 2.998973,0 5.205855,0.963872 6.621839,2.890418 1.415982,1.913426 2.142465,4.873035 2.181831,8.880016 z m -3.540556,-4.842018 c 0,-2.997781 -0.421096,-5.178419 -1.262096,-6.5443 -0.843387,-1.37781 -2.175868,-2.066117 -4.001018,-2.066117 -1.810836,0 -3.131387,0.682344 -3.961652,2.047032 -0.82907,1.365881 -1.256133,3.464208 -1.282377,6.296174 v 5.663931 c 0,3.010904 0.434219,5.238065 1.301464,6.680291 0.88156,1.429105 2.208074,2.142466 3.980739,2.142466 1.748804,0 3.043109,-0.675188 3.884112,-2.027947 0.856508,-1.352758 1.302656,-3.483293 1.340828,-6.391606 z"
       style="clip-rule:evenodd;fill:#000000;fill-opacity:1;fill-rule:nonzero;stroke-width:1.19291;stroke-linejoin:round;stroke-miterlimit:2;opacity:0.2"
       id="path3-6-0" />
    <path
       d="m 44.848568,50.838656 h -3.540556 c 0,-2.206882 0.802829,-4.037996 2.41087,-5.492152 1.621163,-1.467279 3.67416,-2.200918 6.162569,-2.200918 2.629171,0 4.688132,0.695466 6.181655,2.085205 1.492329,1.392125 2.237896,3.324637 2.237896,5.798732 0,1.211994 -0.39366,2.385818 -1.185751,3.521466 -0.777776,1.135651 -1.844236,1.983807 -3.195802,2.545668 1.531695,0.484321 2.711481,1.289535 3.540553,2.41087 0.841,1.122527 1.263291,2.495565 1.263291,4.114343 0,2.502723 -0.815951,4.485338 -2.450235,5.952616 -1.633094,1.467279 -3.756471,2.200919 -6.37252,2.200919 -2.614858,0 -4.746585,-0.707396 -6.391608,-2.124572 -1.633093,-1.415983 -2.450236,-3.285271 -2.450236,-5.606672 h 3.559641 c 0,1.466085 0.478357,2.639908 1.436263,3.521467 0.95552,0.879174 2.239091,1.319358 3.84594,1.319358 1.709439,0 3.016866,-0.446148 3.923478,-1.338444 0.905418,-0.894682 1.358723,-2.175866 1.358723,-3.848326 0,-1.618777 -0.498636,-2.862982 -1.49233,-3.731419 -0.996079,-0.866052 -2.429955,-1.313393 -4.307594,-1.338444 H 46.72382 v -2.890418 h 2.658995 c 1.672459,-0.02505 2.985851,-0.466429 3.943757,-1.320552 0.956714,-0.855315 1.433877,-2.008858 1.433877,-3.464208 0,-3.264992 -1.624742,-4.898083 -4.878998,-4.898083 -1.530503,0 -2.75562,0.440182 -3.67416,1.319356 -0.905418,0.868438 -1.358723,2.02198 -1.358723,3.464208 z m 36.246543,8.668871 c 0,4.146552 -0.708588,7.22903 -2.124572,9.243853 -1.415984,2.016016 -3.630023,3.024025 -6.640924,3.024025 -2.972731,0 -5.173647,-0.982958 -6.601561,-2.94768 -1.430298,-1.976649 -2.169901,-4.924328 -2.221196,-8.841841 v -4.726307 c 0,-4.096449 0.708588,-7.138368 2.125764,-9.128139 1.41479,-1.989773 3.635988,-2.985852 6.658819,-2.985852 2.998973,0 5.205855,0.963872 6.621839,2.890418 1.415982,1.913426 2.142465,4.873035 2.181831,8.880016 z m -3.540556,-4.842018 c 0,-2.997781 -0.421096,-5.178419 -1.262096,-6.5443 -0.843387,-1.37781 -2.175868,-2.066117 -4.001018,-2.066117 -1.810836,0 -3.131387,0.682344 -3.961652,2.047032 -0.82907,1.365881 -1.256133,3.464208 -1.282377,6.296174 v 5.663931 c 0,3.010904 0.434219,5.238065 1.301464,6.680291 0.88156,1.429105 2.208074,2.142466 3.980739,2.142466 1.748804,0 3.043109,-0.675188 3.884112,-2.027947 0.856508,-1.352758 1.302656,-3.483293 1.340828,-6.391606 z"
       style="clip-rule:evenodd;fill:#4d4d4d;fill-opacity:1;fill-rule:nonzero;stroke-width:1.19291;stroke-linejoin:round;stroke-miterlimit:2"
       id="path3-6" />
    <g
       id="g11889"
       transform="matrix(1.8,0,0,1.8,3.4129251,4.3437259)"
       style="fill:#4d4d4d;fill-opacity:1" />
  </g>
</svg>
