<?xml version="1.0" encoding="UTF-8" standalone="no"?>
<svg
   width="64"
   height="64"
   version="1.1"
   id="svg73"
   sodipodi:docname="1password.svg"
   inkscape:version="1.4.2 (ebf0e940d0, 2025-05-08)"
   xmlns:inkscape="http://www.inkscape.org/namespaces/inkscape"
   xmlns:sodipodi="http://sodipodi.sourceforge.net/DTD/sodipodi-0.dtd"
   xmlns:xlink="http://www.w3.org/1999/xlink"
   xmlns="http://www.w3.org/2000/svg"
   xmlns:svg="http://www.w3.org/2000/svg"
   xmlns:rdf="http://www.w3.org/1999/02/22-rdf-syntax-ns#"
   xmlns:cc="http://creativecommons.org/ns#"
   xmlns:dc="http://purl.org/dc/elements/1.1/">
  <metadata
     id="metadata77">
    <rdf:RDF>
      <cc:Work
         rdf:about="">
        <dc:format>image/svg+xml</dc:format>
        <dc:type
           rdf:resource="http://purl.org/dc/dcmitype/StillImage" />
      </cc:Work>
    </rdf:RDF>
  </metadata>
  <sodipodi:namedview
     pagecolor="#f5f7fa"
     bordercolor="#666666"
     borderopacity="1"
     objecttolerance="10"
     gridtolerance="10"
     guidetolerance="10"
     inkscape:pageopacity="0"
     inkscape:pageshadow="2"
     inkscape:window-width="1198"
     inkscape:window-height="726"
     id="namedview75"
     showgrid="false"
     inkscape:zoom="6.2890624"
     inkscape:cx="39.274535"
     inkscape:cy="29.654659"
     inkscape:window-x="24"
     inkscape:window-y="21"
     inkscape:window-maximized="0"
     inkscape:current-layer="svg73"
     inkscape:document-rotation="0"
     inkscape:pagecheckerboard="0"
     inkscape:showpageshadow="2"
     inkscape:deskcolor="#d1d1d1" />
  <defs
     id="defs29">
    <linearGradient
       id="linearGradient4"
       inkscape:collect="always">
      <stop
         style="stop-color:#635eac;stop-opacity:1;"
         offset="0"
         id="stop4" />
      <stop
         style="stop-color:#8581c1;stop-opacity:1;"
         offset="0.5"
         id="stop1" />
    </linearGradient>
    <linearGradient
       id="linearGradient2"
       inkscape:collect="always">
      <stop
         style="stop-color:#edecf4;stop-opacity:1;"
         offset="0"
         id="stop2" />
      <stop
         style="stop-color:#d9d8e9;stop-opacity:1;"
         offset="1"
         id="stop3" />
    </linearGradient>
    <linearGradient
       inkscape:collect="always"
       xlink:href="#linearGradient2"
       id="linearGradient8"
       x1="31.721739"
       y1="5.2278585"
       x2="31.88887"
       y2="59.145416"
       gradientUnits="userSpaceOnUse"
       gradientTransform="matrix(0.8505,0,0,0.8505,4.7765033,4.7794869)" />
    <filter
       style="color-interpolation-filters:sRGB;"
       inkscape:label="Blur"
       id="filter9"
       x="-0.047762285"
       y="-0.047489063"
       width="1.0955246"
       height="1.0949781">
      <feGaussianBlur
         stdDeviation="1 1"
         result="blur"
         id="feGaussianBlur9" />
    </filter>
    <linearGradient
       inkscape:collect="always"
       xlink:href="#linearGradient4"
       id="linearGradient7"
       x1="26.723248"
       y1="58.711765"
       x2="25.756926"
       y2="5.950614"
       gradientUnits="userSpaceOnUse" />
    <filter
       style="color-interpolation-filters:sRGB;"
       inkscape:label="Out of Focus"
       id="filter40"
       x="-0.24226652"
       y="-0.2858297"
       width="1.484533"
       height="1.5716594">
      <feFlood
         flood-opacity="1"
         flood-color="rgb(255,255,255)"
         result="flood"
         id="feFlood38" />
      <feColorMatrix
         in="SourceGraphic"
         values="1 0 0 0 0 0 1 0 0 0 0 0 1 0 0 -0.2125 -0.7154 -0.0721 1 0 "
         result="colormatrix1"
         id="feColorMatrix38" />
      <feGaussianBlur
         in="colormatrix1"
         stdDeviation="3 3"
         result="blur"
         id="feGaussianBlur38" />
      <feColorMatrix
         in="blur"
         values="1 0 0 0 0 0 1 0 0 0 0 0 1 0 0 0 0 0 6 -2 "
         result="colormatrix2"
         id="feColorMatrix39" />
      <feBlend
         in="colormatrix2"
         in2="flood"
         mode="normal"
         result="blend"
         id="feBlend39" />
      <feComposite
         in="blend"
         in2="blend"
         operator="arithmetic"
         k2="0.2"
         result="composite1"
         id="feComposite39" />
      <feComposite
         in2="SourceGraphic"
         operator="in"
         id="feComposite40" />
    </filter>
  </defs>
  <g
     id="g877"
     transform="matrix(1.1,0,0,1.1,-3.1845928,-3.2065454)">
    <ellipse
       style="opacity:0.5;fill:#000000;stroke:none;stroke-width:3.89319;stroke-dasharray:none;stroke-opacity:1;filter:url(#filter9)"
       id="path2-5"
       cx="31.949858"
       cy="31.969812"
       rx="25.124426"
       ry="25.268976"
       transform="matrix(1.05,0,0,1.05,-1.5974929,-1.5984906)" />
    <path
       style="fill:#f5f7fa;stroke-width:0.204426;fill-opacity:1"
       d=""
       id="path3" />
    <circle
       style="opacity:1;fill:url(#linearGradient8);stroke:url(#linearGradient7);stroke-width:3.81818;stroke-dasharray:none;stroke-opacity:1"
       id="path2"
       cx="31.949856"
       cy="31.969812"
       r="24.711082" />
    <ellipse
       style="opacity:0.3;fill:none;stroke:#000000;stroke-width:0.974376;stroke-dasharray:none;stroke-opacity:1"
       id="path2-9"
       cx="31.949856"
       cy="31.969812"
       rx="23.129124"
       ry="23.129126" />
  </g>
  <path
     id="path50-3"
     style="fill:#000000;fill-opacity:1;stroke:none;stroke-width:1.03563;stroke-dasharray:none;stroke-dashoffset:2.2;stroke-opacity:0.3;opacity:0.2"
     d="m 31.968252,17.859512 c -1.083402,-2.18e-4 -2.156433,0.07164 -2.845957,0.216428 -1.486678,0.31213 -3.373132,0.970092 -4.504579,1.571647 l -0.995173,0.52995 H 22.11967 c -1.332855,0.0011 -1.570195,0.03348 -2.097553,0.28318 -0.719537,0.340741 -1.271024,0.901616 -1.595919,1.62019 -0.200569,0.4436 -0.242573,0.783926 -0.244748,1.994393 l -0.0021,1.460398 -0.651264,1.33499 c -1.256195,2.580911 -1.661825,4.343419 -1.654576,7.164443 0.0074,2.820976 0.45022,4.682821 1.72335,7.229168 l 0.582539,1.161036 v 1.488716 c 0,1.047286 0.05159,1.613753 0.175975,1.911462 0.302784,0.724659 0.868887,1.323394 1.581759,1.672785 0.615742,0.301788 0.834077,0.339346 2.344326,0.398486 1.530822,0.05986 1.710886,0.09093 2.208801,0.384287 1.198233,0.706074 3.236397,1.400516 4.988004,1.697056 0.490677,0.08306 1.562935,0.155393 2.380729,0.161807 2.558123,0.01977 4.818068,-0.485627 7.07747,-1.58378 l 1.306668,-0.635134 1.60604,-0.05056 c 1.3808,-0.04333 1.681781,-0.09012 2.142052,-0.325672 0.729203,-0.373191 1.154751,-0.791699 1.521075,-1.496804 0.278313,-0.53575 0.312157,-0.754197 0.353952,-2.200707 l 0.04656,-1.604013 0.513765,-1.011356 c 1.097187,-2.163338 1.596246,-4.155327 1.686944,-6.721443 0.09865,-2.790541 -0.366567,-5.046123 -1.53524,-7.433462 l -0.610846,-1.250036 -0.07282,-1.606033 C 45.813943,22.408407 45.631791,21.824179 44.917612,21.11 44.181279,20.373667 43.759695,20.240571 42.029176,20.197758 l -1.547372,-0.03843 -1.308699,-0.635133 c -1.457069,-0.708305 -2.71912,-1.133294 -4.296216,-1.446228 -0.731051,-0.145033 -1.825257,-0.218235 -2.908658,-0.218454 z m -11.090527,3.911923 c 0.05604,-0.0042 0.113486,-0.0044 0.169903,0 0.270832,0.0207 0.541338,0.138821 0.764585,0.362066 0.576664,0.57666 0.468215,1.434321 -0.234633,1.862917 -1.047142,0.638547 -2.240633,-0.463025 -1.678846,-1.549399 0.213951,-0.413736 0.586552,-0.6468 0.978991,-0.675584 z m 22.233642,0 c 0.306753,0.01658 0.581557,0.164977 0.81717,0.444996 0.410514,0.487859 0.400867,1.057342 -0.02621,1.531193 -0.394734,0.437864 -1.010779,0.559056 -1.484667,0.293289 -0.411756,-0.230918 -0.568384,-0.523663 -0.568384,-1.067992 0,-0.589608 0.182342,-0.881272 0.677614,-1.088218 0.205495,-0.08585 0.400503,-0.123222 0.584557,-0.113274 z m -11.137048,0.566358 c 3.721219,-0.01231 7.510056,1.94208 9.632152,5.026439 0.579974,0.842961 1.407291,2.652192 1.69099,3.697515 0.377748,1.391776 0.377993,4.460006 0.002,5.817318 -1.155809,4.172551 -4.05231,7.131149 -8.169733,8.343686 -1.465714,0.431625 -4.019944,0.519042 -5.532116,0.188116 -3.43553,-0.751876 -6.279785,-2.909884 -7.906779,-5.995324 -3.918692,-7.431425 1.109609,-16.414377 9.541128,-17.04741 0.246977,-0.01857 0.494257,-0.02953 0.742338,-0.03028 z m 0.05056,7.730801 c -0.0739,9.8e-4 -0.149624,0.0023 -0.226541,0.006 -1.529381,0.07384 -2.749476,0.863216 -3.406243,2.20276 -0.40036,0.816573 -0.450417,2.231658 -0.111254,3.1352 0.445369,1.186471 1.472303,2.102512 2.736729,2.443437 1.282006,0.345664 2.60444,0.01537 3.61054,-0.904152 1.764886,-1.613006 1.796818,-4.234273 0.07081,-5.85575 -0.786603,-0.738942 -1.565652,-1.041452 -2.674018,-1.027518 z m 11.133004,13.768597 c 0.21893,0.01856 0.438579,0.100243 0.635138,0.254831 0.612771,0.482007 0.514753,1.607976 -0.169914,1.962031 -0.86546,0.447548 -1.773921,-0.0717 -1.773921,-1.015404 0,-0.75117 0.651871,-1.257005 1.30869,-1.201487 z m -22.187118,0.0121 c 0.559002,0 0.970814,0.280126 1.132716,0.770649 0.173343,0.525246 0.05078,0.949722 -0.378247,1.310717 -0.985082,0.828776 -2.422378,-0.326156 -1.830552,-1.470628 0.233253,-0.451073 0.51707,-0.61086 1.076083,-0.61086 z" />
  <path
     id="path50"
     style="fill:#4d4d4d;fill-opacity:1;stroke:none;stroke-width:1.03563;stroke-dasharray:none;stroke-dashoffset:2.2;stroke-opacity:0.3"
     d="m 31.968252,15.859512 c -1.083402,-2.18e-4 -2.156433,0.07164 -2.845957,0.216428 -1.486678,0.31213 -3.373132,0.970092 -4.504579,1.571647 l -0.995173,0.52995 H 22.11967 c -1.332855,0.0011 -1.570195,0.03348 -2.097553,0.28318 -0.719537,0.340741 -1.271024,0.901616 -1.595919,1.62019 -0.200569,0.4436 -0.242573,0.783926 -0.244748,1.994393 l -0.0021,1.460398 -0.651264,1.33499 c -1.256195,2.580911 -1.661825,4.343419 -1.654576,7.164443 0.0074,2.820976 0.45022,4.682821 1.72335,7.229168 l 0.582539,1.161036 v 1.488716 c 0,1.047286 0.05159,1.613753 0.175975,1.911462 0.302784,0.724659 0.868887,1.323394 1.581759,1.672785 0.615742,0.301788 0.834077,0.339346 2.344326,0.398486 1.530822,0.05986 1.710886,0.09093 2.208801,0.384287 1.198233,0.706074 3.236397,1.400516 4.988004,1.697056 0.490677,0.08306 1.562935,0.155393 2.380729,0.161807 2.558123,0.01977 4.818068,-0.485627 7.07747,-1.58378 l 1.306668,-0.635134 1.60604,-0.05056 c 1.3808,-0.04333 1.681781,-0.09012 2.142052,-0.325672 0.729203,-0.373191 1.154751,-0.791699 1.521075,-1.496804 0.278313,-0.53575 0.312157,-0.754197 0.353952,-2.200707 l 0.04656,-1.604013 0.513765,-1.011356 c 1.097187,-2.163338 1.596246,-4.155327 1.686944,-6.721443 0.09865,-2.790541 -0.366567,-5.046123 -1.53524,-7.433462 l -0.610846,-1.250036 -0.07282,-1.606033 C 45.813943,20.408407 45.631791,19.824179 44.917612,19.11 44.181279,18.373667 43.759695,18.240571 42.029176,18.197758 l -1.547372,-0.03843 -1.308699,-0.635133 c -1.457069,-0.708305 -2.71912,-1.133294 -4.296216,-1.446228 -0.731051,-0.145033 -1.825257,-0.218235 -2.908658,-0.218454 z m -11.090527,3.911923 c 0.05604,-0.0042 0.113486,-0.0044 0.169903,0 0.270832,0.0207 0.541338,0.138821 0.764585,0.362066 0.576664,0.57666 0.468215,1.434321 -0.234633,1.862917 -1.047142,0.638547 -2.240633,-0.463025 -1.678846,-1.549399 0.213951,-0.413736 0.586552,-0.6468 0.978991,-0.675584 z m 22.233642,0 c 0.306753,0.01658 0.581557,0.164977 0.81717,0.444996 0.410514,0.487859 0.400867,1.057342 -0.02621,1.531193 -0.394734,0.437864 -1.010779,0.559056 -1.484667,0.293289 -0.411756,-0.230918 -0.568384,-0.523663 -0.568384,-1.067992 0,-0.589608 0.182342,-0.881272 0.677614,-1.088218 0.205495,-0.08585 0.400503,-0.123222 0.584557,-0.113274 z m -11.137048,0.566358 c 3.721219,-0.01231 7.510056,1.94208 9.632152,5.026439 0.579974,0.842961 1.407291,2.652192 1.69099,3.697515 0.377748,1.391776 0.377993,4.460006 0.002,5.817318 -1.155809,4.172551 -4.05231,7.131149 -8.169733,8.343686 -1.465714,0.431625 -4.019944,0.519042 -5.532116,0.188116 -3.43553,-0.751876 -6.279785,-2.909884 -7.906779,-5.995324 -3.918692,-7.431425 1.109609,-16.414377 9.541128,-17.04741 0.246977,-0.01857 0.494257,-0.02953 0.742338,-0.03028 z m 0.05056,7.730801 c -0.0739,9.8e-4 -0.149624,0.0023 -0.226541,0.006 -1.529381,0.07384 -2.749476,0.863216 -3.406243,2.20276 -0.40036,0.816573 -0.450417,2.231658 -0.111254,3.1352 0.445369,1.186471 1.472303,2.102512 2.736729,2.443437 1.282006,0.345664 2.60444,0.01537 3.61054,-0.904152 1.764886,-1.613006 1.796818,-4.234273 0.07081,-5.85575 -0.786603,-0.738942 -1.565652,-1.041452 -2.674018,-1.027518 z m 11.133004,13.768597 c 0.21893,0.01856 0.438579,0.100243 0.635138,0.254831 0.612771,0.482007 0.514753,1.607976 -0.169914,1.962031 -0.86546,0.447548 -1.773921,-0.0717 -1.773921,-1.015404 0,-0.75117 0.651871,-1.257005 1.30869,-1.201487 z m -22.187118,0.0121 c 0.559002,0 0.970814,0.280126 1.132716,0.770649 0.173343,0.525246 0.05078,0.949722 -0.378247,1.310717 -0.985082,0.828776 -2.422378,-0.326156 -1.830552,-1.470628 0.233253,-0.451073 0.51707,-0.61086 1.076083,-0.61086 z" />
</svg>
