<?xml version="1.0" encoding="UTF-8" standalone="no"?>
<svg
   width="64"
   height="64"
   version="1.1"
   id="svg73"
   sodipodi:docname="camera-photo.svg"
   inkscape:version="1.4.2 (ebf0e940d0, 2025-05-08)"
   xmlns:inkscape="http://www.inkscape.org/namespaces/inkscape"
   xmlns:sodipodi="http://sodipodi.sourceforge.net/DTD/sodipodi-0.dtd"
   xmlns:xlink="http://www.w3.org/1999/xlink"
   xmlns="http://www.w3.org/2000/svg"
   xmlns:svg="http://www.w3.org/2000/svg"
   xmlns:rdf="http://www.w3.org/1999/02/22-rdf-syntax-ns#"
   xmlns:cc="http://creativecommons.org/ns#"
   xmlns:dc="http://purl.org/dc/elements/1.1/">
  <metadata
     id="metadata77">
    <rdf:RDF>
      <cc:Work
         rdf:about="">
        <dc:format>image/svg+xml</dc:format>
        <dc:type
           rdf:resource="http://purl.org/dc/dcmitype/StillImage" />
      </cc:Work>
    </rdf:RDF>
  </metadata>
  <sodipodi:namedview
     pagecolor="#f5f7fa"
     bordercolor="#666666"
     borderopacity="1"
     objecttolerance="10"
     gridtolerance="10"
     guidetolerance="10"
     inkscape:pageopacity="0"
     inkscape:pageshadow="2"
     inkscape:window-width="1253"
     inkscape:window-height="697"
     id="namedview75"
     showgrid="false"
     inkscape:zoom="6.2890624"
     inkscape:cx="39.354038"
     inkscape:cy="29.575156"
     inkscape:window-x="24"
     inkscape:window-y="21"
     inkscape:window-maximized="0"
     inkscape:current-layer="svg73"
     inkscape:document-rotation="0"
     inkscape:pagecheckerboard="0"
     inkscape:showpageshadow="2"
     inkscape:deskcolor="#d1d1d1" />
  <defs
     id="defs29">
    <linearGradient
       id="linearGradient4"
       inkscape:collect="always">
      <stop
         style="stop-color:#635eac;stop-opacity:1;"
         offset="0"
         id="stop4" />
      <stop
         style="stop-color:#8581c1;stop-opacity:1;"
         offset="0.5"
         id="stop1" />
    </linearGradient>
    <linearGradient
       id="linearGradient2"
       inkscape:collect="always">
      <stop
         style="stop-color:#edecf4;stop-opacity:1;"
         offset="0"
         id="stop2" />
      <stop
         style="stop-color:#d9d8e9;stop-opacity:1;"
         offset="1"
         id="stop3" />
    </linearGradient>
    <linearGradient
       inkscape:collect="always"
       xlink:href="#linearGradient2"
       id="linearGradient8"
       x1="31.721739"
       y1="5.2278585"
       x2="31.88887"
       y2="59.145416"
       gradientUnits="userSpaceOnUse"
       gradientTransform="matrix(0.8505,0,0,0.8505,4.7765033,4.7794869)" />
    <filter
       style="color-interpolation-filters:sRGB;"
       inkscape:label="Blur"
       id="filter9"
       x="-0.047762285"
       y="-0.047489063"
       width="1.0955246"
       height="1.0949781">
      <feGaussianBlur
         stdDeviation="1 1"
         result="blur"
         id="feGaussianBlur9" />
    </filter>
    <linearGradient
       inkscape:collect="always"
       xlink:href="#linearGradient4"
       id="linearGradient7"
       x1="26.723248"
       y1="58.711765"
       x2="25.756926"
       y2="5.950614"
       gradientUnits="userSpaceOnUse" />
    <filter
       style="color-interpolation-filters:sRGB;"
       inkscape:label="Out of Focus"
       id="filter40"
       x="-0.24226652"
       y="-0.2858297"
       width="1.484533"
       height="1.5716594">
      <feFlood
         flood-opacity="1"
         flood-color="rgb(255,255,255)"
         result="flood"
         id="feFlood38" />
      <feColorMatrix
         in="SourceGraphic"
         values="1 0 0 0 0 0 1 0 0 0 0 0 1 0 0 -0.2125 -0.7154 -0.0721 1 0 "
         result="colormatrix1"
         id="feColorMatrix38" />
      <feGaussianBlur
         in="colormatrix1"
         stdDeviation="3 3"
         result="blur"
         id="feGaussianBlur38" />
      <feColorMatrix
         in="blur"
         values="1 0 0 0 0 0 1 0 0 0 0 0 1 0 0 0 0 0 6 -2 "
         result="colormatrix2"
         id="feColorMatrix39" />
      <feBlend
         in="colormatrix2"
         in2="flood"
         mode="normal"
         result="blend"
         id="feBlend39" />
      <feComposite
         in="blend"
         in2="blend"
         operator="arithmetic"
         k2="0.2"
         result="composite1"
         id="feComposite39" />
      <feComposite
         in2="SourceGraphic"
         operator="in"
         id="feComposite40" />
    </filter>
  </defs>
  <g
     id="g877"
     transform="matrix(1.1,0,0,1.1,-3.1845928,-3.2065454)">
    <ellipse
       style="opacity:0.5;fill:#000000;stroke:none;stroke-width:3.89319;stroke-dasharray:none;stroke-opacity:1;filter:url(#filter9)"
       id="path2-5"
       cx="31.949858"
       cy="31.969812"
       rx="25.124426"
       ry="25.268976"
       transform="matrix(1.05,0,0,1.05,-1.5974929,-1.5984906)" />
    <path
       style="fill:#f5f7fa;stroke-width:0.204426;fill-opacity:1"
       d=""
       id="path3" />
    <circle
       style="opacity:1;fill:url(#linearGradient8);stroke:url(#linearGradient7);stroke-width:3.81818;stroke-dasharray:none;stroke-opacity:1"
       id="path2"
       cx="31.949856"
       cy="31.969812"
       r="24.711082" />
    <ellipse
       style="opacity:0.3;fill:none;stroke:#000000;stroke-width:0.974376;stroke-dasharray:none;stroke-opacity:1"
       id="path2-9"
       cx="31.949856"
       cy="31.969812"
       rx="23.129124"
       ry="23.129126" />
  </g>
  <path
     id="path97-1"
     style="fill:#000000;fill-opacity:1;stroke-width:0.169923;stroke-opacity:0.3;opacity:0.2"
     d="m 23.992945,19.482072 c -5.941996,0.01756 -5.671014,0.201173 -6.18868,1.050175 -0.320459,0.525534 -0.330381,0.938925 -0.330974,12.181216 l -0.0021,11.637739 2.07992,2.084003 2.07992,2.084012 h 11.701085 c 12.862354,0 12.285525,0.04433 12.918797,-1.027704 0.250847,-0.424577 0.277876,-1.74809 0.277876,-13.572597 V 20.816242 l -0.582284,-0.635417 -0.580249,-0.633376 -13.100642,-0.04698 c -3.620652,-0.01263 -6.292019,-0.02424 -8.272687,-0.01838 z m -2.443602,4.057679 H 32.08584 42.620292 v 10.450677 10.45067 h -1.18911 -1.189115 v -5.183451 -5.181408 h -8.242042 -8.239997 v 5.181408 5.183451 h -1.105342 -1.105343 v -10.45067 z m 10.366915,12.40392 h 2.20864 2.208636 v 4.249734 4.247693 h -2.208636 -2.20864 v -4.247693 z" />
  <path
     id="path97"
     style="fill:#4d4d4d;fill-opacity:1;stroke-width:0.169923;stroke-opacity:0.3"
     d="m 23.992945,17.482072 c -5.941996,0.01756 -5.671014,0.201173 -6.18868,1.050175 -0.320459,0.525534 -0.330381,0.938925 -0.330974,12.181216 l -0.0021,11.637739 2.07992,2.084003 2.07992,2.084012 h 11.701085 c 12.862354,0 12.285525,0.04433 12.918797,-1.027704 0.250847,-0.424577 0.277876,-1.74809 0.277876,-13.572597 V 18.816242 l -0.582284,-0.635417 -0.580249,-0.633376 -13.100642,-0.04698 c -3.620652,-0.01263 -6.292019,-0.02424 -8.272687,-0.01838 z m -2.443602,4.057679 H 32.08584 42.620292 v 10.450677 10.45067 h -1.18911 -1.189115 v -5.183451 -5.181408 h -8.242042 -8.239997 v 5.181408 5.183451 h -1.105342 -1.105343 v -10.45067 z m 10.366915,12.40392 h 2.20864 2.208636 v 4.249734 4.247693 h -2.208636 -2.20864 v -4.247693 z" />
</svg>
