<?xml version="1.0" encoding="UTF-8" standalone="no"?>
<svg
   width="64"
   height="64"
   version="1.1"
   id="svg73"
   sodipodi:docname="abcd.svg"
   inkscape:version="1.4.2 (ebf0e940d0, 2025-05-08)"
   xmlns:inkscape="http://www.inkscape.org/namespaces/inkscape"
   xmlns:sodipodi="http://sodipodi.sourceforge.net/DTD/sodipodi-0.dtd"
   xmlns:xlink="http://www.w3.org/1999/xlink"
   xmlns="http://www.w3.org/2000/svg"
   xmlns:svg="http://www.w3.org/2000/svg"
   xmlns:rdf="http://www.w3.org/1999/02/22-rdf-syntax-ns#"
   xmlns:cc="http://creativecommons.org/ns#"
   xmlns:dc="http://purl.org/dc/elements/1.1/">
  <metadata
     id="metadata77">
    <rdf:RDF>
      <cc:Work
         rdf:about="">
        <dc:format>image/svg+xml</dc:format>
        <dc:type
           rdf:resource="http://purl.org/dc/dcmitype/StillImage" />
      </cc:Work>
    </rdf:RDF>
  </metadata>
  <sodipodi:namedview
     pagecolor="#f5f7fa"
     bordercolor="#666666"
     borderopacity="1"
     objecttolerance="10"
     gridtolerance="10"
     guidetolerance="10"
     inkscape:pageopacity="0"
     inkscape:pageshadow="2"
     inkscape:window-width="1462"
     inkscape:window-height="840"
     id="namedview75"
     showgrid="false"
     inkscape:zoom="6.2890624"
     inkscape:cx="53.585094"
     inkscape:cy="29.654659"
     inkscape:window-x="24"
     inkscape:window-y="21"
     inkscape:window-maximized="0"
     inkscape:current-layer="svg73"
     inkscape:document-rotation="0"
     inkscape:pagecheckerboard="0"
     inkscape:showpageshadow="2"
     inkscape:deskcolor="#d1d1d1" />
  <defs
     id="defs29">
    <linearGradient
       id="linearGradient4"
       inkscape:collect="always">
      <stop
         style="stop-color:#a8ac5e;stop-opacity:1;"
         offset="0"
         id="stop4" />
      <stop
         style="stop-color:#bec181;stop-opacity:1;"
         offset="0.5"
         id="stop1" />
    </linearGradient>
    <linearGradient
       id="linearGradient2"
       inkscape:collect="always">
      <stop
         style="stop-color:#f4f4ec;stop-opacity:1;"
         offset="0"
         id="stop2" />
      <stop
         style="stop-color:#e8e9d8;stop-opacity:1;"
         offset="1"
         id="stop3" />
    </linearGradient>
    <linearGradient
       inkscape:collect="always"
       xlink:href="#linearGradient2"
       id="linearGradient8"
       x1="31.721739"
       y1="5.2278585"
       x2="31.88887"
       y2="59.145416"
       gradientUnits="userSpaceOnUse"
       gradientTransform="matrix(0.8505,0,0,0.8505,4.7765033,4.7794869)" />
    <filter
       style="color-interpolation-filters:sRGB;"
       inkscape:label="Blur"
       id="filter9"
       x="-0.047762285"
       y="-0.047489063"
       width="1.0955246"
       height="1.0949781">
      <feGaussianBlur
         stdDeviation="1 1"
         result="blur"
         id="feGaussianBlur9" />
    </filter>
    <linearGradient
       inkscape:collect="always"
       xlink:href="#linearGradient4"
       id="linearGradient7"
       x1="26.723248"
       y1="58.711765"
       x2="25.756926"
       y2="5.950614"
       gradientUnits="userSpaceOnUse" />
    <filter
       style="color-interpolation-filters:sRGB;"
       inkscape:label="Out of Focus"
       id="filter40"
       x="-0.24226652"
       y="-0.2858297"
       width="1.484533"
       height="1.5716594">
      <feFlood
         flood-opacity="1"
         flood-color="rgb(255,255,255)"
         result="flood"
         id="feFlood38" />
      <feColorMatrix
         in="SourceGraphic"
         values="1 0 0 0 0 0 1 0 0 0 0 0 1 0 0 -0.2125 -0.7154 -0.0721 1 0 "
         result="colormatrix1"
         id="feColorMatrix38" />
      <feGaussianBlur
         in="colormatrix1"
         stdDeviation="3 3"
         result="blur"
         id="feGaussianBlur38" />
      <feColorMatrix
         in="blur"
         values="1 0 0 0 0 0 1 0 0 0 0 0 1 0 0 0 0 0 6 -2 "
         result="colormatrix2"
         id="feColorMatrix39" />
      <feBlend
         in="colormatrix2"
         in2="flood"
         mode="normal"
         result="blend"
         id="feBlend39" />
      <feComposite
         in="blend"
         in2="blend"
         operator="arithmetic"
         k2="0.2"
         result="composite1"
         id="feComposite39" />
      <feComposite
         in2="SourceGraphic"
         operator="in"
         id="feComposite40" />
    </filter>
  </defs>
  <g
     id="g877"
     transform="matrix(1.1,0,0,1.1,-3.1845928,-3.2065454)">
    <ellipse
       style="opacity:0.5;fill:#000000;stroke:none;stroke-width:3.89319;stroke-dasharray:none;stroke-opacity:1;filter:url(#filter9)"
       id="path2-5"
       cx="31.949858"
       cy="31.969812"
       rx="25.124426"
       ry="25.268976"
       transform="matrix(1.05,0,0,1.05,-1.5974929,-1.5984906)" />
    <path
       style="fill:#f5f7fa;stroke-width:0.204426;fill-opacity:1"
       d=""
       id="path3" />
    <circle
       style="opacity:1;fill:url(#linearGradient8);stroke:url(#linearGradient7);stroke-width:3.81818;stroke-dasharray:none;stroke-opacity:1"
       id="path2"
       cx="31.949856"
       cy="31.969812"
       r="24.711082" />
    <ellipse
       style="opacity:0.3;fill:none;stroke:#000000;stroke-width:0.974376;stroke-dasharray:none;stroke-opacity:1"
       id="path2-9"
       cx="31.949856"
       cy="31.969812"
       rx="23.129124"
       ry="23.129126" />
  </g>
  <path
     id="path11-3-7"
     style="fill:#000000;fill-opacity:1;stroke:none;stroke-width:0.49653;stroke-dasharray:none;stroke-opacity:0.6;opacity:0.2"
     d="m 32.002967,18.80923 c -1.109573,0 -2.218849,0.01381 -2.82531,0.04225 -6.013249,0.28238 -10.218972,1.266498 -11.63934,2.723265 -0.607115,0.622676 -0.870416,1.501786 -0.659685,2.206859 0.458736,1.534838 2.40309,2.603278 6.143329,3.374706 2.301914,0.474772 4.862031,0.742825 7.645144,0.8009 4.389836,0.09156 8.249322,-0.263374 11.411533,-1.049312 1.674631,-0.416213 2.840188,-0.874685 3.724139,-1.46471 1.821381,-1.21576 1.857749,-3.15204 0.08248,-4.339501 C 44.091509,19.903884 40.151115,19.101439 34.8283,18.85148 34.221836,18.82301 33.112561,18.80923 32.002987,18.80923 Z m 0.04124,2.847991 c 4.396925,0.0037 8.63386,0.459347 10.766277,1.227635 0.272113,0.09804 0.530706,0.188591 0.574142,0.202032 0.06039,0.01872 0.07615,0.0617 0.06597,0.181407 -0.01266,0.152353 -0.02428,0.1612 -0.408193,0.324692 -1.617691,0.688811 -4.199483,1.158765 -7.885282,1.436876 -0.789941,0.05962 -4.657456,0.08927 -5.541359,0.04224 -2.239603,-0.11912 -4.204902,-0.350988 -5.962968,-0.702975 -1.052934,-0.210806 -1.76819,-0.413565 -2.514027,-0.712252 l -0.570005,-0.227798 -0.01339,-0.158736 c -0.01023,-0.121777 0.0054,-0.164709 0.06597,-0.183471 0.04343,-0.01344 0.302039,-0.103983 0.574134,-0.202031 1.362195,-0.490781 3.63528,-0.868449 6.470076,-1.075079 1.429087,-0.104181 2.913026,-0.153799 4.378663,-0.152553 z m -10.686904,5.436226 -0.152549,0.115448 c -0.271583,0.203745 -0.640512,0.604667 -0.806053,0.877182 -0.583107,0.959893 -0.473345,2.065382 0.295826,2.993324 1.372667,1.656003 5.141454,2.916076 9.534525,3.187108 2.497702,0.154092 5.406899,-0.06311 7.63896,-0.568981 4.019807,-0.911053 6.247102,-2.552504 6.104154,-4.499266 -0.02912,-0.39941 -0.14372,-0.748054 -0.364901,-1.112187 -0.165496,-0.272518 -0.534467,-0.673434 -0.806049,-0.877181 l -0.152514,-0.115448 -0.525687,0.128843 c -1.640528,0.402164 -4.108922,0.779717 -5.892868,0.900887 l -0.459715,0.03091 0.689576,0.07731 c 1.705376,0.192397 3.17922,0.537713 3.953986,0.925625 0.285334,0.142877 0.326795,0.183202 0.327781,0.319531 0.0016,0.20733 -1.217071,0.7931 -2.359407,1.133836 -1.86648,0.556729 -3.953571,0.827693 -6.379379,0.827693 -2.432892,0 -4.587685,-0.281893 -6.442247,-0.843163 -1.082794,-0.327674 -2.29803,-0.919859 -2.296552,-1.11836 9.9e-4,-0.136721 0.04222,-0.17657 0.327783,-0.319536 0.774782,-0.387897 2.248633,-0.733213 3.954003,-0.925608 l 0.68958,-0.0773 -0.459722,-0.03093 C 25.99189,28.002025 23.523494,27.624462 21.88298,27.222301 Z m 2.743883,6.352569 -0.17935,0.193782 c -0.26436,0.286794 -0.508809,0.685843 -0.622585,1.017362 -0.14481,0.421974 -0.13554,1.010923 0.02167,1.420385 0.32174,0.838079 1.091442,1.515191 2.261488,1.989368 1.129868,0.45789 2.73842,0.793467 4.448759,0.928713 0.700973,0.05541 3.149149,0.05808 3.835456,0.0044 2.34313,-0.184276 4.20828,-0.646126 5.388795,-1.335849 0.504794,-0.294915 1.107576,-0.896298 1.303914,-1.299787 0.454729,-0.934513 0.286954,-1.897475 -0.47518,-2.724297 l -0.178324,-0.193783 -0.315404,0.107184 c -1.083749,0.369205 -3.046895,0.764731 -4.564212,0.919351 l -0.307169,0.03091 0.57001,0.104115 c 0.708052,0.129266 1.324231,0.293753 1.653339,0.440133 0.233983,0.104071 0.251516,0.12188 0.251516,0.257693 0,0.180959 -0.08061,0.228074 -0.657626,0.383444 -2.495531,0.671951 -6.414665,0.683727 -8.962442,0.02678 -0.667509,-0.172121 -0.761732,-0.223124 -0.761732,-0.410256 0,-0.135811 0.01753,-0.153629 0.251508,-0.257689 0.329104,-0.14639 0.945285,-0.310866 1.653335,-0.440133 l 0.570008,-0.104115 -0.307168,-0.03091 C 27.44318,34.316068 25.446147,33.90996 24.350613,33.531572 Z m 7.832742,6.602019 c -1.088542,0.0042 -2.187619,0.05849 -3.129387,0.162855 -3.024233,0.334975 -5.299463,1.209688 -5.478486,2.104811 -0.05705,0.285265 0.318388,0.734637 0.874084,1.045189 1.123601,0.627942 3.299946,1.130489 5.590838,1.291549 0.373456,0.02637 0.777323,0.05508 0.89779,0.06394 0.493439,0.03639 3.159476,-0.02075 3.811751,-0.08137 2.845731,-0.264585 4.961923,-0.864265 5.819668,-1.648191 0.450828,-0.412023 0.473303,-0.739889 0.0762,-1.136931 -0.755361,-0.755421 -2.786242,-1.381677 -5.392912,-1.662653 -0.902873,-0.09731 -1.981064,-0.14331 -3.069604,-0.139139 z m -8.505831,1.145177 c -0.01203,0 -0.305867,0.09693 -0.653501,0.215425 -1.976086,0.673564 -3.276251,1.539493 -3.751964,2.498562 -0.152695,0.307842 -0.16183,0.349335 -0.16183,0.746273 0,0.400774 0.0085,0.437405 0.171108,0.766875 0.705636,1.427769 3.405372,2.688232 7.12255,3.325239 1.121373,0.19218 2.570898,0.354121 3.921008,0.437037 0.144567,0.0087 1.150445,0.01089 2.234688,0.0043 2.030436,-0.01166 2.662383,-0.04773 4.227146,-0.243279 4.345812,-0.543152 7.645125,-1.921344 8.436768,-3.523135 0.162817,-0.329432 0.171079,-0.366102 0.171079,-0.766884 0,-0.401237 -0.008,-0.436896 -0.172099,-0.768943 -0.369322,-0.747312 -1.369187,-1.514217 -2.74079,-2.101721 -0.32208,-0.13799 -1.590553,-0.589593 -1.6554,-0.589593 -0.01203,0 0.07684,0.0953 0.198935,0.212365 0.406715,0.389951 0.559662,0.848476 0.430853,1.291544 -0.142527,0.490326 -0.586427,0.900652 -1.405956,1.299783 -1.278406,0.62262 -3.054061,1.018133 -5.541367,1.234857 -0.964702,0.08411 -3.768225,0.07044 -4.775508,-0.0239 -3.857127,-0.360667 -6.329395,-1.289692 -6.684475,-2.511131 -0.128747,-0.442863 0.01542,-0.878442 0.424674,-1.281235 0.124278,-0.122348 0.216188,-0.222635 0.204082,-0.222635 z" />
  <path
     id="path11-3"
     style="fill:#4d4d4d;fill-opacity:1;stroke:none;stroke-width:0.49653;stroke-dasharray:none;stroke-opacity:0.6"
     d="m 32.002967,16.80923 c -1.109573,0 -2.218849,0.01381 -2.82531,0.04225 -6.013249,0.28238 -10.218972,1.266498 -11.63934,2.723265 -0.607115,0.622676 -0.870416,1.501786 -0.659685,2.206859 0.458736,1.534838 2.40309,2.603278 6.143329,3.374706 2.301914,0.474772 4.862031,0.742825 7.645144,0.8009 4.389836,0.09156 8.249322,-0.263374 11.411533,-1.049312 1.674631,-0.416213 2.840188,-0.874685 3.724139,-1.46471 1.821381,-1.21576 1.857749,-3.15204 0.08248,-4.339501 C 44.091509,17.903884 40.151115,17.101439 34.8283,16.85148 34.221836,16.82301 33.112561,16.80923 32.002987,16.80923 Z m 0.04124,2.847991 c 4.396925,0.0037 8.63386,0.459347 10.766277,1.227635 0.272113,0.09804 0.530706,0.188591 0.574142,0.202032 0.06039,0.01872 0.07615,0.0617 0.06597,0.181407 -0.01266,0.152353 -0.02428,0.1612 -0.408193,0.324692 -1.617691,0.688811 -4.199483,1.158765 -7.885282,1.436876 -0.789941,0.05962 -4.657456,0.08927 -5.541359,0.04224 -2.239603,-0.11912 -4.204902,-0.350988 -5.962968,-0.702975 -1.052934,-0.210806 -1.76819,-0.413565 -2.514027,-0.712252 l -0.570005,-0.227798 -0.01339,-0.158736 c -0.01023,-0.121777 0.0054,-0.164709 0.06597,-0.183471 0.04343,-0.01344 0.302039,-0.103983 0.574134,-0.202031 1.362195,-0.490781 3.63528,-0.868449 6.470076,-1.075079 1.429087,-0.104181 2.913026,-0.153799 4.378663,-0.152553 z m -10.686904,5.436226 -0.152549,0.115448 c -0.271583,0.203745 -0.640512,0.604667 -0.806053,0.877182 -0.583107,0.959893 -0.473345,2.065382 0.295826,2.993324 1.372667,1.656003 5.141454,2.916076 9.534525,3.187108 2.497702,0.154092 5.406899,-0.06311 7.63896,-0.568981 4.019807,-0.911053 6.247102,-2.552504 6.104154,-4.499266 -0.02912,-0.39941 -0.14372,-0.748054 -0.364901,-1.112187 -0.165496,-0.272518 -0.534467,-0.673434 -0.806049,-0.877181 l -0.152514,-0.115448 -0.525687,0.128843 c -1.640528,0.402164 -4.108922,0.779717 -5.892868,0.900887 l -0.459715,0.03091 0.689576,0.07731 c 1.705376,0.192397 3.17922,0.537713 3.953986,0.925625 0.285334,0.142877 0.326795,0.183202 0.327781,0.319531 0.0016,0.20733 -1.217071,0.7931 -2.359407,1.133836 -1.86648,0.556729 -3.953571,0.827693 -6.379379,0.827693 -2.432892,0 -4.587685,-0.281893 -6.442247,-0.843163 -1.082794,-0.327674 -2.29803,-0.919859 -2.296552,-1.11836 9.9e-4,-0.136721 0.04222,-0.17657 0.327783,-0.319536 0.774782,-0.387897 2.248633,-0.733213 3.954003,-0.925608 l 0.68958,-0.0773 -0.459722,-0.03093 C 25.99189,26.002025 23.523494,25.624462 21.88298,25.222301 Z m 2.743883,6.352569 -0.17935,0.193782 c -0.26436,0.286794 -0.508809,0.685843 -0.622585,1.017362 -0.14481,0.421974 -0.13554,1.010923 0.02167,1.420385 0.32174,0.838079 1.091442,1.515191 2.261488,1.989368 1.129868,0.45789 2.73842,0.793467 4.448759,0.928713 0.700973,0.05541 3.149149,0.05808 3.835456,0.0044 2.34313,-0.184276 4.20828,-0.646126 5.388795,-1.335849 0.504794,-0.294915 1.107576,-0.896298 1.303914,-1.299787 0.454729,-0.934513 0.286954,-1.897475 -0.47518,-2.724297 l -0.178324,-0.193783 -0.315404,0.107184 c -1.083749,0.369205 -3.046895,0.764731 -4.564212,0.919351 l -0.307169,0.03091 0.57001,0.104115 c 0.708052,0.129266 1.324231,0.293753 1.653339,0.440133 0.233983,0.104071 0.251516,0.12188 0.251516,0.257693 0,0.180959 -0.08061,0.228074 -0.657626,0.383444 -2.495531,0.671951 -6.414665,0.683727 -8.962442,0.02678 -0.667509,-0.172121 -0.761732,-0.223124 -0.761732,-0.410256 0,-0.135811 0.01753,-0.153629 0.251508,-0.257689 0.329104,-0.14639 0.945285,-0.310866 1.653335,-0.440133 l 0.570008,-0.104115 -0.307168,-0.03091 C 27.44318,32.316068 25.446147,31.90996 24.350613,31.531572 Z m 7.832742,6.602019 c -1.088542,0.0042 -2.187619,0.05849 -3.129387,0.162855 -3.024233,0.334975 -5.299463,1.209688 -5.478486,2.104811 -0.05705,0.285265 0.318388,0.734637 0.874084,1.045189 1.123601,0.627942 3.299946,1.130489 5.590838,1.291549 0.373456,0.02637 0.777323,0.05508 0.89779,0.06394 0.493439,0.03639 3.159476,-0.02075 3.811751,-0.08137 2.845731,-0.264585 4.961923,-0.864265 5.819668,-1.648191 0.450828,-0.412023 0.473303,-0.739889 0.0762,-1.136931 -0.755361,-0.755421 -2.786242,-1.381677 -5.392912,-1.662653 -0.902873,-0.09731 -1.981064,-0.14331 -3.069604,-0.139139 z m -8.505831,1.145177 c -0.01203,0 -0.305867,0.09693 -0.653501,0.215425 -1.976086,0.673564 -3.276251,1.539493 -3.751964,2.498562 -0.152695,0.307842 -0.16183,0.349335 -0.16183,0.746273 0,0.400774 0.0085,0.437405 0.171108,0.766875 0.705636,1.427769 3.405372,2.688232 7.12255,3.325239 1.121373,0.19218 2.570898,0.354121 3.921008,0.437037 0.144567,0.0087 1.150445,0.01089 2.234688,0.0043 2.030436,-0.01166 2.662383,-0.04773 4.227146,-0.243279 4.345812,-0.543152 7.645125,-1.921344 8.436768,-3.523135 0.162817,-0.329432 0.171079,-0.366102 0.171079,-0.766884 0,-0.401237 -0.008,-0.436896 -0.172099,-0.768943 -0.369322,-0.747312 -1.369187,-1.514217 -2.74079,-2.101721 -0.32208,-0.13799 -1.590553,-0.589593 -1.6554,-0.589593 -0.01203,0 0.07684,0.0953 0.198935,0.212365 0.406715,0.389951 0.559662,0.848476 0.430853,1.291544 -0.142527,0.490326 -0.586427,0.900652 -1.405956,1.299783 -1.278406,0.62262 -3.054061,1.018133 -5.541367,1.234857 -0.964702,0.08411 -3.768225,0.07044 -4.775508,-0.0239 -3.857127,-0.360667 -6.329395,-1.289692 -6.684475,-2.511131 -0.128747,-0.442863 0.01542,-0.878442 0.424674,-1.281235 0.124278,-0.122348 0.216188,-0.222635 0.204082,-0.222635 z" />
</svg>
