<?xml version="1.0" encoding="UTF-8" standalone="no"?>
<svg
   width="64"
   height="64"
   version="1.1"
   id="svg73"
   sodipodi:docname="abcd.svg"
   inkscape:version="1.4.2 (ebf0e940d0, 2025-05-08)"
   xmlns:inkscape="http://www.inkscape.org/namespaces/inkscape"
   xmlns:sodipodi="http://sodipodi.sourceforge.net/DTD/sodipodi-0.dtd"
   xmlns:xlink="http://www.w3.org/1999/xlink"
   xmlns="http://www.w3.org/2000/svg"
   xmlns:svg="http://www.w3.org/2000/svg"
   xmlns:rdf="http://www.w3.org/1999/02/22-rdf-syntax-ns#"
   xmlns:cc="http://creativecommons.org/ns#"
   xmlns:dc="http://purl.org/dc/elements/1.1/">
  <metadata
     id="metadata77">
    <rdf:RDF>
      <cc:Work
         rdf:about="">
        <dc:format>image/svg+xml</dc:format>
        <dc:type
           rdf:resource="http://purl.org/dc/dcmitype/StillImage" />
      </cc:Work>
    </rdf:RDF>
  </metadata>
  <sodipodi:namedview
     pagecolor="#f5f7fa"
     bordercolor="#666666"
     borderopacity="1"
     objecttolerance="10"
     gridtolerance="10"
     guidetolerance="10"
     inkscape:pageopacity="0"
     inkscape:pageshadow="2"
     inkscape:window-width="1320"
     inkscape:window-height="766"
     id="namedview75"
     showgrid="false"
     inkscape:zoom="4.4470387"
     inkscape:cx="53.518761"
     inkscape:cy="22.37444"
     inkscape:window-x="24"
     inkscape:window-y="21"
     inkscape:window-maximized="0"
     inkscape:current-layer="svg73"
     inkscape:document-rotation="0"
     inkscape:pagecheckerboard="0"
     inkscape:showpageshadow="2"
     inkscape:deskcolor="#d1d1d1" />
  <defs
     id="defs29">
    <linearGradient
       id="linearGradient4"
       inkscape:collect="always">
      <stop
         style="stop-color:#a8ac5e;stop-opacity:1;"
         offset="0"
         id="stop4" />
      <stop
         style="stop-color:#bec181;stop-opacity:1;"
         offset="0.5"
         id="stop1" />
    </linearGradient>
    <linearGradient
       id="linearGradient2"
       inkscape:collect="always">
      <stop
         style="stop-color:#f4f4ec;stop-opacity:1;"
         offset="0"
         id="stop2" />
      <stop
         style="stop-color:#e8e9d8;stop-opacity:1;"
         offset="1"
         id="stop3" />
    </linearGradient>
    <linearGradient
       inkscape:collect="always"
       xlink:href="#linearGradient2"
       id="linearGradient8"
       x1="31.721739"
       y1="5.2278585"
       x2="31.88887"
       y2="59.145416"
       gradientUnits="userSpaceOnUse"
       gradientTransform="matrix(0.8505,0,0,0.8505,4.7765033,4.7794869)" />
    <filter
       style="color-interpolation-filters:sRGB;"
       inkscape:label="Blur"
       id="filter9"
       x="-0.047762285"
       y="-0.047489063"
       width="1.0955246"
       height="1.0949781">
      <feGaussianBlur
         stdDeviation="1 1"
         result="blur"
         id="feGaussianBlur9" />
    </filter>
    <linearGradient
       inkscape:collect="always"
       xlink:href="#linearGradient4"
       id="linearGradient7"
       x1="26.723248"
       y1="58.711765"
       x2="25.756926"
       y2="5.950614"
       gradientUnits="userSpaceOnUse" />
    <filter
       style="color-interpolation-filters:sRGB;"
       inkscape:label="Out of Focus"
       id="filter40"
       x="-0.24226652"
       y="-0.2858297"
       width="1.484533"
       height="1.5716594">
      <feFlood
         flood-opacity="1"
         flood-color="rgb(255,255,255)"
         result="flood"
         id="feFlood38" />
      <feColorMatrix
         in="SourceGraphic"
         values="1 0 0 0 0 0 1 0 0 0 0 0 1 0 0 -0.2125 -0.7154 -0.0721 1 0 "
         result="colormatrix1"
         id="feColorMatrix38" />
      <feGaussianBlur
         in="colormatrix1"
         stdDeviation="3 3"
         result="blur"
         id="feGaussianBlur38" />
      <feColorMatrix
         in="blur"
         values="1 0 0 0 0 0 1 0 0 0 0 0 1 0 0 0 0 0 6 -2 "
         result="colormatrix2"
         id="feColorMatrix39" />
      <feBlend
         in="colormatrix2"
         in2="flood"
         mode="normal"
         result="blend"
         id="feBlend39" />
      <feComposite
         in="blend"
         in2="blend"
         operator="arithmetic"
         k2="0.2"
         result="composite1"
         id="feComposite39" />
      <feComposite
         in2="SourceGraphic"
         operator="in"
         id="feComposite40" />
    </filter>
  </defs>
  <g
     id="g877"
     transform="matrix(1.1,0,0,1.1,-3.1845928,-3.2065454)">
    <ellipse
       style="opacity:0.5;fill:#000000;stroke:none;stroke-width:3.89319;stroke-dasharray:none;stroke-opacity:1;filter:url(#filter9)"
       id="path2-5"
       cx="31.949858"
       cy="31.969812"
       rx="25.124426"
       ry="25.268976"
       transform="matrix(1.05,0,0,1.05,-1.5974929,-1.5984906)" />
    <path
       style="fill:#f5f7fa;stroke-width:0.204426;fill-opacity:1"
       d=""
       id="path3" />
    <circle
       style="opacity:1;fill:url(#linearGradient8);stroke:url(#linearGradient7);stroke-width:3.81818;stroke-dasharray:none;stroke-opacity:1"
       id="path2"
       cx="31.949856"
       cy="31.969812"
       r="24.711082" />
    <ellipse
       style="opacity:0.3;fill:none;stroke:#000000;stroke-width:0.974376;stroke-dasharray:none;stroke-opacity:1"
       id="path2-9"
       cx="31.949856"
       cy="31.969812"
       rx="23.129124"
       ry="23.129126" />
  </g>
  <path
     style="fill:#000000;fill-opacity:1;stroke:none;stroke-width:0.467775;stroke-dasharray:none;stroke-dashoffset:2.2;stroke-opacity:0.6;opacity:0.2"
     d="M 31.504889,49.382335 C 30.089188,48.85392 28.061514,47.588917 26.703765,46.387071 22.115157,42.325333 19.533391,34.593687 19.750146,25.562976 c 0.05889,-2.454467 0.150554,-2.942382 0.597593,-3.18163 0.585373,-0.313282 11.326043,-3.865302 11.6774,-3.861804 0.219518,0.0023 2.840961,0.834272 6.028627,1.913577 6.642877,2.2492 6.04614,1.881358 6.166716,3.801281 0.114501,1.823662 -0.01671,5.690179 -0.25244,7.441781 -0.50734,3.768817 -1.310816,6.551817 -2.698886,9.348137 -1.786358,3.598678 -4.284504,6.159414 -7.596141,7.786462 -1.459176,0.716914 -1.646452,0.766282 -2.168158,0.571555 z m 1.691273,-12.09014 c 1.873782,-2.569497 3.486529,-4.838851 3.583887,-5.043009 0.261059,-0.547453 0.231568,-1.154633 -0.07076,-1.456971 -0.372366,-0.372363 -0.908794,-0.47264 -2.531773,-0.47328 l -1.473943,-5.82e-4 0.782199,-2.115083 c 0.930075,-2.51494 0.998114,-2.874356 0.616395,-3.256074 -0.262826,-0.262822 -0.3021,-0.269062 -1.694191,-0.269062 -1.598096,0 -1.964236,0.102586 -2.398629,0.672118 -0.337005,0.44183 -2.765989,7.575731 -2.765989,8.123669 0,0.315823 0.07114,0.482875 0.305308,0.717057 l 0.305309,0.305308 h 1.351627 1.351621 l -0.615298,3.625173 c -0.338411,1.993844 -0.590653,3.689383 -0.560538,3.767869 0.03013,0.07851 0.134218,0.127393 0.231329,0.108647 0.09712,-0.01866 1.709669,-2.13632 3.583451,-4.705818 z"
     id="path83-5" />
  <path
     style="fill:#4d4d4d;fill-opacity:1;stroke:none;stroke-width:0.467775;stroke-dasharray:none;stroke-dashoffset:2.2;stroke-opacity:0.6"
     d="M 31.504889,47.382335 C 30.089188,46.85392 28.061514,45.588917 26.703765,44.387071 22.115157,40.325333 19.533391,32.593687 19.750146,23.562976 c 0.05889,-2.454467 0.150554,-2.942382 0.597593,-3.18163 0.585373,-0.313282 11.326043,-3.865302 11.6774,-3.861804 0.219518,0.0023 2.840961,0.834272 6.028627,1.913577 6.642877,2.2492 6.04614,1.881358 6.166716,3.801281 0.114501,1.823662 -0.01671,5.690179 -0.25244,7.441781 -0.50734,3.768817 -1.310816,6.551817 -2.698886,9.348137 -1.786358,3.598678 -4.284504,6.159414 -7.596141,7.786462 -1.459176,0.716914 -1.646452,0.766282 -2.168158,0.571555 z m 1.691273,-12.09014 c 1.873782,-2.569497 3.486529,-4.838851 3.583887,-5.043009 0.261059,-0.547453 0.231568,-1.154633 -0.07076,-1.456971 -0.372366,-0.372363 -0.908794,-0.47264 -2.531773,-0.47328 l -1.473943,-5.82e-4 0.782199,-2.115083 c 0.930075,-2.51494 0.998114,-2.874356 0.616395,-3.256074 -0.262826,-0.262822 -0.3021,-0.269062 -1.694191,-0.269062 -1.598096,0 -1.964236,0.102586 -2.398629,0.672118 -0.337005,0.44183 -2.765989,7.575731 -2.765989,8.123669 0,0.315823 0.07114,0.482875 0.305308,0.717057 l 0.305309,0.305308 h 1.351627 1.351621 l -0.615298,3.625173 c -0.338411,1.993844 -0.590653,3.689383 -0.560538,3.767869 0.03013,0.07851 0.134218,0.127393 0.231329,0.108647 0.09712,-0.01866 1.709669,-2.13632 3.583451,-4.705818 z"
     id="path83" />
</svg>
