<?xml version="1.0" encoding="UTF-8" standalone="no"?>
<svg
   width="64"
   height="64"
   version="1.1"
   id="svg73"
   sodipodi:docname="abcd.svg"
   inkscape:version="1.4.2 (ebf0e940d0, 2025-05-08)"
   xmlns:inkscape="http://www.inkscape.org/namespaces/inkscape"
   xmlns:sodipodi="http://sodipodi.sourceforge.net/DTD/sodipodi-0.dtd"
   xmlns:xlink="http://www.w3.org/1999/xlink"
   xmlns="http://www.w3.org/2000/svg"
   xmlns:svg="http://www.w3.org/2000/svg"
   xmlns:rdf="http://www.w3.org/1999/02/22-rdf-syntax-ns#"
   xmlns:cc="http://creativecommons.org/ns#"
   xmlns:dc="http://purl.org/dc/elements/1.1/">
  <metadata
     id="metadata77">
    <rdf:RDF>
      <cc:Work
         rdf:about="">
        <dc:format>image/svg+xml</dc:format>
        <dc:type
           rdf:resource="http://purl.org/dc/dcmitype/StillImage" />
      </cc:Work>
    </rdf:RDF>
  </metadata>
  <sodipodi:namedview
     pagecolor="#f5f7fa"
     bordercolor="#666666"
     borderopacity="1"
     objecttolerance="10"
     gridtolerance="10"
     guidetolerance="10"
     inkscape:pageopacity="0"
     inkscape:pageshadow="2"
     inkscape:window-width="1320"
     inkscape:window-height="766"
     id="namedview75"
     showgrid="false"
     inkscape:zoom="4.4470387"
     inkscape:cx="53.518761"
     inkscape:cy="22.37444"
     inkscape:window-x="24"
     inkscape:window-y="21"
     inkscape:window-maximized="0"
     inkscape:current-layer="svg73"
     inkscape:document-rotation="0"
     inkscape:pagecheckerboard="0"
     inkscape:showpageshadow="2"
     inkscape:deskcolor="#d1d1d1" />
  <defs
     id="defs29">
    <linearGradient
       id="linearGradient4"
       inkscape:collect="always">
      <stop
         style="stop-color:#a8ac5e;stop-opacity:1;"
         offset="0"
         id="stop4" />
      <stop
         style="stop-color:#bec181;stop-opacity:1;"
         offset="0.5"
         id="stop1" />
    </linearGradient>
    <linearGradient
       id="linearGradient2"
       inkscape:collect="always">
      <stop
         style="stop-color:#f4f4ec;stop-opacity:1;"
         offset="0"
         id="stop2" />
      <stop
         style="stop-color:#e8e9d8;stop-opacity:1;"
         offset="1"
         id="stop3" />
    </linearGradient>
    <linearGradient
       inkscape:collect="always"
       xlink:href="#linearGradient2"
       id="linearGradient8"
       x1="31.721739"
       y1="5.2278585"
       x2="31.88887"
       y2="59.145416"
       gradientUnits="userSpaceOnUse"
       gradientTransform="matrix(0.8505,0,0,0.8505,4.7765033,4.7794869)" />
    <filter
       style="color-interpolation-filters:sRGB;"
       inkscape:label="Blur"
       id="filter9"
       x="-0.047762285"
       y="-0.047489063"
       width="1.0955246"
       height="1.0949781">
      <feGaussianBlur
         stdDeviation="1 1"
         result="blur"
         id="feGaussianBlur9" />
    </filter>
    <linearGradient
       inkscape:collect="always"
       xlink:href="#linearGradient4"
       id="linearGradient7"
       x1="26.723248"
       y1="58.711765"
       x2="25.756926"
       y2="5.950614"
       gradientUnits="userSpaceOnUse" />
    <filter
       style="color-interpolation-filters:sRGB;"
       inkscape:label="Out of Focus"
       id="filter40"
       x="-0.24226652"
       y="-0.2858297"
       width="1.484533"
       height="1.5716594">
      <feFlood
         flood-opacity="1"
         flood-color="rgb(255,255,255)"
         result="flood"
         id="feFlood38" />
      <feColorMatrix
         in="SourceGraphic"
         values="1 0 0 0 0 0 1 0 0 0 0 0 1 0 0 -0.2125 -0.7154 -0.0721 1 0 "
         result="colormatrix1"
         id="feColorMatrix38" />
      <feGaussianBlur
         in="colormatrix1"
         stdDeviation="3 3"
         result="blur"
         id="feGaussianBlur38" />
      <feColorMatrix
         in="blur"
         values="1 0 0 0 0 0 1 0 0 0 0 0 1 0 0 0 0 0 6 -2 "
         result="colormatrix2"
         id="feColorMatrix39" />
      <feBlend
         in="colormatrix2"
         in2="flood"
         mode="normal"
         result="blend"
         id="feBlend39" />
      <feComposite
         in="blend"
         in2="blend"
         operator="arithmetic"
         k2="0.2"
         result="composite1"
         id="feComposite39" />
      <feComposite
         in2="SourceGraphic"
         operator="in"
         id="feComposite40" />
    </filter>
  </defs>
  <g
     id="g877"
     transform="matrix(1.1,0,0,1.1,-3.1845928,-3.2065454)">
    <ellipse
       style="opacity:0.5;fill:#000000;stroke:none;stroke-width:3.89319;stroke-dasharray:none;stroke-opacity:1;filter:url(#filter9)"
       id="path2-5"
       cx="31.949858"
       cy="31.969812"
       rx="25.124426"
       ry="25.268976"
       transform="matrix(1.05,0,0,1.05,-1.5974929,-1.5984906)" />
    <path
       style="fill:#f5f7fa;stroke-width:0.204426;fill-opacity:1"
       d=""
       id="path3" />
    <circle
       style="opacity:1;fill:url(#linearGradient8);stroke:url(#linearGradient7);stroke-width:3.81818;stroke-dasharray:none;stroke-opacity:1"
       id="path2"
       cx="31.949856"
       cy="31.969812"
       r="24.711082" />
    <ellipse
       style="opacity:0.3;fill:none;stroke:#000000;stroke-width:0.974376;stroke-dasharray:none;stroke-opacity:1"
       id="path2-9"
       cx="31.949856"
       cy="31.969812"
       rx="23.129124"
       ry="23.129126" />
  </g>
  <path
     id="path1-0"
     style="fill:#000000;fill-opacity:1;stroke-width:0.281949;opacity:0.2"
     d="m 26.751268,18.496812 c -0.330003,0.01045 -0.591229,0.06327 -0.930666,0.135175 -3.325995,0.704583 -5.503758,4.2126 -4.660922,7.508052 0.29598,1.157273 0.768039,1.961992 1.68877,2.87912 1.246406,1.24153 2.578669,1.803498 4.28187,1.806214 1.39247,0.0024 2.495896,-0.361782 3.686568,-1.216049 0.382231,-0.274238 0.766384,-0.49761 0.853703,-0.496367 0.205838,0.0029 3.772756,0.80302 3.801952,0.852805 0.01222,0.02081 0.168938,0.332408 0.348341,0.692443 0.793486,1.592418 2.52929,2.863363 4.372969,3.201894 0.83471,0.153269 1.170357,0.159886 1.920573,0.03816 1.372449,-0.222677 2.642365,-0.866636 3.544585,-1.797473 2.96744,-3.061576 2.120542,-7.95539 -1.705859,-9.857147 -0.69271,-0.344281 -1.354522,-0.50653 -8.41148,-2.06217 -6.191994,-1.364967 -7.800387,-1.715877 -8.790404,-1.68466 z m 0.566266,2.448033 c 0.510382,-0.005 1.312181,0.20761 1.422664,0.442397 0.04087,0.08685 0.09714,0.592514 0.125024,1.123793 l 0.05075,0.966003 0.798835,0.367744 c 1.017627,0.4684 1.117544,0.617712 0.955855,1.429347 -0.179296,0.899996 -0.354288,1.017143 -1.520449,1.017143 H 28.22006 l -0.383292,0.82235 c -0.210861,0.452292 -0.453607,0.875177 -0.53941,0.939791 -0.303445,0.228514 -1.56875,-0.0043 -1.758028,-0.323414 -0.05542,-0.09348 -0.121923,-0.604632 -0.147766,-1.135872 l -0.04702,-0.965874 -0.770696,-0.358107 c -0.423944,-0.196941 -0.836367,-0.412463 -0.916408,-0.478892 -0.171942,-0.142697 -0.184031,-0.472777 -0.04163,-1.136768 0.164609,-0.767562 0.289086,-0.840596 1.433199,-0.840596 h 0.9732 l 0.386506,-0.83173 c 0.212547,-0.457463 0.451879,-0.88618 0.531955,-0.952639 0.06896,-0.05723 0.206742,-0.08302 0.376869,-0.08468 z m 14.572032,2.822198 c 0.508581,0.0047 1.017795,0.275219 1.276311,0.809245 0.319658,0.660327 0.08325,1.506677 -0.509336,1.823815 -0.793181,0.424498 -1.698591,0.154715 -2.045597,-0.609564 -0.227911,-0.501968 -0.22662,-0.757684 0.0059,-1.238022 0.256192,-0.529226 0.764132,-0.790216 1.272711,-0.785474 z m -3.015452,2.030819 c 0.207549,0.0096 0.410495,0.05798 0.582326,0.147124 0.889188,0.461381 0.950136,1.814515 0.109989,2.440706 -0.143417,0.106898 -0.446166,0.202411 -0.704778,0.22242 -1.429298,0.1106 -2.087907,-1.669895 -0.941205,-2.544527 0.249015,-0.189935 0.607751,-0.281693 0.953668,-0.265723 z m 4.891564,1.129703 c 0.487857,-0.02082 0.99134,0.194362 1.292375,0.598259 0.474679,0.63688 0.222815,1.689156 -0.491482,2.053562 -0.911825,0.46518 -1.950068,-0.0436 -2.118066,-1.037959 -0.08309,-0.491863 0.246811,-1.185822 0.682038,-1.434744 0.194886,-0.111462 0.413386,-0.169647 0.635135,-0.179118 z m -2.998362,1.995613 c 1.133546,-7.67e-4 1.79477,1.126605 1.234169,2.104441 -0.115455,0.201382 -0.357247,0.444599 -0.537355,0.540441 -1.212448,0.645158 -2.543038,-0.584337 -1.988675,-1.837568 0.244225,-0.552108 0.651808,-0.806856 1.291861,-0.807314 z m -12.640154,4.202203 c -0.01915,-5.08e-4 -0.03995,-5.08e-4 -0.06271,2.49e-4 -0.303288,0.0111 -0.951351,0.154956 -2.666337,0.536969 -1.515697,0.337619 -2.809733,0.658676 -2.875655,0.713389 -0.06592,0.05471 -0.143032,0.192911 -0.17128,0.307096 -0.08079,0.326595 1.090734,5.47239 1.298027,5.701451 0.09559,0.105622 0.271886,0.192097 0.391774,0.192097 0.320656,0 5.249539,-1.09535 5.477231,-1.217209 0.106887,-0.0572 0.220473,-0.207937 0.252358,-0.334976 0.03451,-0.137487 -0.183704,-1.321338 -0.539281,-2.92561 -0.539623,-2.434637 -0.620506,-2.711803 -0.837382,-2.872307 -0.07843,-0.05803 -0.132545,-0.09679 -0.26675,-0.101123 z m -2.24784,2.382629 c 0.219392,-0.0095 0.520771,0.306453 1.089611,0.921416 0.838607,0.906602 0.996519,1.20143 0.748725,1.397867 -0.06461,0.05122 -0.624931,0.204527 -1.245217,0.340761 -1.164307,0.255726 -1.474545,0.291962 -1.582122,0.184388 -0.13033,-0.130334 -0.03748,-0.583663 0.343203,-1.676052 0.271628,-0.779445 0.412254,-1.158299 0.6458,-1.16838 z m 11.079232,3.28734 c -0.133139,0.0025 -1.400895,0.266826 -2.817319,0.587469 -2.342462,0.530274 -2.591939,0.60531 -2.759367,0.8307 l -0.184132,0.24786 0.593894,2.712597 c 0.481474,2.199312 0.63371,2.752652 0.804871,2.924098 0.116115,0.1163 0.255557,0.211495 0.309797,0.211495 0.192375,0 5.223377,-1.130874 5.432775,-1.221187 0.468722,-0.202155 0.46099,-0.354784 -0.163827,-3.209733 -0.620664,-2.835974 -0.721871,-3.0923 -1.216692,-3.083299 z m -7.2634,1.655753 c -0.41212,0.0065 -1.167256,0.169782 -2.635119,0.49585 -1.46039,0.324408 -2.731322,0.630105 -2.824255,0.679336 -0.369639,0.195819 -0.350636,0.426691 0.265207,3.232863 0.493961,2.250792 0.631245,2.745196 0.800764,2.882462 0.112539,0.09112 0.252836,0.166068 0.311722,0.166525 0.05887,0.0011 1.291216,-0.258098 2.738551,-0.574744 2.76256,-0.604381 3.054514,-0.716752 3.054514,-1.176085 0,-0.228637 -0.980471,-4.774745 -1.134587,-5.260728 -0.09562,-0.301548 -0.164679,-0.451943 -0.576797,-0.445479 z m 4.264908,0.747953 c 0.20894,0.0021 0.551125,0.110248 1.075351,0.272272 1.255104,0.38792 1.540105,0.534252 1.540105,0.790871 0,0.103279 -0.399447,0.554412 -0.955212,1.078688 -0.525383,0.495621 -1.003705,0.90112 -1.062883,0.90112 -0.296594,0 -0.423454,-0.286008 -0.676769,-1.524822 -0.232698,-1.137987 -0.319477,-1.521861 0.07942,-1.518129 z m -11.581379,0.882226 c -0.397167,-0.0063 -1.166232,0.154307 -2.782882,0.512167 -2.245971,0.497168 -2.732618,0.633728 -2.871412,0.805133 -0.09192,0.113512 -0.167294,0.275688 -0.167426,0.360421 -1.92e-4,0.08474 0.26275,1.336723 0.584125,2.782238 0.400293,1.800488 0.637127,2.681051 0.752065,2.795993 0.09228,0.09227 0.273655,0.167805 0.403081,0.167805 0.468687,0 5.354064,-1.138909 5.516679,-1.286073 0.09025,-0.0817 0.187497,-0.222305 0.216124,-0.312495 0.05228,-0.164717 -1.002412,-5.123224 -1.174675,-5.522591 -0.08287,-0.192138 -0.166772,-0.297781 -0.475679,-0.302598 z m 6.3168,0.507027 c 0.22907,0.0087 0.308492,0.09219 0.339605,0.254031 0.01384,0.072 -0.158837,0.680657 -0.383679,1.352636 -0.543797,1.625249 -0.558325,1.627738 -1.790663,0.313008 -0.497898,-0.531185 -0.905228,-1.01674 -0.905228,-1.079078 0,-0.252268 0.32211,-0.39102 1.502713,-0.647086 0.629491,-0.136534 1.008181,-0.202286 1.237252,-0.193511 z m -7.74833,1.479333 c 0.07835,-0.0015 0.138326,0.0359 0.19325,0.103818 0.110797,0.136967 0.585797,2.208218 0.585797,2.554299 0,0.136243 -0.07634,0.276024 -0.181686,0.332408 -0.09998,0.05352 -0.195181,0.09389 -0.211498,0.08982 -0.22619,-0.05637 -2.320396,-0.811773 -2.404861,-0.867451 -0.257767,-0.169917 -0.07519,-0.459949 0.833658,-1.324111 0.664449,-0.631781 0.985063,-0.885635 1.18534,-0.888778 z" />
  <path
     id="path1"
     style="fill:#4d4d4d;fill-opacity:1;stroke-width:0.281949"
     d="m 26.751268,16.496812 c -0.330003,0.01045 -0.591229,0.06327 -0.930666,0.135175 -3.325995,0.704583 -5.503758,4.2126 -4.660922,7.508052 0.29598,1.157273 0.768039,1.961992 1.68877,2.87912 1.246406,1.24153 2.578669,1.803498 4.28187,1.806214 1.39247,0.0024 2.495896,-0.361782 3.686568,-1.216049 0.382231,-0.274238 0.766384,-0.49761 0.853703,-0.496367 0.205838,0.0029 3.772756,0.80302 3.801952,0.852805 0.01222,0.02081 0.168938,0.332408 0.348341,0.692443 0.793486,1.592418 2.52929,2.863363 4.372969,3.201894 0.83471,0.153269 1.170357,0.159886 1.920573,0.03816 1.372449,-0.222677 2.642365,-0.866636 3.544585,-1.797473 2.96744,-3.061576 2.120542,-7.95539 -1.705859,-9.857147 -0.69271,-0.344281 -1.354522,-0.50653 -8.41148,-2.06217 -6.191994,-1.364967 -7.800387,-1.715877 -8.790404,-1.68466 z m 0.566266,2.448033 c 0.510382,-0.005 1.312181,0.20761 1.422664,0.442397 0.04087,0.08685 0.09714,0.592514 0.125024,1.123793 l 0.05075,0.966003 0.798835,0.367744 c 1.017627,0.4684 1.117544,0.617712 0.955855,1.429347 -0.179296,0.899996 -0.354288,1.017143 -1.520449,1.017143 H 28.22006 l -0.383292,0.82235 c -0.210861,0.452292 -0.453607,0.875177 -0.53941,0.939791 -0.303445,0.228514 -1.56875,-0.0043 -1.758028,-0.323414 -0.05542,-0.09348 -0.121923,-0.604632 -0.147766,-1.135872 l -0.04702,-0.965874 -0.770696,-0.358107 c -0.423944,-0.196941 -0.836367,-0.412463 -0.916408,-0.478892 -0.171942,-0.142697 -0.184031,-0.472777 -0.04163,-1.136768 0.164609,-0.767562 0.289086,-0.840596 1.433199,-0.840596 h 0.9732 l 0.386506,-0.83173 c 0.212547,-0.457463 0.451879,-0.88618 0.531955,-0.952639 0.06896,-0.05723 0.206742,-0.08302 0.376869,-0.08468 z m 14.572032,2.822198 c 0.508581,0.0047 1.017795,0.275219 1.276311,0.809245 0.319658,0.660327 0.08325,1.506677 -0.509336,1.823815 -0.793181,0.424498 -1.698591,0.154715 -2.045597,-0.609564 -0.227911,-0.501968 -0.22662,-0.757684 0.0059,-1.238022 0.256192,-0.529226 0.764132,-0.790216 1.272711,-0.785474 z m -3.015452,2.030819 c 0.207549,0.0096 0.410495,0.05798 0.582326,0.147124 0.889188,0.461381 0.950136,1.814515 0.109989,2.440706 -0.143417,0.106898 -0.446166,0.202411 -0.704778,0.22242 -1.429298,0.1106 -2.087907,-1.669895 -0.941205,-2.544527 0.249015,-0.189935 0.607751,-0.281693 0.953668,-0.265723 z m 4.891564,1.129703 c 0.487857,-0.02082 0.99134,0.194362 1.292375,0.598259 0.474679,0.63688 0.222815,1.689156 -0.491482,2.053562 -0.911825,0.46518 -1.950068,-0.0436 -2.118066,-1.037959 -0.08309,-0.491863 0.246811,-1.185822 0.682038,-1.434744 0.194886,-0.111462 0.413386,-0.169647 0.635135,-0.179118 z m -2.998362,1.995613 c 1.133546,-7.67e-4 1.79477,1.126605 1.234169,2.104441 -0.115455,0.201382 -0.357247,0.444599 -0.537355,0.540441 -1.212448,0.645158 -2.543038,-0.584337 -1.988675,-1.837568 0.244225,-0.552108 0.651808,-0.806856 1.291861,-0.807314 z m -12.640154,4.202203 c -0.01915,-5.08e-4 -0.03995,-5.08e-4 -0.06271,2.49e-4 -0.303288,0.0111 -0.951351,0.154956 -2.666337,0.536969 -1.515697,0.337619 -2.809733,0.658676 -2.875655,0.713389 -0.06592,0.05471 -0.143032,0.192911 -0.17128,0.307096 -0.08079,0.326595 1.090734,5.47239 1.298027,5.701451 0.09559,0.105622 0.271886,0.192097 0.391774,0.192097 0.320656,0 5.249539,-1.09535 5.477231,-1.217209 0.106887,-0.0572 0.220473,-0.207937 0.252358,-0.334976 0.03451,-0.137487 -0.183704,-1.321338 -0.539281,-2.92561 -0.539623,-2.434637 -0.620506,-2.711803 -0.837382,-2.872307 -0.07843,-0.05803 -0.132545,-0.09679 -0.26675,-0.101123 z m -2.24784,2.382629 c 0.219392,-0.0095 0.520771,0.306453 1.089611,0.921416 0.838607,0.906602 0.996519,1.20143 0.748725,1.397867 -0.06461,0.05122 -0.624931,0.204527 -1.245217,0.340761 -1.164307,0.255726 -1.474545,0.291962 -1.582122,0.184388 -0.13033,-0.130334 -0.03748,-0.583663 0.343203,-1.676052 0.271628,-0.779445 0.412254,-1.158299 0.6458,-1.16838 z m 11.079232,3.28734 c -0.133139,0.0025 -1.400895,0.266826 -2.817319,0.587469 -2.342462,0.530274 -2.591939,0.60531 -2.759367,0.8307 l -0.184132,0.24786 0.593894,2.712597 c 0.481474,2.199312 0.63371,2.752652 0.804871,2.924098 0.116115,0.1163 0.255557,0.211495 0.309797,0.211495 0.192375,0 5.223377,-1.130874 5.432775,-1.221187 0.468722,-0.202155 0.46099,-0.354784 -0.163827,-3.209733 -0.620664,-2.835974 -0.721871,-3.0923 -1.216692,-3.083299 z m -7.2634,1.655753 c -0.41212,0.0065 -1.167256,0.169782 -2.635119,0.49585 -1.46039,0.324408 -2.731322,0.630105 -2.824255,0.679336 -0.369639,0.195819 -0.350636,0.426691 0.265207,3.232863 0.493961,2.250792 0.631245,2.745196 0.800764,2.882462 0.112539,0.09112 0.252836,0.166068 0.311722,0.166525 0.05887,0.0011 1.291216,-0.258098 2.738551,-0.574744 2.76256,-0.604381 3.054514,-0.716752 3.054514,-1.176085 0,-0.228637 -0.980471,-4.774745 -1.134587,-5.260728 -0.09562,-0.301548 -0.164679,-0.451943 -0.576797,-0.445479 z m 4.264908,0.747953 c 0.20894,0.0021 0.551125,0.110248 1.075351,0.272272 1.255104,0.38792 1.540105,0.534252 1.540105,0.790871 0,0.103279 -0.399447,0.554412 -0.955212,1.078688 -0.525383,0.495621 -1.003705,0.90112 -1.062883,0.90112 -0.296594,0 -0.423454,-0.286008 -0.676769,-1.524822 -0.232698,-1.137987 -0.319477,-1.521861 0.07942,-1.518129 z m -11.581379,0.882226 c -0.397167,-0.0063 -1.166232,0.154307 -2.782882,0.512167 -2.245971,0.497168 -2.732618,0.633728 -2.871412,0.805133 -0.09192,0.113512 -0.167294,0.275688 -0.167426,0.360421 -1.92e-4,0.08474 0.26275,1.336723 0.584125,2.782238 0.400293,1.800488 0.637127,2.681051 0.752065,2.795993 0.09228,0.09227 0.273655,0.167805 0.403081,0.167805 0.468687,0 5.354064,-1.138909 5.516679,-1.286073 0.09025,-0.0817 0.187497,-0.222305 0.216124,-0.312495 0.05228,-0.164717 -1.002412,-5.123224 -1.174675,-5.522591 -0.08287,-0.192138 -0.166772,-0.297781 -0.475679,-0.302598 z m 6.3168,0.507027 c 0.22907,0.0087 0.308492,0.09219 0.339605,0.254031 0.01384,0.072 -0.158837,0.680657 -0.383679,1.352636 -0.543797,1.625249 -0.558325,1.627738 -1.790663,0.313008 -0.497898,-0.531185 -0.905228,-1.01674 -0.905228,-1.079078 0,-0.252268 0.32211,-0.39102 1.502713,-0.647086 0.629491,-0.136534 1.008181,-0.202286 1.237252,-0.193511 z m -7.74833,1.479333 c 0.07835,-0.0015 0.138326,0.0359 0.19325,0.103818 0.110797,0.136967 0.585797,2.208218 0.585797,2.554299 0,0.136243 -0.07634,0.276024 -0.181686,0.332408 -0.09998,0.05352 -0.195181,0.09389 -0.211498,0.08982 -0.22619,-0.05637 -2.320396,-0.811773 -2.404861,-0.867451 -0.257767,-0.169917 -0.07519,-0.459949 0.833658,-1.324111 0.664449,-0.631781 0.985063,-0.885635 1.18534,-0.888778 z" />
</svg>
