<?xml version="1.0" encoding="UTF-8" standalone="no"?>
<svg
   width="64"
   height="64"
   version="1.1"
   id="svg73"
   sodipodi:docname="abcd.svg"
   inkscape:version="1.4.2 (ebf0e940d0, 2025-05-08)"
   xmlns:inkscape="http://www.inkscape.org/namespaces/inkscape"
   xmlns:sodipodi="http://sodipodi.sourceforge.net/DTD/sodipodi-0.dtd"
   xmlns:xlink="http://www.w3.org/1999/xlink"
   xmlns="http://www.w3.org/2000/svg"
   xmlns:svg="http://www.w3.org/2000/svg"
   xmlns:rdf="http://www.w3.org/1999/02/22-rdf-syntax-ns#"
   xmlns:cc="http://creativecommons.org/ns#"
   xmlns:dc="http://purl.org/dc/elements/1.1/">
  <metadata
     id="metadata77">
    <rdf:RDF>
      <cc:Work
         rdf:about="">
        <dc:format>image/svg+xml</dc:format>
        <dc:type
           rdf:resource="http://purl.org/dc/dcmitype/StillImage" />
      </cc:Work>
    </rdf:RDF>
  </metadata>
  <sodipodi:namedview
     pagecolor="#f5f7fa"
     bordercolor="#666666"
     borderopacity="1"
     objecttolerance="10"
     gridtolerance="10"
     guidetolerance="10"
     inkscape:pageopacity="0"
     inkscape:pageshadow="2"
     inkscape:window-width="1320"
     inkscape:window-height="766"
     id="namedview75"
     showgrid="false"
     inkscape:zoom="4.4470387"
     inkscape:cx="53.518761"
     inkscape:cy="22.37444"
     inkscape:window-x="24"
     inkscape:window-y="21"
     inkscape:window-maximized="0"
     inkscape:current-layer="svg73"
     inkscape:document-rotation="0"
     inkscape:pagecheckerboard="0"
     inkscape:showpageshadow="2"
     inkscape:deskcolor="#d1d1d1" />
  <defs
     id="defs29">
    <linearGradient
       id="linearGradient4"
       inkscape:collect="always">
      <stop
         style="stop-color:#a8ac5e;stop-opacity:1;"
         offset="0"
         id="stop4" />
      <stop
         style="stop-color:#bec181;stop-opacity:1;"
         offset="0.5"
         id="stop1" />
    </linearGradient>
    <linearGradient
       id="linearGradient2"
       inkscape:collect="always">
      <stop
         style="stop-color:#f4f4ec;stop-opacity:1;"
         offset="0"
         id="stop2" />
      <stop
         style="stop-color:#e8e9d8;stop-opacity:1;"
         offset="1"
         id="stop3" />
    </linearGradient>
    <linearGradient
       inkscape:collect="always"
       xlink:href="#linearGradient2"
       id="linearGradient8"
       x1="31.721739"
       y1="5.2278585"
       x2="31.88887"
       y2="59.145416"
       gradientUnits="userSpaceOnUse"
       gradientTransform="matrix(0.8505,0,0,0.8505,4.7765033,4.7794869)" />
    <filter
       style="color-interpolation-filters:sRGB;"
       inkscape:label="Blur"
       id="filter9"
       x="-0.047762285"
       y="-0.047489063"
       width="1.0955246"
       height="1.0949781">
      <feGaussianBlur
         stdDeviation="1 1"
         result="blur"
         id="feGaussianBlur9" />
    </filter>
    <linearGradient
       inkscape:collect="always"
       xlink:href="#linearGradient4"
       id="linearGradient7"
       x1="26.723248"
       y1="58.711765"
       x2="25.756926"
       y2="5.950614"
       gradientUnits="userSpaceOnUse" />
    <filter
       style="color-interpolation-filters:sRGB;"
       inkscape:label="Out of Focus"
       id="filter40"
       x="-0.24226652"
       y="-0.2858297"
       width="1.484533"
       height="1.5716594">
      <feFlood
         flood-opacity="1"
         flood-color="rgb(255,255,255)"
         result="flood"
         id="feFlood38" />
      <feColorMatrix
         in="SourceGraphic"
         values="1 0 0 0 0 0 1 0 0 0 0 0 1 0 0 -0.2125 -0.7154 -0.0721 1 0 "
         result="colormatrix1"
         id="feColorMatrix38" />
      <feGaussianBlur
         in="colormatrix1"
         stdDeviation="3 3"
         result="blur"
         id="feGaussianBlur38" />
      <feColorMatrix
         in="blur"
         values="1 0 0 0 0 0 1 0 0 0 0 0 1 0 0 0 0 0 6 -2 "
         result="colormatrix2"
         id="feColorMatrix39" />
      <feBlend
         in="colormatrix2"
         in2="flood"
         mode="normal"
         result="blend"
         id="feBlend39" />
      <feComposite
         in="blend"
         in2="blend"
         operator="arithmetic"
         k2="0.2"
         result="composite1"
         id="feComposite39" />
      <feComposite
         in2="SourceGraphic"
         operator="in"
         id="feComposite40" />
    </filter>
  </defs>
  <g
     id="g877"
     transform="matrix(1.1,0,0,1.1,-3.1845928,-3.2065454)">
    <ellipse
       style="opacity:0.5;fill:#000000;stroke:none;stroke-width:3.89319;stroke-dasharray:none;stroke-opacity:1;filter:url(#filter9)"
       id="path2-5"
       cx="31.949858"
       cy="31.969812"
       rx="25.124426"
       ry="25.268976"
       transform="matrix(1.05,0,0,1.05,-1.5974929,-1.5984906)" />
    <path
       style="fill:#f5f7fa;stroke-width:0.204426;fill-opacity:1"
       d=""
       id="path3" />
    <circle
       style="opacity:1;fill:url(#linearGradient8);stroke:url(#linearGradient7);stroke-width:3.81818;stroke-dasharray:none;stroke-opacity:1"
       id="path2"
       cx="31.949856"
       cy="31.969812"
       r="24.711082" />
    <ellipse
       style="opacity:0.3;fill:none;stroke:#000000;stroke-width:0.974376;stroke-dasharray:none;stroke-opacity:1"
       id="path2-9"
       cx="31.949856"
       cy="31.969812"
       rx="23.129124"
       ry="23.129126" />
  </g>
  <path
     id="path4-3-6"
     style="fill:#000000;fill-opacity:1;stroke:none;stroke-width:0.491164;stroke-dasharray:none;stroke-opacity:0.6;opacity:0.2"
     d="m 31.999979,18.394225 c -0.638995,0 -0.687272,0.0069 -1.086761,0.145462 -0.231871,0.08037 -0.688401,0.300068 -1.025221,0.493728 -0.334026,0.192055 -2.764287,1.58961 -5.400249,3.10504 -2.635967,1.515427 -4.902867,2.829284 -5.037993,2.920412 -0.332054,0.223938 -0.800306,0.727268 -1.019629,1.097953 -0.09904,0.167408 -0.246342,0.495761 -0.327286,0.728704 l -0.146861,0.423797 v 6.68702 6.687021 l 0.146861,0.423792 c 0.262293,0.754837 0.721482,1.379248 1.323137,1.802882 0.281165,0.197959 10.54506,6.110828 11.013095,6.344351 0.299842,0.149591 0.510492,0.224017 0.869971,0.307689 0.326577,0.07598 1.233769,0.04832 1.583288,-0.04756 0.147119,-0.0404 0.408727,-0.139365 0.581844,-0.220979 0.425841,-0.200761 10.759914,-6.144027 11.09981,-6.383507 0.601887,-0.424073 1.060877,-1.048135 1.323143,-1.802883 l 0.146892,-0.423794 v -6.687014 -6.68702 l -0.146896,-0.4238 C 45.816186,26.652572 45.668877,26.32422 45.569831,26.156812 45.350602,25.786283 44.882421,25.283107 44.550207,25.05886 44.34403,24.919688 42.574946,23.898441 34.111965,19.033408 33.77535,18.839902 33.318476,18.619989 33.086743,18.539679 32.687255,18.401227 32.638978,18.394217 31.999979,18.394217 Z m -5.672986,8.633962 c 0.411483,-0.01289 0.842473,0.0035 1.179075,0.05316 1.438868,0.211622 2.855765,0.848998 4.061725,1.826658 0.188967,0.153191 0.366516,0.292373 0.394423,0.309104 0.02842,0.01702 0.223701,-0.110841 0.444776,-0.289525 1.23605,-0.998992 2.641054,-1.633592 4.086899,-1.846238 0.673216,-0.09902 1.726465,-0.06487 2.237865,0.07134 0.470138,0.125214 1.09421,0.43217 1.425245,0.700732 0.551892,0.447746 0.996058,1.169236 1.186063,1.930157 0.121745,0.487504 0.168425,1.668191 0.08675,2.174928 -0.292503,1.814279 -1.716912,3.519291 -3.822548,4.575036 l -0.40002,0.201406 -0.02802,0.458761 c -0.08522,1.363592 -0.498241,2.460052 -1.302154,3.458894 -0.666029,0.827532 -1.561385,1.425196 -2.584737,1.72596 -0.340767,0.100144 -0.507153,0.120364 -1.113335,0.135653 -0.808075,0.02058 -1.149454,-0.02633 -1.786096,-0.24896 C 29.646312,42.004486 29.057199,41.625087 28.454372,41.01906 27.471555,40.031037 26.913919,38.735751 26.82213,37.224481 L 26.79276,36.73214 26.364767,36.516744 c -1.513472,-0.761258 -2.735192,-1.923549 -3.351209,-3.188953 -0.343125,-0.704838 -0.448657,-1.153493 -0.475546,-2.022468 -0.02493,-0.805445 0.01767,-1.192645 0.197212,-1.767915 0.380272,-1.218383 1.260592,-2.045836 2.532982,-2.384726 0.255701,-0.0681 0.647309,-0.11156 1.058787,-0.124481 z m 1.682594,4.314884 c -0.148967,-0.0013 -0.308021,0.03011 -0.504918,0.09091 -0.36566,0.112939 -0.709124,0.40208 -0.709124,0.595829 0,0.223694 0.200088,0.363651 0.858783,0.600029 0.888725,0.318923 1.277257,0.541211 1.814068,1.040607 0.152835,0.142188 0.295365,0.25875 0.317502,0.25875 0.103477,0 0.152704,-0.141452 0.125878,-0.36785 C 29.797156,32.593978 29.349834,31.89667 28.59563,31.5109 28.377358,31.399255 28.201117,31.344632 28.009587,31.343058 Z m 7.968199,0 c -0.464357,0 -1.189895,0.485071 -1.500768,1.002843 -0.259489,0.432191 -0.481609,1.370369 -0.359456,1.517552 0.03038,0.03659 0.07369,0.06573 0.0951,0.06573 0.02144,0 0.177534,-0.127129 0.346869,-0.28253 0.537949,-0.493668 0.920948,-0.713157 1.765121,-1.009833 0.771474,-0.271128 0.868571,-0.340539 0.868571,-0.623805 0,-0.297089 -0.675235,-0.669961 -1.215437,-0.669961 z m -5.179259,4.419783 c -0.06372,0.0024 -0.101365,0.05687 -0.183226,0.241968 -0.236986,0.53586 -0.343577,0.992072 -0.346868,1.490977 -0.0023,0.346052 0.01745,0.513218 0.07273,0.639191 0.09759,0.222403 0.221384,0.208707 0.415402,-0.04615 0.26825,-0.352391 0.348012,-0.636879 0.346866,-1.239217 -0.0014,-0.644232 -0.107679,-1.059547 -0.276935,-1.083967 -0.01045,-0.0014 -0.01888,-0.0031 -0.02794,-0.0025 z m 2.393117,0.0015 c -0.007,-4.33e-4 -0.01517,3.5e-4 -0.02238,0.0014 -0.206889,0.02994 -0.369789,1.0211 -0.257358,1.56231 0.06965,0.335327 0.284951,0.758904 0.460162,0.906335 l 0.139864,0.118877 0.07695,-0.09511 c 0.232001,-0.286501 0.216438,-1.033576 -0.03637,-1.809861 -0.162468,-0.498884 -0.25436,-0.677442 -0.360858,-0.683948 z" />
  <path
     id="path4-3"
     style="fill:#4d4d4d;fill-opacity:1;stroke:none;stroke-width:0.491164;stroke-dasharray:none;stroke-opacity:0.6"
     d="m 31.999979,16.394225 c -0.638995,0 -0.687272,0.0069 -1.086761,0.145462 -0.231871,0.08037 -0.688401,0.300068 -1.025221,0.493728 -0.334026,0.192055 -2.764287,1.58961 -5.400249,3.10504 -2.635967,1.515427 -4.902867,2.829284 -5.037993,2.920412 -0.332054,0.223938 -0.800306,0.727268 -1.019629,1.097953 -0.09904,0.167408 -0.246342,0.495761 -0.327286,0.728704 l -0.146861,0.423797 v 6.68702 6.687021 l 0.146861,0.423792 c 0.262293,0.754837 0.721482,1.379248 1.323137,1.802882 0.281165,0.197959 10.54506,6.110828 11.013095,6.344351 0.299842,0.149591 0.510492,0.224017 0.869971,0.307689 0.326577,0.07598 1.233769,0.04832 1.583288,-0.04756 0.147119,-0.0404 0.408727,-0.139365 0.581844,-0.220979 0.425841,-0.200761 10.759914,-6.144027 11.09981,-6.383507 0.601887,-0.424073 1.060877,-1.048135 1.323143,-1.802883 l 0.146892,-0.423794 v -6.687014 -6.68702 l -0.146896,-0.4238 C 45.816186,24.652572 45.668877,24.32422 45.569831,24.156812 45.350602,23.786283 44.882421,23.283107 44.550207,23.05886 44.34403,22.919688 42.574946,21.898441 34.111965,17.033408 33.77535,16.839902 33.318476,16.619989 33.086743,16.539679 32.687255,16.401227 32.638978,16.394217 31.999979,16.394217 Z m -5.672986,8.633962 c 0.411483,-0.01289 0.842473,0.0035 1.179075,0.05316 1.438868,0.211622 2.855765,0.848998 4.061725,1.826658 0.188967,0.153191 0.366516,0.292373 0.394423,0.309104 0.02842,0.01702 0.223701,-0.110841 0.444776,-0.289525 1.23605,-0.998992 2.641054,-1.633592 4.086899,-1.846238 0.673216,-0.09902 1.726465,-0.06487 2.237865,0.07134 0.470138,0.125214 1.09421,0.43217 1.425245,0.700732 0.551892,0.447746 0.996058,1.169236 1.186063,1.930157 0.121745,0.487504 0.168425,1.668191 0.08675,2.174928 -0.292503,1.814279 -1.716912,3.519291 -3.822548,4.575036 l -0.40002,0.201406 -0.02802,0.458761 c -0.08522,1.363592 -0.498241,2.460052 -1.302154,3.458894 -0.666029,0.827532 -1.561385,1.425196 -2.584737,1.72596 -0.340767,0.100144 -0.507153,0.120364 -1.113335,0.135653 -0.808075,0.02058 -1.149454,-0.02633 -1.786096,-0.24896 C 29.646312,40.004486 29.057199,39.625087 28.454372,39.01906 27.471555,38.031037 26.913919,36.735751 26.82213,35.224481 L 26.79276,34.73214 26.364767,34.516744 c -1.513472,-0.761258 -2.735192,-1.923549 -3.351209,-3.188953 -0.343125,-0.704838 -0.448657,-1.153493 -0.475546,-2.022468 -0.02493,-0.805445 0.01767,-1.192645 0.197212,-1.767915 0.380272,-1.218383 1.260592,-2.045836 2.532982,-2.384726 0.255701,-0.0681 0.647309,-0.11156 1.058787,-0.124481 z m 1.682594,4.314884 c -0.148967,-0.0013 -0.308021,0.03011 -0.504918,0.09091 -0.36566,0.112939 -0.709124,0.40208 -0.709124,0.595829 0,0.223694 0.200088,0.363651 0.858783,0.600029 0.888725,0.318923 1.277257,0.541211 1.814068,1.040607 0.152835,0.142188 0.295365,0.25875 0.317502,0.25875 0.103477,0 0.152704,-0.141452 0.125878,-0.36785 C 29.797156,30.593978 29.349834,29.89667 28.59563,29.5109 28.377358,29.399255 28.201117,29.344632 28.009587,29.343058 Z m 7.968199,0 c -0.464357,0 -1.189895,0.485071 -1.500768,1.002843 -0.259489,0.432191 -0.481609,1.370369 -0.359456,1.517552 0.03038,0.03659 0.07369,0.06573 0.0951,0.06573 0.02144,0 0.177534,-0.127129 0.346869,-0.28253 0.537949,-0.493668 0.920948,-0.713157 1.765121,-1.009833 0.771474,-0.271128 0.868571,-0.340539 0.868571,-0.623805 0,-0.297089 -0.675235,-0.669961 -1.215437,-0.669961 z m -5.179259,4.419783 c -0.06372,0.0024 -0.101365,0.05687 -0.183226,0.241968 -0.236986,0.53586 -0.343577,0.992072 -0.346868,1.490977 -0.0023,0.346052 0.01745,0.513218 0.07273,0.639191 0.09759,0.222403 0.221384,0.208707 0.415402,-0.04615 0.26825,-0.352391 0.348012,-0.636879 0.346866,-1.239217 -0.0014,-0.644232 -0.107679,-1.059547 -0.276935,-1.083967 -0.01045,-0.0014 -0.01888,-0.0031 -0.02794,-0.0025 z m 2.393117,0.0015 c -0.007,-4.33e-4 -0.01517,3.5e-4 -0.02238,0.0014 -0.206889,0.02994 -0.369789,1.0211 -0.257358,1.56231 0.06965,0.335327 0.284951,0.758904 0.460162,0.906335 l 0.139864,0.118877 0.07695,-0.09511 c 0.232001,-0.286501 0.216438,-1.033576 -0.03637,-1.809861 -0.162468,-0.498884 -0.25436,-0.677442 -0.360858,-0.683948 z" />
</svg>
