<?xml version="1.0" encoding="UTF-8" standalone="no"?>
<svg
   width="64"
   height="64"
   version="1.1"
   id="svg73"
   sodipodi:docname="abcd.svg"
   inkscape:version="1.4.2 (ebf0e940d0, 2025-05-08)"
   xmlns:inkscape="http://www.inkscape.org/namespaces/inkscape"
   xmlns:sodipodi="http://sodipodi.sourceforge.net/DTD/sodipodi-0.dtd"
   xmlns:xlink="http://www.w3.org/1999/xlink"
   xmlns="http://www.w3.org/2000/svg"
   xmlns:svg="http://www.w3.org/2000/svg"
   xmlns:rdf="http://www.w3.org/1999/02/22-rdf-syntax-ns#"
   xmlns:cc="http://creativecommons.org/ns#"
   xmlns:dc="http://purl.org/dc/elements/1.1/">
  <metadata
     id="metadata77">
    <rdf:RDF>
      <cc:Work
         rdf:about="">
        <dc:format>image/svg+xml</dc:format>
        <dc:type
           rdf:resource="http://purl.org/dc/dcmitype/StillImage" />
      </cc:Work>
    </rdf:RDF>
  </metadata>
  <sodipodi:namedview
     pagecolor="#f5f7fa"
     bordercolor="#666666"
     borderopacity="1"
     objecttolerance="10"
     gridtolerance="10"
     guidetolerance="10"
     inkscape:pageopacity="0"
     inkscape:pageshadow="2"
     inkscape:window-width="1263"
     inkscape:window-height="693"
     id="namedview75"
     showgrid="false"
     inkscape:zoom="4.4470387"
     inkscape:cx="36.091433"
     inkscape:cy="29.682674"
     inkscape:window-x="24"
     inkscape:window-y="21"
     inkscape:window-maximized="0"
     inkscape:current-layer="svg73"
     inkscape:document-rotation="0"
     inkscape:pagecheckerboard="0"
     inkscape:showpageshadow="2"
     inkscape:deskcolor="#d1d1d1" />
  <defs
     id="defs29">
    <linearGradient
       id="linearGradient4"
       inkscape:collect="always">
      <stop
         style="stop-color:#a8ac5e;stop-opacity:1;"
         offset="0"
         id="stop4" />
      <stop
         style="stop-color:#bec181;stop-opacity:1;"
         offset="0.5"
         id="stop1" />
    </linearGradient>
    <linearGradient
       id="linearGradient2"
       inkscape:collect="always">
      <stop
         style="stop-color:#f4f4ec;stop-opacity:1;"
         offset="0"
         id="stop2" />
      <stop
         style="stop-color:#e8e9d8;stop-opacity:1;"
         offset="1"
         id="stop3" />
    </linearGradient>
    <linearGradient
       inkscape:collect="always"
       xlink:href="#linearGradient2"
       id="linearGradient8"
       x1="31.721739"
       y1="5.2278585"
       x2="31.88887"
       y2="59.145416"
       gradientUnits="userSpaceOnUse"
       gradientTransform="matrix(0.8505,0,0,0.8505,4.7765033,4.7794869)" />
    <filter
       style="color-interpolation-filters:sRGB;"
       inkscape:label="Blur"
       id="filter9"
       x="-0.047762285"
       y="-0.047489063"
       width="1.0955246"
       height="1.0949781">
      <feGaussianBlur
         stdDeviation="1 1"
         result="blur"
         id="feGaussianBlur9" />
    </filter>
    <linearGradient
       inkscape:collect="always"
       xlink:href="#linearGradient4"
       id="linearGradient7"
       x1="26.723248"
       y1="58.711765"
       x2="25.756926"
       y2="5.950614"
       gradientUnits="userSpaceOnUse" />
    <filter
       style="color-interpolation-filters:sRGB;"
       inkscape:label="Out of Focus"
       id="filter40"
       x="-0.24226652"
       y="-0.2858297"
       width="1.484533"
       height="1.5716594">
      <feFlood
         flood-opacity="1"
         flood-color="rgb(255,255,255)"
         result="flood"
         id="feFlood38" />
      <feColorMatrix
         in="SourceGraphic"
         values="1 0 0 0 0 0 1 0 0 0 0 0 1 0 0 -0.2125 -0.7154 -0.0721 1 0 "
         result="colormatrix1"
         id="feColorMatrix38" />
      <feGaussianBlur
         in="colormatrix1"
         stdDeviation="3 3"
         result="blur"
         id="feGaussianBlur38" />
      <feColorMatrix
         in="blur"
         values="1 0 0 0 0 0 1 0 0 0 0 0 1 0 0 0 0 0 6 -2 "
         result="colormatrix2"
         id="feColorMatrix39" />
      <feBlend
         in="colormatrix2"
         in2="flood"
         mode="normal"
         result="blend"
         id="feBlend39" />
      <feComposite
         in="blend"
         in2="blend"
         operator="arithmetic"
         k2="0.2"
         result="composite1"
         id="feComposite39" />
      <feComposite
         in2="SourceGraphic"
         operator="in"
         id="feComposite40" />
    </filter>
  </defs>
  <g
     id="g877"
     transform="matrix(1.1,0,0,1.1,-3.1845928,-3.2065454)">
    <ellipse
       style="opacity:0.5;fill:#000000;stroke:none;stroke-width:3.89319;stroke-dasharray:none;stroke-opacity:1;filter:url(#filter9)"
       id="path2-5"
       cx="31.949858"
       cy="31.969812"
       rx="25.124426"
       ry="25.268976"
       transform="matrix(1.05,0,0,1.05,-1.5974929,-1.5984906)" />
    <path
       style="fill:#f5f7fa;stroke-width:0.204426;fill-opacity:1"
       d=""
       id="path3" />
    <circle
       style="opacity:1;fill:url(#linearGradient8);stroke:url(#linearGradient7);stroke-width:3.81818;stroke-dasharray:none;stroke-opacity:1"
       id="path2"
       cx="31.949856"
       cy="31.969812"
       r="24.711082" />
    <ellipse
       style="opacity:0.3;fill:none;stroke:#000000;stroke-width:0.974376;stroke-dasharray:none;stroke-opacity:1"
       id="path2-9"
       cx="31.949856"
       cy="31.969812"
       rx="23.129124"
       ry="23.129126" />
  </g>
  <path
     d="m 47.482867,37.638389 c -0.639916,-0.630068 -2.057574,-0.963388 -4.216415,-0.992923 -1.462666,-0.02248 -3.220678,0.112512 -5.071508,0.371291 -0.828375,-0.476771 -1.682063,-0.997142 -2.351511,-1.6244 -1.803016,-1.683472 -3.307875,-4.019516 -4.245948,-6.589026 0.06046,-0.240493 0.112509,-0.451455 0.161734,-0.666637 0,0 1.015427,-5.769089 0.746805,-7.71837 -0.03797,-0.267217 -0.06047,-0.345976 -0.132217,-0.552717 l -0.08861,-0.226433 c -0.27565,-0.637105 -0.817119,-1.312181 -1.666588,-1.275614 l -0.49787,-0.02252 h -0.01408 c -0.946512,0 -1.718631,0.483803 -1.921153,1.208105 -0.616008,2.269942 0.01969,5.66642 1.171538,10.064262 l -0.295328,0.717281 c -0.824152,2.00976 -1.856458,4.033582 -2.769217,5.819722 l -0.11814,0.232056 c -0.95917,1.877558 -1.829733,3.471018 -2.617323,4.819765 l -0.815718,0.430355 c -0.05905,0.03095 -1.454227,0.770721 -1.781919,0.967619 -2.777657,1.659559 -4.618646,3.54133 -4.923837,5.036347 -0.09705,0.475366 -0.02391,1.085746 0.469739,1.36843 l 0.78759,0.396614 c 0.341756,0.171579 0.701798,0.257369 1.071683,0.257369 1.977411,0 4.274077,-2.464034 7.438496,-7.985596 3.652443,-1.188412 7.811194,-2.177116 11.4566,-2.722807 2.777661,1.563929 6.193821,2.651083 8.349847,2.651083 0.382542,0 0.713048,-0.03793 0.981673,-0.106876 0.413483,-0.10967 0.762274,-0.346003 0.974643,-0.665223 0.417703,-0.630076 0.503496,-1.49783 0.389572,-2.385271 -0.03368,-0.263001 -0.244715,-0.589288 -0.47255,-0.8115 z M 17.935633,48.163955 c 0.36004,-0.985892 1.78895,-2.935172 3.89997,-4.666462 0.132188,-0.106876 0.459897,-0.413486 0.75946,-0.697585 -2.208062,3.521652 -3.686196,4.925245 -4.65943,5.364047 z M 30.441418,19.367736 c 0.635695,0 0.997143,1.601899 1.026677,3.10535 0.03093,1.502045 -0.320659,2.556851 -0.756646,3.337409 -0.361448,-1.154665 -0.535844,-2.97596 -0.535844,-4.167189 0,0 -0.0267,-2.27557 0.265813,-2.27557 z M 26.710214,39.88864 c 0.443019,-0.793207 0.90432,-1.628617 1.375469,-2.516061 1.147629,-2.171494 1.873335,-3.869028 2.411991,-5.265593 1.074494,1.953501 2.411992,3.614471 3.984355,4.944933 0.195489,0.165952 0.403638,0.333317 0.621634,0.499275 -3.196768,0.632884 -5.960362,1.402189 -8.393449,2.337446 z m 20.158053,-0.17862 c -0.194099,0.120929 -0.75243,0.19267 -1.111065,0.19267 -1.157474,0 -2.590599,-0.528803 -4.598963,-1.390936 0.772125,-0.05766 1.479544,-0.08579 2.113836,-0.08579 1.161697,0 1.504865,0 2.641238,0.284091 1.136383,0.291113 1.150442,0.879006 0.954954,0.999958 z"
     fill="url(#c)"
     id="path9-5"
     style="fill:#000000;fill-opacity:1;stroke:none;stroke-width:0.495;stroke-dasharray:none;stroke-opacity:0.6;opacity:0.2" />
  <path
     d="m 47.482867,35.638389 c -0.639916,-0.630068 -2.057574,-0.963388 -4.216415,-0.992923 -1.462666,-0.02248 -3.220678,0.112512 -5.071508,0.371291 -0.828375,-0.476771 -1.682063,-0.997142 -2.351511,-1.6244 -1.803016,-1.683472 -3.307875,-4.019516 -4.245948,-6.589026 0.06046,-0.240493 0.112509,-0.451455 0.161734,-0.666637 0,0 1.015427,-5.769089 0.746805,-7.71837 -0.03797,-0.267217 -0.06047,-0.345976 -0.132217,-0.552717 l -0.08861,-0.226433 c -0.27565,-0.637105 -0.817119,-1.312181 -1.666588,-1.275614 l -0.49787,-0.02252 h -0.01408 c -0.946512,0 -1.718631,0.483803 -1.921153,1.208105 -0.616008,2.269942 0.01969,5.66642 1.171538,10.064262 l -0.295328,0.717281 c -0.824152,2.00976 -1.856458,4.033582 -2.769217,5.819722 l -0.11814,0.232056 c -0.95917,1.877558 -1.829733,3.471018 -2.617323,4.819765 l -0.815718,0.430355 c -0.05905,0.03095 -1.454227,0.770721 -1.781919,0.967619 -2.777657,1.659559 -4.618646,3.54133 -4.923837,5.036347 -0.09705,0.475366 -0.02391,1.085746 0.469739,1.36843 l 0.78759,0.396614 c 0.341756,0.171579 0.701798,0.257369 1.071683,0.257369 1.977411,0 4.274077,-2.464034 7.438496,-7.985596 3.652443,-1.188412 7.811194,-2.177116 11.4566,-2.722807 2.777661,1.563929 6.193821,2.651083 8.349847,2.651083 0.382542,0 0.713048,-0.03793 0.981673,-0.106876 0.413483,-0.10967 0.762274,-0.346003 0.974643,-0.665223 0.417703,-0.630076 0.503496,-1.49783 0.389572,-2.385271 -0.03368,-0.263001 -0.244715,-0.589288 -0.47255,-0.8115 z M 17.935633,46.163955 c 0.36004,-0.985892 1.78895,-2.935172 3.89997,-4.666462 0.132188,-0.106876 0.459897,-0.413486 0.75946,-0.697585 -2.208062,3.521652 -3.686196,4.925245 -4.65943,5.364047 z M 30.441418,17.367736 c 0.635695,0 0.997143,1.601899 1.026677,3.10535 0.03093,1.502045 -0.320659,2.556851 -0.756646,3.337409 -0.361448,-1.154665 -0.535844,-2.97596 -0.535844,-4.167189 0,0 -0.0267,-2.27557 0.265813,-2.27557 z M 26.710214,37.88864 c 0.443019,-0.793207 0.90432,-1.628617 1.375469,-2.516061 1.147629,-2.171494 1.873335,-3.869028 2.411991,-5.265593 1.074494,1.953501 2.411992,3.614471 3.984355,4.944933 0.195489,0.165952 0.403638,0.333317 0.621634,0.499275 -3.196768,0.632884 -5.960362,1.402189 -8.393449,2.337446 z m 20.158053,-0.17862 c -0.194099,0.120929 -0.75243,0.19267 -1.111065,0.19267 -1.157474,0 -2.590599,-0.528803 -4.598963,-1.390936 0.772125,-0.05766 1.479544,-0.08579 2.113836,-0.08579 1.161697,0 1.504865,0 2.641238,0.284091 1.136383,0.291113 1.150442,0.879006 0.954954,0.999958 z"
     fill="url(#c)"
     id="path9"
     style="fill:#4d4d4d;fill-opacity:1;stroke:none;stroke-width:0.495;stroke-dasharray:none;stroke-opacity:0.6" />
</svg>
