<?xml version="1.0" encoding="UTF-8" standalone="no"?>
<svg
   width="64"
   height="64"
   version="1.1"
   id="svg73"
   sodipodi:docname="abcd.svg"
   inkscape:version="1.4.2 (ebf0e940d0, 2025-05-08)"
   xmlns:inkscape="http://www.inkscape.org/namespaces/inkscape"
   xmlns:sodipodi="http://sodipodi.sourceforge.net/DTD/sodipodi-0.dtd"
   xmlns:xlink="http://www.w3.org/1999/xlink"
   xmlns="http://www.w3.org/2000/svg"
   xmlns:svg="http://www.w3.org/2000/svg"
   xmlns:rdf="http://www.w3.org/1999/02/22-rdf-syntax-ns#"
   xmlns:cc="http://creativecommons.org/ns#"
   xmlns:dc="http://purl.org/dc/elements/1.1/">
  <metadata
     id="metadata77">
    <rdf:RDF>
      <cc:Work
         rdf:about="">
        <dc:format>image/svg+xml</dc:format>
        <dc:type
           rdf:resource="http://purl.org/dc/dcmitype/StillImage" />
      </cc:Work>
    </rdf:RDF>
  </metadata>
  <sodipodi:namedview
     pagecolor="#f5f7fa"
     bordercolor="#666666"
     borderopacity="1"
     objecttolerance="10"
     gridtolerance="10"
     guidetolerance="10"
     inkscape:pageopacity="0"
     inkscape:pageshadow="2"
     inkscape:window-width="1462"
     inkscape:window-height="840"
     id="namedview75"
     showgrid="false"
     inkscape:zoom="6.2890624"
     inkscape:cx="53.585094"
     inkscape:cy="29.654659"
     inkscape:window-x="24"
     inkscape:window-y="21"
     inkscape:window-maximized="0"
     inkscape:current-layer="svg73"
     inkscape:document-rotation="0"
     inkscape:pagecheckerboard="0"
     inkscape:showpageshadow="2"
     inkscape:deskcolor="#d1d1d1" />
  <defs
     id="defs29">
    <linearGradient
       id="linearGradient4"
       inkscape:collect="always">
      <stop
         style="stop-color:#a8ac5e;stop-opacity:1;"
         offset="0"
         id="stop4" />
      <stop
         style="stop-color:#bec181;stop-opacity:1;"
         offset="0.5"
         id="stop1" />
    </linearGradient>
    <linearGradient
       id="linearGradient2"
       inkscape:collect="always">
      <stop
         style="stop-color:#f4f4ec;stop-opacity:1;"
         offset="0"
         id="stop2" />
      <stop
         style="stop-color:#e8e9d8;stop-opacity:1;"
         offset="1"
         id="stop3" />
    </linearGradient>
    <linearGradient
       inkscape:collect="always"
       xlink:href="#linearGradient2"
       id="linearGradient8"
       x1="31.721739"
       y1="5.2278585"
       x2="31.88887"
       y2="59.145416"
       gradientUnits="userSpaceOnUse"
       gradientTransform="matrix(0.8505,0,0,0.8505,4.7765033,4.7794869)" />
    <filter
       style="color-interpolation-filters:sRGB;"
       inkscape:label="Blur"
       id="filter9"
       x="-0.047762285"
       y="-0.047489063"
       width="1.0955246"
       height="1.0949781">
      <feGaussianBlur
         stdDeviation="1 1"
         result="blur"
         id="feGaussianBlur9" />
    </filter>
    <linearGradient
       inkscape:collect="always"
       xlink:href="#linearGradient4"
       id="linearGradient7"
       x1="26.723248"
       y1="58.711765"
       x2="25.756926"
       y2="5.950614"
       gradientUnits="userSpaceOnUse" />
    <filter
       style="color-interpolation-filters:sRGB;"
       inkscape:label="Out of Focus"
       id="filter40"
       x="-0.24226652"
       y="-0.2858297"
       width="1.484533"
       height="1.5716594">
      <feFlood
         flood-opacity="1"
         flood-color="rgb(255,255,255)"
         result="flood"
         id="feFlood38" />
      <feColorMatrix
         in="SourceGraphic"
         values="1 0 0 0 0 0 1 0 0 0 0 0 1 0 0 -0.2125 -0.7154 -0.0721 1 0 "
         result="colormatrix1"
         id="feColorMatrix38" />
      <feGaussianBlur
         in="colormatrix1"
         stdDeviation="3 3"
         result="blur"
         id="feGaussianBlur38" />
      <feColorMatrix
         in="blur"
         values="1 0 0 0 0 0 1 0 0 0 0 0 1 0 0 0 0 0 6 -2 "
         result="colormatrix2"
         id="feColorMatrix39" />
      <feBlend
         in="colormatrix2"
         in2="flood"
         mode="normal"
         result="blend"
         id="feBlend39" />
      <feComposite
         in="blend"
         in2="blend"
         operator="arithmetic"
         k2="0.2"
         result="composite1"
         id="feComposite39" />
      <feComposite
         in2="SourceGraphic"
         operator="in"
         id="feComposite40" />
    </filter>
  </defs>
  <g
     id="g877"
     transform="matrix(1.1,0,0,1.1,-3.1845928,-3.2065454)">
    <ellipse
       style="opacity:0.5;fill:#000000;stroke:none;stroke-width:3.89319;stroke-dasharray:none;stroke-opacity:1;filter:url(#filter9)"
       id="path2-5"
       cx="31.949858"
       cy="31.969812"
       rx="25.124426"
       ry="25.268976"
       transform="matrix(1.05,0,0,1.05,-1.5974929,-1.5984906)" />
    <path
       style="fill:#f5f7fa;stroke-width:0.204426;fill-opacity:1"
       d=""
       id="path3" />
    <circle
       style="opacity:1;fill:url(#linearGradient8);stroke:url(#linearGradient7);stroke-width:3.81818;stroke-dasharray:none;stroke-opacity:1"
       id="path2"
       cx="31.949856"
       cy="31.969812"
       r="24.711082" />
    <ellipse
       style="opacity:0.3;fill:none;stroke:#000000;stroke-width:0.974376;stroke-dasharray:none;stroke-opacity:1"
       id="path2-9"
       cx="31.949856"
       cy="31.969812"
       rx="23.129124"
       ry="23.129126" />
  </g>
  <path
     fill="#f5f7fa"
     d="M 38.287555,46.556492 36.99585,44.034539 c -1.443671,0.923542 -3.913113,1.598426 -6.306567,1.598426 -7.066394,0 -10.903524,-3.409973 -10.903524,-9.981264 0,-7.139623 5.81268,-13.249144 13.600912,-13.249144 6.838447,0 10.865528,3.196847 10.865528,8.915652 0,3.765168 -1.823589,7.423776 -4.976869,7.423776 -1.13974,0 -1.595633,-0.532808 -1.595633,-1.562903 0,-0.532801 0.11395,-1.527381 0.265904,-2.344349 l 1.177763,-7.139623 c -1.215727,-0.710406 -3.229263,-1.136655 -5.052851,-1.136655 -4.634945,0 -9.307884,2.948202 -9.307884,9.341891 0,3.090289 1.63363,5.576719 5.58473,5.576719 1.785596,0 3.381231,-0.639363 4.444995,-1.882585 h 0.151974 c 0.531875,1.101137 1.747602,1.882585 3.875122,1.882585 5.318793,0 8.776007,-4.511108 8.776007,-10.549586 0,-6.890979 -5.432764,-11.366564 -13.714884,-11.366564 -10.029724,0 -17.476029,7.281706 -17.476029,16.445993 0,7.601386 4.78691,12.432177 13.714884,12.432177 3.191271,0 6.230579,-0.745935 8.168141,-1.882593 z m -7.256351,-7.778984 c -1.975549,0 -2.925334,-1.065613 -2.925334,-3.445485 0,-3.552056 2.393454,-6.038487 5.546741,-6.038487 0.72183,0 1.405679,0.142084 1.861572,0.284168 l -0.873798,5.576717 c -0.07598,0.390717 -0.189935,1.385296 -0.189935,1.811536 -0.569869,0.959062 -1.861577,1.811551 -3.419226,1.811551 z"
     id="path42-6"
     style="fill:#000000;fill-opacity:1;stroke:none;stroke-width:0.491164;stroke-dasharray:none;stroke-opacity:0.6;opacity:0.2" />
  <path
     fill="#f5f7fa"
     d="M 38.287555,44.556492 36.99585,42.034539 c -1.443671,0.923542 -3.913113,1.598426 -6.306567,1.598426 -7.066394,0 -10.903524,-3.409973 -10.903524,-9.981264 0,-7.139623 5.81268,-13.249144 13.600912,-13.249144 6.838447,0 10.865528,3.196847 10.865528,8.915652 0,3.765168 -1.823589,7.423776 -4.976869,7.423776 -1.13974,0 -1.595633,-0.532808 -1.595633,-1.562903 0,-0.532801 0.11395,-1.527381 0.265904,-2.344349 l 1.177763,-7.139623 c -1.215727,-0.710406 -3.229263,-1.136655 -5.052851,-1.136655 -4.634945,0 -9.307884,2.948202 -9.307884,9.341891 0,3.090289 1.63363,5.576719 5.58473,5.576719 1.785596,0 3.381231,-0.639363 4.444995,-1.882585 h 0.151974 c 0.531875,1.101137 1.747602,1.882585 3.875122,1.882585 5.318793,0 8.776007,-4.511108 8.776007,-10.549586 0,-6.890979 -5.432764,-11.366564 -13.714884,-11.366564 -10.029724,0 -17.476029,7.281706 -17.476029,16.445993 0,7.601386 4.78691,12.432177 13.714884,12.432177 3.191271,0 6.230579,-0.745935 8.168141,-1.882593 z m -7.256351,-7.778984 c -1.975549,0 -2.925334,-1.065613 -2.925334,-3.445485 0,-3.552056 2.393454,-6.038487 5.546741,-6.038487 0.72183,0 1.405679,0.142084 1.861572,0.284168 l -0.873798,5.576717 c -0.07598,0.390717 -0.189935,1.385296 -0.189935,1.811536 -0.569869,0.959062 -1.861577,1.811551 -3.419226,1.811551 z"
     id="path42"
     style="fill:#4d4d4d;fill-opacity:1;stroke:none;stroke-width:0.491164;stroke-dasharray:none;stroke-opacity:0.6" />
</svg>
