<?xml version="1.0" encoding="UTF-8" standalone="no"?>
<svg
   width="64"
   height="64"
   version="1.1"
   id="svg73"
   sodipodi:docname="1password.svg"
   inkscape:version="1.4.2 (ebf0e940d0, 2025-05-08)"
   xmlns:inkscape="http://www.inkscape.org/namespaces/inkscape"
   xmlns:sodipodi="http://sodipodi.sourceforge.net/DTD/sodipodi-0.dtd"
   xmlns:xlink="http://www.w3.org/1999/xlink"
   xmlns="http://www.w3.org/2000/svg"
   xmlns:svg="http://www.w3.org/2000/svg"
   xmlns:rdf="http://www.w3.org/1999/02/22-rdf-syntax-ns#"
   xmlns:cc="http://creativecommons.org/ns#"
   xmlns:dc="http://purl.org/dc/elements/1.1/">
  <metadata
     id="metadata77">
    <rdf:RDF>
      <cc:Work
         rdf:about="">
        <dc:format>image/svg+xml</dc:format>
        <dc:type
           rdf:resource="http://purl.org/dc/dcmitype/StillImage" />
      </cc:Work>
    </rdf:RDF>
  </metadata>
  <sodipodi:namedview
     pagecolor="#f5f7fa"
     bordercolor="#666666"
     borderopacity="1"
     objecttolerance="10"
     gridtolerance="10"
     guidetolerance="10"
     inkscape:pageopacity="0"
     inkscape:pageshadow="2"
     inkscape:window-width="1289"
     inkscape:window-height="707"
     id="namedview75"
     showgrid="false"
     inkscape:zoom="6.2890624"
     inkscape:cx="53.505591"
     inkscape:cy="29.734162"
     inkscape:window-x="24"
     inkscape:window-y="21"
     inkscape:window-maximized="0"
     inkscape:current-layer="svg73"
     inkscape:document-rotation="0"
     inkscape:pagecheckerboard="0"
     inkscape:showpageshadow="2"
     inkscape:deskcolor="#d1d1d1" />
  <defs
     id="defs29">
    <linearGradient
       id="linearGradient4"
       inkscape:collect="always">
      <stop
         style="stop-color:#a8ac5e;stop-opacity:1;"
         offset="0"
         id="stop4" />
      <stop
         style="stop-color:#bec181;stop-opacity:1;"
         offset="0.5"
         id="stop1" />
    </linearGradient>
    <linearGradient
       id="linearGradient2"
       inkscape:collect="always">
      <stop
         style="stop-color:#f4f4ec;stop-opacity:1;"
         offset="0"
         id="stop2" />
      <stop
         style="stop-color:#e8e9d8;stop-opacity:1;"
         offset="1"
         id="stop3" />
    </linearGradient>
    <linearGradient
       inkscape:collect="always"
       xlink:href="#linearGradient2"
       id="linearGradient8"
       x1="31.721739"
       y1="5.2278585"
       x2="31.88887"
       y2="59.145416"
       gradientUnits="userSpaceOnUse"
       gradientTransform="matrix(0.8505,0,0,0.8505,4.7765033,4.7794869)" />
    <filter
       style="color-interpolation-filters:sRGB;"
       inkscape:label="Blur"
       id="filter9"
       x="-0.047762285"
       y="-0.047489063"
       width="1.0955246"
       height="1.0949781">
      <feGaussianBlur
         stdDeviation="1 1"
         result="blur"
         id="feGaussianBlur9" />
    </filter>
    <linearGradient
       inkscape:collect="always"
       xlink:href="#linearGradient4"
       id="linearGradient7"
       x1="26.723248"
       y1="58.711765"
       x2="25.756926"
       y2="5.950614"
       gradientUnits="userSpaceOnUse" />
    <filter
       style="color-interpolation-filters:sRGB;"
       inkscape:label="Out of Focus"
       id="filter40"
       x="-0.24226652"
       y="-0.2858297"
       width="1.484533"
       height="1.5716594">
      <feFlood
         flood-opacity="1"
         flood-color="rgb(255,255,255)"
         result="flood"
         id="feFlood38" />
      <feColorMatrix
         in="SourceGraphic"
         values="1 0 0 0 0 0 1 0 0 0 0 0 1 0 0 -0.2125 -0.7154 -0.0721 1 0 "
         result="colormatrix1"
         id="feColorMatrix38" />
      <feGaussianBlur
         in="colormatrix1"
         stdDeviation="3 3"
         result="blur"
         id="feGaussianBlur38" />
      <feColorMatrix
         in="blur"
         values="1 0 0 0 0 0 1 0 0 0 0 0 1 0 0 0 0 0 6 -2 "
         result="colormatrix2"
         id="feColorMatrix39" />
      <feBlend
         in="colormatrix2"
         in2="flood"
         mode="normal"
         result="blend"
         id="feBlend39" />
      <feComposite
         in="blend"
         in2="blend"
         operator="arithmetic"
         k2="0.2"
         result="composite1"
         id="feComposite39" />
      <feComposite
         in2="SourceGraphic"
         operator="in"
         id="feComposite40" />
    </filter>
  </defs>
  <g
     id="g877"
     transform="matrix(1.1,0,0,1.1,-3.1845928,-3.2065454)">
    <ellipse
       style="opacity:0.5;fill:#000000;stroke:none;stroke-width:3.89319;stroke-dasharray:none;stroke-opacity:1;filter:url(#filter9)"
       id="path2-5"
       cx="31.949858"
       cy="31.969812"
       rx="25.124426"
       ry="25.268976"
       transform="matrix(1.05,0,0,1.05,-1.5974929,-1.5984906)" />
    <path
       style="fill:#f5f7fa;stroke-width:0.204426;fill-opacity:1"
       d=""
       id="path3" />
    <circle
       style="opacity:1;fill:url(#linearGradient8);stroke:url(#linearGradient7);stroke-width:3.81818;stroke-dasharray:none;stroke-opacity:1"
       id="path2"
       cx="31.949856"
       cy="31.969812"
       r="24.711082" />
    <ellipse
       style="opacity:0.3;fill:none;stroke:#000000;stroke-width:0.974376;stroke-dasharray:none;stroke-opacity:1"
       id="path2-9"
       cx="31.949856"
       cy="31.969812"
       rx="23.129124"
       ry="23.129126" />
  </g>
  <path
     style="fill:#000000;fill-opacity:1;stroke-width:0.567224;opacity:0.2"
     d="m 30.818076,18.117715 c 0.178389,0.08895 0.382492,0.15565 0.54322,0.277626 0.30937,0.237444 0.610705,0.491088 0.887931,0.764585 0.304547,0.30002 0.619542,0.470124 1.063909,0.561448 1.067929,0.216479 1.698668,0.456145 2.696686,0.874809 2.219424,0.934052 3.688328,2.693517 4.735364,4.809864 0.928912,1.881284 0.945788,3.9206 0.869449,5.969445 -0.157498,4.226976 -2.675604,7.31295 -4.022368,10.565689 h -0.348742 c 0.525527,0 0.995945,0.353388 0.995945,0.792538 v 1.591272 c 0,0.43915 -0.470418,1.019148 -0.995945,1.019148 h 0.748673 c 0.687041,0 1.381721,0.530476 1.381721,1.189603 v 2.158942 c 0,0.659124 -0.69468,1.189602 -1.381721,1.189602 H 27.037919 c -0.68704,0 -1.277389,-0.530478 -1.277389,-1.189602 v -2.158942 c 0,-0.659127 0.590349,-1.189603 1.277389,-1.189603 h 0.748637 c -0.525526,0 -0.891578,-0.579998 -0.891578,-1.019148 v -1.591272 c 0,-0.43915 0.366052,-0.792538 0.891578,-0.792538 h -0.146248 c -0.340708,-0.316059 -0.325796,-0.882272 -0.629539,-1.20548 -1.376496,-1.45643 -1.622386,-3.523541 -0.655706,-5.293646 0.472492,-0.864011 1.137034,-1.565224 1.903626,-2.164789 0.863022,-0.674847 1.754971,-1.310945 2.625239,-1.975627 0.249105,-0.190591 0.21778,-0.406393 0.548847,-0.704985 -0.820433,0.17312 -1.223852,0.387336 -1.884374,0.420689 -1.140248,0.05558 -2.123803,0.54789 -3.036644,1.21178 -0.352761,0.256501 -0.762576,0.462181 -1.175604,0.605125 -0.536778,0.184079 -0.803558,0.05241 -1.123373,-0.432801 -0.08437,-0.128646 -0.134998,-0.275561 -0.215354,-0.443916 -0.635613,0.01588 -0.98516,-0.471654 -1.159532,-1.059309 -0.05947,-0.200914 -0.160712,-0.386739 -0.233837,-0.582095 -0.494187,-1.308719 -0.240262,-2.467348 0.706327,-3.477477 0.211336,-0.231091 0.462848,-0.423269 0.683827,-0.64483 0.737666,-0.73695 1.47935,-1.469928 2.198533,-2.224348 0.522314,-0.548742 0.992395,-1.145923 1.519528,-1.690376 0.261155,-0.268258 0.48133,-0.53683 0.602668,-0.89657 0.183211,-0.539053 0.527133,-0.954063 1.02775,-1.234547 0.177586,-0.100067 0.800397,-0.215209 0.928964,-0.297798 0.206516,-0.601631 -0.282849,-1.354304 0.546422,-1.732466 z"
     id="path2-4-2" />
  <path
     style="fill:#4d4d4d;fill-opacity:1;stroke-width:0.567224"
     d="m 30.818076,16.117715 c 0.178389,0.08895 0.382492,0.15565 0.54322,0.277626 0.30937,0.237444 0.610705,0.491088 0.887931,0.764585 0.304547,0.30002 0.619542,0.470124 1.063909,0.561448 1.067929,0.216479 1.698668,0.456145 2.696686,0.874809 2.219424,0.934052 3.688328,2.693517 4.735364,4.809864 0.928912,1.881284 0.945788,3.9206 0.869449,5.969445 -0.157498,4.226976 -2.675604,7.31295 -4.022368,10.565689 h -0.348742 c 0.525527,0 0.995945,0.353388 0.995945,0.792538 v 1.591272 c 0,0.43915 -0.470418,1.019148 -0.995945,1.019148 h 0.748673 c 0.687041,0 1.381721,0.530476 1.381721,1.189603 v 2.158942 c 0,0.659124 -0.69468,1.189602 -1.381721,1.189602 H 27.037919 c -0.68704,0 -1.277389,-0.530478 -1.277389,-1.189602 v -2.158942 c 0,-0.659127 0.590349,-1.189603 1.277389,-1.189603 h 0.748637 c -0.525526,0 -0.891578,-0.579998 -0.891578,-1.019148 v -1.591272 c 0,-0.43915 0.366052,-0.792538 0.891578,-0.792538 h -0.146248 c -0.340708,-0.316059 -0.325796,-0.882272 -0.629539,-1.20548 -1.376496,-1.45643 -1.622386,-3.523541 -0.655706,-5.293646 0.472492,-0.864011 1.137034,-1.565224 1.903626,-2.164789 0.863022,-0.674847 1.754971,-1.310945 2.625239,-1.975627 0.249105,-0.190591 0.21778,-0.406393 0.548847,-0.704985 -0.820433,0.17312 -1.223852,0.387336 -1.884374,0.420689 -1.140248,0.05558 -2.123803,0.54789 -3.036644,1.21178 -0.352761,0.256501 -0.762576,0.462181 -1.175604,0.605125 -0.536778,0.184079 -0.803558,0.05241 -1.123373,-0.432801 -0.08437,-0.128646 -0.134998,-0.275561 -0.215354,-0.443916 -0.635613,0.01588 -0.98516,-0.471654 -1.159532,-1.059309 -0.05947,-0.200914 -0.160712,-0.386739 -0.233837,-0.582095 -0.494187,-1.308719 -0.240262,-2.467348 0.706327,-3.477477 0.211336,-0.231091 0.462848,-0.423269 0.683827,-0.64483 0.737666,-0.73695 1.47935,-1.469928 2.198533,-2.224348 0.522314,-0.548742 0.992395,-1.145923 1.519528,-1.690376 0.261155,-0.268258 0.48133,-0.53683 0.602668,-0.89657 0.183211,-0.539053 0.527133,-0.954063 1.02775,-1.234547 0.177586,-0.100067 0.800397,-0.215209 0.928964,-0.297798 0.206516,-0.601631 -0.282849,-1.354304 0.546422,-1.732466 z"
     id="path2-4" />
</svg>
