<?xml version="1.0" encoding="UTF-8" standalone="no"?>
<svg
   width="64"
   height="64"
   version="1.1"
   id="svg73"
   sodipodi:docname="abcd.svg"
   inkscape:version="1.4.2 (ebf0e940d0, 2025-05-08)"
   xmlns:inkscape="http://www.inkscape.org/namespaces/inkscape"
   xmlns:sodipodi="http://sodipodi.sourceforge.net/DTD/sodipodi-0.dtd"
   xmlns:xlink="http://www.w3.org/1999/xlink"
   xmlns="http://www.w3.org/2000/svg"
   xmlns:svg="http://www.w3.org/2000/svg"
   xmlns:rdf="http://www.w3.org/1999/02/22-rdf-syntax-ns#"
   xmlns:cc="http://creativecommons.org/ns#"
   xmlns:dc="http://purl.org/dc/elements/1.1/">
  <metadata
     id="metadata77">
    <rdf:RDF>
      <cc:Work
         rdf:about="">
        <dc:format>image/svg+xml</dc:format>
        <dc:type
           rdf:resource="http://purl.org/dc/dcmitype/StillImage" />
      </cc:Work>
    </rdf:RDF>
  </metadata>
  <sodipodi:namedview
     pagecolor="#f5f7fa"
     bordercolor="#666666"
     borderopacity="1"
     objecttolerance="10"
     gridtolerance="10"
     guidetolerance="10"
     inkscape:pageopacity="0"
     inkscape:pageshadow="2"
     inkscape:window-width="1263"
     inkscape:window-height="693"
     id="namedview75"
     showgrid="false"
     inkscape:zoom="4.4470387"
     inkscape:cx="36.091433"
     inkscape:cy="29.682674"
     inkscape:window-x="24"
     inkscape:window-y="21"
     inkscape:window-maximized="0"
     inkscape:current-layer="svg73"
     inkscape:document-rotation="0"
     inkscape:pagecheckerboard="0"
     inkscape:showpageshadow="2"
     inkscape:deskcolor="#d1d1d1" />
  <defs
     id="defs29">
    <linearGradient
       id="linearGradient4"
       inkscape:collect="always">
      <stop
         style="stop-color:#a8ac5e;stop-opacity:1;"
         offset="0"
         id="stop4" />
      <stop
         style="stop-color:#bec181;stop-opacity:1;"
         offset="0.5"
         id="stop1" />
    </linearGradient>
    <linearGradient
       id="linearGradient2"
       inkscape:collect="always">
      <stop
         style="stop-color:#f4f4ec;stop-opacity:1;"
         offset="0"
         id="stop2" />
      <stop
         style="stop-color:#e8e9d8;stop-opacity:1;"
         offset="1"
         id="stop3" />
    </linearGradient>
    <linearGradient
       inkscape:collect="always"
       xlink:href="#linearGradient2"
       id="linearGradient8"
       x1="31.721739"
       y1="5.2278585"
       x2="31.88887"
       y2="59.145416"
       gradientUnits="userSpaceOnUse"
       gradientTransform="matrix(0.8505,0,0,0.8505,4.7765033,4.7794869)" />
    <filter
       style="color-interpolation-filters:sRGB;"
       inkscape:label="Blur"
       id="filter9"
       x="-0.047762285"
       y="-0.047489063"
       width="1.0955246"
       height="1.0949781">
      <feGaussianBlur
         stdDeviation="1 1"
         result="blur"
         id="feGaussianBlur9" />
    </filter>
    <linearGradient
       inkscape:collect="always"
       xlink:href="#linearGradient4"
       id="linearGradient7"
       x1="26.723248"
       y1="58.711765"
       x2="25.756926"
       y2="5.950614"
       gradientUnits="userSpaceOnUse" />
    <filter
       style="color-interpolation-filters:sRGB;"
       inkscape:label="Out of Focus"
       id="filter40"
       x="-0.24226652"
       y="-0.2858297"
       width="1.484533"
       height="1.5716594">
      <feFlood
         flood-opacity="1"
         flood-color="rgb(255,255,255)"
         result="flood"
         id="feFlood38" />
      <feColorMatrix
         in="SourceGraphic"
         values="1 0 0 0 0 0 1 0 0 0 0 0 1 0 0 -0.2125 -0.7154 -0.0721 1 0 "
         result="colormatrix1"
         id="feColorMatrix38" />
      <feGaussianBlur
         in="colormatrix1"
         stdDeviation="3 3"
         result="blur"
         id="feGaussianBlur38" />
      <feColorMatrix
         in="blur"
         values="1 0 0 0 0 0 1 0 0 0 0 0 1 0 0 0 0 0 6 -2 "
         result="colormatrix2"
         id="feColorMatrix39" />
      <feBlend
         in="colormatrix2"
         in2="flood"
         mode="normal"
         result="blend"
         id="feBlend39" />
      <feComposite
         in="blend"
         in2="blend"
         operator="arithmetic"
         k2="0.2"
         result="composite1"
         id="feComposite39" />
      <feComposite
         in2="SourceGraphic"
         operator="in"
         id="feComposite40" />
    </filter>
  </defs>
  <g
     id="g877"
     transform="matrix(1.1,0,0,1.1,-3.1845928,-3.2065454)">
    <ellipse
       style="opacity:0.5;fill:#000000;stroke:none;stroke-width:3.89319;stroke-dasharray:none;stroke-opacity:1;filter:url(#filter9)"
       id="path2-5"
       cx="31.949858"
       cy="31.969812"
       rx="25.124426"
       ry="25.268976"
       transform="matrix(1.05,0,0,1.05,-1.5974929,-1.5984906)" />
    <path
       style="fill:#f5f7fa;stroke-width:0.204426;fill-opacity:1"
       d=""
       id="path3" />
    <circle
       style="opacity:1;fill:url(#linearGradient8);stroke:url(#linearGradient7);stroke-width:3.81818;stroke-dasharray:none;stroke-opacity:1"
       id="path2"
       cx="31.949856"
       cy="31.969812"
       r="24.711082" />
    <ellipse
       style="opacity:0.3;fill:none;stroke:#000000;stroke-width:0.974376;stroke-dasharray:none;stroke-opacity:1"
       id="path2-9"
       cx="31.949856"
       cy="31.969812"
       rx="23.129124"
       ry="23.129126" />
  </g>
  <path
     id="path6-5-5"
     style="fill:#000000;fill-opacity:1;stroke-width:0.0432574;opacity:0.2"
     d="m 32.542931,18.696855 c -0.849323,-0.01283 -1.960161,0.02564 -2.478456,0.09743 -1.769692,0.245058 -3.267127,0.701982 -4.823092,1.472087 -1.64471,0.814029 -2.904188,1.729896 -4.198926,3.054447 -2.480336,2.537446 -3.983612,5.802962 -4.299566,9.337846 -0.05734,0.641501 -0.05758,2.046127 0,2.682947 0.273447,3.023871 1.418524,5.869923 3.314605,8.240479 0.779373,0.974394 2.057381,2.184906 3.041599,2.881003 2.238283,1.583058 4.830822,2.552464 7.484625,2.799643 0.58609,0.05458 2.182833,0.0577 2.768594,0.0055 2.364859,-0.211422 4.76197,-1.009494 6.714858,-2.236504 3.622568,-2.276076 6.131439,-5.869058 6.954668,-9.959874 0.244146,-1.213011 0.278367,-1.590666 0.278367,-3.071575 0,-1.480771 -0.03426,-1.85811 -0.278367,-3.071578 -0.46302,-2.302075 -1.452667,-4.437255 -2.967724,-6.402379 -0.496667,-0.644208 -1.925254,-2.072793 -2.569461,-2.56946 -2.463381,-1.899206 -5.20078,-2.976195 -8.211567,-3.230025 -0.193405,-0.01628 -0.447046,-0.0257 -0.730157,-0.02996 z m 2.295387,4.331681 c 0.22179,0.01382 0.445827,0.07183 0.662705,0.178794 0.363904,0.179454 0.57078,0.395922 0.765485,0.800816 l 0.134896,0.280498 0.01284,2.433491 0.01177,2.432425 0.204486,-0.101706 c 0.319205,-0.160791 0.775873,-0.314121 1.266534,-0.42396 0.383311,-0.0858 0.570926,-0.100639 1.251536,-0.100639 0.680621,0 0.867166,0.01484 1.250469,0.100639 0.564921,0.126467 0.950474,0.26483 1.474232,0.527808 2.466547,1.238457 3.781993,4.06377 3.150839,6.76732 -0.563086,2.411909 -2.521969,4.221983 -4.989057,4.608974 -0.441949,0.06929 -1.44728,0.05734 -1.903535,-0.02244 -0.474408,-0.08297 -1.029941,-0.247572 -1.400357,-0.415393 -0.15199,-0.06888 -0.283674,-0.125264 -0.292275,-0.125264 -0.0086,0 -0.01607,0.145936 -0.01607,0.324398 v 0.324399 h -1.665883 -1.665868 l 0.01177,-8.186946 0.01067,-8.185872 0.114559,-0.243029 c 0.307483,-0.65582 0.944829,-1.015872 1.610195,-0.974309 z m -7.239455,5.478305 h 1.665866 1.665867 l -0.01177,8.16446 -0.01067,8.164462 -0.122047,0.264424 c -0.155344,0.336134 -0.490052,0.667895 -0.829723,0.823301 -0.20537,0.09392 -0.336437,0.121639 -0.627376,0.131681 -0.646321,0.02204 -1.123787,-0.224142 -1.465661,-0.756929 -0.257445,-0.401204 -0.264442,-0.484141 -0.264442,-3.027684 0,-1.831277 -0.01173,-2.30506 -0.05459,-2.286822 -1.182404,0.503031 -2.003613,0.65768 -3.112238,0.585648 -2.568734,-0.166919 -4.761867,-2.00263 -5.40124,-4.521179 -0.345729,-1.361861 -0.215385,-2.769824 0.376854,-4.074734 0.362948,-0.799697 1.17795,-1.784046 1.91639,-2.315728 0.690192,-0.496941 1.511217,-0.858632 2.381034,-1.048126 0.574328,-0.125124 1.816772,-0.115527 2.422785,0.01929 0.371285,0.08258 0.900145,0.257766 1.395005,0.461433 0.06791,0.02792 0.07602,-3.96e-4 0.07602,-0.276218 z m -2.664745,3.32745 c -0.455502,-0.01165 -0.921353,0.09347 -1.35432,0.33403 -0.608651,0.338187 -1.147398,1.030951 -1.325412,1.702268 -0.0966,0.364289 -0.09805,0.973809 -0.0032,1.33719 0.28002,1.072874 1.19845,1.891649 2.283607,2.034157 0.537016,0.07053 1.143633,-0.04496 1.658374,-0.314762 0.388422,-0.203594 0.915316,-0.748826 1.113432,-1.153044 0.298496,-0.60902 0.368201,-1.246108 0.206626,-1.877847 -0.317204,-1.240278 -1.41503,-2.032228 -2.579095,-2.061992 z m 14.190914,0.0032 c -1.252989,-0.0023 -2.362791,0.900042 -2.640118,2.146582 -0.340455,1.530283 0.747911,3.055076 2.324289,3.256791 0.910051,0.116452 1.871857,-0.279028 2.443132,-1.00423 0.404444,-0.513411 0.592014,-1.050763 0.590974,-1.695844 -0.0014,-0.758384 -0.251016,-1.342516 -0.812594,-1.904613 -0.541632,-0.542121 -1.149459,-0.797304 -1.905683,-0.798672 z" />
  <path
     id="path6-5"
     style="fill:#4d4d4d;fill-opacity:1;stroke-width:0.0432574"
     d="m 32.542931,16.696855 c -0.849323,-0.01283 -1.960161,0.02564 -2.478456,0.09743 -1.769692,0.245058 -3.267127,0.701982 -4.823092,1.472087 -1.64471,0.814029 -2.904188,1.729896 -4.198926,3.054447 -2.480336,2.537446 -3.983612,5.802962 -4.299566,9.337846 -0.05734,0.641501 -0.05758,2.046127 0,2.682947 0.273447,3.023871 1.418524,5.869923 3.314605,8.240479 0.779373,0.974394 2.057381,2.184906 3.041599,2.881003 2.238283,1.583058 4.830822,2.552464 7.484625,2.799643 0.58609,0.05458 2.182833,0.0577 2.768594,0.0055 2.364859,-0.211422 4.76197,-1.009494 6.714858,-2.236504 3.622568,-2.276076 6.131439,-5.869058 6.954668,-9.959874 0.244146,-1.213011 0.278367,-1.590666 0.278367,-3.071575 0,-1.480771 -0.03426,-1.85811 -0.278367,-3.071578 -0.46302,-2.302075 -1.452667,-4.437255 -2.967724,-6.402379 -0.496667,-0.644208 -1.925254,-2.072793 -2.569461,-2.56946 -2.463381,-1.899206 -5.20078,-2.976195 -8.211567,-3.230025 -0.193405,-0.01628 -0.447046,-0.0257 -0.730157,-0.02996 z m 2.295387,4.331681 c 0.22179,0.01382 0.445827,0.07183 0.662705,0.178794 0.363904,0.179454 0.57078,0.395922 0.765485,0.800816 l 0.134896,0.280498 0.01284,2.433491 0.01177,2.432425 0.204486,-0.101706 c 0.319205,-0.160791 0.775873,-0.314121 1.266534,-0.42396 0.383311,-0.0858 0.570926,-0.100639 1.251536,-0.100639 0.680621,0 0.867166,0.01484 1.250469,0.100639 0.564921,0.126467 0.950474,0.26483 1.474232,0.527808 2.466547,1.238457 3.781993,4.06377 3.150839,6.76732 -0.563086,2.411909 -2.521969,4.221983 -4.989057,4.608974 -0.441949,0.06929 -1.44728,0.05734 -1.903535,-0.02244 -0.474408,-0.08297 -1.029941,-0.247572 -1.400357,-0.415393 -0.15199,-0.06888 -0.283674,-0.125264 -0.292275,-0.125264 -0.0086,0 -0.01607,0.145936 -0.01607,0.324398 v 0.324399 h -1.665883 -1.665868 l 0.01177,-8.186946 0.01067,-8.185872 0.114559,-0.243029 c 0.307483,-0.65582 0.944829,-1.015872 1.610195,-0.974309 z m -7.239455,5.478305 h 1.665866 1.665867 l -0.01177,8.16446 -0.01067,8.164462 -0.122047,0.264424 c -0.155344,0.336134 -0.490052,0.667895 -0.829723,0.823301 -0.20537,0.09392 -0.336437,0.121639 -0.627376,0.131681 -0.646321,0.02204 -1.123787,-0.224142 -1.465661,-0.756929 -0.257445,-0.401204 -0.264442,-0.484141 -0.264442,-3.027684 0,-1.831277 -0.01173,-2.30506 -0.05459,-2.286822 -1.182404,0.503031 -2.003613,0.65768 -3.112238,0.585648 -2.568734,-0.166919 -4.761867,-2.00263 -5.40124,-4.521179 -0.345729,-1.361861 -0.215385,-2.769824 0.376854,-4.074734 0.362948,-0.799697 1.17795,-1.784046 1.91639,-2.315728 0.690192,-0.496941 1.511217,-0.858632 2.381034,-1.048126 0.574328,-0.125124 1.816772,-0.115527 2.422785,0.01929 0.371285,0.08258 0.900145,0.257766 1.395005,0.461433 0.06791,0.02792 0.07602,-3.96e-4 0.07602,-0.276218 z m -2.664745,3.32745 c -0.455502,-0.01165 -0.921353,0.09347 -1.35432,0.33403 -0.608651,0.338187 -1.147398,1.030951 -1.325412,1.702268 -0.0966,0.364289 -0.09805,0.973809 -0.0032,1.33719 0.28002,1.072874 1.19845,1.891649 2.283607,2.034157 0.537016,0.07053 1.143633,-0.04496 1.658374,-0.314762 0.388422,-0.203594 0.915316,-0.748826 1.113432,-1.153044 0.298496,-0.60902 0.368201,-1.246108 0.206626,-1.877847 -0.317204,-1.240278 -1.41503,-2.032228 -2.579095,-2.061992 z m 14.190914,0.0032 c -1.252989,-0.0023 -2.362791,0.900042 -2.640118,2.146582 -0.340455,1.530283 0.747911,3.055076 2.324289,3.256791 0.910051,0.116452 1.871857,-0.279028 2.443132,-1.00423 0.404444,-0.513411 0.592014,-1.050763 0.590974,-1.695844 -0.0014,-0.758384 -0.251016,-1.342516 -0.812594,-1.904613 -0.541632,-0.542121 -1.149459,-0.797304 -1.905683,-0.798672 z" />
</svg>
