<?xml version="1.0" encoding="UTF-8" standalone="no"?>
<svg
   width="64"
   height="64"
   version="1.1"
   id="svg73"
   sodipodi:docname="abcd.svg"
   inkscape:version="1.4.2 (ebf0e940d0, 2025-05-08)"
   xmlns:inkscape="http://www.inkscape.org/namespaces/inkscape"
   xmlns:sodipodi="http://sodipodi.sourceforge.net/DTD/sodipodi-0.dtd"
   xmlns:xlink="http://www.w3.org/1999/xlink"
   xmlns="http://www.w3.org/2000/svg"
   xmlns:svg="http://www.w3.org/2000/svg"
   xmlns:rdf="http://www.w3.org/1999/02/22-rdf-syntax-ns#"
   xmlns:cc="http://creativecommons.org/ns#"
   xmlns:dc="http://purl.org/dc/elements/1.1/">
  <metadata
     id="metadata77">
    <rdf:RDF>
      <cc:Work
         rdf:about="">
        <dc:format>image/svg+xml</dc:format>
        <dc:type
           rdf:resource="http://purl.org/dc/dcmitype/StillImage" />
      </cc:Work>
    </rdf:RDF>
  </metadata>
  <sodipodi:namedview
     pagecolor="#f5f7fa"
     bordercolor="#666666"
     borderopacity="1"
     objecttolerance="10"
     gridtolerance="10"
     guidetolerance="10"
     inkscape:pageopacity="0"
     inkscape:pageshadow="2"
     inkscape:window-width="1263"
     inkscape:window-height="693"
     id="namedview75"
     showgrid="false"
     inkscape:zoom="4.4470387"
     inkscape:cx="36.091433"
     inkscape:cy="29.682674"
     inkscape:window-x="24"
     inkscape:window-y="21"
     inkscape:window-maximized="0"
     inkscape:current-layer="svg73"
     inkscape:document-rotation="0"
     inkscape:pagecheckerboard="0"
     inkscape:showpageshadow="2"
     inkscape:deskcolor="#d1d1d1" />
  <defs
     id="defs29">
    <linearGradient
       id="linearGradient4"
       inkscape:collect="always">
      <stop
         style="stop-color:#a8ac5e;stop-opacity:1;"
         offset="0"
         id="stop4" />
      <stop
         style="stop-color:#bec181;stop-opacity:1;"
         offset="0.5"
         id="stop1" />
    </linearGradient>
    <linearGradient
       id="linearGradient2"
       inkscape:collect="always">
      <stop
         style="stop-color:#f4f4ec;stop-opacity:1;"
         offset="0"
         id="stop2" />
      <stop
         style="stop-color:#e8e9d8;stop-opacity:1;"
         offset="1"
         id="stop3" />
    </linearGradient>
    <linearGradient
       inkscape:collect="always"
       xlink:href="#linearGradient2"
       id="linearGradient8"
       x1="31.721739"
       y1="5.2278585"
       x2="31.88887"
       y2="59.145416"
       gradientUnits="userSpaceOnUse"
       gradientTransform="matrix(0.8505,0,0,0.8505,4.7765033,4.7794869)" />
    <filter
       style="color-interpolation-filters:sRGB;"
       inkscape:label="Blur"
       id="filter9"
       x="-0.047762285"
       y="-0.047489063"
       width="1.0955246"
       height="1.0949781">
      <feGaussianBlur
         stdDeviation="1 1"
         result="blur"
         id="feGaussianBlur9" />
    </filter>
    <linearGradient
       inkscape:collect="always"
       xlink:href="#linearGradient4"
       id="linearGradient7"
       x1="26.723248"
       y1="58.711765"
       x2="25.756926"
       y2="5.950614"
       gradientUnits="userSpaceOnUse" />
    <filter
       style="color-interpolation-filters:sRGB;"
       inkscape:label="Out of Focus"
       id="filter40"
       x="-0.24226652"
       y="-0.2858297"
       width="1.484533"
       height="1.5716594">
      <feFlood
         flood-opacity="1"
         flood-color="rgb(255,255,255)"
         result="flood"
         id="feFlood38" />
      <feColorMatrix
         in="SourceGraphic"
         values="1 0 0 0 0 0 1 0 0 0 0 0 1 0 0 -0.2125 -0.7154 -0.0721 1 0 "
         result="colormatrix1"
         id="feColorMatrix38" />
      <feGaussianBlur
         in="colormatrix1"
         stdDeviation="3 3"
         result="blur"
         id="feGaussianBlur38" />
      <feColorMatrix
         in="blur"
         values="1 0 0 0 0 0 1 0 0 0 0 0 1 0 0 0 0 0 6 -2 "
         result="colormatrix2"
         id="feColorMatrix39" />
      <feBlend
         in="colormatrix2"
         in2="flood"
         mode="normal"
         result="blend"
         id="feBlend39" />
      <feComposite
         in="blend"
         in2="blend"
         operator="arithmetic"
         k2="0.2"
         result="composite1"
         id="feComposite39" />
      <feComposite
         in2="SourceGraphic"
         operator="in"
         id="feComposite40" />
    </filter>
  </defs>
  <g
     id="g877"
     transform="matrix(1.1,0,0,1.1,-3.1845928,-3.2065454)">
    <ellipse
       style="opacity:0.5;fill:#000000;stroke:none;stroke-width:3.89319;stroke-dasharray:none;stroke-opacity:1;filter:url(#filter9)"
       id="path2-5"
       cx="31.949858"
       cy="31.969812"
       rx="25.124426"
       ry="25.268976"
       transform="matrix(1.05,0,0,1.05,-1.5974929,-1.5984906)" />
    <path
       style="fill:#f5f7fa;stroke-width:0.204426;fill-opacity:1"
       d=""
       id="path3" />
    <circle
       style="opacity:1;fill:url(#linearGradient8);stroke:url(#linearGradient7);stroke-width:3.81818;stroke-dasharray:none;stroke-opacity:1"
       id="path2"
       cx="31.949856"
       cy="31.969812"
       r="24.711082" />
    <ellipse
       style="opacity:0.3;fill:none;stroke:#000000;stroke-width:0.974376;stroke-dasharray:none;stroke-opacity:1"
       id="path2-9"
       cx="31.949856"
       cy="31.969812"
       rx="23.129124"
       ry="23.129126" />
  </g>
  <path
     d="M 31.999999,18.389486 A 15.224305,15.610513 0 0 0 16.774758,33.999039 15.224305,15.610513 0 0 0 31.999999,49.610514 15.224305,15.610513 0 0 0 47.225243,33.999039 15.224305,15.610513 0 0 0 31.999999,18.389486 Z m 0,1.985903 a 13.287907,13.624995 0 0 1 6.104607,1.535798 l -2.008023,3.519784 a 9.3140829,9.5503616 0 0 0 -4.096584,-0.982583 9.3140829,9.5503616 0 0 0 -4.039933,0.958244 l -2.088557,-3.489826 a 13.287907,13.624995 0 0 1 6.128398,-1.541467 z m 0,5.957609 a 7.476473,7.6661363 0 0 1 7.476287,7.665946 7.476473,7.6661363 0 0 1 -7.476287,7.665939 7.476473,7.6661363 0 0 1 -7.476287,-7.665939 7.476473,7.6661363 0 0 1 7.476287,-7.665946 z m 11.775687,1.368935 a 13.287907,13.624995 0 0 1 1.51063,6.297011 13.287907,13.624995 0 0 1 -1.50698,6.280111 L 40.352063,38.2126 a 9.3140829,9.5503616 0 0 0 0.961924,-4.213656 9.3140829,9.5503616 0 0 0 -0.989355,-4.25677 l 3.450957,-2.040241 z m -23.59538,0.103125 3.462009,1.989648 a 9.3140829,9.5503616 0 0 0 -0.956494,4.204246 9.3140829,9.5503616 0 0 0 0.983932,4.249278 l -3.458361,2.027093 a 13.287907,13.624995 0 0 1 -1.499675,-6.276371 13.287907,13.624995 0 0 1 1.468589,-6.193894 z m 7.71768,14.761768 a 9.3140829,9.5503616 0 0 0 4.102107,0.982585 9.3140829,9.5503616 0 0 0 4.030756,-0.954489 l 2.121425,3.472925 a 13.287907,13.624995 0 0 1 -6.152181,1.556445 13.287907,13.624995 0 0 1 -6.194221,-1.578911 l 2.092208,-3.478498 z"
     fill="url(#linearGradient898)"
     stroke-width="2.23747"
     id="path27-1"
     style="fill:#000000;fill-opacity:1;stroke:none;stroke-width:0.491164;stroke-dasharray:none;stroke-opacity:0.6;opacity:0.2" />
  <path
     d="M 31.999999,16.389486 A 15.224305,15.610513 0 0 0 16.774758,31.999039 15.224305,15.610513 0 0 0 31.999999,47.610514 15.224305,15.610513 0 0 0 47.225243,31.999039 15.224305,15.610513 0 0 0 31.999999,16.389486 Z m 0,1.985903 a 13.287907,13.624995 0 0 1 6.104607,1.535798 l -2.008023,3.519784 a 9.3140829,9.5503616 0 0 0 -4.096584,-0.982583 9.3140829,9.5503616 0 0 0 -4.039933,0.958244 l -2.088557,-3.489826 a 13.287907,13.624995 0 0 1 6.128398,-1.541467 z m 0,5.957609 a 7.476473,7.6661363 0 0 1 7.476287,7.665946 7.476473,7.6661363 0 0 1 -7.476287,7.665939 7.476473,7.6661363 0 0 1 -7.476287,-7.665939 7.476473,7.6661363 0 0 1 7.476287,-7.665946 z m 11.775687,1.368935 a 13.287907,13.624995 0 0 1 1.51063,6.297011 13.287907,13.624995 0 0 1 -1.50698,6.280111 L 40.352063,36.2126 a 9.3140829,9.5503616 0 0 0 0.961924,-4.213656 9.3140829,9.5503616 0 0 0 -0.989355,-4.25677 l 3.450957,-2.040241 z m -23.59538,0.103125 3.462009,1.989648 a 9.3140829,9.5503616 0 0 0 -0.956494,4.204246 9.3140829,9.5503616 0 0 0 0.983932,4.249278 l -3.458361,2.027093 a 13.287907,13.624995 0 0 1 -1.499675,-6.276371 13.287907,13.624995 0 0 1 1.468589,-6.193894 z m 7.71768,14.761768 a 9.3140829,9.5503616 0 0 0 4.102107,0.982585 9.3140829,9.5503616 0 0 0 4.030756,-0.954489 l 2.121425,3.472925 a 13.287907,13.624995 0 0 1 -6.152181,1.556445 13.287907,13.624995 0 0 1 -6.194221,-1.578911 l 2.092208,-3.478498 z"
     fill="url(#linearGradient898)"
     stroke-width="2.23747"
     id="path27"
     style="fill:#4d4d4d;fill-opacity:1;stroke:none;stroke-width:0.491164;stroke-dasharray:none;stroke-opacity:0.6" />
</svg>
