<?xml version="1.0" encoding="UTF-8" standalone="no"?>
<svg
   width="64"
   height="64"
   version="1.1"
   id="svg73"
   sodipodi:docname="abcd.svg"
   inkscape:version="1.4.2 (ebf0e940d0, 2025-05-08)"
   xmlns:inkscape="http://www.inkscape.org/namespaces/inkscape"
   xmlns:sodipodi="http://sodipodi.sourceforge.net/DTD/sodipodi-0.dtd"
   xmlns:xlink="http://www.w3.org/1999/xlink"
   xmlns="http://www.w3.org/2000/svg"
   xmlns:svg="http://www.w3.org/2000/svg"
   xmlns:rdf="http://www.w3.org/1999/02/22-rdf-syntax-ns#"
   xmlns:cc="http://creativecommons.org/ns#"
   xmlns:dc="http://purl.org/dc/elements/1.1/">
  <metadata
     id="metadata77">
    <rdf:RDF>
      <cc:Work
         rdf:about="">
        <dc:format>image/svg+xml</dc:format>
        <dc:type
           rdf:resource="http://purl.org/dc/dcmitype/StillImage" />
      </cc:Work>
    </rdf:RDF>
  </metadata>
  <sodipodi:namedview
     pagecolor="#f5f7fa"
     bordercolor="#666666"
     borderopacity="1"
     objecttolerance="10"
     gridtolerance="10"
     guidetolerance="10"
     inkscape:pageopacity="0"
     inkscape:pageshadow="2"
     inkscape:window-width="1263"
     inkscape:window-height="693"
     id="namedview75"
     showgrid="false"
     inkscape:zoom="4.4470387"
     inkscape:cx="36.091433"
     inkscape:cy="29.682674"
     inkscape:window-x="24"
     inkscape:window-y="21"
     inkscape:window-maximized="0"
     inkscape:current-layer="svg73"
     inkscape:document-rotation="0"
     inkscape:pagecheckerboard="0"
     inkscape:showpageshadow="2"
     inkscape:deskcolor="#d1d1d1" />
  <defs
     id="defs29">
    <linearGradient
       id="linearGradient4"
       inkscape:collect="always">
      <stop
         style="stop-color:#a8ac5e;stop-opacity:1;"
         offset="0"
         id="stop4" />
      <stop
         style="stop-color:#bec181;stop-opacity:1;"
         offset="0.5"
         id="stop1" />
    </linearGradient>
    <linearGradient
       id="linearGradient2"
       inkscape:collect="always">
      <stop
         style="stop-color:#f4f4ec;stop-opacity:1;"
         offset="0"
         id="stop2" />
      <stop
         style="stop-color:#e8e9d8;stop-opacity:1;"
         offset="1"
         id="stop3" />
    </linearGradient>
    <linearGradient
       inkscape:collect="always"
       xlink:href="#linearGradient2"
       id="linearGradient8"
       x1="31.721739"
       y1="5.2278585"
       x2="31.88887"
       y2="59.145416"
       gradientUnits="userSpaceOnUse"
       gradientTransform="matrix(0.8505,0,0,0.8505,4.7765033,4.7794869)" />
    <filter
       style="color-interpolation-filters:sRGB;"
       inkscape:label="Blur"
       id="filter9"
       x="-0.047762285"
       y="-0.047489063"
       width="1.0955246"
       height="1.0949781">
      <feGaussianBlur
         stdDeviation="1 1"
         result="blur"
         id="feGaussianBlur9" />
    </filter>
    <linearGradient
       inkscape:collect="always"
       xlink:href="#linearGradient4"
       id="linearGradient7"
       x1="26.723248"
       y1="58.711765"
       x2="25.756926"
       y2="5.950614"
       gradientUnits="userSpaceOnUse" />
    <filter
       style="color-interpolation-filters:sRGB;"
       inkscape:label="Out of Focus"
       id="filter40"
       x="-0.24226652"
       y="-0.2858297"
       width="1.484533"
       height="1.5716594">
      <feFlood
         flood-opacity="1"
         flood-color="rgb(255,255,255)"
         result="flood"
         id="feFlood38" />
      <feColorMatrix
         in="SourceGraphic"
         values="1 0 0 0 0 0 1 0 0 0 0 0 1 0 0 -0.2125 -0.7154 -0.0721 1 0 "
         result="colormatrix1"
         id="feColorMatrix38" />
      <feGaussianBlur
         in="colormatrix1"
         stdDeviation="3 3"
         result="blur"
         id="feGaussianBlur38" />
      <feColorMatrix
         in="blur"
         values="1 0 0 0 0 0 1 0 0 0 0 0 1 0 0 0 0 0 6 -2 "
         result="colormatrix2"
         id="feColorMatrix39" />
      <feBlend
         in="colormatrix2"
         in2="flood"
         mode="normal"
         result="blend"
         id="feBlend39" />
      <feComposite
         in="blend"
         in2="blend"
         operator="arithmetic"
         k2="0.2"
         result="composite1"
         id="feComposite39" />
      <feComposite
         in2="SourceGraphic"
         operator="in"
         id="feComposite40" />
    </filter>
  </defs>
  <g
     id="g877"
     transform="matrix(1.1,0,0,1.1,-3.1845928,-3.2065454)">
    <ellipse
       style="opacity:0.5;fill:#000000;stroke:none;stroke-width:3.89319;stroke-dasharray:none;stroke-opacity:1;filter:url(#filter9)"
       id="path2-5"
       cx="31.949858"
       cy="31.969812"
       rx="25.124426"
       ry="25.268976"
       transform="matrix(1.05,0,0,1.05,-1.5974929,-1.5984906)" />
    <path
       style="fill:#f5f7fa;stroke-width:0.204426;fill-opacity:1"
       d=""
       id="path3" />
    <circle
       style="opacity:1;fill:url(#linearGradient8);stroke:url(#linearGradient7);stroke-width:3.81818;stroke-dasharray:none;stroke-opacity:1"
       id="path2"
       cx="31.949856"
       cy="31.969812"
       r="24.711082" />
    <ellipse
       style="opacity:0.3;fill:none;stroke:#000000;stroke-width:0.974376;stroke-dasharray:none;stroke-opacity:1"
       id="path2-9"
       cx="31.949856"
       cy="31.969812"
       rx="23.129124"
       ry="23.129126" />
  </g>
  <path
     id="path2-6-9"
     style="fill:#000000;fill-opacity:1;stroke:none;stroke-width:0.51975;stroke-dasharray:none;stroke-opacity:0.6;opacity:0.2"
     d="m 42.471611,18.16573 c -0.06989,0.0046 -0.121725,0.02651 -0.148192,0.06699 -0.07937,0.121211 -0.600475,0.917358 -1.159282,1.768369 l -1.017176,1.547069 -1.138988,-0.576597 c -0.62614,-0.317284 -1.241755,-0.576599 -1.368416,-0.576599 -0.126654,0 -0.548101,0.46156 -0.935956,1.025288 l -0.704505,1.023259 -2.988562,-0.119784 c -3.577187,-0.145085 -5.823718,0.312338 -8.854022,1.802883 -7.124933,3.504608 -9.92258,11.681624 -6.200456,18.126282 2.081799,3.604531 6.555684,6.618633 10.904598,7.345529 4.541606,0.759099 9.488608,-0.332778 13.056689,-2.878927 6.567754,-4.686646 7.699315,-13.174669 2.541907,-19.070355 l -1.092294,-1.246589 0.639542,-1.147104 c 0.351776,-0.630068 0.578083,-1.246515 0.50147,-1.370434 -0.07658,-0.123918 -0.578987,-0.445595 -1.11665,-0.716686 -0.53767,-0.271091 -1.019955,-0.531695 -1.07198,-0.578629 l -0.0021,-0.0021 -0.0021,-0.0021 v -0.0021 -0.0021 -0.0021 c -0.0046,-0.109835 0.437103,-0.870652 1.019191,-1.746035 1.190259,-1.789978 1.196485,-1.705874 -0.192874,-2.456632 -0.272272,-0.147133 -0.516216,-0.221365 -0.669991,-0.21115 z m -12.169463,7.371924 c 0.393441,0.0067 0.885415,0.03128 1.538948,0.06498 3.877231,0.199997 8.114835,1.552434 9.432651,3.008864 0.340778,0.376622 0.763688,1.67978 1.346064,4.149881 0.836841,3.549258 0.843517,3.613763 0.438544,4.425995 -0.298383,0.598498 -0.796513,1.020096 -1.815065,1.540977 l -1.400887,0.716687 -4.324481,0.04671 c -2.378417,0.02605 -4.621814,-0.04462 -4.984321,-0.158367 -0.362507,-0.11375 -1.207884,-0.630112 -1.878004,-1.147106 -0.670121,-0.516993 -1.991668,-1.255427 -2.937806,-1.640459 -2.364112,-0.962083 -3.765543,-2.384653 -3.751946,-3.808793 0.01713,-1.793733 2.961862,-5.158487 5.692888,-6.502966 1.163169,-0.572628 1.463096,-0.716759 2.643415,-0.696384 z m 6.490784,4.882807 c -0.875407,-0.01695 -1.560889,0.555369 -2.111483,1.737914 -0.716772,1.539448 -0.709427,2.054947 0.03857,2.943896 0.499299,0.593383 0.775007,0.718919 1.577524,0.714657 1.453367,-0.0078 2.319516,-0.881043 2.744926,-2.767264 0.236903,-1.050386 -0.07375,-1.797657 -0.931894,-2.241421 -0.481547,-0.249017 -0.919733,-0.380078 -1.317646,-0.387782 z m -7.394255,0.02844 c -1.154994,-0.0047 -1.829276,0.828906 -1.829276,2.263735 0,0.56965 0.108515,1.239516 0.241602,1.488191 0.361697,0.675851 2.085041,0.629988 2.730718,-0.07307 0.630125,-0.686127 0.852909,-1.793841 0.529902,-2.643415 -0.326377,-0.858437 -0.605047,-1.030971 -1.672946,-1.035441 z m -4.267635,6.683657 c 0.851996,0.0271 1.640683,0.426214 2.085091,1.104468 0.313339,0.47822 0.337834,0.750925 0.136029,1.50037 -0.302798,1.124503 -1.87485,3.598979 -2.614995,4.117397 -1.943351,1.361177 -4.980686,-1.597982 -3.861578,-3.762095 0.548563,-1.060807 2.350105,-2.579946 3.392587,-2.860658 0.287724,-0.07748 0.578867,-0.108526 0.862866,-0.09948 z m 5.453316,3.435221 c 0.663637,0.0067 1.257559,0.27688 1.585641,0.777596 0.490388,0.748426 0.716786,3.999688 0.328904,4.724448 -0.226912,0.423988 -0.465328,0.499909 -1.490222,0.47711 -1.426285,-0.03179 -1.884507,-0.127331 -2.913442,-0.607053 -0.679848,-0.316991 -0.759322,-0.457466 -0.759322,-1.333886 0,-1.437679 0.983424,-3.266091 2.020122,-3.758039 0.407655,-0.193443 0.830132,-0.284237 1.228315,-0.280165 z m 5.865459,0.0082 c 0.806802,-0.01464 1.331897,0.397629 1.979516,1.41307 1.356986,2.127714 1.246588,2.628906 -0.692322,3.159107 -1.197812,0.327528 -3.314099,0.332243 -3.514404,0.0082 -0.08485,-0.13726 -0.210796,-0.857173 -0.278147,-1.599852 -0.153517,-1.693012 0.288998,-2.479959 1.589704,-2.830202 0.346382,-0.09325 0.646719,-0.14537 0.915653,-0.150227 z" />
  <path
     id="path2-6"
     style="fill:#4d4d4d;fill-opacity:1;stroke:none;stroke-width:0.51975;stroke-dasharray:none;stroke-opacity:0.6"
     d="m 42.471611,16.16573 c -0.06989,0.0046 -0.121725,0.02651 -0.148192,0.06699 -0.07937,0.121211 -0.600475,0.917358 -1.159282,1.768369 l -1.017176,1.547069 -1.138988,-0.576597 c -0.62614,-0.317284 -1.241755,-0.576599 -1.368416,-0.576599 -0.126654,0 -0.548101,0.46156 -0.935956,1.025288 l -0.704505,1.023259 -2.988562,-0.119784 c -3.577187,-0.145085 -5.823718,0.312338 -8.854022,1.802883 -7.124933,3.504608 -9.92258,11.681624 -6.200456,18.126282 2.081799,3.604531 6.555684,6.618633 10.904598,7.345529 4.541606,0.759099 9.488608,-0.332778 13.056689,-2.878927 6.567754,-4.686646 7.699315,-13.174669 2.541907,-19.070355 l -1.092294,-1.246589 0.639542,-1.147104 c 0.351776,-0.630068 0.578083,-1.246515 0.50147,-1.370434 -0.07658,-0.123918 -0.578987,-0.445595 -1.11665,-0.716686 -0.53767,-0.271091 -1.019955,-0.531695 -1.07198,-0.578629 l -0.0021,-0.0021 -0.0021,-0.0021 v -0.0021 -0.0021 -0.0021 c -0.0046,-0.109835 0.437103,-0.870652 1.019191,-1.746035 1.190259,-1.789978 1.196485,-1.705874 -0.192874,-2.456632 -0.272272,-0.147133 -0.516216,-0.221365 -0.669991,-0.21115 z m -12.169463,7.371924 c 0.393441,0.0067 0.885415,0.03128 1.538948,0.06498 3.877231,0.199997 8.114835,1.552434 9.432651,3.008864 0.340778,0.376622 0.763688,1.67978 1.346064,4.149881 0.836841,3.549258 0.843517,3.613763 0.438544,4.425995 -0.298383,0.598498 -0.796513,1.020096 -1.815065,1.540977 l -1.400887,0.716687 -4.324481,0.04671 c -2.378417,0.02605 -4.621814,-0.04462 -4.984321,-0.158367 -0.362507,-0.11375 -1.207884,-0.630112 -1.878004,-1.147106 -0.670121,-0.516993 -1.991668,-1.255427 -2.937806,-1.640459 -2.364112,-0.962083 -3.765543,-2.384653 -3.751946,-3.808793 0.01713,-1.793733 2.961862,-5.158487 5.692888,-6.502966 1.163169,-0.572628 1.463096,-0.716759 2.643415,-0.696384 z m 6.490784,4.882807 c -0.875407,-0.01695 -1.560889,0.555369 -2.111483,1.737914 -0.716772,1.539448 -0.709427,2.054947 0.03857,2.943896 0.499299,0.593383 0.775007,0.718919 1.577524,0.714657 1.453367,-0.0078 2.319516,-0.881043 2.744926,-2.767264 0.236903,-1.050386 -0.07375,-1.797657 -0.931894,-2.241421 -0.481547,-0.249017 -0.919733,-0.380078 -1.317646,-0.387782 z m -7.394255,0.02844 c -1.154994,-0.0047 -1.829276,0.828906 -1.829276,2.263735 0,0.56965 0.108515,1.239516 0.241602,1.488191 0.361697,0.675851 2.085041,0.629988 2.730718,-0.07307 0.630125,-0.686127 0.852909,-1.793841 0.529902,-2.643415 -0.326377,-0.858437 -0.605047,-1.030971 -1.672946,-1.035441 z m -4.267635,6.683657 c 0.851996,0.0271 1.640683,0.426214 2.085091,1.104468 0.313339,0.47822 0.337834,0.750925 0.136029,1.50037 -0.302798,1.124503 -1.87485,3.598979 -2.614995,4.117397 -1.943351,1.361177 -4.980686,-1.597982 -3.861578,-3.762095 0.548563,-1.060807 2.350105,-2.579946 3.392587,-2.860658 0.287724,-0.07748 0.578867,-0.108526 0.862866,-0.09948 z m 5.453316,3.435221 c 0.663637,0.0067 1.257559,0.27688 1.585641,0.777596 0.490388,0.748426 0.716786,3.999688 0.328904,4.724448 -0.226912,0.423988 -0.465328,0.499909 -1.490222,0.47711 -1.426285,-0.03179 -1.884507,-0.127331 -2.913442,-0.607053 -0.679848,-0.316991 -0.759322,-0.457466 -0.759322,-1.333886 0,-1.437679 0.983424,-3.266091 2.020122,-3.758039 0.407655,-0.193443 0.830132,-0.284237 1.228315,-0.280165 z m 5.865459,0.0082 c 0.806802,-0.01464 1.331897,0.397629 1.979516,1.41307 1.356986,2.127714 1.246588,2.628906 -0.692322,3.159107 -1.197812,0.327528 -3.314099,0.332243 -3.514404,0.0082 -0.08485,-0.13726 -0.210796,-0.857173 -0.278147,-1.599852 -0.153517,-1.693012 0.288998,-2.479959 1.589704,-2.830202 0.346382,-0.09325 0.646719,-0.14537 0.915653,-0.150227 z" />
</svg>
