<?xml version="1.0" encoding="UTF-8" standalone="no"?>
<svg
   width="64"
   height="64"
   version="1.1"
   id="svg73"
   sodipodi:docname="abcd.svg"
   inkscape:version="1.4.2 (ebf0e940d0, 2025-05-08)"
   xmlns:inkscape="http://www.inkscape.org/namespaces/inkscape"
   xmlns:sodipodi="http://sodipodi.sourceforge.net/DTD/sodipodi-0.dtd"
   xmlns:xlink="http://www.w3.org/1999/xlink"
   xmlns="http://www.w3.org/2000/svg"
   xmlns:svg="http://www.w3.org/2000/svg"
   xmlns:rdf="http://www.w3.org/1999/02/22-rdf-syntax-ns#"
   xmlns:cc="http://creativecommons.org/ns#"
   xmlns:dc="http://purl.org/dc/elements/1.1/">
  <metadata
     id="metadata77">
    <rdf:RDF>
      <cc:Work
         rdf:about="">
        <dc:format>image/svg+xml</dc:format>
        <dc:type
           rdf:resource="http://purl.org/dc/dcmitype/StillImage" />
      </cc:Work>
    </rdf:RDF>
  </metadata>
  <sodipodi:namedview
     pagecolor="#f5f7fa"
     bordercolor="#666666"
     borderopacity="1"
     objecttolerance="10"
     gridtolerance="10"
     guidetolerance="10"
     inkscape:pageopacity="0"
     inkscape:pageshadow="2"
     inkscape:window-width="1263"
     inkscape:window-height="693"
     id="namedview75"
     showgrid="false"
     inkscape:zoom="4.4470387"
     inkscape:cx="36.091433"
     inkscape:cy="29.682674"
     inkscape:window-x="24"
     inkscape:window-y="21"
     inkscape:window-maximized="0"
     inkscape:current-layer="svg73"
     inkscape:document-rotation="0"
     inkscape:pagecheckerboard="0"
     inkscape:showpageshadow="2"
     inkscape:deskcolor="#d1d1d1" />
  <defs
     id="defs29">
    <linearGradient
       id="linearGradient4"
       inkscape:collect="always">
      <stop
         style="stop-color:#a8ac5e;stop-opacity:1;"
         offset="0"
         id="stop4" />
      <stop
         style="stop-color:#bec181;stop-opacity:1;"
         offset="0.5"
         id="stop1" />
    </linearGradient>
    <linearGradient
       id="linearGradient2"
       inkscape:collect="always">
      <stop
         style="stop-color:#f4f4ec;stop-opacity:1;"
         offset="0"
         id="stop2" />
      <stop
         style="stop-color:#e8e9d8;stop-opacity:1;"
         offset="1"
         id="stop3" />
    </linearGradient>
    <linearGradient
       inkscape:collect="always"
       xlink:href="#linearGradient2"
       id="linearGradient8"
       x1="31.721739"
       y1="5.2278585"
       x2="31.88887"
       y2="59.145416"
       gradientUnits="userSpaceOnUse"
       gradientTransform="matrix(0.8505,0,0,0.8505,4.7765033,4.7794869)" />
    <filter
       style="color-interpolation-filters:sRGB;"
       inkscape:label="Blur"
       id="filter9"
       x="-0.047762285"
       y="-0.047489063"
       width="1.0955246"
       height="1.0949781">
      <feGaussianBlur
         stdDeviation="1 1"
         result="blur"
         id="feGaussianBlur9" />
    </filter>
    <linearGradient
       inkscape:collect="always"
       xlink:href="#linearGradient4"
       id="linearGradient7"
       x1="26.723248"
       y1="58.711765"
       x2="25.756926"
       y2="5.950614"
       gradientUnits="userSpaceOnUse" />
    <filter
       style="color-interpolation-filters:sRGB;"
       inkscape:label="Out of Focus"
       id="filter40"
       x="-0.24226652"
       y="-0.2858297"
       width="1.484533"
       height="1.5716594">
      <feFlood
         flood-opacity="1"
         flood-color="rgb(255,255,255)"
         result="flood"
         id="feFlood38" />
      <feColorMatrix
         in="SourceGraphic"
         values="1 0 0 0 0 0 1 0 0 0 0 0 1 0 0 -0.2125 -0.7154 -0.0721 1 0 "
         result="colormatrix1"
         id="feColorMatrix38" />
      <feGaussianBlur
         in="colormatrix1"
         stdDeviation="3 3"
         result="blur"
         id="feGaussianBlur38" />
      <feColorMatrix
         in="blur"
         values="1 0 0 0 0 0 1 0 0 0 0 0 1 0 0 0 0 0 6 -2 "
         result="colormatrix2"
         id="feColorMatrix39" />
      <feBlend
         in="colormatrix2"
         in2="flood"
         mode="normal"
         result="blend"
         id="feBlend39" />
      <feComposite
         in="blend"
         in2="blend"
         operator="arithmetic"
         k2="0.2"
         result="composite1"
         id="feComposite39" />
      <feComposite
         in2="SourceGraphic"
         operator="in"
         id="feComposite40" />
    </filter>
  </defs>
  <g
     id="g877"
     transform="matrix(1.1,0,0,1.1,-3.1845928,-3.2065454)">
    <ellipse
       style="opacity:0.5;fill:#000000;stroke:none;stroke-width:3.89319;stroke-dasharray:none;stroke-opacity:1;filter:url(#filter9)"
       id="path2-5"
       cx="31.949858"
       cy="31.969812"
       rx="25.124426"
       ry="25.268976"
       transform="matrix(1.05,0,0,1.05,-1.5974929,-1.5984906)" />
    <path
       style="fill:#f5f7fa;stroke-width:0.204426;fill-opacity:1"
       d=""
       id="path3" />
    <circle
       style="opacity:1;fill:url(#linearGradient8);stroke:url(#linearGradient7);stroke-width:3.81818;stroke-dasharray:none;stroke-opacity:1"
       id="path2"
       cx="31.949856"
       cy="31.969812"
       r="24.711082" />
    <ellipse
       style="opacity:0.3;fill:none;stroke:#000000;stroke-width:0.974376;stroke-dasharray:none;stroke-opacity:1"
       id="path2-9"
       cx="31.949856"
       cy="31.969812"
       rx="23.129124"
       ry="23.129126" />
  </g>
  <path
     id="path17-2"
     style="fill:#000000;fill-opacity:1;stroke:none;stroke-width:0.47025;stroke-dasharray:none;stroke-opacity:0.6;opacity:0.2"
     d="m 31.040915,21.558061 c -11.02094,0 -11.524125,0.0051 -11.862756,0.118756 -0.690987,0.232062 -1.054376,0.453746 -1.545343,0.942108 -0.555765,0.552814 -0.846895,1.0709 -0.993544,1.768105 -0.139932,0.665269 -0.142035,16.814969 -0.0023,17.474553 0.301226,1.421566 1.500907,2.562414 2.949238,2.804386 0.182233,0.0307 3.734203,0.059 7.893123,0.06317 l 7.561811,0.0074 -0.275331,-0.530354 c -0.44696,-0.861408 -0.72415,-1.827317 -0.830521,-2.893473 l -0.04345,-0.43416 h -4.948415 -4.948805 l -0.15771,-0.157679 -0.157709,-0.157733 v -1.727592 -1.728017 l 0.165656,-0.155816 0.166031,-0.155816 4.945777,-0.01703 4.9454,-0.01741 v -0.931097 -0.931141 h -0.83281 c -0.89596,0 -1.104369,-0.05138 -1.21744,-0.299532 -0.100518,-0.220603 -0.09754,-3.131877 0.0033,-3.321389 0.147344,-0.276638 0.234916,-0.297032 1.286275,-0.299162 l 1.007171,-0.002 0.1422,-0.43418 c 0.07809,-0.238699 0.239626,-0.647841 0.358917,-0.909201 0.119287,-0.261356 0.21671,-0.483945 0.21671,-0.494692 0,-0.01078 -0.624588,-0.02815 -1.38801,-0.03895 l -1.387984,-0.01966 -0.155064,-0.180404 C 31.780405,28.719786 31.780269,28.71842 31.780269,27.113022 v -1.607007 l 0.157711,-0.157709 0.158091,-0.157716 h 1.669771 1.669771 l 0.13351,0.169433 c 0.124057,0.157717 0.133126,0.252483 0.133126,1.375907 v 1.206865 L 36.125837,27.5037 c 0.23305,-0.241391 0.652395,-0.60747 0.931891,-0.813518 0.506567,-0.373438 0.508303,-0.375309 0.508687,-0.670178 6.75e-4,-0.37063 0.107096,-0.684684 0.260206,-0.766619 0.07048,-0.03773 1.048928,-0.06279 2.442444,-0.06279 2.092884,0 2.389386,0.01296 2.973442,0.131993 0.652775,0.133027 1.632775,0.474904 2.027555,0.707243 0.11695,0.06883 0.225271,0.125183 0.240912,0.125183 0.06783,0 0.0181,-1.356539 -0.06391,-1.743518 C 45.176868,23.136751 44.250825,22.142291 42.903271,21.679422 42.561661,21.5621 42.15708,21.558021 31.040854,21.558021 Z m -8.685839,3.632653 h 1.622872 l 0.156198,0.165653 c 0.15393,0.16372 0.156073,0.183799 0.176242,1.600561 0.02321,1.631766 -0.01838,1.908663 -0.308993,2.058943 -0.256378,0.13258 -3.099986,0.138709 -3.337277,0.007 -0.302577,-0.167685 -0.323579,-0.290985 -0.326009,-1.890623 -0.0024,-1.562954 0.03412,-1.803904 0.289705,-1.901989 0.05724,-0.02197 0.83457,-0.03971 1.727259,-0.03971 z m 5.77329,0 c 1.523213,0 1.65586,0.0091 1.796469,0.122915 l 0.151659,0.12292 v 1.675444 c 0,1.657538 -0.0014,1.677314 -0.146363,1.822191 -0.143461,0.143585 -0.176837,0.146471 -1.70381,0.158842 -0.856627,0.007 -1.600843,-0.004 -1.653886,-0.02421 -0.05305,-0.02033 -0.161731,-0.09591 -0.241298,-0.168303 -0.142848,-0.129958 -0.144473,-0.152468 -0.144473,-1.780964 0,-1.640833 6.04e-4,-1.650201 0.148635,-1.789285 0.144778,-0.136013 0.19327,-0.139559 1.793068,-0.139559 z m 13.547653,1.993515 c -1.469168,-9.9e-4 -2.750788,0.567934 -3.858818,1.71251 -0.903434,0.933229 -1.456627,2.007577 -1.772642,3.443927 -0.106491,0.484053 -0.117244,0.896072 -0.117244,4.455249 0,4.363083 -0.0014,4.343618 0.451953,5.612548 0.755634,2.114177 2.544616,3.680133 4.565307,3.996486 0.485119,0.07594 1.417249,0.0307 1.952667,-0.09568 0.561816,-0.132267 1.408749,-0.539603 1.937918,-0.931893 1.331555,-0.987117 2.265733,-2.61261 2.537375,-4.414783 0.0751,-0.498362 0.09494,-1.370684 0.0942,-4.166672 -8.3e-4,-1.996404 -0.02845,-3.732185 -0.06466,-3.986275 -0.260548,-1.832316 -1.112975,-3.40648 -2.40617,-4.443518 -0.993944,-0.797058 -2.072606,-1.181054 -3.319878,-1.181886 z m -0.05293,3.606176 c 0.05542,-0.0027 0.111423,-0.0022 0.167525,0.0022 0.149587,0.01159 0.300243,0.04894 0.444015,0.11422 0.590274,0.268069 0.684619,0.624725 0.657321,2.485557 -0.02391,1.604739 -0.0654,1.771314 -0.518897,2.071425 -0.181905,0.120376 -0.354797,0.172689 -0.616478,0.186454 -0.414977,0.02181 -0.60827,-0.04228 -0.867975,-0.288571 -0.355564,-0.337211 -0.364199,-0.386582 -0.364199,-2.141394 0,-1.610612 0.0011,-1.622691 0.159961,-1.893665 0.190502,-0.325125 0.550885,-0.516765 0.938697,-0.536298 z m -19.294094,0.186837 c 1.598644,0 1.600366,1.24e-4 1.780588,0.155063 l 0.180401,0.155063 0.02158,1.366075 c 0.02533,1.585683 -0.0052,1.881348 -0.216708,2.092982 -0.152546,0.152546 -0.153946,0.152796 -1.759406,0.152796 -1.605778,0 -1.606723,1.4e-5 -1.787016,-0.155064 L 20.367983,34.588712 V 32.93823 31.287368 l 0.180403,-0.155063 c 0.18025,-0.155047 0.181688,-0.155063 1.780586,-0.155063 z m 4.173109,0 h 1.636848 1.636873 l 0.166405,0.197797 0.166409,0.197803 v 1.575219 1.575224 l -0.187964,0.187966 -0.18797,0.187971 h -1.615311 -1.615311 l -0.157708,-0.157716 -0.157714,-0.15809 v -1.645187 -1.645568 l 0.157714,-0.157715 z" />
  <path
     id="path17"
     style="fill:#4d4d4d;fill-opacity:1;stroke:none;stroke-width:0.47025;stroke-dasharray:none;stroke-opacity:0.6"
     d="m 31.040915,19.558061 c -11.02094,0 -11.524125,0.0051 -11.862756,0.118756 -0.690987,0.232062 -1.054376,0.453746 -1.545343,0.942108 -0.555765,0.552814 -0.846895,1.0709 -0.993544,1.768105 -0.139932,0.665269 -0.142035,16.814969 -0.0023,17.474553 0.301226,1.421566 1.500907,2.562414 2.949238,2.804386 0.182233,0.0307 3.734203,0.059 7.893123,0.06317 l 7.561811,0.0074 -0.275331,-0.530354 c -0.44696,-0.861408 -0.72415,-1.827317 -0.830521,-2.893473 l -0.04345,-0.43416 h -4.948415 -4.948805 l -0.15771,-0.157679 -0.157709,-0.157733 v -1.727592 -1.728017 l 0.165656,-0.155816 0.166031,-0.155816 4.945777,-0.01703 4.9454,-0.01741 v -0.931097 -0.931141 h -0.83281 c -0.89596,0 -1.104369,-0.05138 -1.21744,-0.299532 -0.100518,-0.220603 -0.09754,-3.131877 0.0033,-3.321389 0.147344,-0.276638 0.234916,-0.297032 1.286275,-0.299162 l 1.007171,-0.002 0.1422,-0.43418 c 0.07809,-0.238699 0.239626,-0.647841 0.358917,-0.909201 0.119287,-0.261356 0.21671,-0.483945 0.21671,-0.494692 0,-0.01078 -0.624588,-0.02815 -1.38801,-0.03895 l -1.387984,-0.01966 -0.155064,-0.180404 C 31.780405,26.719786 31.780269,26.71842 31.780269,25.113022 v -1.607007 l 0.157711,-0.157709 0.158091,-0.157716 h 1.669771 1.669771 l 0.13351,0.169433 c 0.124057,0.157717 0.133126,0.252483 0.133126,1.375907 v 1.206865 L 36.125837,25.5037 c 0.23305,-0.241391 0.652395,-0.60747 0.931891,-0.813518 0.506567,-0.373438 0.508303,-0.375309 0.508687,-0.670178 6.75e-4,-0.37063 0.107096,-0.684684 0.260206,-0.766619 0.07048,-0.03773 1.048928,-0.06279 2.442444,-0.06279 2.092884,0 2.389386,0.01296 2.973442,0.131993 0.652775,0.133027 1.632775,0.474904 2.027555,0.707243 0.11695,0.06883 0.225271,0.125183 0.240912,0.125183 0.06783,0 0.0181,-1.356539 -0.06391,-1.743518 C 45.176868,21.136751 44.250825,20.142291 42.903271,19.679422 42.561661,19.5621 42.15708,19.558021 31.040854,19.558021 Z m -8.685839,3.632653 h 1.622872 l 0.156198,0.165653 c 0.15393,0.16372 0.156073,0.183799 0.176242,1.600561 0.02321,1.631766 -0.01838,1.908663 -0.308993,2.058943 -0.256378,0.13258 -3.099986,0.138709 -3.337277,0.007 -0.302577,-0.167685 -0.323579,-0.290985 -0.326009,-1.890623 -0.0024,-1.562954 0.03412,-1.803904 0.289705,-1.901989 0.05724,-0.02197 0.83457,-0.03971 1.727259,-0.03971 z m 5.77329,0 c 1.523213,0 1.65586,0.0091 1.796469,0.122915 l 0.151659,0.12292 v 1.675444 c 0,1.657538 -0.0014,1.677314 -0.146363,1.822191 -0.143461,0.143585 -0.176837,0.146471 -1.70381,0.158842 -0.856627,0.007 -1.600843,-0.004 -1.653886,-0.02421 -0.05305,-0.02033 -0.161731,-0.09591 -0.241298,-0.168303 -0.142848,-0.129958 -0.144473,-0.152468 -0.144473,-1.780964 0,-1.640833 6.04e-4,-1.650201 0.148635,-1.789285 0.144778,-0.136013 0.19327,-0.139559 1.793068,-0.139559 z m 13.547653,1.993515 c -1.469168,-9.9e-4 -2.750788,0.567934 -3.858818,1.71251 -0.903434,0.933229 -1.456627,2.007577 -1.772642,3.443927 -0.106491,0.484053 -0.117244,0.896072 -0.117244,4.455249 0,4.363083 -0.0014,4.343618 0.451953,5.612548 0.755634,2.114177 2.544616,3.680133 4.565307,3.996486 0.485119,0.07594 1.417249,0.0307 1.952667,-0.09568 0.561816,-0.132267 1.408749,-0.539603 1.937918,-0.931893 1.331555,-0.987117 2.265733,-2.61261 2.537375,-4.414783 0.0751,-0.498362 0.09494,-1.370684 0.0942,-4.166672 -8.3e-4,-1.996404 -0.02845,-3.732185 -0.06466,-3.986275 -0.260548,-1.832316 -1.112975,-3.40648 -2.40617,-4.443518 -0.993944,-0.797058 -2.072606,-1.181054 -3.319878,-1.181886 z m -0.05293,3.606176 c 0.05542,-0.0027 0.111423,-0.0022 0.167525,0.0022 0.149587,0.01159 0.300243,0.04894 0.444015,0.11422 0.590274,0.268069 0.684619,0.624725 0.657321,2.485557 -0.02391,1.604739 -0.0654,1.771314 -0.518897,2.071425 -0.181905,0.120376 -0.354797,0.172689 -0.616478,0.186454 -0.414977,0.02181 -0.60827,-0.04228 -0.867975,-0.288571 -0.355564,-0.337211 -0.364199,-0.386582 -0.364199,-2.141394 0,-1.610612 0.0011,-1.622691 0.159961,-1.893665 0.190502,-0.325125 0.550885,-0.516765 0.938697,-0.536298 z m -19.294094,0.186837 c 1.598644,0 1.600366,1.24e-4 1.780588,0.155063 l 0.180401,0.155063 0.02158,1.366075 c 0.02533,1.585683 -0.0052,1.881348 -0.216708,2.092982 -0.152546,0.152546 -0.153946,0.152796 -1.759406,0.152796 -1.605778,0 -1.606723,1.4e-5 -1.787016,-0.155064 L 20.367983,32.588712 V 30.93823 29.287368 l 0.180403,-0.155063 c 0.18025,-0.155047 0.181688,-0.155063 1.780586,-0.155063 z m 4.173109,0 h 1.636848 1.636873 l 0.166405,0.197797 0.166409,0.197803 v 1.575219 1.575224 l -0.187964,0.187966 -0.18797,0.187971 h -1.615311 -1.615311 l -0.157708,-0.157716 -0.157714,-0.15809 v -1.645187 -1.645568 l 0.157714,-0.157715 z" />
</svg>
