<?xml version="1.0" encoding="UTF-8" standalone="no"?>
<svg
   width="64"
   height="64"
   version="1.1"
   id="svg73"
   sodipodi:docname="1password.svg"
   inkscape:version="1.4.2 (ebf0e940d0, 2025-05-08)"
   xmlns:inkscape="http://www.inkscape.org/namespaces/inkscape"
   xmlns:sodipodi="http://sodipodi.sourceforge.net/DTD/sodipodi-0.dtd"
   xmlns:xlink="http://www.w3.org/1999/xlink"
   xmlns="http://www.w3.org/2000/svg"
   xmlns:svg="http://www.w3.org/2000/svg"
   xmlns:rdf="http://www.w3.org/1999/02/22-rdf-syntax-ns#"
   xmlns:cc="http://creativecommons.org/ns#"
   xmlns:dc="http://purl.org/dc/elements/1.1/">
  <metadata
     id="metadata77">
    <rdf:RDF>
      <cc:Work
         rdf:about="">
        <dc:format>image/svg+xml</dc:format>
        <dc:type
           rdf:resource="http://purl.org/dc/dcmitype/StillImage" />
      </cc:Work>
    </rdf:RDF>
  </metadata>
  <sodipodi:namedview
     pagecolor="#f5f7fa"
     bordercolor="#666666"
     borderopacity="1"
     objecttolerance="10"
     gridtolerance="10"
     guidetolerance="10"
     inkscape:pageopacity="0"
     inkscape:pageshadow="2"
     inkscape:window-width="1414"
     inkscape:window-height="797"
     id="namedview75"
     showgrid="false"
     inkscape:zoom="6.2890624"
     inkscape:cx="34.345342"
     inkscape:cy="29.734162"
     inkscape:window-x="24"
     inkscape:window-y="21"
     inkscape:window-maximized="0"
     inkscape:current-layer="svg73"
     inkscape:document-rotation="0"
     inkscape:pagecheckerboard="0"
     inkscape:showpageshadow="2"
     inkscape:deskcolor="#d1d1d1" />
  <defs
     id="defs29">
    <linearGradient
       id="linearGradient4"
       inkscape:collect="always">
      <stop
         style="stop-color:#a8ac5e;stop-opacity:1;"
         offset="0"
         id="stop4" />
      <stop
         style="stop-color:#bec181;stop-opacity:1;"
         offset="0.5"
         id="stop1" />
    </linearGradient>
    <linearGradient
       id="linearGradient2"
       inkscape:collect="always">
      <stop
         style="stop-color:#f4f4ec;stop-opacity:1;"
         offset="0"
         id="stop2" />
      <stop
         style="stop-color:#e8e9d8;stop-opacity:1;"
         offset="1"
         id="stop3" />
    </linearGradient>
    <linearGradient
       inkscape:collect="always"
       xlink:href="#linearGradient2"
       id="linearGradient8"
       x1="31.721739"
       y1="5.2278585"
       x2="31.88887"
       y2="59.145416"
       gradientUnits="userSpaceOnUse"
       gradientTransform="matrix(0.8505,0,0,0.8505,4.7765033,4.7794869)" />
    <filter
       style="color-interpolation-filters:sRGB;"
       inkscape:label="Blur"
       id="filter9"
       x="-0.047762285"
       y="-0.047489063"
       width="1.0955246"
       height="1.0949781">
      <feGaussianBlur
         stdDeviation="1 1"
         result="blur"
         id="feGaussianBlur9" />
    </filter>
    <linearGradient
       inkscape:collect="always"
       xlink:href="#linearGradient4"
       id="linearGradient7"
       x1="26.723248"
       y1="58.711765"
       x2="25.756926"
       y2="5.950614"
       gradientUnits="userSpaceOnUse" />
    <filter
       style="color-interpolation-filters:sRGB;"
       inkscape:label="Out of Focus"
       id="filter40"
       x="-0.24226652"
       y="-0.2858297"
       width="1.484533"
       height="1.5716594">
      <feFlood
         flood-opacity="1"
         flood-color="rgb(255,255,255)"
         result="flood"
         id="feFlood38" />
      <feColorMatrix
         in="SourceGraphic"
         values="1 0 0 0 0 0 1 0 0 0 0 0 1 0 0 -0.2125 -0.7154 -0.0721 1 0 "
         result="colormatrix1"
         id="feColorMatrix38" />
      <feGaussianBlur
         in="colormatrix1"
         stdDeviation="3 3"
         result="blur"
         id="feGaussianBlur38" />
      <feColorMatrix
         in="blur"
         values="1 0 0 0 0 0 1 0 0 0 0 0 1 0 0 0 0 0 6 -2 "
         result="colormatrix2"
         id="feColorMatrix39" />
      <feBlend
         in="colormatrix2"
         in2="flood"
         mode="normal"
         result="blend"
         id="feBlend39" />
      <feComposite
         in="blend"
         in2="blend"
         operator="arithmetic"
         k2="0.2"
         result="composite1"
         id="feComposite39" />
      <feComposite
         in2="SourceGraphic"
         operator="in"
         id="feComposite40" />
    </filter>
  </defs>
  <g
     id="g877"
     transform="matrix(1.1,0,0,1.1,-3.1845928,-3.2065454)">
    <ellipse
       style="opacity:0.5;fill:#000000;stroke:none;stroke-width:3.89319;stroke-dasharray:none;stroke-opacity:1;filter:url(#filter9)"
       id="path2-5"
       cx="31.949858"
       cy="31.969812"
       rx="25.124426"
       ry="25.268976"
       transform="matrix(1.05,0,0,1.05,-1.5974929,-1.5984906)" />
    <path
       style="fill:#f5f7fa;stroke-width:0.204426;fill-opacity:1"
       d=""
       id="path3" />
    <circle
       style="opacity:1;fill:url(#linearGradient8);stroke:url(#linearGradient7);stroke-width:3.81818;stroke-dasharray:none;stroke-opacity:1"
       id="path2"
       cx="31.949856"
       cy="31.969812"
       r="24.711082" />
    <ellipse
       style="opacity:0.3;fill:none;stroke:#000000;stroke-width:0.974376;stroke-dasharray:none;stroke-opacity:1"
       id="path2-9"
       cx="31.949856"
       cy="31.969812"
       rx="23.129124"
       ry="23.129126" />
  </g>
  <path
     id="path7-8"
     style="fill:#000000;fill-opacity:1;stroke:none;stroke-width:0.464149;stroke-dasharray:none;stroke-opacity:0.6;opacity:0.2"
     d="m 31.863189,18.782627 c -0.414978,0.0143 -0.82456,0.09476 -1.131204,0.237032 -0.331434,0.153768 -1.553195,1.330201 -6.406627,6.172486 -6.419923,6.405173 -6.441395,6.429753 -6.549235,7.340308 l -0.04915,0.411435 h 5.661807 5.661803 l 0.02119,-2.696969 0.02218,-2.696973 3.678828,2.696973 3.678826,2.696969 h 4.911199 4.910239 l -0.05297,-0.347842 c -0.02934,-0.191446 -0.161706,-0.568971 -0.293919,-0.83925 -0.209967,-0.429297 -1.009053,-1.259412 -6.324714,-6.563689 -5.8477,-5.835181 -6.10394,-6.078372 -6.576209,-6.252459 -0.326711,-0.120432 -0.747059,-0.172326 -1.162038,-0.158021 z m -1.90975,10.80426 v 4.386068 c 0,3.487074 0.02075,4.373971 0.102146,4.325365 0.200342,-0.119638 5.592487,-4.070351 5.73118,-4.199139 0.131517,-0.12213 0.0305,-0.21269 -1.47423,-1.31428 -0.888493,-0.650454 -2.232466,-1.63584 -2.986993,-2.190141 z m -12.203331,5.404539 v 0.284244 c 0,0.155976 0.07813,0.496642 0.173436,0.757349 0.164579,0.450166 0.476851,0.77757 6.204284,6.519369 3.316961,3.325271 6.188505,6.140597 6.381575,6.255348 0.193074,0.114764 0.506823,0.259604 0.696647,0.321809 0.517828,0.169786 1.424143,0.0924 2.002251,-0.170552 0.417608,-0.18994 1.164199,-0.907552 6.502021,-6.251479 6.471031,-6.478426 6.3702,-6.3648 6.505879,-7.326816 l 0.05492,-0.389274 h -4.885199 -4.884224 l -3.685573,2.702753 c -2.026575,1.486534 -3.702344,2.702753 -3.724113,2.702753 -0.02176,0 -0.0395,-1.216219 -0.0395,-2.702753 V 34.991426 H 23.40131 Z" />
  <path
     id="path7"
     style="fill:#4d4d4d;fill-opacity:1;stroke:none;stroke-width:0.464149;stroke-dasharray:none;stroke-opacity:0.6"
     d="m 31.863189,16.782627 c -0.414978,0.0143 -0.82456,0.09476 -1.131204,0.237032 -0.331434,0.153768 -1.553195,1.330201 -6.406627,6.172486 -6.419923,6.405173 -6.441395,6.429753 -6.549235,7.340308 l -0.04915,0.411435 h 5.661807 5.661803 l 0.02119,-2.696969 0.02218,-2.696973 3.678828,2.696973 3.678826,2.696969 h 4.911199 4.910239 l -0.05297,-0.347842 c -0.02934,-0.191446 -0.161706,-0.568971 -0.293919,-0.83925 -0.209967,-0.429297 -1.009053,-1.259412 -6.324714,-6.563689 -5.8477,-5.835181 -6.10394,-6.078372 -6.576209,-6.252459 -0.326711,-0.120432 -0.747059,-0.172326 -1.162038,-0.158021 z m -1.90975,10.80426 v 4.386068 c 0,3.487074 0.02075,4.373971 0.102146,4.325365 0.200342,-0.119638 5.592487,-4.070351 5.73118,-4.199139 0.131517,-0.12213 0.0305,-0.21269 -1.47423,-1.31428 -0.888493,-0.650454 -2.232466,-1.63584 -2.986993,-2.190141 z m -12.203331,5.404539 v 0.284244 c 0,0.155976 0.07813,0.496642 0.173436,0.757349 0.164579,0.450166 0.476851,0.77757 6.204284,6.519369 3.316961,3.325271 6.188505,6.140597 6.381575,6.255348 0.193074,0.114764 0.506823,0.259604 0.696647,0.321809 0.517828,0.169786 1.424143,0.0924 2.002251,-0.170552 0.417608,-0.18994 1.164199,-0.907552 6.502021,-6.251479 6.471031,-6.478426 6.3702,-6.3648 6.505879,-7.326816 l 0.05492,-0.389274 h -4.885199 -4.884224 l -3.685573,2.702753 c -2.026575,1.486534 -3.702344,2.702753 -3.724113,2.702753 -0.02176,0 -0.0395,-1.216219 -0.0395,-2.702753 V 32.991426 H 23.40131 Z" />
</svg>
