<?xml version="1.0" encoding="UTF-8" standalone="no"?>
<svg
   width="64"
   height="64"
   version="1.1"
   id="svg73"
   sodipodi:docname="abcd.svg"
   inkscape:version="1.4.2 (ebf0e940d0, 2025-05-08)"
   xmlns:inkscape="http://www.inkscape.org/namespaces/inkscape"
   xmlns:sodipodi="http://sodipodi.sourceforge.net/DTD/sodipodi-0.dtd"
   xmlns:xlink="http://www.w3.org/1999/xlink"
   xmlns="http://www.w3.org/2000/svg"
   xmlns:svg="http://www.w3.org/2000/svg"
   xmlns:rdf="http://www.w3.org/1999/02/22-rdf-syntax-ns#"
   xmlns:cc="http://creativecommons.org/ns#"
   xmlns:dc="http://purl.org/dc/elements/1.1/">
  <metadata
     id="metadata77">
    <rdf:RDF>
      <cc:Work
         rdf:about="">
        <dc:format>image/svg+xml</dc:format>
        <dc:type
           rdf:resource="http://purl.org/dc/dcmitype/StillImage" />
      </cc:Work>
    </rdf:RDF>
  </metadata>
  <sodipodi:namedview
     pagecolor="#f5f7fa"
     bordercolor="#666666"
     borderopacity="1"
     objecttolerance="10"
     gridtolerance="10"
     guidetolerance="10"
     inkscape:pageopacity="0"
     inkscape:pageshadow="2"
     inkscape:window-width="1024"
     inkscape:window-height="621"
     id="namedview75"
     showgrid="false"
     inkscape:zoom="6.2890624"
     inkscape:cx="34.822361"
     inkscape:cy="29.734162"
     inkscape:window-x="24"
     inkscape:window-y="21"
     inkscape:window-maximized="0"
     inkscape:current-layer="svg73"
     inkscape:document-rotation="0"
     inkscape:pagecheckerboard="0"
     inkscape:showpageshadow="2"
     inkscape:deskcolor="#d1d1d1" />
  <defs
     id="defs29">
    <linearGradient
       id="linearGradient4"
       inkscape:collect="always">
      <stop
         style="stop-color:#a8ac5e;stop-opacity:1;"
         offset="0"
         id="stop4" />
      <stop
         style="stop-color:#bec181;stop-opacity:1;"
         offset="0.5"
         id="stop1" />
    </linearGradient>
    <linearGradient
       id="linearGradient2"
       inkscape:collect="always">
      <stop
         style="stop-color:#f4f4ec;stop-opacity:1;"
         offset="0"
         id="stop2" />
      <stop
         style="stop-color:#e8e9d8;stop-opacity:1;"
         offset="1"
         id="stop3" />
    </linearGradient>
    <linearGradient
       inkscape:collect="always"
       xlink:href="#linearGradient2"
       id="linearGradient8"
       x1="31.721739"
       y1="5.2278585"
       x2="31.88887"
       y2="59.145416"
       gradientUnits="userSpaceOnUse"
       gradientTransform="matrix(0.8505,0,0,0.8505,4.7765033,4.7794869)" />
    <filter
       style="color-interpolation-filters:sRGB;"
       inkscape:label="Blur"
       id="filter9"
       x="-0.047762285"
       y="-0.047489063"
       width="1.0955246"
       height="1.0949781">
      <feGaussianBlur
         stdDeviation="1 1"
         result="blur"
         id="feGaussianBlur9" />
    </filter>
    <linearGradient
       inkscape:collect="always"
       xlink:href="#linearGradient4"
       id="linearGradient7"
       x1="26.723248"
       y1="58.711765"
       x2="25.756926"
       y2="5.950614"
       gradientUnits="userSpaceOnUse" />
    <filter
       style="color-interpolation-filters:sRGB;"
       inkscape:label="Out of Focus"
       id="filter40"
       x="-0.24226652"
       y="-0.2858297"
       width="1.484533"
       height="1.5716594">
      <feFlood
         flood-opacity="1"
         flood-color="rgb(255,255,255)"
         result="flood"
         id="feFlood38" />
      <feColorMatrix
         in="SourceGraphic"
         values="1 0 0 0 0 0 1 0 0 0 0 0 1 0 0 -0.2125 -0.7154 -0.0721 1 0 "
         result="colormatrix1"
         id="feColorMatrix38" />
      <feGaussianBlur
         in="colormatrix1"
         stdDeviation="3 3"
         result="blur"
         id="feGaussianBlur38" />
      <feColorMatrix
         in="blur"
         values="1 0 0 0 0 0 1 0 0 0 0 0 1 0 0 0 0 0 6 -2 "
         result="colormatrix2"
         id="feColorMatrix39" />
      <feBlend
         in="colormatrix2"
         in2="flood"
         mode="normal"
         result="blend"
         id="feBlend39" />
      <feComposite
         in="blend"
         in2="blend"
         operator="arithmetic"
         k2="0.2"
         result="composite1"
         id="feComposite39" />
      <feComposite
         in2="SourceGraphic"
         operator="in"
         id="feComposite40" />
    </filter>
    <clipPath
       id="clip0_2648_607">
      <rect
         width="16"
         height="16"
         fill="#ffffff"
         id="rect1-3"
         x="0"
         y="0" />
    </clipPath>
    <clipPath
       id="clip0_2648_607-9">
      <rect
         width="16"
         height="16"
         fill="#ffffff"
         id="rect1-3-5"
         x="0"
         y="0" />
    </clipPath>
  </defs>
  <g
     id="g877"
     transform="matrix(1.1,0,0,1.1,-3.1845928,-3.2065454)">
    <ellipse
       style="opacity:0.5;fill:#000000;stroke:none;stroke-width:3.89319;stroke-dasharray:none;stroke-opacity:1;filter:url(#filter9)"
       id="path2-5"
       cx="31.949858"
       cy="31.969812"
       rx="25.124426"
       ry="25.268976"
       transform="matrix(1.05,0,0,1.05,-1.5974929,-1.5984906)" />
    <path
       style="fill:#f5f7fa;stroke-width:0.204426;fill-opacity:1"
       d=""
       id="path3" />
    <circle
       style="opacity:1;fill:url(#linearGradient8);stroke:url(#linearGradient7);stroke-width:3.81818;stroke-dasharray:none;stroke-opacity:1"
       id="path2"
       cx="31.949856"
       cy="31.969812"
       r="24.711082" />
    <ellipse
       style="opacity:0.3;fill:none;stroke:#000000;stroke-width:0.974376;stroke-dasharray:none;stroke-opacity:1"
       id="path2-9"
       cx="31.949856"
       cy="31.969812"
       rx="23.129124"
       ry="23.129126" />
  </g>
  <path
     d="m 32.075714,18.978906 c -8.336932,0 -15.095351,6.725178 -15.095351,15.021093 0,8.295921 6.758419,15.021093 15.095351,15.021093 8.336921,0 15.095349,-6.725172 15.095349,-15.021093 0,-8.295914 -6.758428,-15.021093 -15.095349,-15.021093 z m -1.078242,4.157623 c 0.14427,-0.01503 0.326193,0.0085 0.471762,0 0.01709,0.06871 -0.105061,0.313023 -0.269547,0.670589 -1.047747,2.277541 -1.107183,4.944858 -0.13481,6.370553 0.175974,0.258485 0.33695,0.504489 0.33695,0.536471 0,0.03198 -0.189751,0.0669 -0.404356,0.0669 -0.503707,0 -0.980382,-0.305483 -1.95431,-1.072916 -0.432632,-0.340914 -0.995106,-0.627262 -1.213023,-0.670604 -0.34216,-0.06804 -0.433367,-0.03821 -0.876086,0.402347 -0.411853,0.409778 -0.539082,0.630732 -0.539082,1.005879 0,1.422583 1.69732,2.553456 4.852079,3.218807 4.284272,0.903562 5.340414,1.714807 5.45858,3.956446 0.148357,2.811042 -1.355557,4.930718 -4.649907,6.571731 -0.393185,0.19593 -0.643736,0.271939 -0.808703,0.33528 -0.07333,-0.0068 -0.129192,0.0068 -0.202058,0 -0.02774,-0.08689 -0.06766,-0.288516 -0.06766,-0.670593 0,-1.493053 -0.591409,-3.029859 -1.482548,-3.889385 -0.239215,-0.230723 -0.909018,-0.71961 -1.482592,-1.072929 -0.573561,-0.353297 -1.151457,-0.76371 -1.280418,-0.938814 -0.213704,-0.290577 -0.231477,-0.469092 -0.06765,-1.005876 0.299207,-0.980387 0.655393,-1.526425 1.347781,-2.145872 0.363025,-0.324756 0.728256,-0.597091 0.808705,-0.60353 0.08068,-0.0064 -0.463936,-0.169096 -1.280408,-0.335289 -0.81648,-0.166479 -2.01072,-0.51523 -2.628267,-0.737608 -1.129091,-0.406531 -2.653502,-1.259966 -3.234742,-1.877634 -0.02446,-0.02619 -0.04564,-0.0438 -0.06765,-0.0669 0.832683,-3.300478 3.169447,-6.00556 6.267248,-7.309371 0.648136,-0.272806 1.316359,-0.459967 2.0217,-0.603533 0.35129,-0.07145 0.715459,-0.09742 1.078237,-0.134112 z m 10.108488,5.029386 c 0.253201,0.155779 1.209596,2.214645 1.482578,3.218803 0.352468,1.296515 0.326888,3.540152 0,4.828213 -0.124431,0.490197 -0.283915,0.948795 -0.336949,1.005876 -0.053,0.0571 -0.245421,-0.271524 -0.471762,-0.670589 -0.226289,-0.398999 -0.949159,-1.246857 -1.549937,-1.877632 -1.734106,-1.820837 -2.006793,-2.771564 -1.280404,-4.224682 0.366279,-0.7328 1.960454,-2.400374 2.156474,-2.279989 z"
     fill="#4d4d4d"
     id="path2-0-0"
     style="fill:#000000;fill-opacity:1;stroke:none;stroke-width:0.913202;stroke-dasharray:none;stroke-opacity:0.3;opacity:0.2" />
  <path
     d="m 32.075714,16.978906 c -8.336932,0 -15.095351,6.725178 -15.095351,15.021093 0,8.295921 6.758419,15.021093 15.095351,15.021093 8.336921,0 15.095349,-6.725172 15.095349,-15.021093 0,-8.295914 -6.758428,-15.021093 -15.095349,-15.021093 z m -1.078242,4.157623 c 0.14427,-0.01503 0.326193,0.0085 0.471762,0 0.01709,0.06871 -0.105061,0.313023 -0.269547,0.670589 -1.047747,2.277541 -1.107183,4.944858 -0.13481,6.370553 0.175974,0.258485 0.33695,0.504489 0.33695,0.536471 0,0.03198 -0.189751,0.0669 -0.404356,0.0669 -0.503707,0 -0.980382,-0.305483 -1.95431,-1.072916 -0.432632,-0.340914 -0.995106,-0.627262 -1.213023,-0.670604 -0.34216,-0.06804 -0.433367,-0.03821 -0.876086,0.402347 -0.411853,0.409778 -0.539082,0.630732 -0.539082,1.005879 0,1.422583 1.69732,2.553456 4.852079,3.218807 4.284272,0.903562 5.340414,1.714807 5.45858,3.956446 0.148357,2.811042 -1.355557,4.930718 -4.649907,6.571731 -0.393185,0.19593 -0.643736,0.271939 -0.808703,0.33528 -0.07333,-0.0068 -0.129192,0.0068 -0.202058,0 -0.02774,-0.08689 -0.06766,-0.288516 -0.06766,-0.670593 0,-1.493053 -0.591409,-3.029859 -1.482548,-3.889385 -0.239215,-0.230723 -0.909018,-0.71961 -1.482592,-1.072929 -0.573561,-0.353297 -1.151457,-0.76371 -1.280418,-0.938814 -0.213704,-0.290577 -0.231477,-0.469092 -0.06765,-1.005876 0.299207,-0.980387 0.655393,-1.526425 1.347781,-2.145872 0.363025,-0.324756 0.728256,-0.597091 0.808705,-0.60353 0.08068,-0.0064 -0.463936,-0.169096 -1.280408,-0.335289 -0.81648,-0.166479 -2.01072,-0.51523 -2.628267,-0.737608 -1.129091,-0.406531 -2.653502,-1.259966 -3.234742,-1.877634 -0.02446,-0.02619 -0.04564,-0.0438 -0.06765,-0.0669 0.832683,-3.300478 3.169447,-6.00556 6.267248,-7.309371 0.648136,-0.272806 1.316359,-0.459967 2.0217,-0.603533 0.35129,-0.07145 0.715459,-0.09742 1.078237,-0.134112 z m 10.108488,5.029386 c 0.253201,0.155779 1.209596,2.214645 1.482578,3.218803 0.352468,1.296515 0.326888,3.540152 0,4.828213 -0.124431,0.490197 -0.283915,0.948795 -0.336949,1.005876 -0.053,0.0571 -0.245421,-0.271524 -0.471762,-0.670589 -0.226289,-0.398999 -0.949159,-1.246857 -1.549937,-1.877632 -1.734106,-1.820837 -2.006793,-2.771564 -1.280404,-4.224682 0.366279,-0.7328 1.960454,-2.400374 2.156474,-2.279989 z"
     fill="#4d4d4d"
     id="path2-0"
     style="fill:#4d4d4d;fill-opacity:1;stroke:none;stroke-width:0.913202;stroke-dasharray:none;stroke-opacity:0.3" />
</svg>
