<?xml version="1.0" encoding="UTF-8" standalone="no"?>
<svg
   width="64"
   height="64"
   version="1.1"
   id="svg73"
   sodipodi:docname="abcd.svg"
   inkscape:version="1.4.2 (ebf0e940d0, 2025-05-08)"
   xmlns:inkscape="http://www.inkscape.org/namespaces/inkscape"
   xmlns:sodipodi="http://sodipodi.sourceforge.net/DTD/sodipodi-0.dtd"
   xmlns:xlink="http://www.w3.org/1999/xlink"
   xmlns="http://www.w3.org/2000/svg"
   xmlns:svg="http://www.w3.org/2000/svg"
   xmlns:rdf="http://www.w3.org/1999/02/22-rdf-syntax-ns#"
   xmlns:cc="http://creativecommons.org/ns#"
   xmlns:dc="http://purl.org/dc/elements/1.1/">
  <metadata
     id="metadata77">
    <rdf:RDF>
      <cc:Work
         rdf:about="">
        <dc:format>image/svg+xml</dc:format>
        <dc:type
           rdf:resource="http://purl.org/dc/dcmitype/StillImage" />
      </cc:Work>
    </rdf:RDF>
  </metadata>
  <sodipodi:namedview
     pagecolor="#f5f7fa"
     bordercolor="#666666"
     borderopacity="1"
     objecttolerance="10"
     gridtolerance="10"
     guidetolerance="10"
     inkscape:pageopacity="0"
     inkscape:pageshadow="2"
     inkscape:window-width="1462"
     inkscape:window-height="840"
     id="namedview75"
     showgrid="false"
     inkscape:zoom="6.2890624"
     inkscape:cx="53.585094"
     inkscape:cy="29.654659"
     inkscape:window-x="24"
     inkscape:window-y="21"
     inkscape:window-maximized="0"
     inkscape:current-layer="svg73"
     inkscape:document-rotation="0"
     inkscape:pagecheckerboard="0"
     inkscape:showpageshadow="2"
     inkscape:deskcolor="#d1d1d1" />
  <defs
     id="defs29">
    <linearGradient
       id="linearGradient4"
       inkscape:collect="always">
      <stop
         style="stop-color:#67ac5e;stop-opacity:1;"
         offset="0"
         id="stop4" />
      <stop
         style="stop-color:#88c181;stop-opacity:1;"
         offset="0.5"
         id="stop1" />
    </linearGradient>
    <linearGradient
       id="linearGradient2"
       inkscape:collect="always">
      <stop
         style="stop-color:#edf4ec;stop-opacity:1;"
         offset="0"
         id="stop2" />
      <stop
         style="stop-color:#dae9d8;stop-opacity:1;"
         offset="1"
         id="stop3" />
    </linearGradient>
    <linearGradient
       inkscape:collect="always"
       xlink:href="#linearGradient2"
       id="linearGradient8"
       x1="31.721739"
       y1="5.2278585"
       x2="31.88887"
       y2="59.145416"
       gradientUnits="userSpaceOnUse"
       gradientTransform="matrix(0.8505,0,0,0.8505,4.7765033,4.7794869)" />
    <filter
       style="color-interpolation-filters:sRGB;"
       inkscape:label="Blur"
       id="filter9"
       x="-0.047762285"
       y="-0.047489063"
       width="1.0955246"
       height="1.0949781">
      <feGaussianBlur
         stdDeviation="1 1"
         result="blur"
         id="feGaussianBlur9" />
    </filter>
    <linearGradient
       inkscape:collect="always"
       xlink:href="#linearGradient4"
       id="linearGradient7"
       x1="26.723248"
       y1="58.711765"
       x2="25.756926"
       y2="5.950614"
       gradientUnits="userSpaceOnUse" />
    <filter
       style="color-interpolation-filters:sRGB;"
       inkscape:label="Out of Focus"
       id="filter40"
       x="-0.24226652"
       y="-0.2858297"
       width="1.484533"
       height="1.5716594">
      <feFlood
         flood-opacity="1"
         flood-color="rgb(255,255,255)"
         result="flood"
         id="feFlood38" />
      <feColorMatrix
         in="SourceGraphic"
         values="1 0 0 0 0 0 1 0 0 0 0 0 1 0 0 -0.2125 -0.7154 -0.0721 1 0 "
         result="colormatrix1"
         id="feColorMatrix38" />
      <feGaussianBlur
         in="colormatrix1"
         stdDeviation="3 3"
         result="blur"
         id="feGaussianBlur38" />
      <feColorMatrix
         in="blur"
         values="1 0 0 0 0 0 1 0 0 0 0 0 1 0 0 0 0 0 6 -2 "
         result="colormatrix2"
         id="feColorMatrix39" />
      <feBlend
         in="colormatrix2"
         in2="flood"
         mode="normal"
         result="blend"
         id="feBlend39" />
      <feComposite
         in="blend"
         in2="blend"
         operator="arithmetic"
         k2="0.2"
         result="composite1"
         id="feComposite39" />
      <feComposite
         in2="SourceGraphic"
         operator="in"
         id="feComposite40" />
    </filter>
  </defs>
  <g
     id="g877"
     transform="matrix(1.1,0,0,1.1,-3.1845928,-3.2065454)">
    <ellipse
       style="opacity:0.5;fill:#000000;stroke:none;stroke-width:3.89319;stroke-dasharray:none;stroke-opacity:1;filter:url(#filter9)"
       id="path2-5"
       cx="31.949858"
       cy="31.969812"
       rx="25.124426"
       ry="25.268976"
       transform="matrix(1.05,0,0,1.05,-1.5974929,-1.5984906)" />
    <path
       style="fill:#f5f7fa;stroke-width:0.204426;fill-opacity:1"
       d=""
       id="path3" />
    <circle
       style="opacity:1;fill:url(#linearGradient8);stroke:url(#linearGradient7);stroke-width:3.81818;stroke-dasharray:none;stroke-opacity:1"
       id="path2"
       cx="31.949856"
       cy="31.969812"
       r="24.711082" />
    <ellipse
       style="opacity:0.3;fill:none;stroke:#000000;stroke-width:0.974376;stroke-dasharray:none;stroke-opacity:1"
       id="path2-9"
       cx="31.949856"
       cy="31.969812"
       rx="23.129124"
       ry="23.129126" />
  </g>
  <path
     style="fill:#000000;fill-opacity:1;stroke:none;stroke-width:0.950647;stroke-dasharray:none;stroke-dashoffset:2.2;stroke-opacity:0.3;opacity:0.2"
     d="m 26.124999,44.158929 c -2.176543,-0.347525 -4.627503,-1.786885 -6.265171,-3.679308 -0.878437,-1.015086 -2.270624,-3.102055 -2.771631,-4.154831 -0.652712,-1.371554 -0.782425,-2.176757 -0.514952,-3.196562 0.289468,-1.103665 0.803758,-2.157982 1.729187,-3.5449 2.045335,-3.0653 4.071169,-4.699176 6.883061,-5.551338 1.036026,-0.313975 3.212454,-0.340016 4.534779,-0.05425 2.532574,0.54729 5.735564,2.525758 7.435577,4.59292 0.873705,1.062397 1.362276,1.379125 2.141767,1.388456 0.519062,0.0062 0.900929,-0.182184 3.790587,-1.870233 3.720628,-2.173466 4.001244,-2.317521 4.295003,-2.204799 0.341104,0.130916 0.181393,0.960511 -0.480622,2.495805 -2.390999,5.544978 -2.416838,5.615994 -2.220075,6.100585 0.100331,0.247067 0.770106,1.822757 1.488409,3.501539 1.398207,3.2678 1.594726,4.032774 1.055667,4.109482 -0.178501,0.02526 -1.551169,-0.696542 -3.808555,-2.003085 -4.527724,-2.620581 -4.498254,-2.617583 -6.282343,-0.638536 -2.548691,2.827206 -5.978221,4.612934 -9.135968,4.75702 -0.673461,0.03095 -1.517083,0.0093 -1.87472,-0.04797 z M 23.68502,31.210849 c 0.692918,-0.692915 0.619093,-2.026924 -0.14217,-2.568988 -1.406354,-1.001413 -3.223916,0.527804 -2.483028,2.089106 0.322889,0.680445 0.859062,0.98276 1.625671,0.916625 0.473803,-0.04088 0.704434,-0.141654 0.999527,-0.436743 z"
     id="path26-8" />
  <path
     style="fill:#4d4d4d;fill-opacity:1;stroke:none;stroke-width:0.950647;stroke-dasharray:none;stroke-dashoffset:2.2;stroke-opacity:0.3"
     d="m 26.124999,42.158929 c -2.176543,-0.347525 -4.627503,-1.786885 -6.265171,-3.679308 -0.878437,-1.015086 -2.270624,-3.102055 -2.771631,-4.154831 -0.652712,-1.371554 -0.782425,-2.176757 -0.514952,-3.196562 0.289468,-1.103665 0.803758,-2.157982 1.729187,-3.5449 2.045335,-3.0653 4.071169,-4.699176 6.883061,-5.551338 1.036026,-0.313975 3.212454,-0.340016 4.534779,-0.05425 2.532574,0.54729 5.735564,2.525758 7.435577,4.59292 0.873705,1.062397 1.362276,1.379125 2.141767,1.388456 0.519062,0.0062 0.900929,-0.182184 3.790587,-1.870233 3.720628,-2.173466 4.001244,-2.317521 4.295003,-2.204799 0.341104,0.130916 0.181393,0.960511 -0.480622,2.495805 -2.390999,5.544978 -2.416838,5.615994 -2.220075,6.100585 0.100331,0.247067 0.770106,1.822757 1.488409,3.501539 1.398207,3.2678 1.594726,4.032774 1.055667,4.109482 -0.178501,0.02526 -1.551169,-0.696542 -3.808555,-2.003085 -4.527724,-2.620581 -4.498254,-2.617583 -6.282343,-0.638536 -2.548691,2.827206 -5.978221,4.612934 -9.135968,4.75702 -0.673461,0.03095 -1.517083,0.0093 -1.87472,-0.04797 z M 23.68502,29.210849 c 0.692918,-0.692915 0.619093,-2.026924 -0.14217,-2.568988 -1.406354,-1.001413 -3.223916,0.527804 -2.483028,2.089106 0.322889,0.680445 0.859062,0.98276 1.625671,0.916625 0.473803,-0.04088 0.704434,-0.141654 0.999527,-0.436743 z"
     id="path26" />
</svg>
