<?xml version="1.0" encoding="UTF-8" standalone="no"?>
<svg
   width="64"
   height="64"
   version="1.1"
   id="svg73"
   sodipodi:docname="abcd.svg"
   inkscape:version="1.4.2 (ebf0e940d0, 2025-05-08)"
   xmlns:inkscape="http://www.inkscape.org/namespaces/inkscape"
   xmlns:sodipodi="http://sodipodi.sourceforge.net/DTD/sodipodi-0.dtd"
   xmlns:xlink="http://www.w3.org/1999/xlink"
   xmlns="http://www.w3.org/2000/svg"
   xmlns:svg="http://www.w3.org/2000/svg"
   xmlns:rdf="http://www.w3.org/1999/02/22-rdf-syntax-ns#"
   xmlns:cc="http://creativecommons.org/ns#"
   xmlns:dc="http://purl.org/dc/elements/1.1/">
  <metadata
     id="metadata77">
    <rdf:RDF>
      <cc:Work
         rdf:about="">
        <dc:format>image/svg+xml</dc:format>
        <dc:type
           rdf:resource="http://purl.org/dc/dcmitype/StillImage" />
      </cc:Work>
    </rdf:RDF>
  </metadata>
  <sodipodi:namedview
     pagecolor="#f5f7fa"
     bordercolor="#666666"
     borderopacity="1"
     objecttolerance="10"
     gridtolerance="10"
     guidetolerance="10"
     inkscape:pageopacity="0"
     inkscape:pageshadow="2"
     inkscape:window-width="1462"
     inkscape:window-height="840"
     id="namedview75"
     showgrid="false"
     inkscape:zoom="6.2890624"
     inkscape:cx="53.585094"
     inkscape:cy="29.654659"
     inkscape:window-x="24"
     inkscape:window-y="21"
     inkscape:window-maximized="0"
     inkscape:current-layer="svg73"
     inkscape:document-rotation="0"
     inkscape:pagecheckerboard="0"
     inkscape:showpageshadow="2"
     inkscape:deskcolor="#d1d1d1" />
  <defs
     id="defs29">
    <linearGradient
       id="linearGradient4"
       inkscape:collect="always">
      <stop
         style="stop-color:#67ac5e;stop-opacity:1;"
         offset="0"
         id="stop4" />
      <stop
         style="stop-color:#88c181;stop-opacity:1;"
         offset="0.5"
         id="stop1" />
    </linearGradient>
    <linearGradient
       id="linearGradient2"
       inkscape:collect="always">
      <stop
         style="stop-color:#edf4ec;stop-opacity:1;"
         offset="0"
         id="stop2" />
      <stop
         style="stop-color:#dae9d8;stop-opacity:1;"
         offset="1"
         id="stop3" />
    </linearGradient>
    <linearGradient
       inkscape:collect="always"
       xlink:href="#linearGradient2"
       id="linearGradient8"
       x1="31.721739"
       y1="5.2278585"
       x2="31.88887"
       y2="59.145416"
       gradientUnits="userSpaceOnUse"
       gradientTransform="matrix(0.8505,0,0,0.8505,4.7765033,4.7794869)" />
    <filter
       style="color-interpolation-filters:sRGB;"
       inkscape:label="Blur"
       id="filter9"
       x="-0.047762285"
       y="-0.047489063"
       width="1.0955246"
       height="1.0949781">
      <feGaussianBlur
         stdDeviation="1 1"
         result="blur"
         id="feGaussianBlur9" />
    </filter>
    <linearGradient
       inkscape:collect="always"
       xlink:href="#linearGradient4"
       id="linearGradient7"
       x1="26.723248"
       y1="58.711765"
       x2="25.756926"
       y2="5.950614"
       gradientUnits="userSpaceOnUse" />
    <filter
       style="color-interpolation-filters:sRGB;"
       inkscape:label="Out of Focus"
       id="filter40"
       x="-0.24226652"
       y="-0.2858297"
       width="1.484533"
       height="1.5716594">
      <feFlood
         flood-opacity="1"
         flood-color="rgb(255,255,255)"
         result="flood"
         id="feFlood38" />
      <feColorMatrix
         in="SourceGraphic"
         values="1 0 0 0 0 0 1 0 0 0 0 0 1 0 0 -0.2125 -0.7154 -0.0721 1 0 "
         result="colormatrix1"
         id="feColorMatrix38" />
      <feGaussianBlur
         in="colormatrix1"
         stdDeviation="3 3"
         result="blur"
         id="feGaussianBlur38" />
      <feColorMatrix
         in="blur"
         values="1 0 0 0 0 0 1 0 0 0 0 0 1 0 0 0 0 0 6 -2 "
         result="colormatrix2"
         id="feColorMatrix39" />
      <feBlend
         in="colormatrix2"
         in2="flood"
         mode="normal"
         result="blend"
         id="feBlend39" />
      <feComposite
         in="blend"
         in2="blend"
         operator="arithmetic"
         k2="0.2"
         result="composite1"
         id="feComposite39" />
      <feComposite
         in2="SourceGraphic"
         operator="in"
         id="feComposite40" />
    </filter>
  </defs>
  <g
     id="g877"
     transform="matrix(1.1,0,0,1.1,-3.1845928,-3.2065454)">
    <ellipse
       style="opacity:0.5;fill:#000000;stroke:none;stroke-width:3.89319;stroke-dasharray:none;stroke-opacity:1;filter:url(#filter9)"
       id="path2-5"
       cx="31.949858"
       cy="31.969812"
       rx="25.124426"
       ry="25.268976"
       transform="matrix(1.05,0,0,1.05,-1.5974929,-1.5984906)" />
    <path
       style="fill:#f5f7fa;stroke-width:0.204426;fill-opacity:1"
       d=""
       id="path3" />
    <circle
       style="opacity:1;fill:url(#linearGradient8);stroke:url(#linearGradient7);stroke-width:3.81818;stroke-dasharray:none;stroke-opacity:1"
       id="path2"
       cx="31.949856"
       cy="31.969812"
       r="24.711082" />
    <ellipse
       style="opacity:0.3;fill:none;stroke:#000000;stroke-width:0.974376;stroke-dasharray:none;stroke-opacity:1"
       id="path2-9"
       cx="31.949856"
       cy="31.969812"
       rx="23.129124"
       ry="23.129126" />
  </g>
  <path
     style="fill:#000000;fill-opacity:1;stroke:none;stroke-width:0.48139;stroke-dasharray:none;stroke-opacity:0.6;opacity:0.2"
     d="m 27.352214,18.993694 c -0.09206,0.0023 -0.190566,0.02895 -0.284519,0.09122 -0.09392,0.06233 -0.171002,0.176423 -0.189661,0.273669 -0.03733,0.194487 0.0084,0.287574 0.0948,0.456112 0.398948,0.691464 0.793313,1.230929 0.94834,1.642028 0.266289,0.570024 0.262513,1.099765 0.189658,1.459567 l -0.474153,2.189375 c -2.39407,0.533283 -4.704772,1.072266 -7.017737,1.824531 -0.450192,0.13851 -0.793155,0.277948 -1.138,0.456126 -0.03138,-0.005 -0.06344,-0.005 -0.09482,0 -0.121181,0.06941 -0.126847,0.171647 -0.189662,0.273667 -0.03138,0.05102 -0.08611,0.110458 -0.09483,0.182452 -0.0086,0.07198 0.0268,0.189525 0.09483,0.273675 0.201983,0.267714 0.473509,0.378353 0.853494,0.547346 0.379982,0.168971 0.816453,0.343231 1.138,0.456108 1.608624,0.564708 3.677294,1.021236 5.310591,1.185906 -0.439841,1.908877 -0.86483,3.795689 -1.517325,5.655789 -0.158864,0.452851 -0.36136,0.92454 -0.569001,1.368344 -0.596366,1.274707 -1.352773,2.438511 -2.086409,3.55766 -0.774868,1.045101 -1.427814,2.06391 -2.276036,3.010317 -0.158223,0.161182 -0.413602,0.299188 -0.569,0.456114 -0.07768,0.07854 -0.133099,0.204107 -0.189664,0.273703 -0.02831,0.03493 -0.07064,0.04891 -0.09482,0.0912 -0.02428,0.04222 -0.0092,0.06438 0,0.182417 -0.0053,0.03008 -0.0053,0.06104 0,0.0912 0.02378,0.03707 0.05629,0.0683 0.09482,0.09126 0.02378,0.03707 0.05629,0.06835 0.09484,0.09126 0.03138,0.0048 0.06344,0.0048 0.09482,0 0.169422,0.02461 0.309648,-0.0419 0.474172,-0.09126 0.16451,-0.04926 0.277688,-0.09381 0.474169,-0.182447 0.392951,-0.177345 0.899839,-0.378237 1.327665,-0.638569 0.614634,-0.374 1.068101,-0.754304 1.422496,-1.003454 0.624567,-0.439077 2.031097,-1.698465 2.750108,-2.554222 0.826178,-0.904343 1.705855,-1.874656 2.370852,-3.101564 0.01275,-0.02351 -0.01276,-0.0675 0,-0.09123 0.04533,-0.07523 0.308068,-0.558737 0.379338,-0.729769 0.142545,-0.342067 0.237877,-0.681503 0.284508,-0.821017 l 2.08641,-6.111857 7.302177,-1.642032 c -0.181141,1.47388 -0.384334,2.901658 -0.568995,4.378751 -0.140738,1.217662 -0.236823,1.708065 -0.379342,3.010318 -0.0043,0.03893 0.0045,0.05078 0,0.09123 -0.08089,0.401386 -0.316123,1.529017 -0.379337,1.824526 -0.48472,2.265765 -1.005442,4.320371 -2.086407,6.111883 -0.258611,0.34948 -0.557782,0.716976 -0.853495,1.003456 -0.299088,-0.139608 -0.718691,-0.334018 -1.327662,-0.364886 -0.01045,-0.0015 -0.06557,0.0013 -0.09482,0 -0.03138,-0.0051 -0.06341,-0.0051 -0.09482,0 -0.0015,3.77e-4 -0.0942,0.09056 -0.09482,0.0912 -0.03855,0.02248 -0.07099,0.05413 -0.09482,0.09126 -0.04023,0.207174 0.03224,0.367346 0.09482,0.547341 0.0626,0.180018 0.113646,0.381821 0.18966,0.547347 0.548297,1.193875 1.191698,2.222842 1.801802,3.284067 0.02378,0.03707 0.05629,0.06829 0.09482,0.09126 0.02378,0.03707 0.0563,0.06829 0.09482,0.09122 0.03135,0.0048 0.06341,0.0048 0.09485,0 0.03135,0.0048 0.06341,0.0048 0.09482,0 0.03856,-0.02278 0.07099,-0.05413 0.09482,-0.09122 0.911014,-0.830625 1.980792,-2.167922 2.750115,-3.28407 1.51328,-2.183372 2.792681,-4.624281 3.69858,-7.389067 0.135362,-0.430086 0.245602,-0.865409 0.379342,-1.368344 l 2.844919,-10.490634 c 0.120294,-0.463613 0.259362,-0.978885 0.284484,-1.368345 0.0048,-0.03018 0.0048,-0.06102 0,-0.09122 -0.05887,-0.135046 -0.187672,-0.205534 -0.284484,-0.273657 -0.09688,-0.06812 -0.162005,-0.123652 -0.284488,-0.182456 -0.241863,-0.121417 -0.565983,-0.265191 -0.851392,-0.368749 -1.364169,-0.442135 -2.84767,-0.839846 -4.456932,-1.185934 -0.172513,-0.07187 -0.288646,-0.100705 -0.474074,-0.0911 -0.184696,0.0096 -0.457949,0.05421 -0.663837,0.09122 -0.411773,0.07401 -0.835825,0.212032 -1.138004,0.273675 l -3.794227,0.820926 c 0.161253,-0.485062 0.424089,-1.200047 0.190276,-2.098126 -0.324112,-1.019349 -1.159383,-1.613969 -2.086566,-1.915631 -0.790123,-0.257087 -1.560895,-0.485809 -2.370369,-0.729842 -0.132224,-0.03948 -0.727234,-0.242081 -1.328693,-0.273595 z"
     id="path8-7-3" />
  <path
     style="fill:#4d4d4d;fill-opacity:1;stroke:none;stroke-width:0.48139;stroke-dasharray:none;stroke-opacity:0.6"
     d="m 27.352214,16.993694 c -0.09206,0.0023 -0.190566,0.02895 -0.284519,0.09122 -0.09392,0.06233 -0.171002,0.176423 -0.189661,0.273669 -0.03733,0.194487 0.0084,0.287574 0.0948,0.456112 0.398948,0.691464 0.793313,1.230929 0.94834,1.642028 0.266289,0.570024 0.262513,1.099765 0.189658,1.459567 l -0.474153,2.189375 c -2.39407,0.533283 -4.704772,1.072266 -7.017737,1.824531 -0.450192,0.13851 -0.793155,0.277948 -1.138,0.456126 -0.03138,-0.005 -0.06344,-0.005 -0.09482,0 -0.121181,0.06941 -0.126847,0.171647 -0.189662,0.273667 -0.03138,0.05102 -0.08611,0.110458 -0.09483,0.182452 -0.0086,0.07198 0.0268,0.189525 0.09483,0.273675 0.201983,0.267714 0.473509,0.378353 0.853494,0.547346 0.379982,0.168971 0.816453,0.343231 1.138,0.456108 1.608624,0.564708 3.677294,1.021236 5.310591,1.185906 -0.439841,1.908877 -0.86483,3.795689 -1.517325,5.655789 -0.158864,0.452851 -0.36136,0.92454 -0.569001,1.368344 -0.596366,1.274707 -1.352773,2.438511 -2.086409,3.55766 -0.774868,1.045101 -1.427814,2.06391 -2.276036,3.010317 -0.158223,0.161182 -0.413602,0.299188 -0.569,0.456114 -0.07768,0.07854 -0.133099,0.204107 -0.189664,0.273703 -0.02831,0.03493 -0.07064,0.04891 -0.09482,0.0912 -0.02428,0.04222 -0.0092,0.06438 0,0.182417 -0.0053,0.03008 -0.0053,0.06104 0,0.0912 0.02378,0.03707 0.05629,0.0683 0.09482,0.09126 0.02378,0.03707 0.05629,0.06835 0.09484,0.09126 0.03138,0.0048 0.06344,0.0048 0.09482,0 0.169422,0.02461 0.309648,-0.0419 0.474172,-0.09126 0.16451,-0.04926 0.277688,-0.09381 0.474169,-0.182447 0.392951,-0.177345 0.899839,-0.378237 1.327665,-0.638569 0.614634,-0.374 1.068101,-0.754304 1.422496,-1.003454 0.624567,-0.439077 2.031097,-1.698465 2.750108,-2.554222 0.826178,-0.904343 1.705855,-1.874656 2.370852,-3.101564 0.01275,-0.02351 -0.01276,-0.0675 0,-0.09123 0.04533,-0.07523 0.308068,-0.558737 0.379338,-0.729769 0.142545,-0.342067 0.237877,-0.681503 0.284508,-0.821017 l 2.08641,-6.111857 7.302177,-1.642032 c -0.181141,1.47388 -0.384334,2.901658 -0.568995,4.378751 -0.140738,1.217662 -0.236823,1.708065 -0.379342,3.010318 -0.0043,0.03893 0.0045,0.05078 0,0.09123 -0.08089,0.401386 -0.316123,1.529017 -0.379337,1.824526 -0.48472,2.265765 -1.005442,4.320371 -2.086407,6.111883 -0.258611,0.34948 -0.557782,0.716976 -0.853495,1.003456 -0.299088,-0.139608 -0.718691,-0.334018 -1.327662,-0.364886 -0.01045,-0.0015 -0.06557,0.0013 -0.09482,0 -0.03138,-0.0051 -0.06341,-0.0051 -0.09482,0 -0.0015,3.77e-4 -0.0942,0.09056 -0.09482,0.0912 -0.03855,0.02248 -0.07099,0.05413 -0.09482,0.09126 -0.04023,0.207174 0.03224,0.367346 0.09482,0.547341 0.0626,0.180018 0.113646,0.381821 0.18966,0.547347 0.548297,1.193875 1.191698,2.222842 1.801802,3.284067 0.02378,0.03707 0.05629,0.06829 0.09482,0.09126 0.02378,0.03707 0.0563,0.06829 0.09482,0.09122 0.03135,0.0048 0.06341,0.0048 0.09485,0 0.03135,0.0048 0.06341,0.0048 0.09482,0 0.03856,-0.02278 0.07099,-0.05413 0.09482,-0.09122 0.911014,-0.830625 1.980792,-2.167922 2.750115,-3.28407 1.51328,-2.183372 2.792681,-4.624281 3.69858,-7.389067 0.135362,-0.430086 0.245602,-0.865409 0.379342,-1.368344 l 2.844919,-10.490634 c 0.120294,-0.463613 0.259362,-0.978885 0.284484,-1.368345 0.0048,-0.03018 0.0048,-0.06102 0,-0.09122 -0.05887,-0.135046 -0.187672,-0.205534 -0.284484,-0.273657 -0.09688,-0.06812 -0.162005,-0.123652 -0.284488,-0.182456 -0.241863,-0.121417 -0.565983,-0.265191 -0.851392,-0.368749 -1.364169,-0.442135 -2.84767,-0.839846 -4.456932,-1.185934 -0.172513,-0.07187 -0.288646,-0.100705 -0.474074,-0.0911 -0.184696,0.0096 -0.457949,0.05421 -0.663837,0.09122 -0.411773,0.07401 -0.835825,0.212032 -1.138004,0.273675 l -3.794227,0.820926 c 0.161253,-0.485062 0.424089,-1.200047 0.190276,-2.098126 -0.324112,-1.019349 -1.159383,-1.613969 -2.086566,-1.915631 -0.790123,-0.257087 -1.560895,-0.485809 -2.370369,-0.729842 -0.132224,-0.03948 -0.727234,-0.242081 -1.328693,-0.273595 z"
     id="path8-7" />
</svg>
