<?xml version="1.0" encoding="UTF-8" standalone="no"?>
<svg
   width="64"
   height="64"
   version="1.1"
   id="svg73"
   sodipodi:docname="1password.svg"
   inkscape:version="1.4.2 (ebf0e940d0, 2025-05-08)"
   xmlns:inkscape="http://www.inkscape.org/namespaces/inkscape"
   xmlns:sodipodi="http://sodipodi.sourceforge.net/DTD/sodipodi-0.dtd"
   xmlns:xlink="http://www.w3.org/1999/xlink"
   xmlns="http://www.w3.org/2000/svg"
   xmlns:svg="http://www.w3.org/2000/svg"
   xmlns:rdf="http://www.w3.org/1999/02/22-rdf-syntax-ns#"
   xmlns:cc="http://creativecommons.org/ns#"
   xmlns:dc="http://purl.org/dc/elements/1.1/">
  <metadata
     id="metadata77">
    <rdf:RDF>
      <cc:Work
         rdf:about="">
        <dc:format>image/svg+xml</dc:format>
        <dc:type
           rdf:resource="http://purl.org/dc/dcmitype/StillImage" />
      </cc:Work>
    </rdf:RDF>
  </metadata>
  <sodipodi:namedview
     pagecolor="#f5f7fa"
     bordercolor="#666666"
     borderopacity="1"
     objecttolerance="10"
     gridtolerance="10"
     guidetolerance="10"
     inkscape:pageopacity="0"
     inkscape:pageshadow="2"
     inkscape:window-width="1414"
     inkscape:window-height="797"
     id="namedview75"
     showgrid="false"
     inkscape:zoom="6.2890624"
     inkscape:cx="34.345342"
     inkscape:cy="29.734162"
     inkscape:window-x="24"
     inkscape:window-y="21"
     inkscape:window-maximized="0"
     inkscape:current-layer="svg73"
     inkscape:document-rotation="0"
     inkscape:pagecheckerboard="0"
     inkscape:showpageshadow="2"
     inkscape:deskcolor="#d1d1d1" />
  <defs
     id="defs29">
    <linearGradient
       id="linearGradient4"
       inkscape:collect="always">
      <stop
         style="stop-color:#67ac5e;stop-opacity:1;"
         offset="0"
         id="stop4" />
      <stop
         style="stop-color:#88c181;stop-opacity:1;"
         offset="0.5"
         id="stop1" />
    </linearGradient>
    <linearGradient
       id="linearGradient2"
       inkscape:collect="always">
      <stop
         style="stop-color:#edf4ec;stop-opacity:1;"
         offset="0"
         id="stop2" />
      <stop
         style="stop-color:#dae9d8;stop-opacity:1;"
         offset="1"
         id="stop3" />
    </linearGradient>
    <linearGradient
       inkscape:collect="always"
       xlink:href="#linearGradient2"
       id="linearGradient8"
       x1="31.721739"
       y1="5.2278585"
       x2="31.88887"
       y2="59.145416"
       gradientUnits="userSpaceOnUse"
       gradientTransform="matrix(0.8505,0,0,0.8505,4.7765033,4.7794869)" />
    <filter
       style="color-interpolation-filters:sRGB;"
       inkscape:label="Blur"
       id="filter9"
       x="-0.047762285"
       y="-0.047489063"
       width="1.0955246"
       height="1.0949781">
      <feGaussianBlur
         stdDeviation="1 1"
         result="blur"
         id="feGaussianBlur9" />
    </filter>
    <linearGradient
       inkscape:collect="always"
       xlink:href="#linearGradient4"
       id="linearGradient7"
       x1="26.723248"
       y1="58.711765"
       x2="25.756926"
       y2="5.950614"
       gradientUnits="userSpaceOnUse" />
    <filter
       style="color-interpolation-filters:sRGB;"
       inkscape:label="Out of Focus"
       id="filter40"
       x="-0.24226652"
       y="-0.2858297"
       width="1.484533"
       height="1.5716594">
      <feFlood
         flood-opacity="1"
         flood-color="rgb(255,255,255)"
         result="flood"
         id="feFlood38" />
      <feColorMatrix
         in="SourceGraphic"
         values="1 0 0 0 0 0 1 0 0 0 0 0 1 0 0 -0.2125 -0.7154 -0.0721 1 0 "
         result="colormatrix1"
         id="feColorMatrix38" />
      <feGaussianBlur
         in="colormatrix1"
         stdDeviation="3 3"
         result="blur"
         id="feGaussianBlur38" />
      <feColorMatrix
         in="blur"
         values="1 0 0 0 0 0 1 0 0 0 0 0 1 0 0 0 0 0 6 -2 "
         result="colormatrix2"
         id="feColorMatrix39" />
      <feBlend
         in="colormatrix2"
         in2="flood"
         mode="normal"
         result="blend"
         id="feBlend39" />
      <feComposite
         in="blend"
         in2="blend"
         operator="arithmetic"
         k2="0.2"
         result="composite1"
         id="feComposite39" />
      <feComposite
         in2="SourceGraphic"
         operator="in"
         id="feComposite40" />
    </filter>
  </defs>
  <g
     id="g877"
     transform="matrix(1.1,0,0,1.1,-3.1845928,-3.2065454)">
    <ellipse
       style="opacity:0.5;fill:#000000;stroke:none;stroke-width:3.89319;stroke-dasharray:none;stroke-opacity:1;filter:url(#filter9)"
       id="path2-5"
       cx="31.949858"
       cy="31.969812"
       rx="25.124426"
       ry="25.268976"
       transform="matrix(1.05,0,0,1.05,-1.5974929,-1.5984906)" />
    <path
       style="fill:#f5f7fa;stroke-width:0.204426;fill-opacity:1"
       d=""
       id="path3" />
    <circle
       style="opacity:1;fill:url(#linearGradient8);stroke:url(#linearGradient7);stroke-width:3.81818;stroke-dasharray:none;stroke-opacity:1"
       id="path2"
       cx="31.949856"
       cy="31.969812"
       r="24.711082" />
    <ellipse
       style="opacity:0.3;fill:none;stroke:#000000;stroke-width:0.974376;stroke-dasharray:none;stroke-opacity:1"
       id="path2-9"
       cx="31.949856"
       cy="31.969812"
       rx="23.129124"
       ry="23.129126" />
  </g>
  <path
     id="path7-7-1"
     style="fill:#000000;fill-opacity:1;stroke:none;stroke-width:0.446512;stroke-dasharray:none;stroke-opacity:0.6;opacity:0.2"
     d="m 21.343593,20.251249 c -0.02045,0.0018 -0.03917,0.0079 -0.05538,0.01692 -0.162356,0.09085 -4.620177,6.502483 -4.598674,6.61415 0.01078,0.05623 2.089379,1.537789 4.620213,3.292457 2.530835,1.754672 4.615259,3.18938 4.630981,3.18938 0.01573,-1e-6 1.358201,-0.936334 2.983216,-2.081636 1.625015,-1.145285 3.040268,-2.1393 3.146299,-2.207777 0.149971,-0.09685 0.356782,-0.131494 0.927734,-0.156931 l 0.733881,-0.03231 -5.98489,-4.217116 C 24.4558,22.348728 21.67908,20.396802 21.575914,20.331265 c -0.09142,-0.05807 -0.170951,-0.08545 -0.232317,-0.08 z m 11.225129,9.517361 -7.898825,5.566408 c -4.343575,3.061498 -7.91856,5.59835 -7.94498,5.638718 -0.02639,0.04036 -0.04868,0.107503 -0.04925,0.149221 -0.0013,0.09238 4.417295,6.42964 4.563288,6.544919 0.05694,0.04496 0.124037,0.08154 0.149233,0.08154 0.02521,0 3.130773,-2.133049 6.901856,-4.740214 l 6.857239,-4.740211 4.054029,0.003 4.054034,0.0015 1.975478,-2.013939 c 1.086147,-1.107136 2.008824,-2.076292 2.050863,-2.153944 0.0601,-0.111027 0.05755,-0.168836 -0.01351,-0.270783 -0.04994,-0.0713 -0.958226,-1.01575 -2.017014,-2.098558 L 43.326286,29.76854 h -5.378708 z" />
  <path
     id="path7-7"
     style="fill:#4d4d4d;fill-opacity:1;stroke:none;stroke-width:0.446512;stroke-dasharray:none;stroke-opacity:0.6"
     d="m 21.343593,18.251249 c -0.02045,0.0018 -0.03917,0.0079 -0.05538,0.01692 -0.162356,0.09085 -4.620177,6.502483 -4.598674,6.61415 0.01078,0.05623 2.089379,1.537789 4.620213,3.292457 2.530835,1.754672 4.615259,3.18938 4.630981,3.18938 0.01573,-1e-6 1.358201,-0.936334 2.983216,-2.081636 1.625015,-1.145285 3.040268,-2.1393 3.146299,-2.207777 0.149971,-0.09685 0.356782,-0.131494 0.927734,-0.156931 l 0.733881,-0.03231 -5.98489,-4.217116 C 24.4558,20.348728 21.67908,18.396802 21.575914,18.331265 c -0.09142,-0.05807 -0.170951,-0.08545 -0.232317,-0.08 z m 11.225129,9.517361 -7.898825,5.566408 c -4.343575,3.061498 -7.91856,5.59835 -7.94498,5.638718 -0.02639,0.04036 -0.04868,0.107503 -0.04925,0.149221 -0.0013,0.09238 4.417295,6.42964 4.563288,6.544919 0.05694,0.04496 0.124037,0.08154 0.149233,0.08154 0.02521,0 3.130773,-2.133049 6.901856,-4.740214 l 6.857239,-4.740211 4.054029,0.003 4.054034,0.0015 1.975478,-2.013939 c 1.086147,-1.107136 2.008824,-2.076292 2.050863,-2.153944 0.0601,-0.111027 0.05755,-0.168836 -0.01351,-0.270783 -0.04994,-0.0713 -0.958226,-1.01575 -2.017014,-2.098558 L 43.326286,27.76854 h -5.378708 z" />
</svg>
