<?xml version="1.0" encoding="UTF-8" standalone="no"?>
<svg
   width="64"
   height="64"
   version="1.1"
   id="svg73"
   sodipodi:docname="abcd.svg"
   inkscape:version="1.4.2 (ebf0e940d0, 2025-05-08)"
   xmlns:inkscape="http://www.inkscape.org/namespaces/inkscape"
   xmlns:sodipodi="http://sodipodi.sourceforge.net/DTD/sodipodi-0.dtd"
   xmlns:xlink="http://www.w3.org/1999/xlink"
   xmlns="http://www.w3.org/2000/svg"
   xmlns:svg="http://www.w3.org/2000/svg"
   xmlns:rdf="http://www.w3.org/1999/02/22-rdf-syntax-ns#"
   xmlns:cc="http://creativecommons.org/ns#"
   xmlns:dc="http://purl.org/dc/elements/1.1/">
  <metadata
     id="metadata77">
    <rdf:RDF>
      <cc:Work
         rdf:about="">
        <dc:format>image/svg+xml</dc:format>
        <dc:type
           rdf:resource="http://purl.org/dc/dcmitype/StillImage" />
      </cc:Work>
    </rdf:RDF>
  </metadata>
  <sodipodi:namedview
     pagecolor="#f5f7fa"
     bordercolor="#666666"
     borderopacity="1"
     objecttolerance="10"
     gridtolerance="10"
     guidetolerance="10"
     inkscape:pageopacity="0"
     inkscape:pageshadow="2"
     inkscape:window-width="1462"
     inkscape:window-height="840"
     id="namedview75"
     showgrid="false"
     inkscape:zoom="6.2890624"
     inkscape:cx="53.585094"
     inkscape:cy="29.654659"
     inkscape:window-x="24"
     inkscape:window-y="21"
     inkscape:window-maximized="0"
     inkscape:current-layer="svg73"
     inkscape:document-rotation="0"
     inkscape:pagecheckerboard="0"
     inkscape:showpageshadow="2"
     inkscape:deskcolor="#d1d1d1" />
  <defs
     id="defs29">
    <linearGradient
       id="linearGradient4"
       inkscape:collect="always">
      <stop
         style="stop-color:#67ac5e;stop-opacity:1;"
         offset="0"
         id="stop4" />
      <stop
         style="stop-color:#88c181;stop-opacity:1;"
         offset="0.5"
         id="stop1" />
    </linearGradient>
    <linearGradient
       id="linearGradient2"
       inkscape:collect="always">
      <stop
         style="stop-color:#edf4ec;stop-opacity:1;"
         offset="0"
         id="stop2" />
      <stop
         style="stop-color:#dae9d8;stop-opacity:1;"
         offset="1"
         id="stop3" />
    </linearGradient>
    <linearGradient
       inkscape:collect="always"
       xlink:href="#linearGradient2"
       id="linearGradient8"
       x1="31.721739"
       y1="5.2278585"
       x2="31.88887"
       y2="59.145416"
       gradientUnits="userSpaceOnUse"
       gradientTransform="matrix(0.8505,0,0,0.8505,4.7765033,4.7794869)" />
    <filter
       style="color-interpolation-filters:sRGB;"
       inkscape:label="Blur"
       id="filter9"
       x="-0.047762285"
       y="-0.047489063"
       width="1.0955246"
       height="1.0949781">
      <feGaussianBlur
         stdDeviation="1 1"
         result="blur"
         id="feGaussianBlur9" />
    </filter>
    <linearGradient
       inkscape:collect="always"
       xlink:href="#linearGradient4"
       id="linearGradient7"
       x1="26.723248"
       y1="58.711765"
       x2="25.756926"
       y2="5.950614"
       gradientUnits="userSpaceOnUse" />
  </defs>
  <g
     id="g877"
     transform="matrix(1.1,0,0,1.1,-3.1845928,-3.2065454)">
    <ellipse
       style="opacity:0.5;fill:#000000;stroke:none;stroke-width:3.89319;stroke-dasharray:none;stroke-opacity:1;filter:url(#filter9)"
       id="path2-5"
       cx="31.949858"
       cy="31.969812"
       rx="25.124426"
       ry="25.268976"
       transform="matrix(1.05,0,0,1.05,-1.5974929,-1.5984906)" />
    <path
       style="fill:#f5f7fa;stroke-width:0.204426;fill-opacity:1"
       d=""
       id="path3" />
    <circle
       style="opacity:1;fill:url(#linearGradient8);stroke:url(#linearGradient7);stroke-width:3.81818;stroke-dasharray:none;stroke-opacity:1"
       id="path2"
       cx="31.949856"
       cy="31.969812"
       r="24.711082" />
    <ellipse
       style="opacity:0.3;fill:none;stroke:#000000;stroke-width:0.974376;stroke-dasharray:none;stroke-opacity:1"
       id="path2-9"
       cx="31.949856"
       cy="31.969812"
       rx="23.129124"
       ry="23.129126" />
  </g>
  <path
     id="path12-0"
     style="fill:#000000;fill-opacity:1;stroke:none;stroke-width:0.0905519;stroke-dasharray:none;opacity:0.2"
     d="m 28.738727,18.833322 c -3.258197,0 -6.173097,2.102018 -7.186317,5.182286 L 21.386028,24.5243 21.0628,24.627095 c -2.037896,0.65241 -3.753614,2.389093 -4.439388,4.494497 -0.245913,0.754978 -0.320052,1.259232 -0.320052,2.162996 0,0.904308 0.07459,1.407247 0.321111,2.164054 0.785243,2.410737 2.730317,4.158876 5.26177,4.729763 0.377906,0.08524 0.576713,0.09887 1.439169,0.09962 l 1.000426,9.4e-4 0.114455,0.204528 c 0.387892,0.69245 1.31843,1.692319 2.073975,2.228698 0.519576,0.368834 1.458672,0.846382 2.013568,1.024799 0.353251,0.113583 1.058578,0.273645 1.494277,0.339121 0.0747,0.01105 0.54266,0.01421 1.040696,0.0065 0.986791,-0.0158 1.392399,-0.07834 2.204326,-0.340191 0.574889,-0.185368 1.508984,-0.658984 2.029464,-1.029037 0.236573,-0.168216 0.668507,-0.543368 0.960154,-0.832982 l 0.529887,-0.526711 0.228901,0.10703 c 0.338646,0.156842 0.907245,0.32727 1.345911,0.403779 0.493738,0.08609 1.367309,0.0859 1.896996,0 2.083238,-0.3379 3.832337,-1.866772 4.473297,-3.909501 0.138112,-0.440214 0.25298,-1.101475 0.253323,-1.458246 v -0.249955 l 0.346536,-0.247988 c 0.979615,-0.700363 1.752848,-1.772832 2.119543,-2.941107 0.367931,-1.172205 0.320253,-2.543026 -0.129321,-3.707085 -0.304858,-0.789423 -0.747571,-1.450585 -1.368164,-2.04536 -0.913737,-0.875722 -2.055852,-1.418204 -3.281055,-1.557864 -0.246674,-0.02814 -0.254477,-0.03367 -0.355027,-0.240569 -0.383893,-0.79017 -1.215423,-1.611447 -2.063367,-2.03689 -0.906776,-0.454962 -2.151104,-0.584892 -3.146463,-0.329587 -0.521764,0.133829 -1.212542,0.471315 -1.667021,0.814965 -0.206748,0.156331 -0.380908,0.276132 -0.386818,0.267059 -0.40444,-0.620332 -1.267514,-1.520812 -1.866257,-1.946797 -1.330526,-0.946669 -2.860178,-1.442402 -4.448925,-1.442402 z m 11.786784,5.343373 0.180177,0.101739 c 0.104918,0.05972 0.236513,0.194378 0.316909,0.324293 l 0.13669,0.222549 0.01376,2.017807 c 0.01466,2.188968 0.0067,2.276222 -0.22575,2.558289 -0.281921,0.342045 -0.03344,0.321111 -3.749476,0.321111 -1.830277,0 -3.384688,-0.01568 -3.453796,-0.03494 -0.189895,-0.05309 -0.470295,-0.331899 -0.5532,-0.548987 -0.04057,-0.106238 -0.088,-0.368295 -0.104918,-0.581815 l -0.03072,-0.387875 -0.803307,0.663416 -0.802247,0.663418 -9.41e-4,1.791015 -9.4e-4,1.791014 0.804368,0.662359 0.803308,0.663416 0.0307,-0.389993 c 0.0169,-0.214579 0.06435,-0.477699 0.104918,-0.583932 0.07968,-0.208697 0.36463,-0.497633 0.530946,-0.538367 0.05666,-0.0139 1.63417,-0.01973 3.505723,-0.01268 l 3.40293,0.01268 0.170653,0.138835 c 0.09395,0.07604 0.213352,0.21859 0.264942,0.31687 0.09018,0.171949 0.09381,0.256297 0.105952,2.231879 l 0.01242,2.052778 -0.109197,0.238448 c -0.06505,0.142016 -0.178462,0.290693 -0.280806,0.368801 l -0.171736,0.131408 -3.422008,0.01152 c -3.711817,0.01265 -3.524334,0.02363 -3.801161,-0.229899 -0.220614,-0.201978 -0.289432,-0.454381 -0.317803,-1.1604 l -0.02648,-0.654915 -1.380882,-1.143494 -1.380884,-1.144554 -4.731883,-0.01272 -4.730824,-0.01272 -0.203475,-0.113395 c -0.254525,-0.142098 -0.475,-0.462406 -0.542692,-0.788475 -0.03403,-0.163977 -0.04633,-0.819671 -0.03709,-1.980713 l 0.01376,-1.734847 0.125053,-0.256464 c 0.06988,-0.142347 0.198119,-0.310657 0.288239,-0.379395 0.334034,-0.25478 0.185689,-0.246923 5.198183,-0.246923 h 4.623811 l 1.384061,-1.143497 1.384064,-1.143495 0.02015,-0.662357 c 0.01792,-0.591544 0.03208,-0.684427 0.13141,-0.877491 0.06116,-0.118833 0.189506,-0.279786 0.285081,-0.357141 l 0.173804,-0.139887 3.425184,-0.01167 z m -6.360753,1.221916 v 1.562106 1.562104 h 2.9875 2.988566 v -1.562104 -1.562106 h -2.988566 z m -13.039436,4.300557 v 1.58542 1.584359 h 4.617428 4.618488 v -1.584359 -1.58542 H 25.74275 Z m 13.039436,4.347186 v 1.562104 1.562106 h 2.9875 2.988566 v -1.562106 -1.562104 h -2.988566 z m 2.119546,8.115741 c -0.03992,7.66e-4 -0.0796,0.0034 -0.118703,0.0064 -1.157343,0.09318 -2.107491,0.872321 -2.434297,1.996607 -0.09496,0.326684 -0.106041,0.940301 -0.02332,1.290806 0.226818,0.961034 1.047588,1.784708 2.012508,2.018859 0.324798,0.0789 0.910789,0.07593 1.230399,-0.0057 0.968278,-0.246119 1.742247,-1.011559 1.991306,-1.969053 0.104709,-0.402493 0.0714,-1.130358 -0.06997,-1.53243 -0.139104,-0.395673 -0.498552,-0.915817 -0.806478,-1.167872 -0.497691,-0.407164 -1.182397,-0.650487 -1.781462,-0.637753 z m -8.092419,2.716193 c -0.799165,4.49e-4 -1.565211,0.456287 -1.939385,1.239935 -0.167189,0.350184 -0.169564,0.364718 -0.169564,0.902923 v 0.545781 l 0.191817,0.388942 c 0.291821,0.589145 0.75835,0.974485 1.381945,1.142428 0.740471,0.199427 1.564426,-0.04618 2.101529,-0.626326 0.98228,-1.060979 0.666166,-2.742179 -0.634806,-3.376431 -0.301451,-0.146981 -0.618823,-0.217435 -0.931539,-0.217255 z" />
  <path
     id="path12"
     style="fill:#4d4d4d;fill-opacity:1;stroke:none;stroke-width:0.0905519;stroke-dasharray:none"
     d="m 28.738727,16.833322 c -3.258197,0 -6.173097,2.102018 -7.186317,5.182286 L 21.386028,22.5243 21.0628,22.627095 c -2.037896,0.65241 -3.753614,2.389093 -4.439388,4.494497 -0.245913,0.754978 -0.320052,1.259232 -0.320052,2.162996 0,0.904308 0.07459,1.407247 0.321111,2.164054 0.785243,2.410737 2.730317,4.158876 5.26177,4.729763 0.377906,0.08524 0.576713,0.09887 1.439169,0.09962 l 1.000426,9.4e-4 0.114455,0.204528 c 0.387892,0.69245 1.31843,1.692319 2.073975,2.228698 0.519576,0.368834 1.458672,0.846382 2.013568,1.024799 0.353251,0.113583 1.058578,0.273645 1.494277,0.339121 0.0747,0.01105 0.54266,0.01421 1.040696,0.0065 0.986791,-0.0158 1.392399,-0.07834 2.204326,-0.340191 0.574889,-0.185368 1.508984,-0.658984 2.029464,-1.029037 0.236573,-0.168216 0.668507,-0.543368 0.960154,-0.832982 l 0.529887,-0.526711 0.228901,0.10703 c 0.338646,0.156842 0.907245,0.32727 1.345911,0.403779 0.493738,0.08609 1.367309,0.0859 1.896996,0 2.083238,-0.3379 3.832337,-1.866772 4.473297,-3.909501 0.138112,-0.440214 0.25298,-1.101475 0.253323,-1.458246 v -0.249955 l 0.346536,-0.247988 c 0.979615,-0.700363 1.752848,-1.772832 2.119543,-2.941107 0.367931,-1.172205 0.320253,-2.543026 -0.129321,-3.707085 -0.304858,-0.789423 -0.747571,-1.450585 -1.368164,-2.04536 -0.913737,-0.875722 -2.055852,-1.418204 -3.281055,-1.557864 -0.246674,-0.02814 -0.254477,-0.03367 -0.355027,-0.240569 -0.383893,-0.79017 -1.215423,-1.611447 -2.063367,-2.03689 -0.906776,-0.454962 -2.151104,-0.584892 -3.146463,-0.329587 -0.521764,0.133829 -1.212542,0.471315 -1.667021,0.814965 -0.206748,0.156331 -0.380908,0.276132 -0.386818,0.267059 -0.40444,-0.620332 -1.267514,-1.520812 -1.866257,-1.946797 -1.330526,-0.946669 -2.860178,-1.442402 -4.448925,-1.442402 z m 11.786784,5.343373 0.180177,0.101739 c 0.104918,0.05972 0.236513,0.194378 0.316909,0.324293 l 0.13669,0.222549 0.01376,2.017807 c 0.01466,2.188968 0.0067,2.276222 -0.22575,2.558289 -0.281921,0.342045 -0.03344,0.321111 -3.749476,0.321111 -1.830277,0 -3.384688,-0.01568 -3.453796,-0.03494 -0.189895,-0.05309 -0.470295,-0.331899 -0.5532,-0.548987 -0.04057,-0.106238 -0.088,-0.368295 -0.104918,-0.581815 l -0.03072,-0.387875 -0.803307,0.663416 -0.802247,0.663418 -9.41e-4,1.791015 -9.4e-4,1.791014 0.804368,0.662359 0.803308,0.663416 0.0307,-0.389993 c 0.0169,-0.214579 0.06435,-0.477699 0.104918,-0.583932 0.07968,-0.208697 0.36463,-0.497633 0.530946,-0.538367 0.05666,-0.0139 1.63417,-0.01973 3.505723,-0.01268 l 3.40293,0.01268 0.170653,0.138835 c 0.09395,0.07604 0.213352,0.21859 0.264942,0.31687 0.09018,0.171949 0.09381,0.256297 0.105952,2.231879 l 0.01242,2.052778 -0.109197,0.238448 c -0.06505,0.142016 -0.178462,0.290693 -0.280806,0.368801 l -0.171736,0.131408 -3.422008,0.01152 c -3.711817,0.01265 -3.524334,0.02363 -3.801161,-0.229899 -0.220614,-0.201978 -0.289432,-0.454381 -0.317803,-1.1604 l -0.02648,-0.654915 -1.380882,-1.143494 -1.380884,-1.144554 -4.731883,-0.01272 -4.730824,-0.01272 -0.203475,-0.113395 c -0.254525,-0.142098 -0.475,-0.462406 -0.542692,-0.788475 -0.03403,-0.163977 -0.04633,-0.819671 -0.03709,-1.980713 l 0.01376,-1.734847 0.125053,-0.256464 c 0.06988,-0.142347 0.198119,-0.310657 0.288239,-0.379395 0.334034,-0.25478 0.185689,-0.246923 5.198183,-0.246923 h 4.623811 l 1.384061,-1.143497 1.384064,-1.143495 0.02015,-0.662357 c 0.01792,-0.591544 0.03208,-0.684427 0.13141,-0.877491 0.06116,-0.118833 0.189506,-0.279786 0.285081,-0.357141 l 0.173804,-0.139887 3.425184,-0.01167 z m -6.360753,1.221916 v 1.562106 1.562104 h 2.9875 2.988566 v -1.562104 -1.562106 h -2.988566 z m -13.039436,4.300557 v 1.58542 1.584359 h 4.617428 4.618488 v -1.584359 -1.58542 H 25.74275 Z m 13.039436,4.347186 v 1.562104 1.562106 h 2.9875 2.988566 v -1.562106 -1.562104 h -2.988566 z m 2.119546,8.115741 c -0.03992,7.66e-4 -0.0796,0.0034 -0.118703,0.0064 -1.157343,0.09318 -2.107491,0.872321 -2.434297,1.996607 -0.09496,0.326684 -0.106041,0.940301 -0.02332,1.290806 0.226818,0.961034 1.047588,1.784708 2.012508,2.018859 0.324798,0.0789 0.910789,0.07593 1.230399,-0.0057 0.968278,-0.246119 1.742247,-1.011559 1.991306,-1.969053 0.104709,-0.402493 0.0714,-1.130358 -0.06997,-1.53243 -0.139104,-0.395673 -0.498552,-0.915817 -0.806478,-1.167872 -0.497691,-0.407164 -1.182397,-0.650487 -1.781462,-0.637753 z m -8.092419,2.716193 c -0.799165,4.49e-4 -1.565211,0.456287 -1.939385,1.239935 -0.167189,0.350184 -0.169564,0.364718 -0.169564,0.902923 v 0.545781 l 0.191817,0.388942 c 0.291821,0.589145 0.75835,0.974485 1.381945,1.142428 0.740471,0.199427 1.564426,-0.04618 2.101529,-0.626326 0.98228,-1.060979 0.666166,-2.742179 -0.634806,-3.376431 -0.301451,-0.146981 -0.618823,-0.217435 -0.931539,-0.217255 z" />
</svg>
