<?xml version="1.0" encoding="UTF-8" standalone="no"?>
<svg
   width="64"
   height="64"
   version="1.1"
   id="svg73"
   sodipodi:docname="abcd.svg"
   inkscape:version="1.4.2 (ebf0e940d0, 2025-05-08)"
   xmlns:inkscape="http://www.inkscape.org/namespaces/inkscape"
   xmlns:sodipodi="http://sodipodi.sourceforge.net/DTD/sodipodi-0.dtd"
   xmlns:xlink="http://www.w3.org/1999/xlink"
   xmlns="http://www.w3.org/2000/svg"
   xmlns:svg="http://www.w3.org/2000/svg"
   xmlns:rdf="http://www.w3.org/1999/02/22-rdf-syntax-ns#"
   xmlns:cc="http://creativecommons.org/ns#"
   xmlns:dc="http://purl.org/dc/elements/1.1/">
  <metadata
     id="metadata77">
    <rdf:RDF>
      <cc:Work
         rdf:about="">
        <dc:format>image/svg+xml</dc:format>
        <dc:type
           rdf:resource="http://purl.org/dc/dcmitype/StillImage" />
      </cc:Work>
    </rdf:RDF>
  </metadata>
  <sodipodi:namedview
     pagecolor="#f5f7fa"
     bordercolor="#666666"
     borderopacity="1"
     objecttolerance="10"
     gridtolerance="10"
     guidetolerance="10"
     inkscape:pageopacity="0"
     inkscape:pageshadow="2"
     inkscape:window-width="1920"
     inkscape:window-height="931"
     id="namedview75"
     showgrid="false"
     inkscape:zoom="6.2890624"
     inkscape:cx="53.505591"
     inkscape:cy="29.734162"
     inkscape:window-x="0"
     inkscape:window-y="0"
     inkscape:window-maximized="1"
     inkscape:current-layer="svg73"
     inkscape:document-rotation="0"
     inkscape:pagecheckerboard="0"
     inkscape:showpageshadow="2"
     inkscape:deskcolor="#d1d1d1" />
  <defs
     id="defs29">
    <linearGradient
       id="linearGradient4"
       inkscape:collect="always">
      <stop
         style="stop-color:#67ac5e;stop-opacity:1;"
         offset="0"
         id="stop4" />
      <stop
         style="stop-color:#88c181;stop-opacity:1;"
         offset="0.5"
         id="stop1" />
    </linearGradient>
    <linearGradient
       id="linearGradient2"
       inkscape:collect="always">
      <stop
         style="stop-color:#edf4ec;stop-opacity:1;"
         offset="0"
         id="stop2" />
      <stop
         style="stop-color:#dae9d8;stop-opacity:1;"
         offset="1"
         id="stop3" />
    </linearGradient>
    <linearGradient
       inkscape:collect="always"
       xlink:href="#linearGradient2"
       id="linearGradient8"
       x1="31.721739"
       y1="5.2278585"
       x2="31.88887"
       y2="59.145416"
       gradientUnits="userSpaceOnUse"
       gradientTransform="matrix(0.8505,0,0,0.8505,4.7765033,4.7794869)" />
    <filter
       style="color-interpolation-filters:sRGB;"
       inkscape:label="Blur"
       id="filter9"
       x="-0.047762285"
       y="-0.047489063"
       width="1.0955246"
       height="1.0949781">
      <feGaussianBlur
         stdDeviation="1 1"
         result="blur"
         id="feGaussianBlur9" />
    </filter>
    <linearGradient
       inkscape:collect="always"
       xlink:href="#linearGradient4"
       id="linearGradient7"
       x1="26.723248"
       y1="58.711765"
       x2="25.756926"
       y2="5.950614"
       gradientUnits="userSpaceOnUse" />
    <filter
       style="color-interpolation-filters:sRGB;"
       inkscape:label="Out of Focus"
       id="filter40"
       x="-0.24226652"
       y="-0.2858297"
       width="1.484533"
       height="1.5716594">
      <feFlood
         flood-opacity="1"
         flood-color="rgb(255,255,255)"
         result="flood"
         id="feFlood38" />
      <feColorMatrix
         in="SourceGraphic"
         values="1 0 0 0 0 0 1 0 0 0 0 0 1 0 0 -0.2125 -0.7154 -0.0721 1 0 "
         result="colormatrix1"
         id="feColorMatrix38" />
      <feGaussianBlur
         in="colormatrix1"
         stdDeviation="3 3"
         result="blur"
         id="feGaussianBlur38" />
      <feColorMatrix
         in="blur"
         values="1 0 0 0 0 0 1 0 0 0 0 0 1 0 0 0 0 0 6 -2 "
         result="colormatrix2"
         id="feColorMatrix39" />
      <feBlend
         in="colormatrix2"
         in2="flood"
         mode="normal"
         result="blend"
         id="feBlend39" />
      <feComposite
         in="blend"
         in2="blend"
         operator="arithmetic"
         k2="0.2"
         result="composite1"
         id="feComposite39" />
      <feComposite
         in2="SourceGraphic"
         operator="in"
         id="feComposite40" />
    </filter>
  </defs>
  <g
     id="g877"
     transform="matrix(1.1,0,0,1.1,-3.1845928,-3.2065454)">
    <ellipse
       style="opacity:0.5;fill:#000000;stroke:none;stroke-width:3.89319;stroke-dasharray:none;stroke-opacity:1;filter:url(#filter9)"
       id="path2-5"
       cx="31.949858"
       cy="31.969812"
       rx="25.124426"
       ry="25.268976"
       transform="matrix(1.05,0,0,1.05,-1.5974929,-1.5984906)" />
    <path
       style="fill:#f5f7fa;stroke-width:0.204426;fill-opacity:1"
       d=""
       id="path3" />
    <circle
       style="opacity:1;fill:url(#linearGradient8);stroke:url(#linearGradient7);stroke-width:3.81818;stroke-dasharray:none;stroke-opacity:1"
       id="path2"
       cx="31.949856"
       cy="31.969812"
       r="24.711082" />
    <ellipse
       style="opacity:0.3;fill:none;stroke:#000000;stroke-width:0.974376;stroke-dasharray:none;stroke-opacity:1"
       id="path2-9"
       cx="31.949856"
       cy="31.969812"
       rx="23.129124"
       ry="23.129126" />
  </g>
  <path
     id="path10-2"
     style="fill:#000000;fill-opacity:1;stroke:none;stroke-width:0.458466;stroke-dasharray:none;stroke-opacity:0.6;opacity:0.2"
     d="m 43.366308,22.003567 c -0.399684,0.002 -0.771876,0.399247 -1.513396,1.1421 l -1.022253,1.024599 2.152597,2.153773 2.1526,2.15377 0.976426,-0.971721 c 1.044407,-1.038252 1.17853,-1.218866 1.17853,-1.588599 0,-0.386787 -0.317765,-0.780202 -1.881178,-2.322972 -1.101392,-1.086857 -1.590352,-1.593052 -2.043326,-1.59095 z m -3.455675,3.154873 c -0.03943,0 -0.824716,0.755384 -1.746052,1.677898 l -1.675547,1.676722 0.110486,0.317253 c 0.156199,0.450548 0.07696,0.945635 -0.257332,1.609748 -0.523289,1.039498 -1.373976,1.890182 -2.413474,2.413445 -0.675008,0.339785 -1.207719,0.42473 -1.630898,0.258503 l -0.293748,-0.116326 -1.714324,1.71315 -1.713149,1.713147 2.134972,2.137324 c 1.174785,1.175259 2.152824,2.136153 2.172574,2.136153 0.01973,0 2.577492,-2.542061 5.684644,-5.6494 l 5.649396,-5.649396 -2.117352,-2.119697 C 40.935959,26.111605 39.950028,25.15844 39.910633,25.15844 Z m -22.451881,8.281393 c -0.04828,-0.002 -0.09422,0.0029 -0.142168,0.01177 -0.497445,0.09331 -0.778313,0.750747 -0.4935,1.157374 0.0616,0.08797 0.316388,0.256102 0.565175,0.373648 0.248786,0.117548 0.49951,0.282914 0.558123,0.366601 0.168766,0.240952 0.126697,0.731764 -0.148051,1.714322 -0.410469,1.467931 -0.400822,2.232402 0.0376,2.837621 0.435205,0.600787 1.141863,0.939993 2.244249,1.079826 1.014568,0.128685 1.515321,0.263937 1.785997,0.48175 0.767237,0.617375 1.154293,1.649085 1.225524,3.266497 0.03479,0.789908 0.0926,0.959486 0.39245,1.145626 0.376621,0.23382 0.406433,0.1196 0.06463,-0.25031 -0.18685,-0.202164 -0.339874,-0.43286 -0.339577,-0.512287 2.97e-4,-0.0794 0.241254,-0.68262 0.534622,-1.340671 0.397518,-0.891653 0.521837,-1.242424 0.488803,-1.377078 -0.113075,-0.46097 -0.562155,-1.234461 -0.968198,-1.668517 -0.725681,-0.775761 -1.285754,-1.028886 -2.643746,-1.194973 -1.051198,-0.128574 -1.501222,-0.303258 -1.612099,-0.626284 -0.05495,-0.160031 -0.02067,-0.38769 0.168024,-1.09509 0.492483,-1.846286 0.512397,-2.258006 0.14335,-3.023276 -0.255475,-0.529753 -0.567947,-0.814452 -1.2455,-1.136222 -0.305502,-0.145086 -0.470831,-0.204658 -0.615701,-0.210324 z m 10.198992,3.900995 -1.287798,1.288975 -1.288976,1.288972 2.1526,2.153776 2.153774,2.153772 1.290147,-1.287796 1.288975,-1.288979 -2.153775,-2.153775 z m -2.263048,3.267674 c -0.0701,0.08453 -2.044498,4.433947 -2.044498,4.50377 0,0.03535 0.179424,0.245277 0.3995,0.467652 0.298503,0.30166 0.42883,0.390455 0.5123,0.346633 0.06152,-0.03221 1.08187,-0.496489 2.266572,-1.030474 1.184706,-0.533979 2.167853,-0.983017 2.185498,-0.998743 0.01763,-0.01592 -0.712767,-0.774426 -1.622672,-1.684948 -0.909907,-0.910543 -1.673219,-1.632205 -1.6967,-1.60389 z" />
  <path
     id="path10"
     style="fill:#4d4d4d;fill-opacity:1;stroke:none;stroke-width:0.458466;stroke-dasharray:none;stroke-opacity:0.6"
     d="m 43.366308,20.003567 c -0.399684,0.002 -0.771876,0.399247 -1.513396,1.1421 l -1.022253,1.024599 2.152597,2.153773 2.1526,2.15377 0.976426,-0.971721 c 1.044407,-1.038252 1.17853,-1.218866 1.17853,-1.588599 0,-0.386787 -0.317765,-0.780202 -1.881178,-2.322972 -1.101392,-1.086857 -1.590352,-1.593052 -2.043326,-1.59095 z m -3.455675,3.154873 c -0.03943,0 -0.824716,0.755384 -1.746052,1.677898 l -1.675547,1.676722 0.110486,0.317253 c 0.156199,0.450548 0.07696,0.945635 -0.257332,1.609748 -0.523289,1.039498 -1.373976,1.890182 -2.413474,2.413445 -0.675008,0.339785 -1.207719,0.42473 -1.630898,0.258503 l -0.293748,-0.116326 -1.714324,1.71315 -1.713149,1.713147 2.134972,2.137324 c 1.174785,1.175259 2.152824,2.136153 2.172574,2.136153 0.01973,0 2.577492,-2.542061 5.684644,-5.6494 l 5.649396,-5.649396 -2.117352,-2.119697 C 40.935959,24.111605 39.950028,23.15844 39.910633,23.15844 Z m -22.451881,8.281393 c -0.04828,-0.002 -0.09422,0.0029 -0.142168,0.01177 -0.497445,0.09331 -0.778313,0.750747 -0.4935,1.157374 0.0616,0.08797 0.316388,0.256102 0.565175,0.373648 0.248786,0.117548 0.49951,0.282914 0.558123,0.366601 0.168766,0.240952 0.126697,0.731764 -0.148051,1.714322 -0.410469,1.467931 -0.400822,2.232402 0.0376,2.837621 0.435205,0.600787 1.141863,0.939993 2.244249,1.079826 1.014568,0.128685 1.515321,0.263937 1.785997,0.48175 0.767237,0.617375 1.154293,1.649085 1.225524,3.266497 0.03479,0.789908 0.0926,0.959486 0.39245,1.145626 0.376621,0.23382 0.406433,0.1196 0.06463,-0.25031 -0.18685,-0.202164 -0.339874,-0.43286 -0.339577,-0.512287 2.97e-4,-0.0794 0.241254,-0.68262 0.534622,-1.340671 0.397518,-0.891653 0.521837,-1.242424 0.488803,-1.377078 -0.113075,-0.46097 -0.562155,-1.234461 -0.968198,-1.668517 -0.725681,-0.775761 -1.285754,-1.028886 -2.643746,-1.194973 -1.051198,-0.128574 -1.501222,-0.303258 -1.612099,-0.626284 -0.05495,-0.160031 -0.02067,-0.38769 0.168024,-1.09509 0.492483,-1.846286 0.512397,-2.258006 0.14335,-3.023276 -0.255475,-0.529753 -0.567947,-0.814452 -1.2455,-1.136222 -0.305502,-0.145086 -0.470831,-0.204658 -0.615701,-0.210324 z m 10.198992,3.900995 -1.287798,1.288975 -1.288976,1.288972 2.1526,2.153776 2.153774,2.153772 1.290147,-1.287796 1.288975,-1.288979 -2.153775,-2.153775 z m -2.263048,3.267674 c -0.0701,0.08453 -2.044498,4.433947 -2.044498,4.50377 0,0.03535 0.179424,0.245277 0.3995,0.467652 0.298503,0.30166 0.42883,0.390455 0.5123,0.346633 0.06152,-0.03221 1.08187,-0.496489 2.266572,-1.030474 1.184706,-0.533979 2.167853,-0.983017 2.185498,-0.998743 0.01763,-0.01592 -0.712767,-0.774426 -1.622672,-1.684948 -0.909907,-0.910543 -1.673219,-1.632205 -1.6967,-1.60389 z" />
</svg>
