<?xml version="1.0" encoding="UTF-8" standalone="no"?>
<svg
   width="64"
   height="64"
   version="1.1"
   id="svg73"
   sodipodi:docname="abcd.svg"
   inkscape:version="1.4.2 (ebf0e940d0, 2025-05-08)"
   xmlns:inkscape="http://www.inkscape.org/namespaces/inkscape"
   xmlns:sodipodi="http://sodipodi.sourceforge.net/DTD/sodipodi-0.dtd"
   xmlns:xlink="http://www.w3.org/1999/xlink"
   xmlns="http://www.w3.org/2000/svg"
   xmlns:svg="http://www.w3.org/2000/svg"
   xmlns:rdf="http://www.w3.org/1999/02/22-rdf-syntax-ns#"
   xmlns:cc="http://creativecommons.org/ns#"
   xmlns:dc="http://purl.org/dc/elements/1.1/">
  <metadata
     id="metadata77">
    <rdf:RDF>
      <cc:Work
         rdf:about="">
        <dc:format>image/svg+xml</dc:format>
        <dc:type
           rdf:resource="http://purl.org/dc/dcmitype/StillImage" />
      </cc:Work>
    </rdf:RDF>
  </metadata>
  <sodipodi:namedview
     pagecolor="#f5f7fa"
     bordercolor="#666666"
     borderopacity="1"
     objecttolerance="10"
     gridtolerance="10"
     guidetolerance="10"
     inkscape:pageopacity="0"
     inkscape:pageshadow="2"
     inkscape:window-width="1320"
     inkscape:window-height="766"
     id="namedview75"
     showgrid="false"
     inkscape:zoom="4.4470387"
     inkscape:cx="53.518761"
     inkscape:cy="22.37444"
     inkscape:window-x="24"
     inkscape:window-y="21"
     inkscape:window-maximized="0"
     inkscape:current-layer="svg73"
     inkscape:document-rotation="0"
     inkscape:pagecheckerboard="0"
     inkscape:showpageshadow="2"
     inkscape:deskcolor="#d1d1d1" />
  <defs
     id="defs29">
    <linearGradient
       id="linearGradient4"
       inkscape:collect="always">
      <stop
         style="stop-color:#67ac5e;stop-opacity:1;"
         offset="0"
         id="stop4" />
      <stop
         style="stop-color:#88c181;stop-opacity:1;"
         offset="0.5"
         id="stop1" />
    </linearGradient>
    <linearGradient
       id="linearGradient2"
       inkscape:collect="always">
      <stop
         style="stop-color:#edf4ec;stop-opacity:1;"
         offset="0"
         id="stop2" />
      <stop
         style="stop-color:#dae9d8;stop-opacity:1;"
         offset="1"
         id="stop3" />
    </linearGradient>
    <linearGradient
       inkscape:collect="always"
       xlink:href="#linearGradient2"
       id="linearGradient8"
       x1="31.721739"
       y1="5.2278585"
       x2="31.88887"
       y2="59.145416"
       gradientUnits="userSpaceOnUse"
       gradientTransform="matrix(0.8505,0,0,0.8505,4.7765033,4.7794869)" />
    <filter
       style="color-interpolation-filters:sRGB;"
       inkscape:label="Blur"
       id="filter9"
       x="-0.047762285"
       y="-0.047489063"
       width="1.0955246"
       height="1.0949781">
      <feGaussianBlur
         stdDeviation="1 1"
         result="blur"
         id="feGaussianBlur9" />
    </filter>
    <linearGradient
       inkscape:collect="always"
       xlink:href="#linearGradient4"
       id="linearGradient7"
       x1="26.723248"
       y1="58.711765"
       x2="25.756926"
       y2="5.950614"
       gradientUnits="userSpaceOnUse" />
    <filter
       style="color-interpolation-filters:sRGB;"
       inkscape:label="Out of Focus"
       id="filter40"
       x="-0.24226652"
       y="-0.2858297"
       width="1.484533"
       height="1.5716594">
      <feFlood
         flood-opacity="1"
         flood-color="rgb(255,255,255)"
         result="flood"
         id="feFlood38" />
      <feColorMatrix
         in="SourceGraphic"
         values="1 0 0 0 0 0 1 0 0 0 0 0 1 0 0 -0.2125 -0.7154 -0.0721 1 0 "
         result="colormatrix1"
         id="feColorMatrix38" />
      <feGaussianBlur
         in="colormatrix1"
         stdDeviation="3 3"
         result="blur"
         id="feGaussianBlur38" />
      <feColorMatrix
         in="blur"
         values="1 0 0 0 0 0 1 0 0 0 0 0 1 0 0 0 0 0 6 -2 "
         result="colormatrix2"
         id="feColorMatrix39" />
      <feBlend
         in="colormatrix2"
         in2="flood"
         mode="normal"
         result="blend"
         id="feBlend39" />
      <feComposite
         in="blend"
         in2="blend"
         operator="arithmetic"
         k2="0.2"
         result="composite1"
         id="feComposite39" />
      <feComposite
         in2="SourceGraphic"
         operator="in"
         id="feComposite40" />
    </filter>
  </defs>
  <g
     id="g877"
     transform="matrix(1.1,0,0,1.1,-3.1845928,-3.2065454)">
    <ellipse
       style="opacity:0.5;fill:#000000;stroke:none;stroke-width:3.89319;stroke-dasharray:none;stroke-opacity:1;filter:url(#filter9)"
       id="path2-5"
       cx="31.949858"
       cy="31.969812"
       rx="25.124426"
       ry="25.268976"
       transform="matrix(1.05,0,0,1.05,-1.5974929,-1.5984906)" />
    <path
       style="fill:#f5f7fa;stroke-width:0.204426;fill-opacity:1"
       d=""
       id="path3" />
    <circle
       style="opacity:1;fill:url(#linearGradient8);stroke:url(#linearGradient7);stroke-width:3.81818;stroke-dasharray:none;stroke-opacity:1"
       id="path2"
       cx="31.949856"
       cy="31.969812"
       r="24.711082" />
    <ellipse
       style="opacity:0.3;fill:none;stroke:#000000;stroke-width:0.974376;stroke-dasharray:none;stroke-opacity:1"
       id="path2-9"
       cx="31.949856"
       cy="31.969812"
       rx="23.129124"
       ry="23.129126" />
  </g>
  <path
     style="fill:#000000;fill-opacity:1;stroke:none;stroke-width:0.487357;stroke-dasharray:none;stroke-opacity:0.6;opacity:0.2"
     d="M 28.564537,48.986206 C 22.699448,47.701619 17.434311,42.853762 16.715138,38.075917 c -0.222631,-1.479078 0.02027,-4.369945 0.533655,-6.351152 1.508563,-5.821737 5.52752,-10.090379 11.26909,-11.969198 2.59373,-0.848752 5.278081,-1.162487 8.876905,-1.037499 3.364302,0.116847 4.787366,0.384334 6.381828,1.199571 1.42866,0.730462 2.207326,1.503942 2.862855,2.84379 0.536353,1.096272 0.609401,1.495515 0.609747,3.332479 3.18e-4,1.690545 -0.09198,2.288895 -0.48586,3.149852 -1.480879,3.236939 -4.592382,5.659951 -9.900892,7.710098 -2.571561,0.993138 -5.404424,1.416115 -9.495294,1.417751 -2.050551,8.19e-4 -3.232948,0.08304 -3.232948,0.224856 0,0.122959 0.715082,0.945165 1.589075,1.827125 2.218375,2.238611 3.544867,2.857129 6.338921,2.955717 2.740223,0.09667 4.783208,-0.408512 8.264459,-2.04367 2.262743,-1.062818 2.718502,-1.204662 3.479654,-1.082952 1.795454,0.287088 3.56127,1.816082 3.56127,3.083611 0,0.811444 -1.395448,2.148849 -3.239433,3.104694 -4.533132,2.349778 -11.359183,3.466084 -15.563633,2.545216 z m 6.123266,-15.511322 c 1.112508,-0.544398 2.358094,-1.829303 2.863825,-2.954222 1.978277,-4.400375 -1.401689,-9.18097 -6.184482,-8.74728 -3.245807,0.29432 -5.543926,2.799059 -5.543926,6.042371 0,2.552188 1.245776,4.58949 3.461799,5.661325 0.9348,0.452141 1.353698,0.519716 2.849378,0.459658 1.111779,-0.04466 2.046203,-0.213658 2.553406,-0.461852 z"
     id="path62-7" />
  <path
     style="fill:#4d4d4d;fill-opacity:1;stroke:none;stroke-width:0.487357;stroke-dasharray:none;stroke-opacity:0.6"
     d="M 28.564537,46.986206 C 22.699448,45.701619 17.434311,40.853762 16.715138,36.075917 c -0.222631,-1.479078 0.02027,-4.369945 0.533655,-6.351152 1.508563,-5.821737 5.52752,-10.090379 11.26909,-11.969198 2.59373,-0.848752 5.278081,-1.162487 8.876905,-1.037499 3.364302,0.116847 4.787366,0.384334 6.381828,1.199571 1.42866,0.730462 2.207326,1.503942 2.862855,2.84379 0.536353,1.096272 0.609401,1.495515 0.609747,3.332479 3.18e-4,1.690545 -0.09198,2.288895 -0.48586,3.149852 -1.480879,3.236939 -4.592382,5.659951 -9.900892,7.710098 -2.571561,0.993138 -5.404424,1.416115 -9.495294,1.417751 -2.050551,8.19e-4 -3.232948,0.08304 -3.232948,0.224856 0,0.122959 0.715082,0.945165 1.589075,1.827125 2.218375,2.238611 3.544867,2.857129 6.338921,2.955717 2.740223,0.09667 4.783208,-0.408512 8.264459,-2.04367 2.262743,-1.062818 2.718502,-1.204662 3.479654,-1.082952 1.795454,0.287088 3.56127,1.816082 3.56127,3.083611 0,0.811444 -1.395448,2.148849 -3.239433,3.104694 -4.533132,2.349778 -11.359183,3.466084 -15.563633,2.545216 z m 6.123266,-15.511322 c 1.112508,-0.544398 2.358094,-1.829303 2.863825,-2.954222 1.978277,-4.400375 -1.401689,-9.18097 -6.184482,-8.74728 -3.245807,0.29432 -5.543926,2.799059 -5.543926,6.042371 0,2.552188 1.245776,4.58949 3.461799,5.661325 0.9348,0.452141 1.353698,0.519716 2.849378,0.459658 1.111779,-0.04466 2.046203,-0.213658 2.553406,-0.461852 z"
     id="path62" />
</svg>
