<?xml version="1.0" encoding="UTF-8" standalone="no"?>
<svg
   width="64"
   height="64"
   version="1.1"
   id="svg73"
   sodipodi:docname="1password.svg"
   inkscape:version="1.4.2 (ebf0e940d0, 2025-05-08)"
   xmlns:inkscape="http://www.inkscape.org/namespaces/inkscape"
   xmlns:sodipodi="http://sodipodi.sourceforge.net/DTD/sodipodi-0.dtd"
   xmlns:xlink="http://www.w3.org/1999/xlink"
   xmlns="http://www.w3.org/2000/svg"
   xmlns:svg="http://www.w3.org/2000/svg"
   xmlns:rdf="http://www.w3.org/1999/02/22-rdf-syntax-ns#"
   xmlns:cc="http://creativecommons.org/ns#"
   xmlns:dc="http://purl.org/dc/elements/1.1/">
  <metadata
     id="metadata77">
    <rdf:RDF>
      <cc:Work
         rdf:about="">
        <dc:format>image/svg+xml</dc:format>
        <dc:type
           rdf:resource="http://purl.org/dc/dcmitype/StillImage" />
      </cc:Work>
    </rdf:RDF>
  </metadata>
  <sodipodi:namedview
     pagecolor="#f5f7fa"
     bordercolor="#666666"
     borderopacity="1"
     objecttolerance="10"
     gridtolerance="10"
     guidetolerance="10"
     inkscape:pageopacity="0"
     inkscape:pageshadow="2"
     inkscape:window-width="1289"
     inkscape:window-height="707"
     id="namedview75"
     showgrid="false"
     inkscape:zoom="6.2890624"
     inkscape:cx="53.505591"
     inkscape:cy="29.734162"
     inkscape:window-x="24"
     inkscape:window-y="21"
     inkscape:window-maximized="0"
     inkscape:current-layer="svg73"
     inkscape:document-rotation="0"
     inkscape:pagecheckerboard="0"
     inkscape:showpageshadow="2"
     inkscape:deskcolor="#d1d1d1" />
  <defs
     id="defs29">
    <linearGradient
       id="linearGradient4"
       inkscape:collect="always">
      <stop
         style="stop-color:#67ac5e;stop-opacity:1;"
         offset="0"
         id="stop4" />
      <stop
         style="stop-color:#88c181;stop-opacity:1;"
         offset="0.5"
         id="stop1" />
    </linearGradient>
    <linearGradient
       id="linearGradient2"
       inkscape:collect="always">
      <stop
         style="stop-color:#edf4ec;stop-opacity:1;"
         offset="0"
         id="stop2" />
      <stop
         style="stop-color:#dae9d8;stop-opacity:1;"
         offset="1"
         id="stop3" />
    </linearGradient>
    <linearGradient
       inkscape:collect="always"
       xlink:href="#linearGradient2"
       id="linearGradient8"
       x1="31.721739"
       y1="5.2278585"
       x2="31.88887"
       y2="59.145416"
       gradientUnits="userSpaceOnUse"
       gradientTransform="matrix(0.8505,0,0,0.8505,4.7765033,4.7794869)" />
    <filter
       style="color-interpolation-filters:sRGB;"
       inkscape:label="Blur"
       id="filter9"
       x="-0.047762285"
       y="-0.047489063"
       width="1.0955246"
       height="1.0949781">
      <feGaussianBlur
         stdDeviation="1 1"
         result="blur"
         id="feGaussianBlur9" />
    </filter>
    <linearGradient
       inkscape:collect="always"
       xlink:href="#linearGradient4"
       id="linearGradient7"
       x1="26.723248"
       y1="58.711765"
       x2="25.756926"
       y2="5.950614"
       gradientUnits="userSpaceOnUse" />
    <filter
       style="color-interpolation-filters:sRGB;"
       inkscape:label="Out of Focus"
       id="filter40"
       x="-0.24226652"
       y="-0.2858297"
       width="1.484533"
       height="1.5716594">
      <feFlood
         flood-opacity="1"
         flood-color="rgb(255,255,255)"
         result="flood"
         id="feFlood38" />
      <feColorMatrix
         in="SourceGraphic"
         values="1 0 0 0 0 0 1 0 0 0 0 0 1 0 0 -0.2125 -0.7154 -0.0721 1 0 "
         result="colormatrix1"
         id="feColorMatrix38" />
      <feGaussianBlur
         in="colormatrix1"
         stdDeviation="3 3"
         result="blur"
         id="feGaussianBlur38" />
      <feColorMatrix
         in="blur"
         values="1 0 0 0 0 0 1 0 0 0 0 0 1 0 0 0 0 0 6 -2 "
         result="colormatrix2"
         id="feColorMatrix39" />
      <feBlend
         in="colormatrix2"
         in2="flood"
         mode="normal"
         result="blend"
         id="feBlend39" />
      <feComposite
         in="blend"
         in2="blend"
         operator="arithmetic"
         k2="0.2"
         result="composite1"
         id="feComposite39" />
      <feComposite
         in2="SourceGraphic"
         operator="in"
         id="feComposite40" />
    </filter>
  </defs>
  <g
     id="g877"
     transform="matrix(1.1,0,0,1.1,-3.1845928,-3.2065454)">
    <ellipse
       style="opacity:0.5;fill:#000000;stroke:none;stroke-width:3.89319;stroke-dasharray:none;stroke-opacity:1;filter:url(#filter9)"
       id="path2-5"
       cx="31.949858"
       cy="31.969812"
       rx="25.124426"
       ry="25.268976"
       transform="matrix(1.05,0,0,1.05,-1.5974929,-1.5984906)" />
    <path
       style="fill:#f5f7fa;stroke-width:0.204426;fill-opacity:1"
       d=""
       id="path3" />
    <circle
       style="opacity:1;fill:url(#linearGradient8);stroke:url(#linearGradient7);stroke-width:3.81818;stroke-dasharray:none;stroke-opacity:1"
       id="path2"
       cx="31.949856"
       cy="31.969812"
       r="24.711082" />
    <ellipse
       style="opacity:0.3;fill:none;stroke:#000000;stroke-width:0.974376;stroke-dasharray:none;stroke-opacity:1"
       id="path2-9"
       cx="31.949856"
       cy="31.969812"
       rx="23.129124"
       ry="23.129126" />
  </g>
  <path
     style="fill:#000000;fill-opacity:1;stroke:none;stroke-width:0.467775;stroke-dasharray:none;stroke-opacity:0.6;opacity:0.2"
     d="m 33.254262,49.815437 c -0.15644,-0.166722 -0.227143,-0.177447 -1.47029,-0.222997 -2.774662,-0.101717 -5.556819,-0.72752 -7.984889,-1.796108 -2.810282,-1.236802 -3.789744,-3.019618 -2.801835,-5.09988 0.706215,-1.487083 2.328098,-2.364408 4.102462,-2.219139 2.514201,0.205827 4.963164,2.089408 6.983939,5.371573 0.307033,0.498684 0.444921,0.671989 0.415645,0.522374 -0.02408,-0.123118 -0.109681,-0.677219 -0.190171,-1.231317 -0.441452,-3.038552 -0.460784,-5.306699 -0.06868,-8.059565 0.177591,-1.246893 0.253443,-1.417886 0.628933,-1.417886 0.395511,0 0.451817,0.193182 0.307775,1.055944 -0.256432,1.535935 -0.311017,2.293266 -0.305775,4.24247 0.0059,2.188039 0.109538,3.203568 0.593754,5.817266 0.377117,2.035565 0.313393,1.968587 0.733074,0.770491 1.292947,-3.691086 2.941095,-6.51218 4.30909,-7.375751 0.992376,-0.626466 2.403816,-0.71368 3.463069,-0.213994 0.577847,0.272561 0.902156,0.585566 1.169522,1.128651 0.220518,0.447927 0.24273,0.554831 0.236171,1.135383 -0.0084,0.746207 -0.231896,1.451913 -0.707627,2.234939 -1.537855,2.531364 -4.583428,4.463315 -7.868628,4.991459 -0.689526,0.110871 -0.762929,0.138677 -0.873378,0.331112 -0.1517,0.264301 -0.442703,0.279442 -0.672128,0.035 z M 32.594123,34.449061 c -0.832162,-0.290653 -1.316301,-0.702391 -1.738912,-1.478867 -0.262264,-0.48187 -0.439092,-1.340453 -0.378078,-1.835781 l 0.04758,-0.386364 -0.284539,0.268393 c -0.156493,0.147617 -0.502819,0.371854 -0.769604,0.498302 -0.436825,0.207046 -0.555568,0.229797 -1.194006,0.228752 -0.600878,-8.99e-4 -0.765816,-0.02914 -1.082068,-0.184781 -0.512462,-0.252196 -0.976668,-0.738979 -1.238718,-1.298965 -0.786907,-1.681579 0.180004,-3.494187 2.119192,-3.972728 l 0.494821,-0.122111 -0.509346,-0.357698 c -0.928165,-0.651824 -1.307034,-1.38919 -1.262921,-2.457928 0.02025,-0.491368 0.07066,-0.729757 0.223548,-1.057825 0.251411,-0.539482 0.694075,-1.019677 1.19666,-1.298113 0.362599,-0.200883 0.455256,-0.218637 1.140904,-0.218637 0.873686,0 1.23353,0.128415 1.785465,0.63717 l 0.341362,0.314656 v -0.562548 c 0,-1.36378 0.742432,-2.507723 1.931928,-2.976728 0.596284,-0.235105 1.736333,-0.235318 2.321726,-4.37e-4 1.262022,0.506387 1.989959,1.674306 1.928094,3.093479 -0.01415,0.317246 -0.02154,0.576733 -0.01704,0.576638 0.0044,-1e-4 0.138932,-0.105292 0.298503,-0.233762 0.426867,-0.3437 1.093352,-0.638544 1.680689,-0.743505 1.700112,-0.303829 3.287322,0.874077 3.571055,2.650154 0.151984,0.95125 -0.171079,1.85488 -0.93858,2.625534 -0.541524,0.54374 -1.220839,0.902762 -1.858916,0.982451 l -0.447754,0.05592 0.275423,0.170635 c 0.466019,0.288726 1.014409,0.95002 1.140822,1.37571 0.249737,0.841026 0.09602,2.064356 -0.356545,2.836553 -0.426597,0.728203 -1.327877,1.344996 -2.100087,1.437314 -0.696718,0.08329 -1.482242,-0.283141 -1.83591,-0.856415 -0.21669,-0.351291 -0.295138,-0.376163 -0.295138,-0.09362 0,0.343875 -0.472178,1.223695 -0.883187,1.645667 -0.241351,0.247768 -0.567604,0.47905 -0.887299,0.629003 -0.436889,0.204916 -0.601963,0.240313 -1.214552,0.260396 -0.589465,0.01933 -0.792496,-0.0061 -1.204735,-0.149923 z m 2.77737,-5.635108 c 1.373966,-0.660834 2.138292,-2.394066 1.557653,-3.532221 -0.467409,-0.916191 -1.804358,-1.38505 -3.145268,-1.103014 -1.958003,0.411827 -2.907345,2.289911 -1.904613,3.767894 0.306395,0.451615 0.662223,0.734623 1.217597,0.968418 0.382236,0.160914 0.530057,0.182205 1.11244,0.160217 0.569796,-0.02154 0.74601,-0.06113 1.162191,-0.261294 z"
     id="path1-5" />
  <path
     style="fill:#4d4d4d;fill-opacity:1;stroke:none;stroke-width:0.467775;stroke-dasharray:none;stroke-opacity:0.6"
     d="m 33.254262,47.815437 c -0.15644,-0.166722 -0.227143,-0.177447 -1.47029,-0.222997 -2.774662,-0.101717 -5.556819,-0.72752 -7.984889,-1.796108 -2.810282,-1.236802 -3.789744,-3.019618 -2.801835,-5.09988 0.706215,-1.487083 2.328098,-2.364408 4.102462,-2.219139 2.514201,0.205827 4.963164,2.089408 6.983939,5.371573 0.307033,0.498684 0.444921,0.671989 0.415645,0.522374 -0.02408,-0.123118 -0.109681,-0.677219 -0.190171,-1.231317 -0.441452,-3.038552 -0.460784,-5.306699 -0.06868,-8.059565 0.177591,-1.246893 0.253443,-1.417886 0.628933,-1.417886 0.395511,0 0.451817,0.193182 0.307775,1.055944 -0.256432,1.535935 -0.311017,2.293266 -0.305775,4.24247 0.0059,2.188039 0.109538,3.203568 0.593754,5.817266 0.377117,2.035565 0.313393,1.968587 0.733074,0.770491 1.292947,-3.691086 2.941095,-6.51218 4.30909,-7.375751 0.992376,-0.626466 2.403816,-0.71368 3.463069,-0.213994 0.577847,0.272561 0.902156,0.585566 1.169522,1.128651 0.220518,0.447927 0.24273,0.554831 0.236171,1.135383 -0.0084,0.746207 -0.231896,1.451913 -0.707627,2.234939 -1.537855,2.531364 -4.583428,4.463315 -7.868628,4.991459 -0.689526,0.110871 -0.762929,0.138677 -0.873378,0.331112 -0.1517,0.264301 -0.442703,0.279442 -0.672128,0.035 z M 32.594123,32.449061 c -0.832162,-0.290653 -1.316301,-0.702391 -1.738912,-1.478867 -0.262264,-0.48187 -0.439092,-1.340453 -0.378078,-1.835781 l 0.04758,-0.386364 -0.284539,0.268393 c -0.156493,0.147617 -0.502819,0.371854 -0.769604,0.498302 -0.436825,0.207046 -0.555568,0.229797 -1.194006,0.228752 -0.600878,-8.99e-4 -0.765816,-0.02914 -1.082068,-0.184781 -0.512462,-0.252196 -0.976668,-0.738979 -1.238718,-1.298965 -0.786907,-1.681579 0.180004,-3.494187 2.119192,-3.972728 l 0.494821,-0.122111 -0.509346,-0.357698 c -0.928165,-0.651824 -1.307034,-1.38919 -1.262921,-2.457928 0.02025,-0.491368 0.07066,-0.729757 0.223548,-1.057825 0.251411,-0.539482 0.694075,-1.019677 1.19666,-1.298113 0.362599,-0.200883 0.455256,-0.218637 1.140904,-0.218637 0.873686,0 1.23353,0.128415 1.785465,0.63717 l 0.341362,0.314656 v -0.562548 c 0,-1.36378 0.742432,-2.507723 1.931928,-2.976728 0.596284,-0.235105 1.736333,-0.235318 2.321726,-4.37e-4 1.262022,0.506387 1.989959,1.674306 1.928094,3.093479 -0.01415,0.317246 -0.02154,0.576733 -0.01704,0.576638 0.0044,-1e-4 0.138932,-0.105292 0.298503,-0.233762 0.426867,-0.3437 1.093352,-0.638544 1.680689,-0.743505 1.700112,-0.303829 3.287322,0.874077 3.571055,2.650154 0.151984,0.95125 -0.171079,1.85488 -0.93858,2.625534 -0.541524,0.54374 -1.220839,0.902762 -1.858916,0.982451 l -0.447754,0.05592 0.275423,0.170635 c 0.466019,0.288726 1.014409,0.95002 1.140822,1.37571 0.249737,0.841026 0.09602,2.064356 -0.356545,2.836553 -0.426597,0.728203 -1.327877,1.344996 -2.100087,1.437314 -0.696718,0.08329 -1.482242,-0.283141 -1.83591,-0.856415 -0.21669,-0.351291 -0.295138,-0.376163 -0.295138,-0.09362 0,0.343875 -0.472178,1.223695 -0.883187,1.645667 -0.241351,0.247768 -0.567604,0.47905 -0.887299,0.629003 -0.436889,0.204916 -0.601963,0.240313 -1.214552,0.260396 -0.589465,0.01933 -0.792496,-0.0061 -1.204735,-0.149923 z m 2.77737,-5.635108 c 1.373966,-0.660834 2.138292,-2.394066 1.557653,-3.532221 -0.467409,-0.916191 -1.804358,-1.38505 -3.145268,-1.103014 -1.958003,0.411827 -2.907345,2.289911 -1.904613,3.767894 0.306395,0.451615 0.662223,0.734623 1.217597,0.968418 0.382236,0.160914 0.530057,0.182205 1.11244,0.160217 0.569796,-0.02154 0.74601,-0.06113 1.162191,-0.261294 z"
     id="path1" />
</svg>
