<?xml version="1.0" encoding="UTF-8" standalone="no"?>
<svg
   width="64"
   height="64"
   version="1.1"
   id="svg73"
   sodipodi:docname="abcd.svg"
   inkscape:version="1.4.2 (ebf0e940d0, 2025-05-08)"
   xmlns:inkscape="http://www.inkscape.org/namespaces/inkscape"
   xmlns:sodipodi="http://sodipodi.sourceforge.net/DTD/sodipodi-0.dtd"
   xmlns:xlink="http://www.w3.org/1999/xlink"
   xmlns="http://www.w3.org/2000/svg"
   xmlns:svg="http://www.w3.org/2000/svg"
   xmlns:rdf="http://www.w3.org/1999/02/22-rdf-syntax-ns#"
   xmlns:cc="http://creativecommons.org/ns#"
   xmlns:dc="http://purl.org/dc/elements/1.1/">
  <metadata
     id="metadata77">
    <rdf:RDF>
      <cc:Work
         rdf:about="">
        <dc:format>image/svg+xml</dc:format>
        <dc:type
           rdf:resource="http://purl.org/dc/dcmitype/StillImage" />
      </cc:Work>
    </rdf:RDF>
  </metadata>
  <sodipodi:namedview
     pagecolor="#f5f7fa"
     bordercolor="#666666"
     borderopacity="1"
     objecttolerance="10"
     gridtolerance="10"
     guidetolerance="10"
     inkscape:pageopacity="0"
     inkscape:pageshadow="2"
     inkscape:window-width="1263"
     inkscape:window-height="693"
     id="namedview75"
     showgrid="false"
     inkscape:zoom="4.4470387"
     inkscape:cx="36.091433"
     inkscape:cy="29.682674"
     inkscape:window-x="24"
     inkscape:window-y="21"
     inkscape:window-maximized="0"
     inkscape:current-layer="svg73"
     inkscape:document-rotation="0"
     inkscape:pagecheckerboard="0"
     inkscape:showpageshadow="2"
     inkscape:deskcolor="#d1d1d1" />
  <defs
     id="defs29">
    <linearGradient
       id="linearGradient4"
       inkscape:collect="always">
      <stop
         style="stop-color:#67ac5e;stop-opacity:1;"
         offset="0"
         id="stop4" />
      <stop
         style="stop-color:#88c181;stop-opacity:1;"
         offset="0.5"
         id="stop1" />
    </linearGradient>
    <linearGradient
       id="linearGradient2"
       inkscape:collect="always">
      <stop
         style="stop-color:#edf4ec;stop-opacity:1;"
         offset="0"
         id="stop2" />
      <stop
         style="stop-color:#dae9d8;stop-opacity:1;"
         offset="1"
         id="stop3" />
    </linearGradient>
    <linearGradient
       inkscape:collect="always"
       xlink:href="#linearGradient2"
       id="linearGradient8"
       x1="31.721739"
       y1="5.2278585"
       x2="31.88887"
       y2="59.145416"
       gradientUnits="userSpaceOnUse"
       gradientTransform="matrix(0.8505,0,0,0.8505,4.7765033,4.7794869)" />
    <filter
       style="color-interpolation-filters:sRGB;"
       inkscape:label="Blur"
       id="filter9"
       x="-0.047762285"
       y="-0.047489063"
       width="1.0955246"
       height="1.0949781">
      <feGaussianBlur
         stdDeviation="1 1"
         result="blur"
         id="feGaussianBlur9" />
    </filter>
    <linearGradient
       inkscape:collect="always"
       xlink:href="#linearGradient4"
       id="linearGradient7"
       x1="26.723248"
       y1="58.711765"
       x2="25.756926"
       y2="5.950614"
       gradientUnits="userSpaceOnUse" />
    <filter
       style="color-interpolation-filters:sRGB;"
       inkscape:label="Out of Focus"
       id="filter40"
       x="-0.24226652"
       y="-0.2858297"
       width="1.484533"
       height="1.5716594">
      <feFlood
         flood-opacity="1"
         flood-color="rgb(255,255,255)"
         result="flood"
         id="feFlood38" />
      <feColorMatrix
         in="SourceGraphic"
         values="1 0 0 0 0 0 1 0 0 0 0 0 1 0 0 -0.2125 -0.7154 -0.0721 1 0 "
         result="colormatrix1"
         id="feColorMatrix38" />
      <feGaussianBlur
         in="colormatrix1"
         stdDeviation="3 3"
         result="blur"
         id="feGaussianBlur38" />
      <feColorMatrix
         in="blur"
         values="1 0 0 0 0 0 1 0 0 0 0 0 1 0 0 0 0 0 6 -2 "
         result="colormatrix2"
         id="feColorMatrix39" />
      <feBlend
         in="colormatrix2"
         in2="flood"
         mode="normal"
         result="blend"
         id="feBlend39" />
      <feComposite
         in="blend"
         in2="blend"
         operator="arithmetic"
         k2="0.2"
         result="composite1"
         id="feComposite39" />
      <feComposite
         in2="SourceGraphic"
         operator="in"
         id="feComposite40" />
    </filter>
  </defs>
  <g
     id="g877"
     transform="matrix(1.1,0,0,1.1,-3.1845928,-3.2065454)">
    <ellipse
       style="opacity:0.5;fill:#000000;stroke:none;stroke-width:3.89319;stroke-dasharray:none;stroke-opacity:1;filter:url(#filter9)"
       id="path2-5"
       cx="31.949858"
       cy="31.969812"
       rx="25.124426"
       ry="25.268976"
       transform="matrix(1.05,0,0,1.05,-1.5974929,-1.5984906)" />
    <path
       style="fill:#f5f7fa;stroke-width:0.204426;fill-opacity:1"
       d=""
       id="path3" />
    <circle
       style="opacity:1;fill:url(#linearGradient8);stroke:url(#linearGradient7);stroke-width:3.81818;stroke-dasharray:none;stroke-opacity:1"
       id="path2"
       cx="31.949856"
       cy="31.969812"
       r="24.711082" />
    <ellipse
       style="opacity:0.3;fill:none;stroke:#000000;stroke-width:0.974376;stroke-dasharray:none;stroke-opacity:1"
       id="path2-9"
       cx="31.949856"
       cy="31.969812"
       rx="23.129124"
       ry="23.129126" />
  </g>
  <path
     id="path6-9"
     style="fill:#000000;fill-opacity:1;stroke-width:0.0908029;opacity:0.2"
     d="m 32.91105,18.807882 c -0.264529,-0.0059 -0.530566,-0.0056 -0.797037,0.0023 -1.048756,0.03045 -1.661398,0.100837 -2.655728,0.303936 -5.219652,1.066146 -9.552374,4.884591 -11.300924,9.95871 -0.102058,0.296185 -0.185974,0.546088 -0.185974,0.555802 0,0.0097 1.026863,0.01709 2.281651,0.01703 h 2.281652 l 0.291183,-0.577083 c 0.348198,-0.688998 0.860401,-1.46447 1.356026,-2.055287 3.227191,-3.847007 8.654495,-5.000747 13.153237,-2.796004 1.783059,0.873841 3.231608,2.152382 4.348633,3.839592 0.687446,1.038351 1.305476,2.547878 1.537755,3.756702 l 0.107349,0.5558 2.167936,8.93e-4 c 2.034541,2.61e-4 2.167953,-0.0052 2.167945,-0.07971 -8e-6,-0.04371 -0.04173,-0.333179 -0.09244,-0.644004 -0.521028,-3.193049 -1.93015,-5.990014 -4.172258,-8.281684 -2.795893,-2.857704 -6.521154,-4.468716 -10.489011,-4.556943 z M 20.653682,29.701785 c -2.881135,-0.01114 -3.266762,-0.0044 -3.462329,0.06058 -0.297209,0.09871 -0.675795,0.450761 -0.814041,0.756654 l -0.108394,0.23911 v 3.246597 3.246597 l 0.108394,0.239109 c 0.130034,0.287725 0.494927,0.636168 0.780033,0.744966 0.182787,0.06974 0.497571,0.07586 3.469769,0.06798 l 3.268915,-0.0084 0.187042,-0.09988 c 0.656689,-0.35145 0.83529,-0.757366 0.83529,-1.906649 v -0.69497 H 36.28836 47.658359 l 0.03715,-0.215731 c 0.04811,-0.283715 0.04711,-2.263665 -8.94e-4,-2.655729 l -0.03716,-0.306061 H 36.287299 24.918361 v -0.693996 c 0,-1.149288 -0.178601,-1.556263 -0.835295,-1.907577 l -0.187037,-0.09989 z m 24.843113,5.937393 -2.167943,8.94e-4 -0.107349,0.555802 c -0.232297,1.208796 -0.850303,2.718323 -1.537748,3.756672 -2.064393,3.118167 -5.444614,4.948013 -9.138298,4.948013 -4.107479,0 -7.87646,-2.313608 -9.723851,-5.969278 L 22.534693,38.363843 H 20.25304 c -1.254789,-1.03e-4 -2.28165,0.0074 -2.28165,0.01731 0,0.0096 0.08391,0.259618 0.185977,0.5558 1.961388,5.691763 7.061498,9.676929 13.093726,10.229707 0.654274,0.05997 2.484181,0.02284 3.156266,-0.06377 0.312138,-0.04024 0.822843,-0.124297 1.134981,-0.187028 6.275378,-1.261099 11.119601,-6.362998 12.051203,-12.692021 0.03907,-0.265401 0.0712,-0.505472 0.0712,-0.533484 0,-0.03691 -0.595999,-0.05122 -2.167938,-0.05102 z" />
  <path
     id="path6"
     style="fill:#4d4d4d;fill-opacity:1;stroke-width:0.0908029"
     d="m 32.91105,16.807882 c -0.264529,-0.0059 -0.530566,-0.0056 -0.797037,0.0023 -1.048756,0.03045 -1.661398,0.100837 -2.655728,0.303936 -5.219652,1.066146 -9.552374,4.884591 -11.300924,9.95871 -0.102058,0.296185 -0.185974,0.546088 -0.185974,0.555802 0,0.0097 1.026863,0.01709 2.281651,0.01703 h 2.281652 l 0.291183,-0.577083 c 0.348198,-0.688998 0.860401,-1.46447 1.356026,-2.055287 3.227191,-3.847007 8.654495,-5.000747 13.153237,-2.796004 1.783059,0.873841 3.231608,2.152382 4.348633,3.839592 0.687446,1.038351 1.305476,2.547878 1.537755,3.756702 l 0.107349,0.5558 2.167936,8.93e-4 c 2.034541,2.61e-4 2.167953,-0.0052 2.167945,-0.07971 -8e-6,-0.04371 -0.04173,-0.333179 -0.09244,-0.644004 -0.521028,-3.193049 -1.93015,-5.990014 -4.172258,-8.281684 -2.795893,-2.857704 -6.521154,-4.468716 -10.489011,-4.556943 z M 20.653682,27.701785 c -2.881135,-0.01114 -3.266762,-0.0044 -3.462329,0.06058 -0.297209,0.09871 -0.675795,0.450761 -0.814041,0.756654 l -0.108394,0.23911 v 3.246597 3.246597 l 0.108394,0.239109 c 0.130034,0.287725 0.494927,0.636168 0.780033,0.744966 0.182787,0.06974 0.497571,0.07586 3.469769,0.06798 l 3.268915,-0.0084 0.187042,-0.09988 c 0.656689,-0.35145 0.83529,-0.757366 0.83529,-1.906649 v -0.69497 H 36.28836 47.658359 l 0.03715,-0.215731 c 0.04811,-0.283715 0.04711,-2.263665 -8.94e-4,-2.655729 l -0.03716,-0.306061 H 36.287299 24.918361 v -0.693996 c 0,-1.149288 -0.178601,-1.556263 -0.835295,-1.907577 l -0.187037,-0.09989 z m 24.843113,5.937393 -2.167943,8.94e-4 -0.107349,0.555802 c -0.232297,1.208796 -0.850303,2.718323 -1.537748,3.756672 -2.064393,3.118167 -5.444614,4.948013 -9.138298,4.948013 -4.107479,0 -7.87646,-2.313608 -9.723851,-5.969278 L 22.534693,36.363843 H 20.25304 c -1.254789,-1.03e-4 -2.28165,0.0074 -2.28165,0.01731 0,0.0096 0.08391,0.259618 0.185977,0.5558 1.961388,5.691763 7.061498,9.676929 13.093726,10.229707 0.654274,0.05997 2.484181,0.02284 3.156266,-0.06377 0.312138,-0.04024 0.822843,-0.124297 1.134981,-0.187028 6.275378,-1.261099 11.119601,-6.362998 12.051203,-12.692021 0.03907,-0.265401 0.0712,-0.505472 0.0712,-0.533484 0,-0.03691 -0.595999,-0.05122 -2.167938,-0.05102 z" />
</svg>
