<?xml version="1.0" encoding="UTF-8" standalone="no"?>
<svg
   width="64"
   height="64"
   version="1.1"
   id="svg73"
   sodipodi:docname="abcd.svg"
   inkscape:version="1.4.2 (ebf0e940d0, 2025-05-08)"
   xmlns:inkscape="http://www.inkscape.org/namespaces/inkscape"
   xmlns:sodipodi="http://sodipodi.sourceforge.net/DTD/sodipodi-0.dtd"
   xmlns:xlink="http://www.w3.org/1999/xlink"
   xmlns="http://www.w3.org/2000/svg"
   xmlns:svg="http://www.w3.org/2000/svg"
   xmlns:rdf="http://www.w3.org/1999/02/22-rdf-syntax-ns#"
   xmlns:cc="http://creativecommons.org/ns#"
   xmlns:dc="http://purl.org/dc/elements/1.1/">
  <metadata
     id="metadata77">
    <rdf:RDF>
      <cc:Work
         rdf:about="">
        <dc:format>image/svg+xml</dc:format>
        <dc:type
           rdf:resource="http://purl.org/dc/dcmitype/StillImage" />
      </cc:Work>
    </rdf:RDF>
  </metadata>
  <sodipodi:namedview
     pagecolor="#f5f7fa"
     bordercolor="#666666"
     borderopacity="1"
     objecttolerance="10"
     gridtolerance="10"
     guidetolerance="10"
     inkscape:pageopacity="0"
     inkscape:pageshadow="2"
     inkscape:window-width="1263"
     inkscape:window-height="693"
     id="namedview75"
     showgrid="false"
     inkscape:zoom="4.4470387"
     inkscape:cx="36.091433"
     inkscape:cy="29.682674"
     inkscape:window-x="24"
     inkscape:window-y="21"
     inkscape:window-maximized="0"
     inkscape:current-layer="svg73"
     inkscape:document-rotation="0"
     inkscape:pagecheckerboard="0"
     inkscape:showpageshadow="2"
     inkscape:deskcolor="#d1d1d1" />
  <defs
     id="defs29">
    <linearGradient
       id="linearGradient4"
       inkscape:collect="always">
      <stop
         style="stop-color:#67ac5e;stop-opacity:1;"
         offset="0"
         id="stop4" />
      <stop
         style="stop-color:#88c181;stop-opacity:1;"
         offset="0.5"
         id="stop1" />
    </linearGradient>
    <linearGradient
       id="linearGradient2"
       inkscape:collect="always">
      <stop
         style="stop-color:#edf4ec;stop-opacity:1;"
         offset="0"
         id="stop2" />
      <stop
         style="stop-color:#dae9d8;stop-opacity:1;"
         offset="1"
         id="stop3" />
    </linearGradient>
    <linearGradient
       inkscape:collect="always"
       xlink:href="#linearGradient2"
       id="linearGradient8"
       x1="31.721739"
       y1="5.2278585"
       x2="31.88887"
       y2="59.145416"
       gradientUnits="userSpaceOnUse"
       gradientTransform="matrix(0.8505,0,0,0.8505,4.7765033,4.7794869)" />
    <filter
       style="color-interpolation-filters:sRGB;"
       inkscape:label="Blur"
       id="filter9"
       x="-0.047762285"
       y="-0.047489063"
       width="1.0955246"
       height="1.0949781">
      <feGaussianBlur
         stdDeviation="1 1"
         result="blur"
         id="feGaussianBlur9" />
    </filter>
    <linearGradient
       inkscape:collect="always"
       xlink:href="#linearGradient4"
       id="linearGradient7"
       x1="26.723248"
       y1="58.711765"
       x2="25.756926"
       y2="5.950614"
       gradientUnits="userSpaceOnUse" />
    <filter
       style="color-interpolation-filters:sRGB;"
       inkscape:label="Out of Focus"
       id="filter40"
       x="-0.24226652"
       y="-0.2858297"
       width="1.484533"
       height="1.5716594">
      <feFlood
         flood-opacity="1"
         flood-color="rgb(255,255,255)"
         result="flood"
         id="feFlood38" />
      <feColorMatrix
         in="SourceGraphic"
         values="1 0 0 0 0 0 1 0 0 0 0 0 1 0 0 -0.2125 -0.7154 -0.0721 1 0 "
         result="colormatrix1"
         id="feColorMatrix38" />
      <feGaussianBlur
         in="colormatrix1"
         stdDeviation="3 3"
         result="blur"
         id="feGaussianBlur38" />
      <feColorMatrix
         in="blur"
         values="1 0 0 0 0 0 1 0 0 0 0 0 1 0 0 0 0 0 6 -2 "
         result="colormatrix2"
         id="feColorMatrix39" />
      <feBlend
         in="colormatrix2"
         in2="flood"
         mode="normal"
         result="blend"
         id="feBlend39" />
      <feComposite
         in="blend"
         in2="blend"
         operator="arithmetic"
         k2="0.2"
         result="composite1"
         id="feComposite39" />
      <feComposite
         in2="SourceGraphic"
         operator="in"
         id="feComposite40" />
    </filter>
  </defs>
  <g
     id="g877"
     transform="matrix(1.1,0,0,1.1,-3.1845928,-3.2065454)">
    <ellipse
       style="opacity:0.5;fill:#000000;stroke:none;stroke-width:3.89319;stroke-dasharray:none;stroke-opacity:1;filter:url(#filter9)"
       id="path2-5"
       cx="31.949858"
       cy="31.969812"
       rx="25.124426"
       ry="25.268976"
       transform="matrix(1.05,0,0,1.05,-1.5974929,-1.5984906)" />
    <path
       style="fill:#f5f7fa;stroke-width:0.204426;fill-opacity:1"
       d=""
       id="path3" />
    <circle
       style="opacity:1;fill:url(#linearGradient8);stroke:url(#linearGradient7);stroke-width:3.81818;stroke-dasharray:none;stroke-opacity:1"
       id="path2"
       cx="31.949856"
       cy="31.969812"
       r="24.711082" />
    <ellipse
       style="opacity:0.3;fill:none;stroke:#000000;stroke-width:0.974376;stroke-dasharray:none;stroke-opacity:1"
       id="path2-9"
       cx="31.949856"
       cy="31.969812"
       rx="23.129124"
       ry="23.129126" />
  </g>
  <path
     style="fill:#000000;fill-opacity:1;stroke:none;stroke-width:0.491164;stroke-dasharray:none;stroke-opacity:0.6;opacity:0.2"
     d="m 31.016583,49.598533 c -3.769495,-0.252858 -7.374912,-1.887851 -10.050307,-4.557646 -2.439795,-2.434701 -3.937527,-5.456975 -4.471686,-9.023448 -0.108086,-0.721705 -0.108086,-3.331184 0,-4.052888 0.377522,-2.520643 1.164575,-4.608324 2.482889,-6.585953 1.588878,-2.383504 3.600213,-4.15105 6.138571,-5.39453 1.578649,-0.77334 2.945697,-1.199857 4.708505,-1.469038 1.185332,-0.180998 3.165565,-0.180998 4.350902,0 1.766847,0.269804 3.162524,0.704983 4.708503,1.468154 1.631589,0.805435 2.902374,1.713675 4.171712,2.981561 2.426577,2.423785 3.916026,5.436275 4.449746,8.999806 0.108075,0.721704 0.108075,3.331183 0,4.052888 -0.369462,2.466769 -1.169524,4.607131 -2.443583,6.53713 -2.176299,3.29675 -5.537305,5.675934 -9.336745,6.609276 -1.378046,0.338533 -3.38289,0.523603 -4.708507,0.434688 z m -4.540687,-9.448539 c 0.28126,-0.14983 0.275296,-0.07183 0.277291,-3.624226 l 0.002,-3.365754 2.339355,2.332022 c 1.975094,1.968905 2.376474,2.342121 2.577758,2.396901 0.296917,0.08083 0.359307,0.08076 0.655615,-4.96e-4 0.200878,-0.05507 0.606585,-0.432216 2.577758,-2.396227 l 2.339355,-2.330853 0.002,3.365082 c 0.0015,2.551268 0.01958,3.387952 0.07451,3.459647 0.160426,0.208997 0.319976,0.233231 1.533507,0.233231 h 1.200533 l 0.174231,-0.174231 0.174268,-0.174234 V 33.990993 28.11109 l -0.174268,-0.174215 -0.174231,-0.174211 -0.913505,0.0013 c -0.767087,9.9e-4 -0.951717,0.01921 -1.151912,0.113126 -0.159448,0.07478 -1.17589,1.05139 -3.069233,2.948958 -1.556953,1.560427 -2.871269,2.83714 -2.920698,2.83714 -0.04943,0 -1.363746,-1.275782 -2.920703,-2.835074 -1.557017,-1.559289 -2.930397,-2.88691 -3.05202,-2.950266 -0.191008,-0.09954 -0.347951,-0.115231 -1.151916,-0.115231 h -0.930793 l -0.174216,0.174212 -0.174209,0.174213 v 5.879909 5.879896 l 0.174209,0.174233 0.174216,0.174231 h 1.200529 c 0.79839,0 1.244136,-0.02262 1.330715,-0.06929 z"
     id="path5-2" />
  <path
     style="fill:#4d4d4d;fill-opacity:1;stroke:none;stroke-width:0.491164;stroke-dasharray:none;stroke-opacity:0.6"
     d="m 31.016583,47.598533 c -3.769495,-0.252858 -7.374912,-1.887851 -10.050307,-4.557646 -2.439795,-2.434701 -3.937527,-5.456975 -4.471686,-9.023448 -0.108086,-0.721705 -0.108086,-3.331184 0,-4.052888 0.377522,-2.520643 1.164575,-4.608324 2.482889,-6.585953 1.588878,-2.383504 3.600213,-4.15105 6.138571,-5.39453 1.578649,-0.77334 2.945697,-1.199857 4.708505,-1.469038 1.185332,-0.180998 3.165565,-0.180998 4.350902,0 1.766847,0.269804 3.162524,0.704983 4.708503,1.468154 1.631589,0.805435 2.902374,1.713675 4.171712,2.981561 2.426577,2.423785 3.916026,5.436275 4.449746,8.999806 0.108075,0.721704 0.108075,3.331183 0,4.052888 -0.369462,2.466769 -1.169524,4.607131 -2.443583,6.53713 -2.176299,3.29675 -5.537305,5.675934 -9.336745,6.609276 -1.378046,0.338533 -3.38289,0.523603 -4.708507,0.434688 z m -4.540687,-9.448539 c 0.28126,-0.14983 0.275296,-0.07183 0.277291,-3.624226 l 0.002,-3.365754 2.339355,2.332022 c 1.975094,1.968905 2.376474,2.342121 2.577758,2.396901 0.296917,0.08083 0.359307,0.08076 0.655615,-4.96e-4 0.200878,-0.05507 0.606585,-0.432216 2.577758,-2.396227 l 2.339355,-2.330853 0.002,3.365082 c 0.0015,2.551268 0.01958,3.387952 0.07451,3.459647 0.160426,0.208997 0.319976,0.233231 1.533507,0.233231 h 1.200533 l 0.174231,-0.174231 0.174268,-0.174234 V 31.990993 26.11109 l -0.174268,-0.174215 -0.174231,-0.174211 -0.913505,0.0013 c -0.767087,9.9e-4 -0.951717,0.01921 -1.151912,0.113126 -0.159448,0.07478 -1.17589,1.05139 -3.069233,2.948958 -1.556953,1.560427 -2.871269,2.83714 -2.920698,2.83714 -0.04943,0 -1.363746,-1.275782 -2.920703,-2.835074 -1.557017,-1.559289 -2.930397,-2.88691 -3.05202,-2.950266 -0.191008,-0.09954 -0.347951,-0.115231 -1.151916,-0.115231 h -0.930793 l -0.174216,0.174212 -0.174209,0.174213 v 5.879909 5.879896 l 0.174209,0.174233 0.174216,0.174231 h 1.200529 c 0.79839,0 1.244136,-0.02262 1.330715,-0.06929 z"
     id="path5" />
</svg>
