<?xml version="1.0" encoding="UTF-8" standalone="no"?>
<svg
   width="64"
   height="64"
   version="1.1"
   id="svg73"
   sodipodi:docname="1password.svg"
   inkscape:version="1.4.2 (ebf0e940d0, 2025-05-08)"
   xmlns:inkscape="http://www.inkscape.org/namespaces/inkscape"
   xmlns:sodipodi="http://sodipodi.sourceforge.net/DTD/sodipodi-0.dtd"
   xmlns:xlink="http://www.w3.org/1999/xlink"
   xmlns="http://www.w3.org/2000/svg"
   xmlns:svg="http://www.w3.org/2000/svg"
   xmlns:rdf="http://www.w3.org/1999/02/22-rdf-syntax-ns#"
   xmlns:cc="http://creativecommons.org/ns#"
   xmlns:dc="http://purl.org/dc/elements/1.1/">
  <metadata
     id="metadata77">
    <rdf:RDF>
      <cc:Work
         rdf:about="">
        <dc:format>image/svg+xml</dc:format>
        <dc:type
           rdf:resource="http://purl.org/dc/dcmitype/StillImage" />
      </cc:Work>
    </rdf:RDF>
  </metadata>
  <sodipodi:namedview
     pagecolor="#f5f7fa"
     bordercolor="#666666"
     borderopacity="1"
     objecttolerance="10"
     gridtolerance="10"
     guidetolerance="10"
     inkscape:pageopacity="0"
     inkscape:pageshadow="2"
     inkscape:window-width="1289"
     inkscape:window-height="707"
     id="namedview75"
     showgrid="false"
     inkscape:zoom="6.2890624"
     inkscape:cx="53.505591"
     inkscape:cy="29.734162"
     inkscape:window-x="24"
     inkscape:window-y="21"
     inkscape:window-maximized="0"
     inkscape:current-layer="svg73"
     inkscape:document-rotation="0"
     inkscape:pagecheckerboard="0"
     inkscape:showpageshadow="2"
     inkscape:deskcolor="#d1d1d1" />
  <defs
     id="defs29">
    <linearGradient
       id="linearGradient4"
       inkscape:collect="always">
      <stop
         style="stop-color:#67ac5e;stop-opacity:1;"
         offset="0"
         id="stop4" />
      <stop
         style="stop-color:#88c181;stop-opacity:1;"
         offset="0.5"
         id="stop1" />
    </linearGradient>
    <linearGradient
       id="linearGradient2"
       inkscape:collect="always">
      <stop
         style="stop-color:#edf4ec;stop-opacity:1;"
         offset="0"
         id="stop2" />
      <stop
         style="stop-color:#dae9d8;stop-opacity:1;"
         offset="1"
         id="stop3" />
    </linearGradient>
    <linearGradient
       inkscape:collect="always"
       xlink:href="#linearGradient2"
       id="linearGradient8"
       x1="31.721739"
       y1="5.2278585"
       x2="31.88887"
       y2="59.145416"
       gradientUnits="userSpaceOnUse"
       gradientTransform="matrix(0.8505,0,0,0.8505,4.7765033,4.7794869)" />
    <filter
       style="color-interpolation-filters:sRGB;"
       inkscape:label="Blur"
       id="filter9"
       x="-0.047762285"
       y="-0.047489063"
       width="1.0955246"
       height="1.0949781">
      <feGaussianBlur
         stdDeviation="1 1"
         result="blur"
         id="feGaussianBlur9" />
    </filter>
    <linearGradient
       inkscape:collect="always"
       xlink:href="#linearGradient4"
       id="linearGradient7"
       x1="26.723248"
       y1="58.711765"
       x2="25.756926"
       y2="5.950614"
       gradientUnits="userSpaceOnUse" />
    <filter
       style="color-interpolation-filters:sRGB;"
       inkscape:label="Out of Focus"
       id="filter40"
       x="-0.24226652"
       y="-0.2858297"
       width="1.484533"
       height="1.5716594">
      <feFlood
         flood-opacity="1"
         flood-color="rgb(255,255,255)"
         result="flood"
         id="feFlood38" />
      <feColorMatrix
         in="SourceGraphic"
         values="1 0 0 0 0 0 1 0 0 0 0 0 1 0 0 -0.2125 -0.7154 -0.0721 1 0 "
         result="colormatrix1"
         id="feColorMatrix38" />
      <feGaussianBlur
         in="colormatrix1"
         stdDeviation="3 3"
         result="blur"
         id="feGaussianBlur38" />
      <feColorMatrix
         in="blur"
         values="1 0 0 0 0 0 1 0 0 0 0 0 1 0 0 0 0 0 6 -2 "
         result="colormatrix2"
         id="feColorMatrix39" />
      <feBlend
         in="colormatrix2"
         in2="flood"
         mode="normal"
         result="blend"
         id="feBlend39" />
      <feComposite
         in="blend"
         in2="blend"
         operator="arithmetic"
         k2="0.2"
         result="composite1"
         id="feComposite39" />
      <feComposite
         in2="SourceGraphic"
         operator="in"
         id="feComposite40" />
    </filter>
  </defs>
  <g
     id="g877"
     transform="matrix(1.1,0,0,1.1,-3.1845928,-3.2065454)">
    <ellipse
       style="opacity:0.5;fill:#000000;stroke:none;stroke-width:3.89319;stroke-dasharray:none;stroke-opacity:1;filter:url(#filter9)"
       id="path2-5"
       cx="31.949858"
       cy="31.969812"
       rx="25.124426"
       ry="25.268976"
       transform="matrix(1.05,0,0,1.05,-1.5974929,-1.5984906)" />
    <path
       style="fill:#f5f7fa;stroke-width:0.204426;fill-opacity:1"
       d=""
       id="path3" />
    <circle
       style="opacity:1;fill:url(#linearGradient8);stroke:url(#linearGradient7);stroke-width:3.81818;stroke-dasharray:none;stroke-opacity:1"
       id="path2"
       cx="31.949856"
       cy="31.969812"
       r="24.711082" />
    <ellipse
       style="opacity:0.3;fill:none;stroke:#000000;stroke-width:0.974376;stroke-dasharray:none;stroke-opacity:1"
       id="path2-9"
       cx="31.949856"
       cy="31.969812"
       rx="23.129124"
       ry="23.129126" />
  </g>
  <path
     style="fill:#000000;fill-opacity:1;stroke-width:0.278567;opacity:0.2"
     d="M 30.344598,49.176522 C 24.181639,48.460262 19.048655,44.129694 17.337346,38.202637 16.483849,35.246578 16.546605,32.21833 17.52451,29.171334 c 0.346541,-1.07977 1.33661,-3.022915 2.057237,-4.037611 0.800642,-1.127362 2.424538,-2.751257 3.5519,-3.551898 2.089253,-1.483769 4.666212,-2.459204 7.291322,-2.759926 3.552537,-0.406961 7.421494,0.615767 10.440886,2.759967 1.127311,0.800549 2.751219,2.424441 3.5519,3.551857 2.133946,3.004751 3.164964,6.905129 2.759923,10.440887 -0.300721,2.625111 -1.276154,5.202069 -2.759923,7.291321 -0.802505,1.129986 -2.430737,2.75879 -3.528884,3.530126 -3.12086,2.192083 -6.94049,3.199297 -10.544273,2.780465 z m 2.150088,-11.952187 c 3.081094,-1.760187 5.567305,-3.232549 5.524909,-3.271917 -0.06746,-0.06263 -10.790981,-6.20014 -11.335829,-6.487944 L 26.47484,27.35411 v 6.645713 6.645713 l 0.208926,-0.110432 c 0.114909,-0.06073 2.729823,-1.550587 5.81092,-3.310774 z"
     id="path7-9" />
  <path
     style="fill:#4d4d4d;fill-opacity:1;stroke-width:0.278567"
     d="M 30.344598,47.176522 C 24.181639,46.460262 19.048655,42.129694 17.337346,36.202637 16.483849,33.246578 16.546605,30.21833 17.52451,27.171334 c 0.346541,-1.07977 1.33661,-3.022915 2.057237,-4.037611 0.800642,-1.127362 2.424538,-2.751257 3.5519,-3.551898 2.089253,-1.483769 4.666212,-2.459204 7.291322,-2.759926 3.552537,-0.406961 7.421494,0.615767 10.440886,2.759967 1.127311,0.800549 2.751219,2.424441 3.5519,3.551857 2.133946,3.004751 3.164964,6.905129 2.759923,10.440887 -0.300721,2.625111 -1.276154,5.202069 -2.759923,7.291321 -0.802505,1.129986 -2.430737,2.75879 -3.528884,3.530126 -3.12086,2.192083 -6.94049,3.199297 -10.544273,2.780465 z m 2.150088,-11.952187 c 3.081094,-1.760187 5.567305,-3.232549 5.524909,-3.271917 -0.06746,-0.06263 -10.790981,-6.20014 -11.335829,-6.487944 L 26.47484,25.35411 v 6.645713 6.645713 l 0.208926,-0.110432 c 0.114909,-0.06073 2.729823,-1.550587 5.81092,-3.310774 z"
     id="path7" />
</svg>
