<?xml version="1.0" encoding="UTF-8" standalone="no"?>
<svg
   width="64"
   height="64"
   version="1.1"
   id="svg73"
   sodipodi:docname="abcd.svg"
   inkscape:version="1.4.2 (ebf0e940d0, 2025-05-08)"
   xmlns:inkscape="http://www.inkscape.org/namespaces/inkscape"
   xmlns:sodipodi="http://sodipodi.sourceforge.net/DTD/sodipodi-0.dtd"
   xmlns:xlink="http://www.w3.org/1999/xlink"
   xmlns="http://www.w3.org/2000/svg"
   xmlns:svg="http://www.w3.org/2000/svg"
   xmlns:rdf="http://www.w3.org/1999/02/22-rdf-syntax-ns#"
   xmlns:cc="http://creativecommons.org/ns#"
   xmlns:dc="http://purl.org/dc/elements/1.1/">
  <metadata
     id="metadata77">
    <rdf:RDF>
      <cc:Work
         rdf:about="">
        <dc:format>image/svg+xml</dc:format>
        <dc:type
           rdf:resource="http://purl.org/dc/dcmitype/StillImage" />
      </cc:Work>
    </rdf:RDF>
  </metadata>
  <sodipodi:namedview
     pagecolor="#f5f7fa"
     bordercolor="#666666"
     borderopacity="1"
     objecttolerance="10"
     gridtolerance="10"
     guidetolerance="10"
     inkscape:pageopacity="0"
     inkscape:pageshadow="2"
     inkscape:window-width="1263"
     inkscape:window-height="693"
     id="namedview75"
     showgrid="false"
     inkscape:zoom="4.4470387"
     inkscape:cx="36.091433"
     inkscape:cy="29.682674"
     inkscape:window-x="24"
     inkscape:window-y="21"
     inkscape:window-maximized="0"
     inkscape:current-layer="svg73"
     inkscape:document-rotation="0"
     inkscape:pagecheckerboard="0"
     inkscape:showpageshadow="2"
     inkscape:deskcolor="#d1d1d1" />
  <defs
     id="defs29">
    <linearGradient
       id="linearGradient4"
       inkscape:collect="always">
      <stop
         style="stop-color:#67ac5e;stop-opacity:1;"
         offset="0"
         id="stop4" />
      <stop
         style="stop-color:#88c181;stop-opacity:1;"
         offset="0.5"
         id="stop1" />
    </linearGradient>
    <linearGradient
       id="linearGradient2"
       inkscape:collect="always">
      <stop
         style="stop-color:#edf4ec;stop-opacity:1;"
         offset="0"
         id="stop2" />
      <stop
         style="stop-color:#dae9d8;stop-opacity:1;"
         offset="1"
         id="stop3" />
    </linearGradient>
    <linearGradient
       inkscape:collect="always"
       xlink:href="#linearGradient2"
       id="linearGradient8"
       x1="31.721739"
       y1="5.2278585"
       x2="31.88887"
       y2="59.145416"
       gradientUnits="userSpaceOnUse"
       gradientTransform="matrix(0.8505,0,0,0.8505,4.7765033,4.7794869)" />
    <filter
       style="color-interpolation-filters:sRGB;"
       inkscape:label="Blur"
       id="filter9"
       x="-0.047762285"
       y="-0.047489063"
       width="1.0955246"
       height="1.0949781">
      <feGaussianBlur
         stdDeviation="1 1"
         result="blur"
         id="feGaussianBlur9" />
    </filter>
    <linearGradient
       inkscape:collect="always"
       xlink:href="#linearGradient4"
       id="linearGradient7"
       x1="26.723248"
       y1="58.711765"
       x2="25.756926"
       y2="5.950614"
       gradientUnits="userSpaceOnUse" />
    <filter
       style="color-interpolation-filters:sRGB;"
       inkscape:label="Out of Focus"
       id="filter40"
       x="-0.24226652"
       y="-0.2858297"
       width="1.484533"
       height="1.5716594">
      <feFlood
         flood-opacity="1"
         flood-color="rgb(255,255,255)"
         result="flood"
         id="feFlood38" />
      <feColorMatrix
         in="SourceGraphic"
         values="1 0 0 0 0 0 1 0 0 0 0 0 1 0 0 -0.2125 -0.7154 -0.0721 1 0 "
         result="colormatrix1"
         id="feColorMatrix38" />
      <feGaussianBlur
         in="colormatrix1"
         stdDeviation="3 3"
         result="blur"
         id="feGaussianBlur38" />
      <feColorMatrix
         in="blur"
         values="1 0 0 0 0 0 1 0 0 0 0 0 1 0 0 0 0 0 6 -2 "
         result="colormatrix2"
         id="feColorMatrix39" />
      <feBlend
         in="colormatrix2"
         in2="flood"
         mode="normal"
         result="blend"
         id="feBlend39" />
      <feComposite
         in="blend"
         in2="blend"
         operator="arithmetic"
         k2="0.2"
         result="composite1"
         id="feComposite39" />
      <feComposite
         in2="SourceGraphic"
         operator="in"
         id="feComposite40" />
    </filter>
  </defs>
  <g
     id="g877"
     transform="matrix(1.1,0,0,1.1,-3.1845928,-3.2065454)">
    <ellipse
       style="opacity:0.5;fill:#000000;stroke:none;stroke-width:3.89319;stroke-dasharray:none;stroke-opacity:1;filter:url(#filter9)"
       id="path2-5"
       cx="31.949858"
       cy="31.969812"
       rx="25.124426"
       ry="25.268976"
       transform="matrix(1.05,0,0,1.05,-1.5974929,-1.5984906)" />
    <path
       style="fill:#f5f7fa;stroke-width:0.204426;fill-opacity:1"
       d=""
       id="path3" />
    <circle
       style="opacity:1;fill:url(#linearGradient8);stroke:url(#linearGradient7);stroke-width:3.81818;stroke-dasharray:none;stroke-opacity:1"
       id="path2"
       cx="31.949856"
       cy="31.969812"
       r="24.711082" />
    <ellipse
       style="opacity:0.3;fill:none;stroke:#000000;stroke-width:0.974376;stroke-dasharray:none;stroke-opacity:1"
       id="path2-9"
       cx="31.949856"
       cy="31.969812"
       rx="23.129124"
       ry="23.129126" />
  </g>
  <path
     style="fill:#000000;fill-opacity:1;stroke:none;stroke-width:0.491164;stroke-dasharray:none;stroke-opacity:0.6;opacity:0.2"
     d="m 41.249118,23.295241 c -3.305334,0 -5.885806,2.159828 -5.885806,4.994787 3.14e-4,1.214986 2.522491,1.214986 2.522491,0 0,-1.619973 0.872814,-2.78001 3.363315,-2.78001 2.490494,0 3.363313,1.160037 3.363313,2.78001 0,1.214986 2.522487,1.214986 2.522487,0 0,-2.834959 -2.58042,-4.994787 -5.8858,-4.994787 z m 0,3.691298 c -0.929156,0 -1.681656,0.658487 -1.681656,1.472191 0,0.813653 0.7525,1.473633 1.681656,1.473633 0.929153,0 1.681654,-0.65998 1.681654,-1.473633 0,-0.813704 -0.752501,-1.472191 -1.681654,-1.472191 z m -9.24912,3.691296 c -1.747105,0 -3.806394,0.926412 -4.75758,2.082122 -0.951138,-1.15571 -2.744435,-1.93505 -4.491536,-1.93505 -2.886797,0 -5.885802,1.556455 -5.885802,5.832538 v 7.045188 c 0,0 1.28e-4,1.002127 1.164351,1.002127 1.164225,0 1.358135,-1.002127 1.358135,-1.002127 v -7.045188 c -9.9e-4,-3.249756 1.579166,-3.764833 3.363316,-3.764833 1.784145,0 3.363316,0.993141 3.363316,3.192394 v 7.617626 c 0,0 0.06417,1.002128 1.228397,1.002128 1.164225,0 1.294088,-1.002128 1.294088,-1.002128 v -7.617626 c 0,-2.199253 1.579172,-3.192394 3.363315,-3.192394 1.132687,0 3.333756,0.132041 3.333756,3.192394 l 0.06733,2.599769 c 0,4.805638 3.511876,6.019985 5.848035,6.019985 2.336153,0 5.814414,-1.417694 5.885801,-5.669599 v -6.725083 c 0,-1.17039 -2.522487,-1.17039 -2.522487,0 v 6.624149 c 0,3.225574 -2.195235,3.555752 -3.363314,3.555752 -1.168081,0 -3.360033,-0.125391 -3.360033,-3.904695 l -0.06734,-2.360412 c 0,-3.645102 -2.853503,-5.547039 -5.821754,-5.547039 z"
     id="path8-4" />
  <path
     style="fill:#4d4d4d;fill-opacity:1;stroke:none;stroke-width:0.491164;stroke-dasharray:none;stroke-opacity:0.6"
     d="m 41.249118,21.295241 c -3.305334,0 -5.885806,2.159828 -5.885806,4.994787 3.14e-4,1.214986 2.522491,1.214986 2.522491,0 0,-1.619973 0.872814,-2.78001 3.363315,-2.78001 2.490494,0 3.363313,1.160037 3.363313,2.78001 0,1.214986 2.522487,1.214986 2.522487,0 0,-2.834959 -2.58042,-4.994787 -5.8858,-4.994787 z m 0,3.691298 c -0.929156,0 -1.681656,0.658487 -1.681656,1.472191 0,0.813653 0.7525,1.473633 1.681656,1.473633 0.929153,0 1.681654,-0.65998 1.681654,-1.473633 0,-0.813704 -0.752501,-1.472191 -1.681654,-1.472191 z m -9.24912,3.691296 c -1.747105,0 -3.806394,0.926412 -4.75758,2.082122 -0.951138,-1.15571 -2.744435,-1.93505 -4.491536,-1.93505 -2.886797,0 -5.885802,1.556455 -5.885802,5.832538 v 7.045188 c 0,0 1.28e-4,1.002127 1.164351,1.002127 1.164225,0 1.358135,-1.002127 1.358135,-1.002127 v -7.045188 c -9.9e-4,-3.249756 1.579166,-3.764833 3.363316,-3.764833 1.784145,0 3.363316,0.993141 3.363316,3.192394 v 7.617626 c 0,0 0.06417,1.002128 1.228397,1.002128 1.164225,0 1.294088,-1.002128 1.294088,-1.002128 v -7.617626 c 0,-2.199253 1.579172,-3.192394 3.363315,-3.192394 1.132687,0 3.333756,0.132041 3.333756,3.192394 l 0.06733,2.599769 c 0,4.805638 3.511876,6.019985 5.848035,6.019985 2.336153,0 5.814414,-1.417694 5.885801,-5.669599 v -6.725083 c 0,-1.17039 -2.522487,-1.17039 -2.522487,0 v 6.624149 c 0,3.225574 -2.195235,3.555752 -3.363314,3.555752 -1.168081,0 -3.360033,-0.125391 -3.360033,-3.904695 l -0.06734,-2.360412 c 0,-3.645102 -2.853503,-5.547039 -5.821754,-5.547039 z"
     id="path8" />
</svg>
