<?xml version="1.0" encoding="UTF-8" standalone="no"?>
<svg
   width="64"
   height="64"
   version="1.1"
   id="svg73"
   sodipodi:docname="abcd.svg"
   inkscape:version="1.4.2 (ebf0e940d0, 2025-05-08)"
   xmlns:inkscape="http://www.inkscape.org/namespaces/inkscape"
   xmlns:sodipodi="http://sodipodi.sourceforge.net/DTD/sodipodi-0.dtd"
   xmlns:xlink="http://www.w3.org/1999/xlink"
   xmlns="http://www.w3.org/2000/svg"
   xmlns:svg="http://www.w3.org/2000/svg"
   xmlns:rdf="http://www.w3.org/1999/02/22-rdf-syntax-ns#"
   xmlns:cc="http://creativecommons.org/ns#"
   xmlns:dc="http://purl.org/dc/elements/1.1/">
  <metadata
     id="metadata77">
    <rdf:RDF>
      <cc:Work
         rdf:about="">
        <dc:format>image/svg+xml</dc:format>
        <dc:type
           rdf:resource="http://purl.org/dc/dcmitype/StillImage" />
      </cc:Work>
    </rdf:RDF>
  </metadata>
  <sodipodi:namedview
     pagecolor="#f5f7fa"
     bordercolor="#666666"
     borderopacity="1"
     objecttolerance="10"
     gridtolerance="10"
     guidetolerance="10"
     inkscape:pageopacity="0"
     inkscape:pageshadow="2"
     inkscape:window-width="1263"
     inkscape:window-height="693"
     id="namedview75"
     showgrid="false"
     inkscape:zoom="4.4470387"
     inkscape:cx="36.091433"
     inkscape:cy="29.682674"
     inkscape:window-x="24"
     inkscape:window-y="21"
     inkscape:window-maximized="0"
     inkscape:current-layer="svg73"
     inkscape:document-rotation="0"
     inkscape:pagecheckerboard="0"
     inkscape:showpageshadow="2"
     inkscape:deskcolor="#d1d1d1" />
  <defs
     id="defs29">
    <linearGradient
       id="linearGradient4"
       inkscape:collect="always">
      <stop
         style="stop-color:#67ac5e;stop-opacity:1;"
         offset="0"
         id="stop4" />
      <stop
         style="stop-color:#88c181;stop-opacity:1;"
         offset="0.5"
         id="stop1" />
    </linearGradient>
    <linearGradient
       id="linearGradient2"
       inkscape:collect="always">
      <stop
         style="stop-color:#edf4ec;stop-opacity:1;"
         offset="0"
         id="stop2" />
      <stop
         style="stop-color:#dae9d8;stop-opacity:1;"
         offset="1"
         id="stop3" />
    </linearGradient>
    <linearGradient
       inkscape:collect="always"
       xlink:href="#linearGradient2"
       id="linearGradient8"
       x1="31.721739"
       y1="5.2278585"
       x2="31.88887"
       y2="59.145416"
       gradientUnits="userSpaceOnUse"
       gradientTransform="matrix(0.8505,0,0,0.8505,4.7765033,4.7794869)" />
    <filter
       style="color-interpolation-filters:sRGB;"
       inkscape:label="Blur"
       id="filter9"
       x="-0.047762285"
       y="-0.047489063"
       width="1.0955246"
       height="1.0949781">
      <feGaussianBlur
         stdDeviation="1 1"
         result="blur"
         id="feGaussianBlur9" />
    </filter>
    <linearGradient
       inkscape:collect="always"
       xlink:href="#linearGradient4"
       id="linearGradient7"
       x1="26.723248"
       y1="58.711765"
       x2="25.756926"
       y2="5.950614"
       gradientUnits="userSpaceOnUse" />
    <filter
       style="color-interpolation-filters:sRGB;"
       inkscape:label="Out of Focus"
       id="filter40"
       x="-0.24226652"
       y="-0.2858297"
       width="1.484533"
       height="1.5716594">
      <feFlood
         flood-opacity="1"
         flood-color="rgb(255,255,255)"
         result="flood"
         id="feFlood38" />
      <feColorMatrix
         in="SourceGraphic"
         values="1 0 0 0 0 0 1 0 0 0 0 0 1 0 0 -0.2125 -0.7154 -0.0721 1 0 "
         result="colormatrix1"
         id="feColorMatrix38" />
      <feGaussianBlur
         in="colormatrix1"
         stdDeviation="3 3"
         result="blur"
         id="feGaussianBlur38" />
      <feColorMatrix
         in="blur"
         values="1 0 0 0 0 0 1 0 0 0 0 0 1 0 0 0 0 0 6 -2 "
         result="colormatrix2"
         id="feColorMatrix39" />
      <feBlend
         in="colormatrix2"
         in2="flood"
         mode="normal"
         result="blend"
         id="feBlend39" />
      <feComposite
         in="blend"
         in2="blend"
         operator="arithmetic"
         k2="0.2"
         result="composite1"
         id="feComposite39" />
      <feComposite
         in2="SourceGraphic"
         operator="in"
         id="feComposite40" />
    </filter>
  </defs>
  <g
     id="g877"
     transform="matrix(1.1,0,0,1.1,-3.1845928,-3.2065454)">
    <ellipse
       style="opacity:0.5;fill:#000000;stroke:none;stroke-width:3.89319;stroke-dasharray:none;stroke-opacity:1;filter:url(#filter9)"
       id="path2-5"
       cx="31.949858"
       cy="31.969812"
       rx="25.124426"
       ry="25.268976"
       transform="matrix(1.05,0,0,1.05,-1.5974929,-1.5984906)" />
    <path
       style="fill:#f5f7fa;stroke-width:0.204426;fill-opacity:1"
       d=""
       id="path3" />
    <circle
       style="opacity:1;fill:url(#linearGradient8);stroke:url(#linearGradient7);stroke-width:3.81818;stroke-dasharray:none;stroke-opacity:1"
       id="path2"
       cx="31.949856"
       cy="31.969812"
       r="24.711082" />
    <ellipse
       style="opacity:0.3;fill:none;stroke:#000000;stroke-width:0.974376;stroke-dasharray:none;stroke-opacity:1"
       id="path2-9"
       cx="31.949856"
       cy="31.969812"
       rx="23.129124"
       ry="23.129126" />
  </g>
  <path
     style="fill:#000000;fill-opacity:1;stroke:none;stroke-width:0.510565;stroke-dasharray:none;stroke-opacity:0.6;opacity:0.2"
     d="m 17.340887,18.148074 1.066051,0.823294 c -3.381404,1.60372 5.302673,8.925829 5.302673,8.925829 0,0 1.690062,-1.56505 4.166209,-1.729803 2.456063,-2.589264 12.677944,-0.618577 12.294966,1.506421 -3.436066,0.05521 -4.524296,-0.396436 -4.524296,-0.396436 0,0 0.16962,0.201269 0.239662,0.891957 -0.251118,0.212766 -3.804276,-0.606273 -4.547099,-0.547933 -2.113634,0.166186 -3.54015,0.221103 -5.056509,0.393733 1.043191,0.353913 9.355947,1.876898 12.01394,4.520274 -0.709019,0.281198 -1.0191,0.165615 -1.255844,0.255324 -0.208201,0.07878 -0.418807,0.5153 -0.875665,0.517398 -0.327343,0.0012 -0.215457,-0.298162 -0.891488,-0.626946 -4.206308,0.171937 -5.570054,-2.468163 -5.985145,-2.791909 -1.856903,-0.45593 -4.985162,-1.486874 -4.985162,-1.486874 0,0 2.648687,2.174398 4.100909,3.38125 0.12077,0.100342 2.111685,0.481054 4.642649,1.751046 1.360465,-1.145723 5.028124,0.798424 4.346632,2.578714 -0.607042,1.585778 -4.679867,-0.0483 -4.530134,-2.205479 -0.929776,-0.297874 -2.647337,-1.152108 -3.746204,-1.559642 1.053509,0.845233 5.192496,4.393016 6.02415,5.396503 3.643402,-0.460327 9.14368,0.475104 12.55556,2.724691 -0.778101,0.211325 -4.480536,0.934738 -5.222147,0.731144 -1.378029,-0.536179 -3.431856,-2.273109 -3.650692,-2.467761 -0.791563,-0.137455 -2.568201,-0.399944 -3.250655,-0.479791 0.692198,0.722576 2.978184,3.439616 3.695955,4.582547 0.297316,-0.06469 1.813638,0.310303 2.233855,0.604093 1.556772,-1.634113 4.081021,1.233242 5.632715,2.618069 -0.407638,0.851418 -6.810091,-0.458975 -5.954417,-2.366891 -0.457534,-0.06266 -1.373239,-0.579964 -1.710897,-0.607424 0.34514,0.465044 1.097906,1.09624 2.089981,2.166782 0.954255,-0.279179 4.551108,3.725326 4.647624,4.601672 -2.691626,-0.674649 -4.020983,-1.261654 -4.437706,-1.76238 -0.822511,-0.988358 -0.511108,-2.40752 -0.432746,-2.665489 -1.058459,-0.97309 -1.255657,-1.262453 -1.60185,-1.455582 -0.0087,0.01161 9.9e-4,0.299773 0.01752,0.440542 1.738735,1.3187 0.898595,4.968498 -0.101035,5.09791 -0.435055,0.05638 -1.437851,-5.149292 -0.185675,-5.343256 0.02875,-0.103224 0.04532,-0.410551 0.04694,-0.422688 -0.660817,-0.740084 -4.325623,-4.748627 -4.563938,-4.917456 0.118701,0.316334 0.313308,0.836519 0.491919,1.478671 2.1641,1.455019 2.522166,3.783153 2.359055,6.517651 -0.51898,-0.934568 -5.603178,-5.192508 -3.379571,-7.080045 0.01565,-0.291077 -0.06866,-0.951788 0.118615,-1.323182 -0.705323,-0.72499 -2.901007,-2.954827 -3.098029,-2.953012 0.245222,0.517139 0.397498,0.81237 0.519123,1.371575 1.673648,0.859322 1.187468,3.079032 0.425148,3.126153 -0.803117,0.04975 -2.582989,-2.49777 -0.908904,-3.038 -0.135241,-0.641377 -0.381215,-1.513093 -0.480384,-1.891792 -0.724342,-0.569898 -3.123259,-2.542398 -3.676844,-3.002206 0.68068,1.165219 1.345586,2.978918 1.678086,4.018836 2.005382,2.337221 1.450642,5.952514 1.247875,9.681581 -2.352828,-1.796994 -3.813584,-7.929873 -2.316972,-9.456481 -0.499611,-1.773331 -1.254766,-4.773957 -1.254766,-4.773957 -3.234927,-2.583054 -5.024653,-4.519067 -5.024653,-4.519067 0,0 2.155379,2.875266 2.400874,4.416566 1.887684,0.37651 3.46469,3.75943 1.963723,4.336748 -2.19391,0.843825 -4.548899,-2.736881 -2.677298,-4.070529 0,0 -1.657226,-3.140393 -2.940022,-5.894724 -5.059881,-5.713728 -4.573505,-7.429152 -3.055824,-7.620153 z"
     id="path8-1" />
  <path
     style="fill:#4d4d4d;fill-opacity:1;stroke:none;stroke-width:0.510565;stroke-dasharray:none;stroke-opacity:0.6"
     d="m 17.340887,16.148074 1.066051,0.823294 c -3.381404,1.60372 5.302673,8.925829 5.302673,8.925829 0,0 1.690062,-1.56505 4.166209,-1.729803 2.456063,-2.589264 12.677944,-0.618577 12.294966,1.506421 -3.436066,0.05521 -4.524296,-0.396436 -4.524296,-0.396436 0,0 0.16962,0.201269 0.239662,0.891957 -0.251118,0.212766 -3.804276,-0.606273 -4.547099,-0.547933 -2.113634,0.166186 -3.54015,0.221103 -5.056509,0.393733 1.043191,0.353913 9.355947,1.876898 12.01394,4.520274 -0.709019,0.281198 -1.0191,0.165615 -1.255844,0.255324 -0.208201,0.07878 -0.418807,0.5153 -0.875665,0.517398 -0.327343,0.0012 -0.215457,-0.298162 -0.891488,-0.626946 -4.206308,0.171937 -5.570054,-2.468163 -5.985145,-2.791909 -1.856903,-0.45593 -4.985162,-1.486874 -4.985162,-1.486874 0,0 2.648687,2.174398 4.100909,3.38125 0.12077,0.100342 2.111685,0.481054 4.642649,1.751046 1.360465,-1.145723 5.028124,0.798424 4.346632,2.578714 -0.607042,1.585778 -4.679867,-0.0483 -4.530134,-2.205479 -0.929776,-0.297874 -2.647337,-1.152108 -3.746204,-1.559642 1.053509,0.845233 5.192496,4.393016 6.02415,5.396503 3.643402,-0.460327 9.14368,0.475104 12.55556,2.724691 -0.778101,0.211325 -4.480536,0.934738 -5.222147,0.731144 -1.378029,-0.536179 -3.431856,-2.273109 -3.650692,-2.467761 -0.791563,-0.137455 -2.568201,-0.399944 -3.250655,-0.479791 0.692198,0.722576 2.978184,3.439616 3.695955,4.582547 0.297316,-0.06469 1.813638,0.310303 2.233855,0.604093 1.556772,-1.634113 4.081021,1.233242 5.632715,2.618069 -0.407638,0.851418 -6.810091,-0.458975 -5.954417,-2.366891 -0.457534,-0.06266 -1.373239,-0.579964 -1.710897,-0.607424 0.34514,0.465044 1.097906,1.09624 2.089981,2.166782 0.954255,-0.279179 4.551108,3.725326 4.647624,4.601672 -2.691626,-0.674649 -4.020983,-1.261654 -4.437706,-1.76238 -0.822511,-0.988358 -0.511108,-2.40752 -0.432746,-2.665489 -1.058459,-0.97309 -1.255657,-1.262453 -1.60185,-1.455582 -0.0087,0.01161 9.9e-4,0.299773 0.01752,0.440542 1.738735,1.3187 0.898595,4.968498 -0.101035,5.09791 -0.435055,0.05638 -1.437851,-5.149292 -0.185675,-5.343256 0.02875,-0.103224 0.04532,-0.410551 0.04694,-0.422688 -0.660817,-0.740084 -4.325623,-4.748627 -4.563938,-4.917456 0.118701,0.316334 0.313308,0.836519 0.491919,1.478671 2.1641,1.455019 2.522166,3.783153 2.359055,6.517651 -0.51898,-0.934568 -5.603178,-5.192508 -3.379571,-7.080045 0.01565,-0.291077 -0.06866,-0.951788 0.118615,-1.323182 -0.705323,-0.72499 -2.901007,-2.954827 -3.098029,-2.953012 0.245222,0.517139 0.397498,0.81237 0.519123,1.371575 1.673648,0.859322 1.187468,3.079032 0.425148,3.126153 -0.803117,0.04975 -2.582989,-2.49777 -0.908904,-3.038 -0.135241,-0.641377 -0.381215,-1.513093 -0.480384,-1.891792 -0.724342,-0.569898 -3.123259,-2.542398 -3.676844,-3.002206 0.68068,1.165219 1.345586,2.978918 1.678086,4.018836 2.005382,2.337221 1.450642,5.952514 1.247875,9.681581 -2.352828,-1.796994 -3.813584,-7.929873 -2.316972,-9.456481 -0.499611,-1.773331 -1.254766,-4.773957 -1.254766,-4.773957 -3.234927,-2.583054 -5.024653,-4.519067 -5.024653,-4.519067 0,0 2.155379,2.875266 2.400874,4.416566 1.887684,0.37651 3.46469,3.75943 1.963723,4.336748 -2.19391,0.843825 -4.548899,-2.736881 -2.677298,-4.070529 0,0 -1.657226,-3.140393 -2.940022,-5.894724 -5.059881,-5.713728 -4.573505,-7.429152 -3.055824,-7.620153 z"
     id="path8" />
</svg>
