<?xml version="1.0" encoding="UTF-8" standalone="no"?>
<svg
   width="64"
   height="64"
   version="1.1"
   id="svg73"
   sodipodi:docname="abcd.svg"
   inkscape:version="1.4.2 (ebf0e940d0, 2025-05-08)"
   xmlns:inkscape="http://www.inkscape.org/namespaces/inkscape"
   xmlns:sodipodi="http://sodipodi.sourceforge.net/DTD/sodipodi-0.dtd"
   xmlns:xlink="http://www.w3.org/1999/xlink"
   xmlns="http://www.w3.org/2000/svg"
   xmlns:svg="http://www.w3.org/2000/svg"
   xmlns:rdf="http://www.w3.org/1999/02/22-rdf-syntax-ns#"
   xmlns:cc="http://creativecommons.org/ns#"
   xmlns:dc="http://purl.org/dc/elements/1.1/">
  <metadata
     id="metadata77">
    <rdf:RDF>
      <cc:Work
         rdf:about="">
        <dc:format>image/svg+xml</dc:format>
        <dc:type
           rdf:resource="http://purl.org/dc/dcmitype/StillImage" />
      </cc:Work>
    </rdf:RDF>
  </metadata>
  <sodipodi:namedview
     pagecolor="#f5f7fa"
     bordercolor="#666666"
     borderopacity="1"
     objecttolerance="10"
     gridtolerance="10"
     guidetolerance="10"
     inkscape:pageopacity="0"
     inkscape:pageshadow="2"
     inkscape:window-width="1345"
     inkscape:window-height="785"
     id="namedview75"
     showgrid="false"
     inkscape:zoom="6.2890624"
     inkscape:cx="31.880746"
     inkscape:cy="29.734162"
     inkscape:window-x="24"
     inkscape:window-y="21"
     inkscape:window-maximized="0"
     inkscape:current-layer="svg73"
     inkscape:document-rotation="0"
     inkscape:pagecheckerboard="0"
     inkscape:showpageshadow="2"
     inkscape:deskcolor="#d1d1d1" />
  <defs
     id="defs29">
    <linearGradient
       id="linearGradient4"
       inkscape:collect="always">
      <stop
         style="stop-color:#67ac5e;stop-opacity:1;"
         offset="0"
         id="stop4" />
      <stop
         style="stop-color:#88c181;stop-opacity:1;"
         offset="0.5"
         id="stop1" />
    </linearGradient>
    <linearGradient
       id="linearGradient2"
       inkscape:collect="always">
      <stop
         style="stop-color:#edf4ec;stop-opacity:1;"
         offset="0"
         id="stop2" />
      <stop
         style="stop-color:#dae9d8;stop-opacity:1;"
         offset="1"
         id="stop3" />
    </linearGradient>
    <linearGradient
       inkscape:collect="always"
       xlink:href="#linearGradient2"
       id="linearGradient8"
       x1="31.721739"
       y1="5.2278585"
       x2="31.88887"
       y2="59.145416"
       gradientUnits="userSpaceOnUse"
       gradientTransform="matrix(0.8505,0,0,0.8505,4.7765033,4.7794869)" />
    <filter
       style="color-interpolation-filters:sRGB;"
       inkscape:label="Blur"
       id="filter9"
       x="-0.047762285"
       y="-0.047489063"
       width="1.0955246"
       height="1.0949781">
      <feGaussianBlur
         stdDeviation="1 1"
         result="blur"
         id="feGaussianBlur9" />
    </filter>
    <linearGradient
       inkscape:collect="always"
       xlink:href="#linearGradient4"
       id="linearGradient7"
       x1="26.723248"
       y1="58.711765"
       x2="25.756926"
       y2="5.950614"
       gradientUnits="userSpaceOnUse" />
    <filter
       style="color-interpolation-filters:sRGB;"
       inkscape:label="Out of Focus"
       id="filter40"
       x="-0.24226652"
       y="-0.2858297"
       width="1.484533"
       height="1.5716594">
      <feFlood
         flood-opacity="1"
         flood-color="rgb(255,255,255)"
         result="flood"
         id="feFlood38" />
      <feColorMatrix
         in="SourceGraphic"
         values="1 0 0 0 0 0 1 0 0 0 0 0 1 0 0 -0.2125 -0.7154 -0.0721 1 0 "
         result="colormatrix1"
         id="feColorMatrix38" />
      <feGaussianBlur
         in="colormatrix1"
         stdDeviation="3 3"
         result="blur"
         id="feGaussianBlur38" />
      <feColorMatrix
         in="blur"
         values="1 0 0 0 0 0 1 0 0 0 0 0 1 0 0 0 0 0 6 -2 "
         result="colormatrix2"
         id="feColorMatrix39" />
      <feBlend
         in="colormatrix2"
         in2="flood"
         mode="normal"
         result="blend"
         id="feBlend39" />
      <feComposite
         in="blend"
         in2="blend"
         operator="arithmetic"
         k2="0.2"
         result="composite1"
         id="feComposite39" />
      <feComposite
         in2="SourceGraphic"
         operator="in"
         id="feComposite40" />
    </filter>
  </defs>
  <g
     id="g877"
     transform="matrix(1.1,0,0,1.1,-3.1845928,-3.2065454)">
    <ellipse
       style="opacity:0.5;fill:#000000;stroke:none;stroke-width:3.89319;stroke-dasharray:none;stroke-opacity:1;filter:url(#filter9)"
       id="path2-5"
       cx="31.949858"
       cy="31.969812"
       rx="25.124426"
       ry="25.268976"
       transform="matrix(1.05,0,0,1.05,-1.5974929,-1.5984906)" />
    <path
       style="fill:#f5f7fa;stroke-width:0.204426;fill-opacity:1"
       d=""
       id="path3" />
    <circle
       style="opacity:1;fill:url(#linearGradient8);stroke:url(#linearGradient7);stroke-width:3.81818;stroke-dasharray:none;stroke-opacity:1"
       id="path2"
       cx="31.949856"
       cy="31.969812"
       r="24.711082" />
    <ellipse
       style="opacity:0.3;fill:none;stroke:#000000;stroke-width:0.974376;stroke-dasharray:none;stroke-opacity:1"
       id="path2-9"
       cx="31.949856"
       cy="31.969812"
       rx="23.129124"
       ry="23.129126" />
  </g>
  <path
     id="path1320-7"
     style="fill:#000000;fill-opacity:1;stroke-width:0.153848;stroke-opacity:0.3;opacity:0.2"
     d="m 36.012822,18.433012 c -2.384575,0 -2.50678,0.01572 -3.922621,0.506063 -0.803847,0.278398 -1.751993,0.676326 -2.106901,0.883704 l -0.645929,0.376367 -1.431725,-0.250489 c -2.462315,-0.430323 -5.512833,-0.09151 -7.931705,0.881161 -1.146943,0.461208 -1.07714,0.745826 0.288635,1.176149 1.433907,0.451792 2.659106,1.209939 3.650515,2.25821 l 0.802326,0.8481 -0.291176,0.57981 c -0.746512,1.486881 -1.258787,3.770046 -1.25117,5.580675 0.01223,2.909429 1.259577,6.196855 3.139369,8.277557 l 0.55438,0.615414 8.957817,-8.995964 c 4.926651,-4.947375 8.977246,-9.048655 9.001048,-9.114213 0.07614,-0.209737 -1.254749,-1.326557 -2.358658,-1.979748 -0.588005,-0.347926 -1.726468,-0.860251 -2.530315,-1.138004 -1.414745,-0.488837 -1.541162,-0.504792 -3.92389,-0.504792 z m 0.862084,3.514466 c 0.220057,-6.07e-4 0.423876,0.0236 0.603972,0.07756 1.720354,0.515432 0.718835,2.801601 -1.762319,4.02307 -1.487678,0.73238 -3.045359,0.769485 -3.509381,0.08393 -0.187889,-0.2776 -0.131751,-1.15452 0.102993,-1.608464 0.680456,-1.315855 3.024343,-2.571849 4.564734,-2.576088 z m 5.599748,10.366655 -1.384678,1.0668 c -5.062603,3.900603 -11.989019,8.414323 -17.76941,11.580949 -0.973075,0.533074 -1.782435,0.979817 -1.79919,0.991782 -0.01676,0.01197 0.367038,0.343959 0.853185,0.737478 1.609386,1.302749 3.994768,2.400077 5.906183,2.718497 4.472354,0.745042 9.449293,-1.2074 12.136602,-4.761818 1.175209,-1.554416 1.567811,-2.277894 2.164116,-3.990014 0.498845,-1.432439 0.50796,-1.512262 0.498435,-4.000182 -0.008,-2.079424 -0.06355,-2.701335 -0.307707,-3.440717 z" />
  <path
     id="path1320"
     style="fill:#4d4d4d;fill-opacity:1;stroke-width:0.153848;stroke-opacity:0.3"
     d="m 36.012822,16.433012 c -2.384575,0 -2.50678,0.01572 -3.922621,0.506063 -0.803847,0.278398 -1.751993,0.676326 -2.106901,0.883704 l -0.645929,0.376367 -1.431725,-0.250489 c -2.462315,-0.430323 -5.512833,-0.09151 -7.931705,0.881161 -1.146943,0.461208 -1.07714,0.745826 0.288635,1.176149 1.433907,0.451792 2.659106,1.209939 3.650515,2.25821 l 0.802326,0.8481 -0.291176,0.57981 c -0.746512,1.486881 -1.258787,3.770046 -1.25117,5.580675 0.01223,2.909429 1.259577,6.196855 3.139369,8.277557 l 0.55438,0.615414 8.957817,-8.995964 c 4.926651,-4.947375 8.977246,-9.048655 9.001048,-9.114213 0.07614,-0.209737 -1.254749,-1.326557 -2.358658,-1.979748 -0.588005,-0.347926 -1.726468,-0.860251 -2.530315,-1.138004 -1.414745,-0.488837 -1.541162,-0.504792 -3.92389,-0.504792 z m 0.862084,3.514466 c 0.220057,-6.07e-4 0.423876,0.0236 0.603972,0.07756 1.720354,0.515432 0.718835,2.801601 -1.762319,4.02307 -1.487678,0.73238 -3.045359,0.769485 -3.509381,0.08393 -0.187889,-0.2776 -0.131751,-1.15452 0.102993,-1.608464 0.680456,-1.315855 3.024343,-2.571849 4.564734,-2.576088 z m 5.599748,10.366655 -1.384678,1.0668 c -5.062603,3.900603 -11.989019,8.414323 -17.76941,11.580949 -0.973075,0.533074 -1.782435,0.979817 -1.79919,0.991782 -0.01676,0.01197 0.367038,0.343959 0.853185,0.737478 1.609386,1.302749 3.994768,2.400077 5.906183,2.718497 4.472354,0.745042 9.449293,-1.2074 12.136602,-4.761818 1.175209,-1.554416 1.567811,-2.277894 2.164116,-3.990014 0.498845,-1.432439 0.50796,-1.512262 0.498435,-4.000182 -0.008,-2.079424 -0.06355,-2.701335 -0.307707,-3.440717 z" />
</svg>
