<?xml version="1.0" encoding="UTF-8" standalone="no"?>
<svg
   width="64"
   height="64"
   version="1.1"
   id="svg73"
   sodipodi:docname="abcd.svg"
   inkscape:version="1.4.2 (ebf0e940d0, 2025-05-08)"
   xmlns:inkscape="http://www.inkscape.org/namespaces/inkscape"
   xmlns:sodipodi="http://sodipodi.sourceforge.net/DTD/sodipodi-0.dtd"
   xmlns:xlink="http://www.w3.org/1999/xlink"
   xmlns="http://www.w3.org/2000/svg"
   xmlns:svg="http://www.w3.org/2000/svg"
   xmlns:rdf="http://www.w3.org/1999/02/22-rdf-syntax-ns#"
   xmlns:cc="http://creativecommons.org/ns#"
   xmlns:dc="http://purl.org/dc/elements/1.1/">
  <metadata
     id="metadata77">
    <rdf:RDF>
      <cc:Work
         rdf:about="">
        <dc:format>image/svg+xml</dc:format>
        <dc:type
           rdf:resource="http://purl.org/dc/dcmitype/StillImage" />
      </cc:Work>
    </rdf:RDF>
  </metadata>
  <sodipodi:namedview
     pagecolor="#f5f7fa"
     bordercolor="#666666"
     borderopacity="1"
     objecttolerance="10"
     gridtolerance="10"
     guidetolerance="10"
     inkscape:pageopacity="0"
     inkscape:pageshadow="2"
     inkscape:window-width="1261"
     inkscape:window-height="714"
     id="namedview75"
     showgrid="false"
     inkscape:zoom="6.2890624"
     inkscape:cx="32.516771"
     inkscape:cy="29.654659"
     inkscape:window-x="24"
     inkscape:window-y="21"
     inkscape:window-maximized="0"
     inkscape:current-layer="svg73"
     inkscape:document-rotation="0"
     inkscape:pagecheckerboard="0"
     inkscape:showpageshadow="2"
     inkscape:deskcolor="#d1d1d1" />
  <defs
     id="defs29">
    <linearGradient
       id="linearGradient4"
       inkscape:collect="always">
      <stop
         style="stop-color:#67ac5e;stop-opacity:1;"
         offset="0"
         id="stop4" />
      <stop
         style="stop-color:#88c181;stop-opacity:1;"
         offset="0.5"
         id="stop1" />
    </linearGradient>
    <linearGradient
       id="linearGradient2"
       inkscape:collect="always">
      <stop
         style="stop-color:#edf4ec;stop-opacity:1;"
         offset="0"
         id="stop2" />
      <stop
         style="stop-color:#dae9d8;stop-opacity:1;"
         offset="1"
         id="stop3" />
    </linearGradient>
    <linearGradient
       inkscape:collect="always"
       xlink:href="#linearGradient2"
       id="linearGradient8"
       x1="31.721739"
       y1="5.2278585"
       x2="31.88887"
       y2="59.145416"
       gradientUnits="userSpaceOnUse"
       gradientTransform="matrix(0.8505,0,0,0.8505,4.7765033,4.7794869)" />
    <filter
       style="color-interpolation-filters:sRGB;"
       inkscape:label="Blur"
       id="filter9"
       x="-0.047762285"
       y="-0.047489063"
       width="1.0955246"
       height="1.0949781">
      <feGaussianBlur
         stdDeviation="1 1"
         result="blur"
         id="feGaussianBlur9" />
    </filter>
    <linearGradient
       inkscape:collect="always"
       xlink:href="#linearGradient4"
       id="linearGradient7"
       x1="26.723248"
       y1="58.711765"
       x2="25.756926"
       y2="5.950614"
       gradientUnits="userSpaceOnUse" />
    <filter
       style="color-interpolation-filters:sRGB;"
       inkscape:label="Out of Focus"
       id="filter40"
       x="-0.24226652"
       y="-0.2858297"
       width="1.484533"
       height="1.5716594">
      <feFlood
         flood-opacity="1"
         flood-color="rgb(255,255,255)"
         result="flood"
         id="feFlood38" />
      <feColorMatrix
         in="SourceGraphic"
         values="1 0 0 0 0 0 1 0 0 0 0 0 1 0 0 -0.2125 -0.7154 -0.0721 1 0 "
         result="colormatrix1"
         id="feColorMatrix38" />
      <feGaussianBlur
         in="colormatrix1"
         stdDeviation="3 3"
         result="blur"
         id="feGaussianBlur38" />
      <feColorMatrix
         in="blur"
         values="1 0 0 0 0 0 1 0 0 0 0 0 1 0 0 0 0 0 6 -2 "
         result="colormatrix2"
         id="feColorMatrix39" />
      <feBlend
         in="colormatrix2"
         in2="flood"
         mode="normal"
         result="blend"
         id="feBlend39" />
      <feComposite
         in="blend"
         in2="blend"
         operator="arithmetic"
         k2="0.2"
         result="composite1"
         id="feComposite39" />
      <feComposite
         in2="SourceGraphic"
         operator="in"
         id="feComposite40" />
    </filter>
  </defs>
  <g
     id="g877"
     transform="matrix(1.1,0,0,1.1,-3.1845928,-3.2065454)">
    <ellipse
       style="opacity:0.5;fill:#000000;stroke:none;stroke-width:3.89319;stroke-dasharray:none;stroke-opacity:1;filter:url(#filter9)"
       id="path2-5"
       cx="31.949858"
       cy="31.969812"
       rx="25.124426"
       ry="25.268976"
       transform="matrix(1.05,0,0,1.05,-1.5974929,-1.5984906)" />
    <path
       style="fill:#f5f7fa;stroke-width:0.204426;fill-opacity:1"
       d=""
       id="path3" />
    <circle
       style="opacity:1;fill:url(#linearGradient8);stroke:url(#linearGradient7);stroke-width:3.81818;stroke-dasharray:none;stroke-opacity:1"
       id="path2"
       cx="31.949856"
       cy="31.969812"
       r="24.711082" />
    <ellipse
       style="opacity:0.3;fill:none;stroke:#000000;stroke-width:0.974376;stroke-dasharray:none;stroke-opacity:1"
       id="path2-9"
       cx="31.949856"
       cy="31.969812"
       rx="23.129124"
       ry="23.129126" />
  </g>
  <path
     id="path58-3"
     style="fill:#000000;fill-opacity:1;stroke:none;stroke-width:0.511726;stroke-dasharray:none;stroke-dashoffset:2.2;stroke-opacity:0.6;opacity:0.2"
     d="m 31.917731,18.581387 c -0.864461,0 -1.019657,0.03167 -1.656911,0.345414 -0.908151,0.447108 -1.710131,1.300113 -1.93576,2.059893 -0.136123,0.458411 -0.160913,1.531978 -0.165506,6.949669 l -0.0056,6.408155 -5.49245,4.846598 c -5.209565,4.597154 -5.511202,4.881518 -5.823475,5.515838 -0.89594,1.819909 0.132016,3.896194 2.257788,4.560547 1.039286,0.324825 2.544566,0.11 3.437953,-0.491133 0.249476,-0.167883 2.458645,-2.079478 4.907767,-4.247522 2.449117,-2.16804 4.485286,-3.954917 4.524571,-3.970466 0.03926,-0.01548 2.138466,1.80656 4.666693,4.047821 5.392906,4.780817 5.367149,4.762049 7.028824,4.762049 0.970153,0 1.120225,-0.02954 1.764854,-0.334637 0.805952,-0.381834 1.447141,-0.989223 1.800839,-1.70728 0.359475,-0.729862 0.3429,-1.887608 -0.03793,-2.614 -0.349864,-0.667606 -0.600894,-0.903438 -6.456734,-6.071734 l -4.835457,-4.269097 -0.03596,-6.519695 c -0.02748,-5.030845 -0.06621,-6.606155 -0.172768,-6.893895 -0.221585,-0.598339 -0.668543,-1.181183 -1.232334,-1.608338 -0.756572,-0.57321 -1.402923,-0.768187 -2.538441,-0.768187 z m 0.01067,15.147862 c 1.62451,-0.100639 3.164766,1.215318 2.975621,3.061955 -0.101277,0.988744 -0.719709,1.828819 -1.660508,2.254188 -1.884682,0.852131 -4.096837,-0.74726 -3.884121,-2.808288 0.06977,-0.676009 0.521089,-1.553936 0.976882,-1.901582 0.499398,-0.38091 1.050643,-0.572719 1.592141,-0.606273 z" />
  <path
     id="path58"
     style="fill:#4d4d4d;fill-opacity:1;stroke:none;stroke-width:0.511726;stroke-dasharray:none;stroke-dashoffset:2.2;stroke-opacity:0.6"
     d="m 31.917731,16.581387 c -0.864461,0 -1.019657,0.03167 -1.656911,0.345414 -0.908151,0.447108 -1.710131,1.300113 -1.93576,2.059893 -0.136123,0.458411 -0.160913,1.531978 -0.165506,6.949669 l -0.0056,6.408155 -5.49245,4.846598 c -5.209565,4.597154 -5.511202,4.881518 -5.823475,5.515838 -0.89594,1.819909 0.132016,3.896194 2.257788,4.560547 1.039286,0.324825 2.544566,0.11 3.437953,-0.491133 0.249476,-0.167883 2.458645,-2.079478 4.907767,-4.247522 2.449117,-2.16804 4.485286,-3.954917 4.524571,-3.970466 0.03926,-0.01548 2.138466,1.80656 4.666693,4.047821 5.392906,4.780817 5.367149,4.762049 7.028824,4.762049 0.970153,0 1.120225,-0.02954 1.764854,-0.334637 0.805952,-0.381834 1.447141,-0.989223 1.800839,-1.70728 0.359475,-0.729862 0.3429,-1.887608 -0.03793,-2.614 -0.349864,-0.667606 -0.600894,-0.903438 -6.456734,-6.071734 l -4.835457,-4.269097 -0.03596,-6.519695 c -0.02748,-5.030845 -0.06621,-6.606155 -0.172768,-6.893895 -0.221585,-0.598339 -0.668543,-1.181183 -1.232334,-1.608338 -0.756572,-0.57321 -1.402923,-0.768187 -2.538441,-0.768187 z m 0.01067,15.147862 c 1.62451,-0.100639 3.164766,1.215318 2.975621,3.061955 -0.101277,0.988744 -0.719709,1.828819 -1.660508,2.254188 -1.884682,0.852131 -4.096837,-0.74726 -3.884121,-2.808288 0.06977,-0.676009 0.521089,-1.553936 0.976882,-1.901582 0.499398,-0.38091 1.050643,-0.572719 1.592141,-0.606273 z" />
</svg>
