<?xml version="1.0" encoding="UTF-8" standalone="no"?>
<svg
   width="64"
   height="64"
   version="1.1"
   id="svg73"
   sodipodi:docname="1password.svg"
   inkscape:version="1.4.2 (ebf0e940d0, 2025-05-08)"
   xmlns:inkscape="http://www.inkscape.org/namespaces/inkscape"
   xmlns:sodipodi="http://sodipodi.sourceforge.net/DTD/sodipodi-0.dtd"
   xmlns:xlink="http://www.w3.org/1999/xlink"
   xmlns="http://www.w3.org/2000/svg"
   xmlns:svg="http://www.w3.org/2000/svg"
   xmlns:rdf="http://www.w3.org/1999/02/22-rdf-syntax-ns#"
   xmlns:cc="http://creativecommons.org/ns#"
   xmlns:dc="http://purl.org/dc/elements/1.1/">
  <metadata
     id="metadata77">
    <rdf:RDF>
      <cc:Work
         rdf:about="">
        <dc:format>image/svg+xml</dc:format>
        <dc:type
           rdf:resource="http://purl.org/dc/dcmitype/StillImage" />
      </cc:Work>
    </rdf:RDF>
  </metadata>
  <sodipodi:namedview
     pagecolor="#f5f7fa"
     bordercolor="#666666"
     borderopacity="1"
     objecttolerance="10"
     gridtolerance="10"
     guidetolerance="10"
     inkscape:pageopacity="0"
     inkscape:pageshadow="2"
     inkscape:window-width="1414"
     inkscape:window-height="797"
     id="namedview75"
     showgrid="false"
     inkscape:zoom="6.2890624"
     inkscape:cx="34.345342"
     inkscape:cy="29.734162"
     inkscape:window-x="24"
     inkscape:window-y="21"
     inkscape:window-maximized="0"
     inkscape:current-layer="svg73"
     inkscape:document-rotation="0"
     inkscape:pagecheckerboard="0"
     inkscape:showpageshadow="2"
     inkscape:deskcolor="#d1d1d1" />
  <defs
     id="defs29">
    <linearGradient
       id="linearGradient4"
       inkscape:collect="always">
      <stop
         style="stop-color:#67ac5e;stop-opacity:1;"
         offset="0"
         id="stop4" />
      <stop
         style="stop-color:#88c181;stop-opacity:1;"
         offset="0.5"
         id="stop1" />
    </linearGradient>
    <linearGradient
       id="linearGradient2"
       inkscape:collect="always">
      <stop
         style="stop-color:#edf4ec;stop-opacity:1;"
         offset="0"
         id="stop2" />
      <stop
         style="stop-color:#dae9d8;stop-opacity:1;"
         offset="1"
         id="stop3" />
    </linearGradient>
    <linearGradient
       inkscape:collect="always"
       xlink:href="#linearGradient2"
       id="linearGradient8"
       x1="31.721739"
       y1="5.2278585"
       x2="31.88887"
       y2="59.145416"
       gradientUnits="userSpaceOnUse"
       gradientTransform="matrix(0.8505,0,0,0.8505,4.7765033,4.7794869)" />
    <filter
       style="color-interpolation-filters:sRGB;"
       inkscape:label="Blur"
       id="filter9"
       x="-0.047762285"
       y="-0.047489063"
       width="1.0955246"
       height="1.0949781">
      <feGaussianBlur
         stdDeviation="1 1"
         result="blur"
         id="feGaussianBlur9" />
    </filter>
    <linearGradient
       inkscape:collect="always"
       xlink:href="#linearGradient4"
       id="linearGradient7"
       x1="26.723248"
       y1="58.711765"
       x2="25.756926"
       y2="5.950614"
       gradientUnits="userSpaceOnUse" />
    <filter
       style="color-interpolation-filters:sRGB;"
       inkscape:label="Out of Focus"
       id="filter40"
       x="-0.24226652"
       y="-0.2858297"
       width="1.484533"
       height="1.5716594">
      <feFlood
         flood-opacity="1"
         flood-color="rgb(255,255,255)"
         result="flood"
         id="feFlood38" />
      <feColorMatrix
         in="SourceGraphic"
         values="1 0 0 0 0 0 1 0 0 0 0 0 1 0 0 -0.2125 -0.7154 -0.0721 1 0 "
         result="colormatrix1"
         id="feColorMatrix38" />
      <feGaussianBlur
         in="colormatrix1"
         stdDeviation="3 3"
         result="blur"
         id="feGaussianBlur38" />
      <feColorMatrix
         in="blur"
         values="1 0 0 0 0 0 1 0 0 0 0 0 1 0 0 0 0 0 6 -2 "
         result="colormatrix2"
         id="feColorMatrix39" />
      <feBlend
         in="colormatrix2"
         in2="flood"
         mode="normal"
         result="blend"
         id="feBlend39" />
      <feComposite
         in="blend"
         in2="blend"
         operator="arithmetic"
         k2="0.2"
         result="composite1"
         id="feComposite39" />
      <feComposite
         in2="SourceGraphic"
         operator="in"
         id="feComposite40" />
    </filter>
  </defs>
  <g
     id="g877"
     transform="matrix(1.1,0,0,1.1,-3.1845928,-3.2065454)">
    <ellipse
       style="opacity:0.5;fill:#000000;stroke:none;stroke-width:3.89319;stroke-dasharray:none;stroke-opacity:1;filter:url(#filter9)"
       id="path2-5"
       cx="31.949858"
       cy="31.969812"
       rx="25.124426"
       ry="25.268976"
       transform="matrix(1.05,0,0,1.05,-1.5974929,-1.5984906)" />
    <path
       style="fill:#f5f7fa;stroke-width:0.204426;fill-opacity:1"
       d=""
       id="path3" />
    <circle
       style="opacity:1;fill:url(#linearGradient8);stroke:url(#linearGradient7);stroke-width:3.81818;stroke-dasharray:none;stroke-opacity:1"
       id="path2"
       cx="31.949856"
       cy="31.969812"
       r="24.711082" />
    <ellipse
       style="opacity:0.3;fill:none;stroke:#000000;stroke-width:0.974376;stroke-dasharray:none;stroke-opacity:1"
       id="path2-9"
       cx="31.949856"
       cy="31.969812"
       rx="23.129124"
       ry="23.129126" />
  </g>
  <path
     style="fill:#000000;fill-opacity:1;stroke:none;stroke-width:0.487357;stroke-dasharray:none;stroke-opacity:0.6;opacity:0.2"
     d="m 21.340043,49.16657 c -1.631822,-0.190059 -3.000465,-1.382542 -3.47092,-3.02418 -0.09969,-0.34785 -0.111534,-0.962541 -0.131112,-6.803331 l -0.02153,-6.42093 H 31.998488 46.28049 l -0.02042,6.42093 c -0.02411,7.161377 0.0054,6.689888 -0.477917,7.663686 -0.327945,0.660769 -1.076571,1.409406 -1.737333,1.737343 -0.645366,0.320376 -1.09258,0.423031 -2.053187,0.471655 l -0.811429,0.04112 -0.01741,-3.371555 -0.01741,-3.371563 -0.147394,-0.299246 C 40.809754,41.828542 40.424263,41.443083 40.042373,41.254961 L 39.743161,41.1076 32.098206,41.090528 c -8.784655,-0.01945 -8.021606,-0.07074 -8.675752,0.584539 -0.622373,0.623416 -0.600434,0.46676 -0.600434,4.287002 v 3.270815 l -0.525783,-0.008 c -0.289185,-0.005 -0.71909,-0.03082 -0.955359,-0.0583 z m 17.36661,-11.311093 c 0.308924,-0.209874 0.429799,-0.455212 0.42951,-0.871309 -4.34e-4,-0.626275 -0.385544,-1.006459 -1.019462,-1.006459 -0.633925,0 -1.019024,0.380181 -1.019458,1.006459 -4.33e-4,0.641702 0.385393,1.032464 1.019458,1.032464 0.272353,0 0.406868,-0.03681 0.589965,-0.161166 z m 4.047083,0.034 c 0.310967,-0.189619 0.460999,-0.480052 0.460999,-0.892583 0,-0.639657 -0.379562,-1.019227 -1.019223,-1.019227 -0.639659,0 -1.019221,0.379571 -1.019221,1.019227 0,0.639654 0.379562,1.019221 1.019221,1.019221 0.237654,0 0.417429,-0.04085 0.558232,-0.126639 z M 23.840881,47.70379 v -1.529543 h 8.157608 8.157619 v 1.529543 1.529562 H 31.998489 23.840881 Z M 17.739609,30.066146 c 0.03689,-2.040401 0.07049,-2.257326 0.476325,-3.075038 0.327757,-0.66039 1.076444,-1.409213 1.737341,-1.737646 0.782986,-0.389112 1.13916,-0.453873 2.517387,-0.457703 1.120529,-0.0033 1.229917,0.0068 1.465816,0.133466 0.558512,0.299794 0.81701,0.694293 0.891738,1.360846 0.05796,0.516887 0.172698,0.800608 0.433917,1.072937 0.442761,0.461579 -0.400462,0.421149 9.540536,0.457362 l 8.954245,0.03267 0.377288,0.14295 c 0.535663,0.202957 0.86701,0.41084 1.213448,0.76135 0.615974,0.623206 0.843049,1.214247 0.903911,2.352847 l 0.04193,0.78829 H 32.000127 17.706507 Z m 8.885303,-3.360082 c -0.450481,-0.157843 -0.680897,-0.477678 -0.680897,-0.945126 0,-0.327855 0.188718,-0.650086 0.478206,-0.816565 0.105039,-0.06042 2.499637,-0.918208 5.321346,-1.906232 2.821701,-0.988026 6.76406,-2.368421 8.760778,-3.06755 3.967672,-1.389226 3.898786,-1.372791 4.30864,-1.027922 0.507977,0.427431 0.510527,1.181107 0.005,1.540917 -0.100892,0.0718 -1.34167,0.53587 -2.757342,1.031225 -1.415738,0.495355 -3.663822,1.281982 -4.995809,1.748066 -8.200166,2.869307 -9.89491,3.458848 -10.037834,3.49174 -0.08761,0.02023 -0.268774,-0.002 -0.402537,-0.04858 z"
     id="path1-3-4" />
  <path
     style="fill:#4d4d4d;fill-opacity:1;stroke:none;stroke-width:0.487357;stroke-dasharray:none;stroke-opacity:0.6"
     d="m 21.340043,47.16657 c -1.631822,-0.190059 -3.000465,-1.382542 -3.47092,-3.02418 -0.09969,-0.34785 -0.111534,-0.962541 -0.131112,-6.803331 l -0.02153,-6.42093 H 31.998488 46.28049 l -0.02042,6.42093 c -0.02411,7.161377 0.0054,6.689888 -0.477917,7.663686 -0.327945,0.660769 -1.076571,1.409406 -1.737333,1.737343 -0.645366,0.320376 -1.09258,0.423031 -2.053187,0.471655 l -0.811429,0.04112 -0.01741,-3.371555 -0.01741,-3.371563 -0.147394,-0.299246 C 40.809754,39.828542 40.424263,39.443083 40.042373,39.254961 L 39.743161,39.1076 32.098206,39.090528 c -8.784655,-0.01945 -8.021606,-0.07074 -8.675752,0.584539 -0.622373,0.623416 -0.600434,0.46676 -0.600434,4.287002 v 3.270815 l -0.525783,-0.008 c -0.289185,-0.005 -0.71909,-0.03082 -0.955359,-0.0583 z m 17.36661,-11.311093 c 0.308924,-0.209874 0.429799,-0.455212 0.42951,-0.871309 -4.34e-4,-0.626275 -0.385544,-1.006459 -1.019462,-1.006459 -0.633925,0 -1.019024,0.380181 -1.019458,1.006459 -4.33e-4,0.641702 0.385393,1.032464 1.019458,1.032464 0.272353,0 0.406868,-0.03681 0.589965,-0.161166 z m 4.047083,0.034 c 0.310967,-0.189619 0.460999,-0.480052 0.460999,-0.892583 0,-0.639657 -0.379562,-1.019227 -1.019223,-1.019227 -0.639659,0 -1.019221,0.379571 -1.019221,1.019227 0,0.639654 0.379562,1.019221 1.019221,1.019221 0.237654,0 0.417429,-0.04085 0.558232,-0.126639 z M 23.840881,45.70379 v -1.529543 h 8.157608 8.157619 v 1.529543 1.529562 H 31.998489 23.840881 Z M 17.739609,28.066146 c 0.03689,-2.040401 0.07049,-2.257326 0.476325,-3.075038 0.327757,-0.66039 1.076444,-1.409213 1.737341,-1.737646 0.782986,-0.389112 1.13916,-0.453873 2.517387,-0.457703 1.120529,-0.0033 1.229917,0.0068 1.465816,0.133466 0.558512,0.299794 0.81701,0.694293 0.891738,1.360846 0.05796,0.516887 0.172698,0.800608 0.433917,1.072937 0.442761,0.461579 -0.400462,0.421149 9.540536,0.457362 l 8.954245,0.03267 0.377288,0.14295 c 0.535663,0.202957 0.86701,0.41084 1.213448,0.76135 0.615974,0.623206 0.843049,1.214247 0.903911,2.352847 l 0.04193,0.78829 H 32.000127 17.706507 Z m 8.885303,-3.360082 c -0.450481,-0.157843 -0.680897,-0.477678 -0.680897,-0.945126 0,-0.327855 0.188718,-0.650086 0.478206,-0.816565 0.105039,-0.06042 2.499637,-0.918208 5.321346,-1.906232 2.821701,-0.988026 6.76406,-2.368421 8.760778,-3.06755 3.967672,-1.389226 3.898786,-1.372791 4.30864,-1.027922 0.507977,0.427431 0.510527,1.181107 0.005,1.540917 -0.100892,0.0718 -1.34167,0.53587 -2.757342,1.031225 -1.415738,0.495355 -3.663822,1.281982 -4.995809,1.748066 -8.200166,2.869307 -9.89491,3.458848 -10.037834,3.49174 -0.08761,0.02023 -0.268774,-0.002 -0.402537,-0.04858 z"
     id="path1-3" />
</svg>
