<?xml version="1.0" encoding="UTF-8" standalone="no"?>
<svg
   width="64"
   height="64"
   version="1.1"
   id="svg73"
   sodipodi:docname="abcd.svg"
   inkscape:version="1.4.2 (ebf0e940d0, 2025-05-08)"
   xmlns:inkscape="http://www.inkscape.org/namespaces/inkscape"
   xmlns:sodipodi="http://sodipodi.sourceforge.net/DTD/sodipodi-0.dtd"
   xmlns:xlink="http://www.w3.org/1999/xlink"
   xmlns="http://www.w3.org/2000/svg"
   xmlns:svg="http://www.w3.org/2000/svg"
   xmlns:rdf="http://www.w3.org/1999/02/22-rdf-syntax-ns#"
   xmlns:cc="http://creativecommons.org/ns#"
   xmlns:dc="http://purl.org/dc/elements/1.1/">
  <metadata
     id="metadata77">
    <rdf:RDF>
      <cc:Work
         rdf:about="">
        <dc:format>image/svg+xml</dc:format>
        <dc:type
           rdf:resource="http://purl.org/dc/dcmitype/StillImage" />
      </cc:Work>
    </rdf:RDF>
  </metadata>
  <sodipodi:namedview
     pagecolor="#f5f7fa"
     bordercolor="#666666"
     borderopacity="1"
     objecttolerance="10"
     gridtolerance="10"
     guidetolerance="10"
     inkscape:pageopacity="0"
     inkscape:pageshadow="2"
     inkscape:window-width="1263"
     inkscape:window-height="693"
     id="namedview75"
     showgrid="false"
     inkscape:zoom="4.4470387"
     inkscape:cx="36.091433"
     inkscape:cy="29.682674"
     inkscape:window-x="24"
     inkscape:window-y="21"
     inkscape:window-maximized="0"
     inkscape:current-layer="svg73"
     inkscape:document-rotation="0"
     inkscape:pagecheckerboard="0"
     inkscape:showpageshadow="2"
     inkscape:deskcolor="#d1d1d1" />
  <defs
     id="defs29">
    <linearGradient
       id="linearGradient4"
       inkscape:collect="always">
      <stop
         style="stop-color:#67ac5e;stop-opacity:1;"
         offset="0"
         id="stop4" />
      <stop
         style="stop-color:#88c181;stop-opacity:1;"
         offset="0.5"
         id="stop1" />
    </linearGradient>
    <linearGradient
       id="linearGradient2"
       inkscape:collect="always">
      <stop
         style="stop-color:#edf4ec;stop-opacity:1;"
         offset="0"
         id="stop2" />
      <stop
         style="stop-color:#dae9d8;stop-opacity:1;"
         offset="1"
         id="stop3" />
    </linearGradient>
    <linearGradient
       inkscape:collect="always"
       xlink:href="#linearGradient2"
       id="linearGradient8"
       x1="31.721739"
       y1="5.2278585"
       x2="31.88887"
       y2="59.145416"
       gradientUnits="userSpaceOnUse"
       gradientTransform="matrix(0.8505,0,0,0.8505,4.7765033,4.7794869)" />
    <filter
       style="color-interpolation-filters:sRGB;"
       inkscape:label="Blur"
       id="filter9"
       x="-0.047762285"
       y="-0.047489063"
       width="1.0955246"
       height="1.0949781">
      <feGaussianBlur
         stdDeviation="1 1"
         result="blur"
         id="feGaussianBlur9" />
    </filter>
    <linearGradient
       inkscape:collect="always"
       xlink:href="#linearGradient4"
       id="linearGradient7"
       x1="26.723248"
       y1="58.711765"
       x2="25.756926"
       y2="5.950614"
       gradientUnits="userSpaceOnUse" />
    <filter
       style="color-interpolation-filters:sRGB;"
       inkscape:label="Out of Focus"
       id="filter40"
       x="-0.24226652"
       y="-0.2858297"
       width="1.484533"
       height="1.5716594">
      <feFlood
         flood-opacity="1"
         flood-color="rgb(255,255,255)"
         result="flood"
         id="feFlood38" />
      <feColorMatrix
         in="SourceGraphic"
         values="1 0 0 0 0 0 1 0 0 0 0 0 1 0 0 -0.2125 -0.7154 -0.0721 1 0 "
         result="colormatrix1"
         id="feColorMatrix38" />
      <feGaussianBlur
         in="colormatrix1"
         stdDeviation="3 3"
         result="blur"
         id="feGaussianBlur38" />
      <feColorMatrix
         in="blur"
         values="1 0 0 0 0 0 1 0 0 0 0 0 1 0 0 0 0 0 6 -2 "
         result="colormatrix2"
         id="feColorMatrix39" />
      <feBlend
         in="colormatrix2"
         in2="flood"
         mode="normal"
         result="blend"
         id="feBlend39" />
      <feComposite
         in="blend"
         in2="blend"
         operator="arithmetic"
         k2="0.2"
         result="composite1"
         id="feComposite39" />
      <feComposite
         in2="SourceGraphic"
         operator="in"
         id="feComposite40" />
    </filter>
  </defs>
  <g
     id="g877"
     transform="matrix(1.1,0,0,1.1,-3.1845928,-3.2065454)">
    <ellipse
       style="opacity:0.5;fill:#000000;stroke:none;stroke-width:3.89319;stroke-dasharray:none;stroke-opacity:1;filter:url(#filter9)"
       id="path2-5"
       cx="31.949858"
       cy="31.969812"
       rx="25.124426"
       ry="25.268976"
       transform="matrix(1.05,0,0,1.05,-1.5974929,-1.5984906)" />
    <path
       style="fill:#f5f7fa;stroke-width:0.204426;fill-opacity:1"
       d=""
       id="path3" />
    <circle
       style="opacity:1;fill:url(#linearGradient8);stroke:url(#linearGradient7);stroke-width:3.81818;stroke-dasharray:none;stroke-opacity:1"
       id="path2"
       cx="31.949856"
       cy="31.969812"
       r="24.711082" />
    <ellipse
       style="opacity:0.3;fill:none;stroke:#000000;stroke-width:0.974376;stroke-dasharray:none;stroke-opacity:1"
       id="path2-9"
       cx="31.949856"
       cy="31.969812"
       rx="23.129124"
       ry="23.129126" />
  </g>
  <path
     d="m 37.710097,43.861465 c 0.189464,1.564745 0.16618,3.351318 -0.121772,4.845389 -1.738445,0.666953 -3.619755,1.033145 -5.580767,1.033145 -0.799293,0 -1.585805,-0.06092 -2.35427,-0.178193 0.764705,-1.208341 1.398577,-2.724221 1.815142,-4.168657 0.178959,0.0082 0.358662,0.01242 0.539128,0.01242 2.070796,0 4.021281,-0.563943 5.702582,-1.54445 z M 21.854306,39.176987 c 1.06397,2.063281 2.740006,3.768631 4.782228,4.870203 -1.185781,0.882005 -2.813692,1.780553 -4.388222,2.269302 -2.199373,-1.748971 -3.927289,-4.069402 -4.950655,-6.727451 1.450458,0.09774 3.092657,-0.0752 4.556649,-0.412054 z m 21.556116,-5.609342 c 1.36249,0.590257 2.964836,1.560989 4.180693,2.688124 -0.417321,2.855802 -1.613624,5.473245 -3.364856,7.626749 C 43.587126,42.579434 42.61865,41.247033 41.597538,40.149222 42.747981,38.370175 43.418693,36.257273 43.418693,34 c 0,-0.145126 -0.0026,-0.288737 -0.0082,-0.432355 z m -7.159054,1.027876 -7.289889,4.585226 c -0.285732,0.17819 -0.52033,0.02464 -0.52033,-0.421079 v -8.982467 c 0,-0.510553 0.227829,-0.597026 0.52033,-0.421829 l 7.289889,4.585225 c 0.324079,0.204521 0.310547,0.458672 0,0.654924 z M 20.602355,34.37145 c -1.463994,-0.591762 -3.023481,-1.503846 -4.193471,-2.521948 0.406789,-2.923479 1.630167,-5.601073 3.428766,-7.792175 0.640639,1.300074 1.60761,2.627969 2.626467,3.722768 C 21.28435,29.574183 20.59634,31.71265 20.59634,34 c 0,0.124071 0.0023,0.248137 0.006,0.371452 z m 16.719,-10.448716 c 1.248194,-0.965469 2.767826,-1.793337 4.31754,-2.33923 2.253512,1.754985 4.025791,4.104744 5.069465,6.804897 -1.451216,-0.100749 -3.097171,0.06693 -4.565674,0.400025 -1.075249,-2.067037 -2.764822,-3.771645 -4.821331,-4.865692 z m -10.985588,0.198505 c -0.137604,-1.4873 -0.07896,-3.327256 0.280466,-4.899527 1.685058,-0.62184 3.501705,-0.96171 5.391285,-0.96171 0.799294,0 1.585804,0.06092 2.35502,0.178207 -0.765456,1.207586 -1.400078,2.724216 -1.816644,4.16941 -0.178959,-0.0084 -0.357917,-0.0128 -0.538376,-0.0128 -2.058766,0 -3.997221,0.556421 -5.671751,1.526402 z"
     fill="#ff3859"
     fill-rule="nonzero"
     id="path3-5-9"
     style="fill:#000000;fill-opacity:1;stroke:none;stroke-width:0.515722;stroke-dasharray:none;stroke-opacity:0.6;opacity:0.2" />
  <path
     d="m 37.710097,41.861465 c 0.189464,1.564745 0.16618,3.351318 -0.121772,4.845389 -1.738445,0.666953 -3.619755,1.033145 -5.580767,1.033145 -0.799293,0 -1.585805,-0.06092 -2.35427,-0.178193 0.764705,-1.208341 1.398577,-2.724221 1.815142,-4.168657 0.178959,0.0082 0.358662,0.01242 0.539128,0.01242 2.070796,0 4.021281,-0.563943 5.702582,-1.54445 z M 21.854306,37.176987 c 1.06397,2.063281 2.740006,3.768631 4.782228,4.870203 -1.185781,0.882005 -2.813692,1.780553 -4.388222,2.269302 -2.199373,-1.748971 -3.927289,-4.069402 -4.950655,-6.727451 1.450458,0.09774 3.092657,-0.0752 4.556649,-0.412054 z m 21.556116,-5.609342 c 1.36249,0.590257 2.964836,1.560989 4.180693,2.688124 -0.417321,2.855802 -1.613624,5.473245 -3.364856,7.626749 C 43.587126,40.579434 42.61865,39.247033 41.597538,38.149222 42.747981,36.370175 43.418693,34.257273 43.418693,32 c 0,-0.145126 -0.0026,-0.288737 -0.0082,-0.432355 z m -7.159054,1.027876 -7.289889,4.585226 c -0.285732,0.17819 -0.52033,0.02464 -0.52033,-0.421079 v -8.982467 c 0,-0.510553 0.227829,-0.597026 0.52033,-0.421829 l 7.289889,4.585225 c 0.324079,0.204521 0.310547,0.458672 0,0.654924 z M 20.602355,32.37145 c -1.463994,-0.591762 -3.023481,-1.503846 -4.193471,-2.521948 0.406789,-2.923479 1.630167,-5.601073 3.428766,-7.792175 0.640639,1.300074 1.60761,2.627969 2.626467,3.722768 C 21.28435,27.574183 20.59634,29.71265 20.59634,32 c 0,0.124071 0.0023,0.248137 0.006,0.371452 z m 16.719,-10.448716 c 1.248194,-0.965469 2.767826,-1.793337 4.31754,-2.33923 2.253512,1.754985 4.025791,4.104744 5.069465,6.804897 -1.451216,-0.100749 -3.097171,0.06693 -4.565674,0.400025 -1.075249,-2.067037 -2.764822,-3.771645 -4.821331,-4.865692 z m -10.985588,0.198505 c -0.137604,-1.4873 -0.07896,-3.327256 0.280466,-4.899527 1.685058,-0.62184 3.501705,-0.96171 5.391285,-0.96171 0.799294,0 1.585804,0.06092 2.35502,0.178207 -0.765456,1.207586 -1.400078,2.724216 -1.816644,4.16941 -0.178959,-0.0084 -0.357917,-0.0128 -0.538376,-0.0128 -2.058766,0 -3.997221,0.556421 -5.671751,1.526402 z"
     fill="#ff3859"
     fill-rule="nonzero"
     id="path3-5"
     style="fill:#4d4d4d;fill-opacity:1;stroke:none;stroke-width:0.515722;stroke-dasharray:none;stroke-opacity:0.6" />
</svg>
