<?xml version="1.0" encoding="UTF-8" standalone="no"?>
<svg
   width="64"
   height="64"
   version="1.1"
   id="svg73"
   sodipodi:docname="1password.svg"
   inkscape:version="1.4.2 (ebf0e940d0, 2025-05-08)"
   xmlns:inkscape="http://www.inkscape.org/namespaces/inkscape"
   xmlns:sodipodi="http://sodipodi.sourceforge.net/DTD/sodipodi-0.dtd"
   xmlns:xlink="http://www.w3.org/1999/xlink"
   xmlns="http://www.w3.org/2000/svg"
   xmlns:svg="http://www.w3.org/2000/svg"
   xmlns:rdf="http://www.w3.org/1999/02/22-rdf-syntax-ns#"
   xmlns:cc="http://creativecommons.org/ns#"
   xmlns:dc="http://purl.org/dc/elements/1.1/">
  <metadata
     id="metadata77">
    <rdf:RDF>
      <cc:Work
         rdf:about="">
        <dc:format>image/svg+xml</dc:format>
        <dc:type
           rdf:resource="http://purl.org/dc/dcmitype/StillImage" />
      </cc:Work>
    </rdf:RDF>
  </metadata>
  <sodipodi:namedview
     pagecolor="#f5f7fa"
     bordercolor="#666666"
     borderopacity="1"
     objecttolerance="10"
     gridtolerance="10"
     guidetolerance="10"
     inkscape:pageopacity="0"
     inkscape:pageshadow="2"
     inkscape:window-width="1414"
     inkscape:window-height="797"
     id="namedview75"
     showgrid="false"
     inkscape:zoom="6.2890624"
     inkscape:cx="34.345342"
     inkscape:cy="29.734162"
     inkscape:window-x="24"
     inkscape:window-y="21"
     inkscape:window-maximized="0"
     inkscape:current-layer="svg73"
     inkscape:document-rotation="0"
     inkscape:pagecheckerboard="0"
     inkscape:showpageshadow="2"
     inkscape:deskcolor="#d1d1d1" />
  <defs
     id="defs29">
    <linearGradient
       id="linearGradient4"
       inkscape:collect="always">
      <stop
         style="stop-color:#67ac5e;stop-opacity:1;"
         offset="0"
         id="stop4" />
      <stop
         style="stop-color:#88c181;stop-opacity:1;"
         offset="0.5"
         id="stop1" />
    </linearGradient>
    <linearGradient
       id="linearGradient2"
       inkscape:collect="always">
      <stop
         style="stop-color:#edf4ec;stop-opacity:1;"
         offset="0"
         id="stop2" />
      <stop
         style="stop-color:#dae9d8;stop-opacity:1;"
         offset="1"
         id="stop3" />
    </linearGradient>
    <linearGradient
       inkscape:collect="always"
       xlink:href="#linearGradient2"
       id="linearGradient8"
       x1="31.721739"
       y1="5.2278585"
       x2="31.88887"
       y2="59.145416"
       gradientUnits="userSpaceOnUse"
       gradientTransform="matrix(0.8505,0,0,0.8505,4.7765033,4.7794869)" />
    <filter
       style="color-interpolation-filters:sRGB;"
       inkscape:label="Blur"
       id="filter9"
       x="-0.047762285"
       y="-0.047489063"
       width="1.0955246"
       height="1.0949781">
      <feGaussianBlur
         stdDeviation="1 1"
         result="blur"
         id="feGaussianBlur9" />
    </filter>
    <linearGradient
       inkscape:collect="always"
       xlink:href="#linearGradient4"
       id="linearGradient7"
       x1="26.723248"
       y1="58.711765"
       x2="25.756926"
       y2="5.950614"
       gradientUnits="userSpaceOnUse" />
    <filter
       style="color-interpolation-filters:sRGB;"
       inkscape:label="Out of Focus"
       id="filter40"
       x="-0.24226652"
       y="-0.2858297"
       width="1.484533"
       height="1.5716594">
      <feFlood
         flood-opacity="1"
         flood-color="rgb(255,255,255)"
         result="flood"
         id="feFlood38" />
      <feColorMatrix
         in="SourceGraphic"
         values="1 0 0 0 0 0 1 0 0 0 0 0 1 0 0 -0.2125 -0.7154 -0.0721 1 0 "
         result="colormatrix1"
         id="feColorMatrix38" />
      <feGaussianBlur
         in="colormatrix1"
         stdDeviation="3 3"
         result="blur"
         id="feGaussianBlur38" />
      <feColorMatrix
         in="blur"
         values="1 0 0 0 0 0 1 0 0 0 0 0 1 0 0 0 0 0 6 -2 "
         result="colormatrix2"
         id="feColorMatrix39" />
      <feBlend
         in="colormatrix2"
         in2="flood"
         mode="normal"
         result="blend"
         id="feBlend39" />
      <feComposite
         in="blend"
         in2="blend"
         operator="arithmetic"
         k2="0.2"
         result="composite1"
         id="feComposite39" />
      <feComposite
         in2="SourceGraphic"
         operator="in"
         id="feComposite40" />
    </filter>
  </defs>
  <g
     id="g877"
     transform="matrix(1.1,0,0,1.1,-3.1845928,-3.2065454)">
    <ellipse
       style="opacity:0.5;fill:#000000;stroke:none;stroke-width:3.89319;stroke-dasharray:none;stroke-opacity:1;filter:url(#filter9)"
       id="path2-5"
       cx="31.949858"
       cy="31.969812"
       rx="25.124426"
       ry="25.268976"
       transform="matrix(1.05,0,0,1.05,-1.5974929,-1.5984906)" />
    <path
       style="fill:#f5f7fa;stroke-width:0.204426;fill-opacity:1"
       d=""
       id="path3" />
    <circle
       style="opacity:1;fill:url(#linearGradient8);stroke:url(#linearGradient7);stroke-width:3.81818;stroke-dasharray:none;stroke-opacity:1"
       id="path2"
       cx="31.949856"
       cy="31.969812"
       r="24.711082" />
    <ellipse
       style="opacity:0.3;fill:none;stroke:#000000;stroke-width:0.974376;stroke-dasharray:none;stroke-opacity:1"
       id="path2-9"
       cx="31.949856"
       cy="31.969812"
       rx="23.129124"
       ry="23.129126" />
  </g>
  <path
     style="fill:#000000;fill-opacity:1;stroke-width:0.0471012;opacity:0.2"
     d="m 27.980687,49.072413 v -1.004828 h -2.009656 -2.009652 v -1.004826 -1.00483 H 22.956551 21.951723 V 45.053103 44.048276 H 20.946895 19.942069 V 43.043449 42.03862 H 18.93724 17.932414 V 40.028966 38.019311 H 16.927586 15.922759 V 34 29.98069 h 1.004827 1.004828 v -2.009655 -2.009654 h 1.004826 1.004829 v -1.004828 -1.004828 h 1.004826 1.004828 V 22.946898 21.94207 h 1.004828 1.004828 v -1.004826 -1.004827 h 2.009652 2.009656 v -1.004828 -1.004827 h 4.01931 4.019311 v 1.004827 1.004828 h 1.905719 c 1.76647,0 1.913313,0.0085 2.009655,0.114847 0.08642,0.09549 0.103939,0.264823 0.103939,1.004828 v 0.889978 h 1.004827 1.004828 v 1.004828 1.004827 h 1.00483 1.004825 v 1.004828 1.004828 h 1.004829 1.004825 v 2.009654 2.009655 h 1.004829 1.004826 V 34 38.019311 h -1.004826 -1.004829 v 2.009656 2.009653 H 45.06276 44.057931 v 1.004829 1.004827 h -1.004825 -1.00483 v 1.004827 1.004827 h -1.004828 -1.004827 v 1.004829 1.004826 h -2.009657 -2.009656 v 1.004828 1.004826 h -4.019311 -4.01931 z m 8.038621,-4.01931 v -1.004827 h 2.009656 2.009654 V 43.043449 42.03862 h 1.004827 1.004828 v -2.009654 -2.009655 h 1.00483 1.004825 v -1.004828 -1.004827 h -1.004825 -1.00483 V 35.004828 34 H 41.043445 40.038618 V 32.995174 31.990345 H 39.033791 38.028964 V 30.985519 29.98069 h -1.004829 -1.004827 v 1.004829 1.004826 h 1.004827 1.004829 V 32.995174 34 H 35.01448 31.999997 v -1.004826 -1.004829 h 1.004827 1.004829 V 30.985519 29.98069 h -1.004829 -1.004827 v 1.004829 1.004826 H 30.99517 29.990342 V 30.985519 29.98069 h -1.004827 -1.004828 v 1.004829 1.004826 H 26.97586 25.971031 V 30.985519 29.98069 h -1.004824 -1.004828 v 1.004829 1.004826 h 1.004828 1.004824 V 32.995174 34 h -1.004824 -1.004828 v 1.004828 1.004828 h -1.004828 -1.004828 v 1.004827 1.004828 h 1.004828 1.004828 v 1.004827 1.004828 h -1.004828 -1.004828 v 1.004828 1.004827 h 1.004828 1.004828 v 1.004828 1.004828 h 2.009652 2.009656 v 1.004826 1.004827 h 4.01931 4.019311 z m -8.038621,-6.028965 v -1.004827 h -2.009656 -2.009652 v -1.004828 -1.004827 h 1.004828 1.004824 V 35.004828 34 h 1.004829 1.004827 v -1.004826 -1.004829 h 1.004828 1.004827 V 34 36.009656 h 1.004828 1.004827 v 1.004827 1.004828 H 30.99517 29.990342 v 1.004827 1.004828 H 28.985515 27.980687 Z M 40.038618,37.014483 V 36.009656 H 39.033791 38.028964 V 35.004828 34 h 1.004827 1.004827 v 1.004828 1.004828 h 1.004827 1.004828 v 1.004827 1.004828 h -1.004828 -1.004827 z"
     id="path1-4" />
  <path
     style="fill:#4d4d4d;fill-opacity:1;stroke-width:0.0471012"
     d="m 27.980687,47.072413 v -1.004828 h -2.009656 -2.009652 v -1.004826 -1.00483 H 22.956551 21.951723 V 43.053103 42.048276 H 20.946895 19.942069 V 41.043449 40.03862 H 18.93724 17.932414 V 38.028966 36.019311 H 16.927586 15.922759 V 32 27.98069 h 1.004827 1.004828 v -2.009655 -2.009654 h 1.004826 1.004829 v -1.004828 -1.004828 h 1.004826 1.004828 V 20.946898 19.94207 h 1.004828 1.004828 v -1.004826 -1.004827 h 2.009652 2.009656 v -1.004828 -1.004827 h 4.01931 4.019311 v 1.004827 1.004828 h 1.905719 c 1.76647,0 1.913313,0.0085 2.009655,0.114847 0.08642,0.09549 0.103939,0.264823 0.103939,1.004828 v 0.889978 h 1.004827 1.004828 v 1.004828 1.004827 h 1.00483 1.004825 v 1.004828 1.004828 h 1.004829 1.004825 v 2.009654 2.009655 h 1.004829 1.004826 V 32 36.019311 h -1.004826 -1.004829 v 2.009656 2.009653 H 45.06276 44.057931 v 1.004829 1.004827 h -1.004825 -1.00483 v 1.004827 1.004827 h -1.004828 -1.004827 v 1.004829 1.004826 h -2.009657 -2.009656 v 1.004828 1.004826 h -4.019311 -4.01931 z m 8.038621,-4.01931 v -1.004827 h 2.009656 2.009654 V 41.043449 40.03862 h 1.004827 1.004828 v -2.009654 -2.009655 h 1.00483 1.004825 v -1.004828 -1.004827 h -1.004825 -1.00483 V 33.004828 32 H 41.043445 40.038618 V 30.995174 29.990345 H 39.033791 38.028964 V 28.985519 27.98069 h -1.004829 -1.004827 v 1.004829 1.004826 h 1.004827 1.004829 V 30.995174 32 H 35.01448 31.999997 v -1.004826 -1.004829 h 1.004827 1.004829 V 28.985519 27.98069 h -1.004829 -1.004827 v 1.004829 1.004826 H 30.99517 29.990342 V 28.985519 27.98069 h -1.004827 -1.004828 v 1.004829 1.004826 H 26.97586 25.971031 V 28.985519 27.98069 h -1.004824 -1.004828 v 1.004829 1.004826 h 1.004828 1.004824 V 30.995174 32 h -1.004824 -1.004828 v 1.004828 1.004828 h -1.004828 -1.004828 v 1.004827 1.004828 h 1.004828 1.004828 v 1.004827 1.004828 h -1.004828 -1.004828 v 1.004828 1.004827 h 1.004828 1.004828 v 1.004828 1.004828 h 2.009652 2.009656 v 1.004826 1.004827 h 4.01931 4.019311 z m -8.038621,-6.028965 v -1.004827 h -2.009656 -2.009652 v -1.004828 -1.004827 h 1.004828 1.004824 V 33.004828 32 h 1.004829 1.004827 v -1.004826 -1.004829 h 1.004828 1.004827 V 32 34.009656 h 1.004828 1.004827 v 1.004827 1.004828 H 30.99517 29.990342 v 1.004827 1.004828 H 28.985515 27.980687 Z M 40.038618,35.014483 V 34.009656 H 39.033791 38.028964 V 33.004828 32 h 1.004827 1.004827 v 1.004828 1.004828 h 1.004827 1.004828 v 1.004827 1.004828 h -1.004828 -1.004827 z"
     id="path1" />
</svg>
