<?xml version="1.0" encoding="UTF-8" standalone="no"?>
<svg
   width="64"
   height="64"
   version="1.1"
   id="svg73"
   sodipodi:docname="abcd.svg"
   inkscape:version="1.4.2 (ebf0e940d0, 2025-05-08)"
   xmlns:inkscape="http://www.inkscape.org/namespaces/inkscape"
   xmlns:sodipodi="http://sodipodi.sourceforge.net/DTD/sodipodi-0.dtd"
   xmlns:xlink="http://www.w3.org/1999/xlink"
   xmlns="http://www.w3.org/2000/svg"
   xmlns:svg="http://www.w3.org/2000/svg"
   xmlns:rdf="http://www.w3.org/1999/02/22-rdf-syntax-ns#"
   xmlns:cc="http://creativecommons.org/ns#"
   xmlns:dc="http://purl.org/dc/elements/1.1/">
  <metadata
     id="metadata77">
    <rdf:RDF>
      <cc:Work
         rdf:about="">
        <dc:format>image/svg+xml</dc:format>
        <dc:type
           rdf:resource="http://purl.org/dc/dcmitype/StillImage" />
      </cc:Work>
    </rdf:RDF>
  </metadata>
  <sodipodi:namedview
     pagecolor="#f5f7fa"
     bordercolor="#666666"
     borderopacity="1"
     objecttolerance="10"
     gridtolerance="10"
     guidetolerance="10"
     inkscape:pageopacity="0"
     inkscape:pageshadow="2"
     inkscape:window-width="1320"
     inkscape:window-height="766"
     id="namedview75"
     showgrid="false"
     inkscape:zoom="4.4470387"
     inkscape:cx="53.518761"
     inkscape:cy="22.37444"
     inkscape:window-x="24"
     inkscape:window-y="21"
     inkscape:window-maximized="0"
     inkscape:current-layer="svg73"
     inkscape:document-rotation="0"
     inkscape:pagecheckerboard="0"
     inkscape:showpageshadow="2"
     inkscape:deskcolor="#d1d1d1" />
  <defs
     id="defs29">
    <linearGradient
       id="linearGradient4"
       inkscape:collect="always">
      <stop
         style="stop-color:#67ac5e;stop-opacity:1;"
         offset="0"
         id="stop4" />
      <stop
         style="stop-color:#88c181;stop-opacity:1;"
         offset="0.5"
         id="stop1" />
    </linearGradient>
    <linearGradient
       id="linearGradient2"
       inkscape:collect="always">
      <stop
         style="stop-color:#edf4ec;stop-opacity:1;"
         offset="0"
         id="stop2" />
      <stop
         style="stop-color:#dae9d8;stop-opacity:1;"
         offset="1"
         id="stop3" />
    </linearGradient>
    <linearGradient
       inkscape:collect="always"
       xlink:href="#linearGradient2"
       id="linearGradient8"
       x1="31.721739"
       y1="5.2278585"
       x2="31.88887"
       y2="59.145416"
       gradientUnits="userSpaceOnUse"
       gradientTransform="matrix(0.8505,0,0,0.8505,4.7765033,4.7794869)" />
    <filter
       style="color-interpolation-filters:sRGB;"
       inkscape:label="Blur"
       id="filter9"
       x="-0.047762285"
       y="-0.047489063"
       width="1.0955246"
       height="1.0949781">
      <feGaussianBlur
         stdDeviation="1 1"
         result="blur"
         id="feGaussianBlur9" />
    </filter>
    <linearGradient
       inkscape:collect="always"
       xlink:href="#linearGradient4"
       id="linearGradient7"
       x1="26.723248"
       y1="58.711765"
       x2="25.756926"
       y2="5.950614"
       gradientUnits="userSpaceOnUse" />
    <filter
       style="color-interpolation-filters:sRGB;"
       inkscape:label="Out of Focus"
       id="filter40"
       x="-0.24226652"
       y="-0.2858297"
       width="1.484533"
       height="1.5716594">
      <feFlood
         flood-opacity="1"
         flood-color="rgb(255,255,255)"
         result="flood"
         id="feFlood38" />
      <feColorMatrix
         in="SourceGraphic"
         values="1 0 0 0 0 0 1 0 0 0 0 0 1 0 0 -0.2125 -0.7154 -0.0721 1 0 "
         result="colormatrix1"
         id="feColorMatrix38" />
      <feGaussianBlur
         in="colormatrix1"
         stdDeviation="3 3"
         result="blur"
         id="feGaussianBlur38" />
      <feColorMatrix
         in="blur"
         values="1 0 0 0 0 0 1 0 0 0 0 0 1 0 0 0 0 0 6 -2 "
         result="colormatrix2"
         id="feColorMatrix39" />
      <feBlend
         in="colormatrix2"
         in2="flood"
         mode="normal"
         result="blend"
         id="feBlend39" />
      <feComposite
         in="blend"
         in2="blend"
         operator="arithmetic"
         k2="0.2"
         result="composite1"
         id="feComposite39" />
      <feComposite
         in2="SourceGraphic"
         operator="in"
         id="feComposite40" />
    </filter>
  </defs>
  <g
     id="g877"
     transform="matrix(1.1,0,0,1.1,-3.1845928,-3.2065454)">
    <ellipse
       style="opacity:0.5;fill:#000000;stroke:none;stroke-width:3.89319;stroke-dasharray:none;stroke-opacity:1;filter:url(#filter9)"
       id="path2-5"
       cx="31.949858"
       cy="31.969812"
       rx="25.124426"
       ry="25.268976"
       transform="matrix(1.05,0,0,1.05,-1.5974929,-1.5984906)" />
    <path
       style="fill:#f5f7fa;stroke-width:0.204426;fill-opacity:1"
       d=""
       id="path3" />
    <circle
       style="opacity:1;fill:url(#linearGradient8);stroke:url(#linearGradient7);stroke-width:3.81818;stroke-dasharray:none;stroke-opacity:1"
       id="path2"
       cx="31.949856"
       cy="31.969812"
       r="24.711082" />
    <ellipse
       style="opacity:0.3;fill:none;stroke:#000000;stroke-width:0.974376;stroke-dasharray:none;stroke-opacity:1"
       id="path2-9"
       cx="31.949856"
       cy="31.969812"
       rx="23.129124"
       ry="23.129126" />
  </g>
  <path
     style="fill:#000000;fill-opacity:1;stroke:none;stroke-width:0.491164;stroke-dasharray:none;stroke-opacity:0.6;opacity:0.2"
     d="m 30.153837,49.810278 c -5.421396,-0.62294 -10.22236,-3.976813 -12.663582,-8.846576 -0.600734,-1.198338 -1.025357,-2.388128 -1.358573,-3.806693 -0.249904,-1.0639 -0.271365,-1.308255 -0.274707,-3.128189 -0.0031,-1.728681 0.02449,-2.099865 0.222443,-2.985288 0.472588,-2.113731 1.210482,-3.911015 2.281802,-5.557753 4.939958,-7.593272 15.08138,-9.688172 22.588499,-4.666077 4.068673,2.721851 6.647031,7.030493 7.131833,11.917861 0.192594,1.941191 -0.06479,3.946653 -0.784772,6.116357 -2.389259,7.199818 -9.619553,11.820828 -17.142943,10.956358 z m 4.170149,-3.514444 c 2.574639,-0.488089 4.714323,-1.61917 6.628082,-3.503749 3.257992,-3.208309 4.525187,-7.76091 3.40618,-12.237286 -0.650392,-2.601782 -2.101062,-4.916493 -4.153015,-6.626639 -3.189307,-2.658038 -7.155643,-3.586269 -11.279217,-2.639647 -0.383995,0.08815 -0.698172,0.189975 -0.698172,0.226279 0,0.0363 0.287361,0.234053 0.638583,0.439457 0.811662,0.474676 1.821554,1.549587 2.285696,2.432854 1.82641,3.475664 0.123445,7.644468 -3.668165,8.979551 -0.811686,0.285806 -2.293434,0.348998 -3.240877,0.138213 -1.208088,-0.268775 -2.195513,-0.820911 -3.093256,-1.729651 -0.440907,-0.446307 -0.901518,-1.026533 -1.076975,-1.356652 -0.294997,-0.55503 -0.31004,-0.567699 -0.398352,-0.335427 -0.474903,1.249088 -0.62207,4.541735 -0.275352,6.160574 1.183159,5.524212 5.536525,9.51146 11.139887,10.20302 0.927162,0.114457 2.773697,0.04078 3.784953,-0.150841 z"
     id="path6-4" />
  <path
     style="fill:#4d4d4d;fill-opacity:1;stroke:none;stroke-width:0.491164;stroke-dasharray:none;stroke-opacity:0.6"
     d="m 30.153837,47.810278 c -5.421396,-0.62294 -10.22236,-3.976813 -12.663582,-8.846576 -0.600734,-1.198338 -1.025357,-2.388128 -1.358573,-3.806693 -0.249904,-1.0639 -0.271365,-1.308255 -0.274707,-3.128189 -0.0031,-1.728681 0.02449,-2.099865 0.222443,-2.985288 0.472588,-2.113731 1.210482,-3.911015 2.281802,-5.557753 4.939958,-7.593272 15.08138,-9.688172 22.588499,-4.666077 4.068673,2.721851 6.647031,7.030493 7.131833,11.917861 0.192594,1.941191 -0.06479,3.946653 -0.784772,6.116357 -2.389259,7.199818 -9.619553,11.820828 -17.142943,10.956358 z m 4.170149,-3.514444 c 2.574639,-0.488089 4.714323,-1.61917 6.628082,-3.503749 3.257992,-3.208309 4.525187,-7.76091 3.40618,-12.237286 -0.650392,-2.601782 -2.101062,-4.916493 -4.153015,-6.626639 -3.189307,-2.658038 -7.155643,-3.586269 -11.279217,-2.639647 -0.383995,0.08815 -0.698172,0.189975 -0.698172,0.226279 0,0.0363 0.287361,0.234053 0.638583,0.439457 0.811662,0.474676 1.821554,1.549587 2.285696,2.432854 1.82641,3.475664 0.123445,7.644468 -3.668165,8.979551 -0.811686,0.285806 -2.293434,0.348998 -3.240877,0.138213 -1.208088,-0.268775 -2.195513,-0.820911 -3.093256,-1.729651 -0.440907,-0.446307 -0.901518,-1.026533 -1.076975,-1.356652 -0.294997,-0.55503 -0.31004,-0.567699 -0.398352,-0.335427 -0.474903,1.249088 -0.62207,4.541735 -0.275352,6.160574 1.183159,5.524212 5.536525,9.51146 11.139887,10.20302 0.927162,0.114457 2.773697,0.04078 3.784953,-0.150841 z"
     id="path6" />
</svg>
