<?xml version="1.0" encoding="UTF-8" standalone="no"?>
<svg
   width="64"
   height="64"
   version="1.1"
   id="svg73"
   sodipodi:docname="abcd.svg"
   inkscape:version="1.4.2 (ebf0e940d0, 2025-05-08)"
   xmlns:inkscape="http://www.inkscape.org/namespaces/inkscape"
   xmlns:sodipodi="http://sodipodi.sourceforge.net/DTD/sodipodi-0.dtd"
   xmlns:xlink="http://www.w3.org/1999/xlink"
   xmlns="http://www.w3.org/2000/svg"
   xmlns:svg="http://www.w3.org/2000/svg"
   xmlns:rdf="http://www.w3.org/1999/02/22-rdf-syntax-ns#"
   xmlns:cc="http://creativecommons.org/ns#"
   xmlns:dc="http://purl.org/dc/elements/1.1/">
  <metadata
     id="metadata77">
    <rdf:RDF>
      <cc:Work
         rdf:about="">
        <dc:format>image/svg+xml</dc:format>
        <dc:type
           rdf:resource="http://purl.org/dc/dcmitype/StillImage" />
      </cc:Work>
    </rdf:RDF>
  </metadata>
  <sodipodi:namedview
     pagecolor="#f5f7fa"
     bordercolor="#666666"
     borderopacity="1"
     objecttolerance="10"
     gridtolerance="10"
     guidetolerance="10"
     inkscape:pageopacity="0"
     inkscape:pageshadow="2"
     inkscape:window-width="1212"
     inkscape:window-height="621"
     id="namedview75"
     showgrid="false"
     inkscape:zoom="6.2890624"
     inkscape:cx="34.822361"
     inkscape:cy="29.734162"
     inkscape:window-x="24"
     inkscape:window-y="21"
     inkscape:window-maximized="0"
     inkscape:current-layer="svg73"
     inkscape:document-rotation="0"
     inkscape:pagecheckerboard="0"
     inkscape:showpageshadow="2"
     inkscape:deskcolor="#d1d1d1" />
  <defs
     id="defs29">
    <linearGradient
       id="linearGradient4"
       inkscape:collect="always">
      <stop
         style="stop-color:#67ac5e;stop-opacity:1;"
         offset="0"
         id="stop4" />
      <stop
         style="stop-color:#88c181;stop-opacity:1;"
         offset="0.5"
         id="stop1" />
    </linearGradient>
    <linearGradient
       id="linearGradient2"
       inkscape:collect="always">
      <stop
         style="stop-color:#edf4ec;stop-opacity:1;"
         offset="0"
         id="stop2" />
      <stop
         style="stop-color:#dae9d8;stop-opacity:1;"
         offset="1"
         id="stop3" />
    </linearGradient>
    <linearGradient
       inkscape:collect="always"
       xlink:href="#linearGradient2"
       id="linearGradient8"
       x1="31.721739"
       y1="5.2278585"
       x2="31.88887"
       y2="59.145416"
       gradientUnits="userSpaceOnUse"
       gradientTransform="matrix(0.8505,0,0,0.8505,4.7765033,4.7794869)" />
    <filter
       style="color-interpolation-filters:sRGB;"
       inkscape:label="Blur"
       id="filter9"
       x="-0.047762285"
       y="-0.047489063"
       width="1.0955246"
       height="1.0949781">
      <feGaussianBlur
         stdDeviation="1 1"
         result="blur"
         id="feGaussianBlur9" />
    </filter>
    <linearGradient
       inkscape:collect="always"
       xlink:href="#linearGradient4"
       id="linearGradient7"
       x1="26.723248"
       y1="58.711765"
       x2="25.756926"
       y2="5.950614"
       gradientUnits="userSpaceOnUse" />
    <filter
       style="color-interpolation-filters:sRGB;"
       inkscape:label="Out of Focus"
       id="filter40"
       x="-0.24226652"
       y="-0.2858297"
       width="1.484533"
       height="1.5716594">
      <feFlood
         flood-opacity="1"
         flood-color="rgb(255,255,255)"
         result="flood"
         id="feFlood38" />
      <feColorMatrix
         in="SourceGraphic"
         values="1 0 0 0 0 0 1 0 0 0 0 0 1 0 0 -0.2125 -0.7154 -0.0721 1 0 "
         result="colormatrix1"
         id="feColorMatrix38" />
      <feGaussianBlur
         in="colormatrix1"
         stdDeviation="3 3"
         result="blur"
         id="feGaussianBlur38" />
      <feColorMatrix
         in="blur"
         values="1 0 0 0 0 0 1 0 0 0 0 0 1 0 0 0 0 0 6 -2 "
         result="colormatrix2"
         id="feColorMatrix39" />
      <feBlend
         in="colormatrix2"
         in2="flood"
         mode="normal"
         result="blend"
         id="feBlend39" />
      <feComposite
         in="blend"
         in2="blend"
         operator="arithmetic"
         k2="0.2"
         result="composite1"
         id="feComposite39" />
      <feComposite
         in2="SourceGraphic"
         operator="in"
         id="feComposite40" />
    </filter>
    <clipPath
       id="clip0_2648_607">
      <rect
         width="16"
         height="16"
         fill="#ffffff"
         id="rect1-3"
         x="0"
         y="0" />
    </clipPath>
    <clipPath
       id="clip0_2648_607-9">
      <rect
         width="16"
         height="16"
         fill="#ffffff"
         id="rect1-3-5"
         x="0"
         y="0" />
    </clipPath>
  </defs>
  <g
     id="g877"
     transform="matrix(1.1,0,0,1.1,-3.1845928,-3.2065454)">
    <ellipse
       style="opacity:0.5;fill:#000000;stroke:none;stroke-width:3.89319;stroke-dasharray:none;stroke-opacity:1;filter:url(#filter9)"
       id="path2-5"
       cx="31.949858"
       cy="31.969812"
       rx="25.124426"
       ry="25.268976"
       transform="matrix(1.05,0,0,1.05,-1.5974929,-1.5984906)" />
    <path
       style="fill:#f5f7fa;stroke-width:0.204426;fill-opacity:1"
       d=""
       id="path3" />
    <circle
       style="opacity:1;fill:url(#linearGradient8);stroke:url(#linearGradient7);stroke-width:3.81818;stroke-dasharray:none;stroke-opacity:1"
       id="path2"
       cx="31.949856"
       cy="31.969812"
       r="24.711082" />
    <ellipse
       style="opacity:0.3;fill:none;stroke:#000000;stroke-width:0.974376;stroke-dasharray:none;stroke-opacity:1"
       id="path2-9"
       cx="31.949856"
       cy="31.969812"
       rx="23.129124"
       ry="23.129126" />
  </g>
  <path
     style="fill:#000000;fill-opacity:1;stroke-width:0.916358;opacity:0.2"
     d="m 33.28919,46.877009 c -3.591456,-1.295771 -5.473577,-1.01131 -6.949728,-0.964417 -1.568327,0.1355 -3.086064,0.540857 -4.623937,1.046224 -0.842751,0.245736 -0.843865,0.232952 -0.05645,-0.647497 2.423323,-2.120506 5.237466,-3.85535 8.047206,-4.422889 2.039907,0 3.389638,-1.633586 2.953477,-2.989999 -1.638051,-2.667038 -6.157913,-6.148546 -6.157913,-7.097323 0,-0.794144 1.386771,-2.810524 3.199541,-4.724936 0.802131,-0.847102 1.881357,-1.524612 1.631156,-1.755038 -0.521354,-0.480133 -5.521215,-1.40114 -7.857645,-1.40114 -1.866129,0 -3.511053,1.25719 -3.511053,2.489621 0,0.341909 0.228817,1.29146 0.957034,2.110109 l 1.324037,1.488449 c -0.87578,0.99878 -1.249909,2.081415 -2.756201,2.081415 -2.160382,0 -2.160382,-1.749071 -2.148955,-3.450374 0.30505,-4.166096 6.664196,-8.931507 12.678922,-8.333573 3.804372,0.378881 7.139109,0.592622 10.7811,0.865278 2.026233,0.09997 3.296499,-0.07599 5.196873,-0.795776 1.377136,-0.521607 0.498898,1.156554 -1.562731,2.986109 -2.479683,2.200555 -3.946822,2.757541 -7.918578,2.391459 -2.970719,-0.273815 -3.783509,0.303829 -4.464088,2.116714 -0.540086,1.43866 0.782061,2.809809 3.587439,5.737647 1.383371,1.443752 1.869037,2.376282 1.859446,3.288782 -0.0085,0.816597 -0.377034,1.61715 -1.450759,2.753692 -0.94669,1.002075 -2.221279,1.998884 -2.085878,2.21512 0.424809,0.67845 3.237454,2.215207 4.770432,2.215207 0.808008,0 3.065603,-0.507432 3.972579,-0.964139 1.53415,-0.772521 2.185345,-0.765559 2.185345,0.02351 0,0.624755 -5.561497,4.613393 -8.323193,4.606172 -0.502382,-0.0015 -1.977178,-0.399282 -3.277482,-0.868446 z"
     id="path3-6-3" />
  <path
     style="fill:#4d4d4d;fill-opacity:1;stroke-width:0.916358"
     d="m 33.28919,44.877009 c -3.591456,-1.295771 -5.473577,-1.01131 -6.949728,-0.964417 -1.568327,0.1355 -3.086064,0.540857 -4.623937,1.046224 -0.842751,0.245736 -0.843865,0.232952 -0.05645,-0.647497 2.423323,-2.120506 5.237466,-3.85535 8.047206,-4.422889 2.039907,0 3.389638,-1.633586 2.953477,-2.989999 -1.638051,-2.667038 -6.157913,-6.148546 -6.157913,-7.097323 0,-0.794144 1.386771,-2.810524 3.199541,-4.724936 0.802131,-0.847102 1.881357,-1.524612 1.631156,-1.755038 -0.521354,-0.480133 -5.521215,-1.40114 -7.857645,-1.40114 -1.866129,0 -3.511053,1.25719 -3.511053,2.489621 0,0.341909 0.228817,1.29146 0.957034,2.110109 l 1.324037,1.488449 c -0.87578,0.99878 -1.249909,2.081415 -2.756201,2.081415 -2.160382,0 -2.160382,-1.749071 -2.148955,-3.450374 0.30505,-4.166096 6.664196,-8.931507 12.678922,-8.333573 3.804372,0.378881 7.139109,0.592622 10.7811,0.865278 2.026233,0.09997 3.296499,-0.07599 5.196873,-0.795776 1.377136,-0.521607 0.498898,1.156554 -1.562731,2.986109 -2.479683,2.200555 -3.946822,2.757541 -7.918578,2.391459 -2.970719,-0.273815 -3.783509,0.303829 -4.464088,2.116714 -0.540086,1.43866 0.782061,2.809809 3.587439,5.737647 1.383371,1.443752 1.869037,2.376282 1.859446,3.288782 -0.0085,0.816597 -0.377034,1.61715 -1.450759,2.753692 -0.94669,1.002075 -2.221279,1.998884 -2.085878,2.21512 0.424809,0.67845 3.237454,2.215207 4.770432,2.215207 0.808008,0 3.065603,-0.507432 3.972579,-0.964139 1.53415,-0.772521 2.185345,-0.765559 2.185345,0.02351 0,0.624755 -5.561497,4.613393 -8.323193,4.606172 -0.502382,-0.0015 -1.977178,-0.399282 -3.277482,-0.868446 z"
     id="path3-6" />
</svg>
