<?xml version="1.0" encoding="UTF-8" standalone="no"?>
<svg
   width="64"
   height="64"
   version="1.1"
   id="svg73"
   sodipodi:docname="abcd.svg"
   inkscape:version="1.4.2 (ebf0e940d0, 2025-05-08)"
   xmlns:inkscape="http://www.inkscape.org/namespaces/inkscape"
   xmlns:sodipodi="http://sodipodi.sourceforge.net/DTD/sodipodi-0.dtd"
   xmlns:xlink="http://www.w3.org/1999/xlink"
   xmlns="http://www.w3.org/2000/svg"
   xmlns:svg="http://www.w3.org/2000/svg"
   xmlns:rdf="http://www.w3.org/1999/02/22-rdf-syntax-ns#"
   xmlns:cc="http://creativecommons.org/ns#"
   xmlns:dc="http://purl.org/dc/elements/1.1/">
  <metadata
     id="metadata77">
    <rdf:RDF>
      <cc:Work
         rdf:about="">
        <dc:format>image/svg+xml</dc:format>
        <dc:type
           rdf:resource="http://purl.org/dc/dcmitype/StillImage" />
      </cc:Work>
    </rdf:RDF>
  </metadata>
  <sodipodi:namedview
     pagecolor="#f5f7fa"
     bordercolor="#666666"
     borderopacity="1"
     objecttolerance="10"
     gridtolerance="10"
     guidetolerance="10"
     inkscape:pageopacity="0"
     inkscape:pageshadow="2"
     inkscape:window-width="1261"
     inkscape:window-height="714"
     id="namedview75"
     showgrid="false"
     inkscape:zoom="6.2890624"
     inkscape:cx="32.516771"
     inkscape:cy="29.654659"
     inkscape:window-x="24"
     inkscape:window-y="21"
     inkscape:window-maximized="0"
     inkscape:current-layer="svg73"
     inkscape:document-rotation="0"
     inkscape:pagecheckerboard="0"
     inkscape:showpageshadow="2"
     inkscape:deskcolor="#d1d1d1" />
  <defs
     id="defs29">
    <linearGradient
       id="linearGradient4"
       inkscape:collect="always">
      <stop
         style="stop-color:#67ac5e;stop-opacity:1;"
         offset="0"
         id="stop4" />
      <stop
         style="stop-color:#88c181;stop-opacity:1;"
         offset="0.5"
         id="stop1" />
    </linearGradient>
    <linearGradient
       id="linearGradient2"
       inkscape:collect="always">
      <stop
         style="stop-color:#edf4ec;stop-opacity:1;"
         offset="0"
         id="stop2" />
      <stop
         style="stop-color:#dae9d8;stop-opacity:1;"
         offset="1"
         id="stop3" />
    </linearGradient>
    <linearGradient
       inkscape:collect="always"
       xlink:href="#linearGradient2"
       id="linearGradient8"
       x1="31.721739"
       y1="5.2278585"
       x2="31.88887"
       y2="59.145416"
       gradientUnits="userSpaceOnUse"
       gradientTransform="matrix(0.8505,0,0,0.8505,4.7765033,4.7794869)" />
    <filter
       style="color-interpolation-filters:sRGB;"
       inkscape:label="Blur"
       id="filter9"
       x="-0.047762285"
       y="-0.047489063"
       width="1.0955246"
       height="1.0949781">
      <feGaussianBlur
         stdDeviation="1 1"
         result="blur"
         id="feGaussianBlur9" />
    </filter>
    <linearGradient
       inkscape:collect="always"
       xlink:href="#linearGradient4"
       id="linearGradient7"
       x1="26.723248"
       y1="58.711765"
       x2="25.756926"
       y2="5.950614"
       gradientUnits="userSpaceOnUse" />
    <filter
       style="color-interpolation-filters:sRGB;"
       inkscape:label="Out of Focus"
       id="filter40"
       x="-0.24226652"
       y="-0.2858297"
       width="1.484533"
       height="1.5716594">
      <feFlood
         flood-opacity="1"
         flood-color="rgb(255,255,255)"
         result="flood"
         id="feFlood38" />
      <feColorMatrix
         in="SourceGraphic"
         values="1 0 0 0 0 0 1 0 0 0 0 0 1 0 0 -0.2125 -0.7154 -0.0721 1 0 "
         result="colormatrix1"
         id="feColorMatrix38" />
      <feGaussianBlur
         in="colormatrix1"
         stdDeviation="3 3"
         result="blur"
         id="feGaussianBlur38" />
      <feColorMatrix
         in="blur"
         values="1 0 0 0 0 0 1 0 0 0 0 0 1 0 0 0 0 0 6 -2 "
         result="colormatrix2"
         id="feColorMatrix39" />
      <feBlend
         in="colormatrix2"
         in2="flood"
         mode="normal"
         result="blend"
         id="feBlend39" />
      <feComposite
         in="blend"
         in2="blend"
         operator="arithmetic"
         k2="0.2"
         result="composite1"
         id="feComposite39" />
      <feComposite
         in2="SourceGraphic"
         operator="in"
         id="feComposite40" />
    </filter>
  </defs>
  <g
     id="g877"
     transform="matrix(1.1,0,0,1.1,-3.1845928,-3.2065454)">
    <ellipse
       style="opacity:0.5;fill:#000000;stroke:none;stroke-width:3.89319;stroke-dasharray:none;stroke-opacity:1;filter:url(#filter9)"
       id="path2-5"
       cx="31.949858"
       cy="31.969812"
       rx="25.124426"
       ry="25.268976"
       transform="matrix(1.05,0,0,1.05,-1.5974929,-1.5984906)" />
    <path
       style="fill:#f5f7fa;stroke-width:0.204426;fill-opacity:1"
       d=""
       id="path3" />
    <circle
       style="opacity:1;fill:url(#linearGradient8);stroke:url(#linearGradient7);stroke-width:3.81818;stroke-dasharray:none;stroke-opacity:1"
       id="path2"
       cx="31.949856"
       cy="31.969812"
       r="24.711082" />
    <ellipse
       style="opacity:0.3;fill:none;stroke:#000000;stroke-width:0.974376;stroke-dasharray:none;stroke-opacity:1"
       id="path2-9"
       cx="31.949856"
       cy="31.969812"
       rx="23.129124"
       ry="23.129126" />
  </g>
  <path
     style="fill:#000000;fill-opacity:1;stroke:none;stroke-width:0.487357;stroke-dasharray:none;stroke-dashoffset:2.2;stroke-opacity:0.6;opacity:0.2"
     d="m 38.180635,48.823059 c -0.235823,-0.149918 -3.076356,-2.801207 -6.312292,-5.891763 -3.235938,-3.090551 -5.949037,-5.61321 -6.029103,-5.605914 -0.08008,0.0072 -1.329864,0.90334 -2.777327,1.991212 -1.447461,1.087866 -2.77791,2.028894 -2.95655,2.091165 -0.487893,0.170084 -0.855836,-0.02504 -1.969709,-1.044455 -1.080844,-0.989195 -1.318541,-1.413871 -1.115788,-1.99349 0.07821,-0.223625 0.987442,-1.124363 2.545139,-2.521421 1.332894,-1.195435 2.423442,-2.212471 2.423442,-2.26008 0,-0.04762 -1.114008,-1.160409 -2.475571,-2.472891 -2.636357,-2.541321 -2.789927,-2.756014 -2.446438,-3.420249 0.09893,-0.191275 0.632725,-0.758934 1.186249,-1.261458 1.586636,-1.440459 1.319141,-1.511348 4.841591,1.283119 l 2.923266,2.319118 5.915511,-5.32942 c 3.253531,-2.931179 6.102378,-5.439672 6.330768,-5.574426 0.682096,-0.402445 1.119209,-0.267358 4.577717,1.414759 3.611891,1.756713 3.682588,1.797586 3.994819,2.309673 0.223988,0.367373 0.230555,0.681261 0.230956,11.119517 4.78e-4,11.572119 0.02813,11.053302 -0.609386,11.632652 -0.152554,0.138789 -1.741352,0.957976 -3.530621,1.82047 -3.619145,1.744573 -4.013077,1.86025 -4.746669,1.393882 z M 39.58714,30.46821 39.55601,26.978879 35.297261,30.168685 c -2.342313,1.754392 -4.360155,3.257368 -4.484097,3.339948 -0.204503,0.136259 0.189458,0.480282 4.25875,3.71899 l 4.484096,3.56884 0.03182,-3.419459 c 0.01741,-1.880704 0.01741,-4.989662 0,-6.908794 z"
     id="path72-5" />
  <path
     style="fill:#4d4d4d;fill-opacity:1;stroke:none;stroke-width:0.487357;stroke-dasharray:none;stroke-dashoffset:2.2;stroke-opacity:0.6"
     d="m 38.180635,46.823059 c -0.235823,-0.149918 -3.076356,-2.801207 -6.312292,-5.891763 -3.235938,-3.090551 -5.949037,-5.61321 -6.029103,-5.605914 -0.08008,0.0072 -1.329864,0.90334 -2.777327,1.991212 -1.447461,1.087866 -2.77791,2.028894 -2.95655,2.091165 -0.487893,0.170084 -0.855836,-0.02504 -1.969709,-1.044455 -1.080844,-0.989195 -1.318541,-1.413871 -1.115788,-1.99349 0.07821,-0.223625 0.987442,-1.124363 2.545139,-2.521421 1.332894,-1.195435 2.423442,-2.212471 2.423442,-2.26008 0,-0.04762 -1.114008,-1.160409 -2.475571,-2.472891 -2.636357,-2.541321 -2.789927,-2.756014 -2.446438,-3.420249 0.09893,-0.191275 0.632725,-0.758934 1.186249,-1.261458 1.586636,-1.440459 1.319141,-1.511348 4.841591,1.283119 l 2.923266,2.319118 5.915511,-5.32942 c 3.253531,-2.931179 6.102378,-5.439672 6.330768,-5.574426 0.682096,-0.402445 1.119209,-0.267358 4.577717,1.414759 3.611891,1.756713 3.682588,1.797586 3.994819,2.309673 0.223988,0.367373 0.230555,0.681261 0.230956,11.119517 4.78e-4,11.572119 0.02813,11.053302 -0.609386,11.632652 -0.152554,0.138789 -1.741352,0.957976 -3.530621,1.82047 -3.619145,1.744573 -4.013077,1.86025 -4.746669,1.393882 z M 39.58714,28.46821 39.55601,24.978879 35.297261,28.168685 c -2.342313,1.754392 -4.360155,3.257368 -4.484097,3.339948 -0.204503,0.136259 0.189458,0.480282 4.25875,3.71899 l 4.484096,3.56884 0.03182,-3.419459 c 0.01741,-1.880704 0.01741,-4.989662 0,-6.908794 z"
     id="path72" />
</svg>
