<?xml version="1.0" encoding="UTF-8" standalone="no"?>
<svg
   width="64"
   height="64"
   version="1.1"
   id="svg73"
   sodipodi:docname="abcd.svg"
   inkscape:version="1.4.2 (ebf0e940d0, 2025-05-08)"
   xmlns:inkscape="http://www.inkscape.org/namespaces/inkscape"
   xmlns:sodipodi="http://sodipodi.sourceforge.net/DTD/sodipodi-0.dtd"
   xmlns:xlink="http://www.w3.org/1999/xlink"
   xmlns="http://www.w3.org/2000/svg"
   xmlns:svg="http://www.w3.org/2000/svg"
   xmlns:rdf="http://www.w3.org/1999/02/22-rdf-syntax-ns#"
   xmlns:cc="http://creativecommons.org/ns#"
   xmlns:dc="http://purl.org/dc/elements/1.1/">
  <metadata
     id="metadata77">
    <rdf:RDF>
      <cc:Work
         rdf:about="">
        <dc:format>image/svg+xml</dc:format>
        <dc:type
           rdf:resource="http://purl.org/dc/dcmitype/StillImage" />
      </cc:Work>
    </rdf:RDF>
  </metadata>
  <sodipodi:namedview
     pagecolor="#f5f7fa"
     bordercolor="#666666"
     borderopacity="1"
     objecttolerance="10"
     gridtolerance="10"
     guidetolerance="10"
     inkscape:pageopacity="0"
     inkscape:pageshadow="2"
     inkscape:window-width="1366"
     inkscape:window-height="927"
     id="namedview75"
     showgrid="false"
     inkscape:zoom="6.2890624"
     inkscape:cx="53.505591"
     inkscape:cy="29.734162"
     inkscape:window-x="24"
     inkscape:window-y="21"
     inkscape:window-maximized="0"
     inkscape:current-layer="svg73"
     inkscape:document-rotation="0"
     inkscape:pagecheckerboard="0"
     inkscape:showpageshadow="2"
     inkscape:deskcolor="#d1d1d1" />
  <defs
     id="defs29">
    <linearGradient
       id="linearGradient4"
       inkscape:collect="always">
      <stop
         style="stop-color:#5e81ac;stop-opacity:1;"
         offset="0"
         id="stop4" />
      <stop
         style="stop-color:#81a1c1;stop-opacity:1;"
         offset="0.5"
         id="stop1" />
    </linearGradient>
    <linearGradient
       id="linearGradient2"
       inkscape:collect="always">
      <stop
         style="stop-color:#eceff4;stop-opacity:1;"
         offset="0"
         id="stop2" />
      <stop
         style="stop-color:#d8dee9;stop-opacity:1;"
         offset="1"
         id="stop3" />
    </linearGradient>
    <linearGradient
       inkscape:collect="always"
       xlink:href="#linearGradient2"
       id="linearGradient8"
       x1="31.721739"
       y1="5.2278585"
       x2="31.88887"
       y2="59.145416"
       gradientUnits="userSpaceOnUse"
       gradientTransform="matrix(0.8505,0,0,0.8505,4.7765033,4.7794869)" />
    <filter
       style="color-interpolation-filters:sRGB;"
       inkscape:label="Blur"
       id="filter9"
       x="-0.047762285"
       y="-0.047489063"
       width="1.0955246"
       height="1.0949781">
      <feGaussianBlur
         stdDeviation="1 1"
         result="blur"
         id="feGaussianBlur9" />
    </filter>
    <linearGradient
       inkscape:collect="always"
       xlink:href="#linearGradient4"
       id="linearGradient7"
       x1="26.723248"
       y1="58.711765"
       x2="25.756926"
       y2="5.950614"
       gradientUnits="userSpaceOnUse" />
    <filter
       style="color-interpolation-filters:sRGB;"
       inkscape:label="Out of Focus"
       id="filter40"
       x="-0.24226652"
       y="-0.2858297"
       width="1.484533"
       height="1.5716594">
      <feFlood
         flood-opacity="1"
         flood-color="rgb(255,255,255)"
         result="flood"
         id="feFlood38" />
      <feColorMatrix
         in="SourceGraphic"
         values="1 0 0 0 0 0 1 0 0 0 0 0 1 0 0 -0.2125 -0.7154 -0.0721 1 0 "
         result="colormatrix1"
         id="feColorMatrix38" />
      <feGaussianBlur
         in="colormatrix1"
         stdDeviation="3 3"
         result="blur"
         id="feGaussianBlur38" />
      <feColorMatrix
         in="blur"
         values="1 0 0 0 0 0 1 0 0 0 0 0 1 0 0 0 0 0 6 -2 "
         result="colormatrix2"
         id="feColorMatrix39" />
      <feBlend
         in="colormatrix2"
         in2="flood"
         mode="normal"
         result="blend"
         id="feBlend39" />
      <feComposite
         in="blend"
         in2="blend"
         operator="arithmetic"
         k2="0.2"
         result="composite1"
         id="feComposite39" />
      <feComposite
         in2="SourceGraphic"
         operator="in"
         id="feComposite40" />
    </filter>
  </defs>
  <g
     id="g877"
     transform="matrix(1.1,0,0,1.1,-3.1845928,-3.2065454)">
    <ellipse
       style="opacity:0.5;fill:#000000;stroke:none;stroke-width:3.89319;stroke-dasharray:none;stroke-opacity:1;filter:url(#filter9)"
       id="path2-5"
       cx="31.949858"
       cy="31.969812"
       rx="25.124426"
       ry="25.268976"
       transform="matrix(1.05,0,0,1.05,-1.5974929,-1.5984906)" />
    <path
       style="fill:#f5f7fa;stroke-width:0.204426;fill-opacity:1"
       d=""
       id="path3" />
    <circle
       style="opacity:1;fill:url(#linearGradient8);stroke:url(#linearGradient7);stroke-width:3.81818;stroke-dasharray:none;stroke-opacity:1"
       id="path2"
       cx="31.949856"
       cy="31.969812"
       r="24.711082" />
    <ellipse
       style="opacity:0.3;fill:none;stroke:#000000;stroke-width:0.974376;stroke-dasharray:none;stroke-opacity:1"
       id="path2-9"
       cx="31.949856"
       cy="31.969812"
       rx="23.129124"
       ry="23.129126" />
  </g>
  <path
     style="fill:#000000;fill-opacity:1;stroke-width:0.0422666;opacity:0.2"
     d="m 22.595278,44.579017 c -2.909103,-0.385815 -5.138032,-2.476636 -5.669287,-5.318028 -0.117285,-0.627293 -0.106755,-1.784995 0.02169,-2.388088 0.274363,-1.287988 0.811605,-2.311659 1.69204,-3.224058 0.694097,-0.719294 1.402678,-1.20476 2.252526,-1.543261 0.454198,-0.180911 1.121227,-0.360653 1.526133,-0.411242 l 0.230968,-0.02884 0.0508,-0.259884 c 0.202022,-1.033323 0.712981,-1.968202 1.477576,-2.703461 0.629913,-0.605745 1.383965,-1.028743 2.224737,-1.24801 l 0.456045,-0.118935 0.174658,-0.28675 c 0.646975,-1.062226 1.586343,-1.987662 2.662946,-2.623444 0.739331,-0.436606 1.654234,-0.773723 2.536022,-0.934453 0.595229,-0.108504 1.983058,-0.108504 2.578288,0 2.408455,0.439008 4.403458,1.932962 5.494724,4.114708 0.506979,1.013593 0.738022,1.975679 0.771058,3.210716 l 0.02214,0.811471 0.110751,0.02068 c 0.06094,0.01141 0.224953,0.03322 0.364419,0.0485 0.40112,0.04407 1.150905,0.24785 1.595698,0.433699 0.842396,0.351988 1.514992,0.818183 2.190766,1.518494 0.880438,0.912401 1.417676,1.936071 1.692045,3.224059 0.128469,0.603094 0.138994,1.760793 0.02214,2.388087 -0.381062,2.038041 -1.683413,3.767772 -3.513662,4.666662 -0.550871,0.270581 -0.984125,0.424323 -1.59424,0.565822 l -0.392314,0.09096 -9.425546,0.0055 c -5.183892,0.0033 -9.482449,-0.002 -9.552187,-0.01121 z m 5.875116,-3.606772 c 0.641119,-0.244171 1.196608,-0.797348 1.392158,-1.386359 0.129185,-0.389109 0.147989,-0.85771 0.149566,-3.727394 l 0.0015,-2.895289 2.694231,-0.948157 c 1.481828,-0.521482 2.71801,-0.956226 2.747069,-0.966093 0.04178,-0.01417 0.05283,0.40832 0.05283,2.020327 v 2.038266 l -0.0951,-0.0308 c -0.05232,-0.0169 -0.29724,-0.04018 -0.544308,-0.05171 -0.344513,-0.01606 -0.507056,-0.0044 -0.697404,0.05035 -0.796751,0.228747 -1.462871,0.925915 -1.623372,1.699038 -0.07164,0.34504 -0.03298,0.992722 0.07736,1.296656 0.227811,0.627503 0.71917,1.124625 1.350223,1.366064 0.376721,0.144108 0.972175,0.181016 1.351941,0.08372 0.81778,-0.209505 1.471326,-0.855929 1.681613,-1.663295 0.09073,-0.348269 0.09563,-10.466426 0.0055,-10.445027 -0.03178,0.0075 -1.971659,0.688881 -4.310781,1.514143 l -4.253194,1.500503 -4.47e-4,3.096059 c -2.45e-4,1.702831 -0.01476,3.095601 -0.03215,3.09505 -0.01747,-5.57e-4 -0.107778,-0.01991 -0.20077,-0.04292 -0.299564,-0.07427 -0.90156,-0.05379 -1.207686,0.04111 -0.917494,0.284426 -1.541684,1.097322 -1.592496,2.073943 -0.03646,0.700874 0.173991,1.252806 0.660788,1.732981 0.306616,0.302469 0.608795,0.484054 0.998157,0.599901 0.36089,0.107371 1.044535,0.08235 1.39481,-0.05105 z"
     id="path7-2" />
  <path
     style="fill:#4d4d4d;fill-opacity:1;stroke-width:0.0422666"
     d="m 22.595278,42.579017 c -2.909103,-0.385815 -5.138032,-2.476636 -5.669287,-5.318028 -0.117285,-0.627293 -0.106755,-1.784995 0.02169,-2.388088 0.274363,-1.287988 0.811605,-2.311659 1.69204,-3.224058 0.694097,-0.719294 1.402678,-1.20476 2.252526,-1.543261 0.454198,-0.180911 1.121227,-0.360653 1.526133,-0.411242 l 0.230968,-0.02884 0.0508,-0.259884 c 0.202022,-1.033323 0.712981,-1.968202 1.477576,-2.703461 0.629913,-0.605745 1.383965,-1.028743 2.224737,-1.24801 l 0.456045,-0.118935 0.174658,-0.28675 c 0.646975,-1.062226 1.586343,-1.987662 2.662946,-2.623444 0.739331,-0.436606 1.654234,-0.773723 2.536022,-0.934453 0.595229,-0.108504 1.983058,-0.108504 2.578288,0 2.408455,0.439008 4.403458,1.932962 5.494724,4.114708 0.506979,1.013593 0.738022,1.975679 0.771058,3.210716 l 0.02214,0.811471 0.110751,0.02068 c 0.06094,0.01141 0.224953,0.03322 0.364419,0.0485 0.40112,0.04407 1.150905,0.24785 1.595698,0.433699 0.842396,0.351988 1.514992,0.818183 2.190766,1.518494 0.880438,0.912401 1.417676,1.936071 1.692045,3.224059 0.128469,0.603094 0.138994,1.760793 0.02214,2.388087 -0.381062,2.038041 -1.683413,3.767772 -3.513662,4.666662 -0.550871,0.270581 -0.984125,0.424323 -1.59424,0.565822 l -0.392314,0.09096 -9.425546,0.0055 c -5.183892,0.0033 -9.482449,-0.002 -9.552187,-0.01121 z m 5.875116,-3.606772 c 0.641119,-0.244171 1.196608,-0.797348 1.392158,-1.386359 0.129185,-0.389109 0.147989,-0.85771 0.149566,-3.727394 l 0.0015,-2.895289 2.694231,-0.948157 c 1.481828,-0.521482 2.71801,-0.956226 2.747069,-0.966093 0.04178,-0.01417 0.05283,0.40832 0.05283,2.020327 v 2.038266 l -0.0951,-0.0308 c -0.05232,-0.0169 -0.29724,-0.04018 -0.544308,-0.05171 -0.344513,-0.01606 -0.507056,-0.0044 -0.697404,0.05035 -0.796751,0.228747 -1.462871,0.925915 -1.623372,1.699038 -0.07164,0.34504 -0.03298,0.992722 0.07736,1.296656 0.227811,0.627503 0.71917,1.124625 1.350223,1.366064 0.376721,0.144108 0.972175,0.181016 1.351941,0.08372 0.81778,-0.209505 1.471326,-0.855929 1.681613,-1.663295 0.09073,-0.348269 0.09563,-10.466426 0.0055,-10.445027 -0.03178,0.0075 -1.971659,0.688881 -4.310781,1.514143 l -4.253194,1.500503 -4.47e-4,3.096059 c -2.45e-4,1.702831 -0.01476,3.095601 -0.03215,3.09505 -0.01747,-5.57e-4 -0.107778,-0.01991 -0.20077,-0.04292 -0.299564,-0.07427 -0.90156,-0.05379 -1.207686,0.04111 -0.917494,0.284426 -1.541684,1.097322 -1.592496,2.073943 -0.03646,0.700874 0.173991,1.252806 0.660788,1.732981 0.306616,0.302469 0.608795,0.484054 0.998157,0.599901 0.36089,0.107371 1.044535,0.08235 1.39481,-0.05105 z"
     id="path7" />
</svg>
