<?xml version="1.0" encoding="UTF-8" standalone="no"?>
<svg
   width="64"
   height="64"
   version="1.1"
   id="svg73"
   sodipodi:docname="abcd.svg"
   inkscape:version="1.4.2 (ebf0e940d0, 2025-05-08)"
   xmlns:inkscape="http://www.inkscape.org/namespaces/inkscape"
   xmlns:sodipodi="http://sodipodi.sourceforge.net/DTD/sodipodi-0.dtd"
   xmlns:xlink="http://www.w3.org/1999/xlink"
   xmlns="http://www.w3.org/2000/svg"
   xmlns:svg="http://www.w3.org/2000/svg"
   xmlns:rdf="http://www.w3.org/1999/02/22-rdf-syntax-ns#"
   xmlns:cc="http://creativecommons.org/ns#"
   xmlns:dc="http://purl.org/dc/elements/1.1/">
  <metadata
     id="metadata77">
    <rdf:RDF>
      <cc:Work
         rdf:about="">
        <dc:format>image/svg+xml</dc:format>
        <dc:type
           rdf:resource="http://purl.org/dc/dcmitype/StillImage" />
      </cc:Work>
    </rdf:RDF>
  </metadata>
  <sodipodi:namedview
     pagecolor="#f5f7fa"
     bordercolor="#666666"
     borderopacity="1"
     objecttolerance="10"
     gridtolerance="10"
     guidetolerance="10"
     inkscape:pageopacity="0"
     inkscape:pageshadow="2"
     inkscape:window-width="1345"
     inkscape:window-height="785"
     id="namedview75"
     showgrid="false"
     inkscape:zoom="6.2890624"
     inkscape:cx="31.880746"
     inkscape:cy="29.734162"
     inkscape:window-x="24"
     inkscape:window-y="21"
     inkscape:window-maximized="0"
     inkscape:current-layer="svg73"
     inkscape:document-rotation="0"
     inkscape:pagecheckerboard="0"
     inkscape:showpageshadow="2"
     inkscape:deskcolor="#d1d1d1" />
  <defs
     id="defs29">
    <linearGradient
       id="linearGradient4"
       inkscape:collect="always">
      <stop
         style="stop-color:#5e81ac;stop-opacity:1;"
         offset="0"
         id="stop4" />
      <stop
         style="stop-color:#81a1c1;stop-opacity:1;"
         offset="0.5"
         id="stop1" />
    </linearGradient>
    <linearGradient
       id="linearGradient2"
       inkscape:collect="always">
      <stop
         style="stop-color:#eceff4;stop-opacity:1;"
         offset="0"
         id="stop2" />
      <stop
         style="stop-color:#d8dee9;stop-opacity:1;"
         offset="1"
         id="stop3" />
    </linearGradient>
    <linearGradient
       inkscape:collect="always"
       xlink:href="#linearGradient2"
       id="linearGradient8"
       x1="31.721739"
       y1="5.2278585"
       x2="31.88887"
       y2="59.145416"
       gradientUnits="userSpaceOnUse"
       gradientTransform="matrix(0.8505,0,0,0.8505,4.7765033,4.7794869)" />
    <filter
       style="color-interpolation-filters:sRGB;"
       inkscape:label="Blur"
       id="filter9"
       x="-0.047762285"
       y="-0.047489063"
       width="1.0955246"
       height="1.0949781">
      <feGaussianBlur
         stdDeviation="1 1"
         result="blur"
         id="feGaussianBlur9" />
    </filter>
    <linearGradient
       inkscape:collect="always"
       xlink:href="#linearGradient4"
       id="linearGradient7"
       x1="26.723248"
       y1="58.711765"
       x2="25.756926"
       y2="5.950614"
       gradientUnits="userSpaceOnUse" />
    <filter
       style="color-interpolation-filters:sRGB;"
       inkscape:label="Out of Focus"
       id="filter40"
       x="-0.24226652"
       y="-0.2858297"
       width="1.484533"
       height="1.5716594">
      <feFlood
         flood-opacity="1"
         flood-color="rgb(255,255,255)"
         result="flood"
         id="feFlood38" />
      <feColorMatrix
         in="SourceGraphic"
         values="1 0 0 0 0 0 1 0 0 0 0 0 1 0 0 -0.2125 -0.7154 -0.0721 1 0 "
         result="colormatrix1"
         id="feColorMatrix38" />
      <feGaussianBlur
         in="colormatrix1"
         stdDeviation="3 3"
         result="blur"
         id="feGaussianBlur38" />
      <feColorMatrix
         in="blur"
         values="1 0 0 0 0 0 1 0 0 0 0 0 1 0 0 0 0 0 6 -2 "
         result="colormatrix2"
         id="feColorMatrix39" />
      <feBlend
         in="colormatrix2"
         in2="flood"
         mode="normal"
         result="blend"
         id="feBlend39" />
      <feComposite
         in="blend"
         in2="blend"
         operator="arithmetic"
         k2="0.2"
         result="composite1"
         id="feComposite39" />
      <feComposite
         in2="SourceGraphic"
         operator="in"
         id="feComposite40" />
    </filter>
  </defs>
  <g
     id="g877"
     transform="matrix(1.1,0,0,1.1,-3.1845928,-3.2065454)">
    <ellipse
       style="opacity:0.5;fill:#000000;stroke:none;stroke-width:3.89319;stroke-dasharray:none;stroke-opacity:1;filter:url(#filter9)"
       id="path2-5"
       cx="31.949858"
       cy="31.969812"
       rx="25.124426"
       ry="25.268976"
       transform="matrix(1.05,0,0,1.05,-1.5974929,-1.5984906)" />
    <path
       style="fill:#f5f7fa;stroke-width:0.204426;fill-opacity:1"
       d=""
       id="path3" />
    <circle
       style="opacity:1;fill:url(#linearGradient8);stroke:url(#linearGradient7);stroke-width:3.81818;stroke-dasharray:none;stroke-opacity:1"
       id="path2"
       cx="31.949856"
       cy="31.969812"
       r="24.711082" />
    <ellipse
       style="opacity:0.3;fill:none;stroke:#000000;stroke-width:0.974376;stroke-dasharray:none;stroke-opacity:1"
       id="path2-9"
       cx="31.949856"
       cy="31.969812"
       rx="23.129124"
       ry="23.129126" />
  </g>
  <path
     style="fill:#000000;fill-opacity:1;stroke:none;stroke-width:0.437628;stroke-dasharray:none;stroke-opacity:0.6;opacity:0.2"
     d="m 26.415771,19.964205 c -0.355693,-0.01001 -0.689741,0.02196 -0.912365,0.09595 -1.092164,0.36949 -1.777542,1.164478 -2.156777,2.491867 -0.327639,1.156824 -0.319192,3.239452 0.02286,5.052279 0.06003,0.314978 0.121172,0.601155 0.135559,0.647339 0.01802,0.06511 -0.09777,0.106326 -0.61383,0.222378 -2.522814,0.568347 -4.364615,1.415018 -5.471149,2.516238 -0.496844,0.490226 -0.772551,0.919565 -0.932165,1.460699 -0.112812,0.375369 -0.112812,1.119006 0,1.489636 0.309681,1.018321 1.181119,1.975761 2.558888,2.82239 0.956512,0.58259 1.242453,0.646686 1.552085,0.341185 0.145218,-0.143275 0.178207,-0.210621 0.178207,-0.382311 0,-0.332726 -0.104379,-0.467382 -0.554427,-0.721969 -2.821533,-1.567644 -3.317442,-3.140208 -1.433276,-4.537455 0.956543,-0.708068 2.29247,-1.268318 4.092693,-1.70288 0.788491,-0.189455 0.965676,-0.213021 0.965676,-0.111186 0,0.138499 0.580339,1.970482 0.880378,2.761465 l 0.310722,0.82859 -0.408204,0.77528 c -1.631029,3.108152 -2.678099,6.277892 -2.804114,8.595119 -0.103213,1.785535 0.225128,3.062585 1.022031,3.853564 0.87134,0.860855 2.100539,1.044977 3.679925,0.545287 0.595172,-0.189433 1.777088,-0.781434 2.465972,-1.244413 0.496865,-0.328006 0.605694,-0.425387 0.671709,-0.597074 0.066,-0.171662 0.066,-0.226707 0,-0.406679 -0.09842,-0.268751 -0.305583,-0.417343 -0.586412,-0.417343 -0.182422,0 -0.307557,0.05513 -0.776804,0.370128 -1.064513,0.712834 -2.063165,1.157646 -2.892455,1.296195 -1.148489,0.194234 -1.885037,-0.305548 -2.222271,-1.489637 -0.14523,-0.51392 -0.136769,-2.159889 0.02285,-3.011261 0.243649,-1.354592 0.669785,-2.761834 1.279455,-4.241964 0.361222,-0.878575 1.050259,-2.349083 1.143874,-2.446175 0.04679,-0.05091 0.10868,0.03214 0.263508,0.383833 0.788506,1.74763 1.993531,3.880009 3.169667,5.605179 2.808461,4.113531 5.882995,6.791892 8.25089,7.175547 l -0.02582,0.0045 c 1.04051,0.165772 1.917684,-0.08985 2.596958,-0.760056 0.553254,-0.555411 0.919184,-1.336317 1.125609,-2.423325 0.126035,-0.679711 0.126035,-2.581325 0,-3.510855 -0.384102,-2.770606 -1.405545,-5.947293 -2.938118,-9.111282 -0.238846,-0.494952 -0.374259,-0.61535 -0.683892,-0.61535 -0.346843,-0.0045 -0.629056,0.258254 -0.629056,0.59098 0,0.116039 0.118472,0.430231 0.31529,0.842298 1.888956,3.972688 2.901235,7.816236 2.798023,10.596533 -0.06359,1.656547 -0.482779,2.651985 -1.274878,3.035634 -0.416476,0.202498 -0.942165,0.198213 -1.635851,-0.02461 -3.184183,-1.063428 -7.49726,-6.382978 -10.276793,-12.674144 l -0.277208,-0.627496 0.403635,-0.68085 c 0.454796,-0.772044 1.60315,-2.496602 2.132404,-3.204701 l 0.356415,-0.47065 h 0.938251 c 5.697071,0 11.335996,1.270513 14.32672,3.218409 0.60967,0.397845 1.344973,1.125467 1.565792,1.550564 0.159635,0.29603 0.175188,0.374544 0.175188,0.767664 0,0.384841 -0.01549,0.477196 -0.146239,0.712834 -0.366096,0.693842 -1.331964,1.414403 -2.574113,1.928304 -0.576063,0.24038 -0.731117,0.398536 -0.731117,0.72654 0,0.27708 0.183967,0.5081 0.459991,0.59098 0.178802,0.05091 0.23971,0.04209 0.558999,-0.08224 2.00667,-0.782652 3.380812,-1.998787 3.661643,-3.22907 0.0792,-0.332729 0.07313,-0.957704 -0.0064,-1.280966 -0.149725,-0.634624 -0.682952,-1.44785 -1.297425,-1.993724 -2.737488,-2.423911 -8.545881,-3.986829 -15.437095,-4.149052 l -0.491978,-0.01522 0.575751,-0.6382 c 0.30963,-0.356418 0.862111,-0.947751 1.241365,-1.32666 1.959883,-1.965676 3.780066,-3.251658 5.369089,-3.788067 0.506462,-0.175256 0.607561,-0.194965 1.133222,-0.194965 0.488456,0 0.605185,0.01531 0.816407,0.121854 0.286826,0.133803 0.609344,0.461997 0.773765,0.772235 0.322824,0.633545 0.432039,1.743371 0.277226,2.927486 -0.05158,0.40733 -0.09447,0.878088 -0.09447,1.040312 0,0.273536 0.0091,0.315519 0.169082,0.449326 0.130866,0.120779 0.220662,0.152317 0.389922,0.152317 0.272424,0 0.524517,-0.142418 0.600122,-0.336616 0.224402,-0.573185 0.341696,-2.604474 0.196506,-3.460589 -0.225675,-1.314382 -0.797756,-2.202163 -1.707465,-2.631996 -1.608151,-0.767369 -3.942451,-0.01805 -6.666812,2.136974 -1.424622,1.128435 -3.300063,3.042957 -4.593809,4.680629 l -0.126421,0.147751 -0.764617,0.04265 c -0.641968,0.03672 -1.687046,0.138513 -2.901599,0.281783 l -0.261977,0.03197 -0.112716,-0.633627 c -0.21956,-1.262334 -0.239069,-1.451621 -0.239069,-2.659415 0,-1.059761 0.01401,-1.264076 0.117287,-1.68917 0.253225,-1.072829 0.755239,-1.739495 1.416525,-1.878035 0.909753,-0.189396 2.039438,0.259143 3.623564,1.41957 0.506461,0.375357 1.122016,0.05591 1.046403,-0.536145 -0.03242,-0.258121 -0.271898,-0.481219 -1.078394,-1.012887 -0.675702,-0.448767 -1.433935,-0.819196 -2.053203,-0.999183 -0.304841,-0.08999 -0.681569,-0.140875 -1.037262,-0.15079 z m 0.820975,9.106898 c 0.231407,-0.01471 0.385357,-0.01741 0.385357,0 0,0.02366 -0.215207,0.351853 -0.482838,0.740247 -0.26763,0.383652 -0.646998,0.947552 -0.843822,1.267258 -0.192022,0.310238 -0.38013,0.592188 -0.417343,0.633629 -0.05159,0.05447 -0.127185,-0.09377 -0.356417,-0.814885 -0.327654,-0.994581 -0.468485,-1.530273 -0.426483,-1.576454 0.05216,-0.05239 1.447331,-0.205721 2.141546,-0.249795 z m 4.762881,3.369199 c -0.860961,0 -1.559703,0.701414 -1.559703,1.561222 0,0.859827 0.698758,1.558181 1.559703,1.558181 0.860957,0 1.5597,-0.698367 1.5597,-1.558181 0,-0.85977 -0.698757,-1.561222 -1.5597,-1.561222 z"
     id="path3-7-4" />
  <path
     style="fill:#4d4d4d;fill-opacity:1;stroke:none;stroke-width:0.437628;stroke-dasharray:none;stroke-opacity:0.6"
     d="m 26.415771,17.964205 c -0.355693,-0.01001 -0.689741,0.02196 -0.912365,0.09595 -1.092164,0.36949 -1.777542,1.164478 -2.156777,2.491867 -0.327639,1.156824 -0.319192,3.239452 0.02286,5.052279 0.06003,0.314978 0.121172,0.601155 0.135559,0.647339 0.01802,0.06511 -0.09777,0.106326 -0.61383,0.222378 -2.522814,0.568347 -4.364615,1.415018 -5.471149,2.516238 -0.496844,0.490226 -0.772551,0.919565 -0.932165,1.460699 -0.112812,0.375369 -0.112812,1.119006 0,1.489636 0.309681,1.018321 1.181119,1.975761 2.558888,2.82239 0.956512,0.58259 1.242453,0.646686 1.552085,0.341185 0.145218,-0.143275 0.178207,-0.210621 0.178207,-0.382311 0,-0.332726 -0.104379,-0.467382 -0.554427,-0.721969 -2.821533,-1.567644 -3.317442,-3.140208 -1.433276,-4.537455 0.956543,-0.708068 2.29247,-1.268318 4.092693,-1.70288 0.788491,-0.189455 0.965676,-0.213021 0.965676,-0.111186 0,0.138499 0.580339,1.970482 0.880378,2.761465 l 0.310722,0.82859 -0.408204,0.77528 c -1.631029,3.108152 -2.678099,6.277892 -2.804114,8.595119 -0.103213,1.785535 0.225128,3.062585 1.022031,3.853564 0.87134,0.860855 2.100539,1.044977 3.679925,0.545287 0.595172,-0.189433 1.777088,-0.781434 2.465972,-1.244413 0.496865,-0.328006 0.605694,-0.425387 0.671709,-0.597074 0.066,-0.171662 0.066,-0.226707 0,-0.406679 -0.09842,-0.268751 -0.305583,-0.417343 -0.586412,-0.417343 -0.182422,0 -0.307557,0.05513 -0.776804,0.370128 -1.064513,0.712834 -2.063165,1.157646 -2.892455,1.296195 -1.148489,0.194234 -1.885037,-0.305548 -2.222271,-1.489637 -0.14523,-0.51392 -0.136769,-2.159889 0.02285,-3.011261 0.243649,-1.354592 0.669785,-2.761834 1.279455,-4.241964 0.361222,-0.878575 1.050259,-2.349083 1.143874,-2.446175 0.04679,-0.05091 0.10868,0.03214 0.263508,0.383833 0.788506,1.74763 1.993531,3.880009 3.169667,5.605179 2.808461,4.113531 5.882995,6.791892 8.25089,7.175547 l -0.02582,0.0045 c 1.04051,0.165772 1.917684,-0.08985 2.596958,-0.760056 0.553254,-0.555411 0.919184,-1.336317 1.125609,-2.423325 0.126035,-0.679711 0.126035,-2.581325 0,-3.510855 -0.384102,-2.770606 -1.405545,-5.947293 -2.938118,-9.111282 -0.238846,-0.494952 -0.374259,-0.61535 -0.683892,-0.61535 -0.346843,-0.0045 -0.629056,0.258254 -0.629056,0.59098 0,0.116039 0.118472,0.430231 0.31529,0.842298 1.888956,3.972688 2.901235,7.816236 2.798023,10.596533 -0.06359,1.656547 -0.482779,2.651985 -1.274878,3.035634 -0.416476,0.202498 -0.942165,0.198213 -1.635851,-0.02461 -3.184183,-1.063428 -7.49726,-6.382978 -10.276793,-12.674144 l -0.277208,-0.627496 0.403635,-0.68085 c 0.454796,-0.772044 1.60315,-2.496602 2.132404,-3.204701 l 0.356415,-0.47065 h 0.938251 c 5.697071,0 11.335996,1.270513 14.32672,3.218409 0.60967,0.397845 1.344973,1.125467 1.565792,1.550564 0.159635,0.29603 0.175188,0.374544 0.175188,0.767664 0,0.384841 -0.01549,0.477196 -0.146239,0.712834 -0.366096,0.693842 -1.331964,1.414403 -2.574113,1.928304 -0.576063,0.24038 -0.731117,0.398536 -0.731117,0.72654 0,0.27708 0.183967,0.5081 0.459991,0.59098 0.178802,0.05091 0.23971,0.04209 0.558999,-0.08224 2.00667,-0.782652 3.380812,-1.998787 3.661643,-3.22907 0.0792,-0.332729 0.07313,-0.957704 -0.0064,-1.280966 -0.149725,-0.634624 -0.682952,-1.44785 -1.297425,-1.993724 -2.737488,-2.423911 -8.545881,-3.986829 -15.437095,-4.149052 l -0.491978,-0.01522 0.575751,-0.6382 c 0.30963,-0.356418 0.862111,-0.947751 1.241365,-1.32666 1.959883,-1.965676 3.780066,-3.251658 5.369089,-3.788067 0.506462,-0.175256 0.607561,-0.194965 1.133222,-0.194965 0.488456,0 0.605185,0.01531 0.816407,0.121854 0.286826,0.133803 0.609344,0.461997 0.773765,0.772235 0.322824,0.633545 0.432039,1.743371 0.277226,2.927486 -0.05158,0.40733 -0.09447,0.878088 -0.09447,1.040312 0,0.273536 0.0091,0.315519 0.169082,0.449326 0.130866,0.120779 0.220662,0.152317 0.389922,0.152317 0.272424,0 0.524517,-0.142418 0.600122,-0.336616 0.224402,-0.573185 0.341696,-2.604474 0.196506,-3.460589 -0.225675,-1.314382 -0.797756,-2.202163 -1.707465,-2.631996 -1.608151,-0.767369 -3.942451,-0.01805 -6.666812,2.136974 -1.424622,1.128435 -3.300063,3.042957 -4.593809,4.680629 l -0.126421,0.147751 -0.764617,0.04265 c -0.641968,0.03672 -1.687046,0.138513 -2.901599,0.281783 l -0.261977,0.03197 -0.112716,-0.633627 c -0.21956,-1.262334 -0.239069,-1.451621 -0.239069,-2.659415 0,-1.059761 0.01401,-1.264076 0.117287,-1.68917 0.253225,-1.072829 0.755239,-1.739495 1.416525,-1.878035 0.909753,-0.189396 2.039438,0.259143 3.623564,1.41957 0.506461,0.375357 1.122016,0.05591 1.046403,-0.536145 -0.03242,-0.258121 -0.271898,-0.481219 -1.078394,-1.012887 -0.675702,-0.448767 -1.433935,-0.819196 -2.053203,-0.999183 -0.304841,-0.08999 -0.681569,-0.140875 -1.037262,-0.15079 z m 0.820975,9.106898 c 0.231407,-0.01471 0.385357,-0.01741 0.385357,0 0,0.02366 -0.215207,0.351853 -0.482838,0.740247 -0.26763,0.383652 -0.646998,0.947552 -0.843822,1.267258 -0.192022,0.310238 -0.38013,0.592188 -0.417343,0.633629 -0.05159,0.05447 -0.127185,-0.09377 -0.356417,-0.814885 -0.327654,-0.994581 -0.468485,-1.530273 -0.426483,-1.576454 0.05216,-0.05239 1.447331,-0.205721 2.141546,-0.249795 z m 4.762881,3.369199 c -0.860961,0 -1.559703,0.701414 -1.559703,1.561222 0,0.859827 0.698758,1.558181 1.559703,1.558181 0.860957,0 1.5597,-0.698367 1.5597,-1.558181 0,-0.85977 -0.698757,-1.561222 -1.5597,-1.561222 z"
     id="path3-7" />
</svg>
