<?xml version="1.0" encoding="UTF-8" standalone="no"?>
<svg
   width="64"
   height="64"
   version="1.1"
   id="svg73"
   sodipodi:docname="preferences-system.svg"
   inkscape:version="1.4.2 (ebf0e940d0, 2025-05-08)"
   xmlns:inkscape="http://www.inkscape.org/namespaces/inkscape"
   xmlns:sodipodi="http://sodipodi.sourceforge.net/DTD/sodipodi-0.dtd"
   xmlns:xlink="http://www.w3.org/1999/xlink"
   xmlns="http://www.w3.org/2000/svg"
   xmlns:svg="http://www.w3.org/2000/svg"
   xmlns:rdf="http://www.w3.org/1999/02/22-rdf-syntax-ns#"
   xmlns:cc="http://creativecommons.org/ns#"
   xmlns:dc="http://purl.org/dc/elements/1.1/">
  <metadata
     id="metadata77">
    <rdf:RDF>
      <cc:Work
         rdf:about="">
        <dc:format>image/svg+xml</dc:format>
        <dc:type
           rdf:resource="http://purl.org/dc/dcmitype/StillImage" />
      </cc:Work>
    </rdf:RDF>
  </metadata>
  <sodipodi:namedview
     pagecolor="#f5f7fa"
     bordercolor="#666666"
     borderopacity="1"
     objecttolerance="10"
     gridtolerance="10"
     guidetolerance="10"
     inkscape:pageopacity="0"
     inkscape:pageshadow="2"
     inkscape:window-width="1531"
     inkscape:window-height="809"
     id="namedview75"
     showgrid="false"
     inkscape:zoom="6.2890624"
     inkscape:cx="30.290684"
     inkscape:cy="29.734162"
     inkscape:window-x="24"
     inkscape:window-y="21"
     inkscape:window-maximized="0"
     inkscape:current-layer="g877"
     inkscape:document-rotation="0"
     inkscape:pagecheckerboard="0"
     inkscape:showpageshadow="2"
     inkscape:deskcolor="#d1d1d1" />
  <defs
     id="defs29">
    <linearGradient
       id="linearGradient4"
       inkscape:collect="always">
      <stop
         style="stop-color:#5e81ac;stop-opacity:1;"
         offset="0"
         id="stop4" />
      <stop
         style="stop-color:#81a1c1;stop-opacity:1;"
         offset="0.5"
         id="stop1" />
    </linearGradient>
    <linearGradient
       id="linearGradient2"
       inkscape:collect="always">
      <stop
         style="stop-color:#eceff4;stop-opacity:1;"
         offset="0"
         id="stop2" />
      <stop
         style="stop-color:#d8dee9;stop-opacity:1;"
         offset="1"
         id="stop3" />
    </linearGradient>
    <linearGradient
       inkscape:collect="always"
       xlink:href="#linearGradient2"
       id="linearGradient8"
       x1="31.721739"
       y1="5.2278585"
       x2="31.88887"
       y2="59.145416"
       gradientUnits="userSpaceOnUse"
       gradientTransform="matrix(0.8505,0,0,0.8505,4.7765033,4.7794869)" />
    <filter
       style="color-interpolation-filters:sRGB;"
       inkscape:label="Blur"
       id="filter9"
       x="-0.047762285"
       y="-0.047489063"
       width="1.0955246"
       height="1.0949781">
      <feGaussianBlur
         stdDeviation="1 1"
         result="blur"
         id="feGaussianBlur9" />
    </filter>
    <linearGradient
       inkscape:collect="always"
       xlink:href="#linearGradient4"
       id="linearGradient7"
       x1="26.723248"
       y1="58.711765"
       x2="25.756926"
       y2="5.950614"
       gradientUnits="userSpaceOnUse" />
    <filter
       style="color-interpolation-filters:sRGB;"
       inkscape:label="Out of Focus"
       id="filter40"
       x="-0.24226652"
       y="-0.2858297"
       width="1.484533"
       height="1.5716594">
      <feFlood
         flood-opacity="1"
         flood-color="rgb(255,255,255)"
         result="flood"
         id="feFlood38" />
      <feColorMatrix
         in="SourceGraphic"
         values="1 0 0 0 0 0 1 0 0 0 0 0 1 0 0 -0.2125 -0.7154 -0.0721 1 0 "
         result="colormatrix1"
         id="feColorMatrix38" />
      <feGaussianBlur
         in="colormatrix1"
         stdDeviation="3 3"
         result="blur"
         id="feGaussianBlur38" />
      <feColorMatrix
         in="blur"
         values="1 0 0 0 0 0 1 0 0 0 0 0 1 0 0 0 0 0 6 -2 "
         result="colormatrix2"
         id="feColorMatrix39" />
      <feBlend
         in="colormatrix2"
         in2="flood"
         mode="normal"
         result="blend"
         id="feBlend39" />
      <feComposite
         in="blend"
         in2="blend"
         operator="arithmetic"
         k2="0.2"
         result="composite1"
         id="feComposite39" />
      <feComposite
         in2="SourceGraphic"
         operator="in"
         id="feComposite40" />
    </filter>
  </defs>
  <g
     id="g877"
     transform="matrix(1.1,0,0,1.1,-3.1845928,-3.2065454)">
    <ellipse
       style="opacity:0.5;fill:#000000;stroke:none;stroke-width:3.89319;stroke-dasharray:none;stroke-opacity:1;filter:url(#filter9)"
       id="path2-5"
       cx="31.949858"
       cy="31.969812"
       rx="25.124426"
       ry="25.268976"
       transform="matrix(1.05,0,0,1.05,-1.5974929,-1.5984906)" />
    <path
       style="fill:#f5f7fa;stroke-width:0.204426;fill-opacity:1"
       d=""
       id="path3" />
    <circle
       style="opacity:1;fill:url(#linearGradient8);stroke:url(#linearGradient7);stroke-width:3.81818;stroke-dasharray:none;stroke-opacity:1"
       id="path2"
       cx="31.949856"
       cy="31.969812"
       r="24.711082" />
    <path
       id="path6-1"
       style="fill:#000000;fill-opacity:1;stroke:none;stroke-width:0.446513;stroke-dasharray:none;stroke-opacity:0.6;opacity:0.2"
       d="m 39.628088,24.05419 c -1.133182,-2.06e-4 -2.474314,0.0022 -4.043726,0.006 l -8.796545,0.02259 -0.290448,0.155442 c -0.386744,0.207156 -0.678773,0.505168 -0.840688,0.858145 -0.116842,0.254698 -0.132763,0.496524 -0.134174,2.007182 l -0.0032,1.717995 5.665071,0.01958 5.665464,0.02001 0.347101,0.172051 c 0.458397,0.227655 0.917996,0.684078 1.139236,1.131148 l 0.178829,0.361992 0.02056,4.144652 0.02056,4.145105 3.128926,-0.0031 c 2.873848,-0.003 3.152796,-0.01228 3.420239,-0.133723 0.359055,-0.163118 0.693428,-0.489622 0.874767,-0.854752 0.131666,-0.265039 0.137495,-0.532496 0.137495,-6.394579 v -6.11682 L 45.913392,24.966022 C 45.656634,24.529081 45.236559,24.222046 44.754222,24.11809 44.55364,24.07492 43.026206,24.05442 39.626624,24.05381 Z m -12.116277,6.146729 c -8.811475,0 -8.908073,0.0032 -9.14577,0.146486 -0.145085,0.08847 -0.296107,0.273094 -0.381585,0.466353 -0.137208,0.310166 -0.140945,0.499661 -0.121808,6.206338 0.01924,5.706659 0.02406,5.893151 0.161412,6.096056 0.07792,0.115068 0.240833,0.269778 0.361997,0.343662 0.211448,0.128936 0.580703,0.134306 9.182816,0.134613 h 8.962217 l 0.304942,-0.284075 0.304911,-0.284475 0.01871,-6.032582 c 0.0181,-5.919064 0.01595,-6.036976 -0.126022,-6.268495 -0.07941,-0.129819 -0.250876,-0.30078 -0.380674,-0.379907 -0.232065,-0.141509 -0.382487,-0.143946 -9.141084,-0.143946 z"
       sodipodi:nodetypes="ccccsccccccccccscscccccccccccccccscccc" />
    <path
       id="path6"
       style="fill:#4d4d4d;fill-opacity:1;stroke:none;stroke-width:0.446513;stroke-dasharray:none;stroke-opacity:0.6"
       d="m 39.628088,22.236008 c -1.133182,-2.06e-4 -2.474314,0.0022 -4.043726,0.006 l -8.796545,0.02259 -0.290448,0.155442 c -0.386744,0.207156 -0.678773,0.505168 -0.840688,0.858145 -0.116842,0.254698 -0.132763,0.496524 -0.134174,2.007182 l -0.0032,1.717995 5.665071,0.01958 5.665464,0.02001 0.347101,0.172051 c 0.458397,0.227655 0.917996,0.684078 1.139236,1.131148 l 0.178829,0.361992 0.02056,4.144652 0.02056,4.145105 3.128926,-0.0031 c 2.873848,-0.003 3.152796,-0.01228 3.420239,-0.133723 0.359055,-0.163118 0.693428,-0.489622 0.874767,-0.854752 0.131666,-0.265039 0.137495,-0.532496 0.137495,-6.394579 v -6.11682 L 45.913392,23.14784 c -0.256758,-0.436941 -0.676833,-0.743976 -1.15917,-0.847932 -0.200582,-0.04317 -1.728016,-0.06367 -5.127598,-0.06428 z m -12.116277,6.146729 c -8.811475,0 -8.908073,0.0032 -9.14577,0.146486 -0.145085,0.08847 -0.296107,0.273094 -0.381585,0.466353 -0.137208,0.310166 -0.140945,0.499661 -0.121808,6.206338 0.01924,5.706659 0.02406,5.893151 0.161412,6.096056 0.07792,0.115068 0.240833,0.269778 0.361997,0.343662 0.211448,0.128936 0.580703,0.134306 9.182816,0.134613 h 8.962217 l 0.304942,-0.284075 0.304911,-0.284475 0.01871,-6.032582 c 0.0181,-5.919064 0.01595,-6.036976 -0.126022,-6.268495 -0.07941,-0.129819 -0.250876,-0.30078 -0.380674,-0.379907 -0.232065,-0.141509 -0.382487,-0.143946 -9.141084,-0.143946 z"
       sodipodi:nodetypes="ccccsccccccccccscscccccccccccccccscccc" />
    <ellipse
       style="opacity:0.3;fill:none;stroke:#000000;stroke-width:0.974376;stroke-dasharray:none;stroke-opacity:1"
       id="path2-9"
       cx="31.949856"
       cy="31.969812"
       rx="23.129124"
       ry="23.129126" />
  </g>
</svg>
