<?xml version="1.0" encoding="UTF-8" standalone="no"?>
<svg
   width="64"
   height="64"
   version="1.1"
   id="svg73"
   sodipodi:docname="abcd.svg"
   inkscape:version="1.4.2 (ebf0e940d0, 2025-05-08)"
   xmlns:inkscape="http://www.inkscape.org/namespaces/inkscape"
   xmlns:sodipodi="http://sodipodi.sourceforge.net/DTD/sodipodi-0.dtd"
   xmlns:xlink="http://www.w3.org/1999/xlink"
   xmlns="http://www.w3.org/2000/svg"
   xmlns:svg="http://www.w3.org/2000/svg"
   xmlns:rdf="http://www.w3.org/1999/02/22-rdf-syntax-ns#"
   xmlns:cc="http://creativecommons.org/ns#"
   xmlns:dc="http://purl.org/dc/elements/1.1/">
  <metadata
     id="metadata77">
    <rdf:RDF>
      <cc:Work
         rdf:about="">
        <dc:format>image/svg+xml</dc:format>
        <dc:type
           rdf:resource="http://purl.org/dc/dcmitype/StillImage" />
      </cc:Work>
    </rdf:RDF>
  </metadata>
  <sodipodi:namedview
     pagecolor="#f5f7fa"
     bordercolor="#666666"
     borderopacity="1"
     objecttolerance="10"
     gridtolerance="10"
     guidetolerance="10"
     inkscape:pageopacity="0"
     inkscape:pageshadow="2"
     inkscape:window-width="1462"
     inkscape:window-height="840"
     id="namedview75"
     showgrid="false"
     inkscape:zoom="6.2890624"
     inkscape:cx="53.585094"
     inkscape:cy="29.654659"
     inkscape:window-x="24"
     inkscape:window-y="21"
     inkscape:window-maximized="0"
     inkscape:current-layer="svg73"
     inkscape:document-rotation="0"
     inkscape:pagecheckerboard="0"
     inkscape:showpageshadow="2"
     inkscape:deskcolor="#d1d1d1" />
  <defs
     id="defs29">
    <linearGradient
       id="linearGradient4"
       inkscape:collect="always">
      <stop
         style="stop-color:#5e81ac;stop-opacity:1;"
         offset="0"
         id="stop4" />
      <stop
         style="stop-color:#81a1c1;stop-opacity:1;"
         offset="0.5"
         id="stop1" />
    </linearGradient>
    <linearGradient
       id="linearGradient2"
       inkscape:collect="always">
      <stop
         style="stop-color:#eceff4;stop-opacity:1;"
         offset="0"
         id="stop2" />
      <stop
         style="stop-color:#d8dee9;stop-opacity:1;"
         offset="1"
         id="stop3" />
    </linearGradient>
    <linearGradient
       inkscape:collect="always"
       xlink:href="#linearGradient2"
       id="linearGradient8"
       x1="31.721739"
       y1="5.2278585"
       x2="31.88887"
       y2="59.145416"
       gradientUnits="userSpaceOnUse"
       gradientTransform="matrix(0.8505,0,0,0.8505,4.7765033,4.7794869)" />
    <filter
       style="color-interpolation-filters:sRGB;"
       inkscape:label="Blur"
       id="filter9"
       x="-0.047762285"
       y="-0.047489063"
       width="1.0955246"
       height="1.0949781">
      <feGaussianBlur
         stdDeviation="1 1"
         result="blur"
         id="feGaussianBlur9" />
    </filter>
    <linearGradient
       inkscape:collect="always"
       xlink:href="#linearGradient4"
       id="linearGradient7"
       x1="26.723248"
       y1="58.711765"
       x2="25.756926"
       y2="5.950614"
       gradientUnits="userSpaceOnUse" />
    <filter
       style="color-interpolation-filters:sRGB;"
       inkscape:label="Out of Focus"
       id="filter40"
       x="-0.24226652"
       y="-0.2858297"
       width="1.484533"
       height="1.5716594">
      <feFlood
         flood-opacity="1"
         flood-color="rgb(255,255,255)"
         result="flood"
         id="feFlood38" />
      <feColorMatrix
         in="SourceGraphic"
         values="1 0 0 0 0 0 1 0 0 0 0 0 1 0 0 -0.2125 -0.7154 -0.0721 1 0 "
         result="colormatrix1"
         id="feColorMatrix38" />
      <feGaussianBlur
         in="colormatrix1"
         stdDeviation="3 3"
         result="blur"
         id="feGaussianBlur38" />
      <feColorMatrix
         in="blur"
         values="1 0 0 0 0 0 1 0 0 0 0 0 1 0 0 0 0 0 6 -2 "
         result="colormatrix2"
         id="feColorMatrix39" />
      <feBlend
         in="colormatrix2"
         in2="flood"
         mode="normal"
         result="blend"
         id="feBlend39" />
      <feComposite
         in="blend"
         in2="blend"
         operator="arithmetic"
         k2="0.2"
         result="composite1"
         id="feComposite39" />
      <feComposite
         in2="SourceGraphic"
         operator="in"
         id="feComposite40" />
    </filter>
  </defs>
  <g
     id="g877"
     transform="matrix(1.1,0,0,1.1,-3.1845928,-3.2065454)">
    <ellipse
       style="opacity:0.5;fill:#000000;stroke:none;stroke-width:3.89319;stroke-dasharray:none;stroke-opacity:1;filter:url(#filter9)"
       id="path2-5"
       cx="31.949858"
       cy="31.969812"
       rx="25.124426"
       ry="25.268976"
       transform="matrix(1.05,0,0,1.05,-1.5974929,-1.5984906)" />
    <path
       style="fill:#f5f7fa;stroke-width:0.204426;fill-opacity:1"
       d=""
       id="path3" />
    <circle
       style="opacity:1;fill:url(#linearGradient8);stroke:url(#linearGradient7);stroke-width:3.81818;stroke-dasharray:none;stroke-opacity:1"
       id="path2"
       cx="31.949856"
       cy="31.969812"
       r="24.711082" />
    <ellipse
       style="opacity:0.3;fill:none;stroke:#000000;stroke-width:0.974376;stroke-dasharray:none;stroke-opacity:1"
       id="path2-9"
       cx="31.949856"
       cy="31.969812"
       rx="23.129124"
       ry="23.129126" />
  </g>
  <path
     style="fill:#000000;fill-opacity:1;stroke:none;stroke-width:0.505459;stroke-dasharray:none;stroke-opacity:0.6;opacity:0.2"
     d="m 41.284532,25.37899 c -0.06049,-0.492429 0.317209,-1.27168 0.266525,-2.332566 -0.05232,-1.062617 -0.567376,-2.543367 -2.681541,-3.618074 -0.03745,-0.01897 -0.07522,-0.03802 -0.114411,-0.057 -1.375167,-0.6704 -3.379787,-1.150737 -5.717964,-0.915751 -1.816585,0.183149 -3.70348,0.789617 -5.482456,1.859143 -1.600755,0.958946 -3.075606,2.272098 -4.272493,3.896258 -0.70309,1.021149 -1.316246,2.177065 -1.754452,3.424557 -0.189669,0.539082 -0.346637,1.09717 -0.464366,1.667356 -0.152067,0.741239 -0.235449,1.551592 -0.202749,2.406868 0.08666,1.356345 0.469271,2.838823 1.324423,4.172707 0.403867,0.632387 0.90584,1.206026 1.4863,1.684636 0.577185,0.478609 1.237761,0.865641 1.958835,1.119633 1.156008,0.399126 2.292397,0.399126 3.232574,0.248829 0.4987,-0.07946 0.956527,-0.202157 1.360396,-0.338654 0.498699,-0.167607 0.956526,-0.361125 1.317878,-0.525267 0.788114,-0.364587 1.527175,-0.80173 2.115808,-1.154206 0.588634,-0.352476 1.16582,-0.706683 1.720115,-0.993502 0.330291,-0.165873 0.722708,-0.350748 1.110227,-0.490704 0.102993,-0.03631 0.206012,-0.07083 0.309027,-0.10021 0.385879,-0.112301 0.76686,-0.162414 1.105329,-0.126133 0.289393,0.02937 0.534672,0.129592 0.699813,0.252261 0.0703,0.04665 0.130775,0.112312 0.181458,0.181422 0.04413,0.06394 0.07361,0.124406 0.0899,0.157233 0.01817,0.04147 0.02774,0.126131 -0.0036,0.248809 -0.02966,0.124401 -0.09323,0.267815 -0.191314,0.411222 -0.101343,0.146866 -0.241967,0.29891 -0.43166,0.456147 -0.186402,0.152047 -0.408771,0.300639 -0.667126,0.444052 -0.56732,0.288546 -1.131425,0.482066 -1.924442,0.794799 -0.719438,0.28337 -1.577866,0.649668 -2.38233,1.230214 -0.421852,0.314477 -0.843705,0.706685 -1.206697,1.181839 -0.361352,0.47515 -0.675291,1.048799 -0.850246,1.720927 -0.156969,0.672121 -0.165147,1.418547 0.04578,2.13559 0.106271,0.364604 0.269788,0.710141 0.479082,1.017692 0.212561,0.311053 0.479082,0.592645 0.794653,0.817262 0.560837,0.393945 1.178901,0.539084 1.713575,0.55464 h 0.181496 c 0.452919,-0.01212 0.884583,-0.110559 1.27864,-0.250545 0.41204,-0.13304 0.784842,-0.312744 1.105321,-0.471698 0.32702,-0.16417 0.578822,-0.297177 0.842073,-0.407779 0.240339,-0.112312 0.44965,-0.184871 0.639323,-0.216002 0.179865,-0.02966 0.327039,-0.01531 0.433299,0.01531 0.04742,0.01404 0.0899,0.03626 0.124239,0.05872 0.03333,0.02265 0.05555,0.04319 0.067,0.0536 0.01851,0.0084 0.0344,0.02232 0.0458,0.02583 0.01275,0 0.02424,0.0074 0.04085,0.0036 0.01499,-0.0036 0,0.05185 -0.05891,0.124333 -0.06867,0.08459 -0.168381,0.169337 -0.322124,0.295456 -0.148798,0.119228 -0.35156,0.276477 -0.53631,0.469969 -0.204455,0.212527 -0.403865,0.482066 -0.526498,0.815534 -0.122673,0.336931 -0.142226,0.682487 -0.09153,0.986591 0.05888,0.35418 0.214217,0.64448 0.394052,0.8501 0.241967,0.279922 0.523231,0.399123 0.730883,0.431949 0.05071,0.0074 0.09812,0.01056 0.142192,0.0084 0.369508,-0.01404 0.518332,-0.312743 0.583733,-0.400857 -0.09153,-0.0916 -0.184809,-0.326581 -0.258299,-0.526991 -0.0079,-0.02264 -0.01626,-0.04319 -0.02265,-0.06565 -0.02966,-0.08815 -0.05556,-0.184873 -0.04904,-0.27128 0.0036,-0.06219 0.01851,-0.12784 0.0458,-0.169338 0.02265,-0.03626 0.05555,-0.06911 0.08504,-0.08122 0.02966,-0.01436 0.07846,-0.0553 0.166785,-0.112312 0.109527,-0.06911 0.186404,-0.108867 0.380972,-0.219383 0.152049,-0.08459 0.377684,-0.216004 0.593534,-0.393941 0.215843,-0.177981 0.464365,-0.437142 0.640959,-0.798254 0.156994,-0.323107 0.2338,-0.680771 0.2338,-1.033245 0.0016,-0.352487 -0.07356,-0.694593 -0.204425,-1.000411 -0.137408,-0.307577 -0.327035,-0.570193 -0.542857,-0.78617 -0.217436,-0.217724 -0.464357,-0.390493 -0.722705,-0.520075 -0.518325,-0.257466 -1.064438,-0.330019 -1.543528,-0.311019 -0.495426,0.01946 -0.949985,0.136516 -1.324419,0.260912 -0.369533,0.131317 -0.752142,0.304099 -1.023567,0.419868 -0.312304,0.133007 -0.552662,0.224612 -0.779939,0.279922 -0.214197,0.03974 -0.376075,0.03626 -0.493798,0.0084 -0.01469,-0.0036 -0.0294,-0.0073 -0.04414,-0.01212 -0.119361,-0.03974 -0.184765,-0.108867 -0.166779,-0.143439 0.0097,-0.01404 0.01148,-0.03094 0.01469,-0.06049 0.0034,-0.02745 0.0066,-0.05872 0.01962,-0.0864 0.01962,-0.05872 0.05232,-0.160693 0.119366,-0.255744 0.04906,-0.105391 0.130804,-0.224615 0.264877,-0.359397 0.137353,-0.138207 0.317206,-0.278166 0.533039,-0.402584 0.434934,-0.276413 0.953257,-0.482062 1.625281,-0.704957 0.621335,-0.207359 1.473219,-0.461324 2.256431,-0.805164 0.421849,-0.176228 0.860051,-0.392219 1.285177,-0.665214 0.434929,-0.278169 0.864963,-0.620293 1.257381,-1.043609 0.407136,-0.442325 0.760317,-0.964135 1.020299,-1.548139 0.266559,-0.601294 0.439906,-1.283787 0.456258,-2.014659 0.01595,-0.72026 -0.122705,-1.401027 -0.354832,-2.002314 -0.238666,-0.623015 -0.586958,-1.18283 -1.002275,-1.651074 -0.879673,-0.991771 -1.993181,-1.530857 -2.993849,-1.764112 -1.159277,-0.27127 -2.246616,-0.171056 -3.082145,0.01554 -0.232184,0.05357 -0.451287,0.112312 -0.655672,0.17624 -0.771763,0.240165 -1.412716,0.56327 -1.862368,0.813807 -0.730886,0.399126 -1.4585,0.884647 -1.953931,1.204296 -0.575553,0.371484 -1.090606,0.69286 -1.607292,0.93994 -0.23056,0.112313 -0.482365,0.212524 -0.74398,0.281638 -0.20929,0.05358 -0.413676,0.08985 -0.614794,0.10021 -0.384246,0.02071 -0.707994,-0.05182 -0.927098,-0.184879 -0.127533,-0.07255 -0.25834,-0.177965 -0.377704,-0.316193 -0.119361,-0.139954 -0.220735,-0.302369 -0.289408,-0.475154 -0.15697,-0.383577 -0.206023,-0.848363 -0.13735,-1.288961 0.01797,-0.274722 0.07522,-0.551175 0.165143,-0.825902 0.0703,-0.212522 0.166781,-0.428501 0.289416,-0.646206 0.287773,-0.511438 0.704719,-0.995232 1.193613,-1.411638 0.760317,-0.741238 1.649805,-1.276866 2.552374,-1.62416 1.003949,-0.387035 1.965381,-0.520074 2.809084,-0.526988 1.079163,-0.0068 2.045503,0.188336 2.802547,0.281637 0.02114,0.0018 0.04252,0.0054 0.06376,0.0068 1.196884,0.139955 2.114166,-0.155504 2.92845,-0.566727 0.789745,-0.397423 1.496103,-0.934778 1.937574,-0.938233 z m 0,0"
     id="path11-3-3" />
  <path
     style="fill:#4d4d4d;fill-opacity:1;stroke:none;stroke-width:0.505459;stroke-dasharray:none;stroke-opacity:0.6"
     d="m 41.284532,23.37899 c -0.06049,-0.492429 0.317209,-1.27168 0.266525,-2.332566 -0.05232,-1.062617 -0.567376,-2.543367 -2.681541,-3.618074 -0.03745,-0.01897 -0.07522,-0.03802 -0.114411,-0.057 -1.375167,-0.6704 -3.379787,-1.150737 -5.717964,-0.915751 -1.816585,0.183149 -3.70348,0.789617 -5.482456,1.859143 -1.600755,0.958946 -3.075606,2.272098 -4.272493,3.896258 -0.70309,1.021149 -1.316246,2.177065 -1.754452,3.424557 -0.189669,0.539082 -0.346637,1.09717 -0.464366,1.667356 -0.152067,0.741239 -0.235449,1.551592 -0.202749,2.406868 0.08666,1.356345 0.469271,2.838823 1.324423,4.172707 0.403867,0.632387 0.90584,1.206026 1.4863,1.684636 0.577185,0.478609 1.237761,0.865641 1.958835,1.119633 1.156008,0.399126 2.292397,0.399126 3.232574,0.248829 0.4987,-0.07946 0.956527,-0.202157 1.360396,-0.338654 0.498699,-0.167607 0.956526,-0.361125 1.317878,-0.525267 0.788114,-0.364587 1.527175,-0.80173 2.115808,-1.154206 0.588634,-0.352476 1.16582,-0.706683 1.720115,-0.993502 0.330291,-0.165873 0.722708,-0.350748 1.110227,-0.490704 0.102993,-0.03631 0.206012,-0.07083 0.309027,-0.10021 0.385879,-0.112301 0.76686,-0.162414 1.105329,-0.126133 0.289393,0.02937 0.534672,0.129592 0.699813,0.252261 0.0703,0.04665 0.130775,0.112312 0.181458,0.181422 0.04413,0.06394 0.07361,0.124406 0.0899,0.157233 0.01817,0.04147 0.02774,0.126131 -0.0036,0.248809 -0.02966,0.124401 -0.09323,0.267815 -0.191314,0.411222 -0.101343,0.146866 -0.241967,0.29891 -0.43166,0.456147 -0.186402,0.152047 -0.408771,0.300639 -0.667126,0.444052 -0.56732,0.288546 -1.131425,0.482066 -1.924442,0.794799 -0.719438,0.28337 -1.577866,0.649668 -2.38233,1.230214 -0.421852,0.314477 -0.843705,0.706685 -1.206697,1.181839 -0.361352,0.47515 -0.675291,1.048799 -0.850246,1.720927 -0.156969,0.672121 -0.165147,1.418547 0.04578,2.13559 0.106271,0.364604 0.269788,0.710141 0.479082,1.017692 0.212561,0.311053 0.479082,0.592645 0.794653,0.817262 0.560837,0.393945 1.178901,0.539084 1.713575,0.55464 h 0.181496 c 0.452919,-0.01212 0.884583,-0.110559 1.27864,-0.250545 0.41204,-0.13304 0.784842,-0.312744 1.105321,-0.471698 0.32702,-0.16417 0.578822,-0.297177 0.842073,-0.407779 0.240339,-0.112312 0.44965,-0.184871 0.639323,-0.216002 0.179865,-0.02966 0.327039,-0.01531 0.433299,0.01531 0.04742,0.01404 0.0899,0.03626 0.124239,0.05872 0.03333,0.02265 0.05555,0.04319 0.067,0.0536 0.01851,0.0084 0.0344,0.02232 0.0458,0.02583 0.01275,0 0.02424,0.0074 0.04085,0.0036 0.01499,-0.0036 0,0.05185 -0.05891,0.124333 -0.06867,0.08459 -0.168381,0.169337 -0.322124,0.295456 -0.148798,0.119228 -0.35156,0.276477 -0.53631,0.469969 -0.204455,0.212527 -0.403865,0.482066 -0.526498,0.815534 -0.122673,0.336931 -0.142226,0.682487 -0.09153,0.986591 0.05888,0.35418 0.214217,0.64448 0.394052,0.8501 0.241967,0.279922 0.523231,0.399123 0.730883,0.431949 0.05071,0.0074 0.09812,0.01056 0.142192,0.0084 0.369508,-0.01404 0.518332,-0.312743 0.583733,-0.400857 -0.09153,-0.0916 -0.184809,-0.326581 -0.258299,-0.526991 -0.0079,-0.02264 -0.01626,-0.04319 -0.02265,-0.06565 -0.02966,-0.08815 -0.05556,-0.184873 -0.04904,-0.27128 0.0036,-0.06219 0.01851,-0.12784 0.0458,-0.169338 0.02265,-0.03626 0.05555,-0.06911 0.08504,-0.08122 0.02966,-0.01436 0.07846,-0.0553 0.166785,-0.112312 0.109527,-0.06911 0.186404,-0.108867 0.380972,-0.219383 0.152049,-0.08459 0.377684,-0.216004 0.593534,-0.393941 0.215843,-0.177981 0.464365,-0.437142 0.640959,-0.798254 0.156994,-0.323107 0.2338,-0.680771 0.2338,-1.033245 0.0016,-0.352487 -0.07356,-0.694593 -0.204425,-1.000411 -0.137408,-0.307577 -0.327035,-0.570193 -0.542857,-0.78617 -0.217436,-0.217724 -0.464357,-0.390493 -0.722705,-0.520075 -0.518325,-0.257466 -1.064438,-0.330019 -1.543528,-0.311019 -0.495426,0.01946 -0.949985,0.136516 -1.324419,0.260912 -0.369533,0.131317 -0.752142,0.304099 -1.023567,0.419868 -0.312304,0.133007 -0.552662,0.224612 -0.779939,0.279922 -0.214197,0.03974 -0.376075,0.03626 -0.493798,0.0084 -0.01469,-0.0036 -0.0294,-0.0073 -0.04414,-0.01212 -0.119361,-0.03974 -0.184765,-0.108867 -0.166779,-0.143439 0.0097,-0.01404 0.01148,-0.03094 0.01469,-0.06049 0.0034,-0.02745 0.0066,-0.05872 0.01962,-0.0864 0.01962,-0.05872 0.05232,-0.160693 0.119366,-0.255744 0.04906,-0.105391 0.130804,-0.224615 0.264877,-0.359397 0.137353,-0.138207 0.317206,-0.278166 0.533039,-0.402584 0.434934,-0.276413 0.953257,-0.482062 1.625281,-0.704957 0.621335,-0.207359 1.473219,-0.461324 2.256431,-0.805164 0.421849,-0.176228 0.860051,-0.392219 1.285177,-0.665214 0.434929,-0.278169 0.864963,-0.620293 1.257381,-1.043609 0.407136,-0.442325 0.760317,-0.964135 1.020299,-1.548139 0.266559,-0.601294 0.439906,-1.283787 0.456258,-2.014659 0.01595,-0.72026 -0.122705,-1.401027 -0.354832,-2.002314 -0.238666,-0.623015 -0.586958,-1.18283 -1.002275,-1.651074 -0.879673,-0.991771 -1.993181,-1.530857 -2.993849,-1.764112 -1.159277,-0.27127 -2.246616,-0.171056 -3.082145,0.01554 -0.232184,0.05357 -0.451287,0.112312 -0.655672,0.17624 -0.771763,0.240165 -1.412716,0.56327 -1.862368,0.813807 -0.730886,0.399126 -1.4585,0.884647 -1.953931,1.204296 -0.575553,0.371484 -1.090606,0.69286 -1.607292,0.93994 -0.23056,0.112313 -0.482365,0.212524 -0.74398,0.281638 -0.20929,0.05358 -0.413676,0.08985 -0.614794,0.10021 -0.384246,0.02071 -0.707994,-0.05182 -0.927098,-0.184879 -0.127533,-0.07255 -0.25834,-0.177965 -0.377704,-0.316193 -0.119361,-0.139954 -0.220735,-0.302369 -0.289408,-0.475154 -0.15697,-0.383577 -0.206023,-0.848363 -0.13735,-1.288961 0.01797,-0.274722 0.07522,-0.551175 0.165143,-0.825902 0.0703,-0.212522 0.166781,-0.428501 0.289416,-0.646206 0.287773,-0.511438 0.704719,-0.995232 1.193613,-1.411638 0.760317,-0.741238 1.649805,-1.276866 2.552374,-1.62416 1.003949,-0.387035 1.965381,-0.520074 2.809084,-0.526988 1.079163,-0.0068 2.045503,0.188336 2.802547,0.281637 0.02114,0.0018 0.04252,0.0054 0.06376,0.0068 1.196884,0.139955 2.114166,-0.155504 2.92845,-0.566727 0.789745,-0.397423 1.496103,-0.934778 1.937574,-0.938233 z m 0,0"
     id="path11-3" />
</svg>
