<?xml version="1.0" encoding="UTF-8" standalone="no"?>
<svg
   width="64"
   height="64"
   version="1.1"
   id="svg73"
   sodipodi:docname="abcd.svg"
   inkscape:version="1.4.2 (ebf0e940d0, 2025-05-08)"
   xmlns:inkscape="http://www.inkscape.org/namespaces/inkscape"
   xmlns:sodipodi="http://sodipodi.sourceforge.net/DTD/sodipodi-0.dtd"
   xmlns:xlink="http://www.w3.org/1999/xlink"
   xmlns="http://www.w3.org/2000/svg"
   xmlns:svg="http://www.w3.org/2000/svg"
   xmlns:rdf="http://www.w3.org/1999/02/22-rdf-syntax-ns#"
   xmlns:cc="http://creativecommons.org/ns#"
   xmlns:dc="http://purl.org/dc/elements/1.1/">
  <metadata
     id="metadata77">
    <rdf:RDF>
      <cc:Work
         rdf:about="">
        <dc:format>image/svg+xml</dc:format>
        <dc:type
           rdf:resource="http://purl.org/dc/dcmitype/StillImage" />
      </cc:Work>
    </rdf:RDF>
  </metadata>
  <sodipodi:namedview
     pagecolor="#f5f7fa"
     bordercolor="#666666"
     borderopacity="1"
     objecttolerance="10"
     gridtolerance="10"
     guidetolerance="10"
     inkscape:pageopacity="0"
     inkscape:pageshadow="2"
     inkscape:window-width="1462"
     inkscape:window-height="840"
     id="namedview75"
     showgrid="false"
     inkscape:zoom="6.2890624"
     inkscape:cx="53.585094"
     inkscape:cy="29.654659"
     inkscape:window-x="24"
     inkscape:window-y="21"
     inkscape:window-maximized="0"
     inkscape:current-layer="svg73"
     inkscape:document-rotation="0"
     inkscape:pagecheckerboard="0"
     inkscape:showpageshadow="2"
     inkscape:deskcolor="#d1d1d1" />
  <defs
     id="defs29">
    <linearGradient
       id="linearGradient4"
       inkscape:collect="always">
      <stop
         style="stop-color:#5e81ac;stop-opacity:1;"
         offset="0"
         id="stop4" />
      <stop
         style="stop-color:#81a1c1;stop-opacity:1;"
         offset="0.5"
         id="stop1" />
    </linearGradient>
    <linearGradient
       id="linearGradient2"
       inkscape:collect="always">
      <stop
         style="stop-color:#eceff4;stop-opacity:1;"
         offset="0"
         id="stop2" />
      <stop
         style="stop-color:#d8dee9;stop-opacity:1;"
         offset="1"
         id="stop3" />
    </linearGradient>
    <linearGradient
       inkscape:collect="always"
       xlink:href="#linearGradient2"
       id="linearGradient8"
       x1="31.721739"
       y1="5.2278585"
       x2="31.88887"
       y2="59.145416"
       gradientUnits="userSpaceOnUse"
       gradientTransform="matrix(0.8505,0,0,0.8505,4.7765033,4.7794869)" />
    <filter
       style="color-interpolation-filters:sRGB;"
       inkscape:label="Blur"
       id="filter9"
       x="-0.047762285"
       y="-0.047489063"
       width="1.0955246"
       height="1.0949781">
      <feGaussianBlur
         stdDeviation="1 1"
         result="blur"
         id="feGaussianBlur9" />
    </filter>
    <linearGradient
       inkscape:collect="always"
       xlink:href="#linearGradient4"
       id="linearGradient7"
       x1="26.723248"
       y1="58.711765"
       x2="25.756926"
       y2="5.950614"
       gradientUnits="userSpaceOnUse" />
    <filter
       style="color-interpolation-filters:sRGB;"
       inkscape:label="Out of Focus"
       id="filter40"
       x="-0.24226652"
       y="-0.2858297"
       width="1.484533"
       height="1.5716594">
      <feFlood
         flood-opacity="1"
         flood-color="rgb(255,255,255)"
         result="flood"
         id="feFlood38" />
      <feColorMatrix
         in="SourceGraphic"
         values="1 0 0 0 0 0 1 0 0 0 0 0 1 0 0 -0.2125 -0.7154 -0.0721 1 0 "
         result="colormatrix1"
         id="feColorMatrix38" />
      <feGaussianBlur
         in="colormatrix1"
         stdDeviation="3 3"
         result="blur"
         id="feGaussianBlur38" />
      <feColorMatrix
         in="blur"
         values="1 0 0 0 0 0 1 0 0 0 0 0 1 0 0 0 0 0 6 -2 "
         result="colormatrix2"
         id="feColorMatrix39" />
      <feBlend
         in="colormatrix2"
         in2="flood"
         mode="normal"
         result="blend"
         id="feBlend39" />
      <feComposite
         in="blend"
         in2="blend"
         operator="arithmetic"
         k2="0.2"
         result="composite1"
         id="feComposite39" />
      <feComposite
         in2="SourceGraphic"
         operator="in"
         id="feComposite40" />
    </filter>
  </defs>
  <g
     id="g877"
     transform="matrix(1.1,0,0,1.1,-3.1845928,-3.2065454)">
    <ellipse
       style="opacity:0.5;fill:#000000;stroke:none;stroke-width:3.89319;stroke-dasharray:none;stroke-opacity:1;filter:url(#filter9)"
       id="path2-5"
       cx="31.949858"
       cy="31.969812"
       rx="25.124426"
       ry="25.268976"
       transform="matrix(1.05,0,0,1.05,-1.5974929,-1.5984906)" />
    <path
       style="fill:#f5f7fa;stroke-width:0.204426;fill-opacity:1"
       d=""
       id="path3" />
    <circle
       style="opacity:1;fill:url(#linearGradient8);stroke:url(#linearGradient7);stroke-width:3.81818;stroke-dasharray:none;stroke-opacity:1"
       id="path2"
       cx="31.949856"
       cy="31.969812"
       r="24.711082" />
    <ellipse
       style="opacity:0.3;fill:none;stroke:#000000;stroke-width:0.974376;stroke-dasharray:none;stroke-opacity:1"
       id="path2-9"
       cx="31.949856"
       cy="31.969812"
       rx="23.129124"
       ry="23.129126" />
  </g>
  <path
     style="fill:#000000;fill-opacity:1;stroke:none;stroke-width:0.505459;stroke-dasharray:none;stroke-opacity:0.6;opacity:0.2"
     d="m 31.999867,18.84078 c -0.130268,0 -0.259044,-5.31e-4 -0.390129,0.0035 -7.158681,0.209933 -13.42952,6.03897 -13.431544,13.159814 v 2.741346 3.713177 h -0.06618 c -0.457406,0 -0.825538,0.316753 -0.825538,0.771544 v 6.531169 c 0,0.454789 0.368583,0.702522 0.825538,0.722777 h 0.642667 0.407545 0.799414 v 1.853107 c 0,0.454807 0.420375,0.822053 0.877784,0.822053 h 2.833654 c 0.457413,4e-6 0.747165,-0.367236 0.747165,-0.822022 V 37.511274 c 0,-0.454797 -0.289774,-0.83994 -0.747165,-0.835987 h -1.915813 v -1.18606 -0.743681 h -0.02436 v -2.741345 c 0.270661,-5.451274 5.362507,-9.596449 10.266971,-9.596449 4.904467,0 9.996312,4.145175 10.266984,9.596449 v 2.741345 h -0.02424 v 0.743681 1.18606 h -1.91568 c -0.457396,-0.0038 -0.747167,0.38119 -0.747167,0.835987 V 48.33732 c 0,0.454791 0.289746,0.822024 0.747167,0.822056 h 2.833653 c 0.457413,0 0.877784,-0.367268 0.877784,-0.822056 v -1.853103 h 0.799415 0.407544 0.642667 c 0.456952,-0.0201 0.825537,-0.267992 0.825537,-0.722788 v -6.531214 c 0,-0.454794 -0.368156,-0.771543 -0.825537,-0.771543 h -0.06634 V 34.745536 32.00419 c -0.0022,-7.120844 -6.272903,-12.949885 -13.431587,-13.159848 -0.131085,-0.0042 -0.259861,-0.0036 -0.39013,-0.0036 z"
     id="path4-9" />
  <path
     style="fill:#4d4d4d;fill-opacity:1;stroke:none;stroke-width:0.505459;stroke-dasharray:none;stroke-opacity:0.6"
     d="m 31.999867,16.84078 c -0.130268,0 -0.259044,-5.31e-4 -0.390129,0.0035 -7.158681,0.209933 -13.42952,6.03897 -13.431544,13.159814 v 2.741346 3.713177 h -0.06618 c -0.457406,0 -0.825538,0.316753 -0.825538,0.771544 v 6.531169 c 0,0.454789 0.368583,0.702522 0.825538,0.722777 h 0.642667 0.407545 0.799414 v 1.853107 c 0,0.454807 0.420375,0.822053 0.877784,0.822053 h 2.833654 c 0.457413,4e-6 0.747165,-0.367236 0.747165,-0.822022 V 35.511274 c 0,-0.454797 -0.289774,-0.83994 -0.747165,-0.835987 h -1.915813 v -1.18606 -0.743681 h -0.02436 v -2.741345 c 0.270661,-5.451274 5.362507,-9.596449 10.266971,-9.596449 4.904467,0 9.996312,4.145175 10.266984,9.596449 v 2.741345 h -0.02424 v 0.743681 1.18606 h -1.91568 c -0.457396,-0.0038 -0.747167,0.38119 -0.747167,0.835987 V 46.33732 c 0,0.454791 0.289746,0.822024 0.747167,0.822056 h 2.833653 c 0.457413,0 0.877784,-0.367268 0.877784,-0.822056 v -1.853103 h 0.799415 0.407544 0.642667 c 0.456952,-0.0201 0.825537,-0.267992 0.825537,-0.722788 v -6.531214 c 0,-0.454794 -0.368156,-0.771543 -0.825537,-0.771543 h -0.06634 V 32.745536 30.00419 c -0.0022,-7.120844 -6.272903,-12.949885 -13.431587,-13.159848 -0.131085,-0.0042 -0.259861,-0.0036 -0.39013,-0.0036 z"
     id="path4" />
</svg>
