<?xml version="1.0" encoding="UTF-8" standalone="no"?>
<svg
   width="64"
   height="64"
   version="1.1"
   id="svg73"
   sodipodi:docname="abcd.svg"
   inkscape:version="1.4.2 (ebf0e940d0, 2025-05-08)"
   xmlns:inkscape="http://www.inkscape.org/namespaces/inkscape"
   xmlns:sodipodi="http://sodipodi.sourceforge.net/DTD/sodipodi-0.dtd"
   xmlns:xlink="http://www.w3.org/1999/xlink"
   xmlns="http://www.w3.org/2000/svg"
   xmlns:svg="http://www.w3.org/2000/svg"
   xmlns:rdf="http://www.w3.org/1999/02/22-rdf-syntax-ns#"
   xmlns:cc="http://creativecommons.org/ns#"
   xmlns:dc="http://purl.org/dc/elements/1.1/">
  <metadata
     id="metadata77">
    <rdf:RDF>
      <cc:Work
         rdf:about="">
        <dc:format>image/svg+xml</dc:format>
        <dc:type
           rdf:resource="http://purl.org/dc/dcmitype/StillImage" />
      </cc:Work>
    </rdf:RDF>
  </metadata>
  <sodipodi:namedview
     pagecolor="#f5f7fa"
     bordercolor="#666666"
     borderopacity="1"
     objecttolerance="10"
     gridtolerance="10"
     guidetolerance="10"
     inkscape:pageopacity="0"
     inkscape:pageshadow="2"
     inkscape:window-width="1320"
     inkscape:window-height="766"
     id="namedview75"
     showgrid="false"
     inkscape:zoom="4.4470387"
     inkscape:cx="53.518761"
     inkscape:cy="22.37444"
     inkscape:window-x="24"
     inkscape:window-y="21"
     inkscape:window-maximized="0"
     inkscape:current-layer="svg73"
     inkscape:document-rotation="0"
     inkscape:pagecheckerboard="0"
     inkscape:showpageshadow="2"
     inkscape:deskcolor="#d1d1d1" />
  <defs
     id="defs29">
    <linearGradient
       id="linearGradient4"
       inkscape:collect="always">
      <stop
         style="stop-color:#5e81ac;stop-opacity:1;"
         offset="0"
         id="stop4" />
      <stop
         style="stop-color:#81a1c1;stop-opacity:1;"
         offset="0.5"
         id="stop1" />
    </linearGradient>
    <linearGradient
       id="linearGradient2"
       inkscape:collect="always">
      <stop
         style="stop-color:#eceff4;stop-opacity:1;"
         offset="0"
         id="stop2" />
      <stop
         style="stop-color:#d8dee9;stop-opacity:1;"
         offset="1"
         id="stop3" />
    </linearGradient>
    <linearGradient
       inkscape:collect="always"
       xlink:href="#linearGradient2"
       id="linearGradient8"
       x1="31.721739"
       y1="5.2278585"
       x2="31.88887"
       y2="59.145416"
       gradientUnits="userSpaceOnUse"
       gradientTransform="matrix(0.8505,0,0,0.8505,4.7765033,4.7794869)" />
    <filter
       style="color-interpolation-filters:sRGB;"
       inkscape:label="Blur"
       id="filter9"
       x="-0.047762285"
       y="-0.047489063"
       width="1.0955246"
       height="1.0949781">
      <feGaussianBlur
         stdDeviation="1 1"
         result="blur"
         id="feGaussianBlur9" />
    </filter>
    <linearGradient
       inkscape:collect="always"
       xlink:href="#linearGradient4"
       id="linearGradient7"
       x1="26.723248"
       y1="58.711765"
       x2="25.756926"
       y2="5.950614"
       gradientUnits="userSpaceOnUse" />
    <filter
       style="color-interpolation-filters:sRGB;"
       inkscape:label="Out of Focus"
       id="filter40"
       x="-0.24226652"
       y="-0.2858297"
       width="1.484533"
       height="1.5716594">
      <feFlood
         flood-opacity="1"
         flood-color="rgb(255,255,255)"
         result="flood"
         id="feFlood38" />
      <feColorMatrix
         in="SourceGraphic"
         values="1 0 0 0 0 0 1 0 0 0 0 0 1 0 0 -0.2125 -0.7154 -0.0721 1 0 "
         result="colormatrix1"
         id="feColorMatrix38" />
      <feGaussianBlur
         in="colormatrix1"
         stdDeviation="3 3"
         result="blur"
         id="feGaussianBlur38" />
      <feColorMatrix
         in="blur"
         values="1 0 0 0 0 0 1 0 0 0 0 0 1 0 0 0 0 0 6 -2 "
         result="colormatrix2"
         id="feColorMatrix39" />
      <feBlend
         in="colormatrix2"
         in2="flood"
         mode="normal"
         result="blend"
         id="feBlend39" />
      <feComposite
         in="blend"
         in2="blend"
         operator="arithmetic"
         k2="0.2"
         result="composite1"
         id="feComposite39" />
      <feComposite
         in2="SourceGraphic"
         operator="in"
         id="feComposite40" />
    </filter>
  </defs>
  <g
     id="g877"
     transform="matrix(1.1,0,0,1.1,-3.1845928,-3.2065454)">
    <ellipse
       style="opacity:0.5;fill:#000000;stroke:none;stroke-width:3.89319;stroke-dasharray:none;stroke-opacity:1;filter:url(#filter9)"
       id="path2-5"
       cx="31.949858"
       cy="31.969812"
       rx="25.124426"
       ry="25.268976"
       transform="matrix(1.05,0,0,1.05,-1.5974929,-1.5984906)" />
    <path
       style="fill:#f5f7fa;stroke-width:0.204426;fill-opacity:1"
       d=""
       id="path3" />
    <circle
       style="opacity:1;fill:url(#linearGradient8);stroke:url(#linearGradient7);stroke-width:3.81818;stroke-dasharray:none;stroke-opacity:1"
       id="path2"
       cx="31.949856"
       cy="31.969812"
       r="24.711082" />
    <ellipse
       style="opacity:0.3;fill:none;stroke:#000000;stroke-width:0.974376;stroke-dasharray:none;stroke-opacity:1"
       id="path2-9"
       cx="31.949856"
       cy="31.969812"
       rx="23.129124"
       ry="23.129126" />
  </g>
  <path
     id="path66-6"
     style="fill:#000000;fill-opacity:1;stroke:none;stroke-width:0.467775;stroke-dasharray:none;stroke-opacity:0.6;opacity:0.2"
     d="m 34.565384,19.168243 -0.138867,1.050667 c -0.174938,1.339172 -0.80863,2.987914 -1.657313,4.310475 -0.766775,1.194913 -2.862025,3.222352 -4.220941,4.082067 l -0.933722,0.5902 v 2.346184 c 0,2.845118 -0.21097,3.380762 -2.406483,6.134066 -2.365859,2.966931 -3.619584,5.943875 -3.570439,8.476594 l 0.01829,0.98854 0.378241,-1.204156 c 1.070518,-3.407185 3.807306,-6.110906 8.165939,-8.072774 2.572317,-1.157825 3.598739,-1.881819 4.467616,-3.144688 1.973774,-2.868783 2.142123,-7.713654 0.469604,-13.558167 z M 22.3539,20.434526 22.222338,22.431704 c -0.219184,3.297885 -1.636721,6.783534 -4.202665,10.336732 -0.68051,0.942337 -1.331292,2.05324 -1.447179,2.470436 -0.646072,2.325857 0.303271,5.679942 2.687878,9.48706 l 0.990368,1.580568 0.137046,-1.798006 c 0.223209,-2.926203 1.507154,-5.672636 3.996185,-8.546032 3.060383,-3.532979 2.635794,-8.488016 -1.226082,-14.314646 z m 25.214172,5.138214 c -0.02572,0.0053 -0.05953,0.04472 -0.102322,0.116943 -1.253435,2.116001 -4.303946,4.14244 -8.070947,5.361141 -0.809945,0.262033 -1.562022,0.558262 -1.671929,0.659636 -0.109912,0.101386 -0.325844,0.682561 -0.480565,1.290034 -0.741227,2.91031 -1.920073,4.1299 -5.841705,6.050013 -1.619895,0.793139 -3.483894,1.877719 -4.142367,2.410138 -2.13727,1.728121 -3.617439,4.114378 -4.051005,6.528754 l -0.151663,0.842357 0.641362,-0.882557 c 1.886711,-2.594443 6.36791,-4.600046 12.121953,-5.426922 3.241704,-0.465847 4.444833,-0.926705 5.902003,-2.258476 2.493892,-2.27928 4.252582,-5.892829 5.313641,-10.915971 0.476527,-2.256005 0.672706,-3.621481 0.55913,-3.765953 -9.37e-4,-9.9e-4 -0.0026,-0.0027 -0.0035,-0.0037 l -0.0019,-0.0019 h -0.0019 l -0.0019,-0.0019 h -0.0019 -0.0019 l -0.0019,-0.0019 h -0.0019 -0.0019 -0.0019 -0.0019 -0.0019 z" />
  <path
     id="path66"
     style="fill:#4d4d4d;fill-opacity:1;stroke:none;stroke-width:0.467775;stroke-dasharray:none;stroke-opacity:0.6"
     d="m 34.565384,17.168243 -0.138867,1.050667 c -0.174938,1.339172 -0.80863,2.987914 -1.657313,4.310475 -0.766775,1.194913 -2.862025,3.222352 -4.220941,4.082067 l -0.933722,0.5902 v 2.346184 c 0,2.845118 -0.21097,3.380762 -2.406483,6.134066 -2.365859,2.966931 -3.619584,5.943875 -3.570439,8.476594 l 0.01829,0.98854 0.378241,-1.204156 c 1.070518,-3.407185 3.807306,-6.110906 8.165939,-8.072774 2.572317,-1.157825 3.598739,-1.881819 4.467616,-3.144688 1.973774,-2.868783 2.142123,-7.713654 0.469604,-13.558167 z M 22.3539,18.434526 22.222338,20.431704 c -0.219184,3.297885 -1.636721,6.783534 -4.202665,10.336732 -0.68051,0.942337 -1.331292,2.05324 -1.447179,2.470436 -0.646072,2.325857 0.303271,5.679942 2.687878,9.48706 l 0.990368,1.580568 0.137046,-1.798006 c 0.223209,-2.926203 1.507154,-5.672636 3.996185,-8.546032 3.060383,-3.532979 2.635794,-8.488016 -1.226082,-14.314646 z m 25.214172,5.138214 c -0.02572,0.0053 -0.05953,0.04472 -0.102322,0.116943 -1.253435,2.116001 -4.303946,4.14244 -8.070947,5.361141 -0.809945,0.262033 -1.562022,0.558262 -1.671929,0.659636 -0.109912,0.101386 -0.325844,0.682561 -0.480565,1.290034 -0.741227,2.91031 -1.920073,4.1299 -5.841705,6.050013 -1.619895,0.793139 -3.483894,1.877719 -4.142367,2.410138 -2.13727,1.728121 -3.617439,4.114378 -4.051005,6.528754 l -0.151663,0.842357 0.641362,-0.882557 c 1.886711,-2.594443 6.36791,-4.600046 12.121953,-5.426922 3.241704,-0.465847 4.444833,-0.926705 5.902003,-2.258476 2.493892,-2.27928 4.252582,-5.892829 5.313641,-10.915971 0.476527,-2.256005 0.672706,-3.621481 0.55913,-3.765953 -9.37e-4,-9.9e-4 -0.0026,-0.0027 -0.0035,-0.0037 l -0.0019,-0.0019 h -0.0019 l -0.0019,-0.0019 h -0.0019 -0.0019 l -0.0019,-0.0019 h -0.0019 -0.0019 -0.0019 -0.0019 -0.0019 z" />
</svg>
