<?xml version="1.0" encoding="UTF-8" standalone="no"?>
<svg
   width="64"
   height="64"
   version="1.1"
   id="svg73"
   sodipodi:docname="abcd.svg"
   inkscape:version="1.4.2 (ebf0e940d0, 2025-05-08)"
   xmlns:inkscape="http://www.inkscape.org/namespaces/inkscape"
   xmlns:sodipodi="http://sodipodi.sourceforge.net/DTD/sodipodi-0.dtd"
   xmlns:xlink="http://www.w3.org/1999/xlink"
   xmlns="http://www.w3.org/2000/svg"
   xmlns:svg="http://www.w3.org/2000/svg"
   xmlns:rdf="http://www.w3.org/1999/02/22-rdf-syntax-ns#"
   xmlns:cc="http://creativecommons.org/ns#"
   xmlns:dc="http://purl.org/dc/elements/1.1/">
  <metadata
     id="metadata77">
    <rdf:RDF>
      <cc:Work
         rdf:about="">
        <dc:format>image/svg+xml</dc:format>
        <dc:type
           rdf:resource="http://purl.org/dc/dcmitype/StillImage" />
      </cc:Work>
    </rdf:RDF>
  </metadata>
  <sodipodi:namedview
     pagecolor="#f5f7fa"
     bordercolor="#666666"
     borderopacity="1"
     objecttolerance="10"
     gridtolerance="10"
     guidetolerance="10"
     inkscape:pageopacity="0"
     inkscape:pageshadow="2"
     inkscape:window-width="1320"
     inkscape:window-height="766"
     id="namedview75"
     showgrid="false"
     inkscape:zoom="4.4470387"
     inkscape:cx="53.518761"
     inkscape:cy="22.37444"
     inkscape:window-x="24"
     inkscape:window-y="21"
     inkscape:window-maximized="0"
     inkscape:current-layer="svg73"
     inkscape:document-rotation="0"
     inkscape:pagecheckerboard="0"
     inkscape:showpageshadow="2"
     inkscape:deskcolor="#d1d1d1" />
  <defs
     id="defs29">
    <linearGradient
       id="linearGradient4"
       inkscape:collect="always">
      <stop
         style="stop-color:#5e81ac;stop-opacity:1;"
         offset="0"
         id="stop4" />
      <stop
         style="stop-color:#81a1c1;stop-opacity:1;"
         offset="0.5"
         id="stop1" />
    </linearGradient>
    <linearGradient
       id="linearGradient2"
       inkscape:collect="always">
      <stop
         style="stop-color:#eceff4;stop-opacity:1;"
         offset="0"
         id="stop2" />
      <stop
         style="stop-color:#d8dee9;stop-opacity:1;"
         offset="1"
         id="stop3" />
    </linearGradient>
    <linearGradient
       inkscape:collect="always"
       xlink:href="#linearGradient2"
       id="linearGradient8"
       x1="31.721739"
       y1="5.2278585"
       x2="31.88887"
       y2="59.145416"
       gradientUnits="userSpaceOnUse"
       gradientTransform="matrix(0.8505,0,0,0.8505,4.7765033,4.7794869)" />
    <filter
       style="color-interpolation-filters:sRGB;"
       inkscape:label="Blur"
       id="filter9"
       x="-0.047762285"
       y="-0.047489063"
       width="1.0955246"
       height="1.0949781">
      <feGaussianBlur
         stdDeviation="1 1"
         result="blur"
         id="feGaussianBlur9" />
    </filter>
    <linearGradient
       inkscape:collect="always"
       xlink:href="#linearGradient4"
       id="linearGradient7"
       x1="26.723248"
       y1="58.711765"
       x2="25.756926"
       y2="5.950614"
       gradientUnits="userSpaceOnUse" />
    <filter
       style="color-interpolation-filters:sRGB;"
       inkscape:label="Out of Focus"
       id="filter40"
       x="-0.24226652"
       y="-0.2858297"
       width="1.484533"
       height="1.5716594">
      <feFlood
         flood-opacity="1"
         flood-color="rgb(255,255,255)"
         result="flood"
         id="feFlood38" />
      <feColorMatrix
         in="SourceGraphic"
         values="1 0 0 0 0 0 1 0 0 0 0 0 1 0 0 -0.2125 -0.7154 -0.0721 1 0 "
         result="colormatrix1"
         id="feColorMatrix38" />
      <feGaussianBlur
         in="colormatrix1"
         stdDeviation="3 3"
         result="blur"
         id="feGaussianBlur38" />
      <feColorMatrix
         in="blur"
         values="1 0 0 0 0 0 1 0 0 0 0 0 1 0 0 0 0 0 6 -2 "
         result="colormatrix2"
         id="feColorMatrix39" />
      <feBlend
         in="colormatrix2"
         in2="flood"
         mode="normal"
         result="blend"
         id="feBlend39" />
      <feComposite
         in="blend"
         in2="blend"
         operator="arithmetic"
         k2="0.2"
         result="composite1"
         id="feComposite39" />
      <feComposite
         in2="SourceGraphic"
         operator="in"
         id="feComposite40" />
    </filter>
  </defs>
  <g
     id="g877"
     transform="matrix(1.1,0,0,1.1,-3.1845928,-3.2065454)">
    <ellipse
       style="opacity:0.5;fill:#000000;stroke:none;stroke-width:3.89319;stroke-dasharray:none;stroke-opacity:1;filter:url(#filter9)"
       id="path2-5"
       cx="31.949858"
       cy="31.969812"
       rx="25.124426"
       ry="25.268976"
       transform="matrix(1.05,0,0,1.05,-1.5974929,-1.5984906)" />
    <path
       style="fill:#f5f7fa;stroke-width:0.204426;fill-opacity:1"
       d=""
       id="path3" />
    <circle
       style="opacity:1;fill:url(#linearGradient8);stroke:url(#linearGradient7);stroke-width:3.81818;stroke-dasharray:none;stroke-opacity:1"
       id="path2"
       cx="31.949856"
       cy="31.969812"
       r="24.711082" />
    <ellipse
       style="opacity:0.3;fill:none;stroke:#000000;stroke-width:0.974376;stroke-dasharray:none;stroke-opacity:1"
       id="path2-9"
       cx="31.949856"
       cy="31.969812"
       rx="23.129124"
       ry="23.129126" />
  </g>
  <path
     style="fill:#000000;fill-opacity:1;stroke-width:0.305023;opacity:0.2"
     d="M 20.359695,47.503573 C 20.104057,47.24793 19.993666,45.592088 19.993666,42.013142 V 36.888743 H 31.432064 42.87046 v 5.174672 c 0,4.803873 -0.04227,5.197298 -0.589994,5.490433 -0.888809,0.475674 -21.441959,0.428535 -21.920771,-0.05027 z m -1.833304,-12.36872 0.09467,-1.143838 12.734746,-0.07961 12.734747,-0.07961 v 1.223441 1.223443 H 31.26114 18.431723 Z m 4.117151,-2.324938 c -0.08833,-0.230196 -0.252933,-1.034194 -0.365772,-1.786662 l -0.205163,-1.368125 1.266716,-0.202555 c 0.696694,-0.111408 1.37981,-0.132661 1.518036,-0.04723 0.138226,0.08543 0.346832,0.792234 0.463567,1.57068 0.116735,0.778446 0.28452,1.603698 0.372855,1.833893 0.122915,0.320313 -0.197324,0.418541 -1.364512,0.418541 -1.011124,0 -1.579247,-0.141057 -1.685727,-0.41854 z m 7.11089,0.161268 c 0,-0.141499 0.271491,-1.046373 0.603311,-2.010829 0.545542,-1.585647 0.560146,-1.83703 0.152513,-2.625307 -0.24794,-0.479464 -0.450801,-1.259807 -0.450801,-1.734102 0,-1.352596 1.402638,-3.103038 2.502918,-3.123552 0.479569,-0.0089 0.484935,0.09043 0.06857,1.270499 -0.421695,1.195215 -0.412514,1.31937 0.138293,1.870176 0.928293,0.928293 1.988727,0.489598 2.437537,-1.008392 0.426527,-1.423618 0.716446,-1.53151 1.209215,-0.450002 0.784945,1.722766 -0.08747,4.201446 -1.613602,4.584479 -0.602833,0.151302 -0.877157,0.54367 -1.285261,1.83833 l -0.518847,1.645972 h -1.621927 c -0.892061,0 -1.621928,-0.115771 -1.621927,-0.257272 z m 9.293603,-2.004101 c 0.95869,-1.296344 1.792978,-2.798198 1.955007,-3.51932 0.208337,-0.927254 0.663048,-1.595698 1.72971,-2.542753 0.79589,-0.706644 1.633696,-1.39503 1.861788,-1.529747 0.479552,-0.283234 2.241228,0.647103 2.241228,1.183588 0,0.19227 -0.412601,1.259558 -0.916894,2.371751 -0.692391,1.527035 -1.207934,2.205894 -2.105521,2.772517 -0.653745,0.412691 -1.637021,1.374721 -2.185053,2.137842 -0.968703,1.348894 -1.041719,1.387495 -2.624527,1.387495 H 37.375666 Z M 21.986418,27.546516 c -0.277856,-1.852868 -0.446448,-2.248682 -0.957802,-2.248682 -0.233695,0 -0.424902,-0.137262 -0.424902,-0.305024 0,-0.453566 -0.847349,-0.369065 -1.128683,0.112555 -0.134159,0.229668 -0.548189,0.511989 -0.920068,0.627378 -0.724858,0.224915 -0.672607,0.327846 -1.276175,-2.514088 -0.315459,-1.485355 -0.01816,-1.797295 1.378823,-1.446678 0.511147,0.12829 0.976629,0.04206 1.295669,-0.240002 0.543822,-0.480804 4.697096,-1.419548 6.280485,-1.419548 1.927598,0 4.005378,1.08094 4.757279,2.47492 0.236104,0.437726 0.106271,0.460947 -1.171849,0.20959 -1.381241,-0.271635 -4.062315,-0.141873 -5.071705,0.245466 -0.265919,0.102047 -0.483489,0.502559 -0.483489,0.890038 0,0.38748 -0.153027,0.755515 -0.340056,0.817861 -0.247932,0.08263 -0.239837,0.596105 0.02989,1.895346 0.402407,1.938377 0.230248,2.298239 -1.104058,2.307801 -0.542198,0.004 -0.68723,-0.232461 -0.863353,-1.406933 z"
     id="path423-7" />
  <path
     style="fill:#4d4d4d;fill-opacity:1;stroke-width:0.305023"
     d="M 20.359695,45.503573 C 20.104057,45.24793 19.993666,43.592088 19.993666,40.013142 V 34.888743 H 31.432064 42.87046 v 5.174672 c 0,4.803873 -0.04227,5.197298 -0.589994,5.490433 -0.888809,0.475674 -21.441959,0.428535 -21.920771,-0.05027 z m -1.833304,-12.36872 0.09467,-1.143838 12.734746,-0.07961 12.734747,-0.07961 v 1.223441 1.223443 H 31.26114 18.431723 Z m 4.117151,-2.324938 c -0.08833,-0.230196 -0.252933,-1.034194 -0.365772,-1.786662 l -0.205163,-1.368125 1.266716,-0.202555 c 0.696694,-0.111408 1.37981,-0.132661 1.518036,-0.04723 0.138226,0.08543 0.346832,0.792234 0.463567,1.57068 0.116735,0.778446 0.28452,1.603698 0.372855,1.833893 0.122915,0.320313 -0.197324,0.418541 -1.364512,0.418541 -1.011124,0 -1.579247,-0.141057 -1.685727,-0.41854 z m 7.11089,0.161268 c 0,-0.141499 0.271491,-1.046373 0.603311,-2.010829 0.545542,-1.585647 0.560146,-1.83703 0.152513,-2.625307 -0.24794,-0.479464 -0.450801,-1.259807 -0.450801,-1.734102 0,-1.352596 1.402638,-3.103038 2.502918,-3.123552 0.479569,-0.0089 0.484935,0.09043 0.06857,1.270499 -0.421695,1.195215 -0.412514,1.31937 0.138293,1.870176 0.928293,0.928293 1.988727,0.489598 2.437537,-1.008392 0.426527,-1.423618 0.716446,-1.53151 1.209215,-0.450002 0.784945,1.722766 -0.08747,4.201446 -1.613602,4.584479 -0.602833,0.151302 -0.877157,0.54367 -1.285261,1.83833 l -0.518847,1.645972 h -1.621927 c -0.892061,0 -1.621928,-0.115771 -1.621927,-0.257272 z m 9.293603,-2.004101 c 0.95869,-1.296344 1.792978,-2.798198 1.955007,-3.51932 0.208337,-0.927254 0.663048,-1.595698 1.72971,-2.542753 0.79589,-0.706644 1.633696,-1.39503 1.861788,-1.529747 0.479552,-0.283234 2.241228,0.647103 2.241228,1.183588 0,0.19227 -0.412601,1.259558 -0.916894,2.371751 -0.692391,1.527035 -1.207934,2.205894 -2.105521,2.772517 -0.653745,0.412691 -1.637021,1.374721 -2.185053,2.137842 -0.968703,1.348894 -1.041719,1.387495 -2.624527,1.387495 H 37.375666 Z M 21.986418,25.546516 c -0.277856,-1.852868 -0.446448,-2.248682 -0.957802,-2.248682 -0.233695,0 -0.424902,-0.137262 -0.424902,-0.305024 0,-0.453566 -0.847349,-0.369065 -1.128683,0.112555 -0.134159,0.229668 -0.548189,0.511989 -0.920068,0.627378 -0.724858,0.224915 -0.672607,0.327846 -1.276175,-2.514088 -0.315459,-1.485355 -0.01816,-1.797295 1.378823,-1.446678 0.511147,0.12829 0.976629,0.04206 1.295669,-0.240002 0.543822,-0.480804 4.697096,-1.419548 6.280485,-1.419548 1.927598,0 4.005378,1.08094 4.757279,2.47492 0.236104,0.437726 0.106271,0.460947 -1.171849,0.20959 -1.381241,-0.271635 -4.062315,-0.141873 -5.071705,0.245466 -0.265919,0.102047 -0.483489,0.502559 -0.483489,0.890038 0,0.38748 -0.153027,0.755515 -0.340056,0.817861 -0.247932,0.08263 -0.239837,0.596105 0.02989,1.895346 0.402407,1.938377 0.230248,2.298239 -1.104058,2.307801 -0.542198,0.004 -0.68723,-0.232461 -0.863353,-1.406933 z"
     id="path423" />
</svg>
