<?xml version="1.0" encoding="UTF-8" standalone="no"?>
<svg
   width="64"
   height="64"
   version="1.1"
   id="svg73"
   sodipodi:docname="abcd.svg"
   inkscape:version="1.4.2 (ebf0e940d0, 2025-05-08)"
   xmlns:inkscape="http://www.inkscape.org/namespaces/inkscape"
   xmlns:sodipodi="http://sodipodi.sourceforge.net/DTD/sodipodi-0.dtd"
   xmlns:xlink="http://www.w3.org/1999/xlink"
   xmlns="http://www.w3.org/2000/svg"
   xmlns:svg="http://www.w3.org/2000/svg"
   xmlns:rdf="http://www.w3.org/1999/02/22-rdf-syntax-ns#"
   xmlns:cc="http://creativecommons.org/ns#"
   xmlns:dc="http://purl.org/dc/elements/1.1/">
  <metadata
     id="metadata77">
    <rdf:RDF>
      <cc:Work
         rdf:about="">
        <dc:format>image/svg+xml</dc:format>
        <dc:type
           rdf:resource="http://purl.org/dc/dcmitype/StillImage" />
      </cc:Work>
    </rdf:RDF>
  </metadata>
  <sodipodi:namedview
     pagecolor="#f5f7fa"
     bordercolor="#666666"
     borderopacity="1"
     objecttolerance="10"
     gridtolerance="10"
     guidetolerance="10"
     inkscape:pageopacity="0"
     inkscape:pageshadow="2"
     inkscape:window-width="1920"
     inkscape:window-height="931"
     id="namedview75"
     showgrid="false"
     inkscape:zoom="6.2890624"
     inkscape:cx="53.346585"
     inkscape:cy="29.734162"
     inkscape:window-x="0"
     inkscape:window-y="0"
     inkscape:window-maximized="1"
     inkscape:current-layer="svg73"
     inkscape:document-rotation="0"
     inkscape:pagecheckerboard="0"
     inkscape:showpageshadow="2"
     inkscape:deskcolor="#d1d1d1" />
  <defs
     id="defs29">
    <linearGradient
       id="linearGradient4"
       inkscape:collect="always">
      <stop
         style="stop-color:#5e81ac;stop-opacity:1;"
         offset="0"
         id="stop4" />
      <stop
         style="stop-color:#81a1c1;stop-opacity:1;"
         offset="0.5"
         id="stop1" />
    </linearGradient>
    <linearGradient
       id="linearGradient2"
       inkscape:collect="always">
      <stop
         style="stop-color:#eceff4;stop-opacity:1;"
         offset="0"
         id="stop2" />
      <stop
         style="stop-color:#d8dee9;stop-opacity:1;"
         offset="1"
         id="stop3" />
    </linearGradient>
    <linearGradient
       inkscape:collect="always"
       xlink:href="#linearGradient2"
       id="linearGradient8"
       x1="31.721739"
       y1="5.2278585"
       x2="31.88887"
       y2="59.145416"
       gradientUnits="userSpaceOnUse"
       gradientTransform="matrix(0.8505,0,0,0.8505,4.7765033,4.7794869)" />
    <filter
       style="color-interpolation-filters:sRGB;"
       inkscape:label="Blur"
       id="filter9"
       x="-0.047762285"
       y="-0.047489063"
       width="1.0955246"
       height="1.0949781">
      <feGaussianBlur
         stdDeviation="1 1"
         result="blur"
         id="feGaussianBlur9" />
    </filter>
    <linearGradient
       inkscape:collect="always"
       xlink:href="#linearGradient4"
       id="linearGradient7"
       x1="26.723248"
       y1="58.711765"
       x2="25.756926"
       y2="5.950614"
       gradientUnits="userSpaceOnUse" />
    <filter
       style="color-interpolation-filters:sRGB;"
       inkscape:label="Out of Focus"
       id="filter40"
       x="-0.24226652"
       y="-0.2858297"
       width="1.484533"
       height="1.5716594">
      <feFlood
         flood-opacity="1"
         flood-color="rgb(255,255,255)"
         result="flood"
         id="feFlood38" />
      <feColorMatrix
         in="SourceGraphic"
         values="1 0 0 0 0 0 1 0 0 0 0 0 1 0 0 -0.2125 -0.7154 -0.0721 1 0 "
         result="colormatrix1"
         id="feColorMatrix38" />
      <feGaussianBlur
         in="colormatrix1"
         stdDeviation="3 3"
         result="blur"
         id="feGaussianBlur38" />
      <feColorMatrix
         in="blur"
         values="1 0 0 0 0 0 1 0 0 0 0 0 1 0 0 0 0 0 6 -2 "
         result="colormatrix2"
         id="feColorMatrix39" />
      <feBlend
         in="colormatrix2"
         in2="flood"
         mode="normal"
         result="blend"
         id="feBlend39" />
      <feComposite
         in="blend"
         in2="blend"
         operator="arithmetic"
         k2="0.2"
         result="composite1"
         id="feComposite39" />
      <feComposite
         in2="SourceGraphic"
         operator="in"
         id="feComposite40" />
    </filter>
  </defs>
  <g
     id="g877"
     transform="matrix(1.1,0,0,1.1,-3.1845928,-3.2065454)">
    <ellipse
       style="opacity:0.5;fill:#000000;stroke:none;stroke-width:3.89319;stroke-dasharray:none;stroke-opacity:1;filter:url(#filter9)"
       id="path2-5"
       cx="31.949858"
       cy="31.969812"
       rx="25.124426"
       ry="25.268976"
       transform="matrix(1.05,0,0,1.05,-1.5974929,-1.5984906)" />
    <path
       style="fill:#f5f7fa;stroke-width:0.204426;fill-opacity:1"
       d=""
       id="path3" />
    <circle
       style="opacity:1;fill:url(#linearGradient8);stroke:url(#linearGradient7);stroke-width:3.81818;stroke-dasharray:none;stroke-opacity:1"
       id="path2"
       cx="31.949856"
       cy="31.969812"
       r="24.711082" />
    <ellipse
       style="opacity:0.3;fill:none;stroke:#000000;stroke-width:0.974376;stroke-dasharray:none;stroke-opacity:1"
       id="path2-9"
       cx="31.949856"
       cy="31.969812"
       rx="23.129124"
       ry="23.129126" />
  </g>
  <path
     d="m 16.978118,21.749586 -0.556371,0.556838 v 1.113642 l 0.556371,0.556837 h 1.669103 v 21.716982 l 0.55638,0.556834 h 1.669101 l 24.48075,-22.830365 v -1.11364 L 44.797083,21.749876 H 34.78246 l -0.556377,0.556838 v 1.11364 l 0.556377,0.55684 h 1.669105 v 1.11364 L 24.21119,36.227242 V 23.976596 h 1.669104 l 0.55638,-0.556839 v -1.11364 l -0.55638,-0.556837 z m 17.130379,13.364032 -0.788942,0.556838 -0.373883,1.11364 0.417278,0.55684 h 1.20399 l 0.788937,-0.55684 0.371657,-1.11364 -0.415055,-0.556838 m -4.090476,3.341009 -0.334938,1.113643 h 1.001461 l -2.114254,5.568373 h 3.338207 l 0.410611,-1.113641 h -0.966998 l 2.114255,-5.568375 m 1.33417,0 -0.389458,1.113643 h 0.834562 l -2.114255,5.568373 h 2.838627 l 0.389466,-1.113641 h -0.613126 l 1.169527,-3.341005 h 2.364559 l -1.586782,4.454727 h 2.781894 l 0.445101,-1.113637 H 41.51373 l 1.167307,-3.341009 h 2.225497 l -1.557859,4.454737 h 2.91652 l 0.510744,-1.113643 H 45.99813 l 1.580124,-4.454734 -0.891324,-1.113642 h -1.334177 l -1.112786,1.113642 H 43.29412 l -0.946944,-1.113642 h -1.055978 l -1.057084,1.113642 h -1.112791 l -1.001467,-1.113642"
     fill="url(#c)"
     id="path37-3"
     style="fill:#000000;fill-opacity:1;stroke:none;stroke-width:0.491164;stroke-dasharray:none;stroke-opacity:0.6;opacity:0.2" />
  <path
     d="m 16.978118,19.749586 -0.556371,0.556838 v 1.113642 l 0.556371,0.556837 h 1.669103 v 21.716982 l 0.55638,0.556834 h 1.669101 l 24.48075,-22.830365 v -1.11364 L 44.797083,19.749876 H 34.78246 l -0.556377,0.556838 v 1.11364 l 0.556377,0.55684 h 1.669105 v 1.11364 L 24.21119,34.227242 V 21.976596 h 1.669104 l 0.55638,-0.556839 v -1.11364 l -0.55638,-0.556837 z m 17.130379,13.364032 -0.788942,0.556838 -0.373883,1.11364 0.417278,0.55684 h 1.20399 l 0.788937,-0.55684 0.371657,-1.11364 -0.415055,-0.556838 m -4.090476,3.341009 -0.334938,1.113643 h 1.001461 l -2.114254,5.568373 h 3.338207 l 0.410611,-1.113641 h -0.966998 l 2.114255,-5.568375 m 1.33417,0 -0.389458,1.113643 h 0.834562 l -2.114255,5.568373 h 2.838627 l 0.389466,-1.113641 h -0.613126 l 1.169527,-3.341005 h 2.364559 l -1.586782,4.454727 h 2.781894 l 0.445101,-1.113637 H 41.51373 l 1.167307,-3.341009 h 2.225497 l -1.557859,4.454737 h 2.91652 l 0.510744,-1.113643 H 45.99813 l 1.580124,-4.454734 -0.891324,-1.113642 h -1.334177 l -1.112786,1.113642 H 43.29412 l -0.946944,-1.113642 h -1.055978 l -1.057084,1.113642 h -1.112791 l -1.001467,-1.113642"
     fill="url(#c)"
     id="path37"
     style="fill:#4d4d4d;fill-opacity:1;stroke:none;stroke-width:0.491164;stroke-dasharray:none;stroke-opacity:0.6" />
</svg>
