<?xml version="1.0" encoding="UTF-8" standalone="no"?>
<svg
   width="64"
   height="64"
   version="1.1"
   id="svg73"
   sodipodi:docname="abcd.svg"
   inkscape:version="1.4.2 (ebf0e940d0, 2025-05-08)"
   xmlns:inkscape="http://www.inkscape.org/namespaces/inkscape"
   xmlns:sodipodi="http://sodipodi.sourceforge.net/DTD/sodipodi-0.dtd"
   xmlns:xlink="http://www.w3.org/1999/xlink"
   xmlns="http://www.w3.org/2000/svg"
   xmlns:svg="http://www.w3.org/2000/svg"
   xmlns:rdf="http://www.w3.org/1999/02/22-rdf-syntax-ns#"
   xmlns:cc="http://creativecommons.org/ns#"
   xmlns:dc="http://purl.org/dc/elements/1.1/">
  <metadata
     id="metadata77">
    <rdf:RDF>
      <cc:Work
         rdf:about="">
        <dc:format>image/svg+xml</dc:format>
        <dc:type
           rdf:resource="http://purl.org/dc/dcmitype/StillImage" />
      </cc:Work>
    </rdf:RDF>
  </metadata>
  <sodipodi:namedview
     pagecolor="#f5f7fa"
     bordercolor="#666666"
     borderopacity="1"
     objecttolerance="10"
     gridtolerance="10"
     guidetolerance="10"
     inkscape:pageopacity="0"
     inkscape:pageshadow="2"
     inkscape:window-width="1320"
     inkscape:window-height="766"
     id="namedview75"
     showgrid="false"
     inkscape:zoom="4.4470387"
     inkscape:cx="53.518761"
     inkscape:cy="22.37444"
     inkscape:window-x="24"
     inkscape:window-y="21"
     inkscape:window-maximized="0"
     inkscape:current-layer="svg73"
     inkscape:document-rotation="0"
     inkscape:pagecheckerboard="0"
     inkscape:showpageshadow="2"
     inkscape:deskcolor="#d1d1d1" />
  <defs
     id="defs29">
    <linearGradient
       id="linearGradient4"
       inkscape:collect="always">
      <stop
         style="stop-color:#5e81ac;stop-opacity:1;"
         offset="0"
         id="stop4" />
      <stop
         style="stop-color:#81a1c1;stop-opacity:1;"
         offset="0.5"
         id="stop1" />
    </linearGradient>
    <linearGradient
       id="linearGradient2"
       inkscape:collect="always">
      <stop
         style="stop-color:#eceff4;stop-opacity:1;"
         offset="0"
         id="stop2" />
      <stop
         style="stop-color:#d8dee9;stop-opacity:1;"
         offset="1"
         id="stop3" />
    </linearGradient>
    <linearGradient
       inkscape:collect="always"
       xlink:href="#linearGradient2"
       id="linearGradient8"
       x1="31.721739"
       y1="5.2278585"
       x2="31.88887"
       y2="59.145416"
       gradientUnits="userSpaceOnUse"
       gradientTransform="matrix(0.8505,0,0,0.8505,4.7765033,4.7794869)" />
    <filter
       style="color-interpolation-filters:sRGB;"
       inkscape:label="Blur"
       id="filter9"
       x="-0.047762285"
       y="-0.047489063"
       width="1.0955246"
       height="1.0949781">
      <feGaussianBlur
         stdDeviation="1 1"
         result="blur"
         id="feGaussianBlur9" />
    </filter>
    <linearGradient
       inkscape:collect="always"
       xlink:href="#linearGradient4"
       id="linearGradient7"
       x1="26.723248"
       y1="58.711765"
       x2="25.756926"
       y2="5.950614"
       gradientUnits="userSpaceOnUse" />
    <filter
       style="color-interpolation-filters:sRGB;"
       inkscape:label="Out of Focus"
       id="filter40"
       x="-0.24226652"
       y="-0.2858297"
       width="1.484533"
       height="1.5716594">
      <feFlood
         flood-opacity="1"
         flood-color="rgb(255,255,255)"
         result="flood"
         id="feFlood38" />
      <feColorMatrix
         in="SourceGraphic"
         values="1 0 0 0 0 0 1 0 0 0 0 0 1 0 0 -0.2125 -0.7154 -0.0721 1 0 "
         result="colormatrix1"
         id="feColorMatrix38" />
      <feGaussianBlur
         in="colormatrix1"
         stdDeviation="3 3"
         result="blur"
         id="feGaussianBlur38" />
      <feColorMatrix
         in="blur"
         values="1 0 0 0 0 0 1 0 0 0 0 0 1 0 0 0 0 0 6 -2 "
         result="colormatrix2"
         id="feColorMatrix39" />
      <feBlend
         in="colormatrix2"
         in2="flood"
         mode="normal"
         result="blend"
         id="feBlend39" />
      <feComposite
         in="blend"
         in2="blend"
         operator="arithmetic"
         k2="0.2"
         result="composite1"
         id="feComposite39" />
      <feComposite
         in2="SourceGraphic"
         operator="in"
         id="feComposite40" />
    </filter>
  </defs>
  <g
     id="g877"
     transform="matrix(1.1,0,0,1.1,-3.1845928,-3.2065454)">
    <ellipse
       style="opacity:0.5;fill:#000000;stroke:none;stroke-width:3.89319;stroke-dasharray:none;stroke-opacity:1;filter:url(#filter9)"
       id="path2-5"
       cx="31.949858"
       cy="31.969812"
       rx="25.124426"
       ry="25.268976"
       transform="matrix(1.05,0,0,1.05,-1.5974929,-1.5984906)" />
    <path
       style="fill:#f5f7fa;stroke-width:0.204426;fill-opacity:1"
       d=""
       id="path3" />
    <circle
       style="opacity:1;fill:url(#linearGradient8);stroke:url(#linearGradient7);stroke-width:3.81818;stroke-dasharray:none;stroke-opacity:1"
       id="path2"
       cx="31.949856"
       cy="31.969812"
       r="24.711082" />
    <ellipse
       style="opacity:0.3;fill:none;stroke:#000000;stroke-width:0.974376;stroke-dasharray:none;stroke-opacity:1"
       id="path2-9"
       cx="31.949856"
       cy="31.969812"
       rx="23.129124"
       ry="23.129126" />
  </g>
  <path
     style="fill:#000000;fill-opacity:1;stroke:none;stroke-width:0.464149;stroke-dasharray:none;stroke-opacity:0.6;opacity:0.2"
     d="m 29.521634,48.175542 c -0.264916,-0.138147 -0.387426,-0.264955 -0.506547,-0.524351 -0.132578,-0.288717 -0.138843,-0.552337 -0.01992,-0.839138 0.06399,-0.154315 2.217162,-2.348484 7.334964,-7.47458 5.529123,-5.538092 7.308728,-7.35468 7.516112,-7.672344 1.43978,-2.205374 1.462265,-4.918092 0.0583,-7.034791 -1.681717,-2.535471 -4.988885,-3.515803 -7.78008,-2.306223 -1.112464,0.482088 -0.922606,0.306219 -8.592525,7.95941 -3.905645,3.897128 -7.255523,7.277454 -7.444174,7.511836 -0.635604,0.789679 -0.940206,1.660471 -0.940206,2.687827 0,1.98691 1.290521,3.652543 3.235312,4.175695 0.574713,0.1546 1.548023,0.144139 2.136398,-0.02329 0.538086,-0.15288 1.059463,-0.400262 1.441374,-0.683932 0.148845,-0.110548 3.183058,-3.117492 6.742696,-6.68208 4.370044,-4.376042 6.511494,-6.560249 6.593449,-6.725013 0.253288,-0.509194 0.259573,-1.197009 0.01563,-1.747687 -0.138399,-0.312894 -0.553422,-0.745122 -0.869712,-0.905777 -0.579646,-0.294429 -1.349014,-0.282315 -1.900412,0.02992 -0.165062,0.09349 -2.570932,2.451219 -6.404202,6.276113 -3.376892,3.369521 -6.204613,6.159447 -6.283822,6.199842 -0.19932,0.101662 -0.704388,0.09195 -0.914934,-0.01754 -0.235102,-0.122291 -0.414766,-0.322862 -0.524609,-0.585747 -0.122146,-0.292328 -0.114501,-0.547075 0.02502,-0.834466 0.07897,-0.162447 2.115923,-2.234301 6.360263,-6.469235 6.768754,-6.753755 6.492349,-6.501591 7.477968,-6.82209 0.340252,-0.110638 0.640373,-0.160385 1.086951,-0.18018 0.80672,-0.03575 1.331142,0.07458 2.056243,0.432589 0.463553,0.228879 0.642863,0.36089 1.059244,0.779843 1.603398,1.613306 1.644196,4.012902 0.09803,5.764917 -0.24136,0.273526 -3.264248,3.314386 -6.717475,6.757471 -6.602073,6.582869 -6.563699,6.547245 -7.597416,7.052834 -3.458842,1.691886 -7.709993,-0.09178 -8.931226,-3.747354 -0.205219,-0.614283 -0.354103,-1.498352 -0.354267,-2.103604 -5.7e-4,-1.24695 0.485942,-2.733668 1.231681,-3.765731 0.137933,-0.190881 3.572338,-3.667913 7.632019,-7.726738 6.584363,-6.582972 7.441163,-7.419229 7.936275,-7.746013 1.005944,-0.663946 2.030426,-1.097622 3.14648,-1.331951 0.742034,-0.155801 2.599239,-0.158228 3.319607,-0.0044 2.963215,0.633006 5.378189,2.743075 6.33333,5.533712 0.32602,0.952495 0.439338,1.649328 0.44433,2.732068 0.0092,1.95427 -0.497874,3.521112 -1.65364,5.111612 -0.391674,0.539005 -14.637379,14.821248 -14.914483,14.95274 -0.241371,0.114515 -0.708313,0.112405 -0.932038,-0.0044 z"
     id="path1-3" />
  <path
     style="fill:#4d4d4d;fill-opacity:1;stroke:none;stroke-width:0.464149;stroke-dasharray:none;stroke-opacity:0.6"
     d="m 29.521634,46.175542 c -0.264916,-0.138147 -0.387426,-0.264955 -0.506547,-0.524351 -0.132578,-0.288717 -0.138843,-0.552337 -0.01992,-0.839138 0.06399,-0.154315 2.217162,-2.348484 7.334964,-7.47458 5.529123,-5.538092 7.308728,-7.35468 7.516112,-7.672344 1.43978,-2.205374 1.462265,-4.918092 0.0583,-7.034791 -1.681717,-2.535471 -4.988885,-3.515803 -7.78008,-2.306223 -1.112464,0.482088 -0.922606,0.306219 -8.592525,7.95941 -3.905645,3.897128 -7.255523,7.277454 -7.444174,7.511836 -0.635604,0.789679 -0.940206,1.660471 -0.940206,2.687827 0,1.98691 1.290521,3.652543 3.235312,4.175695 0.574713,0.1546 1.548023,0.144139 2.136398,-0.02329 0.538086,-0.15288 1.059463,-0.400262 1.441374,-0.683932 0.148845,-0.110548 3.183058,-3.117492 6.742696,-6.68208 4.370044,-4.376042 6.511494,-6.560249 6.593449,-6.725013 0.253288,-0.509194 0.259573,-1.197009 0.01563,-1.747687 -0.138399,-0.312894 -0.553422,-0.745122 -0.869712,-0.905777 -0.579646,-0.294429 -1.349014,-0.282315 -1.900412,0.02992 -0.165062,0.09349 -2.570932,2.451219 -6.404202,6.276113 -3.376892,3.369521 -6.204613,6.159447 -6.283822,6.199842 -0.19932,0.101662 -0.704388,0.09195 -0.914934,-0.01754 -0.235102,-0.122291 -0.414766,-0.322862 -0.524609,-0.585747 -0.122146,-0.292328 -0.114501,-0.547075 0.02502,-0.834466 0.07897,-0.162447 2.115923,-2.234301 6.360263,-6.469235 6.768754,-6.753755 6.492349,-6.501591 7.477968,-6.82209 0.340252,-0.110638 0.640373,-0.160385 1.086951,-0.18018 0.80672,-0.03575 1.331142,0.07458 2.056243,0.432589 0.463553,0.228879 0.642863,0.36089 1.059244,0.779843 1.603398,1.613306 1.644196,4.012902 0.09803,5.764917 -0.24136,0.273526 -3.264248,3.314386 -6.717475,6.757471 -6.602073,6.582869 -6.563699,6.547245 -7.597416,7.052834 -3.458842,1.691886 -7.709993,-0.09178 -8.931226,-3.747354 -0.205219,-0.614283 -0.354103,-1.498352 -0.354267,-2.103604 -5.7e-4,-1.24695 0.485942,-2.733668 1.231681,-3.765731 0.137933,-0.190881 3.572338,-3.667913 7.632019,-7.726738 6.584363,-6.582972 7.441163,-7.419229 7.936275,-7.746013 1.005944,-0.663946 2.030426,-1.097622 3.14648,-1.331951 0.742034,-0.155801 2.599239,-0.158228 3.319607,-0.0044 2.963215,0.633006 5.378189,2.743075 6.33333,5.533712 0.32602,0.952495 0.439338,1.649328 0.44433,2.732068 0.0092,1.95427 -0.497874,3.521112 -1.65364,5.111612 -0.391674,0.539005 -14.637379,14.821248 -14.914483,14.95274 -0.241371,0.114515 -0.708313,0.112405 -0.932038,-0.0044 z"
     id="path1" />
</svg>
