<?xml version="1.0" encoding="UTF-8" standalone="no"?>
<svg
   width="64"
   height="64"
   version="1.1"
   id="svg73"
   sodipodi:docname="1password.svg"
   inkscape:version="1.4.2 (ebf0e940d0, 2025-05-08)"
   xmlns:inkscape="http://www.inkscape.org/namespaces/inkscape"
   xmlns:sodipodi="http://sodipodi.sourceforge.net/DTD/sodipodi-0.dtd"
   xmlns:xlink="http://www.w3.org/1999/xlink"
   xmlns="http://www.w3.org/2000/svg"
   xmlns:svg="http://www.w3.org/2000/svg"
   xmlns:rdf="http://www.w3.org/1999/02/22-rdf-syntax-ns#"
   xmlns:cc="http://creativecommons.org/ns#"
   xmlns:dc="http://purl.org/dc/elements/1.1/">
  <metadata
     id="metadata77">
    <rdf:RDF>
      <cc:Work
         rdf:about="">
        <dc:format>image/svg+xml</dc:format>
        <dc:type
           rdf:resource="http://purl.org/dc/dcmitype/StillImage" />
      </cc:Work>
    </rdf:RDF>
  </metadata>
  <sodipodi:namedview
     pagecolor="#f5f7fa"
     bordercolor="#666666"
     borderopacity="1"
     objecttolerance="10"
     gridtolerance="10"
     guidetolerance="10"
     inkscape:pageopacity="0"
     inkscape:pageshadow="2"
     inkscape:window-width="1289"
     inkscape:window-height="707"
     id="namedview75"
     showgrid="false"
     inkscape:zoom="6.2890624"
     inkscape:cx="53.505591"
     inkscape:cy="29.734162"
     inkscape:window-x="24"
     inkscape:window-y="21"
     inkscape:window-maximized="0"
     inkscape:current-layer="svg73"
     inkscape:document-rotation="0"
     inkscape:pagecheckerboard="0"
     inkscape:showpageshadow="2"
     inkscape:deskcolor="#d1d1d1" />
  <defs
     id="defs29">
    <linearGradient
       id="linearGradient4"
       inkscape:collect="always">
      <stop
         style="stop-color:#5e81ac;stop-opacity:1;"
         offset="0"
         id="stop4" />
      <stop
         style="stop-color:#81a1c1;stop-opacity:1;"
         offset="0.5"
         id="stop1" />
    </linearGradient>
    <linearGradient
       id="linearGradient2"
       inkscape:collect="always">
      <stop
         style="stop-color:#eceff4;stop-opacity:1;"
         offset="0"
         id="stop2" />
      <stop
         style="stop-color:#d8dee9;stop-opacity:1;"
         offset="1"
         id="stop3" />
    </linearGradient>
    <linearGradient
       inkscape:collect="always"
       xlink:href="#linearGradient2"
       id="linearGradient8"
       x1="31.721739"
       y1="5.2278585"
       x2="31.88887"
       y2="59.145416"
       gradientUnits="userSpaceOnUse"
       gradientTransform="matrix(0.8505,0,0,0.8505,4.7765033,4.7794869)" />
    <filter
       style="color-interpolation-filters:sRGB;"
       inkscape:label="Blur"
       id="filter9"
       x="-0.047762285"
       y="-0.047489063"
       width="1.0955246"
       height="1.0949781">
      <feGaussianBlur
         stdDeviation="1 1"
         result="blur"
         id="feGaussianBlur9" />
    </filter>
    <linearGradient
       inkscape:collect="always"
       xlink:href="#linearGradient4"
       id="linearGradient7"
       x1="26.723248"
       y1="58.711765"
       x2="25.756926"
       y2="5.950614"
       gradientUnits="userSpaceOnUse" />
    <filter
       style="color-interpolation-filters:sRGB;"
       inkscape:label="Out of Focus"
       id="filter40"
       x="-0.24226652"
       y="-0.2858297"
       width="1.484533"
       height="1.5716594">
      <feFlood
         flood-opacity="1"
         flood-color="rgb(255,255,255)"
         result="flood"
         id="feFlood38" />
      <feColorMatrix
         in="SourceGraphic"
         values="1 0 0 0 0 0 1 0 0 0 0 0 1 0 0 -0.2125 -0.7154 -0.0721 1 0 "
         result="colormatrix1"
         id="feColorMatrix38" />
      <feGaussianBlur
         in="colormatrix1"
         stdDeviation="3 3"
         result="blur"
         id="feGaussianBlur38" />
      <feColorMatrix
         in="blur"
         values="1 0 0 0 0 0 1 0 0 0 0 0 1 0 0 0 0 0 6 -2 "
         result="colormatrix2"
         id="feColorMatrix39" />
      <feBlend
         in="colormatrix2"
         in2="flood"
         mode="normal"
         result="blend"
         id="feBlend39" />
      <feComposite
         in="blend"
         in2="blend"
         operator="arithmetic"
         k2="0.2"
         result="composite1"
         id="feComposite39" />
      <feComposite
         in2="SourceGraphic"
         operator="in"
         id="feComposite40" />
    </filter>
  </defs>
  <g
     id="g877"
     transform="matrix(1.1,0,0,1.1,-3.1845928,-3.2065454)">
    <ellipse
       style="opacity:0.5;fill:#000000;stroke:none;stroke-width:3.89319;stroke-dasharray:none;stroke-opacity:1;filter:url(#filter9)"
       id="path2-5"
       cx="31.949858"
       cy="31.969812"
       rx="25.124426"
       ry="25.268976"
       transform="matrix(1.05,0,0,1.05,-1.5974929,-1.5984906)" />
    <path
       style="fill:#f5f7fa;stroke-width:0.204426;fill-opacity:1"
       d=""
       id="path3" />
    <circle
       style="opacity:1;fill:url(#linearGradient8);stroke:url(#linearGradient7);stroke-width:3.81818;stroke-dasharray:none;stroke-opacity:1"
       id="path2"
       cx="31.949856"
       cy="31.969812"
       r="24.711082" />
    <ellipse
       style="opacity:0.3;fill:none;stroke:#000000;stroke-width:0.974376;stroke-dasharray:none;stroke-opacity:1"
       id="path2-9"
       cx="31.949856"
       cy="31.969812"
       rx="23.129124"
       ry="23.129126" />
  </g>
  <path
     id="path635-9"
     style="fill:#000000;fill-opacity:1;stroke:none;stroke-width:0.467775;stroke-dasharray:none;stroke-opacity:0.6;opacity:0.2"
     d="m 32.000057,18.562198 c -0.160027,0 -3.632737,1.671007 -7.717029,3.713349 -6.365434,3.183024 -7.451382,3.762582 -7.603995,4.057709 -0.154546,0.298852 -0.178061,1.323674 -0.178061,7.764651 0,7.381906 0.0014,7.421979 0.245863,7.732903 0.169213,0.215085 2.512395,1.448326 7.517355,3.956534 5.548683,2.780698 7.374686,3.645563 7.707176,3.65043 0.346542,0.0052 1.929999,-0.740804 7.735866,-3.644022 5.035581,-2.518042 7.376364,-3.747345 7.545947,-3.962942 0.244563,-0.31091 0.245849,-0.350983 0.245849,-7.732903 0,-6.440977 -0.02379,-7.465798 -0.178022,-7.764651 -0.152629,-0.295127 -1.238583,-0.874685 -7.604015,-4.057709 -4.084297,-2.042342 -7.556906,-3.713349 -7.716934,-3.713349 z m 0.03852,1.462445 7.031374,3.535385 7.031464,3.535388 0.0022,6.976097 0.0024,6.976197 -1.596427,0.757475 c -0.878,0.416586 -4.051781,1.983773 -7.052903,3.4826 l -5.456538,2.725123 -7.050495,-3.492926 -7.050499,-3.492929 -0.0024,-6.966536 -0.0024,-6.966632 7.072204,-3.53462 z m -0.03852,8.974257 c -5.075229,0 -10.150521,0.05044 -10.251472,0.151381 -0.103906,0.103895 -0.139327,1.370757 -0.139327,4.983965 0,4.249366 0.02241,4.866978 0.182461,5.026998 0.163038,0.163041 1.248736,0.182459 10.208342,0.182459 8.959602,0 10.045205,-0.0196 10.208243,-0.182459 0.160021,-0.16002 0.182457,-0.777632 0.182457,-5.026998 4e-6,-3.613208 -0.03542,-4.88006 -0.139317,-4.983965 C 42.150508,29.049334 37.075298,28.9989 32.000069,28.9989 Z m 3.545331,1.627598 -0.03119,2.646135 -0.03132,2.646138 -0.843347,0.03411 c -0.616193,0.02496 -0.85918,-0.007 -0.902113,-0.11896 -0.03232,-0.08421 -0.04463,-1.275052 -0.02737,-2.646328 l 0.03138,-2.493227 0.901973,-0.03393 z m -12.310734,3.57e-4 0.899768,0.03393 0.899767,0.03384 0.03288,2.380003 c 0.01807,1.308995 0.0041,2.497588 -0.03132,2.641257 -0.05866,0.239066 -0.131179,0.261163 -0.855205,0.261163 -0.435118,0 -0.826025,-0.03479 -0.868594,-0.07737 -0.04255,-0.04257 -0.07735,-1.24636 -0.07735,-2.67511 z m 3.482883,0 0.899771,0.03393 0.899767,0.03384 v 2.612189 2.612188 l -0.81772,0.03366 c -0.449765,0.0185 -0.854666,-0.0034 -0.899769,-0.0484 -0.0451,-0.0451 -0.08205,-1.250949 -0.08205,-2.6797 z m 3.541031,0.06778 h 0.870692 0.870797 v 2.612192 2.612187 l -0.843442,0.03411 c -0.616243,0.02498 -0.859232,-0.0069 -0.902163,-0.11895 -0.03232,-0.0842 -0.04462,-1.275053 -0.02732,-2.646327 z" />
  <path
     id="path635"
     style="fill:#4d4d4d;fill-opacity:1;stroke:none;stroke-width:0.467775;stroke-dasharray:none;stroke-opacity:0.6"
     d="m 32.000057,16.562198 c -0.160027,0 -3.632737,1.671007 -7.717029,3.713349 -6.365434,3.183024 -7.451382,3.762582 -7.603995,4.057709 -0.154546,0.298852 -0.178061,1.323674 -0.178061,7.764651 0,7.381906 0.0014,7.421979 0.245863,7.732903 0.169213,0.215085 2.512395,1.448326 7.517355,3.956534 5.548683,2.780698 7.374686,3.645563 7.707176,3.65043 0.346542,0.0052 1.929999,-0.740804 7.735866,-3.644022 5.035581,-2.518042 7.376364,-3.747345 7.545947,-3.962942 0.244563,-0.31091 0.245849,-0.350983 0.245849,-7.732903 0,-6.440977 -0.02379,-7.465798 -0.178022,-7.764651 -0.152629,-0.295127 -1.238583,-0.874685 -7.604015,-4.057709 -4.084297,-2.042342 -7.556906,-3.713349 -7.716934,-3.713349 z m 0.03852,1.462445 7.031374,3.535385 7.031464,3.535388 0.0022,6.976097 0.0024,6.976197 -1.596427,0.757475 c -0.878,0.416586 -4.051781,1.983773 -7.052903,3.4826 l -5.456538,2.725123 -7.050495,-3.492926 -7.050499,-3.492929 -0.0024,-6.966536 -0.0024,-6.966632 7.072204,-3.53462 z m -0.03852,8.974257 c -5.075229,0 -10.150521,0.05044 -10.251472,0.151381 -0.103906,0.103895 -0.139327,1.370757 -0.139327,4.983965 0,4.249366 0.02241,4.866978 0.182461,5.026998 0.163038,0.163041 1.248736,0.182459 10.208342,0.182459 8.959602,0 10.045205,-0.0196 10.208243,-0.182459 0.160021,-0.16002 0.182457,-0.777632 0.182457,-5.026998 4e-6,-3.613208 -0.03542,-4.88006 -0.139317,-4.983965 C 42.150508,27.049334 37.075298,26.9989 32.000069,26.9989 Z m 3.545331,1.627598 -0.03119,2.646135 -0.03132,2.646138 -0.843347,0.03411 c -0.616193,0.02496 -0.85918,-0.007 -0.902113,-0.11896 -0.03232,-0.08421 -0.04463,-1.275052 -0.02737,-2.646328 l 0.03138,-2.493227 0.901973,-0.03393 z m -12.310734,3.57e-4 0.899768,0.03393 0.899767,0.03384 0.03288,2.380003 c 0.01807,1.308995 0.0041,2.497588 -0.03132,2.641257 -0.05866,0.239066 -0.131179,0.261163 -0.855205,0.261163 -0.435118,0 -0.826025,-0.03479 -0.868594,-0.07737 -0.04255,-0.04257 -0.07735,-1.24636 -0.07735,-2.67511 z m 3.482883,0 0.899771,0.03393 0.899767,0.03384 v 2.612189 2.612188 l -0.81772,0.03366 c -0.449765,0.0185 -0.854666,-0.0034 -0.899769,-0.0484 -0.0451,-0.0451 -0.08205,-1.250949 -0.08205,-2.6797 z m 3.541031,0.06778 h 0.870692 0.870797 v 2.612192 2.612187 l -0.843442,0.03411 c -0.616243,0.02498 -0.859232,-0.0069 -0.902163,-0.11895 -0.03232,-0.0842 -0.04462,-1.275053 -0.02732,-2.646327 z" />
</svg>
