<?xml version="1.0" encoding="UTF-8" standalone="no"?>
<svg
   width="64"
   height="64"
   version="1.1"
   id="svg73"
   sodipodi:docname="abcd.svg"
   inkscape:version="1.4.2 (ebf0e940d0, 2025-05-08)"
   xmlns:inkscape="http://www.inkscape.org/namespaces/inkscape"
   xmlns:sodipodi="http://sodipodi.sourceforge.net/DTD/sodipodi-0.dtd"
   xmlns:xlink="http://www.w3.org/1999/xlink"
   xmlns="http://www.w3.org/2000/svg"
   xmlns:svg="http://www.w3.org/2000/svg"
   xmlns:rdf="http://www.w3.org/1999/02/22-rdf-syntax-ns#"
   xmlns:cc="http://creativecommons.org/ns#"
   xmlns:dc="http://purl.org/dc/elements/1.1/">
  <metadata
     id="metadata77">
    <rdf:RDF>
      <cc:Work
         rdf:about="">
        <dc:format>image/svg+xml</dc:format>
        <dc:type
           rdf:resource="http://purl.org/dc/dcmitype/StillImage" />
      </cc:Work>
    </rdf:RDF>
  </metadata>
  <sodipodi:namedview
     pagecolor="#f5f7fa"
     bordercolor="#666666"
     borderopacity="1"
     objecttolerance="10"
     gridtolerance="10"
     guidetolerance="10"
     inkscape:pageopacity="0"
     inkscape:pageshadow="2"
     inkscape:window-width="1920"
     inkscape:window-height="931"
     id="namedview75"
     showgrid="false"
     inkscape:zoom="4.4470387"
     inkscape:cx="39.127162"
     inkscape:cy="32.156231"
     inkscape:window-x="0"
     inkscape:window-y="0"
     inkscape:window-maximized="1"
     inkscape:current-layer="svg73"
     inkscape:document-rotation="0"
     inkscape:pagecheckerboard="0"
     inkscape:showpageshadow="2"
     inkscape:deskcolor="#d1d1d1" />
  <defs
     id="defs29">
    <linearGradient
       id="linearGradient4"
       inkscape:collect="always">
      <stop
         style="stop-color:#5e81ac;stop-opacity:1;"
         offset="0"
         id="stop4" />
      <stop
         style="stop-color:#81a1c1;stop-opacity:1;"
         offset="0.5"
         id="stop1" />
    </linearGradient>
    <linearGradient
       id="linearGradient2"
       inkscape:collect="always">
      <stop
         style="stop-color:#eceff4;stop-opacity:1;"
         offset="0"
         id="stop2" />
      <stop
         style="stop-color:#d8dee9;stop-opacity:1;"
         offset="1"
         id="stop3" />
    </linearGradient>
    <linearGradient
       inkscape:collect="always"
       xlink:href="#linearGradient2"
       id="linearGradient8"
       x1="31.721739"
       y1="5.2278585"
       x2="31.88887"
       y2="59.145416"
       gradientUnits="userSpaceOnUse"
       gradientTransform="matrix(0.8505,0,0,0.8505,4.7765033,4.7794869)" />
    <filter
       style="color-interpolation-filters:sRGB;"
       inkscape:label="Blur"
       id="filter9"
       x="-0.047762285"
       y="-0.047489063"
       width="1.0955246"
       height="1.0949781">
      <feGaussianBlur
         stdDeviation="1 1"
         result="blur"
         id="feGaussianBlur9" />
    </filter>
    <linearGradient
       inkscape:collect="always"
       xlink:href="#linearGradient4"
       id="linearGradient7"
       x1="26.723248"
       y1="58.711765"
       x2="25.756926"
       y2="5.950614"
       gradientUnits="userSpaceOnUse" />
    <filter
       style="color-interpolation-filters:sRGB;"
       inkscape:label="Out of Focus"
       id="filter40"
       x="-0.24226652"
       y="-0.2858297"
       width="1.484533"
       height="1.5716594">
      <feFlood
         flood-opacity="1"
         flood-color="rgb(255,255,255)"
         result="flood"
         id="feFlood38" />
      <feColorMatrix
         in="SourceGraphic"
         values="1 0 0 0 0 0 1 0 0 0 0 0 1 0 0 -0.2125 -0.7154 -0.0721 1 0 "
         result="colormatrix1"
         id="feColorMatrix38" />
      <feGaussianBlur
         in="colormatrix1"
         stdDeviation="3 3"
         result="blur"
         id="feGaussianBlur38" />
      <feColorMatrix
         in="blur"
         values="1 0 0 0 0 0 1 0 0 0 0 0 1 0 0 0 0 0 6 -2 "
         result="colormatrix2"
         id="feColorMatrix39" />
      <feBlend
         in="colormatrix2"
         in2="flood"
         mode="normal"
         result="blend"
         id="feBlend39" />
      <feComposite
         in="blend"
         in2="blend"
         operator="arithmetic"
         k2="0.2"
         result="composite1"
         id="feComposite39" />
      <feComposite
         in2="SourceGraphic"
         operator="in"
         id="feComposite40" />
    </filter>
  </defs>
  <g
     id="g877"
     transform="matrix(1.1,0,0,1.1,-3.1845928,-3.2065454)">
    <ellipse
       style="opacity:0.5;fill:#000000;stroke:none;stroke-width:3.89319;stroke-dasharray:none;stroke-opacity:1;filter:url(#filter9)"
       id="path2-5"
       cx="31.949858"
       cy="31.969812"
       rx="25.124426"
       ry="25.268976"
       transform="matrix(1.05,0,0,1.05,-1.5974929,-1.5984906)" />
    <path
       style="fill:#f5f7fa;stroke-width:0.204426;fill-opacity:1"
       d=""
       id="path3" />
    <circle
       style="opacity:1;fill:url(#linearGradient8);stroke:url(#linearGradient7);stroke-width:3.81818;stroke-dasharray:none;stroke-opacity:1"
       id="path2"
       cx="31.949856"
       cy="31.969812"
       r="24.711082" />
    <ellipse
       style="opacity:0.3;fill:none;stroke:#000000;stroke-width:0.974376;stroke-dasharray:none;stroke-opacity:1"
       id="path2-9"
       cx="31.949856"
       cy="31.969812"
       rx="23.129124"
       ry="23.129126" />
  </g>
  <path
     style="fill:#000000;stroke-width:0.26352;opacity:0.2"
     d="m 32.392286,51.542844 c -1.864254,-0.947768 -2.18297,-2.745381 -0.997454,-5.625786 1.123782,-2.730411 0.724431,-3.640609 -2.196451,-5.006133 -0.750542,-0.350881 -1.364683,-0.706632 -1.364752,-0.790559 -7.6e-5,-0.08393 1.037536,-0.116953 2.305801,-0.07339 2.106971,0.07236 2.996141,-0.06756 5.482264,-0.862813 0.454172,-0.145276 0.655323,0.0526 1.25172,1.231361 0.813842,1.608532 0.901239,2.981536 0.243567,3.826487 -0.250414,0.321726 -1.309907,0.999566 -2.35443,1.50631 -2.79478,1.355872 -3.501708,3.08924 -1.909327,4.681622 0.717306,0.717305 0.93012,0.788829 1.991202,0.669231 1.095305,-0.123455 1.145521,-0.104115 0.643198,0.247725 -0.844929,0.591811 -2.153712,0.674664 -3.095338,0.195949 z M 26.994237,37.948718 c -1.033472,-0.2274 -1.280523,-0.402865 -1.515239,-1.076167 -0.318989,-0.915055 -0.369875,-3.352058 -0.07877,-3.772206 0.106483,-0.153681 1.023694,-0.405296 2.038245,-0.559143 1.014552,-0.153851 2.411329,-0.546755 3.103943,-0.873123 l 1.259302,-0.5934 1.52198,0.683023 c 0.837087,0.375661 2.190509,0.761594 3.007603,0.857627 l 1.485627,0.174608 -0.754887,0.953716 c -0.41519,0.524544 -0.887187,1.457608 -1.048887,2.073473 -0.441448,1.68134 -1.710779,2.258299 -5.14892,2.340383 -1.44936,0.0346 -3.190861,-0.05936 -3.870003,-0.208791 z m -3.723642,-6.650795 c -2.019666,-0.746063 -2.512988,-1.857812 -1.535578,-3.460581 0.655353,-1.074657 3.123193,-2.337645 5.653757,-2.89347 2.970872,-0.652537 8.303923,-0.450403 10.837523,0.410761 4.336781,1.474064 5.899954,4.266796 3.164397,5.653455 -1.415097,0.717313 -5.228009,0.741208 -7.034812,0.04407 -0.688448,-0.265625 -1.25172,-0.581151 -1.25172,-0.701172 0,-0.197296 1.129428,-0.785683 2.898723,-1.510121 0.635869,-0.260358 0.617526,-0.281315 -0.527042,-0.602153 -1.41564,-0.396825 -5.396484,-0.421342 -6.324482,-0.03895 -0.529667,0.218255 -0.219752,0.275528 1.58112,0.292205 1.231957,0.0114 2.389895,0.115934 2.573189,0.232286 0.220141,0.139739 -0.526332,0.652712 -2.199094,1.511204 -2.350633,1.206391 -2.686585,1.304475 -4.681351,1.366799 -1.357078,0.0424 -2.519569,-0.06975 -3.15463,-0.304347 z m 7.160434,-7.921357 c -0.808949,-0.456747 -1.295667,-1.618981 -1.005959,-2.402141 0.550948,-1.48935 3.065596,-1.911659 4.449433,-0.747236 0.973819,0.819414 1.040564,1.656445 0.209162,2.623005 -0.74395,0.864896 -2.583549,1.129998 -3.652636,0.526372 z m 4.133401,-3.819549 c -1.083669,-1.197442 -3.396544,-1.336183 -4.863334,-0.291735 -0.990923,0.7056 -1.287044,0.684875 -1.651763,-0.115599 -0.438056,-0.961427 0.04771,-1.801696 1.427757,-2.469771 1.903659,-0.921547 4.625484,-0.617663 6.054989,0.676023 0.609956,0.552002 0.603041,1.724152 -0.01346,2.282079 -0.453148,0.410092 -0.514464,0.404887 -0.954186,-0.081 z"
     id="path1-6" />
  <path
     style="fill:#4d4d4d;stroke-width:0.26352"
     d="m 32.392286,49.542844 c -1.864254,-0.947768 -2.18297,-2.745381 -0.997454,-5.625786 1.123782,-2.730411 0.724431,-3.640609 -2.196451,-5.006133 -0.750542,-0.350881 -1.364683,-0.706632 -1.364752,-0.790559 -7.6e-5,-0.08393 1.037536,-0.116953 2.305801,-0.07339 2.106971,0.07236 2.996141,-0.06756 5.482264,-0.862813 0.454172,-0.145276 0.655323,0.0526 1.25172,1.231361 0.813842,1.608532 0.901239,2.981536 0.243567,3.826487 -0.250414,0.321726 -1.309907,0.999566 -2.35443,1.50631 -2.79478,1.355872 -3.501708,3.08924 -1.909327,4.681622 0.717306,0.717305 0.93012,0.788829 1.991202,0.669231 1.095305,-0.123455 1.145521,-0.104115 0.643198,0.247725 -0.844929,0.591811 -2.153712,0.674664 -3.095338,0.195949 z M 26.994237,35.948718 c -1.033472,-0.2274 -1.280523,-0.402865 -1.515239,-1.076167 -0.318989,-0.915055 -0.369875,-3.352058 -0.07877,-3.772206 0.106483,-0.153681 1.023694,-0.405296 2.038245,-0.559143 1.014552,-0.153851 2.411329,-0.546755 3.103943,-0.873123 l 1.259302,-0.5934 1.52198,0.683023 c 0.837087,0.375661 2.190509,0.761594 3.007603,0.857627 l 1.485627,0.174608 -0.754887,0.953716 c -0.41519,0.524544 -0.887187,1.457608 -1.048887,2.073473 -0.441448,1.68134 -1.710779,2.258299 -5.14892,2.340383 -1.44936,0.0346 -3.190861,-0.05936 -3.870003,-0.208791 z m -3.723642,-6.650795 c -2.019666,-0.746063 -2.512988,-1.857812 -1.535578,-3.460581 0.655353,-1.074657 3.123193,-2.337645 5.653757,-2.89347 2.970872,-0.652537 8.303923,-0.450403 10.837523,0.410761 4.336781,1.474064 5.899954,4.266796 3.164397,5.653455 -1.415097,0.717313 -5.228009,0.741208 -7.034812,0.04407 -0.688448,-0.265625 -1.25172,-0.581151 -1.25172,-0.701172 0,-0.197296 1.129428,-0.785683 2.898723,-1.510121 0.635869,-0.260358 0.617526,-0.281315 -0.527042,-0.602153 -1.41564,-0.396825 -5.396484,-0.421342 -6.324482,-0.03895 -0.529667,0.218255 -0.219752,0.275528 1.58112,0.292205 1.231957,0.0114 2.389895,0.115934 2.573189,0.232286 0.220141,0.139739 -0.526332,0.652712 -2.199094,1.511204 -2.350633,1.206391 -2.686585,1.304475 -4.681351,1.366799 -1.357078,0.0424 -2.519569,-0.06975 -3.15463,-0.304347 z m 7.160434,-7.921357 c -0.808949,-0.456747 -1.295667,-1.618981 -1.005959,-2.402141 0.550948,-1.48935 3.065596,-1.911659 4.449433,-0.747236 0.973819,0.819414 1.040564,1.656445 0.209162,2.623005 -0.74395,0.864896 -2.583549,1.129998 -3.652636,0.526372 z m 4.133401,-3.819549 c -1.083669,-1.197442 -3.396544,-1.336183 -4.863334,-0.291735 -0.990923,0.7056 -1.287044,0.684875 -1.651763,-0.115599 -0.438056,-0.961427 0.04771,-1.801696 1.427757,-2.469771 1.903659,-0.921547 4.625484,-0.617663 6.054989,0.676023 0.609956,0.552002 0.603041,1.724152 -0.01346,2.282079 -0.453148,0.410092 -0.514464,0.404887 -0.954186,-0.081 z"
     id="path1" />
</svg>
