<?xml version="1.0" encoding="UTF-8" standalone="no"?>
<svg
   width="64"
   height="64"
   version="1.1"
   id="svg73"
   sodipodi:docname="1password.svg"
   inkscape:version="1.4.2 (ebf0e940d0, 2025-05-08)"
   xmlns:inkscape="http://www.inkscape.org/namespaces/inkscape"
   xmlns:sodipodi="http://sodipodi.sourceforge.net/DTD/sodipodi-0.dtd"
   xmlns:xlink="http://www.w3.org/1999/xlink"
   xmlns="http://www.w3.org/2000/svg"
   xmlns:svg="http://www.w3.org/2000/svg"
   xmlns:rdf="http://www.w3.org/1999/02/22-rdf-syntax-ns#"
   xmlns:cc="http://creativecommons.org/ns#"
   xmlns:dc="http://purl.org/dc/elements/1.1/">
  <metadata
     id="metadata77">
    <rdf:RDF>
      <cc:Work
         rdf:about="">
        <dc:format>image/svg+xml</dc:format>
        <dc:type
           rdf:resource="http://purl.org/dc/dcmitype/StillImage" />
      </cc:Work>
    </rdf:RDF>
  </metadata>
  <sodipodi:namedview
     pagecolor="#f5f7fa"
     bordercolor="#666666"
     borderopacity="1"
     objecttolerance="10"
     gridtolerance="10"
     guidetolerance="10"
     inkscape:pageopacity="0"
     inkscape:pageshadow="2"
     inkscape:window-width="1289"
     inkscape:window-height="707"
     id="namedview75"
     showgrid="false"
     inkscape:zoom="6.2890624"
     inkscape:cx="53.505591"
     inkscape:cy="29.734162"
     inkscape:window-x="24"
     inkscape:window-y="21"
     inkscape:window-maximized="0"
     inkscape:current-layer="svg73"
     inkscape:document-rotation="0"
     inkscape:pagecheckerboard="0"
     inkscape:showpageshadow="2"
     inkscape:deskcolor="#d1d1d1" />
  <defs
     id="defs29">
    <linearGradient
       id="linearGradient4"
       inkscape:collect="always">
      <stop
         style="stop-color:#5e81ac;stop-opacity:1;"
         offset="0"
         id="stop4" />
      <stop
         style="stop-color:#81a1c1;stop-opacity:1;"
         offset="0.5"
         id="stop1" />
    </linearGradient>
    <linearGradient
       id="linearGradient2"
       inkscape:collect="always">
      <stop
         style="stop-color:#eceff4;stop-opacity:1;"
         offset="0"
         id="stop2" />
      <stop
         style="stop-color:#d8dee9;stop-opacity:1;"
         offset="1"
         id="stop3" />
    </linearGradient>
    <linearGradient
       inkscape:collect="always"
       xlink:href="#linearGradient2"
       id="linearGradient8"
       x1="31.721739"
       y1="5.2278585"
       x2="31.88887"
       y2="59.145416"
       gradientUnits="userSpaceOnUse"
       gradientTransform="matrix(0.8505,0,0,0.8505,4.7765033,4.7794869)" />
    <filter
       style="color-interpolation-filters:sRGB;"
       inkscape:label="Blur"
       id="filter9"
       x="-0.047762285"
       y="-0.047489063"
       width="1.0955246"
       height="1.0949781">
      <feGaussianBlur
         stdDeviation="1 1"
         result="blur"
         id="feGaussianBlur9" />
    </filter>
    <linearGradient
       inkscape:collect="always"
       xlink:href="#linearGradient4"
       id="linearGradient7"
       x1="26.723248"
       y1="58.711765"
       x2="25.756926"
       y2="5.950614"
       gradientUnits="userSpaceOnUse" />
    <filter
       style="color-interpolation-filters:sRGB;"
       inkscape:label="Out of Focus"
       id="filter40"
       x="-0.24226652"
       y="-0.2858297"
       width="1.484533"
       height="1.5716594">
      <feFlood
         flood-opacity="1"
         flood-color="rgb(255,255,255)"
         result="flood"
         id="feFlood38" />
      <feColorMatrix
         in="SourceGraphic"
         values="1 0 0 0 0 0 1 0 0 0 0 0 1 0 0 -0.2125 -0.7154 -0.0721 1 0 "
         result="colormatrix1"
         id="feColorMatrix38" />
      <feGaussianBlur
         in="colormatrix1"
         stdDeviation="3 3"
         result="blur"
         id="feGaussianBlur38" />
      <feColorMatrix
         in="blur"
         values="1 0 0 0 0 0 1 0 0 0 0 0 1 0 0 0 0 0 6 -2 "
         result="colormatrix2"
         id="feColorMatrix39" />
      <feBlend
         in="colormatrix2"
         in2="flood"
         mode="normal"
         result="blend"
         id="feBlend39" />
      <feComposite
         in="blend"
         in2="blend"
         operator="arithmetic"
         k2="0.2"
         result="composite1"
         id="feComposite39" />
      <feComposite
         in2="SourceGraphic"
         operator="in"
         id="feComposite40" />
    </filter>
  </defs>
  <g
     id="g877"
     transform="matrix(1.1,0,0,1.1,-3.1845928,-3.2065454)">
    <ellipse
       style="opacity:0.5;fill:#000000;stroke:none;stroke-width:3.89319;stroke-dasharray:none;stroke-opacity:1;filter:url(#filter9)"
       id="path2-5"
       cx="31.949858"
       cy="31.969812"
       rx="25.124426"
       ry="25.268976"
       transform="matrix(1.05,0,0,1.05,-1.5974929,-1.5984906)" />
    <path
       style="fill:#f5f7fa;stroke-width:0.204426;fill-opacity:1"
       d=""
       id="path3" />
    <circle
       style="opacity:1;fill:url(#linearGradient8);stroke:url(#linearGradient7);stroke-width:3.81818;stroke-dasharray:none;stroke-opacity:1"
       id="path2"
       cx="31.949856"
       cy="31.969812"
       r="24.711082" />
    <ellipse
       style="opacity:0.3;fill:none;stroke:#000000;stroke-width:0.974376;stroke-dasharray:none;stroke-opacity:1"
       id="path2-9"
       cx="31.949856"
       cy="31.969812"
       rx="23.129124"
       ry="23.129126" />
  </g>
  <path
     d="M 32.000001,18.7639 C 23.585336,18.7639 16.7639,25.585335 16.7639,34 c 0,8.414665 6.821436,15.2361 15.236101,15.2361 8.414665,0 15.2361,-6.821435 15.2361,-15.2361 0,-8.414665 -6.821435,-15.2361 -15.2361,-15.2361 z m 0,2.077649 c 7.362831,0 13.158451,5.795619 13.158451,13.158451 -0.0056,6.120901 -4.005851,11.105417 -9.946446,12.580136 -0.08446,-0.21327 0.01896,-0.44087 0.0415,-0.515188 0.114192,-0.376539 0.195432,-0.538473 0.223186,-1.060064 0.04397,-0.82635 0.237421,-2.13721 0.761427,-2.734017 0.460911,-0.524954 0.548892,-0.943569 0.557962,-2.648462 0.0075,-1.411352 0.0232,-1.576713 0.204586,-2.209534 0.308769,-1.077237 0.819146,-1.837173 1.192717,-2.3825 0.189851,-0.277141 0.492482,-0.771852 0.673275,-1.099186 0.180787,-0.327342 0.444025,-0.768685 0.584001,-0.980154 0.365666,-0.552437 1.527408,-1.31577 1.913374,-1.4972 0.431342,-0.202752 0.768037,-0.748483 0.925295,-1.221937 0.161648,-0.48668 0.112634,-1.254453 -0.09857,-1.536259 -0.124463,-0.166064 -0.06518,-0.195287 -0.384072,-0.195287 -0.292066,0 -0.418322,-0.03864 -0.563543,-0.174827 -0.199749,-0.187336 -0.345936,-0.162253 -0.345936,0.05953 0,0.17393 -0.645595,0.50496 -0.723053,0.42777 -0.03225,-0.03214 4.47e-4,-0.216279 0.07439,-0.409172 0.270934,-0.706944 0.359442,-1.157597 0.316179,-1.614371 -0.07133,-0.75314 -0.540369,-1.767102 -0.796027,-1.816362 -0.06148,-0.01184 -0.395499,0.216108 -0.742092,0.507746 -1.807408,1.520857 -3.181838,2.184314 -4.138221,2.762427 -0.456381,0.275853 -0.457829,0.275224 -1.227519,0.258524 -0.911295,-0.01977 -0.753073,-0.01392 -2.273091,0.907576 -0.526464,0.319164 -1.120128,0.997237 -1.318653,1.072669 -0.199529,0.07581 -0.831847,-0.0228 -1.415364,0.03719 -1.198421,0.123171 -1.24228,0.196666 -1.690677,0.45567 -0.443438,0.256135 -0.555589,0.446911 -0.46125,0.788587 0.09238,0.33455 0.306234,0.993283 0.896511,1.573456 l 0.444509,0.57584 -0.342217,0.530066 c -0.188929,0.291688 -0.473967,0.830828 -0.632357,1.197759 -0.314785,0.729246 -0.401022,0.86617 -1.028511,1.63855 -0.543592,0.6691 -1.430756,1.631595 -1.993463,2.734018 -0.481201,0.942744 -0.712437,1.187097 -1.595772,1.692486 -0.220958,0.12642 -0.493325,0.338861 -0.773708,0.47055 -1.818313,-2.337741 -2.633288,-5.21439 -2.635282,-8.176019 0,-7.362831 5.795618,-13.158449 13.158451,-13.158449 z m 2.101197,8.497186 -0.616739,0.879721 -1.106627,0.154369 0.688156,-0.87972 z"
     style="fill:#000000;fill-opacity:1;stroke-width:0.69255;opacity:0.2"
     id="path4-6" />
  <path
     d="M 32.000001,16.7639 C 23.585336,16.7639 16.7639,23.585335 16.7639,32 c 0,8.414665 6.821436,15.2361 15.236101,15.2361 8.414665,0 15.2361,-6.821435 15.2361,-15.2361 0,-8.414665 -6.821435,-15.2361 -15.2361,-15.2361 z m 0,2.077649 c 7.362831,0 13.158451,5.795619 13.158451,13.158451 -0.0056,6.120901 -4.005851,11.105417 -9.946446,12.580136 -0.08446,-0.21327 0.01896,-0.44087 0.0415,-0.515188 0.114192,-0.376539 0.195432,-0.538473 0.223186,-1.060064 0.04397,-0.82635 0.237421,-2.13721 0.761427,-2.734017 0.460911,-0.524954 0.548892,-0.943569 0.557962,-2.648462 0.0075,-1.411352 0.0232,-1.576713 0.204586,-2.209534 0.308769,-1.077237 0.819146,-1.837173 1.192717,-2.3825 0.189851,-0.277141 0.492482,-0.771852 0.673275,-1.099186 0.180787,-0.327342 0.444025,-0.768685 0.584001,-0.980154 0.365666,-0.552437 1.527408,-1.31577 1.913374,-1.4972 0.431342,-0.202752 0.768037,-0.748483 0.925295,-1.221937 0.161648,-0.48668 0.112634,-1.254453 -0.09857,-1.536259 -0.124463,-0.166064 -0.06518,-0.195287 -0.384072,-0.195287 -0.292066,0 -0.418322,-0.03864 -0.563543,-0.174827 -0.199749,-0.187336 -0.345936,-0.162253 -0.345936,0.05953 0,0.17393 -0.645595,0.50496 -0.723053,0.42777 -0.03225,-0.03214 4.47e-4,-0.216279 0.07439,-0.409172 0.270934,-0.706944 0.359442,-1.157597 0.316179,-1.614371 -0.07133,-0.75314 -0.540369,-1.767102 -0.796027,-1.816362 -0.06148,-0.01184 -0.395499,0.216108 -0.742092,0.507746 -1.807408,1.520857 -3.181838,2.184314 -4.138221,2.762427 -0.456381,0.275853 -0.457829,0.275224 -1.227519,0.258524 -0.911295,-0.01977 -0.753073,-0.01392 -2.273091,0.907576 -0.526464,0.319164 -1.120128,0.997237 -1.318653,1.072669 -0.199529,0.07581 -0.831847,-0.0228 -1.415364,0.03719 -1.198421,0.123171 -1.24228,0.196666 -1.690677,0.45567 -0.443438,0.256135 -0.555589,0.446911 -0.46125,0.788587 0.09238,0.33455 0.306234,0.993283 0.896511,1.573456 l 0.444509,0.57584 -0.342217,0.530066 c -0.188929,0.291688 -0.473967,0.830828 -0.632357,1.197759 -0.314785,0.729246 -0.401022,0.86617 -1.028511,1.63855 -0.543592,0.6691 -1.430756,1.631595 -1.993463,2.734018 -0.481201,0.942744 -0.712437,1.187097 -1.595772,1.692486 -0.220958,0.12642 -0.493325,0.338861 -0.773708,0.47055 -1.818313,-2.337741 -2.633288,-5.21439 -2.635282,-8.176019 0,-7.362831 5.795618,-13.158449 13.158451,-13.158449 z m 2.101197,8.497186 -0.616739,0.879721 -1.106627,0.154369 0.688156,-0.87972 z"
     style="fill:#4d4d4d;fill-opacity:1;stroke-width:0.69255"
     id="path4" />
</svg>
