<?xml version="1.0" encoding="UTF-8" standalone="no"?>
<svg
   width="64"
   height="64"
   version="1.1"
   id="svg73"
   sodipodi:docname="abcd.svg"
   inkscape:version="1.4.2 (ebf0e940d0, 2025-05-08)"
   xmlns:inkscape="http://www.inkscape.org/namespaces/inkscape"
   xmlns:sodipodi="http://sodipodi.sourceforge.net/DTD/sodipodi-0.dtd"
   xmlns:xlink="http://www.w3.org/1999/xlink"
   xmlns="http://www.w3.org/2000/svg"
   xmlns:svg="http://www.w3.org/2000/svg"
   xmlns:rdf="http://www.w3.org/1999/02/22-rdf-syntax-ns#"
   xmlns:cc="http://creativecommons.org/ns#"
   xmlns:dc="http://purl.org/dc/elements/1.1/">
  <metadata
     id="metadata77">
    <rdf:RDF>
      <cc:Work
         rdf:about="">
        <dc:format>image/svg+xml</dc:format>
        <dc:type
           rdf:resource="http://purl.org/dc/dcmitype/StillImage" />
      </cc:Work>
    </rdf:RDF>
  </metadata>
  <sodipodi:namedview
     pagecolor="#f5f7fa"
     bordercolor="#666666"
     borderopacity="1"
     objecttolerance="10"
     gridtolerance="10"
     guidetolerance="10"
     inkscape:pageopacity="0"
     inkscape:pageshadow="2"
     inkscape:window-width="1263"
     inkscape:window-height="693"
     id="namedview75"
     showgrid="false"
     inkscape:zoom="4.4470387"
     inkscape:cx="36.091433"
     inkscape:cy="29.682674"
     inkscape:window-x="24"
     inkscape:window-y="21"
     inkscape:window-maximized="0"
     inkscape:current-layer="svg73"
     inkscape:document-rotation="0"
     inkscape:pagecheckerboard="0"
     inkscape:showpageshadow="2"
     inkscape:deskcolor="#d1d1d1" />
  <defs
     id="defs29">
    <linearGradient
       id="linearGradient4"
       inkscape:collect="always">
      <stop
         style="stop-color:#5e81ac;stop-opacity:1;"
         offset="0"
         id="stop4" />
      <stop
         style="stop-color:#81a1c1;stop-opacity:1;"
         offset="0.5"
         id="stop1" />
    </linearGradient>
    <linearGradient
       id="linearGradient2"
       inkscape:collect="always">
      <stop
         style="stop-color:#eceff4;stop-opacity:1;"
         offset="0"
         id="stop2" />
      <stop
         style="stop-color:#d8dee9;stop-opacity:1;"
         offset="1"
         id="stop3" />
    </linearGradient>
    <linearGradient
       inkscape:collect="always"
       xlink:href="#linearGradient2"
       id="linearGradient8"
       x1="31.721739"
       y1="5.2278585"
       x2="31.88887"
       y2="59.145416"
       gradientUnits="userSpaceOnUse"
       gradientTransform="matrix(0.8505,0,0,0.8505,4.7765033,4.7794869)" />
    <filter
       style="color-interpolation-filters:sRGB;"
       inkscape:label="Blur"
       id="filter9"
       x="-0.047762285"
       y="-0.047489063"
       width="1.0955246"
       height="1.0949781">
      <feGaussianBlur
         stdDeviation="1 1"
         result="blur"
         id="feGaussianBlur9" />
    </filter>
    <linearGradient
       inkscape:collect="always"
       xlink:href="#linearGradient4"
       id="linearGradient7"
       x1="26.723248"
       y1="58.711765"
       x2="25.756926"
       y2="5.950614"
       gradientUnits="userSpaceOnUse" />
    <filter
       style="color-interpolation-filters:sRGB;"
       inkscape:label="Out of Focus"
       id="filter40"
       x="-0.24226652"
       y="-0.2858297"
       width="1.484533"
       height="1.5716594">
      <feFlood
         flood-opacity="1"
         flood-color="rgb(255,255,255)"
         result="flood"
         id="feFlood38" />
      <feColorMatrix
         in="SourceGraphic"
         values="1 0 0 0 0 0 1 0 0 0 0 0 1 0 0 -0.2125 -0.7154 -0.0721 1 0 "
         result="colormatrix1"
         id="feColorMatrix38" />
      <feGaussianBlur
         in="colormatrix1"
         stdDeviation="3 3"
         result="blur"
         id="feGaussianBlur38" />
      <feColorMatrix
         in="blur"
         values="1 0 0 0 0 0 1 0 0 0 0 0 1 0 0 0 0 0 6 -2 "
         result="colormatrix2"
         id="feColorMatrix39" />
      <feBlend
         in="colormatrix2"
         in2="flood"
         mode="normal"
         result="blend"
         id="feBlend39" />
      <feComposite
         in="blend"
         in2="blend"
         operator="arithmetic"
         k2="0.2"
         result="composite1"
         id="feComposite39" />
      <feComposite
         in2="SourceGraphic"
         operator="in"
         id="feComposite40" />
    </filter>
  </defs>
  <g
     id="g877"
     transform="matrix(1.1,0,0,1.1,-3.1845928,-3.2065454)">
    <ellipse
       style="opacity:0.5;fill:#000000;stroke:none;stroke-width:3.89319;stroke-dasharray:none;stroke-opacity:1;filter:url(#filter9)"
       id="path2-5"
       cx="31.949858"
       cy="31.969812"
       rx="25.124426"
       ry="25.268976"
       transform="matrix(1.05,0,0,1.05,-1.5974929,-1.5984906)" />
    <path
       style="fill:#f5f7fa;stroke-width:0.204426;fill-opacity:1"
       d=""
       id="path3" />
    <circle
       style="opacity:1;fill:url(#linearGradient8);stroke:url(#linearGradient7);stroke-width:3.81818;stroke-dasharray:none;stroke-opacity:1"
       id="path2"
       cx="31.949856"
       cy="31.969812"
       r="24.711082" />
    <ellipse
       style="opacity:0.3;fill:none;stroke:#000000;stroke-width:0.974376;stroke-dasharray:none;stroke-opacity:1"
       id="path2-9"
       cx="31.949856"
       cy="31.969812"
       rx="23.129124"
       ry="23.129126" />
  </g>
  <path
     style="fill:#000000;fill-opacity:1;stroke:none;stroke-width:0.464149;stroke-dasharray:none;stroke-opacity:0.6;opacity:0.2"
     d="m 31.597174,49.132605 c -0.106194,-0.02042 -3.088741,-1.259323 -6.627892,-2.753373 -5.198205,-2.194425 -6.479157,-2.765822 -6.665537,-2.973285 -0.230699,-0.256799 -0.230719,-0.256895 -0.230719,-1.55591 0,-0.714495 0.01528,-1.299085 0.03391,-1.299085 0.04396,0 3.997787,1.639186 9.027009,3.742441 l 3.985124,1.666595 0.880923,-0.0024 0.880922,-0.0024 1.510151,-0.635216 c 3.153641,-1.326737 11.454277,-4.76857 11.499823,-4.76857 0.02647,0 0.03556,0.60113 0.02104,1.335842 -0.02552,1.27438 -0.03596,1.345644 -0.227007,1.548768 -0.118877,0.126374 -0.817983,0.474395 -1.719895,0.856156 -7.513271,3.180217 -11.283591,4.748938 -11.575949,4.816447 -0.36019,0.08318 -0.467332,0.08647 -0.791717,0.02391 z m -0.268365,-4.273487 c -0.171496,-0.06754 -7.425405,-3.075856 -10.529118,-4.366592 -1.384304,-0.575684 -2.564113,-1.085828 -2.621792,-1.13364 -0.136473,-0.113137 -0.134723,-0.440561 0.0029,-0.554836 0.09112,-0.07562 11.769132,-4.964885 11.858638,-4.964885 0.01696,0 0.03084,1.120692 0.03084,2.490432 0,2.35463 0.0095,2.510183 0.175325,2.85261 0.553886,1.144182 2.225127,1.404696 3.140308,0.489517 0.512887,-0.512886 0.54364,-0.707446 0.54364,-3.439221 0,-1.895311 0.02243,-2.402381 0.104885,-2.369653 1.313404,0.521487 11.713423,4.884382 11.787576,4.944989 0.05763,0.04715 0.104885,0.170868 0.104885,0.274915 0,0.104049 -0.04718,0.228219 -0.104885,0.275872 -0.05766,0.04765 -1.577269,0.697923 -3.376868,1.444997 -1.799594,0.747074 -4.725516,1.965442 -6.502045,2.707485 -3.080228,1.286599 -3.25923,1.350298 -3.859278,1.373386 -0.346074,0.01339 -0.68586,0.0017 -0.755075,-0.0252 z m -6.47988,-4.855397 c 0.610211,-0.181236 0.942653,-0.535598 0.942653,-1.004869 0,-0.294724 -0.04913,-0.413762 -0.256244,-0.620878 -0.688839,-0.688841 -2.388759,-0.667689 -3.007854,0.03741 -0.885967,1.009058 0.6752,2.077208 2.321445,1.588327 z m 6.618838,-0.974041 c -0.376404,-0.218799 -0.385761,-0.356105 -0.384578,-5.643328 l 0.0011,-5.000516 h 0.877327 0.877324 v 5.163501 5.163499 L 32.633,38.91876 c -0.162452,0.162415 -0.290877,0.205381 -0.608257,0.20337 -0.221277,-0.0015 -0.471934,-0.04302 -0.557007,-0.09247 z m -0.02257,-11.734448 c -1.409349,-0.206423 -2.655872,-1.090794 -3.251213,-2.30664 -0.131285,-0.268117 -0.299429,-0.781184 -0.373655,-1.140146 -0.11457,-0.55407 -0.119745,-0.758083 -0.03426,-1.350603 0.500017,-3.46586 4.704287,-4.897495 7.192151,-2.449065 1.618305,1.592653 1.704903,4.148225 0.198435,5.856048 -0.891867,1.011075 -2.423867,1.581926 -3.731454,1.390406 z"
     id="path1-2" />
  <path
     style="fill:#4d4d4d;fill-opacity:1;stroke:none;stroke-width:0.464149;stroke-dasharray:none;stroke-opacity:0.6"
     d="m 31.597174,47.132605 c -0.106194,-0.02042 -3.088741,-1.259323 -6.627892,-2.753373 -5.198205,-2.194425 -6.479157,-2.765822 -6.665537,-2.973285 -0.230699,-0.256799 -0.230719,-0.256895 -0.230719,-1.55591 0,-0.714495 0.01528,-1.299085 0.03391,-1.299085 0.04396,0 3.997787,1.639186 9.027009,3.742441 l 3.985124,1.666595 0.880923,-0.0024 0.880922,-0.0024 1.510151,-0.635216 c 3.153641,-1.326737 11.454277,-4.76857 11.499823,-4.76857 0.02647,0 0.03556,0.60113 0.02104,1.335842 -0.02552,1.27438 -0.03596,1.345644 -0.227007,1.548768 -0.118877,0.126374 -0.817983,0.474395 -1.719895,0.856156 -7.513271,3.180217 -11.283591,4.748938 -11.575949,4.816447 -0.36019,0.08318 -0.467332,0.08647 -0.791717,0.02391 z m -0.268365,-4.273487 c -0.171496,-0.06754 -7.425405,-3.075856 -10.529118,-4.366592 -1.384304,-0.575684 -2.564113,-1.085828 -2.621792,-1.13364 -0.136473,-0.113137 -0.134723,-0.440561 0.0029,-0.554836 0.09112,-0.07562 11.769132,-4.964885 11.858638,-4.964885 0.01696,0 0.03084,1.120692 0.03084,2.490432 0,2.35463 0.0095,2.510183 0.175325,2.85261 0.553886,1.144182 2.225127,1.404696 3.140308,0.489517 0.512887,-0.512886 0.54364,-0.707446 0.54364,-3.439221 0,-1.895311 0.02243,-2.402381 0.104885,-2.369653 1.313404,0.521487 11.713423,4.884382 11.787576,4.944989 0.05763,0.04715 0.104885,0.170868 0.104885,0.274915 0,0.104049 -0.04718,0.228219 -0.104885,0.275872 -0.05766,0.04765 -1.577269,0.697923 -3.376868,1.444997 -1.799594,0.747074 -4.725516,1.965442 -6.502045,2.707485 -3.080228,1.286599 -3.25923,1.350298 -3.859278,1.373386 -0.346074,0.01339 -0.68586,0.0017 -0.755075,-0.0252 z m -6.47988,-4.855397 c 0.610211,-0.181236 0.942653,-0.535598 0.942653,-1.004869 0,-0.294724 -0.04913,-0.413762 -0.256244,-0.620878 -0.688839,-0.688841 -2.388759,-0.667689 -3.007854,0.03741 -0.885967,1.009058 0.6752,2.077208 2.321445,1.588327 z m 6.618838,-0.974041 c -0.376404,-0.218799 -0.385761,-0.356105 -0.384578,-5.643328 l 0.0011,-5.000516 h 0.877327 0.877324 v 5.163501 5.163499 L 32.633,36.91876 c -0.162452,0.162415 -0.290877,0.205381 -0.608257,0.20337 -0.221277,-0.0015 -0.471934,-0.04302 -0.557007,-0.09247 z m -0.02257,-11.734448 c -1.409349,-0.206423 -2.655872,-1.090794 -3.251213,-2.30664 -0.131285,-0.268117 -0.299429,-0.781184 -0.373655,-1.140146 -0.11457,-0.55407 -0.119745,-0.758083 -0.03426,-1.350603 0.500017,-3.46586 4.704287,-4.897495 7.192151,-2.449065 1.618305,1.592653 1.704903,4.148225 0.198435,5.856048 -0.891867,1.011075 -2.423867,1.581926 -3.731454,1.390406 z"
     id="path1" />
</svg>
