<?xml version="1.0" encoding="UTF-8" standalone="no"?>
<svg
   width="64"
   height="64"
   version="1.1"
   id="svg73"
   sodipodi:docname="1password.svg"
   inkscape:version="1.4.2 (ebf0e940d0, 2025-05-08)"
   xmlns:inkscape="http://www.inkscape.org/namespaces/inkscape"
   xmlns:sodipodi="http://sodipodi.sourceforge.net/DTD/sodipodi-0.dtd"
   xmlns:xlink="http://www.w3.org/1999/xlink"
   xmlns="http://www.w3.org/2000/svg"
   xmlns:svg="http://www.w3.org/2000/svg"
   xmlns:rdf="http://www.w3.org/1999/02/22-rdf-syntax-ns#"
   xmlns:cc="http://creativecommons.org/ns#"
   xmlns:dc="http://purl.org/dc/elements/1.1/">
  <metadata
     id="metadata77">
    <rdf:RDF>
      <cc:Work
         rdf:about="">
        <dc:format>image/svg+xml</dc:format>
        <dc:type
           rdf:resource="http://purl.org/dc/dcmitype/StillImage" />
      </cc:Work>
    </rdf:RDF>
  </metadata>
  <sodipodi:namedview
     pagecolor="#f5f7fa"
     bordercolor="#666666"
     borderopacity="1"
     objecttolerance="10"
     gridtolerance="10"
     guidetolerance="10"
     inkscape:pageopacity="0"
     inkscape:pageshadow="2"
     inkscape:window-width="1438"
     inkscape:window-height="703"
     id="namedview75"
     showgrid="false"
     inkscape:zoom="6.2890624"
     inkscape:cx="53.585094"
     inkscape:cy="29.734162"
     inkscape:window-x="24"
     inkscape:window-y="21"
     inkscape:window-maximized="0"
     inkscape:current-layer="svg73"
     inkscape:document-rotation="0"
     inkscape:pagecheckerboard="0"
     inkscape:showpageshadow="2"
     inkscape:deskcolor="#d1d1d1" />
  <defs
     id="defs29">
    <linearGradient
       id="linearGradient4"
       inkscape:collect="always">
      <stop
         style="stop-color:#5e81ac;stop-opacity:1;"
         offset="0"
         id="stop4" />
      <stop
         style="stop-color:#81a1c1;stop-opacity:1;"
         offset="0.5"
         id="stop1" />
    </linearGradient>
    <linearGradient
       id="linearGradient2"
       inkscape:collect="always">
      <stop
         style="stop-color:#eceff4;stop-opacity:1;"
         offset="0"
         id="stop2" />
      <stop
         style="stop-color:#d8dee9;stop-opacity:1;"
         offset="1"
         id="stop3" />
    </linearGradient>
    <linearGradient
       inkscape:collect="always"
       xlink:href="#linearGradient2"
       id="linearGradient8"
       x1="31.721739"
       y1="5.2278585"
       x2="31.88887"
       y2="59.145416"
       gradientUnits="userSpaceOnUse"
       gradientTransform="matrix(0.8505,0,0,0.8505,4.7765033,4.7794869)" />
    <filter
       style="color-interpolation-filters:sRGB;"
       inkscape:label="Blur"
       id="filter9"
       x="-0.047762285"
       y="-0.047489063"
       width="1.0955246"
       height="1.0949781">
      <feGaussianBlur
         stdDeviation="1 1"
         result="blur"
         id="feGaussianBlur9" />
    </filter>
    <linearGradient
       inkscape:collect="always"
       xlink:href="#linearGradient4"
       id="linearGradient7"
       x1="26.723248"
       y1="58.711765"
       x2="25.756926"
       y2="5.950614"
       gradientUnits="userSpaceOnUse" />
    <filter
       style="color-interpolation-filters:sRGB;"
       inkscape:label="Out of Focus"
       id="filter40"
       x="-0.24226652"
       y="-0.2858297"
       width="1.484533"
       height="1.5716594">
      <feFlood
         flood-opacity="1"
         flood-color="rgb(255,255,255)"
         result="flood"
         id="feFlood38" />
      <feColorMatrix
         in="SourceGraphic"
         values="1 0 0 0 0 0 1 0 0 0 0 0 1 0 0 -0.2125 -0.7154 -0.0721 1 0 "
         result="colormatrix1"
         id="feColorMatrix38" />
      <feGaussianBlur
         in="colormatrix1"
         stdDeviation="3 3"
         result="blur"
         id="feGaussianBlur38" />
      <feColorMatrix
         in="blur"
         values="1 0 0 0 0 0 1 0 0 0 0 0 1 0 0 0 0 0 6 -2 "
         result="colormatrix2"
         id="feColorMatrix39" />
      <feBlend
         in="colormatrix2"
         in2="flood"
         mode="normal"
         result="blend"
         id="feBlend39" />
      <feComposite
         in="blend"
         in2="blend"
         operator="arithmetic"
         k2="0.2"
         result="composite1"
         id="feComposite39" />
      <feComposite
         in2="SourceGraphic"
         operator="in"
         id="feComposite40" />
    </filter>
  </defs>
  <g
     id="g877"
     transform="matrix(1.1,0,0,1.1,-3.1845928,-3.2065454)">
    <ellipse
       style="opacity:0.5;fill:#000000;stroke:none;stroke-width:3.89319;stroke-dasharray:none;stroke-opacity:1;filter:url(#filter9)"
       id="path2-5"
       cx="31.949858"
       cy="31.969812"
       rx="25.124426"
       ry="25.268976"
       transform="matrix(1.05,0,0,1.05,-1.5974929,-1.5984906)" />
    <path
       style="fill:#f5f7fa;stroke-width:0.204426;fill-opacity:1"
       d=""
       id="path3" />
    <circle
       style="opacity:1;fill:url(#linearGradient8);stroke:url(#linearGradient7);stroke-width:3.81818;stroke-dasharray:none;stroke-opacity:1"
       id="path2"
       cx="31.949856"
       cy="31.969812"
       r="24.711082" />
    <ellipse
       style="opacity:0.3;fill:none;stroke:#000000;stroke-width:0.974376;stroke-dasharray:none;stroke-opacity:1"
       id="path2-9"
       cx="31.949856"
       cy="31.969812"
       rx="23.129124"
       ry="23.129126" />
  </g>
  <path
     style="fill:#000000;stroke:none;stroke-width:0.0827343;opacity:0.2"
     d="m 31.228023,50.428774 c -4.0072,-0.217207 -7.696942,-2.272607 -9.832141,-5.477071 -0.738828,-1.108821 -1.386844,-2.650808 -1.640663,-3.904037 -0.33064,-1.632551 -0.287589,-3.527444 0.11633,-5.120298 0.3182,-1.25481 0.958067,-2.756451 1.630334,-3.826067 0.621868,-0.989427 9.548447,-13.802501 9.824958,-14.10259 0.32334,-0.350912 0.493628,-0.452831 0.756602,-0.452831 0.162594,0 0.23186,0.04417 0.50673,0.323182 0.216555,0.219809 1.767793,2.415441 4.849763,6.864383 2.492253,3.59766 4.699013,6.797161 4.903914,7.110002 0.478433,0.730466 1.17825,2.153432 1.449001,2.94632 0.484511,1.418874 0.672102,2.515842 0.672463,3.932345 3.59e-4,1.402864 -0.1387,2.300946 -0.548244,3.540716 -1.244199,3.76644 -4.433277,6.670751 -8.51512,7.754766 -0.731939,0.194382 -1.721296,0.356254 -2.389963,0.391031 -0.2844,0.01479 -0.645072,0.03389 -0.801492,0.04244 -0.156421,0.0085 -0.598532,-0.0015 -0.982472,-0.02229 z m 1.809819,-4.622436 c 0.555633,-0.123348 1.380565,-0.405777 1.79539,-0.614679 0.640873,-0.322738 1.793559,-1.166936 1.708922,-1.251572 -0.01502,-0.01502 -0.291884,0.04297 -0.615274,0.12887 -0.735275,0.195278 -1.713346,0.355594 -2.422561,0.39708 -0.79751,0.04665 -2.094582,-0.0532 -2.70517,-0.208269 -1.916973,-0.486814 -3.464862,-1.889715 -4.086956,-3.704142 -0.817024,-2.382976 0.117829,-5.026668 2.279335,-6.44577 0.734446,-0.482188 1.417862,-0.740155 2.514861,-0.949271 0.553453,-0.105505 0.604804,-0.124403 0.51709,-0.1903 -0.190758,-0.143318 -0.672823,-0.36511 -1.105711,-0.50872 -0.411165,-0.136405 -0.496251,-0.145973 -1.318582,-0.148276 -0.766828,-0.0022 -0.931866,0.01268 -1.292728,0.116236 -1.837886,0.527354 -3.28944,2.080232 -3.9492,4.224867 -0.419371,1.363218 -0.431262,2.873691 -0.03297,4.188438 0.437223,1.443255 1.525521,2.857192 2.939795,3.819435 0.930338,0.632983 1.839346,0.98133 3.240013,1.241631 0.311288,0.05785 2.156124,-0.01173 2.533746,-0.09556 z m 0.467639,-3.411281 c 1.153719,-0.153611 2.695659,-0.584137 3.762682,-1.050581 1.478416,-0.646283 2.787585,-1.806639 3.396445,-3.010375 0.48522,-0.959296 0.54885,-1.937915 0.20414,-3.139597 -0.159173,-0.554882 -0.663062,-1.610149 -1.118655,-2.34273 -0.583752,-0.938654 -7.698781,-11.814994 -7.736432,-11.82624 -0.03623,-0.01082 -7.249276,11.004963 -7.249276,11.071095 0,0.01962 0.157066,-0.09057 0.349037,-0.24488 1.073481,-0.862867 2.343563,-1.432785 3.64708,-1.636535 0.534307,-0.08351 1.64972,-0.07179 2.196483,0.02308 1.188965,0.20631 2.513669,0.837857 3.060489,1.459076 0.766812,0.871144 0.712009,2.166691 -0.125144,2.958436 -0.431953,0.408523 -0.817512,0.565959 -1.5978,0.652429 -0.356288,0.03948 -0.762026,0.10571 -0.901636,0.147172 -2.104099,0.624849 -3.145065,2.995449 -2.183172,4.971756 0.410601,0.843621 1.192131,1.529799 2.061121,1.80965 0.689871,0.222167 1.384902,0.271388 2.234638,0.158251 z"
     id="path10-7" />
  <path
     style="opacity:1;fill:#4d4d4d;stroke:none;stroke-width:0.0827343"
     d="m 31.228023,48.428774 c -4.0072,-0.217207 -7.696942,-2.272607 -9.832141,-5.477071 -0.738828,-1.108821 -1.386844,-2.650808 -1.640663,-3.904037 -0.33064,-1.632551 -0.287589,-3.527444 0.11633,-5.120298 0.3182,-1.25481 0.958067,-2.756451 1.630334,-3.826067 0.621868,-0.989427 9.548447,-13.802501 9.824958,-14.10259 0.32334,-0.350912 0.493628,-0.452831 0.756602,-0.452831 0.162594,0 0.23186,0.04417 0.50673,0.323182 0.216555,0.219809 1.767793,2.415441 4.849763,6.864383 2.492253,3.59766 4.699013,6.797161 4.903914,7.110002 0.478433,0.730466 1.17825,2.153432 1.449001,2.94632 0.484511,1.418874 0.672102,2.515842 0.672463,3.932345 3.59e-4,1.402864 -0.1387,2.300946 -0.548244,3.540716 -1.244199,3.76644 -4.433277,6.670751 -8.51512,7.754766 -0.731939,0.194382 -1.721296,0.356254 -2.389963,0.391031 -0.2844,0.01479 -0.645072,0.03389 -0.801492,0.04244 -0.156421,0.0085 -0.598532,-0.0015 -0.982472,-0.02229 z m 1.809819,-4.622436 c 0.555633,-0.123348 1.380565,-0.405777 1.79539,-0.614679 0.640873,-0.322738 1.793559,-1.166936 1.708922,-1.251572 -0.01502,-0.01502 -0.291884,0.04297 -0.615274,0.12887 -0.735275,0.195278 -1.713346,0.355594 -2.422561,0.39708 -0.79751,0.04665 -2.094582,-0.0532 -2.70517,-0.208269 -1.916973,-0.486814 -3.464862,-1.889715 -4.086956,-3.704142 -0.817024,-2.382976 0.117829,-5.026668 2.279335,-6.44577 0.734446,-0.482188 1.417862,-0.740155 2.514861,-0.949271 0.553453,-0.105505 0.604804,-0.124403 0.51709,-0.1903 -0.190758,-0.143318 -0.672823,-0.36511 -1.105711,-0.50872 -0.411165,-0.136405 -0.496251,-0.145973 -1.318582,-0.148276 -0.766828,-0.0022 -0.931866,0.01268 -1.292728,0.116236 -1.837886,0.527354 -3.28944,2.080232 -3.9492,4.224867 -0.419371,1.363218 -0.431262,2.873691 -0.03297,4.188438 0.437223,1.443255 1.525521,2.857192 2.939795,3.819435 0.930338,0.632983 1.839346,0.98133 3.240013,1.241631 0.311288,0.05785 2.156124,-0.01173 2.533746,-0.09556 z m 0.467639,-3.411281 c 1.153719,-0.153611 2.695659,-0.584137 3.762682,-1.050581 1.478416,-0.646283 2.787585,-1.806639 3.396445,-3.010375 0.48522,-0.959296 0.54885,-1.937915 0.20414,-3.139597 -0.159173,-0.554882 -0.663062,-1.610149 -1.118655,-2.34273 -0.583752,-0.938654 -7.698781,-11.814994 -7.736432,-11.82624 -0.03623,-0.01082 -7.249276,11.004963 -7.249276,11.071095 0,0.01962 0.157066,-0.09057 0.349037,-0.24488 1.073481,-0.862867 2.343563,-1.432785 3.64708,-1.636535 0.534307,-0.08351 1.64972,-0.07179 2.196483,0.02308 1.188965,0.20631 2.513669,0.837857 3.060489,1.459076 0.766812,0.871144 0.712009,2.166691 -0.125144,2.958436 -0.431953,0.408523 -0.817512,0.565959 -1.5978,0.652429 -0.356288,0.03948 -0.762026,0.10571 -0.901636,0.147172 -2.104099,0.624849 -3.145065,2.995449 -2.183172,4.971756 0.410601,0.843621 1.192131,1.529799 2.061121,1.80965 0.689871,0.222167 1.384902,0.271388 2.234638,0.158251 z"
     id="path10" />
</svg>
