<?xml version="1.0" encoding="UTF-8" standalone="no"?>
<svg
   width="64"
   height="64"
   version="1.1"
   id="svg73"
   sodipodi:docname="abcd.svg"
   inkscape:version="1.4.2 (ebf0e940d0, 2025-05-08)"
   xmlns:inkscape="http://www.inkscape.org/namespaces/inkscape"
   xmlns:sodipodi="http://sodipodi.sourceforge.net/DTD/sodipodi-0.dtd"
   xmlns:xlink="http://www.w3.org/1999/xlink"
   xmlns="http://www.w3.org/2000/svg"
   xmlns:svg="http://www.w3.org/2000/svg"
   xmlns:rdf="http://www.w3.org/1999/02/22-rdf-syntax-ns#"
   xmlns:cc="http://creativecommons.org/ns#"
   xmlns:dc="http://purl.org/dc/elements/1.1/">
  <metadata
     id="metadata77">
    <rdf:RDF>
      <cc:Work
         rdf:about="">
        <dc:format>image/svg+xml</dc:format>
        <dc:type
           rdf:resource="http://purl.org/dc/dcmitype/StillImage" />
      </cc:Work>
    </rdf:RDF>
  </metadata>
  <sodipodi:namedview
     pagecolor="#f5f7fa"
     bordercolor="#666666"
     borderopacity="1"
     objecttolerance="10"
     gridtolerance="10"
     guidetolerance="10"
     inkscape:pageopacity="0"
     inkscape:pageshadow="2"
     inkscape:window-width="1320"
     inkscape:window-height="766"
     id="namedview75"
     showgrid="false"
     inkscape:zoom="4.4470387"
     inkscape:cx="53.518761"
     inkscape:cy="22.37444"
     inkscape:window-x="24"
     inkscape:window-y="21"
     inkscape:window-maximized="0"
     inkscape:current-layer="svg73"
     inkscape:document-rotation="0"
     inkscape:pagecheckerboard="0"
     inkscape:showpageshadow="2"
     inkscape:deskcolor="#d1d1d1" />
  <defs
     id="defs29">
    <linearGradient
       id="linearGradient4"
       inkscape:collect="always">
      <stop
         style="stop-color:#5e81ac;stop-opacity:1;"
         offset="0"
         id="stop4" />
      <stop
         style="stop-color:#81a1c1;stop-opacity:1;"
         offset="0.5"
         id="stop1" />
    </linearGradient>
    <linearGradient
       id="linearGradient2"
       inkscape:collect="always">
      <stop
         style="stop-color:#eceff4;stop-opacity:1;"
         offset="0"
         id="stop2" />
      <stop
         style="stop-color:#d8dee9;stop-opacity:1;"
         offset="1"
         id="stop3" />
    </linearGradient>
    <linearGradient
       inkscape:collect="always"
       xlink:href="#linearGradient2"
       id="linearGradient8"
       x1="31.721739"
       y1="5.2278585"
       x2="31.88887"
       y2="59.145416"
       gradientUnits="userSpaceOnUse"
       gradientTransform="matrix(0.8505,0,0,0.8505,4.7765033,4.7794869)" />
    <filter
       style="color-interpolation-filters:sRGB;"
       inkscape:label="Blur"
       id="filter9"
       x="-0.047762285"
       y="-0.047489063"
       width="1.0955246"
       height="1.0949781">
      <feGaussianBlur
         stdDeviation="1 1"
         result="blur"
         id="feGaussianBlur9" />
    </filter>
    <linearGradient
       inkscape:collect="always"
       xlink:href="#linearGradient4"
       id="linearGradient7"
       x1="26.723248"
       y1="58.711765"
       x2="25.756926"
       y2="5.950614"
       gradientUnits="userSpaceOnUse" />
    <filter
       style="color-interpolation-filters:sRGB;"
       inkscape:label="Out of Focus"
       id="filter40"
       x="-0.24226652"
       y="-0.2858297"
       width="1.484533"
       height="1.5716594">
      <feFlood
         flood-opacity="1"
         flood-color="rgb(255,255,255)"
         result="flood"
         id="feFlood38" />
      <feColorMatrix
         in="SourceGraphic"
         values="1 0 0 0 0 0 1 0 0 0 0 0 1 0 0 -0.2125 -0.7154 -0.0721 1 0 "
         result="colormatrix1"
         id="feColorMatrix38" />
      <feGaussianBlur
         in="colormatrix1"
         stdDeviation="3 3"
         result="blur"
         id="feGaussianBlur38" />
      <feColorMatrix
         in="blur"
         values="1 0 0 0 0 0 1 0 0 0 0 0 1 0 0 0 0 0 6 -2 "
         result="colormatrix2"
         id="feColorMatrix39" />
      <feBlend
         in="colormatrix2"
         in2="flood"
         mode="normal"
         result="blend"
         id="feBlend39" />
      <feComposite
         in="blend"
         in2="blend"
         operator="arithmetic"
         k2="0.2"
         result="composite1"
         id="feComposite39" />
      <feComposite
         in2="SourceGraphic"
         operator="in"
         id="feComposite40" />
    </filter>
  </defs>
  <g
     id="g877"
     transform="matrix(1.1,0,0,1.1,-3.1845928,-3.2065454)">
    <ellipse
       style="opacity:0.5;fill:#000000;stroke:none;stroke-width:3.89319;stroke-dasharray:none;stroke-opacity:1;filter:url(#filter9)"
       id="path2-5"
       cx="31.949858"
       cy="31.969812"
       rx="25.124426"
       ry="25.268976"
       transform="matrix(1.05,0,0,1.05,-1.5974929,-1.5984906)" />
    <path
       style="fill:#f5f7fa;stroke-width:0.204426;fill-opacity:1"
       d=""
       id="path3" />
    <circle
       style="opacity:1;fill:url(#linearGradient8);stroke:url(#linearGradient7);stroke-width:3.81818;stroke-dasharray:none;stroke-opacity:1"
       id="path2"
       cx="31.949856"
       cy="31.969812"
       r="24.711082" />
    <ellipse
       style="opacity:0.3;fill:none;stroke:#000000;stroke-width:0.974376;stroke-dasharray:none;stroke-opacity:1"
       id="path2-9"
       cx="31.949856"
       cy="31.969812"
       rx="23.129124"
       ry="23.129126" />
  </g>
  <path
     d="m 47.2444,29.310034 c -0.363275,-1.545463 -2.915445,-3.167889 -4.494769,-3.006262 0.1216,-0.577239 -2.472124,-2.555246 -2.975481,-2.863105 -2.689168,-1.642441 -6.035617,-3.261794 -9.338967,-3.29412 -6.542044,-0.0631 -9.402074,4.881139 -10.775139,6.214182 -0.834301,0.809672 -2.111923,1.998013 -3.078609,3.021653 0.962066,0 2.373609,0 3.078609,0 -0.81891,1.374599 -3.391089,4.393175 -3.078609,7.696529 1.314565,-1.764047 2.21198,-2.116546 3.297191,-2.599888 -2.001095,5.995597 0.743485,11.835718 4.399337,13.375023 -0.432546,-1.924129 -0.481801,-5.195153 0,-6.157219 1.851785,3.132487 5.932483,5.355243 7.696528,6.157219 0,-3.271023 -0.338648,-7.328629 1.539302,-10.775135 1.216055,-2.233535 3.703571,-4.61792 6.157225,-4.61792 2.091915,0 3.295651,0 6.157222,0 0.337107,0.457177 0.76965,0.769657 1.539305,1.539307 0,-1.105221 0.100045,-2.096532 0.07235,-3.07861 -0.01548,-0.53414 -0.06772,-1.066737 -0.195492,-1.611654 z M 36.013625,28.000087 c -1.313026,0 -2.259698,-0.831223 -2.499832,-1.696315 -0.330947,-0.367896 -1.282238,-1.020559 -1.539302,-1.539304 0.65882,0.626497 5.579979,1.539304 6.157221,1.539304 0,0.820452 -0.337109,1.696315 -2.118087,1.696315 z"
     id="path1-2"
     style="fill:#000000;fill-opacity:1;stroke-width:1.5393;opacity:0.2" />
  <path
     d="m 47.2444,27.310034 c -0.363275,-1.545463 -2.915445,-3.167889 -4.494769,-3.006262 0.1216,-0.577239 -2.472124,-2.555246 -2.975481,-2.863105 -2.689168,-1.642441 -6.035617,-3.261794 -9.338967,-3.29412 -6.542044,-0.0631 -9.402074,4.881139 -10.775139,6.214182 -0.834301,0.809672 -2.111923,1.998013 -3.078609,3.021653 0.962066,0 2.373609,0 3.078609,0 -0.81891,1.374599 -3.391089,4.393175 -3.078609,7.696529 1.314565,-1.764047 2.21198,-2.116546 3.297191,-2.599888 -2.001095,5.995597 0.743485,11.835718 4.399337,13.375023 -0.432546,-1.924129 -0.481801,-5.195153 0,-6.157219 1.851785,3.132487 5.932483,5.355243 7.696528,6.157219 0,-3.271023 -0.338648,-7.328629 1.539302,-10.775135 1.216055,-2.233535 3.703571,-4.61792 6.157225,-4.61792 2.091915,0 3.295651,0 6.157222,0 0.337107,0.457177 0.76965,0.769657 1.539305,1.539307 0,-1.105221 0.100045,-2.096532 0.07235,-3.07861 -0.01548,-0.53414 -0.06772,-1.066737 -0.195492,-1.611654 z M 36.013625,26.000087 c -1.313026,0 -2.259698,-0.831223 -2.499832,-1.696315 -0.330947,-0.367896 -1.282238,-1.020559 -1.539302,-1.539304 0.65882,0.626497 5.579979,1.539304 6.157221,1.539304 0,0.820452 -0.337109,1.696315 -2.118087,1.696315 z"
     id="path1"
     style="fill:#4d4d4d;fill-opacity:1;stroke-width:1.5393" />
</svg>
