<?xml version="1.0" encoding="UTF-8" standalone="no"?>
<svg
   width="64"
   height="64"
   version="1.1"
   id="svg73"
   sodipodi:docname="abcd.svg"
   inkscape:version="1.4.2 (ebf0e940d0, 2025-05-08)"
   xmlns:inkscape="http://www.inkscape.org/namespaces/inkscape"
   xmlns:sodipodi="http://sodipodi.sourceforge.net/DTD/sodipodi-0.dtd"
   xmlns:xlink="http://www.w3.org/1999/xlink"
   xmlns="http://www.w3.org/2000/svg"
   xmlns:svg="http://www.w3.org/2000/svg"
   xmlns:rdf="http://www.w3.org/1999/02/22-rdf-syntax-ns#"
   xmlns:cc="http://creativecommons.org/ns#"
   xmlns:dc="http://purl.org/dc/elements/1.1/">
  <metadata
     id="metadata77">
    <rdf:RDF>
      <cc:Work
         rdf:about="">
        <dc:format>image/svg+xml</dc:format>
        <dc:type
           rdf:resource="http://purl.org/dc/dcmitype/StillImage" />
      </cc:Work>
    </rdf:RDF>
  </metadata>
  <sodipodi:namedview
     pagecolor="#f5f7fa"
     bordercolor="#666666"
     borderopacity="1"
     objecttolerance="10"
     gridtolerance="10"
     guidetolerance="10"
     inkscape:pageopacity="0"
     inkscape:pageshadow="2"
     inkscape:window-width="1320"
     inkscape:window-height="766"
     id="namedview75"
     showgrid="false"
     inkscape:zoom="6.2890624"
     inkscape:cx="53.585094"
     inkscape:cy="29.654659"
     inkscape:window-x="24"
     inkscape:window-y="21"
     inkscape:window-maximized="0"
     inkscape:current-layer="svg73"
     inkscape:document-rotation="0"
     inkscape:pagecheckerboard="0"
     inkscape:showpageshadow="2"
     inkscape:deskcolor="#d1d1d1" />
  <defs
     id="defs29">
    <linearGradient
       id="linearGradient4"
       inkscape:collect="always">
      <stop
         style="stop-color:#5e81ac;stop-opacity:1;"
         offset="0"
         id="stop4" />
      <stop
         style="stop-color:#81a1c1;stop-opacity:1;"
         offset="0.5"
         id="stop1" />
    </linearGradient>
    <linearGradient
       id="linearGradient2"
       inkscape:collect="always">
      <stop
         style="stop-color:#eceff4;stop-opacity:1;"
         offset="0"
         id="stop2" />
      <stop
         style="stop-color:#d8dee9;stop-opacity:1;"
         offset="1"
         id="stop3" />
    </linearGradient>
    <linearGradient
       inkscape:collect="always"
       xlink:href="#linearGradient2"
       id="linearGradient8"
       x1="31.721739"
       y1="5.2278585"
       x2="31.88887"
       y2="59.145416"
       gradientUnits="userSpaceOnUse"
       gradientTransform="matrix(0.8505,0,0,0.8505,4.7765033,4.7794869)" />
    <filter
       style="color-interpolation-filters:sRGB;"
       inkscape:label="Blur"
       id="filter9"
       x="-0.047762285"
       y="-0.047489063"
       width="1.0955246"
       height="1.0949781">
      <feGaussianBlur
         stdDeviation="1 1"
         result="blur"
         id="feGaussianBlur9" />
    </filter>
    <linearGradient
       inkscape:collect="always"
       xlink:href="#linearGradient4"
       id="linearGradient7"
       x1="26.723248"
       y1="58.711765"
       x2="25.756926"
       y2="5.950614"
       gradientUnits="userSpaceOnUse" />
    <filter
       style="color-interpolation-filters:sRGB;"
       inkscape:label="Out of Focus"
       id="filter40"
       x="-0.24226652"
       y="-0.2858297"
       width="1.484533"
       height="1.5716594">
      <feFlood
         flood-opacity="1"
         flood-color="rgb(255,255,255)"
         result="flood"
         id="feFlood38" />
      <feColorMatrix
         in="SourceGraphic"
         values="1 0 0 0 0 0 1 0 0 0 0 0 1 0 0 -0.2125 -0.7154 -0.0721 1 0 "
         result="colormatrix1"
         id="feColorMatrix38" />
      <feGaussianBlur
         in="colormatrix1"
         stdDeviation="3 3"
         result="blur"
         id="feGaussianBlur38" />
      <feColorMatrix
         in="blur"
         values="1 0 0 0 0 0 1 0 0 0 0 0 1 0 0 0 0 0 6 -2 "
         result="colormatrix2"
         id="feColorMatrix39" />
      <feBlend
         in="colormatrix2"
         in2="flood"
         mode="normal"
         result="blend"
         id="feBlend39" />
      <feComposite
         in="blend"
         in2="blend"
         operator="arithmetic"
         k2="0.2"
         result="composite1"
         id="feComposite39" />
      <feComposite
         in2="SourceGraphic"
         operator="in"
         id="feComposite40" />
    </filter>
  </defs>
  <g
     id="g877"
     transform="matrix(1.1,0,0,1.1,-3.1845928,-3.2065454)">
    <ellipse
       style="opacity:0.5;fill:#000000;stroke:none;stroke-width:3.89319;stroke-dasharray:none;stroke-opacity:1;filter:url(#filter9)"
       id="path2-5"
       cx="31.949858"
       cy="31.969812"
       rx="25.124426"
       ry="25.268976"
       transform="matrix(1.05,0,0,1.05,-1.5974929,-1.5984906)" />
    <path
       style="fill:#f5f7fa;stroke-width:0.204426;fill-opacity:1"
       d=""
       id="path3" />
    <circle
       style="opacity:1;fill:url(#linearGradient8);stroke:url(#linearGradient7);stroke-width:3.81818;stroke-dasharray:none;stroke-opacity:1"
       id="path2"
       cx="31.949856"
       cy="31.969812"
       r="24.711082" />
    <ellipse
       style="opacity:0.3;fill:none;stroke:#000000;stroke-width:0.974376;stroke-dasharray:none;stroke-opacity:1"
       id="path2-9"
       cx="31.949856"
       cy="31.969812"
       rx="23.129124"
       ry="23.129126" />
  </g>
  <path
     style="fill:#000000;fill-opacity:1;stroke:none;stroke-width:0.515722;stroke-dasharray:none;stroke-opacity:0.6;opacity:0.2"
     d="m 33.80912,49.362462 c 2.012472,-0.128684 3.774986,-0.458413 5.436547,-1.016973 1.665111,-0.559776 3.234371,-1.379383 4.209551,-2.19862 1.936426,-1.626788 2.924962,-3.794933 2.837091,-6.222552 -0.04786,-1.321823 -0.30981,-2.391887 -0.85498,-3.492226 -0.533004,-1.07583 -1.137513,-1.876129 -2.277752,-3.01551 -0.964058,-0.963333 -1.046841,-1.088618 -1.074696,-1.626496 -0.03014,-0.570002 0.160084,-0.951502 0.780118,-1.569798 0.286501,-0.285696 0.515932,-0.462892 1.081016,-0.834924 0.909664,-0.598882 1.393631,-0.982509 1.964248,-1.557004 0.519848,-0.523373 0.894596,-1.002484 1.245449,-1.592291 0.298126,-0.501187 0.316411,-0.631856 0.116387,-0.831866 -0.102894,-0.102883 -0.158137,-0.128362 -0.278314,-0.128362 -0.384504,0 -1.910902,-0.192267 -2.675185,-0.336967 -0.456979,-0.08652 -0.517809,-0.140998 -0.616535,-0.552088 -0.325622,-1.355881 -1.096234,-2.680702 -2.139349,-3.677925 -1.133183,-1.083331 -2.492349,-1.759354 -4.072601,-2.025638 -0.479811,-0.08085 -1.664312,-0.09117 -2.170845,-0.01892 -3.040559,0.433769 -5.543982,2.641862 -6.304306,5.56058 -0.191223,0.734061 -0.239014,1.11374 -0.241602,1.919277 -0.0043,1.285175 0.205347,2.21867 0.749766,3.341213 0.465828,0.960495 0.978725,1.628039 1.890644,2.460708 0.407555,0.372134 0.551466,0.593398 0.598554,0.920254 0.05804,0.402844 -0.136092,0.787016 -0.438881,0.868548 -0.105919,0.02853 -1.01045,0.03592 -2.969664,0.02417 -2.955004,-0.01769 -2.920558,-0.01588 -3.798943,-0.197228 -0.462203,-0.09541 -1.272459,-0.37427 -1.735499,-0.597284 -1.12486,-0.541763 -2.094927,-1.333362 -2.645019,-2.158409 -0.236055,-0.354037 -0.32714,-0.44667 -0.517338,-0.526142 -0.361503,-0.151044 -0.670533,-0.0379 -1.02222,0.374279 -1.075419,1.260391 -1.860022,2.978315 -2.156012,4.720681 -0.247662,1.457946 -0.143958,3.323541 0.267599,4.81361 0.338601,1.225911 0.803213,2.370438 1.256718,3.095812 1.188587,1.901112 3.163994,3.474752 5.758943,4.587639 1.713067,0.734673 3.800136,1.212891 6.267126,1.436021 0.761587,0.06895 2.809921,0.100518 3.529981,0.05444 z m 5.850314,-23.241113 c -0.372732,-0.110684 -0.647893,-0.350806 -0.817486,-0.71337 -0.08882,-0.189814 -0.105897,-0.275755 -0.105435,-0.530346 4.3e-4,-0.26586 0.0156,-0.33494 0.123047,-0.552807 0.143038,-0.290526 0.348628,-0.490599 0.645867,-0.628479 0.302025,-0.140098 0.726407,-0.140098 1.028419,0 0.292524,0.135704 0.502651,0.337392 0.636931,0.611396 0.241989,0.493827 0.171638,1.03886 -0.184398,1.428414 -0.357252,0.390877 -0.837934,0.530415 -1.326945,0.385192 z"
     id="path1-2" />
  <path
     style="fill:#4d4d4d;fill-opacity:1;stroke:none;stroke-width:0.515722;stroke-dasharray:none;stroke-opacity:0.6"
     d="m 33.80912,47.362462 c 2.012472,-0.128684 3.774986,-0.458413 5.436547,-1.016973 1.665111,-0.559776 3.234371,-1.379383 4.209551,-2.19862 1.936426,-1.626788 2.924962,-3.794933 2.837091,-6.222552 -0.04786,-1.321823 -0.30981,-2.391887 -0.85498,-3.492226 -0.533004,-1.07583 -1.137513,-1.876129 -2.277752,-3.01551 -0.964058,-0.963333 -1.046841,-1.088618 -1.074696,-1.626496 -0.03014,-0.570002 0.160084,-0.951502 0.780118,-1.569798 0.286501,-0.285696 0.515932,-0.462892 1.081016,-0.834924 0.909664,-0.598882 1.393631,-0.982509 1.964248,-1.557004 0.519848,-0.523373 0.894596,-1.002484 1.245449,-1.592291 0.298126,-0.501187 0.316411,-0.631856 0.116387,-0.831866 -0.102894,-0.102883 -0.158137,-0.128362 -0.278314,-0.128362 -0.384504,0 -1.910902,-0.192267 -2.675185,-0.336967 -0.456979,-0.08652 -0.517809,-0.140998 -0.616535,-0.552088 -0.325622,-1.355881 -1.096234,-2.680702 -2.139349,-3.677925 -1.133183,-1.083331 -2.492349,-1.759354 -4.072601,-2.025638 -0.479811,-0.08085 -1.664312,-0.09117 -2.170845,-0.01892 -3.040559,0.433769 -5.543982,2.641862 -6.304306,5.56058 -0.191223,0.734061 -0.239014,1.11374 -0.241602,1.919277 -0.0043,1.285175 0.205347,2.21867 0.749766,3.341213 0.465828,0.960495 0.978725,1.628039 1.890644,2.460708 0.407555,0.372134 0.551466,0.593398 0.598554,0.920254 0.05804,0.402844 -0.136092,0.787016 -0.438881,0.868548 -0.105919,0.02853 -1.01045,0.03592 -2.969664,0.02417 -2.955004,-0.01769 -2.920558,-0.01588 -3.798943,-0.197228 -0.462203,-0.09541 -1.272459,-0.37427 -1.735499,-0.597284 -1.12486,-0.541763 -2.094927,-1.333362 -2.645019,-2.158409 -0.236055,-0.354037 -0.32714,-0.44667 -0.517338,-0.526142 -0.361503,-0.151044 -0.670533,-0.0379 -1.02222,0.374279 -1.075419,1.260391 -1.860022,2.978315 -2.156012,4.720681 -0.247662,1.457946 -0.143958,3.323541 0.267599,4.81361 0.338601,1.225911 0.803213,2.370438 1.256718,3.095812 1.188587,1.901112 3.163994,3.474752 5.758943,4.587639 1.713067,0.734673 3.800136,1.212891 6.267126,1.436021 0.761587,0.06895 2.809921,0.100518 3.529981,0.05444 z m 5.850314,-23.241113 c -0.372732,-0.110684 -0.647893,-0.350806 -0.817486,-0.71337 -0.08882,-0.189814 -0.105897,-0.275755 -0.105435,-0.530346 4.3e-4,-0.26586 0.0156,-0.33494 0.123047,-0.552807 0.143038,-0.290526 0.348628,-0.490599 0.645867,-0.628479 0.302025,-0.140098 0.726407,-0.140098 1.028419,0 0.292524,0.135704 0.502651,0.337392 0.636931,0.611396 0.241989,0.493827 0.171638,1.03886 -0.184398,1.428414 -0.357252,0.390877 -0.837934,0.530415 -1.326945,0.385192 z"
     id="path1" />
</svg>
