<?xml version="1.0" encoding="UTF-8" standalone="no"?>
<svg
   width="64"
   height="64"
   version="1.1"
   id="svg73"
   sodipodi:docname="abcd.svg"
   inkscape:version="1.4.2 (ebf0e940d0, 2025-05-08)"
   xmlns:inkscape="http://www.inkscape.org/namespaces/inkscape"
   xmlns:sodipodi="http://sodipodi.sourceforge.net/DTD/sodipodi-0.dtd"
   xmlns:xlink="http://www.w3.org/1999/xlink"
   xmlns="http://www.w3.org/2000/svg"
   xmlns:svg="http://www.w3.org/2000/svg"
   xmlns:rdf="http://www.w3.org/1999/02/22-rdf-syntax-ns#"
   xmlns:cc="http://creativecommons.org/ns#"
   xmlns:dc="http://purl.org/dc/elements/1.1/">
  <metadata
     id="metadata77">
    <rdf:RDF>
      <cc:Work
         rdf:about="">
        <dc:format>image/svg+xml</dc:format>
        <dc:type
           rdf:resource="http://purl.org/dc/dcmitype/StillImage" />
      </cc:Work>
    </rdf:RDF>
  </metadata>
  <sodipodi:namedview
     pagecolor="#f5f7fa"
     bordercolor="#666666"
     borderopacity="1"
     objecttolerance="10"
     gridtolerance="10"
     guidetolerance="10"
     inkscape:pageopacity="0"
     inkscape:pageshadow="2"
     inkscape:window-width="1462"
     inkscape:window-height="840"
     id="namedview75"
     showgrid="false"
     inkscape:zoom="6.2890624"
     inkscape:cx="53.585094"
     inkscape:cy="29.654659"
     inkscape:window-x="24"
     inkscape:window-y="21"
     inkscape:window-maximized="0"
     inkscape:current-layer="svg73"
     inkscape:document-rotation="0"
     inkscape:pagecheckerboard="0"
     inkscape:showpageshadow="2"
     inkscape:deskcolor="#d1d1d1" />
  <defs
     id="defs29">
    <linearGradient
       id="linearGradient4"
       inkscape:collect="always">
      <stop
         style="stop-color:#5e81ac;stop-opacity:1;"
         offset="0"
         id="stop4" />
      <stop
         style="stop-color:#81a1c1;stop-opacity:1;"
         offset="0.5"
         id="stop1" />
    </linearGradient>
    <linearGradient
       id="linearGradient2"
       inkscape:collect="always">
      <stop
         style="stop-color:#eceff4;stop-opacity:1;"
         offset="0"
         id="stop2" />
      <stop
         style="stop-color:#d8dee9;stop-opacity:1;"
         offset="1"
         id="stop3" />
    </linearGradient>
    <linearGradient
       inkscape:collect="always"
       xlink:href="#linearGradient2"
       id="linearGradient8"
       x1="31.721739"
       y1="5.2278585"
       x2="31.88887"
       y2="59.145416"
       gradientUnits="userSpaceOnUse"
       gradientTransform="matrix(0.8505,0,0,0.8505,4.7765033,4.7794869)" />
    <filter
       style="color-interpolation-filters:sRGB;"
       inkscape:label="Blur"
       id="filter9"
       x="-0.047762285"
       y="-0.047489063"
       width="1.0955246"
       height="1.0949781">
      <feGaussianBlur
         stdDeviation="1 1"
         result="blur"
         id="feGaussianBlur9" />
    </filter>
    <linearGradient
       inkscape:collect="always"
       xlink:href="#linearGradient4"
       id="linearGradient7"
       x1="26.723248"
       y1="58.711765"
       x2="25.756926"
       y2="5.950614"
       gradientUnits="userSpaceOnUse" />
    <filter
       style="color-interpolation-filters:sRGB;"
       inkscape:label="Out of Focus"
       id="filter40"
       x="-0.24226652"
       y="-0.2858297"
       width="1.484533"
       height="1.5716594">
      <feFlood
         flood-opacity="1"
         flood-color="rgb(255,255,255)"
         result="flood"
         id="feFlood38" />
      <feColorMatrix
         in="SourceGraphic"
         values="1 0 0 0 0 0 1 0 0 0 0 0 1 0 0 -0.2125 -0.7154 -0.0721 1 0 "
         result="colormatrix1"
         id="feColorMatrix38" />
      <feGaussianBlur
         in="colormatrix1"
         stdDeviation="3 3"
         result="blur"
         id="feGaussianBlur38" />
      <feColorMatrix
         in="blur"
         values="1 0 0 0 0 0 1 0 0 0 0 0 1 0 0 0 0 0 6 -2 "
         result="colormatrix2"
         id="feColorMatrix39" />
      <feBlend
         in="colormatrix2"
         in2="flood"
         mode="normal"
         result="blend"
         id="feBlend39" />
      <feComposite
         in="blend"
         in2="blend"
         operator="arithmetic"
         k2="0.2"
         result="composite1"
         id="feComposite39" />
      <feComposite
         in2="SourceGraphic"
         operator="in"
         id="feComposite40" />
    </filter>
  </defs>
  <g
     id="g877"
     transform="matrix(1.1,0,0,1.1,-3.1845928,-3.2065454)">
    <ellipse
       style="opacity:0.5;fill:#000000;stroke:none;stroke-width:3.89319;stroke-dasharray:none;stroke-opacity:1;filter:url(#filter9)"
       id="path2-5"
       cx="31.949858"
       cy="31.969812"
       rx="25.124426"
       ry="25.268976"
       transform="matrix(1.05,0,0,1.05,-1.5974929,-1.5984906)" />
    <path
       style="fill:#f5f7fa;stroke-width:0.204426;fill-opacity:1"
       d=""
       id="path3" />
    <circle
       style="opacity:1;fill:url(#linearGradient8);stroke:url(#linearGradient7);stroke-width:3.81818;stroke-dasharray:none;stroke-opacity:1"
       id="path2"
       cx="31.949856"
       cy="31.969812"
       r="24.711082" />
    <ellipse
       style="opacity:0.3;fill:none;stroke:#000000;stroke-width:0.974376;stroke-dasharray:none;stroke-opacity:1"
       id="path2-9"
       cx="31.949856"
       cy="31.969812"
       rx="23.129124"
       ry="23.129126" />
  </g>
  <path
     style="fill:#000000;fill-opacity:1;stroke:none;stroke-width:0.477662;stroke-dasharray:none;stroke-opacity:0.6;opacity:0.2"
     d="m 43.027752,18.90202 c -0.87326,0.03785 -1.734523,0.392782 -2.411078,1.058838 -1.485457,1.468349 -1.542968,3.892073 -0.116316,5.420972 l -0.01574,-0.03055 c 1.117769,1.180733 2.853897,1.482586 4.295237,0.755979 l -2.559699,-2.617755 c -0.08826,-0.105963 -0.08826,-0.257941 0,-0.363902 l 3.29385,-3.376086 c -0.727927,-0.605462 -1.613,-0.885343 -2.486266,-0.847499 z m 2.839928,1.195007 -3.131895,3.225819 2.456701,2.526188 c 0.205937,-0.136229 0.382349,-0.30069 0.558856,-0.467204 1.426636,-1.453214 1.469433,-3.786177 0.116315,-5.284803 z m -0.168729,1.941595 c 0.0782,-3.03e-4 0.152485,0.03708 0.198502,0.103312 0.26468,0.514679 0.192006,1.134005 -0.175629,1.572994 -0.04413,0.06057 -0.134098,0.105644 -0.207544,0.105644 -0.05885,0.0151 -0.132692,0.0151 -0.191605,0 l -0.01373,-0.01399 c -0.102982,-0.105974 -0.08925,-0.288462 0.01373,-0.394423 0.220607,-0.257336 0.252022,-0.634001 0.104962,-0.936755 0,-0.0151 -0.01574,-0.01543 -0.01574,-0.03055 -0.05885,-0.13623 0.01574,-0.303348 0.148333,-0.363903 0.04411,-0.02834 0.09216,-0.0421 0.139154,-0.04226 z m -7.349608,2.648268 c -1.579481,-0.131264 -4.174028,1.642701 -10.880681,8.534096 l 1.941179,2.000294 9.090024,-9.355814 c 0.323524,-0.333027 0.750745,-0.515458 1.206689,-0.53059 -0.415497,-0.348161 -0.830749,-0.604223 -1.35723,-0.647986 z m 1.384599,1.227877 c -0.323525,0 -0.64642,0.12352 -0.896452,0.373298 l -9.060399,9.264251 1.220372,1.31709 9.575885,-8.689051 c 0.264683,-0.242208 0.411872,-0.573452 0.426556,-0.936759 0.01474,-0.348158 -0.117182,-0.698191 -0.367225,-0.95553 -0.250036,-0.249774 -0.575167,-0.373293 -0.898741,-0.373293 z m 1.411975,2.343066 c -0.07356,0.105974 -0.160389,0.196652 -0.248572,0.272342 l -9.575943,8.672612 1.706232,1.75612 c 3.956306,-3.890363 7.809401,-7.885483 8.118264,-10.701073 z m -14.030819,5.266022 -2.397395,2.46749 -0.04334,0.06107 c -0.04411,0.04539 -0.05803,0.09206 -0.04332,0.152603 0.01464,0.09082 0.101101,0.151293 0.189333,0.136154 l 4.103626,-0.908589 z m 2.3244,2.46749 -1.368636,1.408657 c -0.02943,0.04541 -0.02943,0.107184 0,0.152596 0.04411,0.03032 0.08822,0.03032 0.132299,0 l 2.251404,-0.591639 z m 1.441631,1.439171 -3.720409,0.81702 -7.678048,7.916639 2.50004,2.650617 c 0.07352,0.07577 0.206013,0.07577 0.294252,0 0.08821,-0.06062 0.148032,-0.181824 0.118615,-0.302861 l -0.412877,-1.817163 c -0.04411,-0.211965 0.05974,-0.424638 0.250913,-0.530597 h 0.01356 v -0.03049 C 25.98291,44.302066 29.483387,41.9866 32.660219,39.26183 Z m -11.795371,9.111644 -1.927495,2.000294 c -0.0147,0.04542 -0.0147,0.103873 0,0.164376 0.0147,0.04539 0.07348,0.09285 0.1323,0.108031 l 4.295226,0.286482 z"
     id="path8-5" />
  <path
     style="fill:#4d4d4d;fill-opacity:1;stroke:none;stroke-width:0.477662;stroke-dasharray:none;stroke-opacity:0.6"
     d="m 43.027752,16.90202 c -0.87326,0.03785 -1.734523,0.392782 -2.411078,1.058838 -1.485457,1.468349 -1.542968,3.892073 -0.116316,5.420972 l -0.01574,-0.03055 c 1.117769,1.180733 2.853897,1.482586 4.295237,0.755979 l -2.559699,-2.617755 c -0.08826,-0.105963 -0.08826,-0.257941 0,-0.363902 l 3.29385,-3.376086 c -0.727927,-0.605462 -1.613,-0.885343 -2.486266,-0.847499 z m 2.839928,1.195007 -3.131895,3.225819 2.456701,2.526188 c 0.205937,-0.136229 0.382349,-0.30069 0.558856,-0.467204 1.426636,-1.453214 1.469433,-3.786177 0.116315,-5.284803 z m -0.168729,1.941595 c 0.0782,-3.03e-4 0.152485,0.03708 0.198502,0.103312 0.26468,0.514679 0.192006,1.134005 -0.175629,1.572994 -0.04413,0.06057 -0.134098,0.105644 -0.207544,0.105644 -0.05885,0.0151 -0.132692,0.0151 -0.191605,0 l -0.01373,-0.01399 c -0.102982,-0.105974 -0.08925,-0.288462 0.01373,-0.394423 0.220607,-0.257336 0.252022,-0.634001 0.104962,-0.936755 0,-0.0151 -0.01574,-0.01543 -0.01574,-0.03055 -0.05885,-0.13623 0.01574,-0.303348 0.148333,-0.363903 0.04411,-0.02834 0.09216,-0.0421 0.139154,-0.04226 z m -7.349608,2.648268 c -1.579481,-0.131264 -4.174028,1.642701 -10.880681,8.534096 l 1.941179,2.000294 9.090024,-9.355814 c 0.323524,-0.333027 0.750745,-0.515458 1.206689,-0.53059 -0.415497,-0.348161 -0.830749,-0.604223 -1.35723,-0.647986 z m 1.384599,1.227877 c -0.323525,0 -0.64642,0.12352 -0.896452,0.373298 l -9.060399,9.264251 1.220372,1.31709 9.575885,-8.689051 c 0.264683,-0.242208 0.411872,-0.573452 0.426556,-0.936759 0.01474,-0.348158 -0.117182,-0.698191 -0.367225,-0.95553 -0.250036,-0.249774 -0.575167,-0.373293 -0.898741,-0.373293 z m 1.411975,2.343066 c -0.07356,0.105974 -0.160389,0.196652 -0.248572,0.272342 l -9.575943,8.672612 1.706232,1.75612 c 3.956306,-3.890363 7.809401,-7.885483 8.118264,-10.701073 z m -14.030819,5.266022 -2.397395,2.46749 -0.04334,0.06107 c -0.04411,0.04539 -0.05803,0.09206 -0.04332,0.152603 0.01464,0.09082 0.101101,0.151293 0.189333,0.136154 l 4.103626,-0.908589 z m 2.3244,2.46749 -1.368636,1.408657 c -0.02943,0.04541 -0.02943,0.107184 0,0.152596 0.04411,0.03032 0.08822,0.03032 0.132299,0 l 2.251404,-0.591639 z m 1.441631,1.439171 -3.720409,0.81702 -7.678048,7.916639 2.50004,2.650617 c 0.07352,0.07577 0.206013,0.07577 0.294252,0 0.08821,-0.06062 0.148032,-0.181824 0.118615,-0.302861 l -0.412877,-1.817163 c -0.04411,-0.211965 0.05974,-0.424638 0.250913,-0.530597 h 0.01356 v -0.03049 C 25.98291,42.302066 29.483387,39.9866 32.660219,37.26183 Z m -11.795371,9.111644 -1.927495,2.000294 c -0.0147,0.04542 -0.0147,0.103873 0,0.164376 0.0147,0.04539 0.07348,0.09285 0.1323,0.108031 l 4.295226,0.286482 z"
     id="path8" />
</svg>
