<?xml version="1.0" encoding="UTF-8" standalone="no"?>
<svg
   width="64"
   height="64"
   version="1.1"
   id="svg73"
   sodipodi:docname="abcd.svg"
   inkscape:version="1.4.2 (ebf0e940d0, 2025-05-08)"
   xmlns:inkscape="http://www.inkscape.org/namespaces/inkscape"
   xmlns:sodipodi="http://sodipodi.sourceforge.net/DTD/sodipodi-0.dtd"
   xmlns:xlink="http://www.w3.org/1999/xlink"
   xmlns="http://www.w3.org/2000/svg"
   xmlns:svg="http://www.w3.org/2000/svg"
   xmlns:rdf="http://www.w3.org/1999/02/22-rdf-syntax-ns#"
   xmlns:cc="http://creativecommons.org/ns#"
   xmlns:dc="http://purl.org/dc/elements/1.1/">
  <metadata
     id="metadata77">
    <rdf:RDF>
      <cc:Work
         rdf:about="">
        <dc:format>image/svg+xml</dc:format>
        <dc:type
           rdf:resource="http://purl.org/dc/dcmitype/StillImage" />
      </cc:Work>
    </rdf:RDF>
  </metadata>
  <sodipodi:namedview
     pagecolor="#f5f7fa"
     bordercolor="#666666"
     borderopacity="1"
     objecttolerance="10"
     gridtolerance="10"
     guidetolerance="10"
     inkscape:pageopacity="0"
     inkscape:pageshadow="2"
     inkscape:window-width="1263"
     inkscape:window-height="693"
     id="namedview75"
     showgrid="false"
     inkscape:zoom="4.4470387"
     inkscape:cx="36.091433"
     inkscape:cy="29.682674"
     inkscape:window-x="24"
     inkscape:window-y="21"
     inkscape:window-maximized="0"
     inkscape:current-layer="svg73"
     inkscape:document-rotation="0"
     inkscape:pagecheckerboard="0"
     inkscape:showpageshadow="2"
     inkscape:deskcolor="#d1d1d1" />
  <defs
     id="defs29">
    <linearGradient
       id="linearGradient4"
       inkscape:collect="always">
      <stop
         style="stop-color:#5e81ac;stop-opacity:1;"
         offset="0"
         id="stop4" />
      <stop
         style="stop-color:#81a1c1;stop-opacity:1;"
         offset="0.5"
         id="stop1" />
    </linearGradient>
    <linearGradient
       id="linearGradient2"
       inkscape:collect="always">
      <stop
         style="stop-color:#eceff4;stop-opacity:1;"
         offset="0"
         id="stop2" />
      <stop
         style="stop-color:#d8dee9;stop-opacity:1;"
         offset="1"
         id="stop3" />
    </linearGradient>
    <linearGradient
       inkscape:collect="always"
       xlink:href="#linearGradient2"
       id="linearGradient8"
       x1="31.721739"
       y1="5.2278585"
       x2="31.88887"
       y2="59.145416"
       gradientUnits="userSpaceOnUse"
       gradientTransform="matrix(0.8505,0,0,0.8505,4.7765033,4.7794869)" />
    <filter
       style="color-interpolation-filters:sRGB;"
       inkscape:label="Blur"
       id="filter9"
       x="-0.047762285"
       y="-0.047489063"
       width="1.0955246"
       height="1.0949781">
      <feGaussianBlur
         stdDeviation="1 1"
         result="blur"
         id="feGaussianBlur9" />
    </filter>
    <linearGradient
       inkscape:collect="always"
       xlink:href="#linearGradient4"
       id="linearGradient7"
       x1="26.723248"
       y1="58.711765"
       x2="25.756926"
       y2="5.950614"
       gradientUnits="userSpaceOnUse" />
    <filter
       style="color-interpolation-filters:sRGB;"
       inkscape:label="Out of Focus"
       id="filter40"
       x="-0.24226652"
       y="-0.2858297"
       width="1.484533"
       height="1.5716594">
      <feFlood
         flood-opacity="1"
         flood-color="rgb(255,255,255)"
         result="flood"
         id="feFlood38" />
      <feColorMatrix
         in="SourceGraphic"
         values="1 0 0 0 0 0 1 0 0 0 0 0 1 0 0 -0.2125 -0.7154 -0.0721 1 0 "
         result="colormatrix1"
         id="feColorMatrix38" />
      <feGaussianBlur
         in="colormatrix1"
         stdDeviation="3 3"
         result="blur"
         id="feGaussianBlur38" />
      <feColorMatrix
         in="blur"
         values="1 0 0 0 0 0 1 0 0 0 0 0 1 0 0 0 0 0 6 -2 "
         result="colormatrix2"
         id="feColorMatrix39" />
      <feBlend
         in="colormatrix2"
         in2="flood"
         mode="normal"
         result="blend"
         id="feBlend39" />
      <feComposite
         in="blend"
         in2="blend"
         operator="arithmetic"
         k2="0.2"
         result="composite1"
         id="feComposite39" />
      <feComposite
         in2="SourceGraphic"
         operator="in"
         id="feComposite40" />
    </filter>
  </defs>
  <g
     id="g877"
     transform="matrix(1.1,0,0,1.1,-3.1845928,-3.2065454)">
    <ellipse
       style="opacity:0.5;fill:#000000;stroke:none;stroke-width:3.89319;stroke-dasharray:none;stroke-opacity:1;filter:url(#filter9)"
       id="path2-5"
       cx="31.949858"
       cy="31.969812"
       rx="25.124426"
       ry="25.268976"
       transform="matrix(1.05,0,0,1.05,-1.5974929,-1.5984906)" />
    <path
       style="fill:#f5f7fa;stroke-width:0.204426;fill-opacity:1"
       d=""
       id="path3" />
    <circle
       style="opacity:1;fill:url(#linearGradient8);stroke:url(#linearGradient7);stroke-width:3.81818;stroke-dasharray:none;stroke-opacity:1"
       id="path2"
       cx="31.949856"
       cy="31.969812"
       r="24.711082" />
    <ellipse
       style="opacity:0.3;fill:none;stroke:#000000;stroke-width:0.974376;stroke-dasharray:none;stroke-opacity:1"
       id="path2-9"
       cx="31.949856"
       cy="31.969812"
       rx="23.129124"
       ry="23.129126" />
  </g>
  <path
     id="path6-8"
     style="fill:#000000;fill-opacity:1;stroke:none;stroke-width:0.540282;stroke-dasharray:none;stroke-opacity:0.6;opacity:0.2"
     d="m 32.445678,18.462697 c -0.787352,0.0064 -1.577253,0.04403 -1.993936,0.107998 -2.204851,0.33849 -4.086417,0.999129 -5.862729,2.0604 -1.192522,0.712483 -1.953958,1.313451 -3.026909,2.387187 -1.346152,1.347143 -2.125339,2.419612 -2.952136,4.06265 -0.219126,0.435455 -0.398788,0.813032 -0.398788,0.839114 0,0.02606 1.315091,0.04022 2.921673,0.03187 l 2.92029,-0.01522 0.242317,-0.396018 c 0.858047,-1.404419 2.201811,-2.792977 3.573857,-3.694355 2.884903,-1.895266 6.470321,-2.418992 9.82984,-1.435912 0.08624,0.02526 0.09845,-0.07181 0.117694,-0.900042 0.02499,-1.056989 0.101728,-1.308952 0.515108,-1.682385 L 38.55493,19.6272 37.974748,19.411186 c -1.065583,-0.394047 -2.293172,-0.694917 -3.550368,-0.872347 -0.406255,-0.05733 -1.191352,-0.08252 -1.978708,-0.07615 z m 9.239972,1.743308 c -0.210618,8.58e-4 -0.449519,0.003 -0.722807,0.0055 l -1.909468,0.01664 -0.159247,0.146773 c -0.307386,0.283777 -0.320719,0.382207 -0.317072,2.27918 0.0041,1.943153 0.02362,2.079549 0.343396,2.294414 0.198196,0.133242 0.217437,0.134315 2.139334,0.134315 1.889343,0 1.942749,-0.0026 2.115785,-0.126005 0.323894,-0.230633 0.340652,-0.345023 0.340652,-2.295798 0,-1.670762 -0.0078,-1.793681 -0.12043,-2.027168 -0.185034,-0.382166 -0.235629,-0.43373 -1.710106,-0.427846 z m 2.625345,3.611244 -0.04003,0.486022 c -0.06271,0.755895 -0.35847,1.208989 -0.95127,1.456681 l -0.221588,0.09277 0.27414,0.336478 c 0.828152,1.019875 1.651643,2.513727 2.05486,3.727557 0.630972,1.899436 0.772874,4.047538 0.394648,5.973505 l -0.106623,0.537256 0.740799,0.02633 c 0.616212,0.02136 0.785589,0.0482 1.019125,0.160619 0.154184,0.07421 0.295304,0.160326 0.31434,0.191088 0.05721,0.09262 0.0703,0.04364 0.178586,-0.689567 0.130218,-0.881231 0.147804,-3.186877 0.03037,-4.029418 -0.266669,-1.915518 -0.825353,-3.691378 -1.66573,-5.296404 -0.411015,-0.784996 -1.187436,-1.968093 -1.679613,-2.560272 z m -27.070473,4.943302 -0.253396,0.135699 c -0.389582,0.208012 -0.698232,0.518976 -0.877888,0.88481 l -0.163393,0.333709 -0.01664,3.760786 c -0.01813,4.165352 -0.02015,4.138401 0.357246,4.635906 0.213056,0.280842 0.660649,0.60833 0.945736,0.690954 0.101486,0.02936 1.883273,0.05525 3.958796,0.05816 4.131734,0.0062 4.009499,0.01485 4.511283,-0.346173 0.349911,-0.251763 0.635014,-0.6967 0.726958,-1.135433 0.05787,-0.276153 0.078,-1.200566 0.07893,-3.755247 0.0014,-3.477533 -0.02097,-3.872264 -0.23538,-4.292505 -0.151128,-0.296233 -0.545164,-0.673102 -0.870964,-0.833578 l -0.275544,-0.137084 h -3.943563 z m 27.377874,8.446544 c -2.451714,-0.0015 -2.531982,0.007 -2.856586,0.31017 -0.305125,0.284869 -0.304652,0.276365 -0.304652,2.83582 0,2.5703 0.0051,2.624144 0.31012,2.905059 0.08202,0.0756 0.250783,0.17369 0.375248,0.218784 0.181454,0.06578 0.68075,0.07996 2.521494,0.0692 2.594678,-0.01519 2.600319,-0.01619 2.903672,-0.474944 l 0.156444,-0.236812 0.01789,-2.329034 c 0.01183,-1.516805 -0.0041,-2.402336 -0.04434,-2.540878 -0.08737,-0.298728 -0.276603,-0.519464 -0.556636,-0.646645 -0.220236,-0.100045 -0.428455,-0.109571 -2.522886,-0.110775 z m -23.273687,2.824747 c -1.723549,-8.59e-4 -3.133529,0.01958 -3.133529,0.04567 0,0.02565 0.179662,0.403667 0.398788,0.839109 0.45742,0.908999 0.94336,1.697231 1.55084,2.514581 0.543991,0.73192 2.206831,2.393216 2.952136,2.949367 2.367677,1.766786 5.054489,2.820535 7.956365,3.121065 0.724203,0.075 2.871951,0.02802 3.590471,-0.07895 3.418508,-0.507291 6.290222,-1.919408 8.708252,-4.284194 l 0.825265,-0.807269 -0.913884,-0.0025 c -1.041226,-0.0024 -1.454114,-0.08162 -1.8527,-0.355836 -0.140816,-0.09688 -0.315151,-0.261821 -0.387704,-0.366936 -0.07256,-0.105105 -0.139198,-0.201302 -0.148142,-0.213217 -0.0087,-0.01214 -0.184695,0.08465 -0.390479,0.214635 -3.695371,2.333839 -8.602565,2.337664 -12.358265,0.0081 -1.308642,-0.811647 -2.663237,-2.09431 -3.457568,-3.274777 L 24.47824,40.033243 Z" />
  <path
     id="path6"
     style="fill:#4d4d4d;fill-opacity:1;stroke:none;stroke-width:0.540282;stroke-dasharray:none;stroke-opacity:0.6"
     d="m 32.445678,16.462697 c -0.787352,0.0064 -1.577253,0.04403 -1.993936,0.107998 -2.204851,0.33849 -4.086417,0.999129 -5.862729,2.0604 -1.192522,0.712483 -1.953958,1.313451 -3.026909,2.387187 -1.346152,1.347143 -2.125339,2.419612 -2.952136,4.06265 -0.219126,0.435455 -0.398788,0.813032 -0.398788,0.839114 0,0.02606 1.315091,0.04022 2.921673,0.03187 l 2.92029,-0.01522 0.242317,-0.396018 c 0.858047,-1.404419 2.201811,-2.792977 3.573857,-3.694355 2.884903,-1.895266 6.470321,-2.418992 9.82984,-1.435912 0.08624,0.02526 0.09845,-0.07181 0.117694,-0.900042 0.02499,-1.056989 0.101728,-1.308952 0.515108,-1.682385 L 38.55493,17.6272 37.974748,17.411186 c -1.065583,-0.394047 -2.293172,-0.694917 -3.550368,-0.872347 -0.406255,-0.05733 -1.191352,-0.08252 -1.978708,-0.07615 z m 9.239972,1.743308 c -0.210618,8.58e-4 -0.449519,0.003 -0.722807,0.0055 l -1.909468,0.01664 -0.159247,0.146773 c -0.307386,0.283777 -0.320719,0.382207 -0.317072,2.27918 0.0041,1.943153 0.02362,2.079549 0.343396,2.294414 0.198196,0.133242 0.217437,0.134315 2.139334,0.134315 1.889343,0 1.942749,-0.0026 2.115785,-0.126005 0.323894,-0.230633 0.340652,-0.345023 0.340652,-2.295798 0,-1.670762 -0.0078,-1.793681 -0.12043,-2.027168 -0.185034,-0.382166 -0.235629,-0.43373 -1.710106,-0.427846 z m 2.625345,3.611244 -0.04003,0.486022 c -0.06271,0.755895 -0.35847,1.208989 -0.95127,1.456681 l -0.221588,0.09277 0.27414,0.336478 c 0.828152,1.019875 1.651643,2.513727 2.05486,3.727557 0.630972,1.899436 0.772874,4.047538 0.394648,5.973505 l -0.106623,0.537256 0.740799,0.02633 c 0.616212,0.02136 0.785589,0.0482 1.019125,0.160619 0.154184,0.07421 0.295304,0.160326 0.31434,0.191088 0.05721,0.09262 0.0703,0.04364 0.178586,-0.689567 0.130218,-0.881231 0.147804,-3.186877 0.03037,-4.029418 -0.266669,-1.915518 -0.825353,-3.691378 -1.66573,-5.296404 -0.411015,-0.784996 -1.187436,-1.968093 -1.679613,-2.560272 z m -27.070473,4.943302 -0.253396,0.135699 c -0.389582,0.208012 -0.698232,0.518976 -0.877888,0.88481 l -0.163393,0.333709 -0.01664,3.760786 c -0.01813,4.165352 -0.02015,4.138401 0.357246,4.635906 0.213056,0.280842 0.660649,0.60833 0.945736,0.690954 0.101486,0.02936 1.883273,0.05525 3.958796,0.05816 4.131734,0.0062 4.009499,0.01485 4.511283,-0.346173 0.349911,-0.251763 0.635014,-0.6967 0.726958,-1.135433 0.05787,-0.276153 0.078,-1.200566 0.07893,-3.755247 0.0014,-3.477533 -0.02097,-3.872264 -0.23538,-4.292505 -0.151128,-0.296233 -0.545164,-0.673102 -0.870964,-0.833578 l -0.275544,-0.137084 h -3.943563 z m 27.377874,8.446544 c -2.451714,-0.0015 -2.531982,0.007 -2.856586,0.31017 -0.305125,0.284869 -0.304652,0.276365 -0.304652,2.83582 0,2.5703 0.0051,2.624144 0.31012,2.905059 0.08202,0.0756 0.250783,0.17369 0.375248,0.218784 0.181454,0.06578 0.68075,0.07996 2.521494,0.0692 2.594678,-0.01519 2.600319,-0.01619 2.903672,-0.474944 l 0.156444,-0.236812 0.01789,-2.329034 c 0.01183,-1.516805 -0.0041,-2.402336 -0.04434,-2.540878 -0.08737,-0.298728 -0.276603,-0.519464 -0.556636,-0.646645 -0.220236,-0.100045 -0.428455,-0.109571 -2.522886,-0.110775 z m -23.273687,2.824747 c -1.723549,-8.59e-4 -3.133529,0.01958 -3.133529,0.04567 0,0.02565 0.179662,0.403667 0.398788,0.839109 0.45742,0.908999 0.94336,1.697231 1.55084,2.514581 0.543991,0.73192 2.206831,2.393216 2.952136,2.949367 2.367677,1.766786 5.054489,2.820535 7.956365,3.121065 0.724203,0.075 2.871951,0.02802 3.590471,-0.07895 3.418508,-0.507291 6.290222,-1.919408 8.708252,-4.284194 l 0.825265,-0.807269 -0.913884,-0.0025 c -1.041226,-0.0024 -1.454114,-0.08162 -1.8527,-0.355836 -0.140816,-0.09688 -0.315151,-0.261821 -0.387704,-0.366936 -0.07256,-0.105105 -0.139198,-0.201302 -0.148142,-0.213217 -0.0087,-0.01214 -0.184695,0.08465 -0.390479,0.214635 -3.695371,2.333839 -8.602565,2.337664 -12.358265,0.0081 -1.308642,-0.811647 -2.663237,-2.09431 -3.457568,-3.274777 L 24.47824,38.033243 Z" />
</svg>
