<?xml version="1.0" encoding="UTF-8" standalone="no"?>
<svg
   width="64"
   height="64"
   version="1.1"
   id="svg73"
   sodipodi:docname="abcd.svg"
   inkscape:version="1.4.2 (ebf0e940d0, 2025-05-08)"
   xmlns:inkscape="http://www.inkscape.org/namespaces/inkscape"
   xmlns:sodipodi="http://sodipodi.sourceforge.net/DTD/sodipodi-0.dtd"
   xmlns:xlink="http://www.w3.org/1999/xlink"
   xmlns="http://www.w3.org/2000/svg"
   xmlns:svg="http://www.w3.org/2000/svg"
   xmlns:rdf="http://www.w3.org/1999/02/22-rdf-syntax-ns#"
   xmlns:cc="http://creativecommons.org/ns#"
   xmlns:dc="http://purl.org/dc/elements/1.1/">
  <metadata
     id="metadata77">
    <rdf:RDF>
      <cc:Work
         rdf:about="">
        <dc:format>image/svg+xml</dc:format>
        <dc:type
           rdf:resource="http://purl.org/dc/dcmitype/StillImage" />
      </cc:Work>
    </rdf:RDF>
  </metadata>
  <sodipodi:namedview
     pagecolor="#f5f7fa"
     bordercolor="#666666"
     borderopacity="1"
     objecttolerance="10"
     gridtolerance="10"
     guidetolerance="10"
     inkscape:pageopacity="0"
     inkscape:pageshadow="2"
     inkscape:window-width="1462"
     inkscape:window-height="840"
     id="namedview75"
     showgrid="false"
     inkscape:zoom="6.2890624"
     inkscape:cx="53.585094"
     inkscape:cy="29.654659"
     inkscape:window-x="24"
     inkscape:window-y="21"
     inkscape:window-maximized="0"
     inkscape:current-layer="svg73"
     inkscape:document-rotation="0"
     inkscape:pagecheckerboard="0"
     inkscape:showpageshadow="2"
     inkscape:deskcolor="#d1d1d1" />
  <defs
     id="defs29">
    <linearGradient
       id="linearGradient4"
       inkscape:collect="always">
      <stop
         style="stop-color:#5e81ac;stop-opacity:1;"
         offset="0"
         id="stop4" />
      <stop
         style="stop-color:#81a1c1;stop-opacity:1;"
         offset="0.5"
         id="stop1" />
    </linearGradient>
    <linearGradient
       id="linearGradient2"
       inkscape:collect="always">
      <stop
         style="stop-color:#eceff4;stop-opacity:1;"
         offset="0"
         id="stop2" />
      <stop
         style="stop-color:#d8dee9;stop-opacity:1;"
         offset="1"
         id="stop3" />
    </linearGradient>
    <linearGradient
       inkscape:collect="always"
       xlink:href="#linearGradient2"
       id="linearGradient8"
       x1="31.721739"
       y1="5.2278585"
       x2="31.88887"
       y2="59.145416"
       gradientUnits="userSpaceOnUse"
       gradientTransform="matrix(0.8505,0,0,0.8505,4.7765033,4.7794869)" />
    <filter
       style="color-interpolation-filters:sRGB;"
       inkscape:label="Blur"
       id="filter9"
       x="-0.047762285"
       y="-0.047489063"
       width="1.0955246"
       height="1.0949781">
      <feGaussianBlur
         stdDeviation="1 1"
         result="blur"
         id="feGaussianBlur9" />
    </filter>
    <linearGradient
       inkscape:collect="always"
       xlink:href="#linearGradient4"
       id="linearGradient7"
       x1="26.723248"
       y1="58.711765"
       x2="25.756926"
       y2="5.950614"
       gradientUnits="userSpaceOnUse" />
  </defs>
  <g
     id="g877"
     transform="matrix(1.1,0,0,1.1,-3.1845928,-3.2065454)">
    <ellipse
       style="opacity:0.5;fill:#000000;stroke:none;stroke-width:3.89319;stroke-dasharray:none;stroke-opacity:1;filter:url(#filter9)"
       id="path2-5"
       cx="31.949858"
       cy="31.969812"
       rx="25.124426"
       ry="25.268976"
       transform="matrix(1.05,0,0,1.05,-1.5974929,-1.5984906)" />
    <path
       style="fill:#f5f7fa;stroke-width:0.204426;fill-opacity:1"
       d=""
       id="path3" />
    <circle
       style="opacity:1;fill:url(#linearGradient8);stroke:url(#linearGradient7);stroke-width:3.81818;stroke-dasharray:none;stroke-opacity:1"
       id="path2"
       cx="31.949856"
       cy="31.969812"
       r="24.711082" />
    <ellipse
       style="opacity:0.3;fill:none;stroke:#000000;stroke-width:0.974376;stroke-dasharray:none;stroke-opacity:1"
       id="path2-9"
       cx="31.949856"
       cy="31.969812"
       rx="23.129124"
       ry="23.129126" />
  </g>
  <path
     style="fill:#000000;fill-opacity:1;stroke:none;stroke-width:0.505459;stroke-dasharray:none;stroke-opacity:0.6;opacity:0.2"
     d="m 22.345619,49.02157 c -0.791405,-0.247327 -1.499286,-0.874476 -1.863138,-1.650648 l -0.20546,-0.438272 -0.02022,-12.777444 c -0.02263,-14.309001 -0.06648,-13.198421 0.554436,-14.041862 0.75384,-1.024013 1.979546,-1.462566 3.179718,-1.137699 0.460142,0.124555 1.346664,0.716207 9.517367,6.351703 4.955487,3.417898 9.176837,6.375885 9.380797,6.573302 0.204011,0.197418 0.481982,0.584103 0.617818,0.859295 0.225762,0.45739 0.246975,0.56382 0.246975,1.239634 0,0.699594 -0.01531,0.770965 -0.29179,1.329607 -0.178362,0.360815 -0.409172,0.690819 -0.593722,0.848787 -0.668569,0.572267 -18.193196,12.604048 -18.604707,12.773329 -0.5027,0.206783 -1.378627,0.23887 -1.918121,0.0703 z"
     id="path101-5" />
  <path
     style="fill:#4d4d4d;fill-opacity:1;stroke:none;stroke-width:0.505459;stroke-dasharray:none;stroke-opacity:0.6"
     d="m 22.345619,47.02157 c -0.791405,-0.247327 -1.499286,-0.874476 -1.863138,-1.650648 l -0.20546,-0.438272 -0.02022,-12.777444 c -0.02263,-14.309001 -0.06648,-13.198421 0.554436,-14.041862 0.75384,-1.024013 1.979546,-1.462566 3.179718,-1.137699 0.460142,0.124555 1.346664,0.716207 9.517367,6.351703 4.955487,3.417898 9.176837,6.375885 9.380797,6.573302 0.204011,0.197418 0.481982,0.584103 0.617818,0.859295 0.225762,0.45739 0.246975,0.56382 0.246975,1.239634 0,0.699594 -0.01531,0.770965 -0.29179,1.329607 -0.178362,0.360815 -0.409172,0.690819 -0.593722,0.848787 -0.668569,0.572267 -18.193196,12.604048 -18.604707,12.773329 -0.5027,0.206783 -1.378627,0.23887 -1.918121,0.0703 z"
     id="path101" />
</svg>
