<?xml version="1.0" encoding="UTF-8" standalone="no"?>
<svg
   width="64"
   height="64"
   version="1.1"
   id="svg73"
   sodipodi:docname="abcd.svg"
   inkscape:version="1.4.2 (ebf0e940d0, 2025-05-08)"
   xmlns:inkscape="http://www.inkscape.org/namespaces/inkscape"
   xmlns:sodipodi="http://sodipodi.sourceforge.net/DTD/sodipodi-0.dtd"
   xmlns:xlink="http://www.w3.org/1999/xlink"
   xmlns="http://www.w3.org/2000/svg"
   xmlns:svg="http://www.w3.org/2000/svg"
   xmlns:rdf="http://www.w3.org/1999/02/22-rdf-syntax-ns#"
   xmlns:cc="http://creativecommons.org/ns#"
   xmlns:dc="http://purl.org/dc/elements/1.1/">
  <metadata
     id="metadata77">
    <rdf:RDF>
      <cc:Work
         rdf:about="">
        <dc:format>image/svg+xml</dc:format>
        <dc:type
           rdf:resource="http://purl.org/dc/dcmitype/StillImage" />
      </cc:Work>
    </rdf:RDF>
  </metadata>
  <sodipodi:namedview
     pagecolor="#f5f7fa"
     bordercolor="#666666"
     borderopacity="1"
     objecttolerance="10"
     gridtolerance="10"
     guidetolerance="10"
     inkscape:pageopacity="0"
     inkscape:pageshadow="2"
     inkscape:window-width="1345"
     inkscape:window-height="785"
     id="namedview75"
     showgrid="false"
     inkscape:zoom="6.2890624"
     inkscape:cx="31.880746"
     inkscape:cy="29.734162"
     inkscape:window-x="24"
     inkscape:window-y="21"
     inkscape:window-maximized="0"
     inkscape:current-layer="svg73"
     inkscape:document-rotation="0"
     inkscape:pagecheckerboard="0"
     inkscape:showpageshadow="2"
     inkscape:deskcolor="#d1d1d1" />
  <defs
     id="defs29">
    <linearGradient
       id="linearGradient4"
       inkscape:collect="always">
      <stop
         style="stop-color:#5e81ac;stop-opacity:1;"
         offset="0"
         id="stop4" />
      <stop
         style="stop-color:#81a1c1;stop-opacity:1;"
         offset="0.5"
         id="stop1" />
    </linearGradient>
    <linearGradient
       id="linearGradient2"
       inkscape:collect="always">
      <stop
         style="stop-color:#eceff4;stop-opacity:1;"
         offset="0"
         id="stop2" />
      <stop
         style="stop-color:#d8dee9;stop-opacity:1;"
         offset="1"
         id="stop3" />
    </linearGradient>
    <linearGradient
       inkscape:collect="always"
       xlink:href="#linearGradient2"
       id="linearGradient8"
       x1="31.721739"
       y1="5.2278585"
       x2="31.88887"
       y2="59.145416"
       gradientUnits="userSpaceOnUse"
       gradientTransform="matrix(0.8505,0,0,0.8505,4.7765033,4.7794869)" />
    <filter
       style="color-interpolation-filters:sRGB;"
       inkscape:label="Blur"
       id="filter9"
       x="-0.047762285"
       y="-0.047489063"
       width="1.0955246"
       height="1.0949781">
      <feGaussianBlur
         stdDeviation="1 1"
         result="blur"
         id="feGaussianBlur9" />
    </filter>
    <linearGradient
       inkscape:collect="always"
       xlink:href="#linearGradient4"
       id="linearGradient7"
       x1="26.723248"
       y1="58.711765"
       x2="25.756926"
       y2="5.950614"
       gradientUnits="userSpaceOnUse" />
    <filter
       style="color-interpolation-filters:sRGB;"
       inkscape:label="Out of Focus"
       id="filter40"
       x="-0.24226652"
       y="-0.2858297"
       width="1.484533"
       height="1.5716594">
      <feFlood
         flood-opacity="1"
         flood-color="rgb(255,255,255)"
         result="flood"
         id="feFlood38" />
      <feColorMatrix
         in="SourceGraphic"
         values="1 0 0 0 0 0 1 0 0 0 0 0 1 0 0 -0.2125 -0.7154 -0.0721 1 0 "
         result="colormatrix1"
         id="feColorMatrix38" />
      <feGaussianBlur
         in="colormatrix1"
         stdDeviation="3 3"
         result="blur"
         id="feGaussianBlur38" />
      <feColorMatrix
         in="blur"
         values="1 0 0 0 0 0 1 0 0 0 0 0 1 0 0 0 0 0 6 -2 "
         result="colormatrix2"
         id="feColorMatrix39" />
      <feBlend
         in="colormatrix2"
         in2="flood"
         mode="normal"
         result="blend"
         id="feBlend39" />
      <feComposite
         in="blend"
         in2="blend"
         operator="arithmetic"
         k2="0.2"
         result="composite1"
         id="feComposite39" />
      <feComposite
         in2="SourceGraphic"
         operator="in"
         id="feComposite40" />
    </filter>
  </defs>
  <g
     id="g877"
     transform="matrix(1.1,0,0,1.1,-3.1845928,-3.2065454)">
    <ellipse
       style="opacity:0.5;fill:#000000;stroke:none;stroke-width:3.89319;stroke-dasharray:none;stroke-opacity:1;filter:url(#filter9)"
       id="path2-5"
       cx="31.949858"
       cy="31.969812"
       rx="25.124426"
       ry="25.268976"
       transform="matrix(1.05,0,0,1.05,-1.5974929,-1.5984906)" />
    <path
       style="fill:#f5f7fa;stroke-width:0.204426;fill-opacity:1"
       d=""
       id="path3" />
    <circle
       style="opacity:1;fill:url(#linearGradient8);stroke:url(#linearGradient7);stroke-width:3.81818;stroke-dasharray:none;stroke-opacity:1"
       id="path2"
       cx="31.949856"
       cy="31.969812"
       r="24.711082" />
    <ellipse
       style="opacity:0.3;fill:none;stroke:#000000;stroke-width:0.974376;stroke-dasharray:none;stroke-opacity:1"
       id="path2-9"
       cx="31.949856"
       cy="31.969812"
       rx="23.129124"
       ry="23.129126" />
  </g>
  <path
     id="path11-6"
     style="fill:#000000;fill-opacity:1;stroke:none;stroke-width:0.525425;stroke-dasharray:none;stroke-opacity:0.6;opacity:0.2"
     d="m 32.118305,18.224703 c -0.427612,-0.01304 -0.856674,0.03836 -1.196555,0.155981 -0.448447,0.155196 -11.274064,6.378613 -11.820467,6.795379 -0.167658,0.127878 -0.468489,0.477991 -0.668631,0.777706 -0.653739,0.97898 -0.657236,1.022963 -0.65663,7.982115 3.1e-4,3.547285 0.03842,6.380022 0.09053,6.698299 0.119493,0.729725 0.460399,1.406402 0.970768,1.924083 0.30917,0.313661 1.830457,1.24162 5.91187,3.604935 3.022582,1.750198 5.725214,3.277122 6.005677,3.393321 0.709562,0.293977 1.79172,0.29431 2.504363,0.0013 0.280611,-0.115471 2.982607,-1.641756 6.005687,-3.392236 3.907632,-2.262678 5.614528,-3.301048 5.904228,-3.590749 0.487377,-0.487379 0.846951,-1.186258 0.979492,-1.905545 0.06346,-0.344403 0.0873,-2.785345 0.06981,-7.046247 L 46.19223,27.103629 45.975176,26.56589 c -0.445511,-1.104125 -0.619644,-1.228152 -6.643714,-4.7164 -3.00861,-1.742137 -5.719415,-3.270852 -6.024219,-3.396597 -0.33488,-0.138157 -0.761305,-0.214958 -1.188919,-0.227968 z m 0.746075,4.198302 c 0.03826,0.0015 2.072415,1.162478 4.520076,2.579628 l 4.450254,2.576349 0.02441,5.20943 c 0.01566,3.446187 -0.0078,5.208338 -0.06981,5.208338 -0.05133,0 -0.843552,-0.42493 -1.761571,-0.944594 l -1.670357,-0.944588 v -2.16078 c 0,-1.188615 -0.02291,-2.161868 -0.05242,-2.161868 -0.09743,0 -4.721403,2.725752 -4.790575,2.823954 -0.08994,0.127688 -0.09098,5.034075 -9.9e-4,5.089451 0.03826,0.02321 0.939711,-0.474647 2.003711,-1.107117 1.063992,-0.632472 1.981843,-1.150026 2.039696,-1.149652 0.102399,6.75e-4 3.278526,1.799289 3.42278,1.938265 0.03975,0.03827 -1.128412,0.759895 -2.59599,1.60449 -1.467562,0.8446 -3.440335,1.982728 -4.383712,2.528363 -0.943375,0.545642 -1.777786,1.022881 -1.854276,1.061302 -0.09438,0.04737 -1.539389,-0.745975 -4.496073,-2.468367 -2.39666,-1.396174 -4.414099,-2.571989 -4.482959,-2.613441 -0.08593,-0.05173 0.404924,-0.385542 1.564139,-1.06348 0.928969,-0.543293 1.732478,-0.988223 1.786649,-0.988223 0.05414,0 0.944245,0.500645 1.97753,1.112566 1.033313,0.611918 1.922553,1.11257 1.976466,1.11257 0.06652,0 0.09816,-0.816852 0.09816,-2.542545 V 34.579424 L 30.31421,34.403812 c -0.527298,-0.363553 -4.445059,-2.618893 -4.549519,-2.618893 -0.08034,0 -0.109472,0.567631 -0.111258,2.156413 l -0.0023,2.155326 -1.226003,0.691537 c -0.674328,0.380718 -1.445858,0.811884 -1.713573,0.95768 l -0.486476,0.265052 0.0023,-5.222519 0.0011,-5.221425 4.418634,-2.550174 c 2.430275,-1.402318 4.453068,-2.563718 4.494984,-2.580717 0.04191,-0.01701 0.07637,0.883985 0.07637,2.001529 v 2.03207 l -1.733208,1.019855 c -0.953266,0.560908 -1.746579,1.058893 -1.762651,1.10711 -0.03399,0.102058 4.148459,2.539269 4.357549,2.539269 0.214115,1e-6 4.280762,-2.379447 4.306286,-2.519635 0.01331,-0.07278 -0.711624,-0.536966 -1.783381,-1.142016 L 32.795667,26.45442 v -2.016798 c -3.13e-4,-1.109103 0.03048,-2.015901 0.06874,-2.014617 z" />
  <path
     id="path11"
     style="fill:#4d4d4d;fill-opacity:1;stroke:none;stroke-width:0.525425;stroke-dasharray:none;stroke-opacity:0.6"
     d="m 32.118305,16.224703 c -0.427612,-0.01304 -0.856674,0.03836 -1.196555,0.155981 -0.448447,0.155196 -11.274064,6.378613 -11.820467,6.795379 -0.167658,0.127878 -0.468489,0.477991 -0.668631,0.777706 -0.653739,0.97898 -0.657236,1.022963 -0.65663,7.982115 3.1e-4,3.547285 0.03842,6.380022 0.09053,6.698299 0.119493,0.729725 0.460399,1.406402 0.970768,1.924083 0.30917,0.313661 1.830457,1.24162 5.91187,3.604935 3.022582,1.750198 5.725214,3.277122 6.005677,3.393321 0.709562,0.293977 1.79172,0.29431 2.504363,0.0013 0.280611,-0.115471 2.982607,-1.641756 6.005687,-3.392236 3.907632,-2.262678 5.614528,-3.301048 5.904228,-3.590749 0.487377,-0.487379 0.846951,-1.186258 0.979492,-1.905545 0.06346,-0.344403 0.0873,-2.785345 0.06981,-7.046247 L 46.19223,25.103629 45.975176,24.56589 c -0.445511,-1.104125 -0.619644,-1.228152 -6.643714,-4.7164 -3.00861,-1.742137 -5.719415,-3.270852 -6.024219,-3.396597 -0.33488,-0.138157 -0.761305,-0.214958 -1.188919,-0.227968 z m 0.746075,4.198302 c 0.03826,0.0015 2.072415,1.162478 4.520076,2.579628 l 4.450254,2.576349 0.02441,5.20943 c 0.01566,3.446187 -0.0078,5.208338 -0.06981,5.208338 -0.05133,0 -0.843552,-0.42493 -1.761571,-0.944594 l -1.670357,-0.944588 v -2.16078 c 0,-1.188615 -0.02291,-2.161868 -0.05242,-2.161868 -0.09743,0 -4.721403,2.725752 -4.790575,2.823954 -0.08994,0.127688 -0.09098,5.034075 -9.9e-4,5.089451 0.03826,0.02321 0.939711,-0.474647 2.003711,-1.107117 1.063992,-0.632472 1.981843,-1.150026 2.039696,-1.149652 0.102399,6.75e-4 3.278526,1.799289 3.42278,1.938265 0.03975,0.03827 -1.128412,0.759895 -2.59599,1.60449 -1.467562,0.8446 -3.440335,1.982728 -4.383712,2.528363 -0.943375,0.545642 -1.777786,1.022881 -1.854276,1.061302 -0.09438,0.04737 -1.539389,-0.745975 -4.496073,-2.468367 -2.39666,-1.396174 -4.414099,-2.571989 -4.482959,-2.613441 -0.08593,-0.05173 0.404924,-0.385542 1.564139,-1.06348 0.928969,-0.543293 1.732478,-0.988223 1.786649,-0.988223 0.05414,0 0.944245,0.500645 1.97753,1.112566 1.033313,0.611918 1.922553,1.11257 1.976466,1.11257 0.06652,0 0.09816,-0.816852 0.09816,-2.542545 V 32.579424 L 30.31421,32.403812 c -0.527298,-0.363553 -4.445059,-2.618893 -4.549519,-2.618893 -0.08034,0 -0.109472,0.567631 -0.111258,2.156413 l -0.0023,2.155326 -1.226003,0.691537 c -0.674328,0.380718 -1.445858,0.811884 -1.713573,0.95768 l -0.486476,0.265052 0.0023,-5.222519 0.0011,-5.221425 4.418634,-2.550174 c 2.430275,-1.402318 4.453068,-2.563718 4.494984,-2.580717 0.04191,-0.01701 0.07637,0.883985 0.07637,2.001529 v 2.03207 l -1.733208,1.019855 c -0.953266,0.560908 -1.746579,1.058893 -1.762651,1.10711 -0.03399,0.102058 4.148459,2.539269 4.357549,2.539269 0.214115,1e-6 4.280762,-2.379447 4.306286,-2.519635 0.01331,-0.07278 -0.711624,-0.536966 -1.783381,-1.142016 L 32.795667,24.45442 v -2.016798 c -3.13e-4,-1.109103 0.03048,-2.015901 0.06874,-2.014617 z" />
</svg>
