<?xml version="1.0" encoding="UTF-8" standalone="no"?>
<svg
   width="64"
   height="64"
   version="1.1"
   id="svg73"
   sodipodi:docname="abcd.svg"
   inkscape:version="1.4.2 (ebf0e940d0, 2025-05-08)"
   xmlns:inkscape="http://www.inkscape.org/namespaces/inkscape"
   xmlns:sodipodi="http://sodipodi.sourceforge.net/DTD/sodipodi-0.dtd"
   xmlns:xlink="http://www.w3.org/1999/xlink"
   xmlns="http://www.w3.org/2000/svg"
   xmlns:svg="http://www.w3.org/2000/svg"
   xmlns:rdf="http://www.w3.org/1999/02/22-rdf-syntax-ns#"
   xmlns:cc="http://creativecommons.org/ns#"
   xmlns:dc="http://purl.org/dc/elements/1.1/">
  <metadata
     id="metadata77">
    <rdf:RDF>
      <cc:Work
         rdf:about="">
        <dc:format>image/svg+xml</dc:format>
        <dc:type
           rdf:resource="http://purl.org/dc/dcmitype/StillImage" />
      </cc:Work>
    </rdf:RDF>
  </metadata>
  <sodipodi:namedview
     pagecolor="#f5f7fa"
     bordercolor="#666666"
     borderopacity="1"
     objecttolerance="10"
     gridtolerance="10"
     guidetolerance="10"
     inkscape:pageopacity="0"
     inkscape:pageshadow="2"
     inkscape:window-width="1261"
     inkscape:window-height="714"
     id="namedview75"
     showgrid="false"
     inkscape:zoom="6.2890624"
     inkscape:cx="32.516771"
     inkscape:cy="29.654659"
     inkscape:window-x="24"
     inkscape:window-y="21"
     inkscape:window-maximized="0"
     inkscape:current-layer="svg73"
     inkscape:document-rotation="0"
     inkscape:pagecheckerboard="0"
     inkscape:showpageshadow="2"
     inkscape:deskcolor="#d1d1d1" />
  <defs
     id="defs29">
    <linearGradient
       id="linearGradient4"
       inkscape:collect="always">
      <stop
         style="stop-color:#5e81ac;stop-opacity:1;"
         offset="0"
         id="stop4" />
      <stop
         style="stop-color:#81a1c1;stop-opacity:1;"
         offset="0.5"
         id="stop1" />
    </linearGradient>
    <linearGradient
       id="linearGradient2"
       inkscape:collect="always">
      <stop
         style="stop-color:#eceff4;stop-opacity:1;"
         offset="0"
         id="stop2" />
      <stop
         style="stop-color:#d8dee9;stop-opacity:1;"
         offset="1"
         id="stop3" />
    </linearGradient>
    <linearGradient
       inkscape:collect="always"
       xlink:href="#linearGradient2"
       id="linearGradient8"
       x1="31.721739"
       y1="5.2278585"
       x2="31.88887"
       y2="59.145416"
       gradientUnits="userSpaceOnUse"
       gradientTransform="matrix(0.8505,0,0,0.8505,4.7765033,4.7794869)" />
    <filter
       style="color-interpolation-filters:sRGB;"
       inkscape:label="Blur"
       id="filter9"
       x="-0.047762285"
       y="-0.047489063"
       width="1.0955246"
       height="1.0949781">
      <feGaussianBlur
         stdDeviation="1 1"
         result="blur"
         id="feGaussianBlur9" />
    </filter>
    <linearGradient
       inkscape:collect="always"
       xlink:href="#linearGradient4"
       id="linearGradient7"
       x1="26.723248"
       y1="58.711765"
       x2="25.756926"
       y2="5.950614"
       gradientUnits="userSpaceOnUse" />
    <filter
       style="color-interpolation-filters:sRGB;"
       inkscape:label="Out of Focus"
       id="filter40"
       x="-0.24226652"
       y="-0.2858297"
       width="1.484533"
       height="1.5716594">
      <feFlood
         flood-opacity="1"
         flood-color="rgb(255,255,255)"
         result="flood"
         id="feFlood38" />
      <feColorMatrix
         in="SourceGraphic"
         values="1 0 0 0 0 0 1 0 0 0 0 0 1 0 0 -0.2125 -0.7154 -0.0721 1 0 "
         result="colormatrix1"
         id="feColorMatrix38" />
      <feGaussianBlur
         in="colormatrix1"
         stdDeviation="3 3"
         result="blur"
         id="feGaussianBlur38" />
      <feColorMatrix
         in="blur"
         values="1 0 0 0 0 0 1 0 0 0 0 0 1 0 0 0 0 0 6 -2 "
         result="colormatrix2"
         id="feColorMatrix39" />
      <feBlend
         in="colormatrix2"
         in2="flood"
         mode="normal"
         result="blend"
         id="feBlend39" />
      <feComposite
         in="blend"
         in2="blend"
         operator="arithmetic"
         k2="0.2"
         result="composite1"
         id="feComposite39" />
      <feComposite
         in2="SourceGraphic"
         operator="in"
         id="feComposite40" />
    </filter>
  </defs>
  <g
     id="g877"
     transform="matrix(1.1,0,0,1.1,-3.1845928,-3.2065454)">
    <ellipse
       style="opacity:0.5;fill:#000000;stroke:none;stroke-width:3.89319;stroke-dasharray:none;stroke-opacity:1;filter:url(#filter9)"
       id="path2-5"
       cx="31.949858"
       cy="31.969812"
       rx="25.124426"
       ry="25.268976"
       transform="matrix(1.05,0,0,1.05,-1.5974929,-1.5984906)" />
    <path
       style="fill:#f5f7fa;stroke-width:0.204426;fill-opacity:1"
       d=""
       id="path3" />
    <circle
       style="opacity:1;fill:url(#linearGradient8);stroke:url(#linearGradient7);stroke-width:3.81818;stroke-dasharray:none;stroke-opacity:1"
       id="path2"
       cx="31.949856"
       cy="31.969812"
       r="24.711082" />
    <ellipse
       style="opacity:0.3;fill:none;stroke:#000000;stroke-width:0.974376;stroke-dasharray:none;stroke-opacity:1"
       id="path2-9"
       cx="31.949856"
       cy="31.969812"
       rx="23.129124"
       ry="23.129126" />
  </g>
  <path
     d="M 17.271553,24.363796 29.57826,48.219824 c 0,0 0.667143,1.278705 2.343963,1.278705 1.672334,0 2.339479,-1.278705 2.339479,-1.278705 0,0 8.552866,-14.373259 12.044331,-22.040532 0.351397,-0.771133 0.729409,-1.552015 0.889552,-2.391513 a 3.7137324,4.0751471 0 0 0 0.03052,-1.756963 3.4336126,3.7677658 0 0 0 -0.920662,-1.893659 3.6606067,4.0168523 0 0 0 -2.063731,-0.98587 4.2832968,4.7001409 0 0 0 -2.379521,0.527078 3.1133773,3.4163661 0 0 0 -1.232015,1.308008 3.7805908,4.1485123 0 0 0 -0.386932,1.815572 4.5098931,4.9487895 0 0 0 0.253493,1.698426 c 0.115617,0.346609 0.266811,0.683253 0.386934,1.024935 0.09343,0.293062 0.231313,0.570981 0.25792,0.878483 a 2.8465207,3.1235393 0 0 1 -0.124625,1.469009 c -0.799822,2.235345 -2.183077,4.37773 -4.01114,5.690774 -0.756127,0.541712 -1.725718,0.678369 -2.624157,0.722312 -1.031865,0.04878 -2.223866,-0.03967 -3.055591,-0.541755 -0.836162,-0.497812 -1.227558,-1.366538 -1.752381,-2.127915 -2.401753,-3.499366 -6.329181,-11.161841 -6.329181,-11.161841 0,0 -1.707933,-3.313894 -4.781304,-1.307966 -3.068925,2.010765 -1.196446,5.222025 -1.196446,5.222025 z"
     fill="url(#linearGradient984)"
     fill-rule="evenodd"
     id="path20-7-6"
     style="fill:#000000;fill-opacity:1;stroke:none;stroke-width:0.49228;stroke-dasharray:none;stroke-opacity:0.6;opacity:0.2" />
  <path
     d="M 17.271553,22.363796 29.57826,46.219824 c 0,0 0.667143,1.278705 2.343963,1.278705 1.672334,0 2.339479,-1.278705 2.339479,-1.278705 0,0 8.552866,-14.373259 12.044331,-22.040532 0.351397,-0.771133 0.729409,-1.552015 0.889552,-2.391513 a 3.7137324,4.0751471 0 0 0 0.03052,-1.756963 3.4336126,3.7677658 0 0 0 -0.920662,-1.893659 3.6606067,4.0168523 0 0 0 -2.063731,-0.98587 4.2832968,4.7001409 0 0 0 -2.379521,0.527078 3.1133773,3.4163661 0 0 0 -1.232015,1.308008 3.7805908,4.1485123 0 0 0 -0.386932,1.815572 4.5098931,4.9487895 0 0 0 0.253493,1.698426 c 0.115617,0.346609 0.266811,0.683253 0.386934,1.024935 0.09343,0.293062 0.231313,0.570981 0.25792,0.878483 a 2.8465207,3.1235393 0 0 1 -0.124625,1.469009 c -0.799822,2.235345 -2.183077,4.37773 -4.01114,5.690774 -0.756127,0.541712 -1.725718,0.678369 -2.624157,0.722312 -1.031865,0.04878 -2.223866,-0.03967 -3.055591,-0.541755 -0.836162,-0.497812 -1.227558,-1.366538 -1.752381,-2.127915 -2.401753,-3.499366 -6.329181,-11.161841 -6.329181,-11.161841 0,0 -1.707933,-3.313894 -4.781304,-1.307966 -3.068925,2.010765 -1.196446,5.222025 -1.196446,5.222025 z"
     fill="url(#linearGradient984)"
     fill-rule="evenodd"
     id="path20-7"
     style="fill:#4d4d4d;fill-opacity:1;stroke:none;stroke-width:0.49228;stroke-dasharray:none;stroke-opacity:0.6" />
</svg>
