<?xml version="1.0" encoding="UTF-8" standalone="no"?>
<svg
   width="64"
   height="64"
   version="1.1"
   id="svg73"
   sodipodi:docname="abcd.svg"
   inkscape:version="1.4.2 (ebf0e940d0, 2025-05-08)"
   xmlns:inkscape="http://www.inkscape.org/namespaces/inkscape"
   xmlns:sodipodi="http://sodipodi.sourceforge.net/DTD/sodipodi-0.dtd"
   xmlns:xlink="http://www.w3.org/1999/xlink"
   xmlns="http://www.w3.org/2000/svg"
   xmlns:svg="http://www.w3.org/2000/svg"
   xmlns:rdf="http://www.w3.org/1999/02/22-rdf-syntax-ns#"
   xmlns:cc="http://creativecommons.org/ns#"
   xmlns:dc="http://purl.org/dc/elements/1.1/">
  <metadata
     id="metadata77">
    <rdf:RDF>
      <cc:Work
         rdf:about="">
        <dc:format>image/svg+xml</dc:format>
        <dc:type
           rdf:resource="http://purl.org/dc/dcmitype/StillImage" />
      </cc:Work>
    </rdf:RDF>
  </metadata>
  <sodipodi:namedview
     pagecolor="#f5f7fa"
     bordercolor="#666666"
     borderopacity="1"
     objecttolerance="10"
     gridtolerance="10"
     guidetolerance="10"
     inkscape:pageopacity="0"
     inkscape:pageshadow="2"
     inkscape:window-width="1263"
     inkscape:window-height="693"
     id="namedview75"
     showgrid="false"
     inkscape:zoom="4.4470387"
     inkscape:cx="36.091433"
     inkscape:cy="29.682674"
     inkscape:window-x="24"
     inkscape:window-y="21"
     inkscape:window-maximized="0"
     inkscape:current-layer="svg73"
     inkscape:document-rotation="0"
     inkscape:pagecheckerboard="0"
     inkscape:showpageshadow="2"
     inkscape:deskcolor="#d1d1d1" />
  <defs
     id="defs29">
    <linearGradient
       id="linearGradient4"
       inkscape:collect="always">
      <stop
         style="stop-color:#5e81ac;stop-opacity:1;"
         offset="0"
         id="stop4" />
      <stop
         style="stop-color:#81a1c1;stop-opacity:1;"
         offset="0.5"
         id="stop1" />
    </linearGradient>
    <linearGradient
       id="linearGradient2"
       inkscape:collect="always">
      <stop
         style="stop-color:#eceff4;stop-opacity:1;"
         offset="0"
         id="stop2" />
      <stop
         style="stop-color:#d8dee9;stop-opacity:1;"
         offset="1"
         id="stop3" />
    </linearGradient>
    <linearGradient
       inkscape:collect="always"
       xlink:href="#linearGradient2"
       id="linearGradient8"
       x1="31.721739"
       y1="5.2278585"
       x2="31.88887"
       y2="59.145416"
       gradientUnits="userSpaceOnUse"
       gradientTransform="matrix(0.8505,0,0,0.8505,4.7765033,4.7794869)" />
    <filter
       style="color-interpolation-filters:sRGB;"
       inkscape:label="Blur"
       id="filter9"
       x="-0.047762285"
       y="-0.047489063"
       width="1.0955246"
       height="1.0949781">
      <feGaussianBlur
         stdDeviation="1 1"
         result="blur"
         id="feGaussianBlur9" />
    </filter>
    <linearGradient
       inkscape:collect="always"
       xlink:href="#linearGradient4"
       id="linearGradient7"
       x1="26.723248"
       y1="58.711765"
       x2="25.756926"
       y2="5.950614"
       gradientUnits="userSpaceOnUse" />
    <filter
       style="color-interpolation-filters:sRGB;"
       inkscape:label="Out of Focus"
       id="filter40"
       x="-0.24226652"
       y="-0.2858297"
       width="1.484533"
       height="1.5716594">
      <feFlood
         flood-opacity="1"
         flood-color="rgb(255,255,255)"
         result="flood"
         id="feFlood38" />
      <feColorMatrix
         in="SourceGraphic"
         values="1 0 0 0 0 0 1 0 0 0 0 0 1 0 0 -0.2125 -0.7154 -0.0721 1 0 "
         result="colormatrix1"
         id="feColorMatrix38" />
      <feGaussianBlur
         in="colormatrix1"
         stdDeviation="3 3"
         result="blur"
         id="feGaussianBlur38" />
      <feColorMatrix
         in="blur"
         values="1 0 0 0 0 0 1 0 0 0 0 0 1 0 0 0 0 0 6 -2 "
         result="colormatrix2"
         id="feColorMatrix39" />
      <feBlend
         in="colormatrix2"
         in2="flood"
         mode="normal"
         result="blend"
         id="feBlend39" />
      <feComposite
         in="blend"
         in2="blend"
         operator="arithmetic"
         k2="0.2"
         result="composite1"
         id="feComposite39" />
      <feComposite
         in2="SourceGraphic"
         operator="in"
         id="feComposite40" />
    </filter>
  </defs>
  <g
     id="g877"
     transform="matrix(1.1,0,0,1.1,-3.1845928,-3.2065454)">
    <ellipse
       style="opacity:0.5;fill:#000000;stroke:none;stroke-width:3.89319;stroke-dasharray:none;stroke-opacity:1;filter:url(#filter9)"
       id="path2-5"
       cx="31.949858"
       cy="31.969812"
       rx="25.124426"
       ry="25.268976"
       transform="matrix(1.05,0,0,1.05,-1.5974929,-1.5984906)" />
    <path
       style="fill:#f5f7fa;stroke-width:0.204426;fill-opacity:1"
       d=""
       id="path3" />
    <circle
       style="opacity:1;fill:url(#linearGradient8);stroke:url(#linearGradient7);stroke-width:3.81818;stroke-dasharray:none;stroke-opacity:1"
       id="path2"
       cx="31.949856"
       cy="31.969812"
       r="24.711082" />
    <ellipse
       style="opacity:0.3;fill:none;stroke:#000000;stroke-width:0.974376;stroke-dasharray:none;stroke-opacity:1"
       id="path2-9"
       cx="31.949856"
       cy="31.969812"
       rx="23.129124"
       ry="23.129126" />
  </g>
  <path
     id="path51-7"
     style="fill:#000000;fill-opacity:1;stroke:none;stroke-width:0.491164;stroke-dasharray:none;stroke-opacity:0.6;opacity:0.2"
     d="m 32.394313,21.07317 c -2.221699,0 -2.66541,0.05044 -4.900126,0.548721 -2.077709,0.463291 -2.770628,0.698918 -4.487625,1.523375 l -2.029889,0.974654 -1.839944,2.150758 c -1.011982,1.182821 -1.908686,2.306321 -1.991515,2.498029 -0.08282,0.191709 -0.281961,1.40319 -0.4432,2.691808 l -0.293545,2.342621 0.878724,2.361807 0.876803,2.361807 2.302329,1.859132 2.300413,1.861048 2.618901,0.888317 c 2.588008,0.876907 2.651157,0.889592 5.201346,1.04372 2.089572,0.126303 2.848423,0.111284 3.983032,-0.07292 2.23706,-0.363113 2.215571,-0.366714 4.91931,1.097449 1.345911,0.72884 2.687268,1.425343 2.979602,1.548315 0.274071,0.115299 0.5236,0.189588 0.579416,0.172679 8.24e-4,-3.3e-4 0.0051,-0.0015 0.0054,-0.002 l 0.002,-0.002 v -0.002 c 0.03104,-0.03104 -0.301378,-1.046224 -0.740577,-2.256285 -0.439241,-1.210061 -0.800067,-2.303477 -0.800067,-2.428958 0,-0.125495 0.580566,-0.682942 1.289306,-1.23942 0.832237,-0.65344 1.778031,-1.61919 2.668784,-2.728264 l 1.377728,-1.717166 0.370315,-1.99727 0.370278,-1.997271 -0.458397,-1.920521 -0.458544,-1.920526 -1.511869,-1.79006 C 43.802543,25.312836 43.457306,25.006151 41.724571,23.880006 39.958853,22.732422 39.59054,22.562486 37.31753,21.850115 l -2.480763,-0.777033 z m 4.992218,4.994136 c 0.336143,-0.01001 0.970358,0.146761 1.571341,0.416339 0.622012,0.279014 1.295229,0.437706 2.089361,0.491163 0.975426,0.06566 1.305417,0.163634 1.966569,0.585176 0.683733,0.435937 0.839165,0.632347 1.122391,1.42169 0.183954,0.512655 0.366308,1.502276 0.414424,2.244771 0.07996,1.232844 0.05604,1.385845 -0.341504,2.139248 -0.299622,0.567821 -0.70092,1.007597 -1.339189,1.463898 -0.832206,0.594958 -0.978996,0.645187 -1.663431,0.57942 l -0.750174,-0.07292 0.07483,0.95163 c 0.04091,0.523412 0.251797,1.50063 0.468137,2.171865 0.209538,0.650259 0.352421,1.215776 0.326153,1.28547 v 0.002 l -0.002,0.002 -0.002,0.002 -0.002,0.002 c -0.06977,0.03241 -0.639333,-0.01114 -1.291218,-0.101706 -0.672905,-0.0936 -1.473583,-0.127145 -1.780466,-0.07292 -0.306915,0.05425 -0.682341,0.136192 -0.832679,0.180341 -0.346919,0.101904 -0.346322,0.107371 0.115131,-1.118548 0.319808,-0.849726 0.40402,-1.429104 0.489228,-3.323031 0.12404,-2.757273 -0.160597,-6.719446 -0.581339,-8.073505 -0.160157,-0.515447 -0.292468,-0.990802 -0.293547,-1.055234 -0.0014,-0.07842 0.08895,-0.116353 0.241747,-0.120873 z m -12.73764,0.04221 c 0.03368,-9.9e-4 0.07224,0.0055 0.115114,0.01725 0.150337,0.04139 0.836111,0.192013 1.523376,0.335757 0.979654,0.20491 1.509316,0.430921 2.451982,1.043737 l 1.202968,0.780879 0.575581,1.728663 c 0.5291,1.587871 0.567372,1.825413 0.477736,2.914369 -0.132378,1.608079 -0.732576,3.180033 -1.555993,4.069368 -0.361093,0.390002 -0.789367,1.008617 -0.95163,1.373724 -0.152121,0.342288 -0.318727,0.625845 -0.38372,0.66 h -0.002 c -0.0025,5.94e-4 -0.0064,0.0018 -0.0077,0.002 l -0.002,0.002 c -0.05452,0 -0.50122,-0.660476 -0.993841,-1.467734 -1.032072,-1.691296 -1.377381,-1.899056 -2.214051,-1.325759 -0.453247,0.310571 -0.544864,0.510009 -0.871047,1.891748 -0.197387,0.836142 -0.4067,1.552403 -0.47006,1.609713 l -0.002,0.002 h -0.002 l -0.002,0.002 h -0.002 -0.002 -0.002 c -0.08187,-0.0056 -0.415274,-0.418019 -0.761688,-0.949715 -0.418074,-0.641684 -0.882819,-1.13902 -1.266282,-1.354539 -0.333361,-0.187358 -0.606281,-0.401009 -0.606281,-0.475813 0,-0.0748 0.284391,-0.554094 0.631223,-1.064827 0.314316,-0.462852 0.546871,-0.850596 0.554478,-0.919015 v -0.002 -0.002 -0.002 -0.002 h -0.002 v -0.002 h -0.002 -0.002 c -0.04465,0 -0.547259,0.284647 -1.116628,0.63314 -0.542685,0.332159 -1.006767,0.586721 -1.066749,0.587095 h -0.002 -0.002 l -0.002,-0.002 c -0.02044,-0.02634 -0.140654,-0.586703 -0.268605,-1.245175 -0.213598,-1.099222 -0.209229,-1.328505 0.05371,-2.801169 0.241207,-1.350881 0.415486,-1.835671 1.101281,-3.073611 l 0.813491,-1.469654 1.229827,-0.617792 c 0.676684,-0.34023 1.299872,-0.596368 1.385236,-0.567909 l 0.002,0.002 h 0.002 l 0.002,0.002 h 0.002 l 0.002,0.002 0.002,0.002 v 0.002 c 0.04268,0.07152 -0.188855,0.47066 -0.542967,0.926687 -0.922057,1.187428 -1.288802,2.290457 -1.145408,3.438146 0.08765,0.701456 0.189172,0.931723 0.506513,1.139653 0.486136,0.318529 0.645394,0.183511 0.796221,-0.669593 0.07879,-0.445657 0.348832,-0.914798 0.876805,-1.525295 l 0.761686,-0.880641 0.748259,0.736746 c 0.47383,0.466706 0.781423,0.92275 0.842269,1.247093 0.131495,0.70094 0.479303,0.978659 0.702209,0.562157 0.604914,-1.130293 -0.418985,-3.093898 -2.194888,-4.211347 -0.591397,-0.372125 -1.074419,-0.781787 -1.074419,-0.909421 0,-0.109164 0.05633,-0.169318 0.157323,-0.172677 z m 9.399262,3.179131 c 0.184573,-0.0055 0.392892,0.04632 0.748257,0.140057 1.250689,0.329925 2.061651,1.193819 2.473086,2.632332 0.48949,1.711417 0.562088,2.986431 0.257095,4.522159 -0.324398,1.633368 -0.74986,2.418339 -1.557911,2.875994 -0.34188,0.19364 -0.762546,0.343384 -0.934361,0.331926 -0.994408,-0.06632 -1.298281,-0.199416 -1.98768,-0.872972 -0.585323,-0.571875 -0.839293,-0.99712 -1.227909,-2.058669 -0.472821,-1.291552 -0.486563,-1.401554 -0.402907,-3.161864 0.07668,-1.61392 0.141061,-1.928404 0.55064,-2.739774 0.374447,-0.741778 0.608356,-0.99623 1.227909,-1.333434 0.418342,-0.227689 0.616469,-0.328758 0.853781,-0.335755 z m 6.375541,1.469654 v 1.314246 c 0,0.905572 0.0593,1.338646 0.193775,1.392909 0.348039,0.140443 0.499621,0.108559 1.055241,-0.228314 0.676302,-0.410049 0.776004,-0.557791 0.778953,-1.160757 0.0034,-0.684331 -0.695511,-1.318084 -1.452393,-1.318084 z m -5.450773,3.841053 c -0.0966,0.0055 -0.192609,0.07814 -0.366454,0.214885 -0.543187,0.427267 -0.811294,1.429779 -0.579419,2.162272 0.100364,0.317048 0.293966,0.663894 0.429769,0.771279 0.305982,0.241961 0.530743,0.244708 1.034129,0.01536 0.819689,-0.373477 0.775188,-2.297356 -0.06717,-2.920124 -0.230484,-0.170407 -0.341385,-0.249843 -0.450873,-0.243663 z" />
  <path
     id="path51"
     style="fill:#4d4d4d;fill-opacity:1;stroke:none;stroke-width:0.491164;stroke-dasharray:none;stroke-opacity:0.6"
     d="m 32.394313,19.07317 c -2.221699,0 -2.66541,0.05044 -4.900126,0.548721 -2.077709,0.463291 -2.770628,0.698918 -4.487625,1.523375 l -2.029889,0.974654 -1.839944,2.150758 c -1.011982,1.182821 -1.908686,2.306321 -1.991515,2.498029 -0.08282,0.191709 -0.281961,1.40319 -0.4432,2.691808 l -0.293545,2.342621 0.878724,2.361807 0.876803,2.361807 2.302329,1.859132 2.300413,1.861048 2.618901,0.888317 c 2.588008,0.876907 2.651157,0.889592 5.201346,1.04372 2.089572,0.126303 2.848423,0.111284 3.983032,-0.07292 2.23706,-0.363113 2.215571,-0.366714 4.91931,1.097449 1.345911,0.72884 2.687268,1.425343 2.979602,1.548315 0.274071,0.115299 0.5236,0.189588 0.579416,0.172679 8.24e-4,-3.3e-4 0.0051,-0.0015 0.0054,-0.002 l 0.002,-0.002 v -0.002 c 0.03104,-0.03104 -0.301378,-1.046224 -0.740577,-2.256285 -0.439241,-1.210061 -0.800067,-2.303477 -0.800067,-2.428958 0,-0.125495 0.580566,-0.682942 1.289306,-1.23942 0.832237,-0.65344 1.778031,-1.61919 2.668784,-2.728264 l 1.377728,-1.717166 0.370315,-1.99727 0.370278,-1.997271 -0.458397,-1.920521 -0.458544,-1.920526 -1.511869,-1.79006 C 43.802543,23.312836 43.457306,23.006151 41.724571,21.880006 39.958853,20.732422 39.59054,20.562486 37.31753,19.850115 l -2.480763,-0.777033 z m 4.992218,4.994136 c 0.336143,-0.01001 0.970358,0.146761 1.571341,0.416339 0.622012,0.279014 1.295229,0.437706 2.089361,0.491163 0.975426,0.06566 1.305417,0.163634 1.966569,0.585176 0.683733,0.435937 0.839165,0.632347 1.122391,1.42169 0.183954,0.512655 0.366308,1.502276 0.414424,2.244771 0.07996,1.232844 0.05604,1.385845 -0.341504,2.139248 -0.299622,0.567821 -0.70092,1.007597 -1.339189,1.463898 -0.832206,0.594958 -0.978996,0.645187 -1.663431,0.57942 l -0.750174,-0.07292 0.07483,0.95163 c 0.04091,0.523412 0.251797,1.50063 0.468137,2.171865 0.209538,0.650259 0.352421,1.215776 0.326153,1.28547 v 0.002 l -0.002,0.002 -0.002,0.002 -0.002,0.002 c -0.06977,0.03241 -0.639333,-0.01114 -1.291218,-0.101706 -0.672905,-0.0936 -1.473583,-0.127145 -1.780466,-0.07292 -0.306915,0.05425 -0.682341,0.136192 -0.832679,0.180341 -0.346919,0.101904 -0.346322,0.107371 0.115131,-1.118548 0.319808,-0.849726 0.40402,-1.429104 0.489228,-3.323031 0.12404,-2.757273 -0.160597,-6.719446 -0.581339,-8.073505 -0.160157,-0.515447 -0.292468,-0.990802 -0.293547,-1.055234 -0.0014,-0.07842 0.08895,-0.116353 0.241747,-0.120873 z m -12.73764,0.04221 c 0.03368,-9.9e-4 0.07224,0.0055 0.115114,0.01725 0.150337,0.04139 0.836111,0.192013 1.523376,0.335757 0.979654,0.20491 1.509316,0.430921 2.451982,1.043737 l 1.202968,0.780879 0.575581,1.728663 c 0.5291,1.587871 0.567372,1.825413 0.477736,2.914369 -0.132378,1.608079 -0.732576,3.180033 -1.555993,4.069368 -0.361093,0.390002 -0.789367,1.008617 -0.95163,1.373724 -0.152121,0.342288 -0.318727,0.625845 -0.38372,0.66 h -0.002 c -0.0025,5.94e-4 -0.0064,0.0018 -0.0077,0.002 l -0.002,0.002 c -0.05452,0 -0.50122,-0.660476 -0.993841,-1.467734 -1.032072,-1.691296 -1.377381,-1.899056 -2.214051,-1.325759 -0.453247,0.310571 -0.544864,0.510009 -0.871047,1.891748 -0.197387,0.836142 -0.4067,1.552403 -0.47006,1.609713 l -0.002,0.002 h -0.002 l -0.002,0.002 h -0.002 -0.002 -0.002 c -0.08187,-0.0056 -0.415274,-0.418019 -0.761688,-0.949715 -0.418074,-0.641684 -0.882819,-1.13902 -1.266282,-1.354539 -0.333361,-0.187358 -0.606281,-0.401009 -0.606281,-0.475813 0,-0.0748 0.284391,-0.554094 0.631223,-1.064827 0.314316,-0.462852 0.546871,-0.850596 0.554478,-0.919015 v -0.002 -0.002 -0.002 -0.002 h -0.002 v -0.002 h -0.002 -0.002 c -0.04465,0 -0.547259,0.284647 -1.116628,0.63314 -0.542685,0.332159 -1.006767,0.586721 -1.066749,0.587095 h -0.002 -0.002 l -0.002,-0.002 c -0.02044,-0.02634 -0.140654,-0.586703 -0.268605,-1.245175 -0.213598,-1.099222 -0.209229,-1.328505 0.05371,-2.801169 0.241207,-1.350881 0.415486,-1.835671 1.101281,-3.073611 l 0.813491,-1.469654 1.229827,-0.617792 c 0.676684,-0.34023 1.299872,-0.596368 1.385236,-0.567909 l 0.002,0.002 h 0.002 l 0.002,0.002 h 0.002 l 0.002,0.002 0.002,0.002 v 0.002 c 0.04268,0.07152 -0.188855,0.47066 -0.542967,0.926687 -0.922057,1.187428 -1.288802,2.290457 -1.145408,3.438146 0.08765,0.701456 0.189172,0.931723 0.506513,1.139653 0.486136,0.318529 0.645394,0.183511 0.796221,-0.669593 0.07879,-0.445657 0.348832,-0.914798 0.876805,-1.525295 l 0.761686,-0.880641 0.748259,0.736746 c 0.47383,0.466706 0.781423,0.92275 0.842269,1.247093 0.131495,0.70094 0.479303,0.978659 0.702209,0.562157 0.604914,-1.130293 -0.418985,-3.093898 -2.194888,-4.211347 -0.591397,-0.372125 -1.074419,-0.781787 -1.074419,-0.909421 0,-0.109164 0.05633,-0.169318 0.157323,-0.172677 z m 9.399262,3.179131 c 0.184573,-0.0055 0.392892,0.04632 0.748257,0.140057 1.250689,0.329925 2.061651,1.193819 2.473086,2.632332 0.48949,1.711417 0.562088,2.986431 0.257095,4.522159 -0.324398,1.633368 -0.74986,2.418339 -1.557911,2.875994 -0.34188,0.19364 -0.762546,0.343384 -0.934361,0.331926 -0.994408,-0.06632 -1.298281,-0.199416 -1.98768,-0.872972 -0.585323,-0.571875 -0.839293,-0.99712 -1.227909,-2.058669 -0.472821,-1.291552 -0.486563,-1.401554 -0.402907,-3.161864 0.07668,-1.61392 0.141061,-1.928404 0.55064,-2.739774 0.374447,-0.741778 0.608356,-0.99623 1.227909,-1.333434 0.418342,-0.227689 0.616469,-0.328758 0.853781,-0.335755 z m 6.375541,1.469654 v 1.314246 c 0,0.905572 0.0593,1.338646 0.193775,1.392909 0.348039,0.140443 0.499621,0.108559 1.055241,-0.228314 0.676302,-0.410049 0.776004,-0.557791 0.778953,-1.160757 0.0034,-0.684331 -0.695511,-1.318084 -1.452393,-1.318084 z m -5.450773,3.841053 c -0.0966,0.0055 -0.192609,0.07814 -0.366454,0.214885 -0.543187,0.427267 -0.811294,1.429779 -0.579419,2.162272 0.100364,0.317048 0.293966,0.663894 0.429769,0.771279 0.305982,0.241961 0.530743,0.244708 1.034129,0.01536 0.819689,-0.373477 0.775188,-2.297356 -0.06717,-2.920124 -0.230484,-0.170407 -0.341385,-0.249843 -0.450873,-0.243663 z" />
</svg>
