<?xml version="1.0" encoding="UTF-8" standalone="no"?>
<svg
   width="64"
   height="64"
   version="1.1"
   id="svg73"
   sodipodi:docname="camera-photo.svg"
   inkscape:version="1.4.2 (ebf0e940d0, 2025-05-08)"
   xmlns:inkscape="http://www.inkscape.org/namespaces/inkscape"
   xmlns:sodipodi="http://sodipodi.sourceforge.net/DTD/sodipodi-0.dtd"
   xmlns:xlink="http://www.w3.org/1999/xlink"
   xmlns="http://www.w3.org/2000/svg"
   xmlns:svg="http://www.w3.org/2000/svg"
   xmlns:rdf="http://www.w3.org/1999/02/22-rdf-syntax-ns#"
   xmlns:cc="http://creativecommons.org/ns#"
   xmlns:dc="http://purl.org/dc/elements/1.1/">
  <metadata
     id="metadata77">
    <rdf:RDF>
      <cc:Work
         rdf:about="">
        <dc:format>image/svg+xml</dc:format>
        <dc:type
           rdf:resource="http://purl.org/dc/dcmitype/StillImage" />
      </cc:Work>
    </rdf:RDF>
  </metadata>
  <sodipodi:namedview
     pagecolor="#f5f7fa"
     bordercolor="#666666"
     borderopacity="1"
     objecttolerance="10"
     gridtolerance="10"
     guidetolerance="10"
     inkscape:pageopacity="0"
     inkscape:pageshadow="2"
     inkscape:window-width="1253"
     inkscape:window-height="697"
     id="namedview75"
     showgrid="false"
     inkscape:zoom="6.2890624"
     inkscape:cx="39.354038"
     inkscape:cy="29.575156"
     inkscape:window-x="24"
     inkscape:window-y="21"
     inkscape:window-maximized="0"
     inkscape:current-layer="svg73"
     inkscape:document-rotation="0"
     inkscape:pagecheckerboard="0"
     inkscape:showpageshadow="2"
     inkscape:deskcolor="#d1d1d1" />
  <defs
     id="defs29">
    <linearGradient
       id="linearGradient4"
       inkscape:collect="always">
      <stop
         style="stop-color:#ac5e5e;stop-opacity:1;"
         offset="0"
         id="stop4" />
      <stop
         style="stop-color:#c18181;stop-opacity:1;"
         offset="0.5"
         id="stop1" />
    </linearGradient>
    <linearGradient
       id="linearGradient2"
       inkscape:collect="always">
      <stop
         style="stop-color:#f4ecec;stop-opacity:1;"
         offset="0"
         id="stop2" />
      <stop
         style="stop-color:#e9d8d8;stop-opacity:1;"
         offset="1"
         id="stop3" />
    </linearGradient>
    <linearGradient
       inkscape:collect="always"
       xlink:href="#linearGradient2"
       id="linearGradient8"
       x1="31.721739"
       y1="5.2278585"
       x2="31.88887"
       y2="59.145416"
       gradientUnits="userSpaceOnUse"
       gradientTransform="matrix(0.8505,0,0,0.8505,4.7765033,4.7794869)" />
    <filter
       style="color-interpolation-filters:sRGB;"
       inkscape:label="Blur"
       id="filter9"
       x="-0.047762285"
       y="-0.047489063"
       width="1.0955246"
       height="1.0949781">
      <feGaussianBlur
         stdDeviation="1 1"
         result="blur"
         id="feGaussianBlur9" />
    </filter>
    <linearGradient
       inkscape:collect="always"
       xlink:href="#linearGradient4"
       id="linearGradient7"
       x1="26.723248"
       y1="58.711765"
       x2="25.756926"
       y2="5.950614"
       gradientUnits="userSpaceOnUse" />
    <filter
       style="color-interpolation-filters:sRGB;"
       inkscape:label="Out of Focus"
       id="filter40"
       x="-0.24226652"
       y="-0.2858297"
       width="1.484533"
       height="1.5716594">
      <feFlood
         flood-opacity="1"
         flood-color="rgb(255,255,255)"
         result="flood"
         id="feFlood38" />
      <feColorMatrix
         in="SourceGraphic"
         values="1 0 0 0 0 0 1 0 0 0 0 0 1 0 0 -0.2125 -0.7154 -0.0721 1 0 "
         result="colormatrix1"
         id="feColorMatrix38" />
      <feGaussianBlur
         in="colormatrix1"
         stdDeviation="3 3"
         result="blur"
         id="feGaussianBlur38" />
      <feColorMatrix
         in="blur"
         values="1 0 0 0 0 0 1 0 0 0 0 0 1 0 0 0 0 0 6 -2 "
         result="colormatrix2"
         id="feColorMatrix39" />
      <feBlend
         in="colormatrix2"
         in2="flood"
         mode="normal"
         result="blend"
         id="feBlend39" />
      <feComposite
         in="blend"
         in2="blend"
         operator="arithmetic"
         k2="0.2"
         result="composite1"
         id="feComposite39" />
      <feComposite
         in2="SourceGraphic"
         operator="in"
         id="feComposite40" />
    </filter>
  </defs>
  <g
     id="g877"
     transform="matrix(1.1,0,0,1.1,-3.1845928,-3.2065454)">
    <ellipse
       style="opacity:0.5;fill:#000000;stroke:none;stroke-width:3.89319;stroke-dasharray:none;stroke-opacity:1;filter:url(#filter9)"
       id="path2-5"
       cx="31.949858"
       cy="31.969812"
       rx="25.124426"
       ry="25.268976"
       transform="matrix(1.05,0,0,1.05,-1.5974929,-1.5984906)" />
    <path
       style="fill:#f5f7fa;stroke-width:0.204426;fill-opacity:1"
       d=""
       id="path3" />
    <circle
       style="opacity:1;fill:url(#linearGradient8);stroke:url(#linearGradient7);stroke-width:3.81818;stroke-dasharray:none;stroke-opacity:1"
       id="path2"
       cx="31.949856"
       cy="31.969812"
       r="24.711082" />
    <ellipse
       style="opacity:0.3;fill:none;stroke:#000000;stroke-width:0.974376;stroke-dasharray:none;stroke-opacity:1"
       id="path2-9"
       cx="31.949856"
       cy="31.969812"
       rx="23.129124"
       ry="23.129126" />
  </g>
  <path
     id="path7250-6"
     style="fill:#000000;fill-opacity:1;stroke:none;stroke-width:0.250812;stroke-dasharray:none;stroke-opacity:1;opacity:0.2"
     d="m 32.3169,22.470712 c -3.636236,-0.04431 -7.283663,0.747508 -10.5761,2.346109 -2.40306,1.166773 -4.631735,2.753336 -6.461985,4.600457 l -0.492791,0.497189 1.915466,1.737521 1.915172,1.737522 0.58396,-0.544678 c 0.321084,-0.299572 0.694186,-0.639441 0.829333,-0.755166 5.599641,-4.794808 13.573682,-5.77698 20.180401,-2.485649 1.705686,0.84974 3.072094,1.812355 4.564107,3.214722 l 0.611515,0.574583 1.914004,-1.738108 1.913995,-1.738402 -0.544088,-0.548197 c -2.719101,-2.739506 -6.09891,-4.756815 -9.899211,-5.908803 -2.094339,-0.63486 -4.272032,-0.962514 -6.453778,-0.9891 z m -0.318657,6.028997 c -0.835603,5e-5 -1.671024,0.03121 -2.131227,0.09293 -3.925784,0.526572 -7.290708,2.141647 -10.145456,4.869573 -0.256963,0.245548 -0.460741,0.465007 -0.452925,0.487808 0.0077,0.02281 0.870806,0.818158 1.917811,1.767424 l 1.903446,1.725795 0.378754,-0.366735 c 1.828199,-1.770097 4.349391,-2.962496 6.990248,-3.30648 0.776842,-0.101134 2.305455,-0.10109 3.079872,3.41e-4 2.641401,0.345806 4.870286,1.377983 6.879726,3.185993 l 0.513607,0.462009 0.110517,-0.09909 c 0.540967,-0.483446 3.454922,-3.120775 3.570319,-3.231436 l 0.148923,-0.142766 -0.199054,-0.207554 c -0.777687,-0.810879 -2.162112,-1.917173 -3.258986,-2.604383 -0.783331,-0.490765 -2.227986,-1.207775 -3.069905,-1.523812 -1.250666,-0.469469 -2.705699,-0.830052 -4.10327,-1.016949 -0.461162,-0.06168 -1.296794,-0.09269 -2.1324,-0.09263 z m -0.110224,5.977693 c -0.197508,0.0021 -0.395292,0.009 -0.593052,0.02141 -2.735685,0.171253 -5.227735,1.254679 -7.286038,3.166941 l -0.340352,0.316018 1.92045,1.741039 c 1.056181,0.957596 1.927789,1.742039 1.936866,1.743091 0.0091,0.0011 0.144317,-0.108218 0.300775,-0.243024 2.351474,-2.026096 5.888871,-2.057309 8.256962,-0.0727 l 0.384328,0.322173 0.215173,-0.190253 c 0.11836,-0.104654 0.98825,-0.890175 1.933054,-1.745439 l 1.71788,-1.554885 -0.392826,-0.367909 c -2.178553,-2.039269 -5.090598,-3.166692 -8.05322,-3.136455 z m -0.04574,6.006424 c -0.32145,0.0068 -0.639457,0.04198 -0.946888,0.106997 -0.976991,0.206638 -1.956382,0.694244 -2.591183,1.290464 l -0.158009,0.148627 1.928363,1.75042 1.928365,1.750712 1.139194,-1.035709 c 0.626514,-0.569555 1.493633,-1.353971 1.9269,-1.743092 l 0.787702,-0.707379 -0.235986,-0.221331 C 34.691562,40.95189 33.235224,40.453881 31.842284,40.483821 Z" />
  <path
     id="path7250"
     style="fill:#4d4d4d;fill-opacity:1;stroke:none;stroke-width:0.250812;stroke-dasharray:none;stroke-opacity:1"
     d="m 32.3169,20.470712 c -3.636236,-0.04431 -7.283663,0.747508 -10.5761,2.346109 -2.40306,1.166773 -4.631735,2.753336 -6.461985,4.600457 l -0.492791,0.497189 1.915466,1.737521 1.915172,1.737522 0.58396,-0.544678 c 0.321084,-0.299572 0.694186,-0.639441 0.829333,-0.755166 5.599641,-4.794808 13.573682,-5.77698 20.180401,-2.485649 1.705686,0.84974 3.072094,1.812355 4.564107,3.214722 l 0.611515,0.574583 1.914004,-1.738108 1.913995,-1.738402 -0.544088,-0.548197 c -2.719101,-2.739506 -6.09891,-4.756815 -9.899211,-5.908803 -2.094339,-0.63486 -4.272032,-0.962514 -6.453778,-0.9891 z m -0.318657,6.028997 c -0.835603,5e-5 -1.671024,0.03121 -2.131227,0.09293 -3.925784,0.526572 -7.290708,2.141647 -10.145456,4.869573 -0.256963,0.245548 -0.460741,0.465007 -0.452925,0.487808 0.0077,0.02281 0.870806,0.818158 1.917811,1.767424 l 1.903446,1.725795 0.378754,-0.366735 c 1.828199,-1.770097 4.349391,-2.962496 6.990248,-3.30648 0.776842,-0.101134 2.305455,-0.10109 3.079872,3.41e-4 2.641401,0.345806 4.870286,1.377983 6.879726,3.185993 l 0.513607,0.462009 0.110517,-0.09909 c 0.540967,-0.483446 3.454922,-3.120775 3.570319,-3.231436 l 0.148923,-0.142766 -0.199054,-0.207554 c -0.777687,-0.810879 -2.162112,-1.917173 -3.258986,-2.604383 -0.783331,-0.490765 -2.227986,-1.207775 -3.069905,-1.523812 -1.250666,-0.469469 -2.705699,-0.830052 -4.10327,-1.016949 -0.461162,-0.06168 -1.296794,-0.09269 -2.1324,-0.09263 z m -0.110224,5.977693 c -0.197508,0.0021 -0.395292,0.009 -0.593052,0.02141 -2.735685,0.171253 -5.227735,1.254679 -7.286038,3.166941 l -0.340352,0.316018 1.92045,1.741039 c 1.056181,0.957596 1.927789,1.742039 1.936866,1.743091 0.0091,0.0011 0.144317,-0.108218 0.300775,-0.243024 2.351474,-2.026096 5.888871,-2.057309 8.256962,-0.0727 l 0.384328,0.322173 0.215173,-0.190253 c 0.11836,-0.104654 0.98825,-0.890175 1.933054,-1.745439 l 1.71788,-1.554885 -0.392826,-0.367909 c -2.178553,-2.039269 -5.090598,-3.166692 -8.05322,-3.136455 z m -0.04574,6.006424 c -0.32145,0.0068 -0.639457,0.04198 -0.946888,0.106997 -0.976991,0.206638 -1.956382,0.694244 -2.591183,1.290464 l -0.158009,0.148627 1.928363,1.75042 1.928365,1.750712 1.139194,-1.035709 c 0.626514,-0.569555 1.493633,-1.353971 1.9269,-1.743092 l 0.787702,-0.707379 -0.235986,-0.221331 C 34.691562,38.95189 33.235224,38.453881 31.842284,38.483821 Z" />
</svg>
