<?xml version="1.0" encoding="UTF-8" standalone="no"?>
<svg
   width="64"
   height="64"
   version="1.1"
   id="svg73"
   sodipodi:docname="abcd.svg"
   inkscape:version="1.4.2 (ebf0e940d0, 2025-05-08)"
   xmlns:inkscape="http://www.inkscape.org/namespaces/inkscape"
   xmlns:sodipodi="http://sodipodi.sourceforge.net/DTD/sodipodi-0.dtd"
   xmlns:xlink="http://www.w3.org/1999/xlink"
   xmlns="http://www.w3.org/2000/svg"
   xmlns:svg="http://www.w3.org/2000/svg"
   xmlns:rdf="http://www.w3.org/1999/02/22-rdf-syntax-ns#"
   xmlns:cc="http://creativecommons.org/ns#"
   xmlns:dc="http://purl.org/dc/elements/1.1/">
  <metadata
     id="metadata77">
    <rdf:RDF>
      <cc:Work
         rdf:about="">
        <dc:format>image/svg+xml</dc:format>
        <dc:type
           rdf:resource="http://purl.org/dc/dcmitype/StillImage" />
      </cc:Work>
    </rdf:RDF>
  </metadata>
  <sodipodi:namedview
     pagecolor="#f5f7fa"
     bordercolor="#666666"
     borderopacity="1"
     objecttolerance="10"
     gridtolerance="10"
     guidetolerance="10"
     inkscape:pageopacity="0"
     inkscape:pageshadow="2"
     inkscape:window-width="1462"
     inkscape:window-height="840"
     id="namedview75"
     showgrid="false"
     inkscape:zoom="6.2890624"
     inkscape:cx="53.585094"
     inkscape:cy="29.654659"
     inkscape:window-x="24"
     inkscape:window-y="21"
     inkscape:window-maximized="0"
     inkscape:current-layer="svg73"
     inkscape:document-rotation="0"
     inkscape:pagecheckerboard="0"
     inkscape:showpageshadow="2"
     inkscape:deskcolor="#d1d1d1" />
  <defs
     id="defs29">
    <linearGradient
       id="linearGradient4"
       inkscape:collect="always">
      <stop
         style="stop-color:#635eac;stop-opacity:1;"
         offset="0"
         id="stop4" />
      <stop
         style="stop-color:#8581c1;stop-opacity:1;"
         offset="0.5"
         id="stop1" />
    </linearGradient>
    <linearGradient
       id="linearGradient2"
       inkscape:collect="always">
      <stop
         style="stop-color:#edecf4;stop-opacity:1;"
         offset="0"
         id="stop2" />
      <stop
         style="stop-color:#d9d8e9;stop-opacity:1;"
         offset="1"
         id="stop3" />
    </linearGradient>
    <linearGradient
       inkscape:collect="always"
       xlink:href="#linearGradient2"
       id="linearGradient8"
       x1="31.721739"
       y1="5.2278585"
       x2="31.88887"
       y2="59.145416"
       gradientUnits="userSpaceOnUse"
       gradientTransform="matrix(0.8505,0,0,0.8505,4.7765033,4.7794869)" />
    <filter
       style="color-interpolation-filters:sRGB;"
       inkscape:label="Blur"
       id="filter9"
       x="-0.047762285"
       y="-0.047489063"
       width="1.0955246"
       height="1.0949781">
      <feGaussianBlur
         stdDeviation="1 1"
         result="blur"
         id="feGaussianBlur9" />
    </filter>
    <linearGradient
       inkscape:collect="always"
       xlink:href="#linearGradient4"
       id="linearGradient7"
       x1="26.723248"
       y1="58.711765"
       x2="25.756926"
       y2="5.950614"
       gradientUnits="userSpaceOnUse" />
    <filter
       style="color-interpolation-filters:sRGB;"
       inkscape:label="Out of Focus"
       id="filter40"
       x="-0.24226652"
       y="-0.2858297"
       width="1.484533"
       height="1.5716594">
      <feFlood
         flood-opacity="1"
         flood-color="rgb(255,255,255)"
         result="flood"
         id="feFlood38" />
      <feColorMatrix
         in="SourceGraphic"
         values="1 0 0 0 0 0 1 0 0 0 0 0 1 0 0 -0.2125 -0.7154 -0.0721 1 0 "
         result="colormatrix1"
         id="feColorMatrix38" />
      <feGaussianBlur
         in="colormatrix1"
         stdDeviation="3 3"
         result="blur"
         id="feGaussianBlur38" />
      <feColorMatrix
         in="blur"
         values="1 0 0 0 0 0 1 0 0 0 0 0 1 0 0 0 0 0 6 -2 "
         result="colormatrix2"
         id="feColorMatrix39" />
      <feBlend
         in="colormatrix2"
         in2="flood"
         mode="normal"
         result="blend"
         id="feBlend39" />
      <feComposite
         in="blend"
         in2="blend"
         operator="arithmetic"
         k2="0.2"
         result="composite1"
         id="feComposite39" />
      <feComposite
         in2="SourceGraphic"
         operator="in"
         id="feComposite40" />
    </filter>
  </defs>
  <g
     id="g877"
     transform="matrix(1.1,0,0,1.1,-3.1845928,-3.2065454)">
    <ellipse
       style="opacity:0.5;fill:#000000;stroke:none;stroke-width:3.89319;stroke-dasharray:none;stroke-opacity:1;filter:url(#filter9)"
       id="path2-5"
       cx="31.949858"
       cy="31.969812"
       rx="25.124426"
       ry="25.268976"
       transform="matrix(1.05,0,0,1.05,-1.5974929,-1.5984906)" />
    <path
       style="fill:#f5f7fa;stroke-width:0.204426;fill-opacity:1"
       d=""
       id="path3" />
    <circle
       style="opacity:1;fill:url(#linearGradient8);stroke:url(#linearGradient7);stroke-width:3.81818;stroke-dasharray:none;stroke-opacity:1"
       id="path2"
       cx="31.949856"
       cy="31.969812"
       r="24.711082" />
    <ellipse
       style="opacity:0.3;fill:none;stroke:#000000;stroke-width:0.974376;stroke-dasharray:none;stroke-opacity:1"
       id="path2-9"
       cx="31.949856"
       cy="31.969812"
       rx="23.129124"
       ry="23.129126" />
  </g>
  <path
     id="path4-0"
     style="fill:#000000;fill-opacity:1;stroke:none;stroke-width:0.501545;stroke-dasharray:none;stroke-opacity:0.6;opacity:0.2"
     d="m 26.341211,18.776513 c -9.030649,0 -9.167582,0.0022 -9.364974,0.199527 -0.197383,0.197391 -0.199526,0.334325 -0.199526,9.364973 0,9.030647 0.0022,9.167579 0.199526,9.364974 0.197393,0.197406 0.334325,0.199523 9.364974,0.199523 9.030651,0 9.16758,-0.0022 9.36497,-0.199523 0.19742,-0.197397 0.199526,-0.334327 0.199526,-9.364974 0,-9.030648 -0.0022,-9.16758 -0.199526,-9.364973 -0.197392,-0.19739 -0.334319,-0.199527 -9.36497,-0.199527 z m 11.272215,5.608617 -0.02814,6.851306 -0.02638,6.852878 -0.303231,0.430465 c -0.167281,0.237302 -0.498414,0.568458 -0.735702,0.735249 l -0.430466,0.30323 -6.852877,0.02638 -6.851308,0.02814 v 1.731294 c 0,1.799509 0.02568,1.921021 0.450891,2.155468 0.142688,0.07864 2.799171,0.104269 9.236146,0.08798 l 9.036625,-0.02287 0.22777,-0.22777 0.227768,-0.227768 0.02849,-8.936085 c 0.01548,-4.914849 0.0025,-9.038536 -0.02849,-9.163879 -0.03058,-0.12534 -0.144144,-0.316986 -0.252945,-0.425753 -0.181843,-0.181824 -0.338438,-0.197949 -1.94809,-0.197949 z m 5.710729,5.608614 -0.02848,6.73505 c -0.02849,6.673172 -0.02989,6.739025 -0.243487,7.137241 -0.273625,0.510851 -0.67528,0.912522 -1.186129,1.186141 -0.398105,0.213243 -0.465072,0.21539 -7.086969,0.243523 l -6.684776,0.02849 v 1.742284 1.742276 l 0.263932,0.207373 c 0.262545,0.206528 0.309687,0.207373 9.300557,0.207373 8.990879,0 9.038016,-8.82e-4 9.300568,-0.207373 l 0.263918,-0.207381 v -9.200225 -9.200014 l -0.263923,-0.20738 c -0.2431,-0.191335 -0.395721,-0.207383 -1.949528,-0.207383 z" />
  <path
     id="path4"
     style="fill:#4d4d4d;fill-opacity:1;stroke:none;stroke-width:0.501545;stroke-dasharray:none;stroke-opacity:0.6"
     d="m 26.341211,16.776513 c -9.030649,0 -9.167582,0.0022 -9.364974,0.199527 -0.197383,0.197391 -0.199526,0.334325 -0.199526,9.364973 0,9.030647 0.0022,9.167579 0.199526,9.364974 0.197393,0.197406 0.334325,0.199523 9.364974,0.199523 9.030651,0 9.16758,-0.0022 9.36497,-0.199523 0.19742,-0.197397 0.199526,-0.334327 0.199526,-9.364974 0,-9.030648 -0.0022,-9.16758 -0.199526,-9.364973 -0.197392,-0.19739 -0.334319,-0.199527 -9.36497,-0.199527 z m 11.272215,5.608617 -0.02814,6.851306 -0.02638,6.852878 -0.303231,0.430465 c -0.167281,0.237302 -0.498414,0.568458 -0.735702,0.735249 l -0.430466,0.30323 -6.852877,0.02638 -6.851308,0.02814 v 1.731294 c 0,1.799509 0.02568,1.921021 0.450891,2.155468 0.142688,0.07864 2.799171,0.104269 9.236146,0.08798 l 9.036625,-0.02287 0.22777,-0.22777 0.227768,-0.227768 0.02849,-8.936085 c 0.01548,-4.914849 0.0025,-9.038536 -0.02849,-9.163879 -0.03058,-0.12534 -0.144144,-0.316986 -0.252945,-0.425753 -0.181843,-0.181824 -0.338438,-0.197949 -1.94809,-0.197949 z m 5.710729,5.608614 -0.02848,6.73505 c -0.02849,6.673172 -0.02989,6.739025 -0.243487,7.137241 -0.273625,0.510851 -0.67528,0.912522 -1.186129,1.186141 -0.398105,0.213243 -0.465072,0.21539 -7.086969,0.243523 l -6.684776,0.02849 v 1.742284 1.742276 l 0.263932,0.207373 c 0.262545,0.206528 0.309687,0.207373 9.300557,0.207373 8.990879,0 9.038016,-8.82e-4 9.300568,-0.207373 l 0.263918,-0.207381 v -9.200225 -9.200014 l -0.263923,-0.20738 c -0.2431,-0.191335 -0.395721,-0.207383 -1.949528,-0.207383 z" />
</svg>
