<?xml version="1.0" encoding="UTF-8" standalone="no"?>
<svg
   width="64"
   height="64"
   version="1.1"
   id="svg73"
   sodipodi:docname="abcd.svg"
   inkscape:version="1.4.2 (ebf0e940d0, 2025-05-08)"
   xmlns:inkscape="http://www.inkscape.org/namespaces/inkscape"
   xmlns:sodipodi="http://sodipodi.sourceforge.net/DTD/sodipodi-0.dtd"
   xmlns:xlink="http://www.w3.org/1999/xlink"
   xmlns="http://www.w3.org/2000/svg"
   xmlns:svg="http://www.w3.org/2000/svg"
   xmlns:rdf="http://www.w3.org/1999/02/22-rdf-syntax-ns#"
   xmlns:cc="http://creativecommons.org/ns#"
   xmlns:dc="http://purl.org/dc/elements/1.1/">
  <metadata
     id="metadata77">
    <rdf:RDF>
      <cc:Work
         rdf:about="">
        <dc:format>image/svg+xml</dc:format>
        <dc:type
           rdf:resource="http://purl.org/dc/dcmitype/StillImage" />
      </cc:Work>
    </rdf:RDF>
  </metadata>
  <sodipodi:namedview
     pagecolor="#f5f7fa"
     bordercolor="#666666"
     borderopacity="1"
     objecttolerance="10"
     gridtolerance="10"
     guidetolerance="10"
     inkscape:pageopacity="0"
     inkscape:pageshadow="2"
     inkscape:window-width="1462"
     inkscape:window-height="840"
     id="namedview75"
     showgrid="false"
     inkscape:zoom="6.2890624"
     inkscape:cx="53.585094"
     inkscape:cy="29.654659"
     inkscape:window-x="24"
     inkscape:window-y="21"
     inkscape:window-maximized="0"
     inkscape:current-layer="svg73"
     inkscape:document-rotation="0"
     inkscape:pagecheckerboard="0"
     inkscape:showpageshadow="2"
     inkscape:deskcolor="#d1d1d1" />
  <defs
     id="defs29">
    <linearGradient
       id="linearGradient4"
       inkscape:collect="always">
      <stop
         style="stop-color:#635eac;stop-opacity:1;"
         offset="0"
         id="stop4" />
      <stop
         style="stop-color:#8581c1;stop-opacity:1;"
         offset="0.5"
         id="stop1" />
    </linearGradient>
    <linearGradient
       id="linearGradient2"
       inkscape:collect="always">
      <stop
         style="stop-color:#edecf4;stop-opacity:1;"
         offset="0"
         id="stop2" />
      <stop
         style="stop-color:#d9d8e9;stop-opacity:1;"
         offset="1"
         id="stop3" />
    </linearGradient>
    <linearGradient
       inkscape:collect="always"
       xlink:href="#linearGradient2"
       id="linearGradient8"
       x1="31.721739"
       y1="5.2278585"
       x2="31.88887"
       y2="59.145416"
       gradientUnits="userSpaceOnUse"
       gradientTransform="matrix(0.8505,0,0,0.8505,4.7765033,4.7794869)" />
    <filter
       style="color-interpolation-filters:sRGB;"
       inkscape:label="Blur"
       id="filter9"
       x="-0.047762285"
       y="-0.047489063"
       width="1.0955246"
       height="1.0949781">
      <feGaussianBlur
         stdDeviation="1 1"
         result="blur"
         id="feGaussianBlur9" />
    </filter>
    <linearGradient
       inkscape:collect="always"
       xlink:href="#linearGradient4"
       id="linearGradient7"
       x1="26.723248"
       y1="58.711765"
       x2="25.756926"
       y2="5.950614"
       gradientUnits="userSpaceOnUse" />
    <filter
       style="color-interpolation-filters:sRGB;"
       inkscape:label="Out of Focus"
       id="filter40"
       x="-0.24226652"
       y="-0.2858297"
       width="1.484533"
       height="1.5716594">
      <feFlood
         flood-opacity="1"
         flood-color="rgb(255,255,255)"
         result="flood"
         id="feFlood38" />
      <feColorMatrix
         in="SourceGraphic"
         values="1 0 0 0 0 0 1 0 0 0 0 0 1 0 0 -0.2125 -0.7154 -0.0721 1 0 "
         result="colormatrix1"
         id="feColorMatrix38" />
      <feGaussianBlur
         in="colormatrix1"
         stdDeviation="3 3"
         result="blur"
         id="feGaussianBlur38" />
      <feColorMatrix
         in="blur"
         values="1 0 0 0 0 0 1 0 0 0 0 0 1 0 0 0 0 0 6 -2 "
         result="colormatrix2"
         id="feColorMatrix39" />
      <feBlend
         in="colormatrix2"
         in2="flood"
         mode="normal"
         result="blend"
         id="feBlend39" />
      <feComposite
         in="blend"
         in2="blend"
         operator="arithmetic"
         k2="0.2"
         result="composite1"
         id="feComposite39" />
      <feComposite
         in2="SourceGraphic"
         operator="in"
         id="feComposite40" />
    </filter>
  </defs>
  <g
     id="g877"
     transform="matrix(1.1,0,0,1.1,-3.1845928,-3.2065454)">
    <ellipse
       style="opacity:0.5;fill:#000000;stroke:none;stroke-width:3.89319;stroke-dasharray:none;stroke-opacity:1;filter:url(#filter9)"
       id="path2-5"
       cx="31.949858"
       cy="31.969812"
       rx="25.124426"
       ry="25.268976"
       transform="matrix(1.05,0,0,1.05,-1.5974929,-1.5984906)" />
    <path
       style="fill:#f5f7fa;stroke-width:0.204426;fill-opacity:1"
       d=""
       id="path3" />
    <circle
       style="opacity:1;fill:url(#linearGradient8);stroke:url(#linearGradient7);stroke-width:3.81818;stroke-dasharray:none;stroke-opacity:1"
       id="path2"
       cx="31.949856"
       cy="31.969812"
       r="24.711082" />
    <ellipse
       style="opacity:0.3;fill:none;stroke:#000000;stroke-width:0.974376;stroke-dasharray:none;stroke-opacity:1"
       id="path2-9"
       cx="31.949856"
       cy="31.969812"
       rx="23.129124"
       ry="23.129126" />
  </g>
  <path
     id="path6-9"
     style="fill:#000000;fill-opacity:1;stroke:none;stroke-width:0.458466;stroke-dasharray:none;stroke-opacity:0.6;opacity:0.2"
     d="m 32.034103,18.143754 c -2.002332,-0.0014 -2.545286,0.102817 -3.844594,0.741422 -2.605898,1.280787 -4.039454,4.270983 -4.406248,9.192019 l -0.07049,0.947047 0.489976,-0.408899 c 0.682812,-0.569658 1.876366,-1.329206 2.642572,-1.681425 0.354863,-0.163126 0.657473,-0.303062 0.673272,-0.311371 0.01576,-0.0083 0.138851,-0.427611 0.273776,-0.931777 0.51159,-1.911643 1.348287,-3.146282 2.521548,-3.723572 0.629127,-0.309555 0.730337,-0.329176 1.719024,-0.326648 0.940546,0.0024 1.109038,0.03147 1.616798,0.278473 1.152523,0.56062 2.021116,1.823851 2.552098,3.712997 l 0.276125,0.979948 0.649773,0.291401 c 0.777847,0.348616 2.431043,1.433986 2.841141,1.865898 0.16132,0.16992 0.309107,0.309027 0.328992,0.309027 0.03683,0 -0.0058,-0.498791 -0.186836,-2.19725 -0.208303,-1.952087 -0.706114,-3.757207 -1.418201,-5.142972 -0.582081,-1.132758 -1.829649,-2.385844 -2.863477,-2.876397 -1.298197,-0.61599 -1.830243,-0.716407 -3.795247,-0.717921 z m 0.152756,7.745592 c -0.172479,-0.002 -0.344749,3.8e-4 -0.517001,0.0059 -3.031637,0.09667 -6.007532,1.335092 -8.156844,3.529683 -5.678047,5.797653 -4.173019,15.355026 3.002123,19.060832 1.342825,0.693545 2.503489,1.044047 4.32047,1.30425 1.613979,0.231128 4.053574,-0.156459 5.944319,-0.943525 3.568283,-1.485485 6.295982,-4.959619 7.051167,-8.981693 0.181021,-0.963994 0.156517,-3.17906 -0.04701,-4.22177 -0.841123,-4.309473 -3.866726,-7.763558 -8.018175,-9.154421 -1.162392,-0.389437 -2.37175,-0.585809 -3.579046,-0.599249 z m -0.09518,3.500321 c 3.10342,0.05216 6.060463,1.81047 7.46477,4.633021 2.61059,5.247122 -0.656102,11.435269 -6.455447,12.228216 -2.220152,0.303572 -4.442619,-0.298382 -6.295645,-1.70375 -1.490674,-1.130561 -2.682847,-3.045369 -3.077322,-4.945575 -0.256245,-1.234343 -0.207554,-2.882444 0.1175,-4.026716 0.453381,-1.596015 1.567469,-3.289244 2.849373,-4.329874 0.711544,-0.577617 2.339245,-1.386634 3.241822,-1.61092 0.714483,-0.177551 1.438772,-0.25644 2.154949,-0.244402 z m 4.501423,3.883371 c -0.01157,0 -0.81119,0.265353 -1.777774,0.588676 -1.67127,0.559029 -1.783417,0.582275 -2.29125,0.489974 -1.487639,-0.270386 -3.07684,0.615298 -3.767048,2.099723 -0.218956,0.470906 -0.263745,0.711174 -0.265549,1.418225 -0.002,0.762632 0.03128,0.920565 0.325476,1.518098 0.511313,1.03862 1.510509,1.791982 2.616723,1.972825 1.138092,0.185997 2.207602,-0.176305 3.058524,-1.037527 0.840221,-0.850397 1.07249,-1.472098 1.014021,-2.704846 -0.04168,-0.878748 -0.02992,-0.937156 0.532274,-2.621425 0.316286,-0.947575 0.56603,-1.723723 0.554603,-1.723723 z" />
  <path
     id="path6"
     style="fill:#4d4d4d;fill-opacity:1;stroke:none;stroke-width:0.458466;stroke-dasharray:none;stroke-opacity:0.6"
     d="m 32.034103,16.143754 c -2.002332,-0.0014 -2.545286,0.102817 -3.844594,0.741422 -2.605898,1.280787 -4.039454,4.270983 -4.406248,9.192019 l -0.07049,0.947047 0.489976,-0.408899 c 0.682812,-0.569658 1.876366,-1.329206 2.642572,-1.681425 0.354863,-0.163126 0.657473,-0.303062 0.673272,-0.311371 0.01576,-0.0083 0.138851,-0.427611 0.273776,-0.931777 0.51159,-1.911643 1.348287,-3.146282 2.521548,-3.723572 0.629127,-0.309555 0.730337,-0.329176 1.719024,-0.326648 0.940546,0.0024 1.109038,0.03147 1.616798,0.278473 1.152523,0.56062 2.021116,1.823851 2.552098,3.712997 l 0.276125,0.979948 0.649773,0.291401 c 0.777847,0.348616 2.431043,1.433986 2.841141,1.865898 0.16132,0.16992 0.309107,0.309027 0.328992,0.309027 0.03683,0 -0.0058,-0.498791 -0.186836,-2.19725 -0.208303,-1.952087 -0.706114,-3.757207 -1.418201,-5.142972 -0.582081,-1.132758 -1.829649,-2.385844 -2.863477,-2.876397 -1.298197,-0.61599 -1.830243,-0.716407 -3.795247,-0.717921 z m 0.152756,7.745592 c -0.172479,-0.002 -0.344749,3.8e-4 -0.517001,0.0059 -3.031637,0.09667 -6.007532,1.335092 -8.156844,3.529683 -5.678047,5.797653 -4.173019,15.355026 3.002123,19.060832 1.342825,0.693545 2.503489,1.044047 4.32047,1.30425 1.613979,0.231128 4.053574,-0.156459 5.944319,-0.943525 3.568283,-1.485485 6.295982,-4.959619 7.051167,-8.981693 0.181021,-0.963994 0.156517,-3.17906 -0.04701,-4.22177 -0.841123,-4.309473 -3.866726,-7.763558 -8.018175,-9.154421 -1.162392,-0.389437 -2.37175,-0.585809 -3.579046,-0.599249 z m -0.09518,3.500321 c 3.10342,0.05216 6.060463,1.81047 7.46477,4.633021 2.61059,5.247122 -0.656102,11.435269 -6.455447,12.228216 -2.220152,0.303572 -4.442619,-0.298382 -6.295645,-1.70375 -1.490674,-1.130561 -2.682847,-3.045369 -3.077322,-4.945575 -0.256245,-1.234343 -0.207554,-2.882444 0.1175,-4.026716 0.453381,-1.596015 1.567469,-3.289244 2.849373,-4.329874 0.711544,-0.577617 2.339245,-1.386634 3.241822,-1.61092 0.714483,-0.177551 1.438772,-0.25644 2.154949,-0.244402 z m 4.501423,3.883371 c -0.01157,0 -0.81119,0.265353 -1.777774,0.588676 -1.67127,0.559029 -1.783417,0.582275 -2.29125,0.489974 -1.487639,-0.270386 -3.07684,0.615298 -3.767048,2.099723 -0.218956,0.470906 -0.263745,0.711174 -0.265549,1.418225 -0.002,0.762632 0.03128,0.920565 0.325476,1.518098 0.511313,1.03862 1.510509,1.791982 2.616723,1.972825 1.138092,0.185997 2.207602,-0.176305 3.058524,-1.037527 0.840221,-0.850397 1.07249,-1.472098 1.014021,-2.704846 -0.04168,-0.878748 -0.02992,-0.937156 0.532274,-2.621425 0.316286,-0.947575 0.56603,-1.723723 0.554603,-1.723723 z" />
</svg>
