<?xml version="1.0" encoding="UTF-8" standalone="no"?>
<svg
   width="64"
   height="64"
   version="1.1"
   id="svg73"
   sodipodi:docname="1password.svg"
   inkscape:version="1.4.2 (ebf0e940d0, 2025-05-08)"
   xmlns:inkscape="http://www.inkscape.org/namespaces/inkscape"
   xmlns:sodipodi="http://sodipodi.sourceforge.net/DTD/sodipodi-0.dtd"
   xmlns:xlink="http://www.w3.org/1999/xlink"
   xmlns="http://www.w3.org/2000/svg"
   xmlns:svg="http://www.w3.org/2000/svg"
   xmlns:rdf="http://www.w3.org/1999/02/22-rdf-syntax-ns#"
   xmlns:cc="http://creativecommons.org/ns#"
   xmlns:dc="http://purl.org/dc/elements/1.1/">
  <metadata
     id="metadata77">
    <rdf:RDF>
      <cc:Work
         rdf:about="">
        <dc:format>image/svg+xml</dc:format>
        <dc:type
           rdf:resource="http://purl.org/dc/dcmitype/StillImage" />
      </cc:Work>
    </rdf:RDF>
  </metadata>
  <sodipodi:namedview
     pagecolor="#f5f7fa"
     bordercolor="#666666"
     borderopacity="1"
     objecttolerance="10"
     gridtolerance="10"
     guidetolerance="10"
     inkscape:pageopacity="0"
     inkscape:pageshadow="2"
     inkscape:window-width="1414"
     inkscape:window-height="797"
     id="namedview75"
     showgrid="false"
     inkscape:zoom="6.2890624"
     inkscape:cx="34.345342"
     inkscape:cy="29.734162"
     inkscape:window-x="24"
     inkscape:window-y="21"
     inkscape:window-maximized="0"
     inkscape:current-layer="svg73"
     inkscape:document-rotation="0"
     inkscape:pagecheckerboard="0"
     inkscape:showpageshadow="2"
     inkscape:deskcolor="#d1d1d1" />
  <defs
     id="defs29">
    <linearGradient
       id="linearGradient4"
       inkscape:collect="always">
      <stop
         style="stop-color:#635eac;stop-opacity:1;"
         offset="0"
         id="stop4" />
      <stop
         style="stop-color:#8581c1;stop-opacity:1;"
         offset="0.5"
         id="stop1" />
    </linearGradient>
    <linearGradient
       id="linearGradient2"
       inkscape:collect="always">
      <stop
         style="stop-color:#edecf4;stop-opacity:1;"
         offset="0"
         id="stop2" />
      <stop
         style="stop-color:#d9d8e9;stop-opacity:1;"
         offset="1"
         id="stop3" />
    </linearGradient>
    <linearGradient
       inkscape:collect="always"
       xlink:href="#linearGradient2"
       id="linearGradient8"
       x1="31.721739"
       y1="5.2278585"
       x2="31.88887"
       y2="59.145416"
       gradientUnits="userSpaceOnUse"
       gradientTransform="matrix(0.8505,0,0,0.8505,4.7765033,4.7794869)" />
    <filter
       style="color-interpolation-filters:sRGB;"
       inkscape:label="Blur"
       id="filter9"
       x="-0.047762285"
       y="-0.047489063"
       width="1.0955246"
       height="1.0949781">
      <feGaussianBlur
         stdDeviation="1 1"
         result="blur"
         id="feGaussianBlur9" />
    </filter>
    <linearGradient
       inkscape:collect="always"
       xlink:href="#linearGradient4"
       id="linearGradient7"
       x1="26.723248"
       y1="58.711765"
       x2="25.756926"
       y2="5.950614"
       gradientUnits="userSpaceOnUse" />
    <filter
       style="color-interpolation-filters:sRGB;"
       inkscape:label="Out of Focus"
       id="filter40"
       x="-0.24226652"
       y="-0.2858297"
       width="1.484533"
       height="1.5716594">
      <feFlood
         flood-opacity="1"
         flood-color="rgb(255,255,255)"
         result="flood"
         id="feFlood38" />
      <feColorMatrix
         in="SourceGraphic"
         values="1 0 0 0 0 0 1 0 0 0 0 0 1 0 0 -0.2125 -0.7154 -0.0721 1 0 "
         result="colormatrix1"
         id="feColorMatrix38" />
      <feGaussianBlur
         in="colormatrix1"
         stdDeviation="3 3"
         result="blur"
         id="feGaussianBlur38" />
      <feColorMatrix
         in="blur"
         values="1 0 0 0 0 0 1 0 0 0 0 0 1 0 0 0 0 0 6 -2 "
         result="colormatrix2"
         id="feColorMatrix39" />
      <feBlend
         in="colormatrix2"
         in2="flood"
         mode="normal"
         result="blend"
         id="feBlend39" />
      <feComposite
         in="blend"
         in2="blend"
         operator="arithmetic"
         k2="0.2"
         result="composite1"
         id="feComposite39" />
      <feComposite
         in2="SourceGraphic"
         operator="in"
         id="feComposite40" />
    </filter>
  </defs>
  <g
     id="g877"
     transform="matrix(1.1,0,0,1.1,-3.1845928,-3.2065454)">
    <ellipse
       style="opacity:0.5;fill:#000000;stroke:none;stroke-width:3.89319;stroke-dasharray:none;stroke-opacity:1;filter:url(#filter9)"
       id="path2-5"
       cx="31.949858"
       cy="31.969812"
       rx="25.124426"
       ry="25.268976"
       transform="matrix(1.05,0,0,1.05,-1.5974929,-1.5984906)" />
    <path
       style="fill:#f5f7fa;stroke-width:0.204426;fill-opacity:1"
       d=""
       id="path3" />
    <circle
       style="opacity:1;fill:url(#linearGradient8);stroke:url(#linearGradient7);stroke-width:3.81818;stroke-dasharray:none;stroke-opacity:1"
       id="path2"
       cx="31.949856"
       cy="31.969812"
       r="24.711082" />
    <ellipse
       style="opacity:0.3;fill:none;stroke:#000000;stroke-width:0.974376;stroke-dasharray:none;stroke-opacity:1"
       id="path2-9"
       cx="31.949856"
       cy="31.969812"
       rx="23.129124"
       ry="23.129126" />
  </g>
  <path
     style="fill:#000000;fill-opacity:1;stroke-width:0.06411;opacity:0.2"
     d="m 31.059672,43.595468 c -1.878418,-0.374877 -4.069193,-1.297978 -7.607731,-3.205575 -2.67535,-1.442261 -5.543828,-3.030362 -5.953556,-3.296128 -0.33989,-0.220462 -0.495592,-0.398479 -0.683843,-0.781856 -0.226891,-0.462071 -0.243749,-0.567337 -0.243749,-1.522161 0,-0.97289 0.131619,-1.711888 0.369845,-2.076582 0.05463,-0.08363 0.696889,0.199179 2.639362,1.162262 4.631996,2.296558 7.726674,3.496515 11.072617,4.293388 l 1.174327,0.27968 -0.348552,0.378136 c -0.53801,0.583671 -0.78752,1.209939 -0.830025,2.083346 -0.04542,0.933468 0.113226,1.504718 0.625858,2.253495 0.210469,0.307418 0.37331,0.555332 0.361869,0.550914 -0.01143,-0.0044 -0.27083,-0.05793 -0.576422,-0.118919 z m 1.79453,-0.123874 c -0.666655,-0.202786 -1.000708,-0.514049 -1.334735,-1.243656 -0.473126,-1.033442 -0.266968,-2.261456 0.506825,-3.018996 0.524133,-0.513126 0.855524,-0.619985 2.075353,-0.669219 0.603208,-0.02433 1.467181,-0.127927 2.019331,-0.242094 1.277037,-0.264045 8.875355,-1.921845 9.055056,-1.97563 0.187753,-0.05618 0.251846,-0.335276 0.118785,-0.517247 -0.117366,-0.160507 -0.04728,-0.174232 -7.353996,1.44 -2.493691,0.550919 -2.822216,0.604613 -3.718385,0.607748 -0.823144,0.0027 -1.062848,-0.0279 -1.473839,-0.189225 -0.9048,-0.355174 -1.331664,-1.003444 -1.409618,-2.140753 -0.0937,-1.366945 0.539049,-2.518033 1.655639,-3.011953 0.290784,-0.12863 5.833144,-1.224721 12.997918,-2.570549 1.078908,-0.202663 1.109993,-0.194357 1.400085,0.374267 0.285133,0.558912 0.192418,1.175822 -0.246756,1.641849 -0.30189,0.320347 -0.438541,0.367187 -1.805842,0.618958 -0.637533,0.117394 -3.351717,0.636622 -6.03152,1.153838 -4.990827,0.963259 -5.086067,0.988862 -5.086067,1.367189 0,0.310929 -0.431369,0.380947 9.231852,-1.498423 1.339902,-0.260593 2.623973,-0.474033 2.853492,-0.474308 0.366315,-4.19e-4 0.451705,0.03598 0.698803,0.29797 0.609573,0.646339 0.811888,1.875516 0.462419,2.809546 -0.346787,0.926864 -1.044708,1.470628 -2.577566,2.008206 -0.880942,0.308952 -1.554464,0.454008 -6.608693,1.423304 -3.937029,0.755043 -4.228552,0.838534 -4.099768,1.174143 0.02896,0.07549 0.09779,0.153787 0.152922,0.173956 0.150076,0.0549 6.658776,-1.14744 8.453514,-1.561618 0.85933,-0.198312 1.927846,-0.495156 2.37448,-0.659653 1.555309,-0.572833 1.571722,-0.573047 1.944673,-0.02538 0.22507,0.33051 0.241539,0.65876 0.06321,1.259335 -0.193284,0.650875 -0.486555,0.914883 -1.198321,1.078772 -0.327714,0.07547 -1.480563,0.346733 -2.561885,0.602838 -2.60198,0.616261 -5.404625,1.188247 -7.600476,1.551164 -1.751531,0.289482 -2.527915,0.3461 -2.956869,0.215618 z M 30.072227,37.35786 C 27.088252,36.584509 23.841623,35.283525 19.590011,33.157445 18.429736,32.577232 17.344873,31.9835 17.1792,31.838041 c -1.066096,-0.936047 -1.096037,-2.765492 -0.06333,-3.869539 0.478302,-0.511346 0.96384,-0.765993 1.805625,-0.94699 0.557367,-0.119841 9.462023,-1.833045 12.992977,-2.499772 1.58956,-0.300147 2.95174,-0.314432 3.970439,-0.04164 0.398098,0.106601 1.49538,0.576275 2.649883,1.134232 1.083737,0.523755 3.18211,1.526475 4.663055,2.228269 1.48094,0.701793 2.724289,1.30659 2.76299,1.343995 0.09415,0.091 0.239766,0.06031 -4.472596,0.942374 -6.456764,1.208581 -8.465374,1.621226 -8.945318,1.837707 -1.233196,0.556233 -2.091788,2.352617 -1.842756,3.855482 0.07658,0.462122 0.245314,0.898467 0.683339,1.767063 0.05344,0.105974 -0.144357,0.07108 -1.311282,-0.231363 z"
     id="path1-3" />
  <path
     style="fill:#4d4d4d;fill-opacity:1;stroke-width:0.06411"
     d="m 31.059672,41.595468 c -1.878418,-0.374877 -4.069193,-1.297978 -7.607731,-3.205575 -2.67535,-1.442261 -5.543828,-3.030362 -5.953556,-3.296128 -0.33989,-0.220462 -0.495592,-0.398479 -0.683843,-0.781856 -0.226891,-0.462071 -0.243749,-0.567337 -0.243749,-1.522161 0,-0.97289 0.131619,-1.711888 0.369845,-2.076582 0.05463,-0.08363 0.696889,0.199179 2.639362,1.162262 4.631996,2.296558 7.726674,3.496515 11.072617,4.293388 l 1.174327,0.27968 -0.348552,0.378136 c -0.53801,0.583671 -0.78752,1.209939 -0.830025,2.083346 -0.04542,0.933468 0.113226,1.504718 0.625858,2.253495 0.210469,0.307418 0.37331,0.555332 0.361869,0.550914 -0.01143,-0.0044 -0.27083,-0.05793 -0.576422,-0.118919 z m 1.79453,-0.123874 c -0.666655,-0.202786 -1.000708,-0.514049 -1.334735,-1.243656 -0.473126,-1.033442 -0.266968,-2.261456 0.506825,-3.018996 0.524133,-0.513126 0.855524,-0.619985 2.075353,-0.669219 0.603208,-0.02433 1.467181,-0.127927 2.019331,-0.242094 1.277037,-0.264045 8.875355,-1.921845 9.055056,-1.97563 0.187753,-0.05618 0.251846,-0.335276 0.118785,-0.517247 -0.117366,-0.160507 -0.04728,-0.174232 -7.353996,1.44 -2.493691,0.550919 -2.822216,0.604613 -3.718385,0.607748 -0.823144,0.0027 -1.062848,-0.0279 -1.473839,-0.189225 -0.9048,-0.355174 -1.331664,-1.003444 -1.409618,-2.140753 -0.0937,-1.366945 0.539049,-2.518033 1.655639,-3.011953 0.290784,-0.12863 5.833144,-1.224721 12.997918,-2.570549 1.078908,-0.202663 1.109993,-0.194357 1.400085,0.374267 0.285133,0.558912 0.192418,1.175822 -0.246756,1.641849 -0.30189,0.320347 -0.438541,0.367187 -1.805842,0.618958 -0.637533,0.117394 -3.351717,0.636622 -6.03152,1.153838 -4.990827,0.963259 -5.086067,0.988862 -5.086067,1.367189 0,0.310929 -0.431369,0.380947 9.231852,-1.498423 1.339902,-0.260593 2.623973,-0.474033 2.853492,-0.474308 0.366315,-4.19e-4 0.451705,0.03598 0.698803,0.29797 0.609573,0.646339 0.811888,1.875516 0.462419,2.809546 -0.346787,0.926864 -1.044708,1.470628 -2.577566,2.008206 -0.880942,0.308952 -1.554464,0.454008 -6.608693,1.423304 -3.937029,0.755043 -4.228552,0.838534 -4.099768,1.174143 0.02896,0.07549 0.09779,0.153787 0.152922,0.173956 0.150076,0.0549 6.658776,-1.14744 8.453514,-1.561618 0.85933,-0.198312 1.927846,-0.495156 2.37448,-0.659653 1.555309,-0.572833 1.571722,-0.573047 1.944673,-0.02538 0.22507,0.33051 0.241539,0.65876 0.06321,1.259335 -0.193284,0.650875 -0.486555,0.914883 -1.198321,1.078772 -0.327714,0.07547 -1.480563,0.346733 -2.561885,0.602838 -2.60198,0.616261 -5.404625,1.188247 -7.600476,1.551164 -1.751531,0.289482 -2.527915,0.3461 -2.956869,0.215618 z M 30.072227,35.35786 C 27.088252,34.584509 23.841623,33.283525 19.590011,31.157445 18.429736,30.577232 17.344873,29.9835 17.1792,29.838041 c -1.066096,-0.936047 -1.096037,-2.765492 -0.06333,-3.869539 0.478302,-0.511346 0.96384,-0.765993 1.805625,-0.94699 0.557367,-0.119841 9.462023,-1.833045 12.992977,-2.499772 1.58956,-0.300147 2.95174,-0.314432 3.970439,-0.04164 0.398098,0.106601 1.49538,0.576275 2.649883,1.134232 1.083737,0.523755 3.18211,1.526475 4.663055,2.228269 1.48094,0.701793 2.724289,1.30659 2.76299,1.343995 0.09415,0.091 0.239766,0.06031 -4.472596,0.942374 -6.456764,1.208581 -8.465374,1.621226 -8.945318,1.837707 -1.233196,0.556233 -2.091788,2.352617 -1.842756,3.855482 0.07658,0.462122 0.245314,0.898467 0.683339,1.767063 0.05344,0.105974 -0.144357,0.07108 -1.311282,-0.231363 z"
     id="path1" />
</svg>
