<?xml version="1.0" encoding="UTF-8" standalone="no"?>
<svg
   width="64"
   height="64"
   version="1.1"
   id="svg73"
   sodipodi:docname="abcd.svg"
   inkscape:version="1.4.2 (ebf0e940d0, 2025-05-08)"
   xmlns:inkscape="http://www.inkscape.org/namespaces/inkscape"
   xmlns:sodipodi="http://sodipodi.sourceforge.net/DTD/sodipodi-0.dtd"
   xmlns:xlink="http://www.w3.org/1999/xlink"
   xmlns="http://www.w3.org/2000/svg"
   xmlns:svg="http://www.w3.org/2000/svg"
   xmlns:rdf="http://www.w3.org/1999/02/22-rdf-syntax-ns#"
   xmlns:cc="http://creativecommons.org/ns#"
   xmlns:dc="http://purl.org/dc/elements/1.1/">
  <metadata
     id="metadata77">
    <rdf:RDF>
      <cc:Work
         rdf:about="">
        <dc:format>image/svg+xml</dc:format>
        <dc:type
           rdf:resource="http://purl.org/dc/dcmitype/StillImage" />
      </cc:Work>
    </rdf:RDF>
  </metadata>
  <sodipodi:namedview
     pagecolor="#f5f7fa"
     bordercolor="#666666"
     borderopacity="1"
     objecttolerance="10"
     gridtolerance="10"
     guidetolerance="10"
     inkscape:pageopacity="0"
     inkscape:pageshadow="2"
     inkscape:window-width="1920"
     inkscape:window-height="931"
     id="namedview75"
     showgrid="false"
     inkscape:zoom="6.2890624"
     inkscape:cx="53.505591"
     inkscape:cy="29.734162"
     inkscape:window-x="0"
     inkscape:window-y="0"
     inkscape:window-maximized="1"
     inkscape:current-layer="svg73"
     inkscape:document-rotation="0"
     inkscape:pagecheckerboard="0"
     inkscape:showpageshadow="2"
     inkscape:deskcolor="#d1d1d1" />
  <defs
     id="defs29">
    <linearGradient
       id="linearGradient4"
       inkscape:collect="always">
      <stop
         style="stop-color:#635eac;stop-opacity:1;"
         offset="0"
         id="stop4" />
      <stop
         style="stop-color:#8581c1;stop-opacity:1;"
         offset="0.5"
         id="stop1" />
    </linearGradient>
    <linearGradient
       id="linearGradient2"
       inkscape:collect="always">
      <stop
         style="stop-color:#edecf4;stop-opacity:1;"
         offset="0"
         id="stop2" />
      <stop
         style="stop-color:#d9d8e9;stop-opacity:1;"
         offset="1"
         id="stop3" />
    </linearGradient>
    <linearGradient
       inkscape:collect="always"
       xlink:href="#linearGradient2"
       id="linearGradient8"
       x1="31.721739"
       y1="5.2278585"
       x2="31.88887"
       y2="59.145416"
       gradientUnits="userSpaceOnUse"
       gradientTransform="matrix(0.8505,0,0,0.8505,4.7765033,4.7794869)" />
    <filter
       style="color-interpolation-filters:sRGB;"
       inkscape:label="Blur"
       id="filter9"
       x="-0.047762285"
       y="-0.047489063"
       width="1.0955246"
       height="1.0949781">
      <feGaussianBlur
         stdDeviation="1 1"
         result="blur"
         id="feGaussianBlur9" />
    </filter>
    <linearGradient
       inkscape:collect="always"
       xlink:href="#linearGradient4"
       id="linearGradient7"
       x1="26.723248"
       y1="58.711765"
       x2="25.756926"
       y2="5.950614"
       gradientUnits="userSpaceOnUse" />
    <filter
       style="color-interpolation-filters:sRGB;"
       inkscape:label="Out of Focus"
       id="filter40"
       x="-0.24226652"
       y="-0.2858297"
       width="1.484533"
       height="1.5716594">
      <feFlood
         flood-opacity="1"
         flood-color="rgb(255,255,255)"
         result="flood"
         id="feFlood38" />
      <feColorMatrix
         in="SourceGraphic"
         values="1 0 0 0 0 0 1 0 0 0 0 0 1 0 0 -0.2125 -0.7154 -0.0721 1 0 "
         result="colormatrix1"
         id="feColorMatrix38" />
      <feGaussianBlur
         in="colormatrix1"
         stdDeviation="3 3"
         result="blur"
         id="feGaussianBlur38" />
      <feColorMatrix
         in="blur"
         values="1 0 0 0 0 0 1 0 0 0 0 0 1 0 0 0 0 0 6 -2 "
         result="colormatrix2"
         id="feColorMatrix39" />
      <feBlend
         in="colormatrix2"
         in2="flood"
         mode="normal"
         result="blend"
         id="feBlend39" />
      <feComposite
         in="blend"
         in2="blend"
         operator="arithmetic"
         k2="0.2"
         result="composite1"
         id="feComposite39" />
      <feComposite
         in2="SourceGraphic"
         operator="in"
         id="feComposite40" />
    </filter>
  </defs>
  <g
     id="g877"
     transform="matrix(1.1,0,0,1.1,-3.1845928,-3.2065454)">
    <ellipse
       style="opacity:0.5;fill:#000000;stroke:none;stroke-width:3.89319;stroke-dasharray:none;stroke-opacity:1;filter:url(#filter9)"
       id="path2-5"
       cx="31.949858"
       cy="31.969812"
       rx="25.124426"
       ry="25.268976"
       transform="matrix(1.05,0,0,1.05,-1.5974929,-1.5984906)" />
    <path
       style="fill:#f5f7fa;stroke-width:0.204426;fill-opacity:1"
       d=""
       id="path3" />
    <circle
       style="opacity:1;fill:url(#linearGradient8);stroke:url(#linearGradient7);stroke-width:3.81818;stroke-dasharray:none;stroke-opacity:1"
       id="path2"
       cx="31.949856"
       cy="31.969812"
       r="24.711082" />
    <ellipse
       style="opacity:0.3;fill:none;stroke:#000000;stroke-width:0.974376;stroke-dasharray:none;stroke-opacity:1"
       id="path2-9"
       cx="31.949856"
       cy="31.969812"
       rx="23.129124"
       ry="23.129126" />
  </g>
  <path
     style="fill:#000000;fill-opacity:1;stroke:none;stroke-width:0.500407;stroke-dasharray:none;stroke-opacity:0.6;opacity:0.2"
     d="m 18.201757,48.063985 c -0.735645,-0.23662 -1.286518,-0.81561 -1.474633,-1.549887 -0.06883,-0.268655 -0.07731,-0.743564 -0.06484,-3.627471 0.01424,-3.306042 0.01472,-3.319382 0.127365,-3.59555 0.228066,-0.559275 0.71385,-1.045023 1.272931,-1.272847 0.270228,-0.110114 0.337246,-0.113586 2.667494,-0.13824 l 2.390295,-0.02526 2.260331,-3.849972 c 1.243178,-2.117496 2.253591,-3.85672 2.245361,-3.864954 -0.0085,-0.0085 -0.125923,-0.06253 -0.261523,-0.120651 -0.575959,-0.246892 -1.006666,-0.703373 -1.221125,-1.294208 L 26.025586,28.400349 V 25.00861 c 0,-3.198876 0.0058,-3.407537 0.09558,-3.669572 0.240206,-0.698168 0.782236,-1.222152 1.47153,-1.422533 0.250603,-0.07287 0.7392,-0.0801 4.560458,-0.06788 l 4.279783,0.01372 0.340938,0.166727 c 0.661363,0.323424 1.132426,0.956446 1.244851,1.672829 0.03062,0.196134 0.05122,1.541044 0.05091,3.351524 -5.21e-4,3.228471 -0.01404,3.43902 -0.253066,3.913164 -0.248985,0.494083 -0.78919,0.967121 -1.268464,1.110717 -0.134937,0.04041 -0.186482,0.0805 -0.167425,0.130147 0.01511,0.03947 1.03099,1.781858 2.257445,3.87201 l 2.229911,3.80027 2.267943,7.16e-4 c 2.453176,7.93e-4 2.549326,0.0095 3.04201,0.27768 0.321178,0.174798 0.712416,0.565305 0.886092,0.884392 0.266176,0.489012 0.278455,0.664771 0.278455,3.978107 0,3.3274 -0.01111,3.487548 -0.285633,3.991257 -0.269809,0.49572 -0.710576,0.858491 -1.27349,1.048125 -0.303751,0.102322 -0.378846,0.103785 -4.58033,0.09008 L 36.931591,48.13606 36.5525,47.9487 c -0.469507,-0.232185 -0.84292,-0.611815 -1.067004,-1.08488 l -0.161353,-0.340613 -0.01397,-3.396899 c -0.01583,-3.853974 -0.02892,-3.707787 0.380289,-4.246667 0.472115,-0.621697 1.13902,-0.939993 2.067843,-0.986928 0.368037,-0.0186 0.514623,-0.04381 0.503986,-0.08675 -0.0084,-0.03329 -1.009821,-1.754181 -2.225729,-3.824228 l -2.210743,-3.763723 -1.765633,0.01324 -1.765635,0.01323 -2.234722,3.805111 -2.23472,3.805112 0.447683,0.03543 c 1.242564,0.09842 1.966577,0.504118 2.277475,1.276185 l 0.12126,0.301111 v 3.477529 3.47752 l -0.115589,0.30445 c -0.218402,0.575158 -0.695039,1.061447 -1.270377,1.296077 l -0.277193,0.113047 -4.2587,0.01089 c -4.018384,0.01023 -4.275018,0.0047 -4.54789,-0.08254 z"
     id="path2-2-1" />
  <path
     style="fill:#4d4d4d;fill-opacity:1;stroke:none;stroke-width:0.500407;stroke-dasharray:none;stroke-opacity:0.6"
     d="m 18.201757,46.063985 c -0.735645,-0.23662 -1.286518,-0.81561 -1.474633,-1.549887 -0.06883,-0.268655 -0.07731,-0.743564 -0.06484,-3.627471 0.01424,-3.306042 0.01472,-3.319382 0.127365,-3.59555 0.228066,-0.559275 0.71385,-1.045023 1.272931,-1.272847 0.270228,-0.110114 0.337246,-0.113586 2.667494,-0.13824 l 2.390295,-0.02526 2.260331,-3.849972 c 1.243178,-2.117496 2.253591,-3.85672 2.245361,-3.864954 -0.0085,-0.0085 -0.125923,-0.06253 -0.261523,-0.120651 -0.575959,-0.246892 -1.006666,-0.703373 -1.221125,-1.294208 L 26.025586,26.400349 V 23.00861 c 0,-3.198876 0.0058,-3.407537 0.09558,-3.669572 0.240206,-0.698168 0.782236,-1.222152 1.47153,-1.422533 0.250603,-0.07287 0.7392,-0.0801 4.560458,-0.06788 l 4.279783,0.01372 0.340938,0.166727 c 0.661363,0.323424 1.132426,0.956446 1.244851,1.672829 0.03062,0.196134 0.05122,1.541044 0.05091,3.351524 -5.21e-4,3.228471 -0.01404,3.43902 -0.253066,3.913164 -0.248985,0.494083 -0.78919,0.967121 -1.268464,1.110717 -0.134937,0.04041 -0.186482,0.0805 -0.167425,0.130147 0.01511,0.03947 1.03099,1.781858 2.257445,3.87201 l 2.229911,3.80027 2.267943,7.16e-4 c 2.453176,7.93e-4 2.549326,0.0095 3.04201,0.27768 0.321178,0.174798 0.712416,0.565305 0.886092,0.884392 0.266176,0.489012 0.278455,0.664771 0.278455,3.978107 0,3.3274 -0.01111,3.487548 -0.285633,3.991257 -0.269809,0.49572 -0.710576,0.858491 -1.27349,1.048125 -0.303751,0.102322 -0.378846,0.103785 -4.58033,0.09008 L 36.931591,46.13606 36.5525,45.9487 c -0.469507,-0.232185 -0.84292,-0.611815 -1.067004,-1.08488 l -0.161353,-0.340613 -0.01397,-3.396899 c -0.01583,-3.853974 -0.02892,-3.707787 0.380289,-4.246667 0.472115,-0.621697 1.13902,-0.939993 2.067843,-0.986928 0.368037,-0.0186 0.514623,-0.04381 0.503986,-0.08675 -0.0084,-0.03329 -1.009821,-1.754181 -2.225729,-3.824228 l -2.210743,-3.763723 -1.765633,0.01324 -1.765635,0.01323 -2.234722,3.805111 -2.23472,3.805112 0.447683,0.03543 c 1.242564,0.09842 1.966577,0.504118 2.277475,1.276185 l 0.12126,0.301111 v 3.477529 3.47752 l -0.115589,0.30445 c -0.218402,0.575158 -0.695039,1.061447 -1.270377,1.296077 l -0.277193,0.113047 -4.2587,0.01089 c -4.018384,0.01023 -4.275018,0.0047 -4.54789,-0.08254 z"
     id="path2-2" />
</svg>
