<?xml version="1.0" encoding="UTF-8" standalone="no"?>
<svg
   width="64"
   height="64"
   version="1.1"
   id="svg73"
   sodipodi:docname="abcd.svg"
   inkscape:version="1.4.2 (ebf0e940d0, 2025-05-08)"
   xmlns:inkscape="http://www.inkscape.org/namespaces/inkscape"
   xmlns:sodipodi="http://sodipodi.sourceforge.net/DTD/sodipodi-0.dtd"
   xmlns:xlink="http://www.w3.org/1999/xlink"
   xmlns="http://www.w3.org/2000/svg"
   xmlns:svg="http://www.w3.org/2000/svg"
   xmlns:rdf="http://www.w3.org/1999/02/22-rdf-syntax-ns#"
   xmlns:cc="http://creativecommons.org/ns#"
   xmlns:dc="http://purl.org/dc/elements/1.1/">
  <metadata
     id="metadata77">
    <rdf:RDF>
      <cc:Work
         rdf:about="">
        <dc:format>image/svg+xml</dc:format>
        <dc:type
           rdf:resource="http://purl.org/dc/dcmitype/StillImage" />
      </cc:Work>
    </rdf:RDF>
  </metadata>
  <sodipodi:namedview
     pagecolor="#f5f7fa"
     bordercolor="#666666"
     borderopacity="1"
     objecttolerance="10"
     gridtolerance="10"
     guidetolerance="10"
     inkscape:pageopacity="0"
     inkscape:pageshadow="2"
     inkscape:window-width="1462"
     inkscape:window-height="840"
     id="namedview75"
     showgrid="false"
     inkscape:zoom="6.2890624"
     inkscape:cx="53.585094"
     inkscape:cy="29.654659"
     inkscape:window-x="24"
     inkscape:window-y="21"
     inkscape:window-maximized="0"
     inkscape:current-layer="svg73"
     inkscape:document-rotation="0"
     inkscape:pagecheckerboard="0"
     inkscape:showpageshadow="2"
     inkscape:deskcolor="#d1d1d1" />
  <defs
     id="defs29">
    <linearGradient
       id="linearGradient4"
       inkscape:collect="always">
      <stop
         style="stop-color:#635eac;stop-opacity:1;"
         offset="0"
         id="stop4" />
      <stop
         style="stop-color:#8581c1;stop-opacity:1;"
         offset="0.5"
         id="stop1" />
    </linearGradient>
    <linearGradient
       id="linearGradient2"
       inkscape:collect="always">
      <stop
         style="stop-color:#edecf4;stop-opacity:1;"
         offset="0"
         id="stop2" />
      <stop
         style="stop-color:#d9d8e9;stop-opacity:1;"
         offset="1"
         id="stop3" />
    </linearGradient>
    <linearGradient
       inkscape:collect="always"
       xlink:href="#linearGradient2"
       id="linearGradient8"
       x1="31.721739"
       y1="5.2278585"
       x2="31.88887"
       y2="59.145416"
       gradientUnits="userSpaceOnUse"
       gradientTransform="matrix(0.8505,0,0,0.8505,4.7765033,4.7794869)" />
    <filter
       style="color-interpolation-filters:sRGB;"
       inkscape:label="Blur"
       id="filter9"
       x="-0.047762285"
       y="-0.047489063"
       width="1.0955246"
       height="1.0949781">
      <feGaussianBlur
         stdDeviation="1 1"
         result="blur"
         id="feGaussianBlur9" />
    </filter>
    <linearGradient
       inkscape:collect="always"
       xlink:href="#linearGradient4"
       id="linearGradient7"
       x1="26.723248"
       y1="58.711765"
       x2="25.756926"
       y2="5.950614"
       gradientUnits="userSpaceOnUse" />
  </defs>
  <g
     id="g877"
     transform="matrix(1.1,0,0,1.1,-3.1845928,-3.2065454)">
    <ellipse
       style="opacity:0.5;fill:#000000;stroke:none;stroke-width:3.89319;stroke-dasharray:none;stroke-opacity:1;filter:url(#filter9)"
       id="path2-5"
       cx="31.949858"
       cy="31.969812"
       rx="25.124426"
       ry="25.268976"
       transform="matrix(1.05,0,0,1.05,-1.5974929,-1.5984906)" />
    <path
       style="fill:#f5f7fa;stroke-width:0.204426;fill-opacity:1"
       d=""
       id="path3" />
    <circle
       style="opacity:1;fill:url(#linearGradient8);stroke:url(#linearGradient7);stroke-width:3.81818;stroke-dasharray:none;stroke-opacity:1"
       id="path2"
       cx="31.949856"
       cy="31.969812"
       r="24.711082" />
    <ellipse
       style="opacity:0.3;fill:none;stroke:#000000;stroke-width:0.974376;stroke-dasharray:none;stroke-opacity:1"
       id="path2-9"
       cx="31.949856"
       cy="31.969812"
       rx="23.129124"
       ry="23.129126" />
  </g>
  <path
     id="path4-6"
     style="fill:#000000;fill-opacity:1;stroke:none;stroke-width:0.500407;stroke-dasharray:none;stroke-opacity:0.6;opacity:0.2"
     d="m 33.369928,19.316377 c -0.861927,0.01511 -1.915581,0.11728 -2.646893,0.268012 -1.711485,0.352752 -3.821942,1.260881 -5.435053,2.3394 l -0.814426,0.545377 -0.510058,-0.289828 c -0.280379,-0.159318 -1.041802,-0.60274 -1.692221,-0.984792 -2.426055,-1.425055 -3.256333,-1.753901 -4.571805,-1.811689 l -0.897534,-0.03947 0.08102,0.362544 c 0.116294,0.517585 0.709554,1.858714 1.191516,2.694677 1.209191,2.097337 2.659953,3.597099 3.81555,3.943326 0.204377,0.06122 0.371891,0.132178 0.371891,0.157896 0,0.02574 -0.17202,0.267973 -0.382281,0.538103 -2.111556,2.712778 -3.184833,6.01276 -2.758043,8.481885 0.447492,2.588864 2.416801,6.553844 3.992152,8.037279 1.297793,1.222076 2.594522,1.596604 4.579075,1.322412 0.942647,-0.130199 1.322373,-0.249396 2.458865,-0.769761 1.152173,-0.527492 1.922798,-0.727806 2.794401,-0.727167 0.78659,5.36e-4 1.209287,0.213673 1.972698,0.995177 0.347629,0.355881 0.703119,0.700171 0.789498,0.764563 0.08639,0.06443 0.523449,0.16803 0.971287,0.231631 1.112474,0.157854 4.069691,0.104269 5.184709,-0.09451 1.047741,-0.186785 2.536986,-0.672221 3.227578,-1.051273 0.610238,-0.334967 1.026741,-0.876874 1.455376,-1.89375 0.502182,-1.191375 0.640016,-1.876271 0.650296,-3.237975 0.01056,-1.367618 -0.129372,-2.008783 -0.673146,-3.087353 -1.303881,-2.586116 -4.197622,-4.700704 -7.620717,-5.569042 -3.247057,-0.823684 -7.002243,-0.569041 -9.709762,0.658604 -1.171995,0.53141 -2.669989,1.646829 -3.1424,2.340441 -0.117544,0.172583 -0.259593,0.314429 -0.315799,0.314759 -0.2005,0.0011 -0.88598,-0.877419 -1.079323,-1.382655 -0.478884,-1.251401 -0.432715,-3.092765 0.126735,-5.041348 l 0.132966,-0.46331 h 0.461235 c 0.626219,-4.84e-4 1.943871,-0.221695 2.536773,-0.425912 1.072678,-0.369465 2.242772,-1.076572 3.296147,-1.990359 1.007765,-0.874222 2.46241,-2.776111 3.392752,-4.436762 l 0.351119,-0.627439 -0.805078,-0.0561 c -0.225817,-0.01565 -0.491799,-0.0206 -0.779106,-0.01553 z m 2.735183,12.008647 c 0.62381,0.0087 1.283359,0.185513 1.602887,0.525639 0.257053,0.2736 0.215461,0.639377 -0.09974,0.873639 -0.308885,0.229606 -1.439059,0.292995 -1.993471,0.112199 -0.74375,-0.242549 -1.101239,-0.650646 -0.899614,-1.027387 0.178289,-0.333133 0.76612,-0.49285 1.389931,-0.484086 z m -16.299971,7.92612 c -0.01608,0.02584 0.06596,0.269748 0.249319,0.731326 1.935321,4.871905 5.992237,7.889254 11.50171,8.556677 4.422647,0.535769 9.056531,-0.425112 11.891256,-2.466127 0.674369,-0.485557 1.501429,-1.259924 1.242421,-1.16347 -1.968698,0.733165 -3.311814,0.964021 -5.651124,0.972322 -2.879382,0.01056 -3.521078,-0.1561 -4.357814,-1.129183 -0.235821,-0.274182 -0.584472,-0.602157 -0.774952,-0.728206 -0.304173,-0.201265 -0.429796,-0.227421 -1.030501,-0.216064 -0.829285,0.01531 -1.513795,0.18522 -2.245909,0.554721 -0.809546,0.408643 -1.616839,0.695543 -2.354982,0.837272 -0.915181,0.175716 -2.660146,0.168381 -3.275369,-0.01404 -1.732594,-0.511708 -3.176629,-2.055317 -4.645564,-4.963946 -0.343573,-0.680298 -0.527752,-1.005031 -0.548491,-0.971282 z m 12.884366,5.385196 c 0.585347,0.04 0.962976,0.461727 0.962976,1.112565 0,0.415489 -0.257574,0.779559 -0.674187,0.953634 -0.381301,0.159288 -0.54322,0.15409 -0.908959,-0.03263 -0.944996,-0.481517 -0.693433,-1.909319 0.357347,-2.027758 0.09163,-0.01056 0.179195,-0.01181 0.262825,-0.0065 z" />
  <path
     id="path4"
     style="fill:#4d4d4d;fill-opacity:1;stroke:none;stroke-width:0.500407;stroke-dasharray:none;stroke-opacity:0.6"
     d="m 33.369928,17.316377 c -0.861927,0.01511 -1.915581,0.11728 -2.646893,0.268012 -1.711485,0.352752 -3.821942,1.260881 -5.435053,2.3394 l -0.814426,0.545377 -0.510058,-0.289828 c -0.280379,-0.159318 -1.041802,-0.60274 -1.692221,-0.984792 -2.426055,-1.425055 -3.256333,-1.753901 -4.571805,-1.811689 l -0.897534,-0.03947 0.08102,0.362544 c 0.116294,0.517585 0.709554,1.858714 1.191516,2.694677 1.209191,2.097337 2.659953,3.597099 3.81555,3.943326 0.204377,0.06122 0.371891,0.132178 0.371891,0.157896 0,0.02574 -0.17202,0.267973 -0.382281,0.538103 -2.111556,2.712778 -3.184833,6.01276 -2.758043,8.481885 0.447492,2.588864 2.416801,6.553844 3.992152,8.037279 1.297793,1.222076 2.594522,1.596604 4.579075,1.322412 0.942647,-0.130199 1.322373,-0.249396 2.458865,-0.769761 1.152173,-0.527492 1.922798,-0.727806 2.794401,-0.727167 0.78659,5.36e-4 1.209287,0.213673 1.972698,0.995177 0.347629,0.355881 0.703119,0.700171 0.789498,0.764563 0.08639,0.06443 0.523449,0.16803 0.971287,0.231631 1.112474,0.157854 4.069691,0.104269 5.184709,-0.09451 1.047741,-0.186785 2.536986,-0.672221 3.227578,-1.051273 0.610238,-0.334967 1.026741,-0.876874 1.455376,-1.89375 0.502182,-1.191375 0.640016,-1.876271 0.650296,-3.237975 0.01056,-1.367618 -0.129372,-2.008783 -0.673146,-3.087353 -1.303881,-2.586116 -4.197622,-4.700704 -7.620717,-5.569042 -3.247057,-0.823684 -7.002243,-0.569041 -9.709762,0.658604 -1.171995,0.53141 -2.669989,1.646829 -3.1424,2.340441 -0.117544,0.172583 -0.259593,0.314429 -0.315799,0.314759 -0.2005,0.0011 -0.88598,-0.877419 -1.079323,-1.382655 -0.478884,-1.251401 -0.432715,-3.092765 0.126735,-5.041348 l 0.132966,-0.46331 h 0.461235 c 0.626219,-4.84e-4 1.943871,-0.221695 2.536773,-0.425912 1.072678,-0.369465 2.242772,-1.076572 3.296147,-1.990359 1.007765,-0.874222 2.46241,-2.776111 3.392752,-4.436762 l 0.351119,-0.627439 -0.805078,-0.0561 c -0.225817,-0.01565 -0.491799,-0.0206 -0.779106,-0.01553 z m 2.735183,12.008647 c 0.62381,0.0087 1.283359,0.185513 1.602887,0.525639 0.257053,0.2736 0.215461,0.639377 -0.09974,0.873639 -0.308885,0.229606 -1.439059,0.292995 -1.993471,0.112199 -0.74375,-0.242549 -1.101239,-0.650646 -0.899614,-1.027387 0.178289,-0.333133 0.76612,-0.49285 1.389931,-0.484086 z m -16.299971,7.92612 c -0.01608,0.02584 0.06596,0.269748 0.249319,0.731326 1.935321,4.871905 5.992237,7.889254 11.50171,8.556677 4.422647,0.535769 9.056531,-0.425112 11.891256,-2.466127 0.674369,-0.485557 1.501429,-1.259924 1.242421,-1.16347 -1.968698,0.733165 -3.311814,0.964021 -5.651124,0.972322 -2.879382,0.01056 -3.521078,-0.1561 -4.357814,-1.129183 -0.235821,-0.274182 -0.584472,-0.602157 -0.774952,-0.728206 -0.304173,-0.201265 -0.429796,-0.227421 -1.030501,-0.216064 -0.829285,0.01531 -1.513795,0.18522 -2.245909,0.554721 -0.809546,0.408643 -1.616839,0.695543 -2.354982,0.837272 -0.915181,0.175716 -2.660146,0.168381 -3.275369,-0.01404 -1.732594,-0.511708 -3.176629,-2.055317 -4.645564,-4.963946 -0.343573,-0.680298 -0.527752,-1.005031 -0.548491,-0.971282 z m 12.884366,5.385196 c 0.585347,0.04 0.962976,0.461727 0.962976,1.112565 0,0.415489 -0.257574,0.779559 -0.674187,0.953634 -0.381301,0.159288 -0.54322,0.15409 -0.908959,-0.03263 -0.944996,-0.481517 -0.693433,-1.909319 0.357347,-2.027758 0.09163,-0.01056 0.179195,-0.01181 0.262825,-0.0065 z" />
</svg>
