<?xml version="1.0" encoding="UTF-8" standalone="no"?>
<svg
   width="64"
   height="64"
   version="1.1"
   id="svg73"
   sodipodi:docname="abcd.svg"
   inkscape:version="1.4.2 (ebf0e940d0, 2025-05-08)"
   xmlns:inkscape="http://www.inkscape.org/namespaces/inkscape"
   xmlns:sodipodi="http://sodipodi.sourceforge.net/DTD/sodipodi-0.dtd"
   xmlns:xlink="http://www.w3.org/1999/xlink"
   xmlns="http://www.w3.org/2000/svg"
   xmlns:svg="http://www.w3.org/2000/svg"
   xmlns:rdf="http://www.w3.org/1999/02/22-rdf-syntax-ns#"
   xmlns:cc="http://creativecommons.org/ns#"
   xmlns:dc="http://purl.org/dc/elements/1.1/">
  <metadata
     id="metadata77">
    <rdf:RDF>
      <cc:Work
         rdf:about="">
        <dc:format>image/svg+xml</dc:format>
        <dc:type
           rdf:resource="http://purl.org/dc/dcmitype/StillImage" />
      </cc:Work>
    </rdf:RDF>
  </metadata>
  <sodipodi:namedview
     pagecolor="#f5f7fa"
     bordercolor="#666666"
     borderopacity="1"
     objecttolerance="10"
     gridtolerance="10"
     guidetolerance="10"
     inkscape:pageopacity="0"
     inkscape:pageshadow="2"
     inkscape:window-width="1462"
     inkscape:window-height="840"
     id="namedview75"
     showgrid="false"
     inkscape:zoom="6.2890624"
     inkscape:cx="53.585094"
     inkscape:cy="29.654659"
     inkscape:window-x="24"
     inkscape:window-y="21"
     inkscape:window-maximized="0"
     inkscape:current-layer="svg73"
     inkscape:document-rotation="0"
     inkscape:pagecheckerboard="0"
     inkscape:showpageshadow="2"
     inkscape:deskcolor="#d1d1d1" />
  <defs
     id="defs29">
    <linearGradient
       id="linearGradient4"
       inkscape:collect="always">
      <stop
         style="stop-color:#635eac;stop-opacity:1;"
         offset="0"
         id="stop4" />
      <stop
         style="stop-color:#8581c1;stop-opacity:1;"
         offset="0.5"
         id="stop1" />
    </linearGradient>
    <linearGradient
       id="linearGradient2"
       inkscape:collect="always">
      <stop
         style="stop-color:#edecf4;stop-opacity:1;"
         offset="0"
         id="stop2" />
      <stop
         style="stop-color:#d9d8e9;stop-opacity:1;"
         offset="1"
         id="stop3" />
    </linearGradient>
    <linearGradient
       inkscape:collect="always"
       xlink:href="#linearGradient2"
       id="linearGradient8"
       x1="31.721739"
       y1="5.2278585"
       x2="31.88887"
       y2="59.145416"
       gradientUnits="userSpaceOnUse"
       gradientTransform="matrix(0.8505,0,0,0.8505,4.7765033,4.7794869)" />
    <filter
       style="color-interpolation-filters:sRGB;"
       inkscape:label="Blur"
       id="filter9"
       x="-0.047762285"
       y="-0.047489063"
       width="1.0955246"
       height="1.0949781">
      <feGaussianBlur
         stdDeviation="1 1"
         result="blur"
         id="feGaussianBlur9" />
    </filter>
    <linearGradient
       inkscape:collect="always"
       xlink:href="#linearGradient4"
       id="linearGradient7"
       x1="26.723248"
       y1="58.711765"
       x2="25.756926"
       y2="5.950614"
       gradientUnits="userSpaceOnUse" />
    <filter
       style="color-interpolation-filters:sRGB;"
       inkscape:label="Out of Focus"
       id="filter40"
       x="-0.24226652"
       y="-0.2858297"
       width="1.484533"
       height="1.5716594">
      <feFlood
         flood-opacity="1"
         flood-color="rgb(255,255,255)"
         result="flood"
         id="feFlood38" />
      <feColorMatrix
         in="SourceGraphic"
         values="1 0 0 0 0 0 1 0 0 0 0 0 1 0 0 -0.2125 -0.7154 -0.0721 1 0 "
         result="colormatrix1"
         id="feColorMatrix38" />
      <feGaussianBlur
         in="colormatrix1"
         stdDeviation="3 3"
         result="blur"
         id="feGaussianBlur38" />
      <feColorMatrix
         in="blur"
         values="1 0 0 0 0 0 1 0 0 0 0 0 1 0 0 0 0 0 6 -2 "
         result="colormatrix2"
         id="feColorMatrix39" />
      <feBlend
         in="colormatrix2"
         in2="flood"
         mode="normal"
         result="blend"
         id="feBlend39" />
      <feComposite
         in="blend"
         in2="blend"
         operator="arithmetic"
         k2="0.2"
         result="composite1"
         id="feComposite39" />
      <feComposite
         in2="SourceGraphic"
         operator="in"
         id="feComposite40" />
    </filter>
  </defs>
  <g
     id="g877"
     transform="matrix(1.1,0,0,1.1,-3.1845928,-3.2065454)">
    <ellipse
       style="opacity:0.5;fill:#000000;stroke:none;stroke-width:3.89319;stroke-dasharray:none;stroke-opacity:1;filter:url(#filter9)"
       id="path2-5"
       cx="31.949858"
       cy="31.969812"
       rx="25.124426"
       ry="25.268976"
       transform="matrix(1.05,0,0,1.05,-1.5974929,-1.5984906)" />
    <path
       style="fill:#f5f7fa;stroke-width:0.204426;fill-opacity:1"
       d=""
       id="path3" />
    <circle
       style="opacity:1;fill:url(#linearGradient8);stroke:url(#linearGradient7);stroke-width:3.81818;stroke-dasharray:none;stroke-opacity:1"
       id="path2"
       cx="31.949856"
       cy="31.969812"
       r="24.711082" />
    <ellipse
       style="opacity:0.3;fill:none;stroke:#000000;stroke-width:0.974376;stroke-dasharray:none;stroke-opacity:1"
       id="path2-9"
       cx="31.949856"
       cy="31.969812"
       rx="23.129124"
       ry="23.129126" />
  </g>
  <path
     style="fill:#000000;fill-opacity:1;stroke:none;stroke-width:0.48139;stroke-dasharray:none;stroke-dashoffset:2.2;stroke-opacity:0.6;opacity:0.2"
     d="M 31.617472,49.54578 C 31.240007,49.455442 31.135879,49.388896 27.34047,46.812979 23.993706,44.54156 22.966043,43.657732 22.479657,42.632514 22.224854,42.095428 20.843818,36.989428 19.330074,30.987799 l -0.688304,-2.728953 0.432603,-1.242142 c 0.237928,-0.683176 0.432603,-1.323073 0.432603,-1.421991 0,-0.09892 -0.18553,-0.548855 -0.412289,-0.999853 -0.226756,-0.451002 -0.41229,-0.881478 -0.41229,-0.956615 0,-0.192678 2.346797,-2.480804 2.782951,-2.713377 0.501919,-0.267649 2.060975,-0.274913 2.572577,-0.012 l 0.356522,0.183208 1.34555,-1.342782 1.34555,-1.342784 h 4.893172 4.893175 l 1.346161,1.343398 1.346172,1.3434 0.501574,-0.221878 c 0.413216,-0.182786 0.639343,-0.213695 1.283558,-0.175467 0.47339,0.02814 0.92434,0.120428 1.142735,0.233996 0.430846,0.224045 1.838205,1.505467 2.438018,2.219853 l 0.428117,0.509895 -0.453882,0.88207 c -0.249614,0.485143 -0.453885,0.969854 -0.453885,1.077142 0,0.107283 0.185027,0.696768 0.411147,1.309956 0.226098,0.613195 0.411653,1.204683 0.412292,1.314426 0.0016,0.293238 -2.029904,8.267571 -3.257839,12.787569 -0.574916,2.116266 -1.024393,2.72173 -3.139878,4.229458 -2.43306,1.734076 -6.282992,4.274005 -6.478377,4.274005 -0.107844,0 -0.257857,0.01792 -0.333354,0.0408 -0.07549,0.02217 -0.27664,0.0075 -0.446985,-0.03309 z m 1.041662,-6.910562 c 0.221014,-0.168595 1.019734,-0.733404 1.774932,-1.255179 0.755198,-0.521771 1.566893,-1.122382 1.803767,-1.334693 0.53354,-0.478215 0.516187,-0.501254 -0.915774,-1.215702 -3.02269,-1.50811 -3.306052,-1.553482 -4.992498,-0.799353 -1.877782,0.839688 -2.937556,1.44163 -2.937556,1.668515 0,0.145205 0.482234,0.536754 1.708973,1.387616 0.939939,0.651936 1.909332,1.336071 2.154216,1.52032 0.552398,0.415601 0.887476,0.422408 1.40394,0.02825 z m -5.285698,-3.903789 c 0.236968,-0.161448 0.848297,-0.508831 1.358507,-0.771962 0.970629,-0.500592 2.536162,-1.755569 2.781268,-2.229553 0.198822,-0.384475 0.08517,-0.533336 -1.408591,-1.84464 -0.71896,-0.631151 -1.335874,-1.237894 -1.37092,-1.348316 -0.03864,-0.121685 0.12104,-0.673304 0.405319,-1.40034 0.64047,-1.638007 0.625781,-2.22592 -0.06455,-2.582896 -0.176728,-0.09138 -1.157585,-0.488452 -2.179686,-0.88236 -1.022099,-0.393909 -1.908146,-0.748446 -1.968981,-0.787858 -0.156518,-0.101376 0.752852,-0.207546 1.868854,-0.218165 0.85699,-0.0084 1.06135,0.03094 2.112981,0.403741 1.169598,0.414673 1.54062,0.668934 1.465214,1.004095 -0.02232,0.09944 -0.226789,1.000367 -0.454273,2.002119 -0.227478,1.001752 -0.413607,1.88958 -0.413607,1.972951 0,0.20501 0.617368,0.437706 1.69902,0.64039 0.836396,0.156727 0.951816,0.156284 1.686623,-0.0064 1.024278,-0.22688 1.561827,-0.445062 1.561827,-0.633912 0,-0.08338 -0.186126,-0.971197 -0.41361,-1.972949 -0.227484,-1.001741 -0.431906,-1.902695 -0.454274,-2.002104 -0.07649,-0.340023 0.297036,-0.596704 1.466123,-1.007481 0.974908,-0.34255 1.296388,-0.40939 1.969021,-0.40939 0.952804,0 2.070991,0.106161 2.070991,0.196639 0,0.0353 -0.243476,0.149789 -0.541136,0.2544 -1.689039,0.593695 -3.755971,1.466037 -3.962154,1.672219 -0.378604,0.378609 -0.320252,0.973529 0.229105,2.335796 0.283566,0.703178 0.44536,1.24735 0.411709,1.384774 -0.03051,0.124508 -0.600163,0.69932 -1.265948,1.27735 -1.450446,1.259266 -1.571275,1.389166 -1.571275,1.689248 0,0.322295 1.432141,1.671517 2.503484,2.35854 1.277554,0.819255 1.981789,1.199701 2.220722,1.199701 0.265075,0 1.409394,-1.001555 1.795454,-1.571463 0.581826,-0.858903 0.585496,-1.192278 0.02976,-2.731867 -0.196182,-0.54383 -0.242296,-0.798288 -0.169481,-0.934404 0.05504,-0.102883 0.764004,-0.785691 1.575445,-1.51737 0.811416,-0.731679 1.795224,-1.643527 2.186222,-2.026331 l 0.711076,-0.696008 -0.06095,-0.727078 c -0.03565,-0.42897 -0.151952,-0.909707 -0.28321,-1.172452 -0.41421,-0.829368 -3.358699,-4.729239 -3.657154,-4.843769 -0.06058,-0.0233 -0.826931,0.138182 -1.702842,0.358787 -0.875903,0.220603 -1.70641,0.401098 -1.845565,0.401098 -0.139153,0 -0.742136,-0.137374 -1.339965,-0.305279 -2.121173,-0.595792 -2.606383,-0.595612 -4.745941,0.0019 -0.595241,0.166191 -1.219291,0.30247 -1.386778,0.302843 -0.167486,3.69e-4 -0.793651,-0.137788 -1.391477,-0.30702 -0.597829,-0.169299 -1.310696,-0.34948 -1.584154,-0.400469 l -0.497195,-0.09271 -0.533528,0.676291 c -0.997294,1.264161 -2.539514,3.471996 -2.894907,4.14433 -0.487476,0.922223 -0.639458,1.556766 -0.470539,1.964577 0.07648,0.184614 0.993664,1.10266 2.219717,2.221775 1.149167,1.04894 2.116644,1.978162 2.14994,2.064941 0.03334,0.08678 -0.05878,0.489864 -0.204663,0.895754 -0.467522,1.300932 -0.485839,1.400482 -0.348199,1.892088 0.06981,0.249364 0.264805,0.643702 0.433313,0.876317 0.433912,0.599003 1.432886,1.517352 1.655409,1.521811 0.10318,0.0021 0.381461,-0.128316 0.618434,-0.289773 z"
     id="path14-5" />
  <path
     style="fill:#4d4d4d;fill-opacity:1;stroke:none;stroke-width:0.48139;stroke-dasharray:none;stroke-dashoffset:2.2;stroke-opacity:0.6"
     d="M 31.617472,47.54578 C 31.240007,47.455442 31.135879,47.388896 27.34047,44.812979 23.993706,42.54156 22.966043,41.657732 22.479657,40.632514 22.224854,40.095428 20.843818,34.989428 19.330074,28.987799 l -0.688304,-2.728953 0.432603,-1.242142 c 0.237928,-0.683176 0.432603,-1.323073 0.432603,-1.421991 0,-0.09892 -0.18553,-0.548855 -0.412289,-0.999853 -0.226756,-0.451002 -0.41229,-0.881478 -0.41229,-0.956615 0,-0.192678 2.346797,-2.480804 2.782951,-2.713377 0.501919,-0.267649 2.060975,-0.274913 2.572577,-0.012 l 0.356522,0.183208 1.34555,-1.342782 1.34555,-1.342784 h 4.893172 4.893175 l 1.346161,1.343398 1.346172,1.3434 0.501574,-0.221878 c 0.413216,-0.182786 0.639343,-0.213695 1.283558,-0.175467 0.47339,0.02814 0.92434,0.120428 1.142735,0.233996 0.430846,0.224045 1.838205,1.505467 2.438018,2.219853 l 0.428117,0.509895 -0.453882,0.88207 c -0.249614,0.485143 -0.453885,0.969854 -0.453885,1.077142 0,0.107283 0.185027,0.696768 0.411147,1.309956 0.226098,0.613195 0.411653,1.204683 0.412292,1.314426 0.0016,0.293238 -2.029904,8.267571 -3.257839,12.787569 -0.574916,2.116266 -1.024393,2.72173 -3.139878,4.229458 -2.43306,1.734076 -6.282992,4.274005 -6.478377,4.274005 -0.107844,0 -0.257857,0.01792 -0.333354,0.0408 -0.07549,0.02217 -0.27664,0.0075 -0.446985,-0.03309 z m 1.041662,-6.910562 c 0.221014,-0.168595 1.019734,-0.733404 1.774932,-1.255179 0.755198,-0.521771 1.566893,-1.122382 1.803767,-1.334693 0.53354,-0.478215 0.516187,-0.501254 -0.915774,-1.215702 -3.02269,-1.50811 -3.306052,-1.553482 -4.992498,-0.799353 -1.877782,0.839688 -2.937556,1.44163 -2.937556,1.668515 0,0.145205 0.482234,0.536754 1.708973,1.387616 0.939939,0.651936 1.909332,1.336071 2.154216,1.52032 0.552398,0.415601 0.887476,0.422408 1.40394,0.02825 z m -5.285698,-3.903789 c 0.236968,-0.161448 0.848297,-0.508831 1.358507,-0.771962 0.970629,-0.500592 2.536162,-1.755569 2.781268,-2.229553 0.198822,-0.384475 0.08517,-0.533336 -1.408591,-1.84464 -0.71896,-0.631151 -1.335874,-1.237894 -1.37092,-1.348316 -0.03864,-0.121685 0.12104,-0.673304 0.405319,-1.40034 0.64047,-1.638007 0.625781,-2.22592 -0.06455,-2.582896 -0.176728,-0.09138 -1.157585,-0.488452 -2.179686,-0.88236 -1.022099,-0.393909 -1.908146,-0.748446 -1.968981,-0.787858 -0.156518,-0.101376 0.752852,-0.207546 1.868854,-0.218165 0.85699,-0.0084 1.06135,0.03094 2.112981,0.403741 1.169598,0.414673 1.54062,0.668934 1.465214,1.004095 -0.02232,0.09944 -0.226789,1.000367 -0.454273,2.002119 -0.227478,1.001752 -0.413607,1.88958 -0.413607,1.972951 0,0.20501 0.617368,0.437706 1.69902,0.64039 0.836396,0.156727 0.951816,0.156284 1.686623,-0.0064 1.024278,-0.22688 1.561827,-0.445062 1.561827,-0.633912 0,-0.08338 -0.186126,-0.971197 -0.41361,-1.972949 -0.227484,-1.001741 -0.431906,-1.902695 -0.454274,-2.002104 -0.07649,-0.340023 0.297036,-0.596704 1.466123,-1.007481 0.974908,-0.34255 1.296388,-0.40939 1.969021,-0.40939 0.952804,0 2.070991,0.106161 2.070991,0.196639 0,0.0353 -0.243476,0.149789 -0.541136,0.2544 -1.689039,0.593695 -3.755971,1.466037 -3.962154,1.672219 -0.378604,0.378609 -0.320252,0.973529 0.229105,2.335796 0.283566,0.703178 0.44536,1.24735 0.411709,1.384774 -0.03051,0.124508 -0.600163,0.69932 -1.265948,1.27735 -1.450446,1.259266 -1.571275,1.389166 -1.571275,1.689248 0,0.322295 1.432141,1.671517 2.503484,2.35854 1.277554,0.819255 1.981789,1.199701 2.220722,1.199701 0.265075,0 1.409394,-1.001555 1.795454,-1.571463 0.581826,-0.858903 0.585496,-1.192278 0.02976,-2.731867 -0.196182,-0.54383 -0.242296,-0.798288 -0.169481,-0.934404 0.05504,-0.102883 0.764004,-0.785691 1.575445,-1.51737 0.811416,-0.731679 1.795224,-1.643527 2.186222,-2.026331 l 0.711076,-0.696008 -0.06095,-0.727078 c -0.03565,-0.42897 -0.151952,-0.909707 -0.28321,-1.172452 -0.41421,-0.829368 -3.358699,-4.729239 -3.657154,-4.843769 -0.06058,-0.0233 -0.826931,0.138182 -1.702842,0.358787 -0.875903,0.220603 -1.70641,0.401098 -1.845565,0.401098 -0.139153,0 -0.742136,-0.137374 -1.339965,-0.305279 -2.121173,-0.595792 -2.606383,-0.595612 -4.745941,0.0019 -0.595241,0.166191 -1.219291,0.30247 -1.386778,0.302843 -0.167486,3.69e-4 -0.793651,-0.137788 -1.391477,-0.30702 -0.597829,-0.169299 -1.310696,-0.34948 -1.584154,-0.400469 l -0.497195,-0.09271 -0.533528,0.676291 c -0.997294,1.264161 -2.539514,3.471996 -2.894907,4.14433 -0.487476,0.922223 -0.639458,1.556766 -0.470539,1.964577 0.07648,0.184614 0.993664,1.10266 2.219717,2.221775 1.149167,1.04894 2.116644,1.978162 2.14994,2.064941 0.03334,0.08678 -0.05878,0.489864 -0.204663,0.895754 -0.467522,1.300932 -0.485839,1.400482 -0.348199,1.892088 0.06981,0.249364 0.264805,0.643702 0.433313,0.876317 0.433912,0.599003 1.432886,1.517352 1.655409,1.521811 0.10318,0.0021 0.381461,-0.128316 0.618434,-0.289773 z"
     id="path14" />
</svg>
