<?xml version="1.0" encoding="UTF-8" standalone="no"?>
<svg
   width="64"
   height="64"
   version="1.1"
   id="svg73"
   sodipodi:docname="abcd.svg"
   inkscape:version="1.4.2 (ebf0e940d0, 2025-05-08)"
   xmlns:inkscape="http://www.inkscape.org/namespaces/inkscape"
   xmlns:sodipodi="http://sodipodi.sourceforge.net/DTD/sodipodi-0.dtd"
   xmlns:xlink="http://www.w3.org/1999/xlink"
   xmlns="http://www.w3.org/2000/svg"
   xmlns:svg="http://www.w3.org/2000/svg"
   xmlns:rdf="http://www.w3.org/1999/02/22-rdf-syntax-ns#"
   xmlns:cc="http://creativecommons.org/ns#"
   xmlns:dc="http://purl.org/dc/elements/1.1/">
  <metadata
     id="metadata77">
    <rdf:RDF>
      <cc:Work
         rdf:about="">
        <dc:format>image/svg+xml</dc:format>
        <dc:type
           rdf:resource="http://purl.org/dc/dcmitype/StillImage" />
      </cc:Work>
    </rdf:RDF>
  </metadata>
  <sodipodi:namedview
     pagecolor="#f5f7fa"
     bordercolor="#666666"
     borderopacity="1"
     objecttolerance="10"
     gridtolerance="10"
     guidetolerance="10"
     inkscape:pageopacity="0"
     inkscape:pageshadow="2"
     inkscape:window-width="1920"
     inkscape:window-height="931"
     id="namedview75"
     showgrid="false"
     inkscape:zoom="6.2890624"
     inkscape:cx="53.505591"
     inkscape:cy="29.734162"
     inkscape:window-x="0"
     inkscape:window-y="0"
     inkscape:window-maximized="1"
     inkscape:current-layer="svg73"
     inkscape:document-rotation="0"
     inkscape:pagecheckerboard="0"
     inkscape:showpageshadow="2"
     inkscape:deskcolor="#d1d1d1" />
  <defs
     id="defs29">
    <linearGradient
       id="linearGradient4"
       inkscape:collect="always">
      <stop
         style="stop-color:#635eac;stop-opacity:1;"
         offset="0"
         id="stop4" />
      <stop
         style="stop-color:#8581c1;stop-opacity:1;"
         offset="0.5"
         id="stop1" />
    </linearGradient>
    <linearGradient
       id="linearGradient2"
       inkscape:collect="always">
      <stop
         style="stop-color:#edecf4;stop-opacity:1;"
         offset="0"
         id="stop2" />
      <stop
         style="stop-color:#d9d8e9;stop-opacity:1;"
         offset="1"
         id="stop3" />
    </linearGradient>
    <linearGradient
       inkscape:collect="always"
       xlink:href="#linearGradient2"
       id="linearGradient8"
       x1="31.721739"
       y1="5.2278585"
       x2="31.88887"
       y2="59.145416"
       gradientUnits="userSpaceOnUse"
       gradientTransform="matrix(0.8505,0,0,0.8505,4.7765033,4.7794869)" />
    <filter
       style="color-interpolation-filters:sRGB;"
       inkscape:label="Blur"
       id="filter9"
       x="-0.047762285"
       y="-0.047489063"
       width="1.0955246"
       height="1.0949781">
      <feGaussianBlur
         stdDeviation="1 1"
         result="blur"
         id="feGaussianBlur9" />
    </filter>
    <linearGradient
       inkscape:collect="always"
       xlink:href="#linearGradient4"
       id="linearGradient7"
       x1="26.723248"
       y1="58.711765"
       x2="25.756926"
       y2="5.950614"
       gradientUnits="userSpaceOnUse" />
    <filter
       style="color-interpolation-filters:sRGB;"
       inkscape:label="Out of Focus"
       id="filter40"
       x="-0.24226652"
       y="-0.2858297"
       width="1.484533"
       height="1.5716594">
      <feFlood
         flood-opacity="1"
         flood-color="rgb(255,255,255)"
         result="flood"
         id="feFlood38" />
      <feColorMatrix
         in="SourceGraphic"
         values="1 0 0 0 0 0 1 0 0 0 0 0 1 0 0 -0.2125 -0.7154 -0.0721 1 0 "
         result="colormatrix1"
         id="feColorMatrix38" />
      <feGaussianBlur
         in="colormatrix1"
         stdDeviation="3 3"
         result="blur"
         id="feGaussianBlur38" />
      <feColorMatrix
         in="blur"
         values="1 0 0 0 0 0 1 0 0 0 0 0 1 0 0 0 0 0 6 -2 "
         result="colormatrix2"
         id="feColorMatrix39" />
      <feBlend
         in="colormatrix2"
         in2="flood"
         mode="normal"
         result="blend"
         id="feBlend39" />
      <feComposite
         in="blend"
         in2="blend"
         operator="arithmetic"
         k2="0.2"
         result="composite1"
         id="feComposite39" />
      <feComposite
         in2="SourceGraphic"
         operator="in"
         id="feComposite40" />
    </filter>
  </defs>
  <g
     id="g877"
     transform="matrix(1.1,0,0,1.1,-3.1845928,-3.2065454)">
    <ellipse
       style="opacity:0.5;fill:#000000;stroke:none;stroke-width:3.89319;stroke-dasharray:none;stroke-opacity:1;filter:url(#filter9)"
       id="path2-5"
       cx="31.949858"
       cy="31.969812"
       rx="25.124426"
       ry="25.268976"
       transform="matrix(1.05,0,0,1.05,-1.5974929,-1.5984906)" />
    <path
       style="fill:#f5f7fa;stroke-width:0.204426;fill-opacity:1"
       d=""
       id="path3" />
    <circle
       style="opacity:1;fill:url(#linearGradient8);stroke:url(#linearGradient7);stroke-width:3.81818;stroke-dasharray:none;stroke-opacity:1"
       id="path2"
       cx="31.949856"
       cy="31.969812"
       r="24.711082" />
    <ellipse
       style="opacity:0.3;fill:none;stroke:#000000;stroke-width:0.974376;stroke-dasharray:none;stroke-opacity:1"
       id="path2-9"
       cx="31.949856"
       cy="31.969812"
       rx="23.129124"
       ry="23.129126" />
  </g>
  <path
     d="m 23.979344,26.647783 c -1.100259,0 -2.005333,0.905074 -2.005333,2.005333 6.69e-4,1.09959 0.905743,2.003995 2.005333,2.003995 1.09959,0 2.004662,-0.904405 2.005332,-2.003995 0,-1.100259 -0.905074,-2.005333 -2.005332,-2.005333 z m 5.34755,0 c -1.10026,0 -2.005332,0.905074 -2.005332,2.005333 6.66e-4,1.09959 0.905743,2.003995 2.005332,2.003995 1.099591,0 2.004663,-0.904405 2.005333,-2.003995 0,-1.100259 -0.905075,-2.005333 -2.005333,-2.005333 z m 5.34755,0 c -1.100258,0 -2.005331,0.905074 -2.005331,2.005333 6.69e-4,1.09959 0.905742,2.003995 2.005331,2.003995 1.09959,0 2.004665,-0.904405 2.005336,-2.003995 0,-1.100259 -0.905077,-2.005333 -2.005336,-2.005333 z m 5.346211,0 c -1.100255,0 -2.00533,0.905074 -2.00533,2.005333 6.72e-4,1.09959 0.90574,2.003995 2.00533,2.003995 1.099601,0 2.004666,-0.904405 2.005332,-2.003995 0,-1.100259 -0.905066,-2.005333 -2.005332,-2.005333 z m -21.388861,5.346216 c -1.10026,0 -2.005332,0.905071 -2.005332,2.005332 0,1.100257 0.905072,2.005331 2.005332,2.005331 1.100256,0 2.005328,-0.905074 2.005328,-2.005331 0,-1.100261 -0.905072,-2.005332 -2.005328,-2.005332 z m 5.34755,0 c -1.100259,0 -2.005333,0.905071 -2.005333,2.005332 0,1.100257 0.905074,2.005331 2.005333,2.005331 1.100258,0 2.005332,-0.905074 2.005332,-2.005331 0,-1.100261 -0.905074,-2.005332 -2.005332,-2.005332 z m 5.34755,0 c -1.10026,0 -2.005332,0.905071 -2.005332,2.005332 0,1.100257 0.905072,2.005331 2.005332,2.005331 1.100258,0 2.005333,-0.905074 2.005333,-2.005331 0,-1.100261 -0.905075,-2.005332 -2.005333,-2.005332 z m 5.34755,0 c -1.100258,0 -2.005331,0.905071 -2.005331,2.005332 0,1.100257 0.905073,2.005331 2.005331,2.005331 1.100259,0 2.005336,-0.905074 2.005336,-2.005331 0,-1.100261 -0.905077,-2.005332 -2.005336,-2.005332 z m 5.346211,0 c -1.100255,0 -2.00533,0.905071 -2.00533,2.005332 0,1.100257 0.905075,2.005331 2.00533,2.005331 1.100257,0 2.005332,-0.905074 2.005332,-2.005331 0,-1.100261 -0.905066,-2.005332 -2.005332,-2.005332 z m 5.347553,0 c -1.10026,0 -2.005331,0.905071 -2.005331,2.005332 0,1.100257 0.905071,2.005331 2.005331,2.005331 1.100256,0 2.00533,-0.905074 2.00533,-2.005331 0,-1.100261 -0.905074,-2.005332 -2.00533,-2.005332 z m -26.736414,5.347552 c -1.10026,0 -2.005332,0.905072 -2.005332,2.005332 0,1.100258 0.905072,2.005333 2.005332,2.005333 1.100256,0 2.005328,-0.905075 2.005328,-2.005333 0,-1.10026 -0.905072,-2.005332 -2.005328,-2.005332 z m 5.34755,0 c -1.100259,0 -2.005333,0.905072 -2.005333,2.005332 0,1.100258 0.905074,2.005333 2.005333,2.005333 1.100258,0 2.005332,-0.905075 2.005332,-2.005333 0,-1.10026 -0.905074,-2.005332 -2.005332,-2.005332 z m 16.041311,0 c -1.100255,0 -2.00533,0.905072 -2.00533,2.005332 0,1.100258 0.905075,2.005333 2.00533,2.005333 1.100257,0 2.005332,-0.905075 2.005332,-2.005333 0,-1.10026 -0.905066,-2.005332 -2.005332,-2.005332 z m 5.347553,0 c -1.10026,0 -2.005331,0.905072 -2.005331,2.005332 0,1.100258 0.905071,2.005333 2.005331,2.005333 1.100256,0 2.00533,-0.905075 2.00533,-2.005333 0,-1.10026 -0.905074,-2.005332 -2.00533,-2.005332 z"
     fill="#ffffff"
     fill-rule="nonzero"
     id="path16-7"
     style="fill:#000000;fill-opacity:1;stroke:none;stroke-width:0.458466;stroke-dasharray:none;stroke-opacity:0.6;opacity:0.2" />
  <path
     d="m 23.979344,24.647783 c -1.100259,0 -2.005333,0.905074 -2.005333,2.005333 6.69e-4,1.09959 0.905743,2.003995 2.005333,2.003995 1.09959,0 2.004662,-0.904405 2.005332,-2.003995 0,-1.100259 -0.905074,-2.005333 -2.005332,-2.005333 z m 5.34755,0 c -1.10026,0 -2.005332,0.905074 -2.005332,2.005333 6.66e-4,1.09959 0.905743,2.003995 2.005332,2.003995 1.099591,0 2.004663,-0.904405 2.005333,-2.003995 0,-1.100259 -0.905075,-2.005333 -2.005333,-2.005333 z m 5.34755,0 c -1.100258,0 -2.005331,0.905074 -2.005331,2.005333 6.69e-4,1.09959 0.905742,2.003995 2.005331,2.003995 1.09959,0 2.004665,-0.904405 2.005336,-2.003995 0,-1.100259 -0.905077,-2.005333 -2.005336,-2.005333 z m 5.346211,0 c -1.100255,0 -2.00533,0.905074 -2.00533,2.005333 6.72e-4,1.09959 0.90574,2.003995 2.00533,2.003995 1.099601,0 2.004666,-0.904405 2.005332,-2.003995 0,-1.100259 -0.905066,-2.005333 -2.005332,-2.005333 z m -21.388861,5.346216 c -1.10026,0 -2.005332,0.905071 -2.005332,2.005332 0,1.100257 0.905072,2.005331 2.005332,2.005331 1.100256,0 2.005328,-0.905074 2.005328,-2.005331 0,-1.100261 -0.905072,-2.005332 -2.005328,-2.005332 z m 5.34755,0 c -1.100259,0 -2.005333,0.905071 -2.005333,2.005332 0,1.100257 0.905074,2.005331 2.005333,2.005331 1.100258,0 2.005332,-0.905074 2.005332,-2.005331 0,-1.100261 -0.905074,-2.005332 -2.005332,-2.005332 z m 5.34755,0 c -1.10026,0 -2.005332,0.905071 -2.005332,2.005332 0,1.100257 0.905072,2.005331 2.005332,2.005331 1.100258,0 2.005333,-0.905074 2.005333,-2.005331 0,-1.100261 -0.905075,-2.005332 -2.005333,-2.005332 z m 5.34755,0 c -1.100258,0 -2.005331,0.905071 -2.005331,2.005332 0,1.100257 0.905073,2.005331 2.005331,2.005331 1.100259,0 2.005336,-0.905074 2.005336,-2.005331 0,-1.100261 -0.905077,-2.005332 -2.005336,-2.005332 z m 5.346211,0 c -1.100255,0 -2.00533,0.905071 -2.00533,2.005332 0,1.100257 0.905075,2.005331 2.00533,2.005331 1.100257,0 2.005332,-0.905074 2.005332,-2.005331 0,-1.100261 -0.905066,-2.005332 -2.005332,-2.005332 z m 5.347553,0 c -1.10026,0 -2.005331,0.905071 -2.005331,2.005332 0,1.100257 0.905071,2.005331 2.005331,2.005331 1.100256,0 2.00533,-0.905074 2.00533,-2.005331 0,-1.100261 -0.905074,-2.005332 -2.00533,-2.005332 z m -26.736414,5.347552 c -1.10026,0 -2.005332,0.905072 -2.005332,2.005332 0,1.100258 0.905072,2.005333 2.005332,2.005333 1.100256,0 2.005328,-0.905075 2.005328,-2.005333 0,-1.10026 -0.905072,-2.005332 -2.005328,-2.005332 z m 5.34755,0 c -1.100259,0 -2.005333,0.905072 -2.005333,2.005332 0,1.100258 0.905074,2.005333 2.005333,2.005333 1.100258,0 2.005332,-0.905075 2.005332,-2.005333 0,-1.10026 -0.905074,-2.005332 -2.005332,-2.005332 z m 16.041311,0 c -1.100255,0 -2.00533,0.905072 -2.00533,2.005332 0,1.100258 0.905075,2.005333 2.00533,2.005333 1.100257,0 2.005332,-0.905075 2.005332,-2.005333 0,-1.10026 -0.905066,-2.005332 -2.005332,-2.005332 z m 5.347553,0 c -1.10026,0 -2.005331,0.905072 -2.005331,2.005332 0,1.100258 0.905071,2.005333 2.005331,2.005333 1.100256,0 2.00533,-0.905075 2.00533,-2.005333 0,-1.10026 -0.905074,-2.005332 -2.00533,-2.005332 z"
     fill="#ffffff"
     fill-rule="nonzero"
     id="path16"
     style="fill:#4d4d4d;fill-opacity:1;stroke:none;stroke-width:0.458466;stroke-dasharray:none;stroke-opacity:0.6" />
</svg>
