<?xml version="1.0" encoding="UTF-8" standalone="no"?>
<svg
   width="64"
   height="64"
   version="1.1"
   id="svg73"
   sodipodi:docname="abcd.svg"
   inkscape:version="1.4.2 (ebf0e940d0, 2025-05-08)"
   xmlns:inkscape="http://www.inkscape.org/namespaces/inkscape"
   xmlns:sodipodi="http://sodipodi.sourceforge.net/DTD/sodipodi-0.dtd"
   xmlns:xlink="http://www.w3.org/1999/xlink"
   xmlns="http://www.w3.org/2000/svg"
   xmlns:svg="http://www.w3.org/2000/svg"
   xmlns:rdf="http://www.w3.org/1999/02/22-rdf-syntax-ns#"
   xmlns:cc="http://creativecommons.org/ns#"
   xmlns:dc="http://purl.org/dc/elements/1.1/">
  <metadata
     id="metadata77">
    <rdf:RDF>
      <cc:Work
         rdf:about="">
        <dc:format>image/svg+xml</dc:format>
        <dc:type
           rdf:resource="http://purl.org/dc/dcmitype/StillImage" />
      </cc:Work>
    </rdf:RDF>
  </metadata>
  <sodipodi:namedview
     pagecolor="#f5f7fa"
     bordercolor="#666666"
     borderopacity="1"
     objecttolerance="10"
     gridtolerance="10"
     guidetolerance="10"
     inkscape:pageopacity="0"
     inkscape:pageshadow="2"
     inkscape:window-width="1320"
     inkscape:window-height="766"
     id="namedview75"
     showgrid="false"
     inkscape:zoom="6.2890624"
     inkscape:cx="53.585094"
     inkscape:cy="29.654659"
     inkscape:window-x="24"
     inkscape:window-y="21"
     inkscape:window-maximized="0"
     inkscape:current-layer="svg73"
     inkscape:document-rotation="0"
     inkscape:pagecheckerboard="0"
     inkscape:showpageshadow="2"
     inkscape:deskcolor="#d1d1d1" />
  <defs
     id="defs29">
    <linearGradient
       id="linearGradient4"
       inkscape:collect="always">
      <stop
         style="stop-color:#635eac;stop-opacity:1;"
         offset="0"
         id="stop4" />
      <stop
         style="stop-color:#8581c1;stop-opacity:1;"
         offset="0.5"
         id="stop1" />
    </linearGradient>
    <linearGradient
       id="linearGradient2"
       inkscape:collect="always">
      <stop
         style="stop-color:#edecf4;stop-opacity:1;"
         offset="0"
         id="stop2" />
      <stop
         style="stop-color:#d9d8e9;stop-opacity:1;"
         offset="1"
         id="stop3" />
    </linearGradient>
    <linearGradient
       inkscape:collect="always"
       xlink:href="#linearGradient2"
       id="linearGradient8"
       x1="31.721739"
       y1="5.2278585"
       x2="31.88887"
       y2="59.145416"
       gradientUnits="userSpaceOnUse"
       gradientTransform="matrix(0.8505,0,0,0.8505,4.7765033,4.7794869)" />
    <filter
       style="color-interpolation-filters:sRGB;"
       inkscape:label="Blur"
       id="filter9"
       x="-0.047762285"
       y="-0.047489063"
       width="1.0955246"
       height="1.0949781">
      <feGaussianBlur
         stdDeviation="1 1"
         result="blur"
         id="feGaussianBlur9" />
    </filter>
    <linearGradient
       inkscape:collect="always"
       xlink:href="#linearGradient4"
       id="linearGradient7"
       x1="26.723248"
       y1="58.711765"
       x2="25.756926"
       y2="5.950614"
       gradientUnits="userSpaceOnUse" />
    <filter
       style="color-interpolation-filters:sRGB;"
       inkscape:label="Out of Focus"
       id="filter40"
       x="-0.24226652"
       y="-0.2858297"
       width="1.484533"
       height="1.5716594">
      <feFlood
         flood-opacity="1"
         flood-color="rgb(255,255,255)"
         result="flood"
         id="feFlood38" />
      <feColorMatrix
         in="SourceGraphic"
         values="1 0 0 0 0 0 1 0 0 0 0 0 1 0 0 -0.2125 -0.7154 -0.0721 1 0 "
         result="colormatrix1"
         id="feColorMatrix38" />
      <feGaussianBlur
         in="colormatrix1"
         stdDeviation="3 3"
         result="blur"
         id="feGaussianBlur38" />
      <feColorMatrix
         in="blur"
         values="1 0 0 0 0 0 1 0 0 0 0 0 1 0 0 0 0 0 6 -2 "
         result="colormatrix2"
         id="feColorMatrix39" />
      <feBlend
         in="colormatrix2"
         in2="flood"
         mode="normal"
         result="blend"
         id="feBlend39" />
      <feComposite
         in="blend"
         in2="blend"
         operator="arithmetic"
         k2="0.2"
         result="composite1"
         id="feComposite39" />
      <feComposite
         in2="SourceGraphic"
         operator="in"
         id="feComposite40" />
    </filter>
  </defs>
  <g
     id="g877"
     transform="matrix(1.1,0,0,1.1,-3.1845928,-3.2065454)">
    <ellipse
       style="opacity:0.5;fill:#000000;stroke:none;stroke-width:3.89319;stroke-dasharray:none;stroke-opacity:1;filter:url(#filter9)"
       id="path2-5"
       cx="31.949858"
       cy="31.969812"
       rx="25.124426"
       ry="25.268976"
       transform="matrix(1.05,0,0,1.05,-1.5974929,-1.5984906)" />
    <path
       style="fill:#f5f7fa;stroke-width:0.204426;fill-opacity:1"
       d=""
       id="path3" />
    <circle
       style="opacity:1;fill:url(#linearGradient8);stroke:url(#linearGradient7);stroke-width:3.81818;stroke-dasharray:none;stroke-opacity:1"
       id="path2"
       cx="31.949856"
       cy="31.969812"
       r="24.711082" />
    <ellipse
       style="opacity:0.3;fill:none;stroke:#000000;stroke-width:0.974376;stroke-dasharray:none;stroke-opacity:1"
       id="path2-9"
       cx="31.949856"
       cy="31.969812"
       rx="23.129124"
       ry="23.129126" />
  </g>
  <path
     style="fill:#000000;fill-opacity:1;stroke:none;stroke-width:0.491164;stroke-dasharray:none;stroke-dashoffset:2.2;stroke-opacity:0.6;opacity:0.2"
     d="m 26.791573,49.403163 c -1.632979,-0.253079 -3.39062,-0.916903 -4.657268,-1.758969 -1.353892,-0.900063 -2.80177,-2.678634 -3.169734,-3.893705 -0.134457,-0.443999 0.248596,-0.980362 1.295141,-1.813521 0.548111,-0.436357 1.120667,-0.956078 1.272339,-1.154934 0.207542,-0.2721 0.421447,-0.951592 0.864579,-2.746404 0.880842,-3.567683 1.888676,-6.495675 3.509252,-10.195187 1.887003,-4.307728 3.16143,-6.247679 4.989357,-7.594882 1.402213,-1.033446 2.571969,-1.453768 4.534011,-1.629188 3.206062,-0.286648 4.570656,-0.02139 6.193602,1.203953 1.510809,1.140671 3.290354,4.58465 3.423324,6.625212 0.08843,1.357339 -0.205894,1.417712 -1.002771,0.205704 -0.535697,-0.814724 -1.01959,-1.278706 -1.333585,-1.278706 -0.604699,0 -1.557581,1.095272 -2.182786,2.508953 -0.443699,1.003294 -0.988225,2.657341 -1.243728,3.777969 -0.430055,1.886244 -0.300263,4.294954 0.450588,8.359569 0.396638,2.147227 0.361367,2.043454 0.749163,2.20408 0.532425,0.220541 1.458071,1.177153 1.581062,1.633959 0.293884,1.091299 -0.70373,2.308013 -2.688495,3.279111 -1.70533,0.834391 -3.731885,1.434331 -6.789831,2.010043 -1.661861,0.312888 -4.594209,0.442908 -5.79422,0.25696 z m 6.840239,-6.980288 1.153317,-0.974413 1.146039,0.383767 c 0.630322,0.211023 1.15736,0.372301 1.171193,0.358286 0.01351,-0.01418 -0.114456,-0.604908 -0.28504,-1.313091 -0.170635,-0.708177 -0.311283,-1.372405 -0.312628,-1.476054 -0.0013,-0.103631 0.288891,-0.701585 0.644926,-1.328743 0.356053,-0.627163 0.620173,-1.167477 0.586952,-1.200709 -0.03308,-0.03321 -0.626657,-0.08061 -1.318736,-0.10527 l -1.258317,-0.04486 -0.784606,-1.178474 c -0.431537,-0.64816 -0.814678,-1.1484 -0.851429,-1.11165 -0.03676,0.03676 -0.21453,0.675328 -0.395069,1.419057 l -0.328245,1.352234 -1.148713,0.500277 c -0.631794,0.275151 -1.184561,0.536126 -1.228373,0.579937 -0.04381,0.04381 0.395412,0.556508 0.976052,1.139339 l 1.055709,1.059683 -0.07728,1.458399 c -0.04249,0.802125 -0.03718,1.45802 0.01183,1.457559 0.04899,-4.63e-4 0.608104,-0.439334 1.242429,-0.975266 z M 29.101611,39.88206 c 0.09021,-0.773937 0.186784,-1.424392 0.214603,-1.445453 0.02781,-0.02114 0.497106,-0.366475 1.042868,-0.767585 0.545764,-0.401107 0.968807,-0.767292 0.940102,-0.813743 -0.02872,-0.04644 -0.55416,-0.381539 -1.167667,-0.744645 l -1.115471,-0.66019 -0.307483,-1.444341 c -0.169118,-0.794387 -0.340103,-1.444364 -0.379972,-1.444393 -0.03986,-3e-5 -0.425748,0.487378 -0.857515,1.083125 l -0.785029,1.08318 -0.805641,-0.06653 c -0.443101,-0.03659 -1.036136,-0.09414 -1.317854,-0.127894 l -0.512218,-0.06137 0.228854,0.573747 c 0.125872,0.315554 0.386276,0.977798 0.578679,1.471646 l 0.349824,0.897899 -0.520897,1.348053 c -0.286488,0.741431 -0.500994,1.367957 -0.47667,1.392289 0.02438,0.02431 0.67278,-0.09755 1.441011,-0.270731 l 1.396783,-0.314981 0.837531,0.888704 c 0.460643,0.488788 0.885816,0.875595 0.944829,0.859553 0.05901,-0.01587 0.181118,-0.662372 0.271337,-1.436308 z m 7.186039,-5.916752 v -1.493459 l 0.99253,-0.931676 c 0.545894,-0.512421 0.944243,-0.952479 0.885225,-0.97791 -0.059,-0.02547 -0.634632,-0.274775 -1.279153,-0.554099 l -1.17186,-0.507869 -0.440378,-1.32081 c -0.242207,-0.726449 -0.486334,-1.323284 -0.542501,-1.326304 -0.05615,-0.0029 -0.373997,0.484627 -0.706284,1.083657 -0.33229,0.599034 -0.635182,1.120172 -0.673097,1.158088 -0.03793,0.03793 -0.606748,0.1078 -1.264073,0.155302 -0.657325,0.04751 -1.218885,0.110113 -1.247913,0.139144 -0.04767,0.04767 0.408565,0.977237 1.06785,2.175585 l 0.24859,0.451855 -0.363507,1.402178 c -0.199932,0.771197 -0.335584,1.430105 -0.301452,1.464231 0.03414,0.03414 0.633908,-0.160407 1.332846,-0.432305 0.698939,-0.271895 1.296008,-0.494355 1.326816,-0.494355 0.03084,0 0.487885,0.335708 1.015717,0.746017 0.527833,0.41031 0.99591,0.748304 1.040169,0.751103 0.04426,0.0027 0.0805,-0.666972 0.08047,-1.488373 z"
     id="path92-5" />
  <path
     style="fill:#4d4d4d;fill-opacity:1;stroke:none;stroke-width:0.491164;stroke-dasharray:none;stroke-dashoffset:2.2;stroke-opacity:0.6"
     d="m 26.791573,47.403163 c -1.632979,-0.253079 -3.39062,-0.916903 -4.657268,-1.758969 -1.353892,-0.900063 -2.80177,-2.678634 -3.169734,-3.893705 -0.134457,-0.443999 0.248596,-0.980362 1.295141,-1.813521 0.548111,-0.436357 1.120667,-0.956078 1.272339,-1.154934 0.207542,-0.2721 0.421447,-0.951592 0.864579,-2.746404 0.880842,-3.567683 1.888676,-6.495675 3.509252,-10.195187 1.887003,-4.307728 3.16143,-6.247679 4.989357,-7.594882 1.402213,-1.033446 2.571969,-1.453768 4.534011,-1.629188 3.206062,-0.286648 4.570656,-0.02139 6.193602,1.203953 1.510809,1.140671 3.290354,4.58465 3.423324,6.625212 0.08843,1.357339 -0.205894,1.417712 -1.002771,0.205704 -0.535697,-0.814724 -1.01959,-1.278706 -1.333585,-1.278706 -0.604699,0 -1.557581,1.095272 -2.182786,2.508953 -0.443699,1.003294 -0.988225,2.657341 -1.243728,3.777969 -0.430055,1.886244 -0.300263,4.294954 0.450588,8.359569 0.396638,2.147227 0.361367,2.043454 0.749163,2.20408 0.532425,0.220541 1.458071,1.177153 1.581062,1.633959 0.293884,1.091299 -0.70373,2.308013 -2.688495,3.279111 -1.70533,0.834391 -3.731885,1.434331 -6.789831,2.010043 -1.661861,0.312888 -4.594209,0.442908 -5.79422,0.25696 z m 6.840239,-6.980288 1.153317,-0.974413 1.146039,0.383767 c 0.630322,0.211023 1.15736,0.372301 1.171193,0.358286 0.01351,-0.01418 -0.114456,-0.604908 -0.28504,-1.313091 -0.170635,-0.708177 -0.311283,-1.372405 -0.312628,-1.476054 -0.0013,-0.103631 0.288891,-0.701585 0.644926,-1.328743 0.356053,-0.627163 0.620173,-1.167477 0.586952,-1.200709 -0.03308,-0.03321 -0.626657,-0.08061 -1.318736,-0.10527 l -1.258317,-0.04486 -0.784606,-1.178474 c -0.431537,-0.64816 -0.814678,-1.1484 -0.851429,-1.11165 -0.03676,0.03676 -0.21453,0.675328 -0.395069,1.419057 l -0.328245,1.352234 -1.148713,0.500277 c -0.631794,0.275151 -1.184561,0.536126 -1.228373,0.579937 -0.04381,0.04381 0.395412,0.556508 0.976052,1.139339 l 1.055709,1.059683 -0.07728,1.458399 c -0.04249,0.802125 -0.03718,1.45802 0.01183,1.457559 0.04899,-4.63e-4 0.608104,-0.439334 1.242429,-0.975266 z M 29.101611,37.88206 c 0.09021,-0.773937 0.186784,-1.424392 0.214603,-1.445453 0.02781,-0.02114 0.497106,-0.366475 1.042868,-0.767585 0.545764,-0.401107 0.968807,-0.767292 0.940102,-0.813743 -0.02872,-0.04644 -0.55416,-0.381539 -1.167667,-0.744645 l -1.115471,-0.66019 -0.307483,-1.444341 c -0.169118,-0.794387 -0.340103,-1.444364 -0.379972,-1.444393 -0.03986,-3e-5 -0.425748,0.487378 -0.857515,1.083125 l -0.785029,1.08318 -0.805641,-0.06653 c -0.443101,-0.03659 -1.036136,-0.09414 -1.317854,-0.127894 l -0.512218,-0.06137 0.228854,0.573747 c 0.125872,0.315554 0.386276,0.977798 0.578679,1.471646 l 0.349824,0.897899 -0.520897,1.348053 c -0.286488,0.741431 -0.500994,1.367957 -0.47667,1.392289 0.02438,0.02431 0.67278,-0.09755 1.441011,-0.270731 l 1.396783,-0.314981 0.837531,0.888704 c 0.460643,0.488788 0.885816,0.875595 0.944829,0.859553 0.05901,-0.01587 0.181118,-0.662372 0.271337,-1.436308 z m 7.186039,-5.916752 v -1.493459 l 0.99253,-0.931676 c 0.545894,-0.512421 0.944243,-0.952479 0.885225,-0.97791 -0.059,-0.02547 -0.634632,-0.274775 -1.279153,-0.554099 l -1.17186,-0.507869 -0.440378,-1.32081 c -0.242207,-0.726449 -0.486334,-1.323284 -0.542501,-1.326304 -0.05615,-0.0029 -0.373997,0.484627 -0.706284,1.083657 -0.33229,0.599034 -0.635182,1.120172 -0.673097,1.158088 -0.03793,0.03793 -0.606748,0.1078 -1.264073,0.155302 -0.657325,0.04751 -1.218885,0.110113 -1.247913,0.139144 -0.04767,0.04767 0.408565,0.977237 1.06785,2.175585 l 0.24859,0.451855 -0.363507,1.402178 c -0.199932,0.771197 -0.335584,1.430105 -0.301452,1.464231 0.03414,0.03414 0.633908,-0.160407 1.332846,-0.432305 0.698939,-0.271895 1.296008,-0.494355 1.326816,-0.494355 0.03084,0 0.487885,0.335708 1.015717,0.746017 0.527833,0.41031 0.99591,0.748304 1.040169,0.751103 0.04426,0.0027 0.0805,-0.666972 0.08047,-1.488373 z"
     id="path92" />
</svg>
