<?xml version="1.0" encoding="UTF-8" standalone="no"?>
<svg
   width="64"
   height="64"
   version="1.1"
   id="svg73"
   sodipodi:docname="abcd.svg"
   inkscape:version="1.4.2 (ebf0e940d0, 2025-05-08)"
   xmlns:inkscape="http://www.inkscape.org/namespaces/inkscape"
   xmlns:sodipodi="http://sodipodi.sourceforge.net/DTD/sodipodi-0.dtd"
   xmlns:xlink="http://www.w3.org/1999/xlink"
   xmlns="http://www.w3.org/2000/svg"
   xmlns:svg="http://www.w3.org/2000/svg"
   xmlns:rdf="http://www.w3.org/1999/02/22-rdf-syntax-ns#"
   xmlns:cc="http://creativecommons.org/ns#"
   xmlns:dc="http://purl.org/dc/elements/1.1/">
  <metadata
     id="metadata77">
    <rdf:RDF>
      <cc:Work
         rdf:about="">
        <dc:format>image/svg+xml</dc:format>
        <dc:type
           rdf:resource="http://purl.org/dc/dcmitype/StillImage" />
      </cc:Work>
    </rdf:RDF>
  </metadata>
  <sodipodi:namedview
     pagecolor="#f5f7fa"
     bordercolor="#666666"
     borderopacity="1"
     objecttolerance="10"
     gridtolerance="10"
     guidetolerance="10"
     inkscape:pageopacity="0"
     inkscape:pageshadow="2"
     inkscape:window-width="1320"
     inkscape:window-height="766"
     id="namedview75"
     showgrid="false"
     inkscape:zoom="4.4470387"
     inkscape:cx="53.518761"
     inkscape:cy="22.37444"
     inkscape:window-x="24"
     inkscape:window-y="21"
     inkscape:window-maximized="0"
     inkscape:current-layer="svg73"
     inkscape:document-rotation="0"
     inkscape:pagecheckerboard="0"
     inkscape:showpageshadow="2"
     inkscape:deskcolor="#d1d1d1" />
  <defs
     id="defs29">
    <linearGradient
       id="linearGradient4"
       inkscape:collect="always">
      <stop
         style="stop-color:#635eac;stop-opacity:1;"
         offset="0"
         id="stop4" />
      <stop
         style="stop-color:#8581c1;stop-opacity:1;"
         offset="0.5"
         id="stop1" />
    </linearGradient>
    <linearGradient
       id="linearGradient2"
       inkscape:collect="always">
      <stop
         style="stop-color:#edecf4;stop-opacity:1;"
         offset="0"
         id="stop2" />
      <stop
         style="stop-color:#d9d8e9;stop-opacity:1;"
         offset="1"
         id="stop3" />
    </linearGradient>
    <linearGradient
       inkscape:collect="always"
       xlink:href="#linearGradient2"
       id="linearGradient8"
       x1="31.721739"
       y1="5.2278585"
       x2="31.88887"
       y2="59.145416"
       gradientUnits="userSpaceOnUse"
       gradientTransform="matrix(0.8505,0,0,0.8505,4.7765033,4.7794869)" />
    <filter
       style="color-interpolation-filters:sRGB;"
       inkscape:label="Blur"
       id="filter9"
       x="-0.047762285"
       y="-0.047489063"
       width="1.0955246"
       height="1.0949781">
      <feGaussianBlur
         stdDeviation="1 1"
         result="blur"
         id="feGaussianBlur9" />
    </filter>
    <linearGradient
       inkscape:collect="always"
       xlink:href="#linearGradient4"
       id="linearGradient7"
       x1="26.723248"
       y1="58.711765"
       x2="25.756926"
       y2="5.950614"
       gradientUnits="userSpaceOnUse" />
    <filter
       style="color-interpolation-filters:sRGB;"
       inkscape:label="Out of Focus"
       id="filter40"
       x="-0.24226652"
       y="-0.2858297"
       width="1.484533"
       height="1.5716594">
      <feFlood
         flood-opacity="1"
         flood-color="rgb(255,255,255)"
         result="flood"
         id="feFlood38" />
      <feColorMatrix
         in="SourceGraphic"
         values="1 0 0 0 0 0 1 0 0 0 0 0 1 0 0 -0.2125 -0.7154 -0.0721 1 0 "
         result="colormatrix1"
         id="feColorMatrix38" />
      <feGaussianBlur
         in="colormatrix1"
         stdDeviation="3 3"
         result="blur"
         id="feGaussianBlur38" />
      <feColorMatrix
         in="blur"
         values="1 0 0 0 0 0 1 0 0 0 0 0 1 0 0 0 0 0 6 -2 "
         result="colormatrix2"
         id="feColorMatrix39" />
      <feBlend
         in="colormatrix2"
         in2="flood"
         mode="normal"
         result="blend"
         id="feBlend39" />
      <feComposite
         in="blend"
         in2="blend"
         operator="arithmetic"
         k2="0.2"
         result="composite1"
         id="feComposite39" />
      <feComposite
         in2="SourceGraphic"
         operator="in"
         id="feComposite40" />
    </filter>
  </defs>
  <g
     id="g877"
     transform="matrix(1.1,0,0,1.1,-3.1845928,-3.2065454)">
    <ellipse
       style="opacity:0.5;fill:#000000;stroke:none;stroke-width:3.89319;stroke-dasharray:none;stroke-opacity:1;filter:url(#filter9)"
       id="path2-5"
       cx="31.949858"
       cy="31.969812"
       rx="25.124426"
       ry="25.268976"
       transform="matrix(1.05,0,0,1.05,-1.5974929,-1.5984906)" />
    <path
       style="fill:#f5f7fa;stroke-width:0.204426;fill-opacity:1"
       d=""
       id="path3" />
    <circle
       style="opacity:1;fill:url(#linearGradient8);stroke:url(#linearGradient7);stroke-width:3.81818;stroke-dasharray:none;stroke-opacity:1"
       id="path2"
       cx="31.949856"
       cy="31.969812"
       r="24.711082" />
    <ellipse
       style="opacity:0.3;fill:none;stroke:#000000;stroke-width:0.974376;stroke-dasharray:none;stroke-opacity:1"
       id="path2-9"
       cx="31.949856"
       cy="31.969812"
       rx="23.129124"
       ry="23.129126" />
  </g>
  <path
     id="path36-9"
     style="fill:#000000;fill-opacity:1;stroke:none;stroke-width:0.504315;stroke-dasharray:none;stroke-opacity:0.6;opacity:0.2"
     d="m 36.739425,18.734015 c -0.298075,0 -2.34435,1.797578 -3.098645,2.722086 -0.767348,0.9405 -1.839702,2.928586 -1.839702,3.409632 0,0.175093 0.134462,0.256707 0.427138,0.258534 0.906311,0.0057 2.658887,0.484323 3.778699,1.032255 1.557551,0.762119 3.025204,2.235375 3.7993,3.81429 0.309862,0.632006 0.607076,1.395522 0.659453,1.695449 l 0.09557,0.545168 -0.275328,-0.389673 c -0.626857,-0.891547 -1.763146,-1.923604 -2.572295,-2.336158 -0.676111,-0.344731 -2.223644,-0.779349 -2.774541,-0.779349 -0.04221,0 0.257294,0.237058 0.666941,0.528307 3.685657,2.620406 3.57624,8.128423 -0.211682,10.657913 -1.884575,1.258474 -4.118691,1.354676 -6.32094,0.273528 -3.014899,-1.480116 -4.804882,-4.717087 -3.417142,-6.176689 0.902371,-0.949095 1.986892,-1.406717 3.846142,-1.620514 0.722214,-0.08302 1.047179,-0.221381 1.674846,-0.717522 0.428343,-0.338586 0.775442,-0.702323 0.769976,-0.807443 -0.0057,-0.105116 -0.619487,-0.487627 -1.363852,-0.850534 -0.744369,-0.362911 -1.890633,-1.090447 -2.54786,-1.616767 l -1.195251,-0.95732 -0.17797,-1.021016 c -0.103004,-0.591447 -0.131747,-1.444022 -0.06931,-2.027046 l 0.106788,-1.006028 -0.666937,0.372812 c -0.366853,0.204613 -1.186605,0.855194 -1.820973,1.446285 -0.657818,0.612938 -1.208573,1.014602 -1.283298,0.934836 -0.220602,-0.235511 -0.475846,-1.736282 -0.475846,-2.79702 0,-0.552794 -0.06139,-1.004155 -0.134905,-1.004155 -0.07351,0 -0.722538,0.612153 -1.444411,1.361977 -2.919778,3.032845 -4.229907,6.274449 -4.233936,10.479936 -0.0023,2.374253 0.372905,4.054235 1.38446,6.208532 0.839743,1.788382 1.730033,3.048693 3.126747,4.425031 2.308957,2.275257 4.995063,3.664671 8.205602,4.247045 3.546048,0.643232 7.476596,-0.104731 10.734724,-2.043906 2.701485,-1.607874 5.290328,-4.721527 6.341541,-7.626714 0.784047,-2.166782 1.003246,-3.592685 0.906752,-5.906903 -0.102872,-2.466632 -0.549066,-4.14633 -1.663602,-6.266603 -0.694064,-1.320364 -2.022104,-3.22911 -2.154434,-3.09677 -0.03155,0.03114 0.0927,0.350138 0.27533,0.708156 0.38597,0.756558 0.936716,2.800833 0.936716,3.478947 0,0.437224 -0.05342,0.395915 -0.831803,-0.651952 -0.457146,-0.615491 -1.864992,-2.17485 -3.128549,-3.465834 -2.320741,-2.371129 -3.375283,-3.748954 -3.701891,-4.839055 -0.09825,-0.327931 -0.247571,-0.595748 -0.331578,-0.595748 z m -2.855101,11.392288 c -0.08974,-0.0057 -0.184166,0.02045 -0.307252,0.06371 -0.347963,0.122374 -0.470197,0.304451 -0.629469,0.931095 -0.150162,0.590756 -0.379397,0.951509 -0.946076,1.493122 -0.658533,0.629399 -0.854696,0.726368 -1.656112,0.820558 -1.029954,0.121055 -1.573195,0.362728 -2.107606,0.934838 -0.319614,0.342146 -0.355647,0.491414 -0.264142,1.101575 0.21045,1.40341 1.629868,2.884826 3.156723,3.295356 1.527531,0.410708 2.432803,0.188127 3.473329,-0.852412 1.864558,-1.864561 1.896909,-5.240915 0.06931,-7.175215 -0.414998,-0.439236 -0.591304,-0.600225 -0.78871,-0.612611 z" />
  <path
     id="path36"
     style="fill:#4d4d4d;fill-opacity:1;stroke:none;stroke-width:0.504315;stroke-dasharray:none;stroke-opacity:0.6"
     d="m 36.739425,16.734015 c -0.298075,0 -2.34435,1.797578 -3.098645,2.722086 -0.767348,0.9405 -1.839702,2.928586 -1.839702,3.409632 0,0.175093 0.134462,0.256707 0.427138,0.258534 0.906311,0.0057 2.658887,0.484323 3.778699,1.032255 1.557551,0.762119 3.025204,2.235375 3.7993,3.81429 0.309862,0.632006 0.607076,1.395522 0.659453,1.695449 l 0.09557,0.545168 -0.275328,-0.389673 c -0.626857,-0.891547 -1.763146,-1.923604 -2.572295,-2.336158 -0.676111,-0.344731 -2.223644,-0.779349 -2.774541,-0.779349 -0.04221,0 0.257294,0.237058 0.666941,0.528307 3.685657,2.620406 3.57624,8.128423 -0.211682,10.657913 -1.884575,1.258474 -4.118691,1.354676 -6.32094,0.273528 -3.014899,-1.480116 -4.804882,-4.717087 -3.417142,-6.176689 0.902371,-0.949095 1.986892,-1.406717 3.846142,-1.620514 0.722214,-0.08302 1.047179,-0.221381 1.674846,-0.717522 0.428343,-0.338586 0.775442,-0.702323 0.769976,-0.807443 -0.0057,-0.105116 -0.619487,-0.487627 -1.363852,-0.850534 -0.744369,-0.362911 -1.890633,-1.090447 -2.54786,-1.616767 l -1.195251,-0.95732 -0.17797,-1.021016 c -0.103004,-0.591447 -0.131747,-1.444022 -0.06931,-2.027046 l 0.106788,-1.006028 -0.666937,0.372812 c -0.366853,0.204613 -1.186605,0.855194 -1.820973,1.446285 -0.657818,0.612938 -1.208573,1.014602 -1.283298,0.934836 -0.220602,-0.235511 -0.475846,-1.736282 -0.475846,-2.79702 0,-0.552794 -0.06139,-1.004155 -0.134905,-1.004155 -0.07351,0 -0.722538,0.612153 -1.444411,1.361977 -2.919778,3.032845 -4.229907,6.274449 -4.233936,10.479936 -0.0023,2.374253 0.372905,4.054235 1.38446,6.208532 0.839743,1.788382 1.730033,3.048693 3.126747,4.425031 2.308957,2.275257 4.995063,3.664671 8.205602,4.247045 3.546048,0.643232 7.476596,-0.104731 10.734724,-2.043906 2.701485,-1.607874 5.290328,-4.721527 6.341541,-7.626714 0.784047,-2.166782 1.003246,-3.592685 0.906752,-5.906903 -0.102872,-2.466632 -0.549066,-4.14633 -1.663602,-6.266603 -0.694064,-1.320364 -2.022104,-3.22911 -2.154434,-3.09677 -0.03155,0.03114 0.0927,0.350138 0.27533,0.708156 0.38597,0.756558 0.936716,2.800833 0.936716,3.478947 0,0.437224 -0.05342,0.395915 -0.831803,-0.651952 -0.457146,-0.615491 -1.864992,-2.17485 -3.128549,-3.465834 -2.320741,-2.371129 -3.375283,-3.748954 -3.701891,-4.839055 -0.09825,-0.327931 -0.247571,-0.595748 -0.331578,-0.595748 z m -2.855101,11.392288 c -0.08974,-0.0057 -0.184166,0.02045 -0.307252,0.06371 -0.347963,0.122374 -0.470197,0.304451 -0.629469,0.931095 -0.150162,0.590756 -0.379397,0.951509 -0.946076,1.493122 -0.658533,0.629399 -0.854696,0.726368 -1.656112,0.820558 -1.029954,0.121055 -1.573195,0.362728 -2.107606,0.934838 -0.319614,0.342146 -0.355647,0.491414 -0.264142,1.101575 0.21045,1.40341 1.629868,2.884826 3.156723,3.295356 1.527531,0.410708 2.432803,0.188127 3.473329,-0.852412 1.864558,-1.864561 1.896909,-5.240915 0.06931,-7.175215 -0.414998,-0.439236 -0.591304,-0.600225 -0.78871,-0.612611 z" />
</svg>
