<?xml version="1.0" encoding="UTF-8" standalone="no"?>
<svg
   width="64"
   height="64"
   version="1.1"
   id="svg73"
   sodipodi:docname="abcd.svg"
   inkscape:version="1.4.2 (ebf0e940d0, 2025-05-08)"
   xmlns:inkscape="http://www.inkscape.org/namespaces/inkscape"
   xmlns:sodipodi="http://sodipodi.sourceforge.net/DTD/sodipodi-0.dtd"
   xmlns:xlink="http://www.w3.org/1999/xlink"
   xmlns="http://www.w3.org/2000/svg"
   xmlns:svg="http://www.w3.org/2000/svg"
   xmlns:rdf="http://www.w3.org/1999/02/22-rdf-syntax-ns#"
   xmlns:cc="http://creativecommons.org/ns#"
   xmlns:dc="http://purl.org/dc/elements/1.1/">
  <metadata
     id="metadata77">
    <rdf:RDF>
      <cc:Work
         rdf:about="">
        <dc:format>image/svg+xml</dc:format>
        <dc:type
           rdf:resource="http://purl.org/dc/dcmitype/StillImage" />
      </cc:Work>
    </rdf:RDF>
  </metadata>
  <sodipodi:namedview
     pagecolor="#f5f7fa"
     bordercolor="#666666"
     borderopacity="1"
     objecttolerance="10"
     gridtolerance="10"
     guidetolerance="10"
     inkscape:pageopacity="0"
     inkscape:pageshadow="2"
     inkscape:window-width="1320"
     inkscape:window-height="766"
     id="namedview75"
     showgrid="false"
     inkscape:zoom="4.4470387"
     inkscape:cx="53.518761"
     inkscape:cy="22.37444"
     inkscape:window-x="24"
     inkscape:window-y="21"
     inkscape:window-maximized="0"
     inkscape:current-layer="svg73"
     inkscape:document-rotation="0"
     inkscape:pagecheckerboard="0"
     inkscape:showpageshadow="2"
     inkscape:deskcolor="#d1d1d1" />
  <defs
     id="defs29">
    <linearGradient
       id="linearGradient4"
       inkscape:collect="always">
      <stop
         style="stop-color:#635eac;stop-opacity:1;"
         offset="0"
         id="stop4" />
      <stop
         style="stop-color:#8581c1;stop-opacity:1;"
         offset="0.5"
         id="stop1" />
    </linearGradient>
    <linearGradient
       id="linearGradient2"
       inkscape:collect="always">
      <stop
         style="stop-color:#edecf4;stop-opacity:1;"
         offset="0"
         id="stop2" />
      <stop
         style="stop-color:#d9d8e9;stop-opacity:1;"
         offset="1"
         id="stop3" />
    </linearGradient>
    <linearGradient
       inkscape:collect="always"
       xlink:href="#linearGradient2"
       id="linearGradient8"
       x1="31.721739"
       y1="5.2278585"
       x2="31.88887"
       y2="59.145416"
       gradientUnits="userSpaceOnUse"
       gradientTransform="matrix(0.8505,0,0,0.8505,4.7765033,4.7794869)" />
    <filter
       style="color-interpolation-filters:sRGB;"
       inkscape:label="Blur"
       id="filter9"
       x="-0.047762285"
       y="-0.047489063"
       width="1.0955246"
       height="1.0949781">
      <feGaussianBlur
         stdDeviation="1 1"
         result="blur"
         id="feGaussianBlur9" />
    </filter>
    <linearGradient
       inkscape:collect="always"
       xlink:href="#linearGradient4"
       id="linearGradient7"
       x1="26.723248"
       y1="58.711765"
       x2="25.756926"
       y2="5.950614"
       gradientUnits="userSpaceOnUse" />
    <filter
       style="color-interpolation-filters:sRGB;"
       inkscape:label="Out of Focus"
       id="filter40"
       x="-0.24226652"
       y="-0.2858297"
       width="1.484533"
       height="1.5716594">
      <feFlood
         flood-opacity="1"
         flood-color="rgb(255,255,255)"
         result="flood"
         id="feFlood38" />
      <feColorMatrix
         in="SourceGraphic"
         values="1 0 0 0 0 0 1 0 0 0 0 0 1 0 0 -0.2125 -0.7154 -0.0721 1 0 "
         result="colormatrix1"
         id="feColorMatrix38" />
      <feGaussianBlur
         in="colormatrix1"
         stdDeviation="3 3"
         result="blur"
         id="feGaussianBlur38" />
      <feColorMatrix
         in="blur"
         values="1 0 0 0 0 0 1 0 0 0 0 0 1 0 0 0 0 0 6 -2 "
         result="colormatrix2"
         id="feColorMatrix39" />
      <feBlend
         in="colormatrix2"
         in2="flood"
         mode="normal"
         result="blend"
         id="feBlend39" />
      <feComposite
         in="blend"
         in2="blend"
         operator="arithmetic"
         k2="0.2"
         result="composite1"
         id="feComposite39" />
      <feComposite
         in2="SourceGraphic"
         operator="in"
         id="feComposite40" />
    </filter>
  </defs>
  <g
     id="g877"
     transform="matrix(1.1,0,0,1.1,-3.1845928,-3.2065454)">
    <ellipse
       style="opacity:0.5;fill:#000000;stroke:none;stroke-width:3.89319;stroke-dasharray:none;stroke-opacity:1;filter:url(#filter9)"
       id="path2-5"
       cx="31.949858"
       cy="31.969812"
       rx="25.124426"
       ry="25.268976"
       transform="matrix(1.05,0,0,1.05,-1.5974929,-1.5984906)" />
    <path
       style="fill:#f5f7fa;stroke-width:0.204426;fill-opacity:1"
       d=""
       id="path3" />
    <circle
       style="opacity:1;fill:url(#linearGradient8);stroke:url(#linearGradient7);stroke-width:3.81818;stroke-dasharray:none;stroke-opacity:1"
       id="path2"
       cx="31.949856"
       cy="31.969812"
       r="24.711082" />
    <ellipse
       style="opacity:0.3;fill:none;stroke:#000000;stroke-width:0.974376;stroke-dasharray:none;stroke-opacity:1"
       id="path2-9"
       cx="31.949856"
       cy="31.969812"
       rx="23.129124"
       ry="23.129126" />
  </g>
  <path
     id="path98-5"
     style="fill:#000000;fill-opacity:1;stroke:none;stroke-width:0.446512;stroke-dasharray:none;stroke-opacity:0.6;opacity:0.2"
     d="m 30.825251,25.060931 -5.459312,0.05233 -5.461058,0.05408 -1.6657,2.611052 c -0.916777,1.435817 -1.66879,2.678216 -1.670933,2.761052 -0.0022,0.08284 1.712554,0.150001 3.811055,0.150001 2.098497,0 3.816285,0.0541 3.816285,0.120349 0,0.06625 -0.963725,2.16755 -2.140121,4.669195 -1.176395,2.501644 -2.43932,5.202753 -2.806401,6.003498 l -0.66628,1.456399 1.951749,-0.0051 1.953491,-0.0051 3.915706,-8.342456 c 2.153723,-4.58927 4.029512,-8.610929 4.168613,-8.935769 z m 10.573276,0.05233 c -3.318105,-0.02926 -6.099685,0.01667 -6.181406,0.101156 -0.08172,0.08449 -0.839049,1.645068 -1.683144,3.467449 -0.844094,1.822382 -2.658282,5.706882 -4.032566,8.633738 -1.374281,2.926852 -2.498838,5.390429 -2.497677,5.473264 v 0.0018 l 0.0018,0.0018 v 0.0018 l 0.0018,0.0018 v 0.0018 c 0.07524,0.07749 0.893578,0.141291 1.878492,0.141291 h 1.878491 l 2.877914,-6.123857 2.879655,-6.125594 h 2.169773 c 1.193609,0 2.171516,0.03504 2.171516,0.07676 0,0.04171 -1.265372,2.763618 -2.811635,6.048849 -1.546262,3.285227 -2.811631,6.010117 -2.811631,6.055821 0,0.04569 0.873456,0.05778 1.941282,0.02599 l 1.941281,-0.05755 4.154661,-8.836061 4.154657,-8.836064 z" />
  <path
     id="path98"
     style="fill:#4d4d4d;fill-opacity:1;stroke:none;stroke-width:0.446512;stroke-dasharray:none;stroke-opacity:0.6"
     d="m 30.825251,23.060931 -5.459312,0.05233 -5.461058,0.05408 -1.6657,2.611052 c -0.916777,1.435817 -1.66879,2.678216 -1.670933,2.761052 -0.0022,0.08284 1.712554,0.150001 3.811055,0.150001 2.098497,0 3.816285,0.0541 3.816285,0.120349 0,0.06625 -0.963725,2.16755 -2.140121,4.669195 -1.176395,2.501644 -2.43932,5.202753 -2.806401,6.003498 l -0.66628,1.456399 1.951749,-0.0051 1.953491,-0.0051 3.915706,-8.342456 c 2.153723,-4.58927 4.029512,-8.610929 4.168613,-8.935769 z m 10.573276,0.05233 c -3.318105,-0.02926 -6.099685,0.01667 -6.181406,0.101156 -0.08172,0.08449 -0.839049,1.645068 -1.683144,3.467449 -0.844094,1.822382 -2.658282,5.706882 -4.032566,8.633738 -1.374281,2.926852 -2.498838,5.390429 -2.497677,5.473264 v 0.0018 l 0.0018,0.0018 v 0.0018 l 0.0018,0.0018 v 0.0018 c 0.07524,0.07749 0.893578,0.141291 1.878492,0.141291 h 1.878491 l 2.877914,-6.123857 2.879655,-6.125594 h 2.169773 c 1.193609,0 2.171516,0.03504 2.171516,0.07676 0,0.04171 -1.265372,2.763618 -2.811635,6.048849 -1.546262,3.285227 -2.811631,6.010117 -2.811631,6.055821 0,0.04569 0.873456,0.05778 1.941282,0.02599 l 1.941281,-0.05755 4.154661,-8.836061 4.154657,-8.836064 z" />
</svg>
