<?xml version="1.0" encoding="UTF-8" standalone="no"?>
<svg
   width="64"
   height="64"
   version="1.1"
   id="svg73"
   sodipodi:docname="1password.svg"
   inkscape:version="1.4.2 (ebf0e940d0, 2025-05-08)"
   xmlns:inkscape="http://www.inkscape.org/namespaces/inkscape"
   xmlns:sodipodi="http://sodipodi.sourceforge.net/DTD/sodipodi-0.dtd"
   xmlns:xlink="http://www.w3.org/1999/xlink"
   xmlns="http://www.w3.org/2000/svg"
   xmlns:svg="http://www.w3.org/2000/svg"
   xmlns:rdf="http://www.w3.org/1999/02/22-rdf-syntax-ns#"
   xmlns:cc="http://creativecommons.org/ns#"
   xmlns:dc="http://purl.org/dc/elements/1.1/">
  <metadata
     id="metadata77">
    <rdf:RDF>
      <cc:Work
         rdf:about="">
        <dc:format>image/svg+xml</dc:format>
        <dc:type
           rdf:resource="http://purl.org/dc/dcmitype/StillImage" />
      </cc:Work>
    </rdf:RDF>
  </metadata>
  <sodipodi:namedview
     pagecolor="#f5f7fa"
     bordercolor="#666666"
     borderopacity="1"
     objecttolerance="10"
     gridtolerance="10"
     guidetolerance="10"
     inkscape:pageopacity="0"
     inkscape:pageshadow="2"
     inkscape:window-width="1289"
     inkscape:window-height="707"
     id="namedview75"
     showgrid="false"
     inkscape:zoom="6.2890624"
     inkscape:cx="53.505591"
     inkscape:cy="29.734162"
     inkscape:window-x="24"
     inkscape:window-y="21"
     inkscape:window-maximized="0"
     inkscape:current-layer="svg73"
     inkscape:document-rotation="0"
     inkscape:pagecheckerboard="0"
     inkscape:showpageshadow="2"
     inkscape:deskcolor="#d1d1d1" />
  <defs
     id="defs29">
    <linearGradient
       id="linearGradient4"
       inkscape:collect="always">
      <stop
         style="stop-color:#635eac;stop-opacity:1;"
         offset="0"
         id="stop4" />
      <stop
         style="stop-color:#8581c1;stop-opacity:1;"
         offset="0.5"
         id="stop1" />
    </linearGradient>
    <linearGradient
       id="linearGradient2"
       inkscape:collect="always">
      <stop
         style="stop-color:#edecf4;stop-opacity:1;"
         offset="0"
         id="stop2" />
      <stop
         style="stop-color:#d9d8e9;stop-opacity:1;"
         offset="1"
         id="stop3" />
    </linearGradient>
    <linearGradient
       inkscape:collect="always"
       xlink:href="#linearGradient2"
       id="linearGradient8"
       x1="31.721739"
       y1="5.2278585"
       x2="31.88887"
       y2="59.145416"
       gradientUnits="userSpaceOnUse"
       gradientTransform="matrix(0.8505,0,0,0.8505,4.7765033,4.7794869)" />
    <filter
       style="color-interpolation-filters:sRGB;"
       inkscape:label="Blur"
       id="filter9"
       x="-0.047762285"
       y="-0.047489063"
       width="1.0955246"
       height="1.0949781">
      <feGaussianBlur
         stdDeviation="1 1"
         result="blur"
         id="feGaussianBlur9" />
    </filter>
    <linearGradient
       inkscape:collect="always"
       xlink:href="#linearGradient4"
       id="linearGradient7"
       x1="26.723248"
       y1="58.711765"
       x2="25.756926"
       y2="5.950614"
       gradientUnits="userSpaceOnUse" />
    <filter
       style="color-interpolation-filters:sRGB;"
       inkscape:label="Out of Focus"
       id="filter40"
       x="-0.24226652"
       y="-0.2858297"
       width="1.484533"
       height="1.5716594">
      <feFlood
         flood-opacity="1"
         flood-color="rgb(255,255,255)"
         result="flood"
         id="feFlood38" />
      <feColorMatrix
         in="SourceGraphic"
         values="1 0 0 0 0 0 1 0 0 0 0 0 1 0 0 -0.2125 -0.7154 -0.0721 1 0 "
         result="colormatrix1"
         id="feColorMatrix38" />
      <feGaussianBlur
         in="colormatrix1"
         stdDeviation="3 3"
         result="blur"
         id="feGaussianBlur38" />
      <feColorMatrix
         in="blur"
         values="1 0 0 0 0 0 1 0 0 0 0 0 1 0 0 0 0 0 6 -2 "
         result="colormatrix2"
         id="feColorMatrix39" />
      <feBlend
         in="colormatrix2"
         in2="flood"
         mode="normal"
         result="blend"
         id="feBlend39" />
      <feComposite
         in="blend"
         in2="blend"
         operator="arithmetic"
         k2="0.2"
         result="composite1"
         id="feComposite39" />
      <feComposite
         in2="SourceGraphic"
         operator="in"
         id="feComposite40" />
    </filter>
  </defs>
  <g
     id="g877"
     transform="matrix(1.1,0,0,1.1,-3.1845928,-3.2065454)">
    <ellipse
       style="opacity:0.5;fill:#000000;stroke:none;stroke-width:3.89319;stroke-dasharray:none;stroke-opacity:1;filter:url(#filter9)"
       id="path2-5"
       cx="31.949858"
       cy="31.969812"
       rx="25.124426"
       ry="25.268976"
       transform="matrix(1.05,0,0,1.05,-1.5974929,-1.5984906)" />
    <path
       style="fill:#f5f7fa;stroke-width:0.204426;fill-opacity:1"
       d=""
       id="path3" />
    <circle
       style="opacity:1;fill:url(#linearGradient8);stroke:url(#linearGradient7);stroke-width:3.81818;stroke-dasharray:none;stroke-opacity:1"
       id="path2"
       cx="31.949856"
       cy="31.969812"
       r="24.711082" />
    <ellipse
       style="opacity:0.3;fill:none;stroke:#000000;stroke-width:0.974376;stroke-dasharray:none;stroke-opacity:1"
       id="path2-9"
       cx="31.949856"
       cy="31.969812"
       rx="23.129124"
       ry="23.129126" />
  </g>
  <path
     id="path5-5"
     style="fill:#000000;fill-opacity:1;stroke:none;stroke-width:0.491164;stroke-dasharray:none;stroke-opacity:0.6;opacity:0.2"
     d="m 44.158467,23.289515 c -0.618406,0.0036 -1.236662,0.170679 -1.777698,0.492331 -0.764792,0.454667 -1.425333,1.333833 -1.642042,2.184715 -0.115737,0.454373 -0.114455,1.275033 0.0015,1.72875 0.336854,1.319452 1.499021,2.399467 2.842095,2.640681 0.464253,0.08338 1.148219,0.02524 1.676997,-0.14266 1.766318,-0.560884 2.80369,-2.428543 2.345567,-4.219775 -0.305127,-1.192999 -1.177091,-2.125723 -2.348361,-2.512004 -0.355093,-0.1171 -0.726904,-0.174275 -1.097952,-0.172039 z m -24.360556,0.0055 c -0.363957,0.0064 -0.733374,0.06292 -1.054592,0.167863 -2.447917,0.799616 -3.261235,3.833677 -1.538531,5.737326 0.525887,0.581123 1.124754,0.921939 1.955334,1.113336 0.452874,0.104357 1.197371,0.06403 1.703574,-0.09231 1.041565,-0.321707 1.962917,-1.21589 2.320388,-2.250451 0.198851,-0.575499 0.198851,-1.705724 0,-2.281224 -0.362601,-1.049415 -1.278455,-1.9276 -2.35955,-2.26303 -0.303471,-0.09416 -0.662656,-0.13775 -1.026623,-0.131473 z m 4.175019,4.783437 c -0.01492,0 -0.02794,0.03572 -0.02794,0.07834 0,0.164999 -0.472888,1.044155 -0.7343,1.365096 l -0.274139,0.337082 1.023822,0.604222 c 0.563601,0.332158 1.239215,0.732795 1.50077,0.89095 0.261551,0.158158 0.479426,0.288523 0.483937,0.289524 0.0044,9.9e-4 0.103785,-0.200768 0.220987,-0.447572 0.117193,-0.246785 0.351322,-0.647912 0.520292,-0.892332 0.16896,-0.244415 0.296734,-0.4545 0.283921,-0.467153 -0.04119,-0.04067 -2.969153,-1.758122 -2.997339,-1.758121 z m 16.05808,0 c -0.02531,0 -2.960302,1.719309 -3.001541,1.758124 -0.01263,0.01205 0.114942,0.222739 0.283925,0.467153 0.169001,0.244421 0.402947,0.646619 0.520309,0.893746 l 0.21396,0.448972 0.186011,-0.113287 c 0.102432,-0.06237 0.721011,-0.426876 1.374897,-0.809839 0.653875,-0.382962 1.249727,-0.734388 1.323134,-0.780456 l 0.13285,-0.08251 -0.265736,-0.327286 c -0.247947,-0.304483 -0.74404,-1.227726 -0.74404,-1.384685 0,-0.03846 -0.01078,-0.06993 -0.02362,-0.06993 z m -8.031138,0.268556 c -1.120167,5.09e-4 -1.621219,0.108537 -2.496617,0.537088 -1.9543,0.956716 -3.180567,2.925939 -3.180568,5.109325 0,2.721346 1.885706,5.024595 4.577834,5.591864 0.514139,0.108383 1.981583,0.07471 2.451861,-0.05596 1.081659,-0.300593 1.924415,-0.781867 2.661658,-1.520328 0.741584,-0.742808 1.242687,-1.614773 1.520347,-2.647674 0.170654,-0.634855 0.160866,-2.145084 -0.01789,-2.798729 -0.550586,-2.009254 -2.072758,-3.535138 -4.070395,-4.081311 -0.420103,-0.114862 -0.639937,-0.134643 -1.446219,-0.134274 z m -6.047832,7.993394 -0.186022,0.113288 c -0.102465,0.06236 -0.721002,0.426866 -1.374888,0.809828 -0.653885,0.382964 -1.24973,0.73439 -1.323138,0.780456 l -0.132872,0.08252 0.275533,0.338473 c 0.261729,0.321339 0.734301,1.199987 0.734301,1.365097 0,0.04263 0.01045,0.07835 0.02376,0.07835 0.025,0 2.960294,-1.719307 3.001536,-1.75812 0.01283,-0.01223 -0.114963,-0.222731 -0.283928,-0.467157 -0.168949,-0.244452 -0.402926,-0.646649 -0.520288,-0.893779 z m 12.095658,0 -0.213989,0.448969 c -0.11736,0.24713 -0.353668,0.652991 -0.525905,0.902136 -0.172222,0.249152 -0.286993,0.464294 -0.254576,0.476949 0.03242,0.01272 0.700721,0.406378 1.485383,0.875563 0.784664,0.469183 1.446876,0.855775 1.471401,0.858783 0.02498,0.003 0.0448,-0.02431 0.0448,-0.06015 0,-0.163363 0.480709,-1.06737 0.731501,-1.37489 l 0.278321,-0.341277 -0.132852,-0.08394 c -0.07345,-0.04667 -0.669277,-0.398878 -1.323162,-0.781828 -0.653891,-0.382953 -1.272418,-0.746693 -1.374894,-0.80843 z m 6.077204,1.261595 c -0.07268,5.1e-5 -0.142707,0.0035 -0.209772,0.0099 -1.39931,0.130049 -2.634291,1.077776 -3.089653,2.372138 -0.181355,0.515549 -0.2254,1.48193 -0.09235,2.001491 0.354498,1.383678 1.481396,2.423337 2.90223,2.675643 0.454599,0.08071 1.140036,0.01619 1.650424,-0.153846 2.086722,-0.695897 3.038777,-3.0815 2.008484,-5.033797 -0.28566,-0.541285 -0.97727,-1.208518 -1.532931,-1.479774 -0.499081,-0.243651 -1.127663,-0.391996 -1.636438,-0.391625 z m -24.328388,0.0044 c -0.07131,7.88e-4 -0.143132,0.0043 -0.213996,0.0099 -0.899121,0.07174 -1.611707,0.407417 -2.265835,1.068561 -0.48299,0.488167 -0.756354,0.968871 -0.921721,1.615456 -0.508043,1.986429 0.829742,4.017127 2.872858,4.358241 0.447693,0.07471 0.66907,0.07048 1.181874,-0.02127 0.727093,-0.129642 1.296462,-0.436473 1.865818,-1.007036 0.737609,-0.739177 1.035013,-1.460143 1.035013,-2.50921 0,-0.828969 -0.211962,-1.447677 -0.732903,-2.135765 -0.649105,-0.857073 -1.751555,-1.390109 -2.821108,-1.378786 z" />
  <path
     id="path5"
     style="fill:#4d4d4d;fill-opacity:1;stroke:none;stroke-width:0.491164;stroke-dasharray:none;stroke-opacity:0.6"
     d="m 44.158467,21.289515 c -0.618406,0.0036 -1.236662,0.170679 -1.777698,0.492331 -0.764792,0.454667 -1.425333,1.333833 -1.642042,2.184715 -0.115737,0.454373 -0.114455,1.275033 0.0015,1.72875 0.336854,1.319452 1.499021,2.399467 2.842095,2.640681 0.464253,0.08338 1.148219,0.02524 1.676997,-0.14266 1.766318,-0.560884 2.80369,-2.428543 2.345567,-4.219775 -0.305127,-1.192999 -1.177091,-2.125723 -2.348361,-2.512004 -0.355093,-0.1171 -0.726904,-0.174275 -1.097952,-0.172039 z m -24.360556,0.0055 c -0.363957,0.0064 -0.733374,0.06292 -1.054592,0.167863 -2.447917,0.799616 -3.261235,3.833677 -1.538531,5.737326 0.525887,0.581123 1.124754,0.921939 1.955334,1.113336 0.452874,0.104357 1.197371,0.06403 1.703574,-0.09231 1.041565,-0.321707 1.962917,-1.21589 2.320388,-2.250451 0.198851,-0.575499 0.198851,-1.705724 0,-2.281224 -0.362601,-1.049415 -1.278455,-1.9276 -2.35955,-2.26303 -0.303471,-0.09416 -0.662656,-0.13775 -1.026623,-0.131473 z m 4.175019,4.783437 c -0.01492,0 -0.02794,0.03572 -0.02794,0.07834 0,0.164999 -0.472888,1.044155 -0.7343,1.365096 l -0.274139,0.337082 1.023822,0.604222 c 0.563601,0.332158 1.239215,0.732795 1.50077,0.89095 0.261551,0.158158 0.479426,0.288523 0.483937,0.289524 0.0044,9.9e-4 0.103785,-0.200768 0.220987,-0.447572 0.117193,-0.246785 0.351322,-0.647912 0.520292,-0.892332 0.16896,-0.244415 0.296734,-0.4545 0.283921,-0.467153 -0.04119,-0.04067 -2.969153,-1.758122 -2.997339,-1.758121 z m 16.05808,0 c -0.02531,0 -2.960302,1.719309 -3.001541,1.758124 -0.01263,0.01205 0.114942,0.222739 0.283925,0.467153 0.169001,0.244421 0.402947,0.646619 0.520309,0.893746 l 0.21396,0.448972 0.186011,-0.113287 c 0.102432,-0.06237 0.721011,-0.426876 1.374897,-0.809839 0.653875,-0.382962 1.249727,-0.734388 1.323134,-0.780456 l 0.13285,-0.08251 -0.265736,-0.327286 c -0.247947,-0.304483 -0.74404,-1.227726 -0.74404,-1.384685 0,-0.03846 -0.01078,-0.06993 -0.02362,-0.06993 z m -8.031138,0.268556 c -1.120167,5.09e-4 -1.621219,0.108537 -2.496617,0.537088 -1.9543,0.956716 -3.180567,2.925939 -3.180568,5.109325 0,2.721346 1.885706,5.024595 4.577834,5.591864 0.514139,0.108383 1.981583,0.07471 2.451861,-0.05596 1.081659,-0.300593 1.924415,-0.781867 2.661658,-1.520328 0.741584,-0.742808 1.242687,-1.614773 1.520347,-2.647674 0.170654,-0.634855 0.160866,-2.145084 -0.01789,-2.798729 -0.550586,-2.009254 -2.072758,-3.535138 -4.070395,-4.081311 -0.420103,-0.114862 -0.639937,-0.134643 -1.446219,-0.134274 z m -6.047832,7.993394 -0.186022,0.113288 c -0.102465,0.06236 -0.721002,0.426866 -1.374888,0.809828 -0.653885,0.382964 -1.24973,0.73439 -1.323138,0.780456 l -0.132872,0.08252 0.275533,0.338473 c 0.261729,0.321339 0.734301,1.199987 0.734301,1.365097 0,0.04263 0.01045,0.07835 0.02376,0.07835 0.025,0 2.960294,-1.719307 3.001536,-1.75812 0.01283,-0.01223 -0.114963,-0.222731 -0.283928,-0.467157 -0.168949,-0.244452 -0.402926,-0.646649 -0.520288,-0.893779 z m 12.095658,0 -0.213989,0.448969 c -0.11736,0.24713 -0.353668,0.652991 -0.525905,0.902136 -0.172222,0.249152 -0.286993,0.464294 -0.254576,0.476949 0.03242,0.01272 0.700721,0.406378 1.485383,0.875563 0.784664,0.469183 1.446876,0.855775 1.471401,0.858783 0.02498,0.003 0.0448,-0.02431 0.0448,-0.06015 0,-0.163363 0.480709,-1.06737 0.731501,-1.37489 l 0.278321,-0.341277 -0.132852,-0.08394 c -0.07345,-0.04667 -0.669277,-0.398878 -1.323162,-0.781828 -0.653891,-0.382953 -1.272418,-0.746693 -1.374894,-0.80843 z m 6.077204,1.261595 c -0.07268,5.1e-5 -0.142707,0.0035 -0.209772,0.0099 -1.39931,0.130049 -2.634291,1.077776 -3.089653,2.372138 -0.181355,0.515549 -0.2254,1.48193 -0.09235,2.001491 0.354498,1.383678 1.481396,2.423337 2.90223,2.675643 0.454599,0.08071 1.140036,0.01619 1.650424,-0.153846 2.086722,-0.695897 3.038777,-3.0815 2.008484,-5.033797 -0.28566,-0.541285 -0.97727,-1.208518 -1.532931,-1.479774 -0.499081,-0.243651 -1.127663,-0.391996 -1.636438,-0.391625 z m -24.328388,0.0044 c -0.07131,7.88e-4 -0.143132,0.0043 -0.213996,0.0099 -0.899121,0.07174 -1.611707,0.407417 -2.265835,1.068561 -0.48299,0.488167 -0.756354,0.968871 -0.921721,1.615456 -0.508043,1.986429 0.829742,4.017127 2.872858,4.358241 0.447693,0.07471 0.66907,0.07048 1.181874,-0.02127 0.727093,-0.129642 1.296462,-0.436473 1.865818,-1.007036 0.737609,-0.739177 1.035013,-1.460143 1.035013,-2.50921 0,-0.828969 -0.211962,-1.447677 -0.732903,-2.135765 -0.649105,-0.857073 -1.751555,-1.390109 -2.821108,-1.378786 z" />
</svg>
