<?xml version="1.0" encoding="UTF-8" standalone="no"?>
<svg
   width="64"
   height="64"
   version="1.1"
   id="svg73"
   sodipodi:docname="abcd.svg"
   inkscape:version="1.4.2 (ebf0e940d0, 2025-05-08)"
   xmlns:inkscape="http://www.inkscape.org/namespaces/inkscape"
   xmlns:sodipodi="http://sodipodi.sourceforge.net/DTD/sodipodi-0.dtd"
   xmlns:xlink="http://www.w3.org/1999/xlink"
   xmlns="http://www.w3.org/2000/svg"
   xmlns:svg="http://www.w3.org/2000/svg"
   xmlns:rdf="http://www.w3.org/1999/02/22-rdf-syntax-ns#"
   xmlns:cc="http://creativecommons.org/ns#"
   xmlns:dc="http://purl.org/dc/elements/1.1/">
  <metadata
     id="metadata77">
    <rdf:RDF>
      <cc:Work
         rdf:about="">
        <dc:format>image/svg+xml</dc:format>
        <dc:type
           rdf:resource="http://purl.org/dc/dcmitype/StillImage" />
      </cc:Work>
    </rdf:RDF>
  </metadata>
  <sodipodi:namedview
     pagecolor="#f5f7fa"
     bordercolor="#666666"
     borderopacity="1"
     objecttolerance="10"
     gridtolerance="10"
     guidetolerance="10"
     inkscape:pageopacity="0"
     inkscape:pageshadow="2"
     inkscape:window-width="1345"
     inkscape:window-height="785"
     id="namedview75"
     showgrid="false"
     inkscape:zoom="6.2890624"
     inkscape:cx="31.880746"
     inkscape:cy="29.734162"
     inkscape:window-x="24"
     inkscape:window-y="21"
     inkscape:window-maximized="0"
     inkscape:current-layer="svg73"
     inkscape:document-rotation="0"
     inkscape:pagecheckerboard="0"
     inkscape:showpageshadow="2"
     inkscape:deskcolor="#d1d1d1" />
  <defs
     id="defs29">
    <linearGradient
       id="linearGradient4"
       inkscape:collect="always">
      <stop
         style="stop-color:#635eac;stop-opacity:1;"
         offset="0"
         id="stop4" />
      <stop
         style="stop-color:#8581c1;stop-opacity:1;"
         offset="0.5"
         id="stop1" />
    </linearGradient>
    <linearGradient
       id="linearGradient2"
       inkscape:collect="always">
      <stop
         style="stop-color:#edecf4;stop-opacity:1;"
         offset="0"
         id="stop2" />
      <stop
         style="stop-color:#d9d8e9;stop-opacity:1;"
         offset="1"
         id="stop3" />
    </linearGradient>
    <linearGradient
       inkscape:collect="always"
       xlink:href="#linearGradient2"
       id="linearGradient8"
       x1="31.721739"
       y1="5.2278585"
       x2="31.88887"
       y2="59.145416"
       gradientUnits="userSpaceOnUse"
       gradientTransform="matrix(0.8505,0,0,0.8505,4.7765033,4.7794869)" />
    <filter
       style="color-interpolation-filters:sRGB;"
       inkscape:label="Blur"
       id="filter9"
       x="-0.047762285"
       y="-0.047489063"
       width="1.0955246"
       height="1.0949781">
      <feGaussianBlur
         stdDeviation="1 1"
         result="blur"
         id="feGaussianBlur9" />
    </filter>
    <linearGradient
       inkscape:collect="always"
       xlink:href="#linearGradient4"
       id="linearGradient7"
       x1="26.723248"
       y1="58.711765"
       x2="25.756926"
       y2="5.950614"
       gradientUnits="userSpaceOnUse" />
    <filter
       style="color-interpolation-filters:sRGB;"
       inkscape:label="Out of Focus"
       id="filter40"
       x="-0.24226652"
       y="-0.2858297"
       width="1.484533"
       height="1.5716594">
      <feFlood
         flood-opacity="1"
         flood-color="rgb(255,255,255)"
         result="flood"
         id="feFlood38" />
      <feColorMatrix
         in="SourceGraphic"
         values="1 0 0 0 0 0 1 0 0 0 0 0 1 0 0 -0.2125 -0.7154 -0.0721 1 0 "
         result="colormatrix1"
         id="feColorMatrix38" />
      <feGaussianBlur
         in="colormatrix1"
         stdDeviation="3 3"
         result="blur"
         id="feGaussianBlur38" />
      <feColorMatrix
         in="blur"
         values="1 0 0 0 0 0 1 0 0 0 0 0 1 0 0 0 0 0 6 -2 "
         result="colormatrix2"
         id="feColorMatrix39" />
      <feBlend
         in="colormatrix2"
         in2="flood"
         mode="normal"
         result="blend"
         id="feBlend39" />
      <feComposite
         in="blend"
         in2="blend"
         operator="arithmetic"
         k2="0.2"
         result="composite1"
         id="feComposite39" />
      <feComposite
         in2="SourceGraphic"
         operator="in"
         id="feComposite40" />
    </filter>
  </defs>
  <g
     id="g877"
     transform="matrix(1.1,0,0,1.1,-3.1845928,-3.2065454)">
    <ellipse
       style="opacity:0.5;fill:#000000;stroke:none;stroke-width:3.89319;stroke-dasharray:none;stroke-opacity:1;filter:url(#filter9)"
       id="path2-5"
       cx="31.949858"
       cy="31.969812"
       rx="25.124426"
       ry="25.268976"
       transform="matrix(1.05,0,0,1.05,-1.5974929,-1.5984906)" />
    <path
       style="fill:#f5f7fa;stroke-width:0.204426;fill-opacity:1"
       d=""
       id="path3" />
    <circle
       style="opacity:1;fill:url(#linearGradient8);stroke:url(#linearGradient7);stroke-width:3.81818;stroke-dasharray:none;stroke-opacity:1"
       id="path2"
       cx="31.949856"
       cy="31.969812"
       r="24.711082" />
    <ellipse
       style="opacity:0.3;fill:none;stroke:#000000;stroke-width:0.974376;stroke-dasharray:none;stroke-opacity:1"
       id="path2-9"
       cx="31.949856"
       cy="31.969812"
       rx="23.129124"
       ry="23.129126" />
  </g>
  <path
     d="m 33.861726,30.278419 h 0.994363 c 1.285108,2.227134 3.692507,3.721579 6.448804,3.721579 0.639647,0 1.267664,-0.08141 1.860791,-0.232596 v 0.232596 1.860793 11.16475 c 0,1.029251 -0.831541,1.860792 -1.860791,1.860792 -1.029251,0 -1.860791,-0.831541 -1.860791,-1.860792 v -8.187482 l -7.908364,6.326693 h 3.256386 c 1.02925,0 1.86079,0.831539 1.86079,1.860789 0,1.029251 -0.83154,1.860792 -1.86079,1.860792 h -8.373562 c -3.081937,0 -5.582376,-2.50044 -5.582376,-5.582375 V 30.307491 c 0,-0.936209 -0.697797,-1.732861 -1.628191,-1.849161 L 18.74861,28.40018 c -1.023435,-0.122117 -1.74449,-1.052512 -1.622377,-2.075947 0.122114,-1.023436 1.058326,-1.744493 2.075946,-1.616564 l 0.459382,0.05814 c 2.791187,0.3489 4.890393,2.721407 4.890393,5.54167 v 4.960173 c 2.000351,-3.006342 5.419556,-4.989247 9.303957,-4.989247 z m 9.303958,1.540965 v 0 c -0.581497,0.203526 -1.209512,0.319824 -1.860791,0.319824 -1.651451,0 -3.140085,-0.721056 -4.163521,-1.860789 v 0 c -0.215154,-0.238416 -0.407047,-0.494275 -0.575681,-0.767578 -0.534978,-0.860615 -0.843172,-1.872422 -0.843172,-2.954008 v 0 -5.582373 -1.162995 -0.0756 c 0,-0.343082 0.273304,-0.616387 0.616387,-0.622201 h 0.01163 c 0.191895,0 0.372158,0.09304 0.488458,0.244229 v 0.0058 l 0.744316,0.988545 1.581674,2.110834 0.279118,0.372158 h 3.721583 l 0.279123,-0.372158 1.581671,-2.110834 0.744317,-0.988545 v -0.0058 c 0.116298,-0.151191 0.296564,-0.244229 0.488458,-0.244229 h 0.01166 c 0.343079,0.0058 0.616386,0.279119 0.616386,0.622201 v 0.0756 1.162994 5.582374 c 0,1.005992 -0.267491,1.953831 -0.732689,2.767928 -0.657097,1.151364 -1.721237,2.046871 -2.988904,2.494623 z m -2.791185,-5.262551 c 0,-0.511717 -0.418679,-0.930394 -0.930397,-0.930394 -0.511718,0 -0.930395,0.418677 -0.930395,0.930394 0,0.51172 0.418677,0.930396 0.930395,0.930396 0.511718,0 0.930397,-0.418676 0.930397,-0.930396 z m 2.791185,0.930396 c 0.511719,0 0.930399,-0.418676 0.930399,-0.930396 0,-0.511717 -0.41868,-0.930394 -0.930399,-0.930394 -0.511716,0 -0.930394,0.418677 -0.930394,0.930394 0,0.51172 0.418678,0.930396 0.930394,0.930396 z"
     id="path1-5"
     style="fill:#000000;fill-opacity:1;stroke-width:0.0581496;opacity:0.2" />
  <path
     d="m 33.861726,28.278419 h 0.994363 c 1.285108,2.227134 3.692507,3.721579 6.448804,3.721579 0.639647,0 1.267664,-0.08141 1.860791,-0.232596 v 0.232596 1.860793 11.16475 c 0,1.029251 -0.831541,1.860792 -1.860791,1.860792 -1.029251,0 -1.860791,-0.831541 -1.860791,-1.860792 v -8.187482 l -7.908364,6.326693 h 3.256386 c 1.02925,0 1.86079,0.831539 1.86079,1.860789 0,1.029251 -0.83154,1.860792 -1.86079,1.860792 h -8.373562 c -3.081937,0 -5.582376,-2.50044 -5.582376,-5.582375 V 28.307491 c 0,-0.936209 -0.697797,-1.732861 -1.628191,-1.849161 L 18.74861,26.40018 c -1.023435,-0.122117 -1.74449,-1.052512 -1.622377,-2.075947 0.122114,-1.023436 1.058326,-1.744493 2.075946,-1.616564 l 0.459382,0.05814 c 2.791187,0.3489 4.890393,2.721407 4.890393,5.54167 v 4.960173 c 2.000351,-3.006342 5.419556,-4.989247 9.303957,-4.989247 z m 9.303958,1.540965 v 0 c -0.581497,0.203526 -1.209512,0.319824 -1.860791,0.319824 -1.651451,0 -3.140085,-0.721056 -4.163521,-1.860789 v 0 c -0.215154,-0.238416 -0.407047,-0.494275 -0.575681,-0.767578 -0.534978,-0.860615 -0.843172,-1.872422 -0.843172,-2.954008 v 0 -5.582373 -1.162995 -0.0756 c 0,-0.343082 0.273304,-0.616387 0.616387,-0.622201 h 0.01163 c 0.191895,0 0.372158,0.09304 0.488458,0.244229 v 0.0058 l 0.744316,0.988545 1.581674,2.110834 0.279118,0.372158 h 3.721583 l 0.279123,-0.372158 1.581671,-2.110834 0.744317,-0.988545 v -0.0058 c 0.116298,-0.151191 0.296564,-0.244229 0.488458,-0.244229 h 0.01166 c 0.343079,0.0058 0.616386,0.279119 0.616386,0.622201 v 0.0756 1.162994 5.582374 c 0,1.005992 -0.267491,1.953831 -0.732689,2.767928 -0.657097,1.151364 -1.721237,2.046871 -2.988904,2.494623 z m -2.791185,-5.262551 c 0,-0.511717 -0.418679,-0.930394 -0.930397,-0.930394 -0.511718,0 -0.930395,0.418677 -0.930395,0.930394 0,0.51172 0.418677,0.930396 0.930395,0.930396 0.511718,0 0.930397,-0.418676 0.930397,-0.930396 z m 2.791185,0.930396 c 0.511719,0 0.930399,-0.418676 0.930399,-0.930396 0,-0.511717 -0.41868,-0.930394 -0.930399,-0.930394 -0.511716,0 -0.930394,0.418677 -0.930394,0.930394 0,0.51172 0.418678,0.930396 0.930394,0.930396 z"
     id="path1"
     style="fill:#4d4d4d;fill-opacity:1;stroke-width:0.0581496" />
</svg>
