<?xml version="1.0" encoding="UTF-8" standalone="no"?>
<svg
   width="64"
   height="64"
   version="1.1"
   id="svg73"
   sodipodi:docname="1password.svg"
   inkscape:version="1.4.2 (ebf0e940d0, 2025-05-08)"
   xmlns:inkscape="http://www.inkscape.org/namespaces/inkscape"
   xmlns:sodipodi="http://sodipodi.sourceforge.net/DTD/sodipodi-0.dtd"
   xmlns:xlink="http://www.w3.org/1999/xlink"
   xmlns="http://www.w3.org/2000/svg"
   xmlns:svg="http://www.w3.org/2000/svg"
   xmlns:rdf="http://www.w3.org/1999/02/22-rdf-syntax-ns#"
   xmlns:cc="http://creativecommons.org/ns#"
   xmlns:dc="http://purl.org/dc/elements/1.1/">
  <metadata
     id="metadata77">
    <rdf:RDF>
      <cc:Work
         rdf:about="">
        <dc:format>image/svg+xml</dc:format>
        <dc:type
           rdf:resource="http://purl.org/dc/dcmitype/StillImage" />
      </cc:Work>
    </rdf:RDF>
  </metadata>
  <sodipodi:namedview
     pagecolor="#f5f7fa"
     bordercolor="#666666"
     borderopacity="1"
     objecttolerance="10"
     gridtolerance="10"
     guidetolerance="10"
     inkscape:pageopacity="0"
     inkscape:pageshadow="2"
     inkscape:window-width="1414"
     inkscape:window-height="797"
     id="namedview75"
     showgrid="false"
     inkscape:zoom="6.2890624"
     inkscape:cx="34.345342"
     inkscape:cy="29.734162"
     inkscape:window-x="24"
     inkscape:window-y="21"
     inkscape:window-maximized="0"
     inkscape:current-layer="svg73"
     inkscape:document-rotation="0"
     inkscape:pagecheckerboard="0"
     inkscape:showpageshadow="2"
     inkscape:deskcolor="#d1d1d1" />
  <defs
     id="defs29">
    <linearGradient
       id="linearGradient4"
       inkscape:collect="always">
      <stop
         style="stop-color:#635eac;stop-opacity:1;"
         offset="0"
         id="stop4" />
      <stop
         style="stop-color:#8581c1;stop-opacity:1;"
         offset="0.5"
         id="stop1" />
    </linearGradient>
    <linearGradient
       id="linearGradient2"
       inkscape:collect="always">
      <stop
         style="stop-color:#edecf4;stop-opacity:1;"
         offset="0"
         id="stop2" />
      <stop
         style="stop-color:#d9d8e9;stop-opacity:1;"
         offset="1"
         id="stop3" />
    </linearGradient>
    <linearGradient
       inkscape:collect="always"
       xlink:href="#linearGradient2"
       id="linearGradient8"
       x1="31.721739"
       y1="5.2278585"
       x2="31.88887"
       y2="59.145416"
       gradientUnits="userSpaceOnUse"
       gradientTransform="matrix(0.8505,0,0,0.8505,4.7765033,4.7794869)" />
    <filter
       style="color-interpolation-filters:sRGB;"
       inkscape:label="Blur"
       id="filter9"
       x="-0.047762285"
       y="-0.047489063"
       width="1.0955246"
       height="1.0949781">
      <feGaussianBlur
         stdDeviation="1 1"
         result="blur"
         id="feGaussianBlur9" />
    </filter>
    <linearGradient
       inkscape:collect="always"
       xlink:href="#linearGradient4"
       id="linearGradient7"
       x1="26.723248"
       y1="58.711765"
       x2="25.756926"
       y2="5.950614"
       gradientUnits="userSpaceOnUse" />
    <filter
       style="color-interpolation-filters:sRGB;"
       inkscape:label="Out of Focus"
       id="filter40"
       x="-0.24226652"
       y="-0.2858297"
       width="1.484533"
       height="1.5716594">
      <feFlood
         flood-opacity="1"
         flood-color="rgb(255,255,255)"
         result="flood"
         id="feFlood38" />
      <feColorMatrix
         in="SourceGraphic"
         values="1 0 0 0 0 0 1 0 0 0 0 0 1 0 0 -0.2125 -0.7154 -0.0721 1 0 "
         result="colormatrix1"
         id="feColorMatrix38" />
      <feGaussianBlur
         in="colormatrix1"
         stdDeviation="3 3"
         result="blur"
         id="feGaussianBlur38" />
      <feColorMatrix
         in="blur"
         values="1 0 0 0 0 0 1 0 0 0 0 0 1 0 0 0 0 0 6 -2 "
         result="colormatrix2"
         id="feColorMatrix39" />
      <feBlend
         in="colormatrix2"
         in2="flood"
         mode="normal"
         result="blend"
         id="feBlend39" />
      <feComposite
         in="blend"
         in2="blend"
         operator="arithmetic"
         k2="0.2"
         result="composite1"
         id="feComposite39" />
      <feComposite
         in2="SourceGraphic"
         operator="in"
         id="feComposite40" />
    </filter>
  </defs>
  <g
     id="g877"
     transform="matrix(1.1,0,0,1.1,-3.1845928,-3.2065454)">
    <ellipse
       style="opacity:0.5;fill:#000000;stroke:none;stroke-width:3.89319;stroke-dasharray:none;stroke-opacity:1;filter:url(#filter9)"
       id="path2-5"
       cx="31.949858"
       cy="31.969812"
       rx="25.124426"
       ry="25.268976"
       transform="matrix(1.05,0,0,1.05,-1.5974929,-1.5984906)" />
    <path
       style="fill:#f5f7fa;stroke-width:0.204426;fill-opacity:1"
       d=""
       id="path3" />
    <circle
       style="opacity:1;fill:url(#linearGradient8);stroke:url(#linearGradient7);stroke-width:3.81818;stroke-dasharray:none;stroke-opacity:1"
       id="path2"
       cx="31.949856"
       cy="31.969812"
       r="24.711082" />
    <ellipse
       style="opacity:0.3;fill:none;stroke:#000000;stroke-width:0.974376;stroke-dasharray:none;stroke-opacity:1"
       id="path2-9"
       cx="31.949856"
       cy="31.969812"
       rx="23.129124"
       ry="23.129126" />
  </g>
  <path
     style="fill:#000000;fill-opacity:1;stroke:none;stroke-width:0.48139;stroke-dasharray:none;stroke-opacity:0.6;opacity:0.2"
     d="M 31.981906,18.559701 A 15.441053,15.441053 0 0 0 16.558947,33.999244 15.441053,15.441053 0 0 0 32.000003,49.440299 15.441053,15.441053 0 0 0 47.441052,33.999244 15.441053,15.441053 0 0 0 39.64664,20.60745 a 3.8606494,3.8606494 0 0 1 0.04374,0.556421 v 2.935908 A 10.808737,10.808737 0 0 1 42.808737,31.683087 10.808737,10.808737 0 0 1 32,42.491823 10.808737,10.808737 0 0 1 21.19126,31.683087 10.808737,10.808737 0 0 1 29.929629,21.083948 c 0.493583,-0.613422 1.047754,-1.301851 1.293792,-1.614974 0.226402,-0.288135 0.444638,-0.554932 0.657452,-0.799195 0.03107,-0.03569 0.06989,-0.075 0.101024,-0.110079 z m 3.29781,2.316157 c -0.07402,-0.0055 -0.139691,7.63e-4 -0.183967,0.02112 -0.07846,0.03606 -0.453345,0.469413 -0.836893,0.957543 -0.383543,0.488112 -1.220638,1.530313 -1.860764,2.320668 -0.640132,0.79035 -1.856331,2.304405 -2.69917,3.361141 -1.655818,2.07603 -1.919743,2.494251 -2.192507,3.480268 -0.170351,0.61583 -0.185351,1.610255 -0.03319,2.187987 0.417193,1.583786 1.811475,2.771144 3.609949,3.076146 0.08176,0.01391 0.364224,0.03094 0.625785,0.0347 1.089762,0.0163 2.017604,-0.36702 2.803213,-1.159588 0.41405,-0.41772 0.528097,-0.582199 0.782606,-1.115859 0.163997,-0.343849 0.342165,-0.801933 0.398091,-1.016333 0.143473,-0.549932 0.211841,-1.685442 0.13722,-4.285498 v -7.574274 c -0.02932,-0.1535 -0.328291,-0.272308 -0.550392,-0.288013 z"
     id="path3-3-8" />
  <path
     style="fill:#4d4d4d;fill-opacity:1;stroke:none;stroke-width:0.48139;stroke-dasharray:none;stroke-opacity:0.6"
     d="M 31.981906,16.559701 A 15.441053,15.441053 0 0 0 16.558947,31.999244 15.441053,15.441053 0 0 0 32.000003,47.440299 15.441053,15.441053 0 0 0 47.441052,31.999244 15.441053,15.441053 0 0 0 39.64664,18.60745 a 3.8606494,3.8606494 0 0 1 0.04374,0.556421 v 2.935908 A 10.808737,10.808737 0 0 1 42.808737,29.683087 10.808737,10.808737 0 0 1 32,40.491823 10.808737,10.808737 0 0 1 21.19126,29.683087 10.808737,10.808737 0 0 1 29.929629,19.083948 c 0.493583,-0.613422 1.047754,-1.301851 1.293792,-1.614974 0.226402,-0.288135 0.444638,-0.554932 0.657452,-0.799195 0.03107,-0.03569 0.06989,-0.075 0.101024,-0.110079 z m 3.29781,2.316157 c -0.07402,-0.0055 -0.139691,7.63e-4 -0.183967,0.02112 -0.07846,0.03606 -0.453345,0.469413 -0.836893,0.957543 -0.383543,0.488112 -1.220638,1.530313 -1.860764,2.320668 -0.640132,0.79035 -1.856331,2.304405 -2.69917,3.361141 -1.655818,2.07603 -1.919743,2.494251 -2.192507,3.480268 -0.170351,0.61583 -0.185351,1.610255 -0.03319,2.187987 0.417193,1.583786 1.811475,2.771144 3.609949,3.076146 0.08176,0.01391 0.364224,0.03094 0.625785,0.0347 1.089762,0.0163 2.017604,-0.36702 2.803213,-1.159588 0.41405,-0.41772 0.528097,-0.582199 0.782606,-1.115859 0.163997,-0.343849 0.342165,-0.801933 0.398091,-1.016333 0.143473,-0.549932 0.211841,-1.685442 0.13722,-4.285498 v -7.574274 c -0.02932,-0.1535 -0.328291,-0.272308 -0.550392,-0.288013 z"
     id="path3-3" />
</svg>
