<?xml version="1.0" encoding="UTF-8" standalone="no"?>
<svg
   width="64"
   height="64"
   version="1.1"
   id="svg73"
   sodipodi:docname="abcd.svg"
   inkscape:version="1.4.2 (ebf0e940d0, 2025-05-08)"
   xmlns:inkscape="http://www.inkscape.org/namespaces/inkscape"
   xmlns:sodipodi="http://sodipodi.sourceforge.net/DTD/sodipodi-0.dtd"
   xmlns:xlink="http://www.w3.org/1999/xlink"
   xmlns="http://www.w3.org/2000/svg"
   xmlns:svg="http://www.w3.org/2000/svg"
   xmlns:rdf="http://www.w3.org/1999/02/22-rdf-syntax-ns#"
   xmlns:cc="http://creativecommons.org/ns#"
   xmlns:dc="http://purl.org/dc/elements/1.1/">
  <metadata
     id="metadata77">
    <rdf:RDF>
      <cc:Work
         rdf:about="">
        <dc:format>image/svg+xml</dc:format>
        <dc:type
           rdf:resource="http://purl.org/dc/dcmitype/StillImage" />
      </cc:Work>
    </rdf:RDF>
  </metadata>
  <sodipodi:namedview
     pagecolor="#f5f7fa"
     bordercolor="#666666"
     borderopacity="1"
     objecttolerance="10"
     gridtolerance="10"
     guidetolerance="10"
     inkscape:pageopacity="0"
     inkscape:pageshadow="2"
     inkscape:window-width="1263"
     inkscape:window-height="693"
     id="namedview75"
     showgrid="false"
     inkscape:zoom="4.4470387"
     inkscape:cx="36.091433"
     inkscape:cy="29.682674"
     inkscape:window-x="24"
     inkscape:window-y="21"
     inkscape:window-maximized="0"
     inkscape:current-layer="svg73"
     inkscape:document-rotation="0"
     inkscape:pagecheckerboard="0"
     inkscape:showpageshadow="2"
     inkscape:deskcolor="#d1d1d1" />
  <defs
     id="defs29">
    <linearGradient
       id="linearGradient4"
       inkscape:collect="always">
      <stop
         style="stop-color:#635eac;stop-opacity:1;"
         offset="0"
         id="stop4" />
      <stop
         style="stop-color:#8581c1;stop-opacity:1;"
         offset="0.5"
         id="stop1" />
    </linearGradient>
    <linearGradient
       id="linearGradient2"
       inkscape:collect="always">
      <stop
         style="stop-color:#edecf4;stop-opacity:1;"
         offset="0"
         id="stop2" />
      <stop
         style="stop-color:#d9d8e9;stop-opacity:1;"
         offset="1"
         id="stop3" />
    </linearGradient>
    <linearGradient
       inkscape:collect="always"
       xlink:href="#linearGradient2"
       id="linearGradient8"
       x1="31.721739"
       y1="5.2278585"
       x2="31.88887"
       y2="59.145416"
       gradientUnits="userSpaceOnUse"
       gradientTransform="matrix(0.8505,0,0,0.8505,4.7765033,4.7794869)" />
    <filter
       style="color-interpolation-filters:sRGB;"
       inkscape:label="Blur"
       id="filter9"
       x="-0.047762285"
       y="-0.047489063"
       width="1.0955246"
       height="1.0949781">
      <feGaussianBlur
         stdDeviation="1 1"
         result="blur"
         id="feGaussianBlur9" />
    </filter>
    <linearGradient
       inkscape:collect="always"
       xlink:href="#linearGradient4"
       id="linearGradient7"
       x1="26.723248"
       y1="58.711765"
       x2="25.756926"
       y2="5.950614"
       gradientUnits="userSpaceOnUse" />
    <filter
       style="color-interpolation-filters:sRGB;"
       inkscape:label="Out of Focus"
       id="filter40"
       x="-0.24226652"
       y="-0.2858297"
       width="1.484533"
       height="1.5716594">
      <feFlood
         flood-opacity="1"
         flood-color="rgb(255,255,255)"
         result="flood"
         id="feFlood38" />
      <feColorMatrix
         in="SourceGraphic"
         values="1 0 0 0 0 0 1 0 0 0 0 0 1 0 0 -0.2125 -0.7154 -0.0721 1 0 "
         result="colormatrix1"
         id="feColorMatrix38" />
      <feGaussianBlur
         in="colormatrix1"
         stdDeviation="3 3"
         result="blur"
         id="feGaussianBlur38" />
      <feColorMatrix
         in="blur"
         values="1 0 0 0 0 0 1 0 0 0 0 0 1 0 0 0 0 0 6 -2 "
         result="colormatrix2"
         id="feColorMatrix39" />
      <feBlend
         in="colormatrix2"
         in2="flood"
         mode="normal"
         result="blend"
         id="feBlend39" />
      <feComposite
         in="blend"
         in2="blend"
         operator="arithmetic"
         k2="0.2"
         result="composite1"
         id="feComposite39" />
      <feComposite
         in2="SourceGraphic"
         operator="in"
         id="feComposite40" />
    </filter>
  </defs>
  <g
     id="g877"
     transform="matrix(1.1,0,0,1.1,-3.1845928,-3.2065454)">
    <ellipse
       style="opacity:0.5;fill:#000000;stroke:none;stroke-width:3.89319;stroke-dasharray:none;stroke-opacity:1;filter:url(#filter9)"
       id="path2-5"
       cx="31.949858"
       cy="31.969812"
       rx="25.124426"
       ry="25.268976"
       transform="matrix(1.05,0,0,1.05,-1.5974929,-1.5984906)" />
    <path
       style="fill:#f5f7fa;stroke-width:0.204426;fill-opacity:1"
       d=""
       id="path3" />
    <circle
       style="opacity:1;fill:url(#linearGradient8);stroke:url(#linearGradient7);stroke-width:3.81818;stroke-dasharray:none;stroke-opacity:1"
       id="path2"
       cx="31.949856"
       cy="31.969812"
       r="24.711082" />
    <ellipse
       style="opacity:0.3;fill:none;stroke:#000000;stroke-width:0.974376;stroke-dasharray:none;stroke-opacity:1"
       id="path2-9"
       cx="31.949856"
       cy="31.969812"
       rx="23.129124"
       ry="23.129126" />
  </g>
  <path
     d="m 35.215442,21.215502 -11.251178,3.0434 c -0.844875,0.237847 -1.526358,1.18096 -1.526358,2.097188 v 14.524149 c -0.857278,-0.470516 -1.956544,-0.659768 -3.098208,-0.349526 -2.058924,0.56049 -3.349501,2.371222 -2.907934,4.043384 0.440534,1.672176 2.470501,2.608052 4.529427,2.047556 1.642176,-0.446732 2.773496,-1.713532 2.953432,-3.046504 l 0.04965,-13.724782 10.086766,-2.831407 v 10.411474 c -0.747666,-0.265765 -1.613218,-0.338154 -2.508766,-0.09412 -2.058924,0.559456 -3.347432,2.370192 -2.905864,4.04339 0.44157,1.672164 2.468433,2.60701 4.527359,2.046522 1.46224,-0.397109 2.514968,-1.44363 2.857262,-2.609082 0.36814,-0.68045 0.535675,-1.446731 0.535675,-1.752823 0,-0.09619 0.01215,-0.324719 0.01332,-0.426058 v -0.380558 c 0.05065,-0.375385 0.234688,-0.678375 0.726968,-0.678375 0.499478,0 0.692859,0.305056 0.766274,0.678375 h 0.01764 v 1.695949 c 0,0.562563 0.338128,1.016541 0.755946,1.016541 0.416751,0 0.755938,-0.453978 0.755938,-1.016541 v -3.731082 c 0,-0.298857 0.279239,-1.355728 0.503617,-1.355728 0.22332,0 0.503612,1.056866 0.503612,1.355728 v 0.340226 c 0,0.562556 0.340261,1.016532 0.758012,1.016532 0.416748,0 0.754901,-0.453976 0.754901,-1.016532 v -3.05271 c 0,-0.299895 0.280283,-0.678381 0.50465,-0.678381 0.223319,0 0.503613,0.378486 0.503613,0.678381 v 0.340225 c 0,0.561525 0.338128,1.016535 0.754899,1.016535 0.417784,0 0.75594,-0.45501 0.75594,-1.016535 v -1.018595 h 2.266788 c 0.41778,0 0.755936,-0.45398 0.755936,-1.015503 0,-0.562559 -0.338163,-1.018604 -0.755936,-1.018604 H 44.63199 v -1.016536 c 0,-0.561524 -0.338161,-1.017571 -0.755937,-1.017571 -0.416749,0 -0.754908,0.456047 -0.754908,1.017571 v 0.338153 c 0,0.299897 -0.280284,0.678381 -0.503608,0.678381 -0.224416,0 -0.504649,-0.378487 -0.504649,-0.678381 v -3.050633 c 0,-0.561525 -0.338127,-1.018607 -0.754909,-1.018607 -0.417778,0 -0.758001,0.457082 -0.758001,1.018607 v 0.338156 c 0,0.299893 -0.280283,1.356757 -0.503621,1.356757 -0.22433,0 -0.503616,-1.056866 -0.503616,-1.356757 v -3.729024 c 0,-0.561523 -0.339177,-1.018604 -0.755934,-1.018604 -0.417786,0 -0.755943,0.457081 -0.755943,1.018604 v 1.694914 c -0.05173,0.374349 -0.243018,0.677343 -0.783859,0.677343 -0.49224,0 -0.652525,-0.302999 -0.704231,-0.677343 L 36.442941,24.682888 C 36.442015,24.582579 36.320927,23.14309 36.289909,23.051057 36.209269,22.815276 36.187532,22.563987 36.141,22.32821 36.07274,21.738763 35.710803,21.302365 35.215459,21.215499 Z"
     fill="url(#d)"
     fill-rule="nonzero"
     id="path11-1"
     style="fill:#000000;fill-opacity:1;stroke:none;stroke-width:0.504314;stroke-dasharray:none;stroke-opacity:0.6;opacity:0.2" />
  <path
     d="m 35.215442,19.215502 -11.251178,3.0434 c -0.844875,0.237847 -1.526358,1.18096 -1.526358,2.097188 v 14.524149 c -0.857278,-0.470516 -1.956544,-0.659768 -3.098208,-0.349526 -2.058924,0.56049 -3.349501,2.371222 -2.907934,4.043384 0.440534,1.672176 2.470501,2.608052 4.529427,2.047556 1.642176,-0.446732 2.773496,-1.713532 2.953432,-3.046504 l 0.04965,-13.724782 10.086766,-2.831407 v 10.411474 c -0.747666,-0.265765 -1.613218,-0.338154 -2.508766,-0.09412 -2.058924,0.559456 -3.347432,2.370192 -2.905864,4.04339 0.44157,1.672164 2.468433,2.60701 4.527359,2.046522 1.46224,-0.397109 2.514968,-1.44363 2.857262,-2.609082 0.36814,-0.68045 0.535675,-1.446731 0.535675,-1.752823 0,-0.09619 0.01215,-0.324719 0.01332,-0.426058 v -0.380558 c 0.05065,-0.375385 0.234688,-0.678375 0.726968,-0.678375 0.499478,0 0.692859,0.305056 0.766274,0.678375 h 0.01764 v 1.695949 c 0,0.562563 0.338128,1.016541 0.755946,1.016541 0.416751,0 0.755938,-0.453978 0.755938,-1.016541 v -3.731082 c 0,-0.298857 0.279239,-1.355728 0.503617,-1.355728 0.22332,0 0.503612,1.056866 0.503612,1.355728 v 0.340226 c 0,0.562556 0.340261,1.016532 0.758012,1.016532 0.416748,0 0.754901,-0.453976 0.754901,-1.016532 v -3.05271 c 0,-0.299895 0.280283,-0.678381 0.50465,-0.678381 0.223319,0 0.503613,0.378486 0.503613,0.678381 v 0.340225 c 0,0.561525 0.338128,1.016535 0.754899,1.016535 0.417784,0 0.75594,-0.45501 0.75594,-1.016535 v -1.018595 h 2.266788 c 0.41778,0 0.755936,-0.45398 0.755936,-1.015503 0,-0.562559 -0.338163,-1.018604 -0.755936,-1.018604 H 44.63199 v -1.016536 c 0,-0.561524 -0.338161,-1.017571 -0.755937,-1.017571 -0.416749,0 -0.754908,0.456047 -0.754908,1.017571 v 0.338153 c 0,0.299897 -0.280284,0.678381 -0.503608,0.678381 -0.224416,0 -0.504649,-0.378487 -0.504649,-0.678381 v -3.050633 c 0,-0.561525 -0.338127,-1.018607 -0.754909,-1.018607 -0.417778,0 -0.758001,0.457082 -0.758001,1.018607 v 0.338156 c 0,0.299893 -0.280283,1.356757 -0.503621,1.356757 -0.22433,0 -0.503616,-1.056866 -0.503616,-1.356757 v -3.729024 c 0,-0.561523 -0.339177,-1.018604 -0.755934,-1.018604 -0.417786,0 -0.755943,0.457081 -0.755943,1.018604 v 1.694914 c -0.05173,0.374349 -0.243018,0.677343 -0.783859,0.677343 -0.49224,0 -0.652525,-0.302999 -0.704231,-0.677343 L 36.442941,22.682888 C 36.442015,22.582579 36.320927,21.14309 36.289909,21.051057 36.209269,20.815276 36.187532,20.563987 36.141,20.32821 36.07274,19.738763 35.710803,19.302365 35.215459,19.215499 Z"
     fill="url(#d)"
     fill-rule="nonzero"
     id="path11"
     style="fill:#4d4d4d;fill-opacity:1;stroke:none;stroke-width:0.504314;stroke-dasharray:none;stroke-opacity:0.6" />
</svg>
