<?xml version="1.0" encoding="UTF-8" standalone="no"?>
<svg
   width="64"
   height="64"
   version="1.1"
   id="svg73"
   sodipodi:docname="abcd.svg"
   inkscape:version="1.4.2 (ebf0e940d0, 2025-05-08)"
   xmlns:inkscape="http://www.inkscape.org/namespaces/inkscape"
   xmlns:sodipodi="http://sodipodi.sourceforge.net/DTD/sodipodi-0.dtd"
   xmlns:xlink="http://www.w3.org/1999/xlink"
   xmlns="http://www.w3.org/2000/svg"
   xmlns:svg="http://www.w3.org/2000/svg"
   xmlns:rdf="http://www.w3.org/1999/02/22-rdf-syntax-ns#"
   xmlns:cc="http://creativecommons.org/ns#"
   xmlns:dc="http://purl.org/dc/elements/1.1/">
  <metadata
     id="metadata77">
    <rdf:RDF>
      <cc:Work
         rdf:about="">
        <dc:format>image/svg+xml</dc:format>
        <dc:type
           rdf:resource="http://purl.org/dc/dcmitype/StillImage" />
      </cc:Work>
    </rdf:RDF>
  </metadata>
  <sodipodi:namedview
     pagecolor="#f5f7fa"
     bordercolor="#666666"
     borderopacity="1"
     objecttolerance="10"
     gridtolerance="10"
     guidetolerance="10"
     inkscape:pageopacity="0"
     inkscape:pageshadow="2"
     inkscape:window-width="1462"
     inkscape:window-height="840"
     id="namedview75"
     showgrid="false"
     inkscape:zoom="6.2890624"
     inkscape:cx="53.585094"
     inkscape:cy="29.654659"
     inkscape:window-x="24"
     inkscape:window-y="21"
     inkscape:window-maximized="0"
     inkscape:current-layer="svg73"
     inkscape:document-rotation="0"
     inkscape:pagecheckerboard="0"
     inkscape:showpageshadow="2"
     inkscape:deskcolor="#d1d1d1" />
  <defs
     id="defs29">
    <linearGradient
       id="linearGradient4"
       inkscape:collect="always">
      <stop
         style="stop-color:#635eac;stop-opacity:1;"
         offset="0"
         id="stop4" />
      <stop
         style="stop-color:#8581c1;stop-opacity:1;"
         offset="0.5"
         id="stop1" />
    </linearGradient>
    <linearGradient
       id="linearGradient2"
       inkscape:collect="always">
      <stop
         style="stop-color:#edecf4;stop-opacity:1;"
         offset="0"
         id="stop2" />
      <stop
         style="stop-color:#d9d8e9;stop-opacity:1;"
         offset="1"
         id="stop3" />
    </linearGradient>
    <linearGradient
       inkscape:collect="always"
       xlink:href="#linearGradient2"
       id="linearGradient8"
       x1="31.721739"
       y1="5.2278585"
       x2="31.88887"
       y2="59.145416"
       gradientUnits="userSpaceOnUse"
       gradientTransform="matrix(0.8505,0,0,0.8505,4.7765033,4.7794869)" />
    <filter
       style="color-interpolation-filters:sRGB;"
       inkscape:label="Blur"
       id="filter9"
       x="-0.047762285"
       y="-0.047489063"
       width="1.0955246"
       height="1.0949781">
      <feGaussianBlur
         stdDeviation="1 1"
         result="blur"
         id="feGaussianBlur9" />
    </filter>
    <linearGradient
       inkscape:collect="always"
       xlink:href="#linearGradient4"
       id="linearGradient7"
       x1="26.723248"
       y1="58.711765"
       x2="25.756926"
       y2="5.950614"
       gradientUnits="userSpaceOnUse" />
    <filter
       style="color-interpolation-filters:sRGB;"
       inkscape:label="Out of Focus"
       id="filter40"
       x="-0.24226652"
       y="-0.2858297"
       width="1.484533"
       height="1.5716594">
      <feFlood
         flood-opacity="1"
         flood-color="rgb(255,255,255)"
         result="flood"
         id="feFlood38" />
      <feColorMatrix
         in="SourceGraphic"
         values="1 0 0 0 0 0 1 0 0 0 0 0 1 0 0 -0.2125 -0.7154 -0.0721 1 0 "
         result="colormatrix1"
         id="feColorMatrix38" />
      <feGaussianBlur
         in="colormatrix1"
         stdDeviation="3 3"
         result="blur"
         id="feGaussianBlur38" />
      <feColorMatrix
         in="blur"
         values="1 0 0 0 0 0 1 0 0 0 0 0 1 0 0 0 0 0 6 -2 "
         result="colormatrix2"
         id="feColorMatrix39" />
      <feBlend
         in="colormatrix2"
         in2="flood"
         mode="normal"
         result="blend"
         id="feBlend39" />
      <feComposite
         in="blend"
         in2="blend"
         operator="arithmetic"
         k2="0.2"
         result="composite1"
         id="feComposite39" />
      <feComposite
         in2="SourceGraphic"
         operator="in"
         id="feComposite40" />
    </filter>
  </defs>
  <g
     id="g877"
     transform="matrix(1.1,0,0,1.1,-3.1845928,-3.2065454)">
    <ellipse
       style="opacity:0.5;fill:#000000;stroke:none;stroke-width:3.89319;stroke-dasharray:none;stroke-opacity:1;filter:url(#filter9)"
       id="path2-5"
       cx="31.949858"
       cy="31.969812"
       rx="25.124426"
       ry="25.268976"
       transform="matrix(1.05,0,0,1.05,-1.5974929,-1.5984906)" />
    <path
       style="fill:#f5f7fa;stroke-width:0.204426;fill-opacity:1"
       d=""
       id="path3" />
    <circle
       style="opacity:1;fill:url(#linearGradient8);stroke:url(#linearGradient7);stroke-width:3.81818;stroke-dasharray:none;stroke-opacity:1"
       id="path2"
       cx="31.949856"
       cy="31.969812"
       r="24.711082" />
    <ellipse
       style="opacity:0.3;fill:none;stroke:#000000;stroke-width:0.974376;stroke-dasharray:none;stroke-opacity:1"
       id="path2-9"
       cx="31.949856"
       cy="31.969812"
       rx="23.129124"
       ry="23.129126" />
  </g>
  <path
     style="fill:#000000;fill-opacity:1;stroke:none;stroke-width:0.0653161;stroke-opacity:1;opacity:0.2"
     d="m 31.397205,45.499083 c -4.014242,-0.332364 -7.715596,-2.049812 -10.54341,-4.892201 -0.414369,-0.41651 -0.942431,-0.990533 -1.173474,-1.275619 -1.037216,-1.279818 -2.144186,-3.226327 -2.711559,-4.768025 -0.31101,-0.845086 -0.70601,-2.413292 -0.856572,-3.400699 -0.168719,-1.106509 -0.168719,-3.661576 0,-4.768086 0.198596,-1.302438 0.859648,-3.682446 1.08662,-3.912199 0.03397,-0.03442 0.200612,0.0027 0.404252,0.09073 0.19053,0.08209 0.468486,0.201695 0.617674,0.265773 l 0.271253,0.116513 -0.290372,0.87048 c -1.1617,3.482568 -1.075116,7.273157 0.241655,10.580181 1.826892,4.58816 5.740155,8.035691 10.483218,9.235562 3.569062,0.902884 7.227524,0.527005 10.512023,-1.080057 2.974645,-1.455447 5.357102,-3.782294 6.923036,-6.761446 0.207647,-0.395163 0.410362,-0.708805 0.450332,-0.696985 0.07094,0.02094 1.165741,0.479393 1.200715,0.502773 0.03551,0.02363 -0.476708,1.057867 -0.791532,1.598514 -2.606212,4.475694 -7.217406,7.540562 -12.322032,8.189911 -0.972451,0.123663 -2.662963,0.174375 -3.501838,0.104885 z m 1.622706,-2.578763 c -0.671434,-0.18887 -0.984238,-0.447796 -1.038715,-0.859868 -0.03005,-0.226973 0.05634,-2.012336 0.337565,-6.978939 0.05288,-0.934024 0.113974,-1.940709 0.135749,-2.237081 l 0.03956,-0.538859 0.337046,-9.9e-4 c 0.185382,-5.91e-4 0.507159,-0.04105 0.715078,-0.08998 l 0.378025,-0.08895 0.1045,0.204276 c 0.05748,0.112348 1.059282,2.023629 2.226246,4.247288 1.166961,2.223656 2.149358,4.14298 2.183097,4.265181 0.210674,0.763205 -0.743152,1.527986 -2.477561,1.986398 -0.682426,0.18034 -2.431227,0.234789 -2.940591,0.09152 z M 28.008183,42.400558 C 26.552541,42.021065 25.14165,41.24962 24.246299,40.34364 c -0.56701,-0.573737 -0.757316,-0.951966 -0.681724,-1.354907 0.0515,-0.274425 -0.12147,-0.08998 4.3821,-4.673448 1.43905,-1.46458 2.637368,-2.662876 2.662932,-2.662876 0.02559,0 0.15775,0.07024 0.293751,0.156098 0.135983,0.08584 0.399949,0.210316 0.586546,0.276598 0.287056,0.101948 0.339256,0.145782 0.339131,0.284794 -1.94e-4,0.240336 -0.677003,5.537897 -0.97891,7.662441 -0.177254,1.247341 -0.296331,1.888868 -0.375852,2.025034 -0.06401,0.10956 -0.245557,0.26761 -0.403418,0.351096 -0.397352,0.210166 -1.238749,0.206881 -2.062672,-0.0079 z m 11.65846,-2.208046 c -0.296275,-0.201789 -1.602728,-2.267029 -4.234044,-6.693104 l -0.979395,-1.647422 0.23925,-0.147131 c 0.131576,-0.08093 0.356818,-0.254503 0.500513,-0.385727 l 0.261263,-0.238592 4.331908,1.879217 c 2.382545,1.03357 4.402413,1.94546 4.488604,2.026422 0.469032,0.440653 0.30866,1.36462 -0.436449,2.514361 -1.264297,1.95086 -3.315973,3.27481 -4.17165,2.691976 z M 21.930269,37.565283 c -0.734444,-0.367228 -1.464785,-1.205698 -1.992774,-2.28782 -0.394672,-0.808883 -0.544282,-1.41246 -0.49664,-2.003576 0.04821,-0.598183 0.244482,-0.933804 0.676072,-1.156089 0.256304,-0.132002 3.124832,-0.781923 6.093068,-1.380499 1.599711,-0.322599 2.973916,-0.601744 3.053788,-0.620319 0.117663,-0.02734 0.169664,0.01408 0.273905,0.218457 0.07076,0.138723 0.235994,0.392824 0.36716,0.564656 l 0.238478,0.312428 -0.153145,0.145042 c -2.521884,2.388478 -6.514839,5.979713 -6.94603,6.247211 -0.278758,0.172932 -0.720354,0.157277 -1.113882,-0.03949 z m 10.12093,-6.594331 c -0.391463,-0.129201 -0.751869,-0.375649 -1.058077,-0.723521 -0.283713,-0.322317 -0.555728,-0.934866 -0.52251,-1.176654 0.01841,-0.133926 0.129758,-0.0946 1.832352,0.64729 0.997021,0.434438 1.804155,0.819598 1.793627,0.855914 -0.01067,0.03631 -0.189772,0.151872 -0.398334,0.256809 -0.447766,0.225272 -1.196206,0.288965 -1.647058,0.140162 z m -12.871885,-0.28934 c -0.935352,-0.593338 -0.986936,-3.235407 -0.09999,-5.122147 0.276185,-0.587526 0.68382,-1.026527 0.953177,-1.026527 0.08571,0 2.179807,0.862314 4.653595,1.916257 l 4.497794,1.916251 v 0.582094 0.582091 l -1.436963,0.24244 c -2.811234,0.474301 -6.273113,0.928284 -7.642001,1.002154 -0.646978,0.03491 -0.73909,0.02568 -0.925601,-0.09262 z"
     id="path1-6-9" />
  <path
     style="fill:#4d4d4d;fill-opacity:1;stroke:none;stroke-width:0.0653161;stroke-opacity:1"
     d="m 31.397205,43.499083 c -4.014242,-0.332364 -7.715596,-2.049812 -10.54341,-4.892201 -0.414369,-0.41651 -0.942431,-0.990533 -1.173474,-1.275619 -1.037216,-1.279818 -2.144186,-3.226327 -2.711559,-4.768025 -0.31101,-0.845086 -0.70601,-2.413292 -0.856572,-3.400699 -0.168719,-1.106509 -0.168719,-3.661576 0,-4.768086 0.198596,-1.302438 0.859648,-3.682446 1.08662,-3.912199 0.03397,-0.03442 0.200612,0.0027 0.404252,0.09073 0.19053,0.08209 0.468486,0.201695 0.617674,0.265773 l 0.271253,0.116513 -0.290372,0.87048 c -1.1617,3.482568 -1.075116,7.273157 0.241655,10.580181 1.826892,4.58816 5.740155,8.035691 10.483218,9.235562 3.569062,0.902884 7.227524,0.527005 10.512023,-1.080057 2.974645,-1.455447 5.357102,-3.782294 6.923036,-6.761446 0.207647,-0.395163 0.410362,-0.708805 0.450332,-0.696985 0.07094,0.02094 1.165741,0.479393 1.200715,0.502773 0.03551,0.02363 -0.476708,1.057867 -0.791532,1.598514 -2.606212,4.475694 -7.217406,7.540562 -12.322032,8.189911 -0.972451,0.123663 -2.662963,0.174375 -3.501838,0.104885 z m 1.622706,-2.578763 c -0.671434,-0.18887 -0.984238,-0.447796 -1.038715,-0.859868 -0.03005,-0.226973 0.05634,-2.012336 0.337565,-6.978939 0.05288,-0.934024 0.113974,-1.940709 0.135749,-2.237081 l 0.03956,-0.538859 0.337046,-9.9e-4 c 0.185382,-5.91e-4 0.507159,-0.04105 0.715078,-0.08998 l 0.378025,-0.08895 0.1045,0.204276 c 0.05748,0.112348 1.059282,2.023629 2.226246,4.247288 1.166961,2.223656 2.149358,4.14298 2.183097,4.265181 0.210674,0.763205 -0.743152,1.527986 -2.477561,1.986398 -0.682426,0.18034 -2.431227,0.234789 -2.940591,0.09152 z M 28.008183,40.400558 C 26.552541,40.021065 25.14165,39.24962 24.246299,38.34364 c -0.56701,-0.573737 -0.757316,-0.951966 -0.681724,-1.354907 0.0515,-0.274425 -0.12147,-0.08998 4.3821,-4.673448 1.43905,-1.46458 2.637368,-2.662876 2.662932,-2.662876 0.02559,0 0.15775,0.07024 0.293751,0.156098 0.135983,0.08584 0.399949,0.210316 0.586546,0.276598 0.287056,0.101948 0.339256,0.145782 0.339131,0.284794 -1.94e-4,0.240336 -0.677003,5.537897 -0.97891,7.662441 -0.177254,1.247341 -0.296331,1.888868 -0.375852,2.025034 -0.06401,0.10956 -0.245557,0.26761 -0.403418,0.351096 -0.397352,0.210166 -1.238749,0.206881 -2.062672,-0.0079 z m 11.65846,-2.208046 c -0.296275,-0.201789 -1.602728,-2.267029 -4.234044,-6.693104 l -0.979395,-1.647422 0.23925,-0.147131 c 0.131576,-0.08093 0.356818,-0.254503 0.500513,-0.385727 l 0.261263,-0.238592 4.331908,1.879217 c 2.382545,1.03357 4.402413,1.94546 4.488604,2.026422 0.469032,0.440653 0.30866,1.36462 -0.436449,2.514361 -1.264297,1.95086 -3.315973,3.27481 -4.17165,2.691976 z M 21.930269,35.565283 c -0.734444,-0.367228 -1.464785,-1.205698 -1.992774,-2.28782 -0.394672,-0.808883 -0.544282,-1.41246 -0.49664,-2.003576 0.04821,-0.598183 0.244482,-0.933804 0.676072,-1.156089 0.256304,-0.132002 3.124832,-0.781923 6.093068,-1.380499 1.599711,-0.322599 2.973916,-0.601744 3.053788,-0.620319 0.117663,-0.02734 0.169664,0.01408 0.273905,0.218457 0.07076,0.138723 0.235994,0.392824 0.36716,0.564656 l 0.238478,0.312428 -0.153145,0.145042 c -2.521884,2.388478 -6.514839,5.979713 -6.94603,6.247211 -0.278758,0.172932 -0.720354,0.157277 -1.113882,-0.03949 z m 10.12093,-6.594331 c -0.391463,-0.129201 -0.751869,-0.375649 -1.058077,-0.723521 -0.283713,-0.322317 -0.555728,-0.934866 -0.52251,-1.176654 0.01841,-0.133926 0.129758,-0.0946 1.832352,0.64729 0.997021,0.434438 1.804155,0.819598 1.793627,0.855914 -0.01067,0.03631 -0.189772,0.151872 -0.398334,0.256809 -0.447766,0.225272 -1.196206,0.288965 -1.647058,0.140162 z m -12.871885,-0.28934 c -0.935352,-0.593338 -0.986936,-3.235407 -0.09999,-5.122147 0.276185,-0.587526 0.68382,-1.026527 0.953177,-1.026527 0.08571,0 2.179807,0.862314 4.653595,1.916257 l 4.497794,1.916251 v 0.582094 0.582091 l -1.436963,0.24244 c -2.811234,0.474301 -6.273113,0.928284 -7.642001,1.002154 -0.646978,0.03491 -0.73909,0.02568 -0.925601,-0.09262 z"
     id="path1-6" />
</svg>
