<?xml version="1.0" encoding="UTF-8" standalone="no"?>
<svg
   width="64"
   height="64"
   version="1.1"
   id="svg73"
   sodipodi:docname="abcd.svg"
   inkscape:version="1.4.2 (ebf0e940d0, 2025-05-08)"
   xmlns:inkscape="http://www.inkscape.org/namespaces/inkscape"
   xmlns:sodipodi="http://sodipodi.sourceforge.net/DTD/sodipodi-0.dtd"
   xmlns:xlink="http://www.w3.org/1999/xlink"
   xmlns="http://www.w3.org/2000/svg"
   xmlns:svg="http://www.w3.org/2000/svg"
   xmlns:rdf="http://www.w3.org/1999/02/22-rdf-syntax-ns#"
   xmlns:cc="http://creativecommons.org/ns#"
   xmlns:dc="http://purl.org/dc/elements/1.1/">
  <metadata
     id="metadata77">
    <rdf:RDF>
      <cc:Work
         rdf:about="">
        <dc:format>image/svg+xml</dc:format>
        <dc:type
           rdf:resource="http://purl.org/dc/dcmitype/StillImage" />
      </cc:Work>
    </rdf:RDF>
  </metadata>
  <sodipodi:namedview
     pagecolor="#f5f7fa"
     bordercolor="#666666"
     borderopacity="1"
     objecttolerance="10"
     gridtolerance="10"
     guidetolerance="10"
     inkscape:pageopacity="0"
     inkscape:pageshadow="2"
     inkscape:window-width="1263"
     inkscape:window-height="693"
     id="namedview75"
     showgrid="false"
     inkscape:zoom="4.4470387"
     inkscape:cx="36.091433"
     inkscape:cy="29.682674"
     inkscape:window-x="24"
     inkscape:window-y="21"
     inkscape:window-maximized="0"
     inkscape:current-layer="svg73"
     inkscape:document-rotation="0"
     inkscape:pagecheckerboard="0"
     inkscape:showpageshadow="2"
     inkscape:deskcolor="#d1d1d1" />
  <defs
     id="defs29">
    <linearGradient
       id="linearGradient4"
       inkscape:collect="always">
      <stop
         style="stop-color:#635eac;stop-opacity:1;"
         offset="0"
         id="stop4" />
      <stop
         style="stop-color:#8581c1;stop-opacity:1;"
         offset="0.5"
         id="stop1" />
    </linearGradient>
    <linearGradient
       id="linearGradient2"
       inkscape:collect="always">
      <stop
         style="stop-color:#edecf4;stop-opacity:1;"
         offset="0"
         id="stop2" />
      <stop
         style="stop-color:#d9d8e9;stop-opacity:1;"
         offset="1"
         id="stop3" />
    </linearGradient>
    <linearGradient
       inkscape:collect="always"
       xlink:href="#linearGradient2"
       id="linearGradient8"
       x1="31.721739"
       y1="5.2278585"
       x2="31.88887"
       y2="59.145416"
       gradientUnits="userSpaceOnUse"
       gradientTransform="matrix(0.8505,0,0,0.8505,4.7765033,4.7794869)" />
    <filter
       style="color-interpolation-filters:sRGB;"
       inkscape:label="Blur"
       id="filter9"
       x="-0.047762285"
       y="-0.047489063"
       width="1.0955246"
       height="1.0949781">
      <feGaussianBlur
         stdDeviation="1 1"
         result="blur"
         id="feGaussianBlur9" />
    </filter>
    <linearGradient
       inkscape:collect="always"
       xlink:href="#linearGradient4"
       id="linearGradient7"
       x1="26.723248"
       y1="58.711765"
       x2="25.756926"
       y2="5.950614"
       gradientUnits="userSpaceOnUse" />
    <filter
       style="color-interpolation-filters:sRGB;"
       inkscape:label="Out of Focus"
       id="filter40"
       x="-0.24226652"
       y="-0.2858297"
       width="1.484533"
       height="1.5716594">
      <feFlood
         flood-opacity="1"
         flood-color="rgb(255,255,255)"
         result="flood"
         id="feFlood38" />
      <feColorMatrix
         in="SourceGraphic"
         values="1 0 0 0 0 0 1 0 0 0 0 0 1 0 0 -0.2125 -0.7154 -0.0721 1 0 "
         result="colormatrix1"
         id="feColorMatrix38" />
      <feGaussianBlur
         in="colormatrix1"
         stdDeviation="3 3"
         result="blur"
         id="feGaussianBlur38" />
      <feColorMatrix
         in="blur"
         values="1 0 0 0 0 0 1 0 0 0 0 0 1 0 0 0 0 0 6 -2 "
         result="colormatrix2"
         id="feColorMatrix39" />
      <feBlend
         in="colormatrix2"
         in2="flood"
         mode="normal"
         result="blend"
         id="feBlend39" />
      <feComposite
         in="blend"
         in2="blend"
         operator="arithmetic"
         k2="0.2"
         result="composite1"
         id="feComposite39" />
      <feComposite
         in2="SourceGraphic"
         operator="in"
         id="feComposite40" />
    </filter>
  </defs>
  <g
     id="g877"
     transform="matrix(1.1,0,0,1.1,-3.1845928,-3.2065454)">
    <ellipse
       style="opacity:0.5;fill:#000000;stroke:none;stroke-width:3.89319;stroke-dasharray:none;stroke-opacity:1;filter:url(#filter9)"
       id="path2-5"
       cx="31.949858"
       cy="31.969812"
       rx="25.124426"
       ry="25.268976"
       transform="matrix(1.05,0,0,1.05,-1.5974929,-1.5984906)" />
    <path
       style="fill:#f5f7fa;stroke-width:0.204426;fill-opacity:1"
       d=""
       id="path3" />
    <circle
       style="opacity:1;fill:url(#linearGradient8);stroke:url(#linearGradient7);stroke-width:3.81818;stroke-dasharray:none;stroke-opacity:1"
       id="path2"
       cx="31.949856"
       cy="31.969812"
       r="24.711082" />
    <ellipse
       style="opacity:0.3;fill:none;stroke:#000000;stroke-width:0.974376;stroke-dasharray:none;stroke-opacity:1"
       id="path2-9"
       cx="31.949856"
       cy="31.969812"
       rx="23.129124"
       ry="23.129126" />
  </g>
  <g
     id="g7-8"
     transform="matrix(0.65610003,0,0,0.65610003,10.297148,17.284324)"
     style="fill:#000000;fill-opacity:1;stroke:none;stroke-width:0.685871;stroke-dasharray:none;stroke-opacity:0.6;opacity:0.2">
    <path
       style="fill:#000000;fill-opacity:1;stroke:none;stroke-width:0.685871;stroke-dasharray:none;stroke-opacity:0.6"
       d="m 46.850865,13.25458 c 1.561594,1.89222 2.50861,4.310714 2.50861,6.955706 0,6.045478 -4.900896,10.946626 -10.946628,10.946626 -2.644992,0 -5.063436,-0.94699 -6.955704,-2.508584 1.32363,5.64203 6.383412,9.80633 12.428892,9.80633 7.053228,0 12.771108,-5.717882 12.771108,-12.771108 0,-6.045734 -4.1643,-11.10539 -9.806328,-12.428892 z"
       id="path3-7-1" />
    <path
       style="fill:#000000;fill-opacity:1;stroke:none;stroke-width:0.685871;stroke-dasharray:none;stroke-opacity:0.6"
       d="M 16.5,26.5 14.761467,21.238532 9.5,19.5 14.761467,17.761467 16.5,12.499999 18.238533,17.761467 23.5,19.5 18.238533,21.238532 Z"
       id="path4-2" />
    <path
       style="fill:#000000;fill-opacity:1;stroke:none;stroke-width:0.685871;stroke-dasharray:none;stroke-opacity:0.6"
       d="M 29.5,22.5 28.506552,19.493446 25.5,18.5 28.506552,17.506553 29.5,14.499999 30.493446,17.506553 33.5,18.5 30.493446,19.493446 Z"
       id="path5-9" />
    <path
       style="fill:#000000;fill-opacity:1;stroke:none;stroke-width:0.685871;stroke-dasharray:none;stroke-opacity:0.6"
       d="M 39.5,22.5 39.003278,20.996722 37.5,20.5 39.003278,20.003278 39.5,18.499999 39.996722,20.003278 41.5,20.5 39.996722,20.996722 Z"
       id="path6-9-3" />
  </g>
  <g
     id="g7"
     transform="matrix(0.65610003,0,0,0.65610003,10.297148,15.284324)"
     style="fill:#4d4d4d;fill-opacity:1;stroke:none;stroke-width:0.685871;stroke-dasharray:none;stroke-opacity:0.6">
    <path
       style="fill:#4d4d4d;fill-opacity:1;stroke:none;stroke-width:0.685871;stroke-dasharray:none;stroke-opacity:0.6"
       d="m 46.850865,13.25458 c 1.561594,1.89222 2.50861,4.310714 2.50861,6.955706 0,6.045478 -4.900896,10.946626 -10.946628,10.946626 -2.644992,0 -5.063436,-0.94699 -6.955704,-2.508584 1.32363,5.64203 6.383412,9.80633 12.428892,9.80633 7.053228,0 12.771108,-5.717882 12.771108,-12.771108 0,-6.045734 -4.1643,-11.10539 -9.806328,-12.428892 z"
       id="path3-7" />
    <path
       style="fill:#4d4d4d;fill-opacity:1;stroke:none;stroke-width:0.685871;stroke-dasharray:none;stroke-opacity:0.6"
       d="M 16.5,26.5 14.761467,21.238532 9.5,19.5 14.761467,17.761467 16.5,12.499999 18.238533,17.761467 23.5,19.5 18.238533,21.238532 Z"
       id="path4" />
    <path
       style="fill:#4d4d4d;fill-opacity:1;stroke:none;stroke-width:0.685871;stroke-dasharray:none;stroke-opacity:0.6"
       d="M 29.5,22.5 28.506552,19.493446 25.5,18.5 28.506552,17.506553 29.5,14.499999 30.493446,17.506553 33.5,18.5 30.493446,19.493446 Z"
       id="path5" />
    <path
       style="fill:#4d4d4d;fill-opacity:1;stroke:none;stroke-width:0.685871;stroke-dasharray:none;stroke-opacity:0.6"
       d="M 39.5,22.5 39.003278,20.996722 37.5,20.5 39.003278,20.003278 39.5,18.499999 39.996722,20.003278 41.5,20.5 39.996722,20.996722 Z"
       id="path6-9" />
  </g>
</svg>
