<?xml version="1.0" encoding="UTF-8" standalone="no"?>
<svg
   width="64"
   height="64"
   version="1.1"
   id="svg73"
   sodipodi:docname="abcd.svg"
   inkscape:version="1.4.2 (ebf0e940d0, 2025-05-08)"
   xmlns:inkscape="http://www.inkscape.org/namespaces/inkscape"
   xmlns:sodipodi="http://sodipodi.sourceforge.net/DTD/sodipodi-0.dtd"
   xmlns:xlink="http://www.w3.org/1999/xlink"
   xmlns="http://www.w3.org/2000/svg"
   xmlns:svg="http://www.w3.org/2000/svg"
   xmlns:rdf="http://www.w3.org/1999/02/22-rdf-syntax-ns#"
   xmlns:cc="http://creativecommons.org/ns#"
   xmlns:dc="http://purl.org/dc/elements/1.1/">
  <metadata
     id="metadata77">
    <rdf:RDF>
      <cc:Work
         rdf:about="">
        <dc:format>image/svg+xml</dc:format>
        <dc:type
           rdf:resource="http://purl.org/dc/dcmitype/StillImage" />
      </cc:Work>
    </rdf:RDF>
  </metadata>
  <sodipodi:namedview
     pagecolor="#f5f7fa"
     bordercolor="#666666"
     borderopacity="1"
     objecttolerance="10"
     gridtolerance="10"
     guidetolerance="10"
     inkscape:pageopacity="0"
     inkscape:pageshadow="2"
     inkscape:window-width="1462"
     inkscape:window-height="840"
     id="namedview75"
     showgrid="false"
     inkscape:zoom="6.2890624"
     inkscape:cx="53.585094"
     inkscape:cy="29.654659"
     inkscape:window-x="24"
     inkscape:window-y="21"
     inkscape:window-maximized="0"
     inkscape:current-layer="svg73"
     inkscape:document-rotation="0"
     inkscape:pagecheckerboard="0"
     inkscape:showpageshadow="2"
     inkscape:deskcolor="#d1d1d1" />
  <defs
     id="defs29">
    <linearGradient
       id="linearGradient4"
       inkscape:collect="always">
      <stop
         style="stop-color:#635eac;stop-opacity:1;"
         offset="0"
         id="stop4" />
      <stop
         style="stop-color:#8581c1;stop-opacity:1;"
         offset="0.5"
         id="stop1" />
    </linearGradient>
    <linearGradient
       id="linearGradient2"
       inkscape:collect="always">
      <stop
         style="stop-color:#edecf4;stop-opacity:1;"
         offset="0"
         id="stop2" />
      <stop
         style="stop-color:#d9d8e9;stop-opacity:1;"
         offset="1"
         id="stop3" />
    </linearGradient>
    <linearGradient
       inkscape:collect="always"
       xlink:href="#linearGradient2"
       id="linearGradient8"
       x1="31.721739"
       y1="5.2278585"
       x2="31.88887"
       y2="59.145416"
       gradientUnits="userSpaceOnUse"
       gradientTransform="matrix(0.8505,0,0,0.8505,4.7765033,4.7794869)" />
    <filter
       style="color-interpolation-filters:sRGB;"
       inkscape:label="Blur"
       id="filter9"
       x="-0.047762285"
       y="-0.047489063"
       width="1.0955246"
       height="1.0949781">
      <feGaussianBlur
         stdDeviation="1 1"
         result="blur"
         id="feGaussianBlur9" />
    </filter>
    <linearGradient
       inkscape:collect="always"
       xlink:href="#linearGradient4"
       id="linearGradient7"
       x1="26.723248"
       y1="58.711765"
       x2="25.756926"
       y2="5.950614"
       gradientUnits="userSpaceOnUse" />
    <filter
       style="color-interpolation-filters:sRGB;"
       inkscape:label="Out of Focus"
       id="filter40"
       x="-0.24226652"
       y="-0.2858297"
       width="1.484533"
       height="1.5716594">
      <feFlood
         flood-opacity="1"
         flood-color="rgb(255,255,255)"
         result="flood"
         id="feFlood38" />
      <feColorMatrix
         in="SourceGraphic"
         values="1 0 0 0 0 0 1 0 0 0 0 0 1 0 0 -0.2125 -0.7154 -0.0721 1 0 "
         result="colormatrix1"
         id="feColorMatrix38" />
      <feGaussianBlur
         in="colormatrix1"
         stdDeviation="3 3"
         result="blur"
         id="feGaussianBlur38" />
      <feColorMatrix
         in="blur"
         values="1 0 0 0 0 0 1 0 0 0 0 0 1 0 0 0 0 0 6 -2 "
         result="colormatrix2"
         id="feColorMatrix39" />
      <feBlend
         in="colormatrix2"
         in2="flood"
         mode="normal"
         result="blend"
         id="feBlend39" />
      <feComposite
         in="blend"
         in2="blend"
         operator="arithmetic"
         k2="0.2"
         result="composite1"
         id="feComposite39" />
      <feComposite
         in2="SourceGraphic"
         operator="in"
         id="feComposite40" />
    </filter>
  </defs>
  <g
     id="g877"
     transform="matrix(1.1,0,0,1.1,-3.1845928,-3.2065454)">
    <ellipse
       style="opacity:0.5;fill:#000000;stroke:none;stroke-width:3.89319;stroke-dasharray:none;stroke-opacity:1;filter:url(#filter9)"
       id="path2-5"
       cx="31.949858"
       cy="31.969812"
       rx="25.124426"
       ry="25.268976"
       transform="matrix(1.05,0,0,1.05,-1.5974929,-1.5984906)" />
    <path
       style="fill:#f5f7fa;stroke-width:0.204426;fill-opacity:1"
       d=""
       id="path3" />
    <circle
       style="opacity:1;fill:url(#linearGradient8);stroke:url(#linearGradient7);stroke-width:3.81818;stroke-dasharray:none;stroke-opacity:1"
       id="path2"
       cx="31.949856"
       cy="31.969812"
       r="24.711082" />
    <ellipse
       style="opacity:0.3;fill:none;stroke:#000000;stroke-width:0.974376;stroke-dasharray:none;stroke-opacity:1"
       id="path2-9"
       cx="31.949856"
       cy="31.969812"
       rx="23.129124"
       ry="23.129126" />
  </g>
  <path
     id="path103-8"
     style="fill:#000000;fill-opacity:1;stroke:none;stroke-width:0.467775;stroke-dasharray:none;stroke-opacity:0.6;opacity:0.2"
     d="m 32,18.553347 c -2.813405,0 -5.170012,1.761019 -5.875335,4.388996 -0.153184,0.570792 -0.158903,0.818804 -0.158903,6.207806 0,5.389002 0.0056,5.638906 0.158903,6.209698 0.569311,2.121192 2.196281,3.679739 4.417425,4.233802 0.819434,0.204413 2.055192,0.206245 2.886028,0.0038 2.241311,-0.546141 3.874024,-2.101894 4.447219,-4.237554 0.153204,-0.570792 0.158895,-0.820693 0.158895,-6.209697 0,-5.389002 -0.0058,-5.637011 -0.158895,-6.207806 C 37.170013,20.314334 34.813406,18.553318 32,18.553318 Z M 19.810368,32.081822 v 1.08258 c 0,2.525883 0.357732,4.13102 1.34072,6.02233 1.133016,2.179973 3.260116,4.177097 5.56548,5.225537 0.778201,0.353912 2.074904,0.775683 2.778768,0.904677 l 0.49259,0.09088 v 2.019426 2.019432 H 32 34.012074 V 47.42725 45.407825 l 0.492592,-0.09088 c 0.703862,-0.129031 2.000567,-0.550761 2.778764,-0.904675 2.154779,-0.979955 4.226722,-2.85305 5.372816,-4.85647 1.077061,-1.882757 1.533386,-3.781944 1.533386,-6.391396 v -1.082585 h -2.004129 -2.002145 l -0.03775,1.597375 c -0.03252,1.397949 -0.0622,1.687067 -0.236334,2.312787 -0.772324,2.77526 -3.007598,4.871562 -5.946844,5.577561 -0.58976,0.141664 -0.905631,0.16825 -2.002143,0.164681 -1.137998,-0.0038 -1.395796,-0.02893 -2.0518,-0.19686 -2.88416,-0.737188 -5.0556,-2.804882 -5.815776,-5.537813 -0.176631,-0.635003 -0.205686,-0.917506 -0.23835,-2.320356 l -0.03775,-1.597376 h -2.002142 z" />
  <path
     id="path103"
     style="fill:#4d4d4d;fill-opacity:1;stroke:none;stroke-width:0.467775;stroke-dasharray:none;stroke-opacity:0.6"
     d="m 32,16.553347 c -2.813405,0 -5.170012,1.761019 -5.875335,4.388996 -0.153184,0.570792 -0.158903,0.818804 -0.158903,6.207806 0,5.389002 0.0056,5.638906 0.158903,6.209698 0.569311,2.121192 2.196281,3.679739 4.417425,4.233802 0.819434,0.204413 2.055192,0.206245 2.886028,0.0038 2.241311,-0.546141 3.874024,-2.101894 4.447219,-4.237554 0.153204,-0.570792 0.158895,-0.820693 0.158895,-6.209697 0,-5.389002 -0.0058,-5.637011 -0.158895,-6.207806 C 37.170013,18.314334 34.813406,16.553318 32,16.553318 Z M 19.810368,30.081822 v 1.08258 c 0,2.525883 0.357732,4.13102 1.34072,6.02233 1.133016,2.179973 3.260116,4.177097 5.56548,5.225537 0.778201,0.353912 2.074904,0.775683 2.778768,0.904677 l 0.49259,0.09088 v 2.019426 2.019432 H 32 34.012074 V 45.42725 43.407825 l 0.492592,-0.09088 c 0.703862,-0.129031 2.000567,-0.550761 2.778764,-0.904675 2.154779,-0.979955 4.226722,-2.85305 5.372816,-4.85647 1.077061,-1.882757 1.533386,-3.781944 1.533386,-6.391396 v -1.082585 h -2.004129 -2.002145 l -0.03775,1.597375 c -0.03252,1.397949 -0.0622,1.687067 -0.236334,2.312787 -0.772324,2.77526 -3.007598,4.871562 -5.946844,5.577561 -0.58976,0.141664 -0.905631,0.16825 -2.002143,0.164681 -1.137998,-0.0038 -1.395796,-0.02893 -2.0518,-0.19686 -2.88416,-0.737188 -5.0556,-2.804882 -5.815776,-5.537813 -0.176631,-0.635003 -0.205686,-0.917506 -0.23835,-2.320356 l -0.03775,-1.597376 h -2.002142 z" />
</svg>
