<?xml version="1.0" encoding="UTF-8" standalone="no"?>
<svg
   width="64"
   height="64"
   version="1.1"
   id="svg73"
   sodipodi:docname="abcd.svg"
   inkscape:version="1.4.2 (ebf0e940d0, 2025-05-08)"
   xmlns:inkscape="http://www.inkscape.org/namespaces/inkscape"
   xmlns:sodipodi="http://sodipodi.sourceforge.net/DTD/sodipodi-0.dtd"
   xmlns:xlink="http://www.w3.org/1999/xlink"
   xmlns="http://www.w3.org/2000/svg"
   xmlns:svg="http://www.w3.org/2000/svg"
   xmlns:rdf="http://www.w3.org/1999/02/22-rdf-syntax-ns#"
   xmlns:cc="http://creativecommons.org/ns#"
   xmlns:dc="http://purl.org/dc/elements/1.1/">
  <metadata
     id="metadata77">
    <rdf:RDF>
      <cc:Work
         rdf:about="">
        <dc:format>image/svg+xml</dc:format>
        <dc:type
           rdf:resource="http://purl.org/dc/dcmitype/StillImage" />
      </cc:Work>
    </rdf:RDF>
  </metadata>
  <sodipodi:namedview
     pagecolor="#f5f7fa"
     bordercolor="#666666"
     borderopacity="1"
     objecttolerance="10"
     gridtolerance="10"
     guidetolerance="10"
     inkscape:pageopacity="0"
     inkscape:pageshadow="2"
     inkscape:window-width="1263"
     inkscape:window-height="693"
     id="namedview75"
     showgrid="false"
     inkscape:zoom="4.4470387"
     inkscape:cx="36.091433"
     inkscape:cy="29.682674"
     inkscape:window-x="24"
     inkscape:window-y="21"
     inkscape:window-maximized="0"
     inkscape:current-layer="svg73"
     inkscape:document-rotation="0"
     inkscape:pagecheckerboard="0"
     inkscape:showpageshadow="2"
     inkscape:deskcolor="#d1d1d1" />
  <defs
     id="defs29">
    <linearGradient
       id="linearGradient4"
       inkscape:collect="always">
      <stop
         style="stop-color:#635eac;stop-opacity:1;"
         offset="0"
         id="stop4" />
      <stop
         style="stop-color:#8581c1;stop-opacity:1;"
         offset="0.5"
         id="stop1" />
    </linearGradient>
    <linearGradient
       id="linearGradient2"
       inkscape:collect="always">
      <stop
         style="stop-color:#edecf4;stop-opacity:1;"
         offset="0"
         id="stop2" />
      <stop
         style="stop-color:#d9d8e9;stop-opacity:1;"
         offset="1"
         id="stop3" />
    </linearGradient>
    <linearGradient
       inkscape:collect="always"
       xlink:href="#linearGradient2"
       id="linearGradient8"
       x1="31.721739"
       y1="5.2278585"
       x2="31.88887"
       y2="59.145416"
       gradientUnits="userSpaceOnUse"
       gradientTransform="matrix(0.8505,0,0,0.8505,4.7765033,4.7794869)" />
    <filter
       style="color-interpolation-filters:sRGB;"
       inkscape:label="Blur"
       id="filter9"
       x="-0.047762285"
       y="-0.047489063"
       width="1.0955246"
       height="1.0949781">
      <feGaussianBlur
         stdDeviation="1 1"
         result="blur"
         id="feGaussianBlur9" />
    </filter>
    <linearGradient
       inkscape:collect="always"
       xlink:href="#linearGradient4"
       id="linearGradient7"
       x1="26.723248"
       y1="58.711765"
       x2="25.756926"
       y2="5.950614"
       gradientUnits="userSpaceOnUse" />
    <filter
       style="color-interpolation-filters:sRGB;"
       inkscape:label="Out of Focus"
       id="filter40"
       x="-0.24226652"
       y="-0.2858297"
       width="1.484533"
       height="1.5716594">
      <feFlood
         flood-opacity="1"
         flood-color="rgb(255,255,255)"
         result="flood"
         id="feFlood38" />
      <feColorMatrix
         in="SourceGraphic"
         values="1 0 0 0 0 0 1 0 0 0 0 0 1 0 0 -0.2125 -0.7154 -0.0721 1 0 "
         result="colormatrix1"
         id="feColorMatrix38" />
      <feGaussianBlur
         in="colormatrix1"
         stdDeviation="3 3"
         result="blur"
         id="feGaussianBlur38" />
      <feColorMatrix
         in="blur"
         values="1 0 0 0 0 0 1 0 0 0 0 0 1 0 0 0 0 0 6 -2 "
         result="colormatrix2"
         id="feColorMatrix39" />
      <feBlend
         in="colormatrix2"
         in2="flood"
         mode="normal"
         result="blend"
         id="feBlend39" />
      <feComposite
         in="blend"
         in2="blend"
         operator="arithmetic"
         k2="0.2"
         result="composite1"
         id="feComposite39" />
      <feComposite
         in2="SourceGraphic"
         operator="in"
         id="feComposite40" />
    </filter>
  </defs>
  <g
     id="g877"
     transform="matrix(1.1,0,0,1.1,-3.1845928,-3.2065454)">
    <ellipse
       style="opacity:0.5;fill:#000000;stroke:none;stroke-width:3.89319;stroke-dasharray:none;stroke-opacity:1;filter:url(#filter9)"
       id="path2-5"
       cx="31.949858"
       cy="31.969812"
       rx="25.124426"
       ry="25.268976"
       transform="matrix(1.05,0,0,1.05,-1.5974929,-1.5984906)" />
    <path
       style="fill:#f5f7fa;stroke-width:0.204426;fill-opacity:1"
       d=""
       id="path3" />
    <circle
       style="opacity:1;fill:url(#linearGradient8);stroke:url(#linearGradient7);stroke-width:3.81818;stroke-dasharray:none;stroke-opacity:1"
       id="path2"
       cx="31.949856"
       cy="31.969812"
       r="24.711082" />
    <ellipse
       style="opacity:0.3;fill:none;stroke:#000000;stroke-width:0.974376;stroke-dasharray:none;stroke-opacity:1"
       id="path2-9"
       cx="31.949856"
       cy="31.969812"
       rx="23.129124"
       ry="23.129126" />
  </g>
  <path
     style="color:#6e6e6e;fill:#000000;fill-opacity:1;stroke:none;stroke-width:0.47025;stroke-dasharray:none;stroke-opacity:0.6;opacity:0.2"
     class="ColorScheme-Text"
     d="m 24.317126,18.74 c -3.841439,0 -3.841439,4.069332 -3.841439,4.069332 v 22.381332 c 0,4.069336 3.6365,4.062007 3.841439,4.069336 h 15.365752 c 0,0 3.841436,-0.0077 3.841436,-4.069336 V 22.809332 C 43.524314,18.74 39.682878,18.74 39.682878,18.74 Z m 7.682877,4.069332 c 1.064213,0 1.920716,0.914483 1.920716,2.034668 0,1.120368 -0.856503,2.034667 -1.920716,2.034667 -1.064539,0 -1.92072,-0.914299 -1.92072,-2.034667 0,-1.120185 0.856181,-2.034668 1.92072,-2.034668 z m 0,6.104001 c 4.243059,0 7.682875,3.643885 7.682875,8.13867 0,4.494778 -3.439816,8.138661 -7.682875,8.138661 -4.243061,0 -7.682877,-3.643883 -7.682877,-8.138661 0,-4.494785 3.439816,-8.13867 7.682877,-8.13867 z m 0,4.069333 c -2.121628,0 -3.841439,1.821902 -3.841439,4.069337 0,2.247432 1.719871,4.069329 3.841439,4.069329 2.121567,0 3.841437,-1.821897 3.841437,-4.069329 0,-2.247435 -1.71987,-4.069337 -3.841437,-4.069337 z"
     id="path5-2" />
  <path
     style="color:#6e6e6e;fill:#4d4d4d;fill-opacity:1;stroke:none;stroke-width:0.47025;stroke-dasharray:none;stroke-opacity:0.6"
     class="ColorScheme-Text"
     d="m 24.317126,16.74 c -3.841439,0 -3.841439,4.069332 -3.841439,4.069332 v 22.381332 c 0,4.069336 3.6365,4.062007 3.841439,4.069336 h 15.365752 c 0,0 3.841436,-0.0077 3.841436,-4.069336 V 20.809332 C 43.524314,16.74 39.682878,16.74 39.682878,16.74 Z m 7.682877,4.069332 c 1.064213,0 1.920716,0.914483 1.920716,2.034668 0,1.120368 -0.856503,2.034667 -1.920716,2.034667 -1.064539,0 -1.92072,-0.914299 -1.92072,-2.034667 0,-1.120185 0.856181,-2.034668 1.92072,-2.034668 z m 0,6.104001 c 4.243059,0 7.682875,3.643885 7.682875,8.13867 0,4.494778 -3.439816,8.138661 -7.682875,8.138661 -4.243061,0 -7.682877,-3.643883 -7.682877,-8.138661 0,-4.494785 3.439816,-8.13867 7.682877,-8.13867 z m 0,4.069333 c -2.121628,0 -3.841439,1.821902 -3.841439,4.069337 0,2.247432 1.719871,4.069329 3.841439,4.069329 2.121567,0 3.841437,-1.821897 3.841437,-4.069329 0,-2.247435 -1.71987,-4.069337 -3.841437,-4.069337 z"
     id="path5" />
</svg>
