<?xml version="1.0" encoding="UTF-8" standalone="no"?>
<svg
   width="64"
   height="64"
   version="1.1"
   id="svg73"
   sodipodi:docname="abcd.svg"
   inkscape:version="1.4.2 (ebf0e940d0, 2025-05-08)"
   xmlns:inkscape="http://www.inkscape.org/namespaces/inkscape"
   xmlns:sodipodi="http://sodipodi.sourceforge.net/DTD/sodipodi-0.dtd"
   xmlns:xlink="http://www.w3.org/1999/xlink"
   xmlns="http://www.w3.org/2000/svg"
   xmlns:svg="http://www.w3.org/2000/svg"
   xmlns:rdf="http://www.w3.org/1999/02/22-rdf-syntax-ns#"
   xmlns:cc="http://creativecommons.org/ns#"
   xmlns:dc="http://purl.org/dc/elements/1.1/">
  <metadata
     id="metadata77">
    <rdf:RDF>
      <cc:Work
         rdf:about="">
        <dc:format>image/svg+xml</dc:format>
        <dc:type
           rdf:resource="http://purl.org/dc/dcmitype/StillImage" />
      </cc:Work>
    </rdf:RDF>
  </metadata>
  <sodipodi:namedview
     pagecolor="#f5f7fa"
     bordercolor="#666666"
     borderopacity="1"
     objecttolerance="10"
     gridtolerance="10"
     guidetolerance="10"
     inkscape:pageopacity="0"
     inkscape:pageshadow="2"
     inkscape:window-width="1263"
     inkscape:window-height="693"
     id="namedview75"
     showgrid="false"
     inkscape:zoom="4.4470387"
     inkscape:cx="36.091433"
     inkscape:cy="29.682674"
     inkscape:window-x="24"
     inkscape:window-y="21"
     inkscape:window-maximized="0"
     inkscape:current-layer="svg73"
     inkscape:document-rotation="0"
     inkscape:pagecheckerboard="0"
     inkscape:showpageshadow="2"
     inkscape:deskcolor="#d1d1d1" />
  <defs
     id="defs29">
    <linearGradient
       id="linearGradient4"
       inkscape:collect="always">
      <stop
         style="stop-color:#635eac;stop-opacity:1;"
         offset="0"
         id="stop4" />
      <stop
         style="stop-color:#8581c1;stop-opacity:1;"
         offset="0.5"
         id="stop1" />
    </linearGradient>
    <linearGradient
       id="linearGradient2"
       inkscape:collect="always">
      <stop
         style="stop-color:#edecf4;stop-opacity:1;"
         offset="0"
         id="stop2" />
      <stop
         style="stop-color:#d9d8e9;stop-opacity:1;"
         offset="1"
         id="stop3" />
    </linearGradient>
    <linearGradient
       inkscape:collect="always"
       xlink:href="#linearGradient2"
       id="linearGradient8"
       x1="31.721739"
       y1="5.2278585"
       x2="31.88887"
       y2="59.145416"
       gradientUnits="userSpaceOnUse"
       gradientTransform="matrix(0.8505,0,0,0.8505,4.7765033,4.7794869)" />
    <filter
       style="color-interpolation-filters:sRGB;"
       inkscape:label="Blur"
       id="filter9"
       x="-0.047762285"
       y="-0.047489063"
       width="1.0955246"
       height="1.0949781">
      <feGaussianBlur
         stdDeviation="1 1"
         result="blur"
         id="feGaussianBlur9" />
    </filter>
    <linearGradient
       inkscape:collect="always"
       xlink:href="#linearGradient4"
       id="linearGradient7"
       x1="26.723248"
       y1="58.711765"
       x2="25.756926"
       y2="5.950614"
       gradientUnits="userSpaceOnUse" />
    <filter
       style="color-interpolation-filters:sRGB;"
       inkscape:label="Out of Focus"
       id="filter40"
       x="-0.24226652"
       y="-0.2858297"
       width="1.484533"
       height="1.5716594">
      <feFlood
         flood-opacity="1"
         flood-color="rgb(255,255,255)"
         result="flood"
         id="feFlood38" />
      <feColorMatrix
         in="SourceGraphic"
         values="1 0 0 0 0 0 1 0 0 0 0 0 1 0 0 -0.2125 -0.7154 -0.0721 1 0 "
         result="colormatrix1"
         id="feColorMatrix38" />
      <feGaussianBlur
         in="colormatrix1"
         stdDeviation="3 3"
         result="blur"
         id="feGaussianBlur38" />
      <feColorMatrix
         in="blur"
         values="1 0 0 0 0 0 1 0 0 0 0 0 1 0 0 0 0 0 6 -2 "
         result="colormatrix2"
         id="feColorMatrix39" />
      <feBlend
         in="colormatrix2"
         in2="flood"
         mode="normal"
         result="blend"
         id="feBlend39" />
      <feComposite
         in="blend"
         in2="blend"
         operator="arithmetic"
         k2="0.2"
         result="composite1"
         id="feComposite39" />
      <feComposite
         in2="SourceGraphic"
         operator="in"
         id="feComposite40" />
    </filter>
  </defs>
  <g
     id="g877"
     transform="matrix(1.1,0,0,1.1,-3.1845928,-3.2065454)">
    <ellipse
       style="opacity:0.5;fill:#000000;stroke:none;stroke-width:3.89319;stroke-dasharray:none;stroke-opacity:1;filter:url(#filter9)"
       id="path2-5"
       cx="31.949858"
       cy="31.969812"
       rx="25.124426"
       ry="25.268976"
       transform="matrix(1.05,0,0,1.05,-1.5974929,-1.5984906)" />
    <path
       style="fill:#f5f7fa;stroke-width:0.204426;fill-opacity:1"
       d=""
       id="path3" />
    <circle
       style="opacity:1;fill:url(#linearGradient8);stroke:url(#linearGradient7);stroke-width:3.81818;stroke-dasharray:none;stroke-opacity:1"
       id="path2"
       cx="31.949856"
       cy="31.969812"
       r="24.711082" />
    <ellipse
       style="opacity:0.3;fill:none;stroke:#000000;stroke-width:0.974376;stroke-dasharray:none;stroke-opacity:1"
       id="path2-9"
       cx="31.949856"
       cy="31.969812"
       rx="23.129124"
       ry="23.129126" />
  </g>
  <path
     style="fill:#000000;fill-opacity:1;stroke-width:0.152041;opacity:0.2"
     d="m 21.945594,49.743405 c -1.102872,-0.106656 -2.113102,-0.624762 -2.951857,-1.513886 -0.552522,-0.585702 -0.934685,-1.26503 -1.164079,-2.06924 l -0.111289,-0.390162 -0.01516,-11.45377 c -0.01056,-7.982627 0.0014,-11.59968 0.03973,-11.935233 0.225324,-1.977131 1.677071,-3.587333 3.688425,-4.091013 0.242919,-0.06084 0.546197,-0.08472 1.050977,-0.0828 0.753186,0.0027 1.150679,0.07759 1.792852,0.336982 0.164219,0.06633 4.526079,2.562025 9.693023,5.545988 5.166945,2.983965 9.474267,5.465516 9.571827,5.514559 0.642147,0.322798 1.558364,1.108984 1.934851,1.660254 0.283259,0.414761 0.579531,1.056164 0.707115,1.53084 0.166556,0.619672 0.156264,1.647563 -0.0233,2.324801 -0.295583,1.114928 -0.979718,2.128851 -1.833139,2.716804 -0.364366,0.251024 -19.564915,11.344583 -19.863785,11.476757 -0.499347,0.220834 -1.054415,0.373729 -1.56245,0.430378 -0.268973,0.02999 -0.495642,0.05145 -0.503707,0.04767 -0.008,-0.0037 -0.210584,-0.0258 -0.450038,-0.04896 z m 7.043854,-7.831846 c 0.325156,-0.16203 0.536315,-0.435654 0.613603,-0.795111 0.04027,-0.187311 0.05193,-2.189904 0.04082,-7.002822 l -0.01559,-6.740492 -0.109384,-0.202724 c -0.481184,-0.891717 -1.726789,-0.898185 -2.168761,-0.01126 l -0.129179,0.259229 4.96e-4,6.844571 4.95e-4,6.844574 0.118964,0.255472 c 0.124528,0.267423 0.357655,0.499345 0.614911,0.611727 0.266076,0.116237 0.730596,0.08786 1.033639,-0.06315 z m 3.644777,-4.209116 c 0.308559,-0.190769 0.503351,-0.478011 0.569584,-0.839907 0.0342,-0.186806 0.04791,-1.181353 0.03809,-2.762083 -0.017,-2.738334 -0.0098,-2.677399 -0.359992,-3.04651 -0.231494,-0.243992 -0.510765,-0.359018 -0.871672,-0.359018 -0.378708,0 -0.649092,0.117623 -0.893458,0.388673 -0.327167,0.362886 -0.32287,0.319856 -0.32287,3.234123 v 2.636754 L 30.92084,37.2011 c 0.330057,0.641311 1.115336,0.871088 1.713385,0.501343 z m -7.382643,-1.088275 c 0.28264,-0.08469 0.569068,-0.352113 0.69792,-0.651642 0.107635,-0.250202 0.110801,-0.308423 0.09588,-1.763349 -0.0169,-1.647975 -0.01738,-1.650803 -0.339802,-1.973218 -0.239085,-0.239085 -0.495155,-0.33927 -0.866616,-0.339051 -0.483742,2.87e-4 -0.846693,0.220295 -1.081598,0.655625 -0.103389,0.191605 -0.110253,0.280549 -0.125092,1.621772 -0.011,0.995404 0.0025,1.48408 0.04529,1.636869 0.185324,0.662031 0.880117,1.020895 1.574027,0.812994 z M 21.609034,35.43738 c 0.329488,-0.09916 0.524415,-0.254497 0.697029,-0.555465 0.124294,-0.216717 0.149863,-0.317885 0.149334,-0.590909 -0.0013,-0.72054 -0.486203,-1.216328 -1.1894,-1.216328 -0.685729,0 -1.207139,0.514621 -1.209106,1.193368 -0.0017,0.549955 0.322627,1.004185 0.829003,1.161416 0.295611,0.09179 0.439233,0.09337 0.72314,0.0079 z m 14.526339,-0.08035 c 0.594292,-0.306415 0.827138,-0.992631 0.543507,-1.601745 -0.475386,-1.020912 -1.999579,-0.859403 -2.263282,0.239829 -0.157362,0.655954 0.230757,1.29662 0.888867,1.467254 0.21583,0.05597 0.616621,0.0052 0.830908,-0.105336 z m 3.59831,1.99e-4 c 0.673381,-0.346452 0.859188,-1.235115 0.38754,-1.853479 -0.270465,-0.354599 -0.86162,-0.517259 -1.349087,-0.371211 -0.77883,0.233343 -1.068418,1.314065 -0.515974,1.925555 0.393167,0.435187 0.981552,0.55431 1.477521,0.299135 z"
     id="path20-6" />
  <path
     style="fill:#4d4d4d;fill-opacity:1;stroke-width:0.152041"
     d="m 21.945594,47.743405 c -1.102872,-0.106656 -2.113102,-0.624762 -2.951857,-1.513886 -0.552522,-0.585702 -0.934685,-1.26503 -1.164079,-2.06924 l -0.111289,-0.390162 -0.01516,-11.45377 c -0.01056,-7.982627 0.0014,-11.59968 0.03973,-11.935233 0.225324,-1.977131 1.677071,-3.587333 3.688425,-4.091013 0.242919,-0.06084 0.546197,-0.08472 1.050977,-0.0828 0.753186,0.0027 1.150679,0.07759 1.792852,0.336982 0.164219,0.06633 4.526079,2.562025 9.693023,5.545988 5.166945,2.983965 9.474267,5.465516 9.571827,5.514559 0.642147,0.322798 1.558364,1.108984 1.934851,1.660254 0.283259,0.414761 0.579531,1.056164 0.707115,1.53084 0.166556,0.619672 0.156264,1.647563 -0.0233,2.324801 -0.295583,1.114928 -0.979718,2.128851 -1.833139,2.716804 -0.364366,0.251024 -19.564915,11.344583 -19.863785,11.476757 -0.499347,0.220834 -1.054415,0.373729 -1.56245,0.430378 -0.268973,0.02999 -0.495642,0.05145 -0.503707,0.04767 -0.008,-0.0037 -0.210584,-0.0258 -0.450038,-0.04896 z m 7.043854,-7.831846 c 0.325156,-0.16203 0.536315,-0.435654 0.613603,-0.795111 0.04027,-0.187311 0.05193,-2.189904 0.04082,-7.002822 l -0.01559,-6.740492 -0.109384,-0.202724 c -0.481184,-0.891717 -1.726789,-0.898185 -2.168761,-0.01126 l -0.129179,0.259229 4.96e-4,6.844571 4.95e-4,6.844574 0.118964,0.255472 c 0.124528,0.267423 0.357655,0.499345 0.614911,0.611727 0.266076,0.116237 0.730596,0.08786 1.033639,-0.06315 z m 3.644777,-4.209116 c 0.308559,-0.190769 0.503351,-0.478011 0.569584,-0.839907 0.0342,-0.186806 0.04791,-1.181353 0.03809,-2.762083 -0.017,-2.738334 -0.0098,-2.677399 -0.359992,-3.04651 -0.231494,-0.243992 -0.510765,-0.359018 -0.871672,-0.359018 -0.378708,0 -0.649092,0.117623 -0.893458,0.388673 -0.327167,0.362886 -0.32287,0.319856 -0.32287,3.234123 v 2.636754 L 30.92084,35.2011 c 0.330057,0.641311 1.115336,0.871088 1.713385,0.501343 z m -7.382643,-1.088275 c 0.28264,-0.08469 0.569068,-0.352113 0.69792,-0.651642 0.107635,-0.250202 0.110801,-0.308423 0.09588,-1.763349 -0.0169,-1.647975 -0.01738,-1.650803 -0.339802,-1.973218 -0.239085,-0.239085 -0.495155,-0.33927 -0.866616,-0.339051 -0.483742,2.87e-4 -0.846693,0.220295 -1.081598,0.655625 -0.103389,0.191605 -0.110253,0.280549 -0.125092,1.621772 -0.011,0.995404 0.0025,1.48408 0.04529,1.636869 0.185324,0.662031 0.880117,1.020895 1.574027,0.812994 z M 21.609034,33.43738 c 0.329488,-0.09916 0.524415,-0.254497 0.697029,-0.555465 0.124294,-0.216717 0.149863,-0.317885 0.149334,-0.590909 -0.0013,-0.72054 -0.486203,-1.216328 -1.1894,-1.216328 -0.685729,0 -1.207139,0.514621 -1.209106,1.193368 -0.0017,0.549955 0.322627,1.004185 0.829003,1.161416 0.295611,0.09179 0.439233,0.09337 0.72314,0.0079 z m 14.526339,-0.08035 c 0.594292,-0.306415 0.827138,-0.992631 0.543507,-1.601745 -0.475386,-1.020912 -1.999579,-0.859403 -2.263282,0.239829 -0.157362,0.655954 0.230757,1.29662 0.888867,1.467254 0.21583,0.05597 0.616621,0.0052 0.830908,-0.105336 z m 3.59831,1.99e-4 c 0.673381,-0.346452 0.859188,-1.235115 0.38754,-1.853479 -0.270465,-0.354599 -0.86162,-0.517259 -1.349087,-0.371211 -0.77883,0.233343 -1.068418,1.314065 -0.515974,1.925555 0.393167,0.435187 0.981552,0.55431 1.477521,0.299135 z"
     id="path20" />
</svg>
