<?xml version="1.0" encoding="UTF-8" standalone="no"?>
<svg
   width="64"
   height="64"
   version="1.1"
   id="svg73"
   sodipodi:docname="abcd.svg"
   inkscape:version="1.4.2 (ebf0e940d0, 2025-05-08)"
   xmlns:inkscape="http://www.inkscape.org/namespaces/inkscape"
   xmlns:sodipodi="http://sodipodi.sourceforge.net/DTD/sodipodi-0.dtd"
   xmlns:xlink="http://www.w3.org/1999/xlink"
   xmlns="http://www.w3.org/2000/svg"
   xmlns:svg="http://www.w3.org/2000/svg"
   xmlns:rdf="http://www.w3.org/1999/02/22-rdf-syntax-ns#"
   xmlns:cc="http://creativecommons.org/ns#"
   xmlns:dc="http://purl.org/dc/elements/1.1/">
  <metadata
     id="metadata77">
    <rdf:RDF>
      <cc:Work
         rdf:about="">
        <dc:format>image/svg+xml</dc:format>
        <dc:type
           rdf:resource="http://purl.org/dc/dcmitype/StillImage" />
      </cc:Work>
    </rdf:RDF>
  </metadata>
  <sodipodi:namedview
     pagecolor="#f5f7fa"
     bordercolor="#666666"
     borderopacity="1"
     objecttolerance="10"
     gridtolerance="10"
     guidetolerance="10"
     inkscape:pageopacity="0"
     inkscape:pageshadow="2"
     inkscape:window-width="1024"
     inkscape:window-height="621"
     id="namedview75"
     showgrid="false"
     inkscape:zoom="6.2890624"
     inkscape:cx="34.822361"
     inkscape:cy="29.734162"
     inkscape:window-x="24"
     inkscape:window-y="21"
     inkscape:window-maximized="0"
     inkscape:current-layer="svg73"
     inkscape:document-rotation="0"
     inkscape:pagecheckerboard="0"
     inkscape:showpageshadow="2"
     inkscape:deskcolor="#d1d1d1" />
  <defs
     id="defs29">
    <linearGradient
       id="linearGradient4"
       inkscape:collect="always">
      <stop
         style="stop-color:#635eac;stop-opacity:1;"
         offset="0"
         id="stop4" />
      <stop
         style="stop-color:#8581c1;stop-opacity:1;"
         offset="0.5"
         id="stop1" />
    </linearGradient>
    <linearGradient
       id="linearGradient2"
       inkscape:collect="always">
      <stop
         style="stop-color:#edecf4;stop-opacity:1;"
         offset="0"
         id="stop2" />
      <stop
         style="stop-color:#d9d8e9;stop-opacity:1;"
         offset="1"
         id="stop3" />
    </linearGradient>
    <linearGradient
       inkscape:collect="always"
       xlink:href="#linearGradient2"
       id="linearGradient8"
       x1="31.721739"
       y1="5.2278585"
       x2="31.88887"
       y2="59.145416"
       gradientUnits="userSpaceOnUse"
       gradientTransform="matrix(0.8505,0,0,0.8505,4.7765033,4.7794869)" />
    <filter
       style="color-interpolation-filters:sRGB;"
       inkscape:label="Blur"
       id="filter9"
       x="-0.047762285"
       y="-0.047489063"
       width="1.0955246"
       height="1.0949781">
      <feGaussianBlur
         stdDeviation="1 1"
         result="blur"
         id="feGaussianBlur9" />
    </filter>
    <linearGradient
       inkscape:collect="always"
       xlink:href="#linearGradient4"
       id="linearGradient7"
       x1="26.723248"
       y1="58.711765"
       x2="25.756926"
       y2="5.950614"
       gradientUnits="userSpaceOnUse" />
    <filter
       style="color-interpolation-filters:sRGB;"
       inkscape:label="Out of Focus"
       id="filter40"
       x="-0.24226652"
       y="-0.2858297"
       width="1.484533"
       height="1.5716594">
      <feFlood
         flood-opacity="1"
         flood-color="rgb(255,255,255)"
         result="flood"
         id="feFlood38" />
      <feColorMatrix
         in="SourceGraphic"
         values="1 0 0 0 0 0 1 0 0 0 0 0 1 0 0 -0.2125 -0.7154 -0.0721 1 0 "
         result="colormatrix1"
         id="feColorMatrix38" />
      <feGaussianBlur
         in="colormatrix1"
         stdDeviation="3 3"
         result="blur"
         id="feGaussianBlur38" />
      <feColorMatrix
         in="blur"
         values="1 0 0 0 0 0 1 0 0 0 0 0 1 0 0 0 0 0 6 -2 "
         result="colormatrix2"
         id="feColorMatrix39" />
      <feBlend
         in="colormatrix2"
         in2="flood"
         mode="normal"
         result="blend"
         id="feBlend39" />
      <feComposite
         in="blend"
         in2="blend"
         operator="arithmetic"
         k2="0.2"
         result="composite1"
         id="feComposite39" />
      <feComposite
         in2="SourceGraphic"
         operator="in"
         id="feComposite40" />
    </filter>
  </defs>
  <g
     id="g877"
     transform="matrix(1.1,0,0,1.1,-3.1845928,-3.2065454)">
    <ellipse
       style="opacity:0.5;fill:#000000;stroke:none;stroke-width:3.89319;stroke-dasharray:none;stroke-opacity:1;filter:url(#filter9)"
       id="path2-5"
       cx="31.949858"
       cy="31.969812"
       rx="25.124426"
       ry="25.268976"
       transform="matrix(1.05,0,0,1.05,-1.5974929,-1.5984906)" />
    <path
       style="fill:#f5f7fa;stroke-width:0.204426;fill-opacity:1"
       d=""
       id="path3" />
    <circle
       style="opacity:1;fill:url(#linearGradient8);stroke:url(#linearGradient7);stroke-width:3.81818;stroke-dasharray:none;stroke-opacity:1"
       id="path2"
       cx="31.949856"
       cy="31.969812"
       r="24.711082" />
    <ellipse
       style="opacity:0.3;fill:none;stroke:#000000;stroke-width:0.974376;stroke-dasharray:none;stroke-opacity:1"
       id="path2-9"
       cx="31.949856"
       cy="31.969812"
       rx="23.129124"
       ry="23.129126" />
  </g>
  <path
     style="fill:#000000;fill-opacity:1;stroke:none;stroke-width:0.495;stroke-dasharray:none;stroke-opacity:0.6;opacity:0.2"
     d="m 31.160651,49.500849 c -1.457694,-0.111531 -2.68482,-0.339162 -3.868733,-0.717655 -0.759563,-0.242823 -1.961018,-0.734592 -2.43005,-0.99463 -0.741905,-0.41133 -0.973735,-0.551222 -1.542612,-0.930808 -2.412876,-1.610017 -4.379157,-3.974217 -5.552629,-6.676325 -0.875417,-2.015792 -1.266866,-3.927294 -1.266866,-6.186284 0,-1.776196 0.228988,-3.259282 0.743966,-4.818462 1.720809,-5.209988 6.017699,-9.122859 11.336747,-10.323564 2.163454,-0.488372 4.675589,-0.488372 6.839047,0 4.813093,1.086492 8.847349,4.427552 10.813852,8.955742 0.875411,2.015789 1.266865,3.927292 1.266865,6.186284 0,1.776194 -0.228964,3.259281 -0.743968,4.818461 -1.878425,5.687198 -6.824167,9.799494 -12.704542,10.563577 -0.74159,0.0964 -2.349163,0.165116 -2.891077,0.12365 z m 2.611296,-1.08754 c 2.885719,-0.340654 5.512531,-1.527663 7.867495,-3.555212 l 0.273015,-0.235054 -3.29286,-3.293299 c -1.811081,-1.811312 -3.313079,-3.293297 -3.33778,-3.293297 -0.02471,0 -0.234639,0.122666 -0.46652,0.272586 -0.922755,0.59658 -1.663474,0.809589 -2.815302,0.809589 -1.151826,0 -1.892545,-0.212999 -2.815298,-0.809589 -0.231886,-0.14992 -0.441821,-0.272587 -0.466521,-0.272587 -0.02471,0 -1.5267,1.481986 -3.337773,3.293298 l -3.292861,3.293299 0.273012,0.235021 c 1.633129,1.40607 3.201203,2.308852 5.102597,2.937711 1.12928,0.373508 2.195349,0.576671 3.728585,0.710623 0.420949,0.03667 1.946064,-0.01836 2.58021,-0.09314 z m -3.062411,-4.066441 c -0.692263,-1.385029 -1.258662,-2.532135 -1.258662,-2.549127 0,-0.01668 1.147105,-0.03095 2.549121,-0.03095 1.402017,0 2.549124,0.01395 2.549124,0.03095 0,0.0615 -2.518168,5.067358 -2.549124,5.067358 -0.01748,0 -0.598197,-1.133202 -1.290459,-2.518231 z m -6.007152,-3.769105 3.303433,-3.303 -0.273286,-0.390939 c -0.325053,-0.464994 -0.536634,-0.926066 -0.721958,-1.57329 -0.194839,-0.680454 -0.194839,-1.950319 0,-2.630775 0.185324,-0.647225 0.396905,-1.108295 0.721958,-1.57329 l 0.273286,-0.390938 -3.317315,-3.316882 c -2.012842,-2.012578 -3.33834,-3.293089 -3.370782,-3.256372 -2.150934,2.43443 -3.364619,5.071439 -3.747862,8.143092 -0.0997,0.799192 -0.0997,2.620362 0,3.419554 0.306971,2.460338 1.19937,4.76031 2.604872,6.713513 0.404548,0.562189 1.136017,1.457495 1.193347,1.460634 0.01698,9.53e-4 1.517416,-1.484653 3.334307,-3.301307 z m -3.06985,-5.295653 c -1.376372,-0.690338 -2.502494,-1.26947 -2.502494,-1.286962 0,-0.03095 5.005822,-2.549125 5.067358,-2.549125 0.01701,0 0.03084,1.147105 0.03084,2.549124 0,1.402016 -0.02099,2.547545 -0.04662,2.545622 -0.02561,-0.0019 -1.172734,-0.568321 -2.549105,-1.258659 z m 21.454771,8.086537 c 1.842268,-2.174264 2.984714,-4.793407 3.342831,-7.663724 0.04266,-0.341956 0.07759,-1.111356 0.07759,-1.709776 0,-1.661011 -0.21818,-3.058725 -0.709248,-4.543506 -0.64472,-1.949347 -1.628638,-3.625757 -3.116187,-5.309364 -0.03232,-0.03671 -1.357941,1.243794 -3.370778,3.256372 l -3.317331,3.316882 0.27328,0.390938 c 0.325056,0.464995 0.536635,0.926065 0.72196,1.57329 0.195961,0.684444 0.194918,1.949952 -0.0023,2.638972 -0.17879,0.624802 -0.432615,1.170134 -0.744095,1.598578 l -0.248602,0.341956 3.30291,3.310807 c 1.816593,1.82094 3.320771,3.303784 3.342616,3.295204 0.02211,-0.0081 0.223149,-0.232025 0.4473,-0.496629 z m -3.31559,-9.3735 c 0,-1.402019 0.01395,-2.549124 0.03095,-2.549124 0.0615,0 5.067355,2.51817 5.067355,2.549124 0,0.03095 -5.005822,2.549121 -5.067355,2.549121 -0.01701,0 -0.03095,-1.147105 -0.03095,-2.549121 z m -6.497159,3.951073 c 1.303501,-0.436805 2.311727,-1.465236 2.715366,-2.769775 0.20487,-0.662115 0.20487,-1.700483 0,-2.362599 -0.402683,-1.301447 -1.398328,-2.319117 -2.715366,-2.775426 -0.440457,-0.152604 -0.586344,-0.172329 -1.274561,-0.172329 -0.688216,0 -0.8341,0.01973 -1.274559,0.172329 -1.317036,0.456311 -2.312683,1.473982 -2.715363,2.775428 -0.204871,0.662116 -0.204871,1.700483 0,2.3626 0.452331,1.461919 1.630366,2.544939 3.150578,2.896469 0.576484,0.133308 1.503892,0.0777 2.113905,-0.126703 z m -4.089859,-8.264947 c 0.922753,-0.596579 1.663472,-0.809586 2.815298,-0.809586 1.151828,0 1.892547,0.213007 2.815302,0.809586 0.231886,0.149924 0.441818,0.272584 0.46652,0.272584 0.02471,0 1.5267,-1.481985 3.337773,-3.2933 l 3.292861,-3.293299 -0.273016,-0.23506 c -1.633122,-1.406074 -3.201197,-2.308858 -5.102594,-2.937714 -1.477921,-0.488796 -2.878355,-0.70705 -4.536847,-0.70705 -3.640697,0 -6.788545,1.190229 -9.639437,3.644762 l -0.273013,0.23506 3.292861,3.293301 c 1.811072,1.811313 3.313071,3.293297 3.337772,3.293297 0.02471,0 0.234636,-0.122655 0.46652,-0.272581 z m 0.266179,-3.488726 c 0,-0.06153 2.518167,-5.067356 2.54912,-5.067356 0.03095,0 2.549126,5.005824 2.549126,5.067356 0,0.01701 -1.147106,0.03085 -2.549126,0.03085 -1.402015,0 -2.54912,-0.01392 -2.54912,-0.03085 z"
     id="path1-3" />
  <path
     style="fill:#4d4d4d;fill-opacity:1;stroke:none;stroke-width:0.495;stroke-dasharray:none;stroke-opacity:0.6"
     d="m 31.160651,47.500849 c -1.457694,-0.111531 -2.68482,-0.339162 -3.868733,-0.717655 -0.759563,-0.242823 -1.961018,-0.734592 -2.43005,-0.99463 -0.741905,-0.41133 -0.973735,-0.551222 -1.542612,-0.930808 -2.412876,-1.610017 -4.379157,-3.974217 -5.552629,-6.676325 -0.875417,-2.015792 -1.266866,-3.927294 -1.266866,-6.186284 0,-1.776196 0.228988,-3.259282 0.743966,-4.818462 1.720809,-5.209988 6.017699,-9.122859 11.336747,-10.323564 2.163454,-0.488372 4.675589,-0.488372 6.839047,0 4.813093,1.086492 8.847349,4.427552 10.813852,8.955742 0.875411,2.015789 1.266865,3.927292 1.266865,6.186284 0,1.776194 -0.228964,3.259281 -0.743968,4.818461 -1.878425,5.687198 -6.824167,9.799494 -12.704542,10.563577 -0.74159,0.0964 -2.349163,0.165116 -2.891077,0.12365 z m 2.611296,-1.08754 c 2.885719,-0.340654 5.512531,-1.527663 7.867495,-3.555212 l 0.273015,-0.235054 -3.29286,-3.293299 c -1.811081,-1.811312 -3.313079,-3.293297 -3.33778,-3.293297 -0.02471,0 -0.234639,0.122666 -0.46652,0.272586 -0.922755,0.59658 -1.663474,0.809589 -2.815302,0.809589 -1.151826,0 -1.892545,-0.212999 -2.815298,-0.809589 -0.231886,-0.14992 -0.441821,-0.272587 -0.466521,-0.272587 -0.02471,0 -1.5267,1.481986 -3.337773,3.293298 l -3.292861,3.293299 0.273012,0.235021 c 1.633129,1.40607 3.201203,2.308852 5.102597,2.937711 1.12928,0.373508 2.195349,0.576671 3.728585,0.710623 0.420949,0.03667 1.946064,-0.01836 2.58021,-0.09314 z m -3.062411,-4.066441 c -0.692263,-1.385029 -1.258662,-2.532135 -1.258662,-2.549127 0,-0.01668 1.147105,-0.03095 2.549121,-0.03095 1.402017,0 2.549124,0.01395 2.549124,0.03095 0,0.0615 -2.518168,5.067358 -2.549124,5.067358 -0.01748,0 -0.598197,-1.133202 -1.290459,-2.518231 z m -6.007152,-3.769105 3.303433,-3.303 -0.273286,-0.390939 c -0.325053,-0.464994 -0.536634,-0.926066 -0.721958,-1.57329 -0.194839,-0.680454 -0.194839,-1.950319 0,-2.630775 0.185324,-0.647225 0.396905,-1.108295 0.721958,-1.57329 l 0.273286,-0.390938 -3.317315,-3.316882 c -2.012842,-2.012578 -3.33834,-3.293089 -3.370782,-3.256372 -2.150934,2.43443 -3.364619,5.071439 -3.747862,8.143092 -0.0997,0.799192 -0.0997,2.620362 0,3.419554 0.306971,2.460338 1.19937,4.76031 2.604872,6.713513 0.404548,0.562189 1.136017,1.457495 1.193347,1.460634 0.01698,9.53e-4 1.517416,-1.484653 3.334307,-3.301307 z m -3.06985,-5.295653 c -1.376372,-0.690338 -2.502494,-1.26947 -2.502494,-1.286962 0,-0.03095 5.005822,-2.549125 5.067358,-2.549125 0.01701,0 0.03084,1.147105 0.03084,2.549124 0,1.402016 -0.02099,2.547545 -0.04662,2.545622 -0.02561,-0.0019 -1.172734,-0.568321 -2.549105,-1.258659 z m 21.454771,8.086537 c 1.842268,-2.174264 2.984714,-4.793407 3.342831,-7.663724 0.04266,-0.341956 0.07759,-1.111356 0.07759,-1.709776 0,-1.661011 -0.21818,-3.058725 -0.709248,-4.543506 -0.64472,-1.949347 -1.628638,-3.625757 -3.116187,-5.309364 -0.03232,-0.03671 -1.357941,1.243794 -3.370778,3.256372 l -3.317331,3.316882 0.27328,0.390938 c 0.325056,0.464995 0.536635,0.926065 0.72196,1.57329 0.195961,0.684444 0.194918,1.949952 -0.0023,2.638972 -0.17879,0.624802 -0.432615,1.170134 -0.744095,1.598578 l -0.248602,0.341956 3.30291,3.310807 c 1.816593,1.82094 3.320771,3.303784 3.342616,3.295204 0.02211,-0.0081 0.223149,-0.232025 0.4473,-0.496629 z m -3.31559,-9.3735 c 0,-1.402019 0.01395,-2.549124 0.03095,-2.549124 0.0615,0 5.067355,2.51817 5.067355,2.549124 0,0.03095 -5.005822,2.549121 -5.067355,2.549121 -0.01701,0 -0.03095,-1.147105 -0.03095,-2.549121 z m -6.497159,3.951073 c 1.303501,-0.436805 2.311727,-1.465236 2.715366,-2.769775 0.20487,-0.662115 0.20487,-1.700483 0,-2.362599 -0.402683,-1.301447 -1.398328,-2.319117 -2.715366,-2.775426 -0.440457,-0.152604 -0.586344,-0.172329 -1.274561,-0.172329 -0.688216,0 -0.8341,0.01973 -1.274559,0.172329 -1.317036,0.456311 -2.312683,1.473982 -2.715363,2.775428 -0.204871,0.662116 -0.204871,1.700483 0,2.3626 0.452331,1.461919 1.630366,2.544939 3.150578,2.896469 0.576484,0.133308 1.503892,0.0777 2.113905,-0.126703 z m -4.089859,-8.264947 c 0.922753,-0.596579 1.663472,-0.809586 2.815298,-0.809586 1.151828,0 1.892547,0.213007 2.815302,0.809586 0.231886,0.149924 0.441818,0.272584 0.46652,0.272584 0.02471,0 1.5267,-1.481985 3.337773,-3.2933 l 3.292861,-3.293299 -0.273016,-0.23506 c -1.633122,-1.406074 -3.201197,-2.308858 -5.102594,-2.937714 -1.477921,-0.488796 -2.878355,-0.70705 -4.536847,-0.70705 -3.640697,0 -6.788545,1.190229 -9.639437,3.644762 l -0.273013,0.23506 3.292861,3.293301 c 1.811072,1.811313 3.313071,3.293297 3.337772,3.293297 0.02471,0 0.234636,-0.122655 0.46652,-0.272581 z m 0.266179,-3.488726 c 0,-0.06153 2.518167,-5.067356 2.54912,-5.067356 0.03095,0 2.549126,5.005824 2.549126,5.067356 0,0.01701 -1.147106,0.03085 -2.549126,0.03085 -1.402015,0 -2.54912,-0.01392 -2.54912,-0.03085 z"
     id="path1" />
</svg>
