<?xml version="1.0" encoding="UTF-8" standalone="no"?>
<svg
   width="64"
   height="64"
   version="1.1"
   id="svg73"
   sodipodi:docname="chromium.svg"
   inkscape:version="1.4.2 (ebf0e940d0, 2025-05-08)"
   xmlns:inkscape="http://www.inkscape.org/namespaces/inkscape"
   xmlns:sodipodi="http://sodipodi.sourceforge.net/DTD/sodipodi-0.dtd"
   xmlns:xlink="http://www.w3.org/1999/xlink"
   xmlns="http://www.w3.org/2000/svg"
   xmlns:svg="http://www.w3.org/2000/svg"
   xmlns:rdf="http://www.w3.org/1999/02/22-rdf-syntax-ns#"
   xmlns:cc="http://creativecommons.org/ns#"
   xmlns:dc="http://purl.org/dc/elements/1.1/">
  <metadata
     id="metadata77">
    <rdf:RDF>
      <cc:Work
         rdf:about="">
        <dc:format>image/svg+xml</dc:format>
        <dc:type
           rdf:resource="http://purl.org/dc/dcmitype/StillImage" />
      </cc:Work>
    </rdf:RDF>
  </metadata>
  <sodipodi:namedview
     pagecolor="#f5f7fa"
     bordercolor="#666666"
     borderopacity="1"
     objecttolerance="10"
     gridtolerance="10"
     guidetolerance="10"
     inkscape:pageopacity="0"
     inkscape:pageshadow="2"
     inkscape:window-width="1920"
     inkscape:window-height="931"
     id="namedview75"
     showgrid="false"
     inkscape:zoom="6.2890624"
     inkscape:cx="53.267082"
     inkscape:cy="29.734162"
     inkscape:window-x="0"
     inkscape:window-y="0"
     inkscape:window-maximized="1"
     inkscape:current-layer="svg73"
     inkscape:document-rotation="0"
     inkscape:pagecheckerboard="0"
     inkscape:showpageshadow="2"
     inkscape:deskcolor="#d1d1d1" />
  <defs
     id="defs29">
    <linearGradient
       id="linearGradient4"
       inkscape:collect="always">
      <stop
         style="stop-color:#635eac;stop-opacity:1;"
         offset="0"
         id="stop4" />
      <stop
         style="stop-color:#8581c1;stop-opacity:1;"
         offset="0.5"
         id="stop1" />
    </linearGradient>
    <linearGradient
       id="linearGradient2"
       inkscape:collect="always">
      <stop
         style="stop-color:#edecf4;stop-opacity:1;"
         offset="0"
         id="stop2" />
      <stop
         style="stop-color:#d9d8e9;stop-opacity:1;"
         offset="1"
         id="stop3" />
    </linearGradient>
    <linearGradient
       inkscape:collect="always"
       xlink:href="#linearGradient2"
       id="linearGradient8"
       x1="31.721739"
       y1="5.2278585"
       x2="31.88887"
       y2="59.145416"
       gradientUnits="userSpaceOnUse"
       gradientTransform="matrix(0.8505,0,0,0.8505,4.7765033,4.7794869)" />
    <filter
       style="color-interpolation-filters:sRGB;"
       inkscape:label="Blur"
       id="filter9"
       x="-0.047762285"
       y="-0.047489063"
       width="1.0955246"
       height="1.0949781">
      <feGaussianBlur
         stdDeviation="1 1"
         result="blur"
         id="feGaussianBlur9" />
    </filter>
    <linearGradient
       inkscape:collect="always"
       xlink:href="#linearGradient4"
       id="linearGradient7"
       x1="26.723248"
       y1="58.711765"
       x2="25.756926"
       y2="5.950614"
       gradientUnits="userSpaceOnUse" />
    <filter
       style="color-interpolation-filters:sRGB;"
       inkscape:label="Out of Focus"
       id="filter40"
       x="-0.24226652"
       y="-0.2858297"
       width="1.484533"
       height="1.5716594">
      <feFlood
         flood-opacity="1"
         flood-color="rgb(255,255,255)"
         result="flood"
         id="feFlood38" />
      <feColorMatrix
         in="SourceGraphic"
         values="1 0 0 0 0 0 1 0 0 0 0 0 1 0 0 -0.2125 -0.7154 -0.0721 1 0 "
         result="colormatrix1"
         id="feColorMatrix38" />
      <feGaussianBlur
         in="colormatrix1"
         stdDeviation="3 3"
         result="blur"
         id="feGaussianBlur38" />
      <feColorMatrix
         in="blur"
         values="1 0 0 0 0 0 1 0 0 0 0 0 1 0 0 0 0 0 6 -2 "
         result="colormatrix2"
         id="feColorMatrix39" />
      <feBlend
         in="colormatrix2"
         in2="flood"
         mode="normal"
         result="blend"
         id="feBlend39" />
      <feComposite
         in="blend"
         in2="blend"
         operator="arithmetic"
         k2="0.2"
         result="composite1"
         id="feComposite39" />
      <feComposite
         in2="SourceGraphic"
         operator="in"
         id="feComposite40" />
    </filter>
  </defs>
  <g
     id="g877"
     transform="matrix(1.1,0,0,1.1,-3.1845928,-3.2065454)">
    <ellipse
       style="opacity:0.5;fill:#000000;stroke:none;stroke-width:3.89319;stroke-dasharray:none;stroke-opacity:1;filter:url(#filter9)"
       id="path2-5"
       cx="31.949858"
       cy="31.969812"
       rx="25.124426"
       ry="25.268976"
       transform="matrix(1.05,0,0,1.05,-1.5974929,-1.5984906)" />
    <path
       style="fill:#f5f7fa;stroke-width:0.204426;fill-opacity:1"
       d=""
       id="path3" />
    <circle
       style="opacity:1;fill:url(#linearGradient8);stroke:url(#linearGradient7);stroke-width:3.81818;stroke-dasharray:none;stroke-opacity:1"
       id="path2"
       cx="31.949856"
       cy="31.969812"
       r="24.711082" />
    <ellipse
       style="opacity:0.3;fill:none;stroke:#000000;stroke-width:0.974376;stroke-dasharray:none;stroke-opacity:1"
       id="path2-9"
       cx="31.949856"
       cy="31.969812"
       rx="23.129124"
       ry="23.129126" />
  </g>
  <path
     id="path7250-3"
     style="fill:#000000;fill-opacity:1;stroke:none;stroke-width:0.4455;stroke-dasharray:none;stroke-opacity:0.6;opacity:0.2"
     d="m 32.282358,23.727397 c -3.239887,-0.03948 -6.489746,0.666029 -9.423306,2.090382 -2.141127,1.039593 -4.126877,2.453222 -5.757629,4.099008 l -0.439077,0.442995 1.70668,1.548131 1.706419,1.548134 0.52031,-0.485309 c 0.286083,-0.26692 0.618518,-0.569742 0.738933,-0.672852 4.989281,-4.272175 12.094153,-5.147289 17.980736,-2.214715 1.51977,0.75712 2.737236,1.614809 4.066622,2.864319 l 0.544864,0.511953 1.705372,-1.548656 1.70537,-1.548915 -0.484777,-0.488442 c -2.422723,-2.440902 -5.434134,-4.238324 -8.820201,-5.264746 -1.866057,-0.565659 -3.806383,-0.857599 -5.750316,-0.881287 z m -0.283924,5.371835 c -0.744522,4.6e-5 -1.488881,0.02783 -1.898924,0.08281 -3.497873,0.469176 -6.49602,1.908208 -9.039601,4.33879 -0.228957,0.218783 -0.410521,0.414323 -0.403555,0.434638 0.0069,0.02034 0.775889,0.728978 1.708768,1.574774 l 1.695972,1.537683 0.337469,-0.326762 c 1.628924,-1.577155 3.875307,-2.639583 6.22831,-2.946074 0.692168,-0.09011 2.054161,-0.09007 2.744166,3.06e-4 2.35349,0.308114 4.339424,1.227782 6.129839,2.838718 l 0.457621,0.411651 0.09846,-0.08829 c 0.481998,-0.43075 3.078331,-2.780611 3.181151,-2.879208 l 0.132685,-0.127205 -0.177382,-0.184926 c -0.692871,-0.722498 -1.926393,-1.708207 -2.903712,-2.32051 -0.697946,-0.437273 -1.985129,-1.076129 -2.735278,-1.357716 -1.114344,-0.418299 -2.41078,-0.739578 -3.656016,-0.906103 -0.410895,-0.05496 -1.155444,-0.08259 -1.89997,-0.08253 z m -0.09821,5.326125 c -0.175984,0.0019 -0.352206,0.008 -0.528409,0.01907 -2.437498,0.152577 -4.657915,1.117911 -6.491864,2.821737 l -0.303254,0.281572 1.71112,1.551266 c 0.941058,0.853219 1.717661,1.55216 1.725748,1.5531 0.008,9.8e-4 0.128583,-0.0964 0.267989,-0.216539 2.095164,-1.805252 5.246984,-1.833066 7.356954,-0.06478 l 0.342436,0.287044 0.191714,-0.169514 c 0.105457,-0.09322 0.880529,-0.793158 1.722347,-1.555194 l 1.530643,-1.38539 -0.350007,-0.327805 C 37.134549,35.402952 34.539916,34.398419 31.900224,34.42536 Z m -0.04074,5.351726 c -0.286412,0.0065 -0.569755,0.03744 -0.843677,0.09534 -0.870499,0.184118 -1.743136,0.618575 -2.308743,1.149805 l -0.140789,0.13244 1.718174,1.559627 1.718173,1.559881 1.015022,-0.922819 c 0.558223,-0.507469 1.330825,-1.206387 1.716867,-1.553093 l 0.701842,-0.63026 -0.210265,-0.19722 c -0.827907,-0.77664 -2.125506,-1.220367 -3.366614,-1.19369 z" />
  <path
     id="path7250"
     style="fill:#4d4d4d;fill-opacity:1;stroke:none;stroke-width:0.4455;stroke-dasharray:none;stroke-opacity:0.6"
     d="m 32.282358,21.727397 c -3.239887,-0.03948 -6.489746,0.666029 -9.423306,2.090382 -2.141127,1.039593 -4.126877,2.453222 -5.757629,4.099008 l -0.439077,0.442995 1.70668,1.548131 1.706419,1.548134 0.52031,-0.485309 c 0.286083,-0.26692 0.618518,-0.569742 0.738933,-0.672852 4.989281,-4.272175 12.094153,-5.147289 17.980736,-2.214715 1.51977,0.75712 2.737236,1.614809 4.066622,2.864319 l 0.544864,0.511953 1.705372,-1.548656 1.70537,-1.548915 -0.484777,-0.488442 c -2.422723,-2.440902 -5.434134,-4.238324 -8.820201,-5.264746 -1.866057,-0.565659 -3.806383,-0.857599 -5.750316,-0.881287 z m -0.283924,5.371835 c -0.744522,4.6e-5 -1.488881,0.02783 -1.898924,0.08281 -3.497873,0.469176 -6.49602,1.908208 -9.039601,4.33879 -0.228957,0.218783 -0.410521,0.414323 -0.403555,0.434638 0.0069,0.02034 0.775889,0.728978 1.708768,1.574774 l 1.695972,1.537683 0.337469,-0.326762 c 1.628924,-1.577155 3.875307,-2.639583 6.22831,-2.946074 0.692168,-0.09011 2.054161,-0.09007 2.744166,3.06e-4 2.35349,0.308114 4.339424,1.227782 6.129839,2.838718 l 0.457621,0.411651 0.09846,-0.08829 c 0.481998,-0.43075 3.078331,-2.780611 3.181151,-2.879208 l 0.132685,-0.127205 -0.177382,-0.184926 c -0.692871,-0.722498 -1.926393,-1.708207 -2.903712,-2.32051 -0.697946,-0.437273 -1.985129,-1.076129 -2.735278,-1.357716 -1.114344,-0.418299 -2.41078,-0.739578 -3.656016,-0.906103 -0.410895,-0.05496 -1.155444,-0.08259 -1.89997,-0.08253 z m -0.09821,5.326125 c -0.175984,0.0019 -0.352206,0.008 -0.528409,0.01907 -2.437498,0.152577 -4.657915,1.117911 -6.491864,2.821737 l -0.303254,0.281572 1.71112,1.551266 c 0.941058,0.853219 1.717661,1.55216 1.725748,1.5531 0.008,9.8e-4 0.128583,-0.0964 0.267989,-0.216539 2.095164,-1.805252 5.246984,-1.833066 7.356954,-0.06478 l 0.342436,0.287044 0.191714,-0.169514 c 0.105457,-0.09322 0.880529,-0.793158 1.722347,-1.555194 l 1.530643,-1.38539 -0.350007,-0.327805 C 37.134549,33.402952 34.539916,32.398419 31.900224,32.42536 Z m -0.04074,5.351726 c -0.286412,0.0065 -0.569755,0.03744 -0.843677,0.09534 -0.870499,0.184118 -1.743136,0.618575 -2.308743,1.149805 l -0.140789,0.13244 1.718174,1.559627 1.718173,1.559881 1.015022,-0.922819 c 0.558223,-0.507469 1.330825,-1.206387 1.716867,-1.553093 l 0.701842,-0.63026 -0.210265,-0.19722 c -0.827907,-0.77664 -2.125506,-1.220367 -3.366614,-1.19369 z" />
</svg>
