<?xml version="1.0" encoding="UTF-8" standalone="no"?>
<svg
   width="64"
   height="64"
   version="1.1"
   id="svg73"
   sodipodi:docname="abcd.svg"
   inkscape:version="1.4.2 (ebf0e940d0, 2025-05-08)"
   xmlns:inkscape="http://www.inkscape.org/namespaces/inkscape"
   xmlns:sodipodi="http://sodipodi.sourceforge.net/DTD/sodipodi-0.dtd"
   xmlns:xlink="http://www.w3.org/1999/xlink"
   xmlns="http://www.w3.org/2000/svg"
   xmlns:svg="http://www.w3.org/2000/svg"
   xmlns:rdf="http://www.w3.org/1999/02/22-rdf-syntax-ns#"
   xmlns:cc="http://creativecommons.org/ns#"
   xmlns:dc="http://purl.org/dc/elements/1.1/">
  <metadata
     id="metadata77">
    <rdf:RDF>
      <cc:Work
         rdf:about="">
        <dc:format>image/svg+xml</dc:format>
        <dc:type
           rdf:resource="http://purl.org/dc/dcmitype/StillImage" />
      </cc:Work>
    </rdf:RDF>
  </metadata>
  <sodipodi:namedview
     pagecolor="#f5f7fa"
     bordercolor="#666666"
     borderopacity="1"
     objecttolerance="10"
     gridtolerance="10"
     guidetolerance="10"
     inkscape:pageopacity="0"
     inkscape:pageshadow="2"
     inkscape:window-width="1261"
     inkscape:window-height="714"
     id="namedview75"
     showgrid="false"
     inkscape:zoom="6.2890624"
     inkscape:cx="32.516771"
     inkscape:cy="29.654659"
     inkscape:window-x="24"
     inkscape:window-y="21"
     inkscape:window-maximized="0"
     inkscape:current-layer="svg73"
     inkscape:document-rotation="0"
     inkscape:pagecheckerboard="0"
     inkscape:showpageshadow="2"
     inkscape:deskcolor="#d1d1d1" />
  <defs
     id="defs29">
    <linearGradient
       id="linearGradient4"
       inkscape:collect="always">
      <stop
         style="stop-color:#635eac;stop-opacity:1;"
         offset="0"
         id="stop4" />
      <stop
         style="stop-color:#8581c1;stop-opacity:1;"
         offset="0.5"
         id="stop1" />
    </linearGradient>
    <linearGradient
       id="linearGradient2"
       inkscape:collect="always">
      <stop
         style="stop-color:#edecf4;stop-opacity:1;"
         offset="0"
         id="stop2" />
      <stop
         style="stop-color:#d9d8e9;stop-opacity:1;"
         offset="1"
         id="stop3" />
    </linearGradient>
    <linearGradient
       inkscape:collect="always"
       xlink:href="#linearGradient2"
       id="linearGradient8"
       x1="31.721739"
       y1="5.2278585"
       x2="31.88887"
       y2="59.145416"
       gradientUnits="userSpaceOnUse"
       gradientTransform="matrix(0.8505,0,0,0.8505,4.7765033,4.7794869)" />
    <filter
       style="color-interpolation-filters:sRGB;"
       inkscape:label="Blur"
       id="filter9"
       x="-0.047762285"
       y="-0.047489063"
       width="1.0955246"
       height="1.0949781">
      <feGaussianBlur
         stdDeviation="1 1"
         result="blur"
         id="feGaussianBlur9" />
    </filter>
    <linearGradient
       inkscape:collect="always"
       xlink:href="#linearGradient4"
       id="linearGradient7"
       x1="26.723248"
       y1="58.711765"
       x2="25.756926"
       y2="5.950614"
       gradientUnits="userSpaceOnUse" />
    <filter
       style="color-interpolation-filters:sRGB;"
       inkscape:label="Out of Focus"
       id="filter40"
       x="-0.24226652"
       y="-0.2858297"
       width="1.484533"
       height="1.5716594">
      <feFlood
         flood-opacity="1"
         flood-color="rgb(255,255,255)"
         result="flood"
         id="feFlood38" />
      <feColorMatrix
         in="SourceGraphic"
         values="1 0 0 0 0 0 1 0 0 0 0 0 1 0 0 -0.2125 -0.7154 -0.0721 1 0 "
         result="colormatrix1"
         id="feColorMatrix38" />
      <feGaussianBlur
         in="colormatrix1"
         stdDeviation="3 3"
         result="blur"
         id="feGaussianBlur38" />
      <feColorMatrix
         in="blur"
         values="1 0 0 0 0 0 1 0 0 0 0 0 1 0 0 0 0 0 6 -2 "
         result="colormatrix2"
         id="feColorMatrix39" />
      <feBlend
         in="colormatrix2"
         in2="flood"
         mode="normal"
         result="blend"
         id="feBlend39" />
      <feComposite
         in="blend"
         in2="blend"
         operator="arithmetic"
         k2="0.2"
         result="composite1"
         id="feComposite39" />
      <feComposite
         in2="SourceGraphic"
         operator="in"
         id="feComposite40" />
    </filter>
  </defs>
  <g
     id="g877"
     transform="matrix(1.1,0,0,1.1,-3.1845928,-3.2065454)">
    <ellipse
       style="opacity:0.5;fill:#000000;stroke:none;stroke-width:3.89319;stroke-dasharray:none;stroke-opacity:1;filter:url(#filter9)"
       id="path2-5"
       cx="31.949858"
       cy="31.969812"
       rx="25.124426"
       ry="25.268976"
       transform="matrix(1.05,0,0,1.05,-1.5974929,-1.5984906)" />
    <path
       style="fill:#f5f7fa;stroke-width:0.204426;fill-opacity:1"
       d=""
       id="path3" />
    <circle
       style="opacity:1;fill:url(#linearGradient8);stroke:url(#linearGradient7);stroke-width:3.81818;stroke-dasharray:none;stroke-opacity:1"
       id="path2"
       cx="31.949856"
       cy="31.969812"
       r="24.711082" />
    <ellipse
       style="opacity:0.3;fill:none;stroke:#000000;stroke-width:0.974376;stroke-dasharray:none;stroke-opacity:1"
       id="path2-9"
       cx="31.949856"
       cy="31.969812"
       rx="23.129124"
       ry="23.129126" />
  </g>
  <path
     id="path19-2"
     style="fill:#000000;fill-opacity:1;stroke:none;stroke-width:0.454912;stroke-dasharray:none;stroke-dashoffset:2.2;stroke-opacity:0.6;opacity:0.2"
     d="m 28.054924,21.368351 c -0.795544,0.0097 -1.601352,0.188476 -2.370857,0.55714 -3.654721,1.750925 -4.468156,6.449756 -1.603283,9.266978 0.865293,0.850899 1.768777,1.349183 2.881901,1.591258 0.913851,0.198739 1.274188,0.207866 2.144392,0.05008 2.118018,-0.383969 3.975377,-2.049607 4.579378,-4.108413 0.284852,-0.970928 0.244148,-2.484276 -0.09216,-3.437038 -0.866923,-2.455789 -3.152726,-3.949148 -5.539345,-3.920019 z m 9.74596,3.793768 c -0.436598,0.0067 -0.876368,0.07143 -1.310689,0.200414 l -0.609243,0.180375 0.07213,1.032115 c 0.135171,1.903929 -0.575229,4.165751 -1.715508,5.461179 -0.264985,0.301035 -0.48299,0.59424 -0.48299,0.651334 0,0.136361 1.150709,1.239657 1.549169,1.48504 0.171117,0.10538 0.622179,0.300532 1.00206,0.434892 1.066802,0.377322 2.549517,0.29386 3.60939,-0.202408 1.057605,-0.495216 1.990685,-1.390974 2.475062,-2.374866 0.356533,-0.724184 0.380773,-0.85384 0.380773,-2.016125 0,-1.159464 -0.02483,-1.293526 -0.37678,-2.00611 -0.887266,-1.799307 -2.701464,-2.874633 -4.593383,-2.845837 z m -0.785615,11.806179 0.577183,0.380778 c 1.333028,0.882957 2.535638,2.246277 3.274713,3.707584 0.398951,0.788834 0.901843,2.525542 0.901843,3.114376 v 0.456947 h 2.899944 2.89993 l -0.04001,-1.390865 c -0.04007,-1.330263 -0.06283,-1.430462 -0.485034,-2.284663 -1.256246,-2.541428 -4.464471,-3.984157 -8.85616,-3.984157 z m -8.697807,0.02208 c -0.283191,2.63e-4 -0.572073,0.0054 -0.867778,0.01398 -2.473857,0.0726 -3.662592,0.271081 -5.354966,0.893793 -3.679677,1.353972 -5.659699,4.108815 -5.663602,7.880158 v 0.853747 H 28.099011 39.76691 v -1.212478 c 0,-2.269411 -0.642349,-3.822424 -2.226568,-5.391027 -2.113602,-2.092785 -4.974996,-3.042297 -9.22288,-3.03823 z" />
  <path
     id="path19"
     style="fill:#4d4d4d;fill-opacity:1;stroke:none;stroke-width:0.454912;stroke-dasharray:none;stroke-dashoffset:2.2;stroke-opacity:0.6"
     d="m 28.054924,19.368351 c -0.795544,0.0097 -1.601352,0.188476 -2.370857,0.55714 -3.654721,1.750925 -4.468156,6.449756 -1.603283,9.266978 0.865293,0.850899 1.768777,1.349183 2.881901,1.591258 0.913851,0.198739 1.274188,0.207866 2.144392,0.05008 2.118018,-0.383969 3.975377,-2.049607 4.579378,-4.108413 0.284852,-0.970928 0.244148,-2.484276 -0.09216,-3.437038 -0.866923,-2.455789 -3.152726,-3.949148 -5.539345,-3.920019 z m 9.74596,3.793768 c -0.436598,0.0067 -0.876368,0.07143 -1.310689,0.200414 l -0.609243,0.180375 0.07213,1.032115 c 0.135171,1.903929 -0.575229,4.165751 -1.715508,5.461179 -0.264985,0.301035 -0.48299,0.59424 -0.48299,0.651334 0,0.136361 1.150709,1.239657 1.549169,1.48504 0.171117,0.10538 0.622179,0.300532 1.00206,0.434892 1.066802,0.377322 2.549517,0.29386 3.60939,-0.202408 1.057605,-0.495216 1.990685,-1.390974 2.475062,-2.374866 0.356533,-0.724184 0.380773,-0.85384 0.380773,-2.016125 0,-1.159464 -0.02483,-1.293526 -0.37678,-2.00611 -0.887266,-1.799307 -2.701464,-2.874633 -4.593383,-2.845837 z m -0.785615,11.806179 0.577183,0.380778 c 1.333028,0.882957 2.535638,2.246277 3.274713,3.707584 0.398951,0.788834 0.901843,2.525542 0.901843,3.114376 v 0.456947 h 2.899944 2.89993 l -0.04001,-1.390865 c -0.04007,-1.330263 -0.06283,-1.430462 -0.485034,-2.284663 -1.256246,-2.541428 -4.464471,-3.984157 -8.85616,-3.984157 z m -8.697807,0.02208 c -0.283191,2.63e-4 -0.572073,0.0054 -0.867778,0.01398 -2.473857,0.0726 -3.662592,0.271081 -5.354966,0.893793 -3.679677,1.353972 -5.659699,4.108815 -5.663602,7.880158 v 0.853747 H 28.099011 39.76691 v -1.212478 c 0,-2.269411 -0.642349,-3.822424 -2.226568,-5.391027 -2.113602,-2.092785 -4.974996,-3.042297 -9.22288,-3.03823 z" />
</svg>
