<?xml version="1.0" encoding="UTF-8" standalone="no"?>
<svg
   width="64"
   height="64"
   version="1.1"
   id="svg73"
   sodipodi:docname="abcd.svg"
   inkscape:version="1.4.2 (ebf0e940d0, 2025-05-08)"
   xmlns:inkscape="http://www.inkscape.org/namespaces/inkscape"
   xmlns:sodipodi="http://sodipodi.sourceforge.net/DTD/sodipodi-0.dtd"
   xmlns:xlink="http://www.w3.org/1999/xlink"
   xmlns="http://www.w3.org/2000/svg"
   xmlns:svg="http://www.w3.org/2000/svg"
   xmlns:rdf="http://www.w3.org/1999/02/22-rdf-syntax-ns#"
   xmlns:cc="http://creativecommons.org/ns#"
   xmlns:dc="http://purl.org/dc/elements/1.1/">
  <metadata
     id="metadata77">
    <rdf:RDF>
      <cc:Work
         rdf:about="">
        <dc:format>image/svg+xml</dc:format>
        <dc:type
           rdf:resource="http://purl.org/dc/dcmitype/StillImage" />
      </cc:Work>
    </rdf:RDF>
  </metadata>
  <sodipodi:namedview
     pagecolor="#f5f7fa"
     bordercolor="#666666"
     borderopacity="1"
     objecttolerance="10"
     gridtolerance="10"
     guidetolerance="10"
     inkscape:pageopacity="0"
     inkscape:pageshadow="2"
     inkscape:window-width="1261"
     inkscape:window-height="714"
     id="namedview75"
     showgrid="false"
     inkscape:zoom="6.2890624"
     inkscape:cx="32.516771"
     inkscape:cy="29.654659"
     inkscape:window-x="24"
     inkscape:window-y="21"
     inkscape:window-maximized="0"
     inkscape:current-layer="svg73"
     inkscape:document-rotation="0"
     inkscape:pagecheckerboard="0"
     inkscape:showpageshadow="2"
     inkscape:deskcolor="#d1d1d1" />
  <defs
     id="defs29">
    <linearGradient
       id="linearGradient4"
       inkscape:collect="always">
      <stop
         style="stop-color:#635eac;stop-opacity:1;"
         offset="0"
         id="stop4" />
      <stop
         style="stop-color:#8581c1;stop-opacity:1;"
         offset="0.5"
         id="stop1" />
    </linearGradient>
    <linearGradient
       id="linearGradient2"
       inkscape:collect="always">
      <stop
         style="stop-color:#edecf4;stop-opacity:1;"
         offset="0"
         id="stop2" />
      <stop
         style="stop-color:#d9d8e9;stop-opacity:1;"
         offset="1"
         id="stop3" />
    </linearGradient>
    <linearGradient
       inkscape:collect="always"
       xlink:href="#linearGradient2"
       id="linearGradient8"
       x1="31.721739"
       y1="5.2278585"
       x2="31.88887"
       y2="59.145416"
       gradientUnits="userSpaceOnUse"
       gradientTransform="matrix(0.8505,0,0,0.8505,4.7765033,4.7794869)" />
    <filter
       style="color-interpolation-filters:sRGB;"
       inkscape:label="Blur"
       id="filter9"
       x="-0.047762285"
       y="-0.047489063"
       width="1.0955246"
       height="1.0949781">
      <feGaussianBlur
         stdDeviation="1 1"
         result="blur"
         id="feGaussianBlur9" />
    </filter>
    <linearGradient
       inkscape:collect="always"
       xlink:href="#linearGradient4"
       id="linearGradient7"
       x1="26.723248"
       y1="58.711765"
       x2="25.756926"
       y2="5.950614"
       gradientUnits="userSpaceOnUse" />
    <filter
       style="color-interpolation-filters:sRGB;"
       inkscape:label="Out of Focus"
       id="filter40"
       x="-0.24226652"
       y="-0.2858297"
       width="1.484533"
       height="1.5716594">
      <feFlood
         flood-opacity="1"
         flood-color="rgb(255,255,255)"
         result="flood"
         id="feFlood38" />
      <feColorMatrix
         in="SourceGraphic"
         values="1 0 0 0 0 0 1 0 0 0 0 0 1 0 0 -0.2125 -0.7154 -0.0721 1 0 "
         result="colormatrix1"
         id="feColorMatrix38" />
      <feGaussianBlur
         in="colormatrix1"
         stdDeviation="3 3"
         result="blur"
         id="feGaussianBlur38" />
      <feColorMatrix
         in="blur"
         values="1 0 0 0 0 0 1 0 0 0 0 0 1 0 0 0 0 0 6 -2 "
         result="colormatrix2"
         id="feColorMatrix39" />
      <feBlend
         in="colormatrix2"
         in2="flood"
         mode="normal"
         result="blend"
         id="feBlend39" />
      <feComposite
         in="blend"
         in2="blend"
         operator="arithmetic"
         k2="0.2"
         result="composite1"
         id="feComposite39" />
      <feComposite
         in2="SourceGraphic"
         operator="in"
         id="feComposite40" />
    </filter>
  </defs>
  <g
     id="g877"
     transform="matrix(1.1,0,0,1.1,-3.1845928,-3.2065454)">
    <ellipse
       style="opacity:0.5;fill:#000000;stroke:none;stroke-width:3.89319;stroke-dasharray:none;stroke-opacity:1;filter:url(#filter9)"
       id="path2-5"
       cx="31.949858"
       cy="31.969812"
       rx="25.124426"
       ry="25.268976"
       transform="matrix(1.05,0,0,1.05,-1.5974929,-1.5984906)" />
    <path
       style="fill:#f5f7fa;stroke-width:0.204426;fill-opacity:1"
       d=""
       id="path3" />
    <circle
       style="opacity:1;fill:url(#linearGradient8);stroke:url(#linearGradient7);stroke-width:3.81818;stroke-dasharray:none;stroke-opacity:1"
       id="path2"
       cx="31.949856"
       cy="31.969812"
       r="24.711082" />
    <ellipse
       style="opacity:0.3;fill:none;stroke:#000000;stroke-width:0.974376;stroke-dasharray:none;stroke-opacity:1"
       id="path2-9"
       cx="31.949856"
       cy="31.969812"
       rx="23.129124"
       ry="23.129126" />
  </g>
  <path
     style="fill:#000000;fill-opacity:1;stroke:none;stroke-width:0.464149;stroke-dasharray:none;stroke-opacity:0.6;opacity:0.2"
     d="m 25.456267,46.301529 v -2.91256 l -0.243713,-0.06114 c -0.343639,-0.08628 -1.597688,-0.722139 -2.103338,-1.066517 -1.840073,-1.253207 -3.285155,-3.317691 -3.900325,-5.572113 l -0.248,-0.908853 -9.9e-4,-4.49882 -0.0012,-4.498818 0.249265,-0.908852 c 0.476514,-1.737437 1.337897,-3.238116 2.560351,-4.460568 1.169416,-1.169416 2.54375,-1.979448 4.116677,-2.426368 0.694173,-0.19724 0.808777,-0.201004 6.115102,-0.201004 5.306326,0 5.420928,0.0038 6.115097,0.201004 1.572932,0.44692 2.947266,1.256952 4.116681,2.426368 1.222456,1.222452 2.083833,2.723131 2.560347,4.460568 l 0.249238,0.908852 -9.9e-4,4.498818 -9.9e-4,4.49882 -0.24222,0.882113 c -0.751814,2.737965 -2.555132,5.005767 -4.924101,6.192422 -1.672586,0.837832 -2.474743,0.968808 -5.933216,0.968808 h -2.671808 l -2.704828,2.52207 c -1.487656,1.387138 -2.79525,2.599973 -2.905766,2.695199 l -0.200917,0.173129 z m 10.90934,-6.895126 c 0.398917,-0.118463 0.614271,-0.269426 1.15317,-0.808312 1.035685,-1.035686 1.33161,-1.881788 0.892529,-2.551913 -0.206667,-0.315405 -1.568875,-1.386258 -2.41114,-1.895427 -0.838104,-0.506658 -1.416853,-0.624798 -1.882122,-0.384196 -0.151293,0.07823 -0.4893,0.389525 -0.751125,0.691757 -0.421769,0.486851 -0.513883,0.549228 -0.807873,0.547047 -0.423421,-0.0032 -1.364075,-0.403858 -2.064403,-0.879443 -1.034301,-0.70238 -2.048904,-1.97467 -2.554226,-3.202947 -0.309672,-0.752701 -0.282763,-1.050955 0.126182,-1.398741 0.946667,-0.805096 1.119049,-1.121487 0.988933,-1.815077 -0.119424,-0.636582 -1.840004,-3.054945 -2.442946,-3.433689 -0.43243,-0.271632 -1.025149,-0.196018 -1.63263,0.208281 -1.044284,0.695004 -1.79582,1.714234 -1.79582,2.435487 0,0.504652 0.328135,1.369522 1.086111,2.862687 1.763417,3.473819 3.549861,5.53578 6.40793,7.396212 1.602506,1.043138 4.383407,2.359247 5.008907,2.370556 0.1034,0.0019 0.408733,-0.06214 0.678523,-0.142226 z m 1.149819,-9.958427 c 0.173451,-0.162942 0.210387,-0.291012 0.210387,-0.729949 0,-1.651204 -1.196591,-3.134259 -2.876005,-3.564517 -1.173262,-0.300586 -1.759145,-0.125909 -1.759145,0.524486 0,0.412365 0.24993,0.614543 0.882281,0.713703 1.407465,0.220718 2.141871,0.945717 2.30612,2.2766 0.06133,0.496884 0.128861,0.698355 0.274244,0.81824 0.265752,0.219129 0.706662,0.201454 0.962152,-0.03855 z m 3.077362,-0.0255 c 0.270291,-0.27029 0.291085,-0.72645 0.08657,-1.89925 -0.383517,-2.199222 -1.611941,-3.879468 -3.521642,-4.816929 -1.03668,-0.508899 -1.680912,-0.682193 -2.794694,-0.751751 -0.798874,-0.04991 -0.878693,-0.03935 -1.067901,0.141237 -0.135085,0.128917 -0.204491,0.301924 -0.204491,0.509715 0,0.507555 0.208918,0.634772 1.235193,0.752145 1.095018,0.125234 1.855702,0.372514 2.573904,0.836712 0.944966,0.610758 1.640203,1.430494 2.013015,2.373488 0.228122,0.577034 0.448967,1.664118 0.448967,2.210052 0,0.789666 0.712792,1.162881 1.231081,0.644588 z"
     id="path7-7" />
  <path
     style="fill:#4d4d4d;fill-opacity:1;stroke:none;stroke-width:0.464149;stroke-dasharray:none;stroke-opacity:0.6"
     d="m 25.456267,44.301529 v -2.91256 l -0.243713,-0.06114 c -0.343639,-0.08628 -1.597688,-0.722139 -2.103338,-1.066517 -1.840073,-1.253207 -3.285155,-3.317691 -3.900325,-5.572113 l -0.248,-0.908853 -9.9e-4,-4.49882 -0.0012,-4.498818 0.249265,-0.908852 c 0.476514,-1.737437 1.337897,-3.238116 2.560351,-4.460568 1.169416,-1.169416 2.54375,-1.979448 4.116677,-2.426368 0.694173,-0.19724 0.808777,-0.201004 6.115102,-0.201004 5.306326,0 5.420928,0.0038 6.115097,0.201004 1.572932,0.44692 2.947266,1.256952 4.116681,2.426368 1.222456,1.222452 2.083833,2.723131 2.560347,4.460568 l 0.249238,0.908852 -9.9e-4,4.498818 -9.9e-4,4.49882 -0.24222,0.882113 c -0.751814,2.737965 -2.555132,5.005767 -4.924101,6.192422 -1.672586,0.837832 -2.474743,0.968808 -5.933216,0.968808 h -2.671808 l -2.704828,2.52207 c -1.487656,1.387138 -2.79525,2.599973 -2.905766,2.695199 l -0.200917,0.173129 z m 10.90934,-6.895126 c 0.398917,-0.118463 0.614271,-0.269426 1.15317,-0.808312 1.035685,-1.035686 1.33161,-1.881788 0.892529,-2.551913 -0.206667,-0.315405 -1.568875,-1.386258 -2.41114,-1.895427 -0.838104,-0.506658 -1.416853,-0.624798 -1.882122,-0.384196 -0.151293,0.07823 -0.4893,0.389525 -0.751125,0.691757 -0.421769,0.486851 -0.513883,0.549228 -0.807873,0.547047 -0.423421,-0.0032 -1.364075,-0.403858 -2.064403,-0.879443 -1.034301,-0.70238 -2.048904,-1.97467 -2.554226,-3.202947 -0.309672,-0.752701 -0.282763,-1.050955 0.126182,-1.398741 0.946667,-0.805096 1.119049,-1.121487 0.988933,-1.815077 -0.119424,-0.636582 -1.840004,-3.054945 -2.442946,-3.433689 -0.43243,-0.271632 -1.025149,-0.196018 -1.63263,0.208281 -1.044284,0.695004 -1.79582,1.714234 -1.79582,2.435487 0,0.504652 0.328135,1.369522 1.086111,2.862687 1.763417,3.473819 3.549861,5.53578 6.40793,7.396212 1.602506,1.043138 4.383407,2.359247 5.008907,2.370556 0.1034,0.0019 0.408733,-0.06214 0.678523,-0.142226 z m 1.149819,-9.958427 c 0.173451,-0.162942 0.210387,-0.291012 0.210387,-0.729949 0,-1.651204 -1.196591,-3.134259 -2.876005,-3.564517 -1.173262,-0.300586 -1.759145,-0.125909 -1.759145,0.524486 0,0.412365 0.24993,0.614543 0.882281,0.713703 1.407465,0.220718 2.141871,0.945717 2.30612,2.2766 0.06133,0.496884 0.128861,0.698355 0.274244,0.81824 0.265752,0.219129 0.706662,0.201454 0.962152,-0.03855 z m 3.077362,-0.0255 c 0.270291,-0.27029 0.291085,-0.72645 0.08657,-1.89925 -0.383517,-2.199222 -1.611941,-3.879468 -3.521642,-4.816929 -1.03668,-0.508899 -1.680912,-0.682193 -2.794694,-0.751751 -0.798874,-0.04991 -0.878693,-0.03935 -1.067901,0.141237 -0.135085,0.128917 -0.204491,0.301924 -0.204491,0.509715 0,0.507555 0.208918,0.634772 1.235193,0.752145 1.095018,0.125234 1.855702,0.372514 2.573904,0.836712 0.944966,0.610758 1.640203,1.430494 2.013015,2.373488 0.228122,0.577034 0.448967,1.664118 0.448967,2.210052 0,0.789666 0.712792,1.162881 1.231081,0.644588 z"
     id="path7" />
</svg>
