<?xml version="1.0" encoding="UTF-8" standalone="no"?>
<svg
   width="128"
   height="128"
   version="1.1"
   id="svg73"
   sodipodi:docname="abcd.svg"
   inkscape:version="1.4.2 (ebf0e940d0, 2025-05-08)"
   xmlns:inkscape="http://www.inkscape.org/namespaces/inkscape"
   xmlns:sodipodi="http://sodipodi.sourceforge.net/DTD/sodipodi-0.dtd"
   xmlns:xlink="http://www.w3.org/1999/xlink"
   xmlns="http://www.w3.org/2000/svg"
   xmlns:svg="http://www.w3.org/2000/svg"
   xmlns:rdf="http://www.w3.org/1999/02/22-rdf-syntax-ns#"
   xmlns:cc="http://creativecommons.org/ns#"
   xmlns:dc="http://purl.org/dc/elements/1.1/">
  <metadata
     id="metadata77">
    <rdf:RDF>
      <cc:Work
         rdf:about="">
        <dc:format>image/svg+xml</dc:format>
        <dc:type
           rdf:resource="http://purl.org/dc/dcmitype/StillImage" />
      </cc:Work>
    </rdf:RDF>
  </metadata>
  <sodipodi:namedview
     pagecolor="#f5f7fa"
     bordercolor="#666666"
     borderopacity="1"
     objecttolerance="10"
     gridtolerance="10"
     guidetolerance="10"
     inkscape:pageopacity="0"
     inkscape:pageshadow="2"
     inkscape:window-width="1024"
     inkscape:window-height="621"
     id="namedview75"
     showgrid="false"
     inkscape:zoom="2.8284271"
     inkscape:cx="76.01398"
     inkscape:cy="53.740116"
     inkscape:window-x="24"
     inkscape:window-y="21"
     inkscape:window-maximized="0"
     inkscape:current-layer="g877"
     inkscape:document-rotation="0"
     inkscape:pagecheckerboard="0"
     inkscape:showpageshadow="2"
     inkscape:deskcolor="#d1d1d1" />
  <defs
     id="defs29">
    <linearGradient
       id="linearGradient2"
       inkscape:collect="always">
      <stop
         style="stop-color:#eceff4;stop-opacity:1;"
         offset="0"
         id="stop2" />
      <stop
         style="stop-color:#d8dee9;stop-opacity:1;"
         offset="1"
         id="stop3" />
    </linearGradient>
    <linearGradient
       id="linearGradient4"
       inkscape:collect="always">
      <stop
         style="stop-color:#5e81ac;stop-opacity:1;"
         offset="0"
         id="stop4" />
      <stop
         style="stop-color:#81a1c1;stop-opacity:1;"
         offset="0.5"
         id="stop1" />
    </linearGradient>
    <linearGradient
       inkscape:collect="always"
       xlink:href="#linearGradient4"
       id="linearGradient10"
       x1="9.2140656"
       y1="59.534302"
       x2="9.3084183"
       y2="3.1454122"
       gradientUnits="userSpaceOnUse" />
    <linearGradient
       inkscape:collect="always"
       xlink:href="#linearGradient2"
       id="linearGradient12"
       x1="31.714066"
       y1="8.1454124"
       x2="31.808418"
       y2="56.756523"
       gradientUnits="userSpaceOnUse" />
    <filter
       style="color-interpolation-filters:sRGB;"
       inkscape:label="Blur"
       id="filter19"
       x="-0.2123234"
       y="-0.16677348"
       width="1.4246668"
       height="1.3335247">
      <feGaussianBlur
         stdDeviation="3 3"
         result="blur"
         id="feGaussianBlur19" />
    </filter>
  </defs>
  <g
     id="g877"
     transform="matrix(1.1,0,0,1.1,-3.1845928,-3.2065454)">
    <path
       style="fill:#f5f7fa;fill-opacity:1;stroke-width:0.408852"
       d=""
       id="path3" />
    <g
       id="g6019"
       style="fill:#f4e3cf;fill-opacity:1"
       transform="matrix(1.6363636,0,0,1.6363636,8.6240773,-3.6100595)">
      <g
         id="g9-5-8"
         transform="translate(0.01590346,7.50823)"
         style="fill:none;fill-opacity:1;stroke:#000000;stroke-width:3.33333;stroke-dasharray:none;stroke-opacity:1;filter:url(#filter19);opacity:0.5">
        <path
           style="fill:none;stroke:#000000;stroke-width:3.33333;stroke-dasharray:none;stroke-opacity:1"
           d="m 13.343599,58.563313 c -0.509985,-0.08683 -1.224187,-0.470908 -1.51513,-0.814789 -0.122413,-0.144688 -0.323232,-0.476818 -0.446265,-0.738068 l -0.223696,-0.475 V 32.051364 7.5672726 l 0.223696,-0.4750002 c 0.324078,-0.6881544 0.619931,-0.994428 1.269542,-1.3142592 l 0.575755,-0.2834685 11.272322,-0.023076 13.494544,-0.023076 7.462164,7.4638153 7.462164,7.463814 -0.02327,19.192675 -0.02327,16.970452 -0.283469,0.57578 c -0.319827,0.649631 -0.626095,0.94548 -1.314258,1.269565 l -0.475,0.223696 -18.525002,0.01214 c -10.18875,0.0067 -18.707617,-0.01898 -18.930817,-0.05698 z"
           id="path7-4"
           sodipodi:nodetypes="csscccsscccccccsscccc" />
      </g>
      <g
         id="g9-5"
         transform="translate(0.01590346,7.50823)"
         style="fill:url(#linearGradient12);fill-opacity:1;stroke:url(#linearGradient10);stroke-opacity:1;stroke-width:3.33333341;stroke-dasharray:none">
        <path
           style="fill:url(#linearGradient12);stroke:url(#linearGradient10);stroke-width:3.33333;stroke-dasharray:none;stroke-opacity:1"
           d="m 13.343599,58.563313 c -0.509985,-0.08683 -1.224187,-0.470908 -1.51513,-0.814789 -0.122413,-0.144688 -0.323232,-0.476818 -0.446265,-0.738068 l -0.223696,-0.475 V 32.051364 7.5672726 l 0.223696,-0.4750002 c 0.324078,-0.6881544 0.619931,-0.994428 1.269542,-1.3142592 l 0.575755,-0.2834685 11.272322,-0.023076 13.494544,-0.023076 7.462164,7.4638153 7.462164,7.463814 -0.02327,19.192675 -0.02327,16.970452 -0.283469,0.57578 c -0.319827,0.649631 -0.626095,0.94548 -1.314258,1.269565 l -0.475,0.223696 -18.525002,0.01214 c -10.18875,0.0067 -18.707617,-0.01898 -18.930817,-0.05698 z"
           id="path7"
           sodipodi:nodetypes="csscccsscccccccsscccc" />
      </g>
      <g
         id="g9-5-4"
         transform="matrix(0.95060971,0,0,0.95060971,1.5983299,9.0903999)"
         style="opacity:0.3;fill:none;fill-opacity:1;stroke:#000000;stroke-width:1.2163;stroke-dasharray:none;stroke-opacity:1">
        <path
           style="fill:none;stroke:#000000;stroke-width:1.2209;stroke-dasharray:none;stroke-opacity:1"
           d="m 13.345657,58.767192 c -0.509928,-0.0875 -1.379019,0.09369 -1.66993,-0.252835 -0.122399,-0.1458 -0.564184,-0.815119 -0.549528,-1.105332 l 0.03461,-0.685274 V 32.051492 7.3792344 L 11.126199,6.8489278 C 11.076353,6.085133 11.673733,5.438001 12.395601,5.3696002 l 0.833972,-0.079023 11.271081,-0.023254 13.493057,-0.023254 7.461342,7.5211759 7.461342,7.521176 -0.02327,19.340175 -0.02327,17.100874 -0.07684,0.892523 c -0.06259,0.726926 -0.502095,1.157375 -1.262462,1.175216 l -0.7332,0.01721 -18.522962,0.01224 c -10.187627,0.0067 -18.705557,-0.01912 -18.928733,-0.05742 z"
           id="path7-3"
           sodipodi:nodetypes="csscccsscccccccsscccc" />
      </g>
    </g>
    <g
       fill="#1976d2"
       id="g6-9"
       transform="matrix(1.6363636,0,0,1.6363636,8.7132673,-2.1770404)"
       style="fill:#000000;fill-opacity:1;opacity:0.2">
      <path
         d="m 32,30 c -0.116,0 -0.23,0.05 -0.293,0.152 l -0.625,1.012 -0.293,0.028 -0.809,-0.867 c -0.163,-0.176 -0.498,-0.108 -0.582,0.118 l -0.414,1.105 -0.285,0.086 -0.96,-0.691 c -0.196,-0.14 -0.505,-0.02 -0.544,0.226 l -0.191,1.168 -0.262,0.14 -1.078,-0.492 c -0.219,-0.1 -0.501,0.088 -0.492,0.328 l 0.043,1.188 -0.227,0.188 -1.156,-0.274 c -0.234,-0.054 -0.473,0.184 -0.418,0.418 l 0.274,1.156 -0.188,0.227 -1.187,-0.042 c -0.24,-0.02 -0.428,0.273 -0.328,0.492 l 0.492,1.078 -0.14,0.262 -1.169,0.192 c -0.237,0.038 -0.366,0.348 -0.226,0.543 l 0.691,0.961 -0.086,0.285 -1.11,0.414 c -0.224,0.084 -0.288,0.418 -0.113,0.582 l 0.868,0.805 -0.032,0.297 -1.007,0.625 c -0.205,0.126 -0.205,0.464 0,0.59 l 1.007,0.62 0.032,0.298 -0.868,0.808 c -0.175,0.164 -0.111,0.494 0.114,0.578 l 1.109,0.414 0.086,0.285 -0.691,0.961 c -0.14,0.196 -0.01,0.509 0.226,0.547 l 1.168,0.188 0.14,0.262 -0.491,1.078 c -0.1,0.22 0.089,0.502 0.328,0.492 l 1.187,-0.042 0.188,0.227 -0.274,1.156 c -0.055,0.234 0.184,0.473 0.418,0.418 l 1.156,-0.273 0.227,0.188 -0.043,1.183 c -0.01,0.24 0.273,0.428 0.492,0.328 l 1.078,-0.488 0.262,0.136 0.191,1.168 c 0.039,0.238 0.348,0.367 0.543,0.227 l 0.961,-0.692 0.285,0.086 0.414,1.11 c 0.084,0.224 0.415,0.29 0.579,0.113 l 0.808,-0.867 0.297,0.032 0.625,1.008 c 0.126,0.203 0.464,0.204 0.59,0 l 0.621,-1.008 0.297,-0.032 0.808,0.867 c 0.164,0.176 0.495,0.11 0.579,-0.114 l 0.414,-1.109 0.285,-0.086 0.96,0.692 c 0.196,0.14 0.505,0.02 0.544,-0.227 l 0.191,-1.168 0.262,-0.136 1.078,0.488 c 0.219,0.1 0.5,-0.086 0.492,-0.328 l -0.043,-1.183 0.227,-0.188 1.156,0.273 c 0.234,0.054 0.473,-0.184 0.418,-0.418 l -0.274,-1.156 0.188,-0.227 1.187,0.042 c 0.24,0.02 0.429,-0.273 0.328,-0.492 l -0.492,-1.078 0.14,-0.262 1.169,-0.188 c 0.238,-0.038 0.367,-0.351 0.226,-0.547 l -0.691,-0.96 0.086,-0.286 1.11,-0.414 c 0.225,-0.084 0.289,-0.414 0.113,-0.578 L 42.808,43.218 42.84,42.921 43.847,42.3 c 0.205,-0.126 0.205,-0.464 0,-0.59 l -1.007,-0.625 -0.032,-0.297 0.868,-0.805 c 0.176,-0.164 0.112,-0.498 -0.114,-0.582 l -1.109,-0.414 -0.086,-0.285 0.691,-0.961 c 0.141,-0.194 0.012,-0.504 -0.226,-0.543 l -1.168,-0.192 -0.14,-0.262 0.491,-1.078 c 0.101,-0.22 -0.086,-0.501 -0.328,-0.492 l -1.187,0.042 -0.188,-0.227 0.274,-1.156 c 0.055,-0.234 -0.184,-0.473 -0.418,-0.418 l -1.152,0.274 -0.23,-0.188 0.042,-1.188 c 0.01,-0.24 -0.273,-0.428 -0.492,-0.328 l -1.078,0.492 -0.262,-0.14 -0.187,-1.168 C 36.77,30.932 36.457,30.802 36.262,30.943 l -0.961,0.691 -0.285,-0.086 -0.414,-1.105 c -0.084,-0.226 -0.415,-0.292 -0.578,-0.118 l -0.81,0.867 -0.292,-0.028 -0.625,-1.012 A 0.344,0.344 0 0 0 32,30 Z m 0,3.996 a 8,8 0 0 1 8,8 8,8 0 0 1 -8,8 8,8 0 0 1 -8,-8 8,8 0 0 1 8,-8 z"
         id="path5-2"
         style="fill:#000000;fill-opacity:1" />
      <path
         d="m 24,36 v 2 h 2 v 8 h -2 v 2 h 8 v -2 h -2 v -4 c 2,0 2,6 4,6 h 4 c 2,0 2,-6 2,-6 h -2 c 0,0 0,4 -2,4 -0.943,0 -2,-4 -2,-4 h 1 c 1.662,0 3,-1.338 3,-3 0,-1.662 -1.338,-3 -3,-3 h -3 z m 6,2 h 4 c 0.554,0 1,0.446 1,1 0,0.554 -0.446,1 -1,1 h -4 z"
         id="path6-6"
         style="fill:#000000;fill-opacity:1" />
    </g>
    <g
       fill="#1976d2"
       id="g6"
       transform="matrix(1.6363636,0,0,1.6363636,8.7132673,-3.9952222)"
       style="fill:#4d4d4d;fill-opacity:1">
      <path
         d="m 32,30 c -0.116,0 -0.23,0.05 -0.293,0.152 l -0.625,1.012 -0.293,0.028 -0.809,-0.867 c -0.163,-0.176 -0.498,-0.108 -0.582,0.118 l -0.414,1.105 -0.285,0.086 -0.96,-0.691 c -0.196,-0.14 -0.505,-0.02 -0.544,0.226 l -0.191,1.168 -0.262,0.14 -1.078,-0.492 c -0.219,-0.1 -0.501,0.088 -0.492,0.328 l 0.043,1.188 -0.227,0.188 -1.156,-0.274 c -0.234,-0.054 -0.473,0.184 -0.418,0.418 l 0.274,1.156 -0.188,0.227 -1.187,-0.042 c -0.24,-0.02 -0.428,0.273 -0.328,0.492 l 0.492,1.078 -0.14,0.262 -1.169,0.192 c -0.237,0.038 -0.366,0.348 -0.226,0.543 l 0.691,0.961 -0.086,0.285 -1.11,0.414 c -0.224,0.084 -0.288,0.418 -0.113,0.582 l 0.868,0.805 -0.032,0.297 -1.007,0.625 c -0.205,0.126 -0.205,0.464 0,0.59 l 1.007,0.62 0.032,0.298 -0.868,0.808 c -0.175,0.164 -0.111,0.494 0.114,0.578 l 1.109,0.414 0.086,0.285 -0.691,0.961 c -0.14,0.196 -0.01,0.509 0.226,0.547 l 1.168,0.188 0.14,0.262 -0.491,1.078 c -0.1,0.22 0.089,0.502 0.328,0.492 l 1.187,-0.042 0.188,0.227 -0.274,1.156 c -0.055,0.234 0.184,0.473 0.418,0.418 l 1.156,-0.273 0.227,0.188 -0.043,1.183 c -0.01,0.24 0.273,0.428 0.492,0.328 l 1.078,-0.488 0.262,0.136 0.191,1.168 c 0.039,0.238 0.348,0.367 0.543,0.227 l 0.961,-0.692 0.285,0.086 0.414,1.11 c 0.084,0.224 0.415,0.29 0.579,0.113 l 0.808,-0.867 0.297,0.032 0.625,1.008 c 0.126,0.203 0.464,0.204 0.59,0 l 0.621,-1.008 0.297,-0.032 0.808,0.867 c 0.164,0.176 0.495,0.11 0.579,-0.114 l 0.414,-1.109 0.285,-0.086 0.96,0.692 c 0.196,0.14 0.505,0.02 0.544,-0.227 l 0.191,-1.168 0.262,-0.136 1.078,0.488 c 0.219,0.1 0.5,-0.086 0.492,-0.328 l -0.043,-1.183 0.227,-0.188 1.156,0.273 c 0.234,0.054 0.473,-0.184 0.418,-0.418 l -0.274,-1.156 0.188,-0.227 1.187,0.042 c 0.24,0.02 0.429,-0.273 0.328,-0.492 l -0.492,-1.078 0.14,-0.262 1.169,-0.188 c 0.238,-0.038 0.367,-0.351 0.226,-0.547 l -0.691,-0.96 0.086,-0.286 1.11,-0.414 c 0.225,-0.084 0.289,-0.414 0.113,-0.578 L 42.808,43.218 42.84,42.921 43.847,42.3 c 0.205,-0.126 0.205,-0.464 0,-0.59 l -1.007,-0.625 -0.032,-0.297 0.868,-0.805 c 0.176,-0.164 0.112,-0.498 -0.114,-0.582 l -1.109,-0.414 -0.086,-0.285 0.691,-0.961 c 0.141,-0.194 0.012,-0.504 -0.226,-0.543 l -1.168,-0.192 -0.14,-0.262 0.491,-1.078 c 0.101,-0.22 -0.086,-0.501 -0.328,-0.492 l -1.187,0.042 -0.188,-0.227 0.274,-1.156 c 0.055,-0.234 -0.184,-0.473 -0.418,-0.418 l -1.152,0.274 -0.23,-0.188 0.042,-1.188 c 0.01,-0.24 -0.273,-0.428 -0.492,-0.328 l -1.078,0.492 -0.262,-0.14 -0.187,-1.168 C 36.77,30.932 36.457,30.802 36.262,30.943 l -0.961,0.691 -0.285,-0.086 -0.414,-1.105 c -0.084,-0.226 -0.415,-0.292 -0.578,-0.118 l -0.81,0.867 -0.292,-0.028 -0.625,-1.012 A 0.344,0.344 0 0 0 32,30 Z m 0,3.996 a 8,8 0 0 1 8,8 8,8 0 0 1 -8,8 8,8 0 0 1 -8,-8 8,8 0 0 1 8,-8 z"
         id="path5"
         style="fill:#4d4d4d;fill-opacity:1" />
      <path
         d="m 24,36 v 2 h 2 v 8 h -2 v 2 h 8 v -2 h -2 v -4 c 2,0 2,6 4,6 h 4 c 2,0 2,-6 2,-6 h -2 c 0,0 0,4 -2,4 -0.943,0 -2,-4 -2,-4 h 1 c 1.662,0 3,-1.338 3,-3 0,-1.662 -1.338,-3 -3,-3 h -3 z m 6,2 h 4 c 0.554,0 1,0.446 1,1 0,0.554 -0.446,1 -1,1 h -4 z"
         id="path6"
         style="fill:#4d4d4d;fill-opacity:1" />
    </g>
  </g>
</svg>
