<?xml version="1.0" encoding="UTF-8" standalone="no"?>
<svg
   width="64"
   height="64"
   version="1.1"
   id="svg73"
   sodipodi:docname="abcd.svg"
   inkscape:version="1.4.2 (ebf0e940d0, 2025-05-08)"
   xmlns:inkscape="http://www.inkscape.org/namespaces/inkscape"
   xmlns:sodipodi="http://sodipodi.sourceforge.net/DTD/sodipodi-0.dtd"
   xmlns:xlink="http://www.w3.org/1999/xlink"
   xmlns="http://www.w3.org/2000/svg"
   xmlns:svg="http://www.w3.org/2000/svg"
   xmlns:rdf="http://www.w3.org/1999/02/22-rdf-syntax-ns#"
   xmlns:cc="http://creativecommons.org/ns#"
   xmlns:dc="http://purl.org/dc/elements/1.1/">
  <metadata
     id="metadata77">
    <rdf:RDF>
      <cc:Work
         rdf:about="">
        <dc:format>image/svg+xml</dc:format>
        <dc:type
           rdf:resource="http://purl.org/dc/dcmitype/StillImage" />
      </cc:Work>
    </rdf:RDF>
  </metadata>
  <sodipodi:namedview
     pagecolor="#f5f7fa"
     bordercolor="#666666"
     borderopacity="1"
     objecttolerance="10"
     gridtolerance="10"
     guidetolerance="10"
     inkscape:pageopacity="0"
     inkscape:pageshadow="2"
     inkscape:window-width="1345"
     inkscape:window-height="785"
     id="namedview75"
     showgrid="false"
     inkscape:zoom="6.2890624"
     inkscape:cx="31.880746"
     inkscape:cy="29.734162"
     inkscape:window-x="24"
     inkscape:window-y="21"
     inkscape:window-maximized="0"
     inkscape:current-layer="svg73"
     inkscape:document-rotation="0"
     inkscape:pagecheckerboard="0"
     inkscape:showpageshadow="2"
     inkscape:deskcolor="#d1d1d1" />
  <defs
     id="defs29">
    <linearGradient
       id="linearGradient4"
       inkscape:collect="always">
      <stop
         style="stop-color:#ac905e;stop-opacity:1;"
         offset="0"
         id="stop4" />
      <stop
         style="stop-color:#c1aa81;stop-opacity:1;"
         offset="0.5"
         id="stop1" />
    </linearGradient>
    <linearGradient
       id="linearGradient2"
       inkscape:collect="always">
      <stop
         style="stop-color:#f4f1ec;stop-opacity:1;"
         offset="0"
         id="stop2" />
      <stop
         style="stop-color:#e9e3d8;stop-opacity:1;"
         offset="1"
         id="stop3" />
    </linearGradient>
    <linearGradient
       inkscape:collect="always"
       xlink:href="#linearGradient2"
       id="linearGradient8"
       x1="31.721739"
       y1="5.2278585"
       x2="31.88887"
       y2="59.145416"
       gradientUnits="userSpaceOnUse"
       gradientTransform="matrix(0.8505,0,0,0.8505,4.7765033,4.7794869)" />
    <filter
       style="color-interpolation-filters:sRGB;"
       inkscape:label="Blur"
       id="filter9"
       x="-0.047762285"
       y="-0.047489063"
       width="1.0955246"
       height="1.0949781">
      <feGaussianBlur
         stdDeviation="1 1"
         result="blur"
         id="feGaussianBlur9" />
    </filter>
    <linearGradient
       inkscape:collect="always"
       xlink:href="#linearGradient4"
       id="linearGradient7"
       x1="26.723248"
       y1="58.711765"
       x2="25.756926"
       y2="5.950614"
       gradientUnits="userSpaceOnUse" />
    <filter
       style="color-interpolation-filters:sRGB;"
       inkscape:label="Out of Focus"
       id="filter40"
       x="-0.24226652"
       y="-0.2858297"
       width="1.484533"
       height="1.5716594">
      <feFlood
         flood-opacity="1"
         flood-color="rgb(255,255,255)"
         result="flood"
         id="feFlood38" />
      <feColorMatrix
         in="SourceGraphic"
         values="1 0 0 0 0 0 1 0 0 0 0 0 1 0 0 -0.2125 -0.7154 -0.0721 1 0 "
         result="colormatrix1"
         id="feColorMatrix38" />
      <feGaussianBlur
         in="colormatrix1"
         stdDeviation="3 3"
         result="blur"
         id="feGaussianBlur38" />
      <feColorMatrix
         in="blur"
         values="1 0 0 0 0 0 1 0 0 0 0 0 1 0 0 0 0 0 6 -2 "
         result="colormatrix2"
         id="feColorMatrix39" />
      <feBlend
         in="colormatrix2"
         in2="flood"
         mode="normal"
         result="blend"
         id="feBlend39" />
      <feComposite
         in="blend"
         in2="blend"
         operator="arithmetic"
         k2="0.2"
         result="composite1"
         id="feComposite39" />
      <feComposite
         in2="SourceGraphic"
         operator="in"
         id="feComposite40" />
    </filter>
  </defs>
  <g
     id="g877"
     transform="matrix(1.1,0,0,1.1,-3.1845928,-3.2065454)">
    <ellipse
       style="opacity:0.5;fill:#000000;stroke:none;stroke-width:3.89319;stroke-dasharray:none;stroke-opacity:1;filter:url(#filter9)"
       id="path2-5"
       cx="31.949858"
       cy="31.969812"
       rx="25.124426"
       ry="25.268976"
       transform="matrix(1.05,0,0,1.05,-1.5974929,-1.5984906)" />
    <path
       style="fill:#f5f7fa;stroke-width:0.204426;fill-opacity:1"
       d=""
       id="path3" />
    <circle
       style="opacity:1;fill:url(#linearGradient8);stroke:url(#linearGradient7);stroke-width:3.81818;stroke-dasharray:none;stroke-opacity:1"
       id="path2"
       cx="31.949856"
       cy="31.969812"
       r="24.711082" />
    <ellipse
       style="opacity:0.3;fill:none;stroke:#000000;stroke-width:0.974376;stroke-dasharray:none;stroke-opacity:1"
       id="path2-9"
       cx="31.949856"
       cy="31.969812"
       rx="23.129124"
       ry="23.129126" />
  </g>
  <path
     style="fill:#000000;fill-opacity:1;stroke:none;stroke-width:0.477657;stroke-dasharray:none;stroke-opacity:0.6;opacity:0.2"
     d="M 31.476245,49.42763 C 31.307131,49.342402 31.04546,49.178563 30.894751,49.063566 30.207945,48.539534 25.868107,44.765754 25.483048,44.357735 24.698554,43.52645 24.955068,44.315022 21.466486,32.010348 19.777008,26.05135 18.360162,21.029273 18.317937,20.850182 c -0.107658,-0.456596 -0.0994,-0.834733 0.02344,-1.075573 0.19969,-0.391421 0.557471,-0.612922 1.686568,-1.044143 l 0.819759,-0.313078 h 11.153509 11.153501 l 0.796773,0.304495 c 1.246802,0.476475 1.571304,0.678557 1.740721,1.084032 0.103268,0.247226 0.08182,0.760719 -0.05299,1.264941 -0.06502,0.243231 -1.481008,5.241898 -3.146643,11.108142 -3.439837,12.114873 -3.19011,11.349408 -3.973186,12.178188 -0.387514,0.410129 -4.723374,4.181281 -5.407378,4.703115 -0.41082,0.313393 -0.855087,0.522312 -1.110806,0.522312 -0.137833,0 -0.330143,-0.05677 -0.524985,-0.154961 z m 1.176143,-3.22729 c 0.34295,-0.171871 0.623545,-0.333972 0.623545,-0.360053 0,-0.02594 -0.07069,-0.675637 -0.157074,-1.443367 L 32.961772,43.001046 32.5086,42.545771 c -0.249245,-0.25045 -0.477559,-0.455281 -0.507367,-0.455281 -0.02979,0 -0.258125,0.204875 -0.507369,0.455281 l -0.453173,0.455275 -0.157076,1.395874 c -0.0864,0.76773 -0.157083,1.41723 -0.157083,1.443339 0,0.04323 1.169212,0.663656 1.262498,0.669978 0.02191,0.0017 0.320416,-0.137932 0.663365,-0.309879 z m -3.356654,-4.240897 c 0.715396,-0.07099 1.3386,-0.129012 1.384897,-0.12907 0.04866,-3.9e-5 0.220442,-0.206775 0.407358,-0.490181 l 0.323184,-0.490135 -0.317125,-0.471618 c -0.205807,-0.306102 -0.357924,-0.480185 -0.433369,-0.495987 -0.147998,-0.03116 -2.789836,-0.289455 -2.958837,-0.289455 -0.109824,0 -0.167281,0.08244 -0.435609,0.625118 l -0.309093,0.625123 0.323874,0.650192 0.323868,0.650197 0.195064,-0.02803 c 0.107283,-0.01508 0.78039,-0.08566 1.495786,-0.156588 z m 7.426022,-0.466535 0.323572,-0.649579 -0.3091,-0.625123 c -0.268329,-0.54268 -0.325773,-0.625116 -0.435605,-0.625116 -0.169013,0 -2.810845,0.258408 -2.958839,0.289424 -0.07545,0.01566 -0.227558,0.189926 -0.433373,0.49598 l -0.317118,0.471625 0.323179,0.490116 c 0.268258,0.40682 0.346334,0.490693 0.459388,0.493485 0.0749,0.0019 0.756647,0.06928 1.514968,0.149869 0.758318,0.08057 1.408145,0.149293 1.444059,0.152759 0.03589,0.0036 0.210895,-0.286078 0.388869,-0.643335 z m -4.211992,-2.356268 0.454337,-0.456455 0.784735,-7.691617 0.784732,-7.691628 -1.261347,-1.893474 c -0.69374,-1.04141 -1.265686,-1.893473 -1.27099,-1.893473 -0.0054,0 -0.577251,0.852063 -1.270991,1.893473 l -1.261346,1.893474 0.784732,7.691628 0.784735,7.691617 0.454334,0.456455 c 0.249887,0.251053 0.478728,0.45645 0.508536,0.45645 0.0298,0 0.258648,-0.205389 0.508533,-0.45645 z"
     id="path6-7" />
  <path
     style="fill:#4d4d4d;fill-opacity:1;stroke:none;stroke-width:0.477657;stroke-dasharray:none;stroke-opacity:0.6"
     d="M 31.476245,47.42763 C 31.307131,47.342402 31.04546,47.178563 30.894751,47.063566 30.207945,46.539534 25.868107,42.765754 25.483048,42.357735 24.698554,41.52645 24.955068,42.315022 21.466486,30.010348 19.777008,24.05135 18.360162,19.029273 18.317937,18.850182 c -0.107658,-0.456596 -0.0994,-0.834733 0.02344,-1.075573 0.19969,-0.391421 0.557471,-0.612922 1.686568,-1.044143 l 0.819759,-0.313078 h 11.153509 11.153501 l 0.796773,0.304495 c 1.246802,0.476475 1.571304,0.678557 1.740721,1.084032 0.103268,0.247226 0.08182,0.760719 -0.05299,1.264941 -0.06502,0.243231 -1.481008,5.241898 -3.146643,11.108142 -3.439837,12.114873 -3.19011,11.349408 -3.973186,12.178188 -0.387514,0.410129 -4.723374,4.181281 -5.407378,4.703115 -0.41082,0.313393 -0.855087,0.522312 -1.110806,0.522312 -0.137833,0 -0.330143,-0.05677 -0.524985,-0.154961 z m 1.176143,-3.22729 c 0.34295,-0.171871 0.623545,-0.333972 0.623545,-0.360053 0,-0.02594 -0.07069,-0.675637 -0.157074,-1.443367 L 32.961772,41.001046 32.5086,40.545771 c -0.249245,-0.25045 -0.477559,-0.455281 -0.507367,-0.455281 -0.02979,0 -0.258125,0.204875 -0.507369,0.455281 l -0.453173,0.455275 -0.157076,1.395874 c -0.0864,0.76773 -0.157083,1.41723 -0.157083,1.443339 0,0.04323 1.169212,0.663656 1.262498,0.669978 0.02191,0.0017 0.320416,-0.137932 0.663365,-0.309879 z m -3.356654,-4.240897 c 0.715396,-0.07099 1.3386,-0.129012 1.384897,-0.12907 0.04866,-3.9e-5 0.220442,-0.206775 0.407358,-0.490181 l 0.323184,-0.490135 -0.317125,-0.471618 c -0.205807,-0.306102 -0.357924,-0.480185 -0.433369,-0.495987 -0.147998,-0.03116 -2.789836,-0.289455 -2.958837,-0.289455 -0.109824,0 -0.167281,0.08244 -0.435609,0.625118 l -0.309093,0.625123 0.323874,0.650192 0.323868,0.650197 0.195064,-0.02803 c 0.107283,-0.01508 0.78039,-0.08566 1.495786,-0.156588 z m 7.426022,-0.466535 0.323572,-0.649579 -0.3091,-0.625123 c -0.268329,-0.54268 -0.325773,-0.625116 -0.435605,-0.625116 -0.169013,0 -2.810845,0.258408 -2.958839,0.289424 -0.07545,0.01566 -0.227558,0.189926 -0.433373,0.49598 l -0.317118,0.471625 0.323179,0.490116 c 0.268258,0.40682 0.346334,0.490693 0.459388,0.493485 0.0749,0.0019 0.756647,0.06928 1.514968,0.149869 0.758318,0.08057 1.408145,0.149293 1.444059,0.152759 0.03589,0.0036 0.210895,-0.286078 0.388869,-0.643335 z m -4.211992,-2.356268 0.454337,-0.456455 0.784735,-7.691617 0.784732,-7.691628 -1.261347,-1.893474 c -0.69374,-1.04141 -1.265686,-1.893473 -1.27099,-1.893473 -0.0054,0 -0.577251,0.852063 -1.270991,1.893473 l -1.261346,1.893474 0.784732,7.691628 0.784735,7.691617 0.454334,0.456455 c 0.249887,0.251053 0.478728,0.45645 0.508536,0.45645 0.0298,0 0.258648,-0.205389 0.508533,-0.45645 z"
     id="path6" />
</svg>
