<?xml version="1.0" encoding="UTF-8" standalone="no"?>
<svg
   width="64"
   height="64"
   version="1.1"
   id="svg73"
   sodipodi:docname="abcd.svg"
   inkscape:version="1.4.2 (ebf0e940d0, 2025-05-08)"
   xmlns:inkscape="http://www.inkscape.org/namespaces/inkscape"
   xmlns:sodipodi="http://sodipodi.sourceforge.net/DTD/sodipodi-0.dtd"
   xmlns:xlink="http://www.w3.org/1999/xlink"
   xmlns="http://www.w3.org/2000/svg"
   xmlns:svg="http://www.w3.org/2000/svg"
   xmlns:rdf="http://www.w3.org/1999/02/22-rdf-syntax-ns#"
   xmlns:cc="http://creativecommons.org/ns#"
   xmlns:dc="http://purl.org/dc/elements/1.1/">
  <metadata
     id="metadata77">
    <rdf:RDF>
      <cc:Work
         rdf:about="">
        <dc:format>image/svg+xml</dc:format>
        <dc:type
           rdf:resource="http://purl.org/dc/dcmitype/StillImage" />
      </cc:Work>
    </rdf:RDF>
  </metadata>
  <sodipodi:namedview
     pagecolor="#f5f7fa"
     bordercolor="#666666"
     borderopacity="1"
     objecttolerance="10"
     gridtolerance="10"
     guidetolerance="10"
     inkscape:pageopacity="0"
     inkscape:pageshadow="2"
     inkscape:window-width="1462"
     inkscape:window-height="840"
     id="namedview75"
     showgrid="false"
     inkscape:zoom="6.2890624"
     inkscape:cx="53.585094"
     inkscape:cy="29.654659"
     inkscape:window-x="24"
     inkscape:window-y="21"
     inkscape:window-maximized="0"
     inkscape:current-layer="svg73"
     inkscape:document-rotation="0"
     inkscape:pagecheckerboard="0"
     inkscape:showpageshadow="2"
     inkscape:deskcolor="#d1d1d1" />
  <defs
     id="defs29">
    <linearGradient
       id="linearGradient4"
       inkscape:collect="always">
      <stop
         style="stop-color:#ac905e;stop-opacity:1;"
         offset="0"
         id="stop4" />
      <stop
         style="stop-color:#c1aa81;stop-opacity:1;"
         offset="0.5"
         id="stop1" />
    </linearGradient>
    <linearGradient
       id="linearGradient2"
       inkscape:collect="always">
      <stop
         style="stop-color:#f4f1ec;stop-opacity:1;"
         offset="0"
         id="stop2" />
      <stop
         style="stop-color:#e9e3d8;stop-opacity:1;"
         offset="1"
         id="stop3" />
    </linearGradient>
    <linearGradient
       inkscape:collect="always"
       xlink:href="#linearGradient2"
       id="linearGradient8"
       x1="31.721739"
       y1="5.2278585"
       x2="31.88887"
       y2="59.145416"
       gradientUnits="userSpaceOnUse"
       gradientTransform="matrix(0.8505,0,0,0.8505,4.7765033,4.7794869)" />
    <filter
       style="color-interpolation-filters:sRGB;"
       inkscape:label="Blur"
       id="filter9"
       x="-0.047762285"
       y="-0.047489063"
       width="1.0955246"
       height="1.0949781">
      <feGaussianBlur
         stdDeviation="1 1"
         result="blur"
         id="feGaussianBlur9" />
    </filter>
    <linearGradient
       inkscape:collect="always"
       xlink:href="#linearGradient4"
       id="linearGradient7"
       x1="26.723248"
       y1="58.711765"
       x2="25.756926"
       y2="5.950614"
       gradientUnits="userSpaceOnUse" />
    <filter
       style="color-interpolation-filters:sRGB;"
       inkscape:label="Out of Focus"
       id="filter40"
       x="-0.24226652"
       y="-0.2858297"
       width="1.484533"
       height="1.5716594">
      <feFlood
         flood-opacity="1"
         flood-color="rgb(255,255,255)"
         result="flood"
         id="feFlood38" />
      <feColorMatrix
         in="SourceGraphic"
         values="1 0 0 0 0 0 1 0 0 0 0 0 1 0 0 -0.2125 -0.7154 -0.0721 1 0 "
         result="colormatrix1"
         id="feColorMatrix38" />
      <feGaussianBlur
         in="colormatrix1"
         stdDeviation="3 3"
         result="blur"
         id="feGaussianBlur38" />
      <feColorMatrix
         in="blur"
         values="1 0 0 0 0 0 1 0 0 0 0 0 1 0 0 0 0 0 6 -2 "
         result="colormatrix2"
         id="feColorMatrix39" />
      <feBlend
         in="colormatrix2"
         in2="flood"
         mode="normal"
         result="blend"
         id="feBlend39" />
      <feComposite
         in="blend"
         in2="blend"
         operator="arithmetic"
         k2="0.2"
         result="composite1"
         id="feComposite39" />
      <feComposite
         in2="SourceGraphic"
         operator="in"
         id="feComposite40" />
    </filter>
  </defs>
  <g
     id="g877"
     transform="matrix(1.1,0,0,1.1,-3.1845928,-3.2065454)">
    <ellipse
       style="opacity:0.5;fill:#000000;stroke:none;stroke-width:3.89319;stroke-dasharray:none;stroke-opacity:1;filter:url(#filter9)"
       id="path2-5"
       cx="31.949858"
       cy="31.969812"
       rx="25.124426"
       ry="25.268976"
       transform="matrix(1.05,0,0,1.05,-1.5974929,-1.5984906)" />
    <path
       style="fill:#f5f7fa;stroke-width:0.204426;fill-opacity:1"
       d=""
       id="path3" />
    <circle
       style="opacity:1;fill:url(#linearGradient8);stroke:url(#linearGradient7);stroke-width:3.81818;stroke-dasharray:none;stroke-opacity:1"
       id="path2"
       cx="31.949856"
       cy="31.969812"
       r="24.711082" />
    <ellipse
       style="opacity:0.3;fill:none;stroke:#000000;stroke-width:0.974376;stroke-dasharray:none;stroke-opacity:1"
       id="path2-9"
       cx="31.949856"
       cy="31.969812"
       rx="23.129124"
       ry="23.129126" />
  </g>
  <path
     style="fill:#000000;fill-opacity:1;stroke:none;stroke-width:0.458466;stroke-dasharray:none;stroke-opacity:0.6;opacity:0.2"
     d="m 22.979441,48.834055 c 0.06059,-0.442181 0.329945,-1.594959 0.551087,-2.358696 0.549143,-1.896498 1.437417,-3.653177 2.330602,-4.609063 0.208211,-0.222856 0.690924,-0.641161 1.072694,-0.929639 1.08938,-0.823152 1.722668,-1.365829 2.640048,-2.262301 2.823976,-2.759642 5.157213,-6.309849 6.695174,-10.187274 0.341436,-0.860799 0.777481,-2.147795 0.740295,-2.184982 -0.01389,-0.01454 -0.05924,0.0752 -0.09937,0.199291 -0.258079,0.797976 -1.028665,2.434445 -1.679311,3.566341 -2.228554,3.876912 -5.148469,7.102422 -9.378053,10.359558 -0.913141,0.703202 -1.514361,1.350283 -2.269261,2.442379 -0.224392,0.324627 -0.416296,0.600674 -0.426451,0.613444 -0.07869,0.09891 -0.636952,-0.901439 -0.963533,-1.726586 -0.804241,-2.031978 -1.141547,-4.051711 -1.004151,-6.012643 0.33536,-4.786357 3.357145,-8.719664 8.952853,-11.653486 1.047642,-0.54928 2.136281,-1.035582 3.577157,-1.597941 1.394037,-0.544079 2.242474,-0.958092 3.094468,-1.510003 0.744339,-0.482176 1.771523,-1.25351 2.303658,-1.729849 0.221004,-0.197889 0.425477,-0.359794 0.454262,-0.359794 0.168437,0 1.459165,2.526975 1.908095,3.735798 0.628501,1.692354 1.067991,3.497601 1.2586,5.169897 0.216953,1.903021 0.07956,4.454461 -0.322935,5.998784 -0.611953,2.348042 -1.982175,4.774911 -3.696475,6.54704 -2.334009,2.412739 -5.153995,3.72573 -8.67045,4.036989 -0.764922,0.06769 -2.761912,0.04426 -3.459506,-0.04074 l -0.301154,-0.03663 -0.390313,0.77037 c -0.413744,0.816669 -0.752039,1.792948 -0.954041,2.753334 l -0.12277,0.583634 -0.709517,0.249213 c -0.390236,0.137132 -0.812934,0.293672 -0.939332,0.347964 l -0.229808,0.09871 z"
     id="path1-3" />
  <path
     style="fill:#4d4d4d;fill-opacity:1;stroke:none;stroke-width:0.458466;stroke-dasharray:none;stroke-opacity:0.6"
     d="m 22.979441,46.834055 c 0.06059,-0.442181 0.329945,-1.594959 0.551087,-2.358696 0.549143,-1.896498 1.437417,-3.653177 2.330602,-4.609063 0.208211,-0.222856 0.690924,-0.641161 1.072694,-0.929639 1.08938,-0.823152 1.722668,-1.365829 2.640048,-2.262301 2.823976,-2.759642 5.157213,-6.309849 6.695174,-10.187274 0.341436,-0.860799 0.777481,-2.147795 0.740295,-2.184982 -0.01389,-0.01454 -0.05924,0.0752 -0.09937,0.199291 -0.258079,0.797976 -1.028665,2.434445 -1.679311,3.566341 -2.228554,3.876912 -5.148469,7.102422 -9.378053,10.359558 -0.913141,0.703202 -1.514361,1.350283 -2.269261,2.442379 -0.224392,0.324627 -0.416296,0.600674 -0.426451,0.613444 -0.07869,0.09891 -0.636952,-0.901439 -0.963533,-1.726586 -0.804241,-2.031978 -1.141547,-4.051711 -1.004151,-6.012643 0.33536,-4.786357 3.357145,-8.719664 8.952853,-11.653486 1.047642,-0.54928 2.136281,-1.035582 3.577157,-1.597941 1.394037,-0.544079 2.242474,-0.958092 3.094468,-1.510003 0.744339,-0.482176 1.771523,-1.25351 2.303658,-1.729849 0.221004,-0.197889 0.425477,-0.359794 0.454262,-0.359794 0.168437,0 1.459165,2.526975 1.908095,3.735798 0.628501,1.692354 1.067991,3.497601 1.2586,5.169897 0.216953,1.903021 0.07956,4.454461 -0.322935,5.998784 -0.611953,2.348042 -1.982175,4.774911 -3.696475,6.54704 -2.334009,2.412739 -5.153995,3.72573 -8.67045,4.036989 -0.764922,0.06769 -2.761912,0.04426 -3.459506,-0.04074 l -0.301154,-0.03663 -0.390313,0.77037 c -0.413744,0.816669 -0.752039,1.792948 -0.954041,2.753334 l -0.12277,0.583634 -0.709517,0.249213 c -0.390236,0.137132 -0.812934,0.293672 -0.939332,0.347964 l -0.229808,0.09871 z"
     id="path1" />
</svg>
