<?xml version="1.0" encoding="UTF-8" standalone="no"?>
<svg
   width="64"
   height="64"
   version="1.1"
   id="svg73"
   sodipodi:docname="abcd.svg"
   inkscape:version="1.4.2 (ebf0e940d0, 2025-05-08)"
   xmlns:inkscape="http://www.inkscape.org/namespaces/inkscape"
   xmlns:sodipodi="http://sodipodi.sourceforge.net/DTD/sodipodi-0.dtd"
   xmlns:xlink="http://www.w3.org/1999/xlink"
   xmlns="http://www.w3.org/2000/svg"
   xmlns:svg="http://www.w3.org/2000/svg"
   xmlns:rdf="http://www.w3.org/1999/02/22-rdf-syntax-ns#"
   xmlns:cc="http://creativecommons.org/ns#"
   xmlns:dc="http://purl.org/dc/elements/1.1/">
  <metadata
     id="metadata77">
    <rdf:RDF>
      <cc:Work
         rdf:about="">
        <dc:format>image/svg+xml</dc:format>
        <dc:type
           rdf:resource="http://purl.org/dc/dcmitype/StillImage" />
      </cc:Work>
    </rdf:RDF>
  </metadata>
  <sodipodi:namedview
     pagecolor="#f5f7fa"
     bordercolor="#666666"
     borderopacity="1"
     objecttolerance="10"
     gridtolerance="10"
     guidetolerance="10"
     inkscape:pageopacity="0"
     inkscape:pageshadow="2"
     inkscape:window-width="1462"
     inkscape:window-height="840"
     id="namedview75"
     showgrid="false"
     inkscape:zoom="6.2890624"
     inkscape:cx="53.585094"
     inkscape:cy="29.654659"
     inkscape:window-x="24"
     inkscape:window-y="21"
     inkscape:window-maximized="0"
     inkscape:current-layer="svg73"
     inkscape:document-rotation="0"
     inkscape:pagecheckerboard="0"
     inkscape:showpageshadow="2"
     inkscape:deskcolor="#d1d1d1" />
  <defs
     id="defs29">
    <linearGradient
       id="linearGradient4"
       inkscape:collect="always">
      <stop
         style="stop-color:#ac905e;stop-opacity:1;"
         offset="0"
         id="stop4" />
      <stop
         style="stop-color:#c1aa81;stop-opacity:1;"
         offset="0.5"
         id="stop1" />
    </linearGradient>
    <linearGradient
       id="linearGradient2"
       inkscape:collect="always">
      <stop
         style="stop-color:#f4f1ec;stop-opacity:1;"
         offset="0"
         id="stop2" />
      <stop
         style="stop-color:#e9e3d8;stop-opacity:1;"
         offset="1"
         id="stop3" />
    </linearGradient>
    <linearGradient
       inkscape:collect="always"
       xlink:href="#linearGradient2"
       id="linearGradient8"
       x1="31.721739"
       y1="5.2278585"
       x2="31.88887"
       y2="59.145416"
       gradientUnits="userSpaceOnUse"
       gradientTransform="matrix(0.8505,0,0,0.8505,4.7765033,4.7794869)" />
    <filter
       style="color-interpolation-filters:sRGB;"
       inkscape:label="Blur"
       id="filter9"
       x="-0.047762285"
       y="-0.047489063"
       width="1.0955246"
       height="1.0949781">
      <feGaussianBlur
         stdDeviation="1 1"
         result="blur"
         id="feGaussianBlur9" />
    </filter>
    <linearGradient
       inkscape:collect="always"
       xlink:href="#linearGradient4"
       id="linearGradient7"
       x1="26.723248"
       y1="58.711765"
       x2="25.756926"
       y2="5.950614"
       gradientUnits="userSpaceOnUse" />
    <filter
       style="color-interpolation-filters:sRGB;"
       inkscape:label="Out of Focus"
       id="filter40"
       x="-0.24226652"
       y="-0.2858297"
       width="1.484533"
       height="1.5716594">
      <feFlood
         flood-opacity="1"
         flood-color="rgb(255,255,255)"
         result="flood"
         id="feFlood38" />
      <feColorMatrix
         in="SourceGraphic"
         values="1 0 0 0 0 0 1 0 0 0 0 0 1 0 0 -0.2125 -0.7154 -0.0721 1 0 "
         result="colormatrix1"
         id="feColorMatrix38" />
      <feGaussianBlur
         in="colormatrix1"
         stdDeviation="3 3"
         result="blur"
         id="feGaussianBlur38" />
      <feColorMatrix
         in="blur"
         values="1 0 0 0 0 0 1 0 0 0 0 0 1 0 0 0 0 0 6 -2 "
         result="colormatrix2"
         id="feColorMatrix39" />
      <feBlend
         in="colormatrix2"
         in2="flood"
         mode="normal"
         result="blend"
         id="feBlend39" />
      <feComposite
         in="blend"
         in2="blend"
         operator="arithmetic"
         k2="0.2"
         result="composite1"
         id="feComposite39" />
      <feComposite
         in2="SourceGraphic"
         operator="in"
         id="feComposite40" />
    </filter>
  </defs>
  <g
     id="g877"
     transform="matrix(1.1,0,0,1.1,-3.1845928,-3.2065454)">
    <ellipse
       style="opacity:0.5;fill:#000000;stroke:none;stroke-width:3.89319;stroke-dasharray:none;stroke-opacity:1;filter:url(#filter9)"
       id="path2-5"
       cx="31.949858"
       cy="31.969812"
       rx="25.124426"
       ry="25.268976"
       transform="matrix(1.05,0,0,1.05,-1.5974929,-1.5984906)" />
    <path
       style="fill:#f5f7fa;stroke-width:0.204426;fill-opacity:1"
       d=""
       id="path3" />
    <circle
       style="opacity:1;fill:url(#linearGradient8);stroke:url(#linearGradient7);stroke-width:3.81818;stroke-dasharray:none;stroke-opacity:1"
       id="path2"
       cx="31.949856"
       cy="31.969812"
       r="24.711082" />
    <ellipse
       style="opacity:0.3;fill:none;stroke:#000000;stroke-width:0.974376;stroke-dasharray:none;stroke-opacity:1"
       id="path2-9"
       cx="31.949856"
       cy="31.969812"
       rx="23.129124"
       ry="23.129126" />
  </g>
  <path
     d="m 36.269938,25.230769 c -0.530439,-0.01958 -1.136235,0.191818 -2.071844,0.543162 -0.992369,0.372873 -2.012142,0.676261 -2.266596,0.676261 -0.256408,0 -1.040324,-0.242712 -1.746923,-0.542182 -1.758667,-0.748683 -2.46233,-0.848507 -3.180673,-0.451167 -0.319045,0.17616 -1.501277,1.283036 -2.630659,2.457438 -1.716586,1.785091 -2.221581,2.200046 -3.070085,2.538663 -1.334906,0.534356 -2.459394,0.663539 -3.38326,0.386576 -1.253673,-0.375809 -1.930912,0.328834 -1.391665,1.444517 0.514778,1.064788 2.568025,2.029759 5.291659,2.484836 3.780599,0.6332 6.284035,0.04502 8.941118,-2.09435 0.50989,-0.410063 1.076536,-0.745743 1.258568,-0.745743 0.181051,0 0.798594,0.379722 1.372093,0.840675 1.361329,1.096108 2.024867,1.444515 3.63967,1.919169 1.147973,0.338623 1.591321,0.376785 3.207098,0.275982 3.395982,-0.213354 5.669426,-0.929735 6.866343,-2.16775 0.403209,-0.416914 0.553924,-0.737916 0.553924,-1.170489 0,-0.869057 -0.468787,-1.086321 -1.666667,-0.779019 -0.726178,0.187907 -1.129392,0.190844 -1.861439,0.02642 -1.790958,-0.401255 -2.6013,-0.95518 -4.687821,-3.196332 -1.622624,-1.740073 -2.292039,-2.414375 -3.172841,-2.44667 z m -5.248602,10.692935 c -0.536308,0 -0.97867,0.442357 -0.97867,0.978669 0,0.06459 0.0069,0.128203 0.01958,0.190841 l 0.97867,4.893352 c 0.09103,0.456059 0.494229,0.785871 0.959097,0.785871 0.464864,0 0.868079,-0.329839 0.959094,-0.785871 l 0.978653,-4.893355 c 0.01273,-0.06263 0.01958,-0.126245 0.01958,-0.190841 0,-0.536313 -0.442359,-0.97867 -0.978672,-0.97867 z"
     fill="#ffffff"
     fill-opacity="0.89"
     fill-rule="nonzero"
     id="path3-3-9"
     style="fill:#000000;fill-opacity:1;stroke:none;stroke-width:0.504315;stroke-dasharray:none;stroke-opacity:0.6;opacity:0.2" />
  <path
     d="m 36.269938,23.230769 c -0.530439,-0.01958 -1.136235,0.191818 -2.071844,0.543162 -0.992369,0.372873 -2.012142,0.676261 -2.266596,0.676261 -0.256408,0 -1.040324,-0.242712 -1.746923,-0.542182 -1.758667,-0.748683 -2.46233,-0.848507 -3.180673,-0.451167 -0.319045,0.17616 -1.501277,1.283036 -2.630659,2.457438 -1.716586,1.785091 -2.221581,2.200046 -3.070085,2.538663 -1.334906,0.534356 -2.459394,0.663539 -3.38326,0.386576 -1.253673,-0.375809 -1.930912,0.328834 -1.391665,1.444517 0.514778,1.064788 2.568025,2.029759 5.291659,2.484836 3.780599,0.6332 6.284035,0.04502 8.941118,-2.09435 0.50989,-0.410063 1.076536,-0.745743 1.258568,-0.745743 0.181051,0 0.798594,0.379722 1.372093,0.840675 1.361329,1.096108 2.024867,1.444515 3.63967,1.919169 1.147973,0.338623 1.591321,0.376785 3.207098,0.275982 3.395982,-0.213354 5.669426,-0.929735 6.866343,-2.16775 0.403209,-0.416914 0.553924,-0.737916 0.553924,-1.170489 0,-0.869057 -0.468787,-1.086321 -1.666667,-0.779019 -0.726178,0.187907 -1.129392,0.190844 -1.861439,0.02642 -1.790958,-0.401255 -2.6013,-0.95518 -4.687821,-3.196332 -1.622624,-1.740073 -2.292039,-2.414375 -3.172841,-2.44667 z m -5.248602,10.692935 c -0.536308,0 -0.97867,0.442357 -0.97867,0.978669 0,0.06459 0.0069,0.128203 0.01958,0.190841 l 0.97867,4.893352 c 0.09103,0.456059 0.494229,0.785871 0.959097,0.785871 0.464864,0 0.868079,-0.329839 0.959094,-0.785871 l 0.978653,-4.893355 c 0.01273,-0.06263 0.01958,-0.126245 0.01958,-0.190841 0,-0.536313 -0.442359,-0.97867 -0.978672,-0.97867 z"
     fill="#ffffff"
     fill-opacity="0.89"
     fill-rule="nonzero"
     id="path3-3"
     style="fill:#4d4d4d;fill-opacity:1;stroke:none;stroke-width:0.504315;stroke-dasharray:none;stroke-opacity:0.6" />
</svg>
