<?xml version="1.0" encoding="UTF-8" standalone="no"?>
<svg
   width="64"
   height="64"
   version="1.1"
   id="svg73"
   sodipodi:docname="abcd.svg"
   inkscape:version="1.4.2 (ebf0e940d0, 2025-05-08)"
   xmlns:inkscape="http://www.inkscape.org/namespaces/inkscape"
   xmlns:sodipodi="http://sodipodi.sourceforge.net/DTD/sodipodi-0.dtd"
   xmlns:xlink="http://www.w3.org/1999/xlink"
   xmlns="http://www.w3.org/2000/svg"
   xmlns:svg="http://www.w3.org/2000/svg"
   xmlns:rdf="http://www.w3.org/1999/02/22-rdf-syntax-ns#"
   xmlns:cc="http://creativecommons.org/ns#"
   xmlns:dc="http://purl.org/dc/elements/1.1/">
  <metadata
     id="metadata77">
    <rdf:RDF>
      <cc:Work
         rdf:about="">
        <dc:format>image/svg+xml</dc:format>
        <dc:type
           rdf:resource="http://purl.org/dc/dcmitype/StillImage" />
      </cc:Work>
    </rdf:RDF>
  </metadata>
  <sodipodi:namedview
     pagecolor="#f5f7fa"
     bordercolor="#666666"
     borderopacity="1"
     objecttolerance="10"
     gridtolerance="10"
     guidetolerance="10"
     inkscape:pageopacity="0"
     inkscape:pageshadow="2"
     inkscape:window-width="1462"
     inkscape:window-height="840"
     id="namedview75"
     showgrid="false"
     inkscape:zoom="6.2890624"
     inkscape:cx="53.585094"
     inkscape:cy="29.654659"
     inkscape:window-x="24"
     inkscape:window-y="21"
     inkscape:window-maximized="0"
     inkscape:current-layer="svg73"
     inkscape:document-rotation="0"
     inkscape:pagecheckerboard="0"
     inkscape:showpageshadow="2"
     inkscape:deskcolor="#d1d1d1" />
  <defs
     id="defs29">
    <linearGradient
       id="linearGradient4"
       inkscape:collect="always">
      <stop
         style="stop-color:#ac905e;stop-opacity:1;"
         offset="0"
         id="stop4" />
      <stop
         style="stop-color:#c1aa81;stop-opacity:1;"
         offset="0.5"
         id="stop1" />
    </linearGradient>
    <linearGradient
       id="linearGradient2"
       inkscape:collect="always">
      <stop
         style="stop-color:#f4f1ec;stop-opacity:1;"
         offset="0"
         id="stop2" />
      <stop
         style="stop-color:#e9e3d8;stop-opacity:1;"
         offset="1"
         id="stop3" />
    </linearGradient>
    <linearGradient
       inkscape:collect="always"
       xlink:href="#linearGradient2"
       id="linearGradient8"
       x1="31.721739"
       y1="5.2278585"
       x2="31.88887"
       y2="59.145416"
       gradientUnits="userSpaceOnUse"
       gradientTransform="matrix(0.8505,0,0,0.8505,4.7765033,4.7794869)" />
    <filter
       style="color-interpolation-filters:sRGB;"
       inkscape:label="Blur"
       id="filter9"
       x="-0.047762285"
       y="-0.047489063"
       width="1.0955246"
       height="1.0949781">
      <feGaussianBlur
         stdDeviation="1 1"
         result="blur"
         id="feGaussianBlur9" />
    </filter>
    <linearGradient
       inkscape:collect="always"
       xlink:href="#linearGradient4"
       id="linearGradient7"
       x1="26.723248"
       y1="58.711765"
       x2="25.756926"
       y2="5.950614"
       gradientUnits="userSpaceOnUse" />
    <filter
       style="color-interpolation-filters:sRGB;"
       inkscape:label="Out of Focus"
       id="filter40"
       x="-0.24226652"
       y="-0.2858297"
       width="1.484533"
       height="1.5716594">
      <feFlood
         flood-opacity="1"
         flood-color="rgb(255,255,255)"
         result="flood"
         id="feFlood38" />
      <feColorMatrix
         in="SourceGraphic"
         values="1 0 0 0 0 0 1 0 0 0 0 0 1 0 0 -0.2125 -0.7154 -0.0721 1 0 "
         result="colormatrix1"
         id="feColorMatrix38" />
      <feGaussianBlur
         in="colormatrix1"
         stdDeviation="3 3"
         result="blur"
         id="feGaussianBlur38" />
      <feColorMatrix
         in="blur"
         values="1 0 0 0 0 0 1 0 0 0 0 0 1 0 0 0 0 0 6 -2 "
         result="colormatrix2"
         id="feColorMatrix39" />
      <feBlend
         in="colormatrix2"
         in2="flood"
         mode="normal"
         result="blend"
         id="feBlend39" />
      <feComposite
         in="blend"
         in2="blend"
         operator="arithmetic"
         k2="0.2"
         result="composite1"
         id="feComposite39" />
      <feComposite
         in2="SourceGraphic"
         operator="in"
         id="feComposite40" />
    </filter>
  </defs>
  <g
     id="g877"
     transform="matrix(1.1,0,0,1.1,-3.1845928,-3.2065454)">
    <ellipse
       style="opacity:0.5;fill:#000000;stroke:none;stroke-width:3.89319;stroke-dasharray:none;stroke-opacity:1;filter:url(#filter9)"
       id="path2-5"
       cx="31.949858"
       cy="31.969812"
       rx="25.124426"
       ry="25.268976"
       transform="matrix(1.05,0,0,1.05,-1.5974929,-1.5984906)" />
    <path
       style="fill:#f5f7fa;stroke-width:0.204426;fill-opacity:1"
       d=""
       id="path3" />
    <circle
       style="opacity:1;fill:url(#linearGradient8);stroke:url(#linearGradient7);stroke-width:3.81818;stroke-dasharray:none;stroke-opacity:1"
       id="path2"
       cx="31.949856"
       cy="31.969812"
       r="24.711082" />
    <ellipse
       style="opacity:0.3;fill:none;stroke:#000000;stroke-width:0.974376;stroke-dasharray:none;stroke-opacity:1"
       id="path2-9"
       cx="31.949856"
       cy="31.969812"
       rx="23.129124"
       ry="23.129126" />
  </g>
  <path
     id="path205-4"
     style="fill:#000000;fill-opacity:1;stroke:none;stroke-width:0.364499;stroke-dasharray:none;stroke-opacity:0.6;opacity:0.2"
     d="m 31.958195,22.269613 c -0.413674,0.01273 -0.814213,0.250247 -1.010918,0.683435 -0.07424,0.163545 -0.07744,0.396186 -0.07831,6.565272 v 6.395836 l 0.105358,0.210727 c 0.122018,0.244857 0.281929,0.393261 0.570955,0.528241 0.535967,0.250302 1.198718,0.01163 1.486477,-0.533937 l 0.111057,-0.210725 0.0114,-6.307558 c 0.01223,-7.091241 0.03465,-6.571806 -0.296155,-6.939741 -0.247918,-0.275742 -0.578115,-0.401455 -0.899861,-0.39155 z m 6.326068,4.335554 c -0.401551,0.01474 -0.779239,0.243102 -0.968204,0.62791 l -0.115329,0.233507 v 3.074045 3.074045 l 0.111059,0.209304 c 0.137154,0.260025 0.399509,0.491008 0.644995,0.566682 0.444264,0.136952 0.851033,0.03885 1.173232,-0.283342 0.364339,-0.364339 0.349336,-0.19927 0.336024,-3.673477 L 39.45466,27.425292 39.36495,27.25728 c -0.145214,-0.271435 -0.287605,-0.413414 -0.533939,-0.533933 -0.176763,-0.08647 -0.364228,-0.124881 -0.546748,-0.11818 z m -12.620813,0.0071 c -0.151939,1.9e-4 -0.330936,0.02835 -0.417182,0.06549 -0.215539,0.09283 -0.501758,0.37147 -0.613669,0.596584 l -0.09539,0.192217 -0.0114,2.901762 c -0.0077,1.902025 0.0016,2.982665 0.0299,3.135269 0.02366,0.128073 0.09424,0.315751 0.156622,0.417182 0.119403,0.194144 0.422811,0.425627 0.639299,0.488372 0.38578,0.111809 0.844439,-0.0085 1.119128,-0.293308 0.345603,-0.358282 0.319076,-0.08038 0.331753,-3.511159 0.01262,-3.414097 0.02223,-3.278491 -0.27907,-3.620796 -0.21501,-0.244263 -0.510153,-0.372059 -0.859993,-0.371619 z m 18.949729,3.169452 c -0.403695,0.0087 -0.781113,0.233908 -0.975321,0.623636 l -0.105369,0.212151 v 1.500713 1.500716 l 0.106788,0.213575 c 0.12183,0.244479 0.328577,0.43472 0.592312,0.545325 0.134673,0.05647 0.255956,0.07321 0.468439,0.06266 0.462743,-0.023 0.795868,-0.246154 0.989562,-0.662101 0.09481,-0.203599 0.09589,-0.220664 0.09539,-1.660184 -4.72e-4,-1.373504 -0.0055,-1.465821 -0.084,-1.638826 -0.134093,-0.295609 -0.266155,-0.436431 -0.535361,-0.570956 -0.179993,-0.08995 -0.368947,-0.130698 -0.552445,-0.126719 z m -25.260135,0.02133 c -0.412152,0 -0.585199,0.07436 -0.850025,0.361651 -0.281388,0.305273 -0.29758,0.413808 -0.29758,1.953492 0,1.590953 0.01034,1.656243 0.341719,1.987665 0.128643,0.128643 0.286478,0.238551 0.397248,0.277646 0.439696,0.155189 0.882436,0.05302 1.214525,-0.27907 0.330547,-0.330543 0.341719,-0.395946 0.341719,-1.986241 0,-1.539684 -0.0176,-1.648218 -0.299004,-1.953492 -0.264826,-0.287318 -0.43645,-0.361667 -0.848602,-0.361667 z m 10.811128,9.738988 c -0.33972,0.0099 -0.647698,0.0468 -0.814431,0.106787 -0.349549,0.125754 -0.536055,0.232487 -0.758901,0.432845 -0.758866,0.682286 -0.720043,2.033832 0.07547,2.61415 0.257325,0.187716 0.568922,0.332917 1.094924,0.511154 0.382101,0.129475 0.502615,0.191055 0.644995,0.327479 0.148382,0.142178 0.17513,0.191857 0.17513,0.328905 0,0.201705 -0.08089,0.322355 -0.291885,0.429996 -0.345904,0.176468 -1.171319,0.176492 -1.929286,0 l -0.318938,-0.07547 v 0.686286 0.684861 l 0.378737,0.05126 c 0.208499,0.02758 0.406152,0.05579 0.439964,0.06266 0.210268,0.04281 1.312043,0.01404 1.590416,-0.04129 0.691715,-0.137492 1.291585,-0.55241 1.524921,-1.053633 0.336964,-0.723825 0.222937,-1.525525 -0.289039,-2.037498 -0.270803,-0.270804 -0.558037,-0.425857 -1.136214,-0.61367 -0.269561,-0.08757 -0.54302,-0.186911 -0.607974,-0.220693 -0.414768,-0.215721 -0.428597,-0.635614 -0.02706,-0.815853 0.338658,-0.152011 1.171337,-0.135896 1.742766,0.03417 0.01034,0.0031 0.01947,0.005 0.02706,0.0029 7.34e-4,-2.71e-4 0.0035,-0.0011 0.0043,-0.0014 6.83e-4,-4.23e-4 0.0035,-0.0023 0.0043,-0.0029 0.03122,-0.02884 0.0356,-0.163513 0.0356,-0.610823 0,-0.466766 -0.01078,-0.619537 -0.04841,-0.65069 l -0.0014,-0.0014 h -0.0014 v -0.0014 h -0.0014 -0.0014 l -0.0014,-0.0014 c -0.0308,-0.01183 -0.256544,-0.05277 -0.501187,-0.09114 -0.296531,-0.0465 -0.668353,-0.064 -1.008071,-0.0541 z m 6.300439,0.0043 c -0.139321,0.0096 -0.251626,0.03025 -0.411486,0.06835 -1.156085,0.275444 -1.98123,1.070304 -2.27955,2.195542 -0.115048,0.43396 -0.123107,1.184245 -0.01708,1.598959 0.29918,1.170274 1.147405,1.978389 2.366404,2.255345 0.35839,0.08142 1.421414,0.05232 1.815379,-0.04985 l 0.286189,-0.07404 0.0114,-0.794496 c 0.0076,-0.547898 0.0075,-0.718454 -0.01993,-0.7589 -0.0013,-0.0014 -0.0044,-0.0046 -0.0057,-0.0057 -6.88e-4,-4.3e-4 -0.0035,-0.0024 -0.0043,-0.0029 -7.42e-4,-2.42e-4 -0.0035,-0.0013 -0.0043,-0.0014 -0.0073,-6.62e-4 -0.01745,0.0016 -0.02706,0.0057 -0.441982,0.185013 -0.703216,0.239751 -1.158995,0.240627 -0.531116,0.0011 -0.70133,-0.04596 -1.052255,-0.28619 -0.23144,-0.158438 -0.462917,-0.465186 -0.570955,-0.754629 -0.09665,-0.258973 -0.09801,-0.818924 -0.0029,-1.092076 0.222921,-0.639861 0.740567,-1.01676 1.465119,-1.067871 0.345958,-0.02441 0.854162,0.06073 1.167539,0.195064 0.103807,0.04449 0.19657,0.07974 0.206455,0.07974 0.0099,0 0.01323,-0.354899 0.0071,-0.7888 l -0.01138,-0.7888 -0.286189,-0.07546 c -0.191433,-0.05081 -0.491069,-0.08319 -0.901282,-0.09682 -0.266434,-0.0088 -0.433059,-0.011 -0.572378,-0.0014 z m 6.596595,0.01138 c -0.574748,-8.82e-4 -0.694517,0.01123 -0.963931,0.09539 -0.547953,0.171183 -0.925505,0.396049 -1.311345,0.783105 -0.398545,0.399799 -0.570655,0.669951 -0.751782,1.178929 -0.122564,0.344484 -0.127479,0.386085 -0.128143,1.015189 -6.71e-4,0.632022 0.0044,0.669113 0.128143,1.015189 0.166579,0.465567 0.342266,0.758079 0.664928,1.103468 0.428814,0.459016 0.901942,0.734271 1.542007,0.897013 0.6254,0.159012 1.573883,0.07803 2.165641,-0.183674 0.853124,-0.377268 1.516472,-1.189375 1.727103,-2.114359 0.09801,-0.430412 0.09064,-1.076415 -0.01708,-1.496442 C 45.854923,40.830721 45.123425,40.044593 44.106305,39.693 43.730164,39.562996 43.694718,39.558757 43.061216,39.557737 Z m -22.049402,0.0014 c -0.73151,-0.0024 -0.740173,-2.45e-4 -1.126248,0.133841 -1.086858,0.377472 -1.802559,1.175717 -2.036074,2.273853 -0.08864,0.41681 -0.05421,1.217879 0.06835,1.606079 0.25438,0.805715 0.752597,1.405361 1.476509,1.77836 0.32992,0.169992 0.505069,0.233881 0.859994,0.31609 0.325947,0.0755 1.367797,0.04893 1.772665,-0.04557 l 0.317514,-0.07404 v -0.793072 c 0,-0.436057 -0.0073,-0.793071 -0.01566,-0.793071 -0.0084,0 -0.0964,0.03643 -0.195065,0.07974 -0.230257,0.101057 -0.75227,0.207879 -1.01519,0.207879 -0.690569,0 -1.283475,-0.356625 -1.554819,-0.935456 -0.09735,-0.20766 -0.108218,-0.280934 -0.108218,-0.683437 0,-0.408208 0.01056,-0.475191 0.115331,-0.701947 0.203223,-0.439736 0.633455,-0.771798 1.137638,-0.879926 0.417321,-0.0895 1.053669,0.0031 1.564788,0.227812 0.0096,0.0043 0.01844,0.0062 0.02562,0.0057 0.0015,-2.72e-4 0.0057,-7.93e-4 0.0071,-0.0014 6.89e-4,-4.11e-4 0.0035,-0.0023 0.0043,-0.0029 l 0.0014,-0.0014 c 0.02936,-0.03502 0.03064,-0.201824 0.02278,-0.761747 l -0.01001,-0.794496 -0.287613,-0.07831 c -0.231976,-0.06392 -0.428647,-0.08053 -1.025156,-0.08258 z m 3.464174,0.05838 v 3.01282 3.011398 h 0.757477 0.758901 v -3.011338 -3.012821 h -0.758901 z m 18.464204,1.43522 c 0.269553,-0.01126 0.557266,0.03345 0.763171,0.129567 0.470917,0.219839 0.800247,0.654578 0.898437,1.187473 0.126229,0.685076 -0.253707,1.407128 -0.898437,1.708594 -0.19126,0.08944 -0.302049,0.11019 -0.622213,0.119602 -0.337508,0.0099 -0.420898,-0.0018 -0.630756,-0.0897 -0.622864,-0.260938 -0.975322,-0.793847 -0.975322,-1.477934 0,-0.699035 0.380169,-1.256219 1.020885,-1.496443 0.127226,-0.0477 0.282502,-0.07439 0.444235,-0.08116 z" />
  <path
     id="path205"
     style="fill:#4d4d4d;fill-opacity:1;stroke:none;stroke-width:0.364499;stroke-dasharray:none;stroke-opacity:0.6"
     d="m 31.958195,20.269613 c -0.413674,0.01273 -0.814213,0.250247 -1.010918,0.683435 -0.07424,0.163545 -0.07744,0.396186 -0.07831,6.565272 v 6.395836 l 0.105358,0.210727 c 0.122018,0.244857 0.281929,0.393261 0.570955,0.528241 0.535967,0.250302 1.198718,0.01163 1.486477,-0.533937 l 0.111057,-0.210725 0.0114,-6.307558 c 0.01223,-7.091241 0.03465,-6.571806 -0.296155,-6.939741 -0.247918,-0.275742 -0.578115,-0.401455 -0.899861,-0.39155 z m 6.326068,4.335554 c -0.401551,0.01474 -0.779239,0.243102 -0.968204,0.62791 l -0.115329,0.233507 v 3.074045 3.074045 l 0.111059,0.209304 c 0.137154,0.260025 0.399509,0.491008 0.644995,0.566682 0.444264,0.136952 0.851033,0.03885 1.173232,-0.283342 0.364339,-0.364339 0.349336,-0.19927 0.336024,-3.673477 L 39.45466,25.425292 39.36495,25.25728 c -0.145214,-0.271435 -0.287605,-0.413414 -0.533939,-0.533933 -0.176763,-0.08647 -0.364228,-0.124881 -0.546748,-0.11818 z m -12.620813,0.0071 c -0.151939,1.9e-4 -0.330936,0.02835 -0.417182,0.06549 -0.215539,0.09283 -0.501758,0.37147 -0.613669,0.596584 l -0.09539,0.192217 -0.0114,2.901762 c -0.0077,1.902025 0.0016,2.982665 0.0299,3.135269 0.02366,0.128073 0.09424,0.315751 0.156622,0.417182 0.119403,0.194144 0.422811,0.425627 0.639299,0.488372 0.38578,0.111809 0.844439,-0.0085 1.119128,-0.293308 0.345603,-0.358282 0.319076,-0.08038 0.331753,-3.511159 0.01262,-3.414097 0.02223,-3.278491 -0.27907,-3.620796 -0.21501,-0.244263 -0.510153,-0.372059 -0.859993,-0.371619 z m 18.949729,3.169452 c -0.403695,0.0087 -0.781113,0.233908 -0.975321,0.623636 l -0.105369,0.212151 v 1.500713 1.500716 l 0.106788,0.213575 c 0.12183,0.244479 0.328577,0.43472 0.592312,0.545325 0.134673,0.05647 0.255956,0.07321 0.468439,0.06266 0.462743,-0.023 0.795868,-0.246154 0.989562,-0.662101 0.09481,-0.203599 0.09589,-0.220664 0.09539,-1.660184 -4.72e-4,-1.373504 -0.0055,-1.465821 -0.084,-1.638826 -0.134093,-0.295609 -0.266155,-0.436431 -0.535361,-0.570956 -0.179993,-0.08995 -0.368947,-0.130698 -0.552445,-0.126719 z m -25.260135,0.02133 c -0.412152,0 -0.585199,0.07436 -0.850025,0.361651 -0.281388,0.305273 -0.29758,0.413808 -0.29758,1.953492 0,1.590953 0.01034,1.656243 0.341719,1.987665 0.128643,0.128643 0.286478,0.238551 0.397248,0.277646 0.439696,0.155189 0.882436,0.05302 1.214525,-0.27907 0.330547,-0.330543 0.341719,-0.395946 0.341719,-1.986241 0,-1.539684 -0.0176,-1.648218 -0.299004,-1.953492 -0.264826,-0.287318 -0.43645,-0.361667 -0.848602,-0.361667 z m 10.811128,9.738988 c -0.33972,0.0099 -0.647698,0.0468 -0.814431,0.106787 -0.349549,0.125754 -0.536055,0.232487 -0.758901,0.432845 -0.758866,0.682286 -0.720043,2.033832 0.07547,2.61415 0.257325,0.187716 0.568922,0.332917 1.094924,0.511154 0.382101,0.129475 0.502615,0.191055 0.644995,0.327479 0.148382,0.142178 0.17513,0.191857 0.17513,0.328905 0,0.201705 -0.08089,0.322355 -0.291885,0.429996 -0.345904,0.176468 -1.171319,0.176492 -1.929286,0 l -0.318938,-0.07547 v 0.686286 0.684861 l 0.378737,0.05126 c 0.208499,0.02758 0.406152,0.05579 0.439964,0.06266 0.210268,0.04281 1.312043,0.01404 1.590416,-0.04129 0.691715,-0.137492 1.291585,-0.55241 1.524921,-1.053633 0.336964,-0.723825 0.222937,-1.525525 -0.289039,-2.037498 -0.270803,-0.270804 -0.558037,-0.425857 -1.136214,-0.61367 -0.269561,-0.08757 -0.54302,-0.186911 -0.607974,-0.220693 -0.414768,-0.215721 -0.428597,-0.635614 -0.02706,-0.815853 0.338658,-0.152011 1.171337,-0.135896 1.742766,0.03417 0.01034,0.0031 0.01947,0.005 0.02706,0.0029 7.34e-4,-2.71e-4 0.0035,-0.0011 0.0043,-0.0014 6.83e-4,-4.23e-4 0.0035,-0.0023 0.0043,-0.0029 0.03122,-0.02884 0.0356,-0.163513 0.0356,-0.610823 0,-0.466766 -0.01078,-0.619537 -0.04841,-0.65069 l -0.0014,-0.0014 h -0.0014 v -0.0014 h -0.0014 -0.0014 l -0.0014,-0.0014 c -0.0308,-0.01183 -0.256544,-0.05277 -0.501187,-0.09114 -0.296531,-0.0465 -0.668353,-0.064 -1.008071,-0.0541 z m 6.300439,0.0043 c -0.139321,0.0096 -0.251626,0.03025 -0.411486,0.06835 -1.156085,0.275444 -1.98123,1.070304 -2.27955,2.195542 -0.115048,0.43396 -0.123107,1.184245 -0.01708,1.598959 0.29918,1.170274 1.147405,1.978389 2.366404,2.255345 0.35839,0.08142 1.421414,0.05232 1.815379,-0.04985 l 0.286189,-0.07404 0.0114,-0.794496 c 0.0076,-0.547898 0.0075,-0.718454 -0.01993,-0.7589 -0.0013,-0.0014 -0.0044,-0.0046 -0.0057,-0.0057 -6.88e-4,-4.3e-4 -0.0035,-0.0024 -0.0043,-0.0029 -7.42e-4,-2.42e-4 -0.0035,-0.0013 -0.0043,-0.0014 -0.0073,-6.62e-4 -0.01745,0.0016 -0.02706,0.0057 -0.441982,0.185013 -0.703216,0.239751 -1.158995,0.240627 -0.531116,0.0011 -0.70133,-0.04596 -1.052255,-0.28619 -0.23144,-0.158438 -0.462917,-0.465186 -0.570955,-0.754629 -0.09665,-0.258973 -0.09801,-0.818924 -0.0029,-1.092076 0.222921,-0.639861 0.740567,-1.01676 1.465119,-1.067871 0.345958,-0.02441 0.854162,0.06073 1.167539,0.195064 0.103807,0.04449 0.19657,0.07974 0.206455,0.07974 0.0099,0 0.01323,-0.354899 0.0071,-0.7888 l -0.01138,-0.7888 -0.286189,-0.07546 c -0.191433,-0.05081 -0.491069,-0.08319 -0.901282,-0.09682 -0.266434,-0.0088 -0.433059,-0.011 -0.572378,-0.0014 z m 6.596595,0.01138 c -0.574748,-8.82e-4 -0.694517,0.01123 -0.963931,0.09539 -0.547953,0.171183 -0.925505,0.396049 -1.311345,0.783105 -0.398545,0.399799 -0.570655,0.669951 -0.751782,1.178929 -0.122564,0.344484 -0.127479,0.386085 -0.128143,1.015189 -6.71e-4,0.632022 0.0044,0.669113 0.128143,1.015189 0.166579,0.465567 0.342266,0.758079 0.664928,1.103468 0.428814,0.459016 0.901942,0.734271 1.542007,0.897013 0.6254,0.159012 1.573883,0.07803 2.165641,-0.183674 0.853124,-0.377268 1.516472,-1.189375 1.727103,-2.114359 0.09801,-0.430412 0.09064,-1.076415 -0.01708,-1.496442 C 45.854923,38.830721 45.123425,38.044593 44.106305,37.693 43.730164,37.562996 43.694718,37.558757 43.061216,37.557737 Z m -22.049402,0.0014 c -0.73151,-0.0024 -0.740173,-2.45e-4 -1.126248,0.133841 -1.086858,0.377472 -1.802559,1.175717 -2.036074,2.273853 -0.08864,0.41681 -0.05421,1.217879 0.06835,1.606079 0.25438,0.805715 0.752597,1.405361 1.476509,1.77836 0.32992,0.169992 0.505069,0.233881 0.859994,0.31609 0.325947,0.0755 1.367797,0.04893 1.772665,-0.04557 l 0.317514,-0.07404 v -0.793072 c 0,-0.436057 -0.0073,-0.793071 -0.01566,-0.793071 -0.0084,0 -0.0964,0.03643 -0.195065,0.07974 -0.230257,0.101057 -0.75227,0.207879 -1.01519,0.207879 -0.690569,0 -1.283475,-0.356625 -1.554819,-0.935456 -0.09735,-0.20766 -0.108218,-0.280934 -0.108218,-0.683437 0,-0.408208 0.01056,-0.475191 0.115331,-0.701947 0.203223,-0.439736 0.633455,-0.771798 1.137638,-0.879926 0.417321,-0.0895 1.053669,0.0031 1.564788,0.227812 0.0096,0.0043 0.01844,0.0062 0.02562,0.0057 0.0015,-2.72e-4 0.0057,-7.93e-4 0.0071,-0.0014 6.89e-4,-4.11e-4 0.0035,-0.0023 0.0043,-0.0029 l 0.0014,-0.0014 c 0.02936,-0.03502 0.03064,-0.201824 0.02278,-0.761747 l -0.01001,-0.794496 -0.287613,-0.07831 c -0.231976,-0.06392 -0.428647,-0.08053 -1.025156,-0.08258 z m 3.464174,0.05838 v 3.01282 3.011398 h 0.757477 0.758901 v -3.011338 -3.012821 h -0.758901 z m 18.464204,1.43522 c 0.269553,-0.01126 0.557266,0.03345 0.763171,0.129567 0.470917,0.219839 0.800247,0.654578 0.898437,1.187473 0.126229,0.685076 -0.253707,1.407128 -0.898437,1.708594 -0.19126,0.08944 -0.302049,0.11019 -0.622213,0.119602 -0.337508,0.0099 -0.420898,-0.0018 -0.630756,-0.0897 -0.622864,-0.260938 -0.975322,-0.793847 -0.975322,-1.477934 0,-0.699035 0.380169,-1.256219 1.020885,-1.496443 0.127226,-0.0477 0.282502,-0.07439 0.444235,-0.08116 z" />
</svg>
