<?xml version="1.0" encoding="UTF-8" standalone="no"?>
<svg
   width="64"
   height="64"
   version="1.1"
   id="svg73"
   sodipodi:docname="chromium.svg"
   inkscape:version="1.4.2 (ebf0e940d0, 2025-05-08)"
   xmlns:inkscape="http://www.inkscape.org/namespaces/inkscape"
   xmlns:sodipodi="http://sodipodi.sourceforge.net/DTD/sodipodi-0.dtd"
   xmlns:xlink="http://www.w3.org/1999/xlink"
   xmlns="http://www.w3.org/2000/svg"
   xmlns:svg="http://www.w3.org/2000/svg"
   xmlns:rdf="http://www.w3.org/1999/02/22-rdf-syntax-ns#"
   xmlns:cc="http://creativecommons.org/ns#"
   xmlns:dc="http://purl.org/dc/elements/1.1/">
  <metadata
     id="metadata77">
    <rdf:RDF>
      <cc:Work
         rdf:about="">
        <dc:format>image/svg+xml</dc:format>
        <dc:type
           rdf:resource="http://purl.org/dc/dcmitype/StillImage" />
      </cc:Work>
    </rdf:RDF>
  </metadata>
  <sodipodi:namedview
     pagecolor="#f5f7fa"
     bordercolor="#666666"
     borderopacity="1"
     objecttolerance="10"
     gridtolerance="10"
     guidetolerance="10"
     inkscape:pageopacity="0"
     inkscape:pageshadow="2"
     inkscape:window-width="1920"
     inkscape:window-height="931"
     id="namedview75"
     showgrid="false"
     inkscape:zoom="6.2890624"
     inkscape:cx="53.267082"
     inkscape:cy="29.734162"
     inkscape:window-x="0"
     inkscape:window-y="0"
     inkscape:window-maximized="1"
     inkscape:current-layer="svg73"
     inkscape:document-rotation="0"
     inkscape:pagecheckerboard="0"
     inkscape:showpageshadow="2"
     inkscape:deskcolor="#d1d1d1" />
  <defs
     id="defs29">
    <linearGradient
       id="linearGradient4"
       inkscape:collect="always">
      <stop
         style="stop-color:#ac905e;stop-opacity:1;"
         offset="0"
         id="stop4" />
      <stop
         style="stop-color:#c1aa81;stop-opacity:1;"
         offset="0.5"
         id="stop1" />
    </linearGradient>
    <linearGradient
       id="linearGradient2"
       inkscape:collect="always">
      <stop
         style="stop-color:#f4f1ec;stop-opacity:1;"
         offset="0"
         id="stop2" />
      <stop
         style="stop-color:#e9e3d8;stop-opacity:1;"
         offset="1"
         id="stop3" />
    </linearGradient>
    <linearGradient
       inkscape:collect="always"
       xlink:href="#linearGradient2"
       id="linearGradient8"
       x1="31.721739"
       y1="5.2278585"
       x2="31.88887"
       y2="59.145416"
       gradientUnits="userSpaceOnUse"
       gradientTransform="matrix(0.8505,0,0,0.8505,4.7765033,4.7794869)" />
    <filter
       style="color-interpolation-filters:sRGB;"
       inkscape:label="Blur"
       id="filter9"
       x="-0.047762285"
       y="-0.047489063"
       width="1.0955246"
       height="1.0949781">
      <feGaussianBlur
         stdDeviation="1 1"
         result="blur"
         id="feGaussianBlur9" />
    </filter>
    <linearGradient
       inkscape:collect="always"
       xlink:href="#linearGradient4"
       id="linearGradient7"
       x1="26.723248"
       y1="58.711765"
       x2="25.756926"
       y2="5.950614"
       gradientUnits="userSpaceOnUse" />
    <filter
       style="color-interpolation-filters:sRGB;"
       inkscape:label="Out of Focus"
       id="filter40"
       x="-0.24226652"
       y="-0.2858297"
       width="1.484533"
       height="1.5716594">
      <feFlood
         flood-opacity="1"
         flood-color="rgb(255,255,255)"
         result="flood"
         id="feFlood38" />
      <feColorMatrix
         in="SourceGraphic"
         values="1 0 0 0 0 0 1 0 0 0 0 0 1 0 0 -0.2125 -0.7154 -0.0721 1 0 "
         result="colormatrix1"
         id="feColorMatrix38" />
      <feGaussianBlur
         in="colormatrix1"
         stdDeviation="3 3"
         result="blur"
         id="feGaussianBlur38" />
      <feColorMatrix
         in="blur"
         values="1 0 0 0 0 0 1 0 0 0 0 0 1 0 0 0 0 0 6 -2 "
         result="colormatrix2"
         id="feColorMatrix39" />
      <feBlend
         in="colormatrix2"
         in2="flood"
         mode="normal"
         result="blend"
         id="feBlend39" />
      <feComposite
         in="blend"
         in2="blend"
         operator="arithmetic"
         k2="0.2"
         result="composite1"
         id="feComposite39" />
      <feComposite
         in2="SourceGraphic"
         operator="in"
         id="feComposite40" />
    </filter>
  </defs>
  <g
     id="g877"
     transform="matrix(1.1,0,0,1.1,-3.1845928,-3.2065454)">
    <ellipse
       style="opacity:0.5;fill:#000000;stroke:none;stroke-width:3.89319;stroke-dasharray:none;stroke-opacity:1;filter:url(#filter9)"
       id="path2-5"
       cx="31.949858"
       cy="31.969812"
       rx="25.124426"
       ry="25.268976"
       transform="matrix(1.05,0,0,1.05,-1.5974929,-1.5984906)" />
    <path
       style="fill:#f5f7fa;stroke-width:0.204426;fill-opacity:1"
       d=""
       id="path3" />
    <circle
       style="opacity:1;fill:url(#linearGradient8);stroke:url(#linearGradient7);stroke-width:3.81818;stroke-dasharray:none;stroke-opacity:1"
       id="path2"
       cx="31.949856"
       cy="31.969812"
       r="24.711082" />
    <ellipse
       style="opacity:0.3;fill:none;stroke:#000000;stroke-width:0.974376;stroke-dasharray:none;stroke-opacity:1"
       id="path2-9"
       cx="31.949856"
       cy="31.969812"
       rx="23.129124"
       ry="23.129126" />
  </g>
  <path
     style="fill:#000000;fill-opacity:1;fill-rule:evenodd;stroke:none;stroke-width:0.437628;stroke-dasharray:none;stroke-opacity:0.6;opacity:0.2"
     d="m 32.000003,24.85833 v 0.003 c -3.011598,0.0278 -6.04252,0.674457 -8.665824,2.073994 -1.045557,0.641111 -2.300762,1.46886 -3.246648,2.303127 -1.488282,1.371779 -2.762232,2.970996 -3.622892,4.763963 2.359324,4.899502 7.54474,8.491487 13.250574,9.022071 3.742778,0.398854 7.660521,-0.211517 10.950613,-1.95498 1.045518,-0.641104 2.300747,-1.468858 3.246631,-2.303133 1.48829,-1.374758 2.762247,-2.973978 3.622903,-4.764021 -2.358267,-4.899218 -7.545986,-8.489691 -13.250574,-9.019096 -0.758122,-0.08483 -1.52356,-0.124975 -2.284783,-0.124975 z m 0.0061,3.047031 c 3.324158,-0.07223 6.267638,2.845349 6.205089,6.088114 0.106766,3.583987 -3.533516,6.677045 -7.133303,6.007768 -3.635528,-0.41865 -6.190115,-4.41975 -4.994375,-7.80802 0.764504,-2.492762 3.261707,-4.314099 5.925892,-4.284883 z m -0.0061,3.047029 a 3.1070706,3.0452761 0 0 0 -3.107073,3.05001 3.1070706,3.0452761 0 0 0 3.107073,3.044055 3.1070706,3.0452761 0 0 0 3.107072,-3.044055 3.1070706,3.0452761 0 0 0 -3.107072,-3.041083 z"
     id="path24-7" />
  <path
     style="fill:#4d4d4d;fill-opacity:1;fill-rule:evenodd;stroke:none;stroke-width:0.437628;stroke-dasharray:none;stroke-opacity:0.6"
     d="m 32.000003,22.85833 v 0.003 c -3.011598,0.0278 -6.04252,0.674457 -8.665824,2.073994 -1.045557,0.641111 -2.300762,1.46886 -3.246648,2.303127 -1.488282,1.371779 -2.762232,2.970996 -3.622892,4.763963 2.359324,4.899502 7.54474,8.491487 13.250574,9.022071 3.742778,0.398854 7.660521,-0.211517 10.950613,-1.95498 1.045518,-0.641104 2.300747,-1.468858 3.246631,-2.303133 1.48829,-1.374758 2.762247,-2.973978 3.622903,-4.764021 -2.358267,-4.899218 -7.545986,-8.489691 -13.250574,-9.019096 -0.758122,-0.08483 -1.52356,-0.124975 -2.284783,-0.124975 z m 0.0061,3.047031 c 3.324158,-0.07223 6.267638,2.845349 6.205089,6.088114 0.106766,3.583987 -3.533516,6.677045 -7.133303,6.007768 -3.635528,-0.41865 -6.190115,-4.41975 -4.994375,-7.80802 0.764504,-2.492762 3.261707,-4.314099 5.925892,-4.284883 z m -0.0061,3.047029 a 3.1070706,3.0452761 0 0 0 -3.107073,3.05001 3.1070706,3.0452761 0 0 0 3.107073,3.044055 3.1070706,3.0452761 0 0 0 3.107072,-3.044055 3.1070706,3.0452761 0 0 0 -3.107072,-3.041083 z"
     id="path24" />
</svg>
