<?xml version="1.0" encoding="UTF-8" standalone="no"?>
<svg
   width="64"
   height="64"
   version="1.1"
   id="svg73"
   sodipodi:docname="abcd.svg"
   inkscape:version="1.4.2 (ebf0e940d0, 2025-05-08)"
   xmlns:inkscape="http://www.inkscape.org/namespaces/inkscape"
   xmlns:sodipodi="http://sodipodi.sourceforge.net/DTD/sodipodi-0.dtd"
   xmlns:xlink="http://www.w3.org/1999/xlink"
   xmlns="http://www.w3.org/2000/svg"
   xmlns:svg="http://www.w3.org/2000/svg"
   xmlns:rdf="http://www.w3.org/1999/02/22-rdf-syntax-ns#"
   xmlns:cc="http://creativecommons.org/ns#"
   xmlns:dc="http://purl.org/dc/elements/1.1/">
  <metadata
     id="metadata77">
    <rdf:RDF>
      <cc:Work
         rdf:about="">
        <dc:format>image/svg+xml</dc:format>
        <dc:type
           rdf:resource="http://purl.org/dc/dcmitype/StillImage" />
      </cc:Work>
    </rdf:RDF>
  </metadata>
  <sodipodi:namedview
     pagecolor="#f5f7fa"
     bordercolor="#666666"
     borderopacity="1"
     objecttolerance="10"
     gridtolerance="10"
     guidetolerance="10"
     inkscape:pageopacity="0"
     inkscape:pageshadow="2"
     inkscape:window-width="1261"
     inkscape:window-height="714"
     id="namedview75"
     showgrid="false"
     inkscape:zoom="6.2890624"
     inkscape:cx="32.516771"
     inkscape:cy="29.654659"
     inkscape:window-x="24"
     inkscape:window-y="21"
     inkscape:window-maximized="0"
     inkscape:current-layer="svg73"
     inkscape:document-rotation="0"
     inkscape:pagecheckerboard="0"
     inkscape:showpageshadow="2"
     inkscape:deskcolor="#d1d1d1" />
  <defs
     id="defs29">
    <linearGradient
       id="linearGradient4"
       inkscape:collect="always">
      <stop
         style="stop-color:#ac905e;stop-opacity:1;"
         offset="0"
         id="stop4" />
      <stop
         style="stop-color:#c1aa81;stop-opacity:1;"
         offset="0.5"
         id="stop1" />
    </linearGradient>
    <linearGradient
       id="linearGradient2"
       inkscape:collect="always">
      <stop
         style="stop-color:#f4f1ec;stop-opacity:1;"
         offset="0"
         id="stop2" />
      <stop
         style="stop-color:#e9e3d8;stop-opacity:1;"
         offset="1"
         id="stop3" />
    </linearGradient>
    <linearGradient
       inkscape:collect="always"
       xlink:href="#linearGradient2"
       id="linearGradient8"
       x1="31.721739"
       y1="5.2278585"
       x2="31.88887"
       y2="59.145416"
       gradientUnits="userSpaceOnUse"
       gradientTransform="matrix(0.8505,0,0,0.8505,4.7765033,4.7794869)" />
    <filter
       style="color-interpolation-filters:sRGB;"
       inkscape:label="Blur"
       id="filter9"
       x="-0.047762285"
       y="-0.047489063"
       width="1.0955246"
       height="1.0949781">
      <feGaussianBlur
         stdDeviation="1 1"
         result="blur"
         id="feGaussianBlur9" />
    </filter>
    <linearGradient
       inkscape:collect="always"
       xlink:href="#linearGradient4"
       id="linearGradient7"
       x1="26.723248"
       y1="58.711765"
       x2="25.756926"
       y2="5.950614"
       gradientUnits="userSpaceOnUse" />
    <filter
       style="color-interpolation-filters:sRGB;"
       inkscape:label="Out of Focus"
       id="filter40"
       x="-0.24226652"
       y="-0.2858297"
       width="1.484533"
       height="1.5716594">
      <feFlood
         flood-opacity="1"
         flood-color="rgb(255,255,255)"
         result="flood"
         id="feFlood38" />
      <feColorMatrix
         in="SourceGraphic"
         values="1 0 0 0 0 0 1 0 0 0 0 0 1 0 0 -0.2125 -0.7154 -0.0721 1 0 "
         result="colormatrix1"
         id="feColorMatrix38" />
      <feGaussianBlur
         in="colormatrix1"
         stdDeviation="3 3"
         result="blur"
         id="feGaussianBlur38" />
      <feColorMatrix
         in="blur"
         values="1 0 0 0 0 0 1 0 0 0 0 0 1 0 0 0 0 0 6 -2 "
         result="colormatrix2"
         id="feColorMatrix39" />
      <feBlend
         in="colormatrix2"
         in2="flood"
         mode="normal"
         result="blend"
         id="feBlend39" />
      <feComposite
         in="blend"
         in2="blend"
         operator="arithmetic"
         k2="0.2"
         result="composite1"
         id="feComposite39" />
      <feComposite
         in2="SourceGraphic"
         operator="in"
         id="feComposite40" />
    </filter>
  </defs>
  <g
     id="g877"
     transform="matrix(1.1,0,0,1.1,-3.1845928,-3.2065454)">
    <ellipse
       style="opacity:0.5;fill:#000000;stroke:none;stroke-width:3.89319;stroke-dasharray:none;stroke-opacity:1;filter:url(#filter9)"
       id="path2-5"
       cx="31.949858"
       cy="31.969812"
       rx="25.124426"
       ry="25.268976"
       transform="matrix(1.05,0,0,1.05,-1.5974929,-1.5984906)" />
    <path
       style="fill:#f5f7fa;stroke-width:0.204426;fill-opacity:1"
       d=""
       id="path3" />
    <circle
       style="opacity:1;fill:url(#linearGradient8);stroke:url(#linearGradient7);stroke-width:3.81818;stroke-dasharray:none;stroke-opacity:1"
       id="path2"
       cx="31.949856"
       cy="31.969812"
       r="24.711082" />
    <ellipse
       style="opacity:0.3;fill:none;stroke:#000000;stroke-width:0.974376;stroke-dasharray:none;stroke-opacity:1"
       id="path2-9"
       cx="31.949856"
       cy="31.969812"
       rx="23.129124"
       ry="23.129126" />
  </g>
  <path
     style="fill:#000000;fill-opacity:1;stroke:none;stroke-width:0.467775;stroke-dasharray:none;stroke-opacity:0.6;opacity:0.2"
     d="m 23.729577,46.608233 c -3.374774,-0.497192 -6.045624,-1.746717 -6.774865,-3.169532 -0.726647,-1.417753 1.037177,-3.194165 3.821954,-3.849223 4.453189,-1.047514 9.456375,-0.09296 14.194285,2.708195 0.483446,0.285806 0.878996,0.475659 0.878996,0.421849 0,-0.346812 -2.470158,-2.228963 -3.576388,-2.72507 -0.482319,-0.216305 -0.498153,-0.239837 -0.429592,-0.637914 0.03915,-0.227333 0.252384,-0.786935 0.473856,-1.243561 0.453616,-0.935244 0.994251,-1.482302 2.801367,-2.834637 1.252533,-0.937319 2.038585,-1.693499 2.313978,-2.226064 0.142553,-0.275662 0.04974,-0.2161 -0.440342,0.282639 -0.584124,0.594429 -1.205244,1.016272 -3.191089,2.167269 -1.200573,0.695854 -2.050953,1.517269 -2.453979,2.370386 l -0.336881,0.713109 -0.255407,-0.575136 c -0.140473,-0.316327 -0.49323,-1.436322 -0.783906,-2.488879 -0.738868,-2.675504 -0.713916,-2.43547 -0.253315,-2.436808 0.535415,-0.0014 1.574331,-0.50386 2.110799,-1.020552 0.476968,-0.45939 0.74586,-0.898721 0.896775,-1.465202 0.07943,-0.298168 0.0725,-0.320136 -0.04346,-0.13777 -0.499783,0.785926 -0.656732,0.9729 -1.101281,1.311969 -1.244582,0.949274 -3.167547,0.968373 -4.551192,0.0452 -0.284173,-0.189603 -0.983184,-0.73878 -1.553351,-1.220395 -0.570169,-0.481615 -1.098407,-0.875664 -1.173867,-0.875664 -0.100221,0 -0.110262,0.144157 -0.03727,0.534786 0.05496,0.294135 0.0707,0.582047 0.035,0.639807 -0.118135,0.191154 -0.280849,-0.02295 -0.280849,-0.369548 0,-0.337048 -0.149798,-0.45191 -0.291129,-0.223232 -0.170748,0.276278 -0.274357,-0.04134 -0.114387,-0.350665 0.227379,-0.439704 0.222215,-0.463116 -0.102201,-0.463116 -0.381635,0 -0.567765,-0.268646 -0.567765,-0.819476 0,-0.456921 0.305476,-0.92029 0.606705,-0.92029 0.06647,0 0.120832,-0.130483 0.120832,-0.289957 0,-0.180421 0.06571,-0.289964 0.173977,-0.289964 0.102498,0 0.174797,0.107206 0.175981,0.260968 9.9e-4,0.143529 0.131582,0.383875 0.289962,0.5341 0.158374,0.150226 0.287959,0.339559 0.287959,0.420741 0,0.415435 1.03942,0.59822 1.640472,0.28848 0.393034,-0.202543 0.905704,-0.70027 1.095511,-1.063589 0.252948,-0.484184 0.197079,-0.517926 -0.213327,-0.128839 -0.207323,0.196555 -0.573304,0.426278 -0.813294,0.510498 -0.40146,0.140886 -0.449501,0.134341 -0.600965,-0.08191 -0.09053,-0.129266 -0.371574,-0.297036 -0.624511,-0.372816 -0.583717,-0.174887 -0.663984,-0.389633 -0.30507,-0.81618 0.156814,-0.18636 0.285116,-0.369109 0.285116,-0.406107 0,-0.08621 -0.644379,-0.421177 -0.810212,-0.421177 -0.08929,0 -0.08822,0.07026 0.0037,0.241901 0.07121,0.133046 0.09768,0.273687 0.05884,0.312538 -0.0618,0.06178 -0.269064,-0.117795 -1.21262,-1.050562 -0.492294,-0.486653 -0.64482,-2.040751 -0.249611,-2.543177 0.636967,-0.809773 3.709001,-1.603154 6.153418,-1.58918 1.002149,0.0057 2.514316,0.172059 1.877903,0.206561 -0.414973,0.02249 -0.192628,0.21677 0.355405,0.310539 0.377983,0.06468 0.439644,0.102982 0.265494,0.16496 -0.179512,0.06388 0.03189,0.2195 1.013282,0.745913 2.752368,1.476353 3.779547,1.781694 7.256047,2.156947 1.506104,0.162566 2.548275,0.338488 3.17143,0.535344 1.024504,0.323643 1.139267,0.450397 0.258867,0.285921 -0.313548,-0.05858 -0.584769,-0.09182 -0.602739,-0.07383 -0.01801,0.01797 0.357307,0.19149 0.833938,0.385616 0.476626,0.194124 1.158917,0.54699 1.516212,0.784145 0.680694,0.451819 0.79733,0.665518 0.19255,0.35277 -0.589272,-0.304727 -0.57884,-0.210656 0.04848,0.436997 1.108462,1.144421 1.791065,3.039278 1.949511,5.411664 l 0.06583,0.985868 -0.19657,-0.521931 -0.196538,-0.521931 -0.08249,1.117821 c -0.298151,4.040469 -3.754234,8.371745 -8.352034,10.467036 -1.989596,0.906682 -4.270028,1.546619 -6.91862,1.941499 -2.037977,0.30384 -6.202866,0.395322 -7.73327,0.169824 z M 23.265639,23.575269 c 0.03944,-0.06379 0.03598,-0.173749 -0.0076,-0.244357 -0.07795,-0.126133 -0.276323,0.06714 -0.280534,0.273353 -0.0025,0.127133 0.204574,0.106293 0.288188,-0.02899 z m 7.416773,-0.38597 c 0.146197,-0.415694 -0.117084,-0.931142 -0.503958,-0.986665 -0.424949,-0.06098 -0.548311,0.169268 -0.134976,0.251938 0.324188,0.06485 0.355202,0.110957 0.355202,0.528211 0,0.253423 -0.06461,0.486413 -0.144978,0.522784 -0.07975,0.03608 -0.04167,0.05299 0.0846,0.03755 0.132972,-0.01627 0.277775,-0.16514 0.344122,-0.353803 z m -4.343187,-0.421204 0.289962,-0.08814 -0.334613,-0.135343 c -0.272366,-0.110166 -0.385643,-0.101904 -0.608918,0.0444 -0.150873,0.09885 -0.274301,0.204624 -0.274301,0.235047 0,0.08152 0.59336,0.04575 0.927873,-0.05596 z"
     id="path1-4" />
  <path
     style="fill:#4d4d4d;fill-opacity:1;stroke:none;stroke-width:0.467775;stroke-dasharray:none;stroke-opacity:0.6"
     d="m 23.729577,44.608233 c -3.374774,-0.497192 -6.045624,-1.746717 -6.774865,-3.169532 -0.726647,-1.417753 1.037177,-3.194165 3.821954,-3.849223 4.453189,-1.047514 9.456375,-0.09296 14.194285,2.708195 0.483446,0.285806 0.878996,0.475659 0.878996,0.421849 0,-0.346812 -2.470158,-2.228963 -3.576388,-2.72507 -0.482319,-0.216305 -0.498153,-0.239837 -0.429592,-0.637914 0.03915,-0.227333 0.252384,-0.786935 0.473856,-1.243561 0.453616,-0.935244 0.994251,-1.482302 2.801367,-2.834637 1.252533,-0.937319 2.038585,-1.693499 2.313978,-2.226064 0.142553,-0.275662 0.04974,-0.2161 -0.440342,0.282639 -0.584124,0.594429 -1.205244,1.016272 -3.191089,2.167269 -1.200573,0.695854 -2.050953,1.517269 -2.453979,2.370386 l -0.336881,0.713109 -0.255407,-0.575136 c -0.140473,-0.316327 -0.49323,-1.436322 -0.783906,-2.488879 -0.738868,-2.675504 -0.713916,-2.43547 -0.253315,-2.436808 0.535415,-0.0014 1.574331,-0.50386 2.110799,-1.020552 0.476968,-0.45939 0.74586,-0.898721 0.896775,-1.465202 0.07943,-0.298168 0.0725,-0.320136 -0.04346,-0.13777 -0.499783,0.785926 -0.656732,0.9729 -1.101281,1.311969 -1.244582,0.949274 -3.167547,0.968373 -4.551192,0.0452 -0.284173,-0.189603 -0.983184,-0.73878 -1.553351,-1.220395 -0.570169,-0.481615 -1.098407,-0.875664 -1.173867,-0.875664 -0.100221,0 -0.110262,0.144157 -0.03727,0.534786 0.05496,0.294135 0.0707,0.582047 0.035,0.639807 -0.118135,0.191154 -0.280849,-0.02295 -0.280849,-0.369548 0,-0.337048 -0.149798,-0.45191 -0.291129,-0.223232 -0.170748,0.276278 -0.274357,-0.04134 -0.114387,-0.350665 0.227379,-0.439704 0.222215,-0.463116 -0.102201,-0.463116 -0.381635,0 -0.567765,-0.268646 -0.567765,-0.819476 0,-0.456921 0.305476,-0.92029 0.606705,-0.92029 0.06647,0 0.120832,-0.130483 0.120832,-0.289957 0,-0.180421 0.06571,-0.289964 0.173977,-0.289964 0.102498,0 0.174797,0.107206 0.175981,0.260968 9.9e-4,0.143529 0.131582,0.383875 0.289962,0.5341 0.158374,0.150226 0.287959,0.339559 0.287959,0.420741 0,0.415435 1.03942,0.59822 1.640472,0.28848 0.393034,-0.202543 0.905704,-0.70027 1.095511,-1.063589 0.252948,-0.484184 0.197079,-0.517926 -0.213327,-0.128839 -0.207323,0.196555 -0.573304,0.426278 -0.813294,0.510498 -0.40146,0.140886 -0.449501,0.134341 -0.600965,-0.08191 -0.09053,-0.129266 -0.371574,-0.297036 -0.624511,-0.372816 -0.583717,-0.174887 -0.663984,-0.389633 -0.30507,-0.81618 0.156814,-0.18636 0.285116,-0.369109 0.285116,-0.406107 0,-0.08621 -0.644379,-0.421177 -0.810212,-0.421177 -0.08929,0 -0.08822,0.07026 0.0037,0.241901 0.07121,0.133046 0.09768,0.273687 0.05884,0.312538 -0.0618,0.06178 -0.269064,-0.117795 -1.21262,-1.050562 -0.492294,-0.486653 -0.64482,-2.040751 -0.249611,-2.543177 0.636967,-0.809773 3.709001,-1.603154 6.153418,-1.58918 1.002149,0.0057 2.514316,0.172059 1.877903,0.206561 -0.414973,0.02249 -0.192628,0.21677 0.355405,0.310539 0.377983,0.06468 0.439644,0.102982 0.265494,0.16496 -0.179512,0.06388 0.03189,0.2195 1.013282,0.745913 2.752368,1.476353 3.779547,1.781694 7.256047,2.156947 1.506104,0.162566 2.548275,0.338488 3.17143,0.535344 1.024504,0.323643 1.139267,0.450397 0.258867,0.285921 -0.313548,-0.05858 -0.584769,-0.09182 -0.602739,-0.07383 -0.01801,0.01797 0.357307,0.19149 0.833938,0.385616 0.476626,0.194124 1.158917,0.54699 1.516212,0.784145 0.680694,0.451819 0.79733,0.665518 0.19255,0.35277 -0.589272,-0.304727 -0.57884,-0.210656 0.04848,0.436997 1.108462,1.144421 1.791065,3.039278 1.949511,5.411664 l 0.06583,0.985868 -0.19657,-0.521931 -0.196538,-0.521931 -0.08249,1.117821 c -0.298151,4.040469 -3.754234,8.371745 -8.352034,10.467036 -1.989596,0.906682 -4.270028,1.546619 -6.91862,1.941499 -2.037977,0.30384 -6.202866,0.395322 -7.73327,0.169824 z M 23.265639,21.575269 c 0.03944,-0.06379 0.03598,-0.173749 -0.0076,-0.244357 -0.07795,-0.126133 -0.276323,0.06714 -0.280534,0.273353 -0.0025,0.127133 0.204574,0.106293 0.288188,-0.02899 z m 7.416773,-0.38597 c 0.146197,-0.415694 -0.117084,-0.931142 -0.503958,-0.986665 -0.424949,-0.06098 -0.548311,0.169268 -0.134976,0.251938 0.324188,0.06485 0.355202,0.110957 0.355202,0.528211 0,0.253423 -0.06461,0.486413 -0.144978,0.522784 -0.07975,0.03608 -0.04167,0.05299 0.0846,0.03755 0.132972,-0.01627 0.277775,-0.16514 0.344122,-0.353803 z m -4.343187,-0.421204 0.289962,-0.08814 -0.334613,-0.135343 c -0.272366,-0.110166 -0.385643,-0.101904 -0.608918,0.0444 -0.150873,0.09885 -0.274301,0.204624 -0.274301,0.235047 0,0.08152 0.59336,0.04575 0.927873,-0.05596 z"
     id="path1" />
</svg>
