<?xml version="1.0" encoding="UTF-8" standalone="no"?>
<svg
   width="64"
   height="64"
   version="1.1"
   id="svg73"
   sodipodi:docname="1password.svg"
   inkscape:version="1.4.2 (ebf0e940d0, 2025-05-08)"
   xmlns:inkscape="http://www.inkscape.org/namespaces/inkscape"
   xmlns:sodipodi="http://sodipodi.sourceforge.net/DTD/sodipodi-0.dtd"
   xmlns:xlink="http://www.w3.org/1999/xlink"
   xmlns="http://www.w3.org/2000/svg"
   xmlns:svg="http://www.w3.org/2000/svg"
   xmlns:rdf="http://www.w3.org/1999/02/22-rdf-syntax-ns#"
   xmlns:cc="http://creativecommons.org/ns#"
   xmlns:dc="http://purl.org/dc/elements/1.1/">
  <metadata
     id="metadata77">
    <rdf:RDF>
      <cc:Work
         rdf:about="">
        <dc:format>image/svg+xml</dc:format>
        <dc:type
           rdf:resource="http://purl.org/dc/dcmitype/StillImage" />
      </cc:Work>
    </rdf:RDF>
  </metadata>
  <sodipodi:namedview
     pagecolor="#f5f7fa"
     bordercolor="#666666"
     borderopacity="1"
     objecttolerance="10"
     gridtolerance="10"
     guidetolerance="10"
     inkscape:pageopacity="0"
     inkscape:pageshadow="2"
     inkscape:window-width="1920"
     inkscape:window-height="931"
     id="namedview75"
     showgrid="false"
     inkscape:zoom="6.2890624"
     inkscape:cx="53.585094"
     inkscape:cy="29.734162"
     inkscape:window-x="0"
     inkscape:window-y="0"
     inkscape:window-maximized="1"
     inkscape:current-layer="svg73"
     inkscape:document-rotation="0"
     inkscape:pagecheckerboard="0"
     inkscape:showpageshadow="2"
     inkscape:deskcolor="#d1d1d1" />
  <defs
     id="defs29">
    <linearGradient
       id="linearGradient4"
       inkscape:collect="always">
      <stop
         style="stop-color:#ac905e;stop-opacity:1;"
         offset="0"
         id="stop4" />
      <stop
         style="stop-color:#c1aa81;stop-opacity:1;"
         offset="0.5"
         id="stop1" />
    </linearGradient>
    <linearGradient
       id="linearGradient2"
       inkscape:collect="always">
      <stop
         style="stop-color:#eceff4;stop-opacity:1;"
         offset="0"
         id="stop2" />
      <stop
         style="stop-color:#e9e3d8;stop-opacity:1;"
         offset="1"
         id="stop3" />
    </linearGradient>
    <linearGradient
       inkscape:collect="always"
       xlink:href="#linearGradient2"
       id="linearGradient8"
       x1="31.721739"
       y1="5.2278585"
       x2="31.88887"
       y2="59.145416"
       gradientUnits="userSpaceOnUse"
       gradientTransform="matrix(0.8505,0,0,0.8505,4.7765033,4.7794869)" />
    <filter
       style="color-interpolation-filters:sRGB;"
       inkscape:label="Blur"
       id="filter9"
       x="-0.047762285"
       y="-0.047489063"
       width="1.0955246"
       height="1.0949781">
      <feGaussianBlur
         stdDeviation="1 1"
         result="blur"
         id="feGaussianBlur9" />
    </filter>
    <linearGradient
       inkscape:collect="always"
       xlink:href="#linearGradient4"
       id="linearGradient7"
       x1="26.723248"
       y1="58.711765"
       x2="25.756926"
       y2="5.950614"
       gradientUnits="userSpaceOnUse" />
    <filter
       style="color-interpolation-filters:sRGB;"
       inkscape:label="Out of Focus"
       id="filter40"
       x="-0.24226652"
       y="-0.2858297"
       width="1.484533"
       height="1.5716594">
      <feFlood
         flood-opacity="1"
         flood-color="rgb(255,255,255)"
         result="flood"
         id="feFlood38" />
      <feColorMatrix
         in="SourceGraphic"
         values="1 0 0 0 0 0 1 0 0 0 0 0 1 0 0 -0.2125 -0.7154 -0.0721 1 0 "
         result="colormatrix1"
         id="feColorMatrix38" />
      <feGaussianBlur
         in="colormatrix1"
         stdDeviation="3 3"
         result="blur"
         id="feGaussianBlur38" />
      <feColorMatrix
         in="blur"
         values="1 0 0 0 0 0 1 0 0 0 0 0 1 0 0 0 0 0 6 -2 "
         result="colormatrix2"
         id="feColorMatrix39" />
      <feBlend
         in="colormatrix2"
         in2="flood"
         mode="normal"
         result="blend"
         id="feBlend39" />
      <feComposite
         in="blend"
         in2="blend"
         operator="arithmetic"
         k2="0.2"
         result="composite1"
         id="feComposite39" />
      <feComposite
         in2="SourceGraphic"
         operator="in"
         id="feComposite40" />
    </filter>
  </defs>
  <g
     id="g877"
     transform="matrix(1.1,0,0,1.1,-3.1845928,-3.2065454)">
    <ellipse
       style="opacity:0.5;fill:#000000;stroke:none;stroke-width:3.89319;stroke-dasharray:none;stroke-opacity:1;filter:url(#filter9)"
       id="path2-5"
       cx="31.949858"
       cy="31.969812"
       rx="25.124426"
       ry="25.268976"
       transform="matrix(1.05,0,0,1.05,-1.5974929,-1.5984906)" />
    <path
       style="fill:#f5f7fa;stroke-width:0.204426;fill-opacity:1"
       d=""
       id="path3" />
    <circle
       style="opacity:1;fill:url(#linearGradient8);stroke:url(#linearGradient7);stroke-width:3.81818;stroke-dasharray:none;stroke-opacity:1"
       id="path2"
       cx="31.949856"
       cy="31.969812"
       r="24.711082" />
    <ellipse
       style="opacity:0.3;fill:none;stroke:#000000;stroke-width:0.974376;stroke-dasharray:none;stroke-opacity:1"
       id="path2-9"
       cx="31.949856"
       cy="31.969812"
       rx="23.129124"
       ry="23.129126" />
  </g>
  <path
     style="fill:#000000;fill-opacity:1;stroke-width:0.0852583;opacity:0.2"
     d="m 34.831011,47.364482 c -4.488375,-0.230355 -8.772858,-1.767379 -12.277098,-4.4043 -1.13638,-0.85512 -2.221674,-1.858098 -3.082913,-2.849077 -0.09004,-0.103587 -0.206008,-0.236226 -0.257728,-0.294733 -0.307454,-0.347824 -0.989053,-1.252886 -1.3591,-1.804675 -1.397602,-2.084023 -2.363411,-4.345932 -2.869866,-6.721199 -0.159396,-0.747556 -0.249178,-1.352604 -0.361195,-2.434067 -0.04877,-0.470958 -0.04827,-2.559987 9.43e-4,-3.05563 0.147137,-1.48764 0.324873,-2.434541 0.739498,-3.939689 0.09054,-0.328674 0.170914,-0.603886 0.17861,-0.61158 0.0076,-0.0076 0.01499,0.01569 0.01623,0.05194 0.001,0.03627 0.0068,0.09662 0.0122,0.134139 0.0054,0.03752 0.02989,0.276915 0.05427,0.532007 0.197183,2.063072 0.512282,3.602903 1.101883,5.384707 0.536282,1.620662 1.322105,3.31091 2.231729,4.800289 0.419936,0.68759 1.238562,1.848349 1.764062,2.501332 1.524592,1.894453 3.408049,3.631357 5.405559,4.984956 2.174086,1.473244 4.418137,2.557717 6.923577,3.345913 0.599459,0.18858 1.666209,0.487579 1.95686,0.548473 0.08252,0.01728 0.352622,0.07405 0.600211,0.12614 2.150553,0.452396 4.690018,0.664173 6.684193,0.557425 2.331377,-0.124797 3.907053,-0.371141 6.177686,-0.965828 0.43418,-0.113715 0.796352,-0.199153 0.804836,-0.189866 0.0085,0.0092 0.0031,0.02155 -0.01186,0.02726 -0.015,0.0057 -0.321927,0.204236 -0.682053,0.441192 -1.050134,0.690968 -1.701244,1.070617 -2.632758,1.535119 -2.174236,1.084192 -4.546961,1.805428 -6.997945,2.127151 -1.004303,0.13183 -1.539428,0.165657 -2.755525,0.174189 -0.64523,0.0046 -1.259085,0.0038 -1.36412,-0.0021 z m 5.89336,-3.73712 c 0.0713,-0.160358 0.208896,-0.614925 0.237269,-0.783881 0.05471,-0.325794 0.03897,-0.916717 -0.03234,-1.214769 -0.07613,-0.318147 -0.206,-0.65191 -0.352586,-0.906154 -0.06245,-0.108317 -0.09526,-0.188713 -0.07366,-0.180419 0.341557,0.131068 1.93995,0.594287 2.744592,0.795391 1.707028,0.426639 3.251413,0.690288 5.463307,0.932667 0.386386,0.04235 0.702523,0.08461 0.702523,0.09395 0,0.02027 -0.960749,0.305505 -1.555101,0.461702 -0.77418,0.203456 -2.085751,0.470304 -2.741881,0.557852 -0.190277,0.02539 -0.301734,0.0411 -0.491083,0.06915 -0.09002,0.01335 -0.292606,0.03753 -0.450162,0.05375 -0.157556,0.01621 -0.341714,0.03518 -0.409238,0.04213 -0.55416,0.0571 -1.334418,0.0987 -2.125781,0.113326 -0.917129,0.01696 -0.938457,0.01615 -0.915849,-0.03469 z m -1.159863,-0.0012 c -0.02252,-0.0043 -0.231215,-0.02075 -0.4638,-0.03666 -0.232581,-0.01592 -0.45357,-0.03404 -0.491085,-0.04022 -0.03751,-0.0063 -0.203254,-0.02504 -0.368313,-0.04192 -0.296353,-0.03029 -0.712799,-0.08753 -1.37776,-0.189355 -0.367616,-0.0563 -1.369824,-0.244255 -1.385397,-0.259826 -0.0052,-0.0052 0.04744,-0.09263 0.11701,-0.194255 0.259315,-0.378772 0.439459,-0.824289 0.51786,-1.280741 0.05225,-0.304187 0.05927,-0.741924 0.01546,-0.965144 -0.04787,-0.243951 -0.04313,-0.258564 0.124599,-0.385215 1.064291,-0.803545 2.584476,-0.671958 3.485768,0.301728 0.75214,0.812551 0.913778,1.982578 0.410976,2.974817 l -0.06864,0.135443 -0.237874,-0.0054 c -0.130832,-0.003 -0.256292,-0.0089 -0.278803,-0.01319 z m -4.815345,-0.738368 c -0.802744,-0.187441 -2.273934,-0.662557 -3.337125,-1.077705 l -0.499751,-0.195125 0.246741,-0.228698 c 0.525729,-0.487286 0.867134,-1.099453 0.99785,-1.789226 0.05541,-0.292431 0.07349,-0.608159 0.04755,-0.8306 l -0.0231,-0.198088 0.100969,-0.02718 c 0.277549,-0.07475 0.680712,-0.10868 0.943152,-0.07942 1.302964,0.145291 2.257033,1.122491 2.368867,2.426302 0.0365,0.425582 -0.08217,0.970061 -0.303365,1.391847 -0.114342,0.218034 -0.423636,0.630879 -0.4674,0.623889 -0.01089,-0.0019 -0.04437,-0.0089 -0.07438,-0.01591 z M 29.838324,41.12577 c -0.37413,-0.181334 -0.951279,-0.478387 -1.364121,-0.702099 -0.529952,-0.287167 -2.168956,-1.304809 -2.168956,-1.34668 0,-0.0067 0.08901,-0.04573 0.1978,-0.0868 0.836916,-0.315886 1.505542,-0.906293 1.883577,-1.663229 0.09998,-0.200177 0.223178,-0.573312 0.253412,-0.767483 l 0.01766,-0.113384 0.208363,-0.01786 c 0.232904,-0.01995 0.592276,0.01429 0.849611,0.08096 0.779786,0.202063 1.496377,0.853025 1.769284,1.60724 0.367004,1.014267 0.0942,2.128542 -0.699184,2.855908 -0.15573,0.142775 -0.459093,0.351603 -0.510922,0.351711 -0.01498,3.2e-5 -0.211438,-0.0892 -0.436519,-0.198295 z m -4.592322,-2.822747 c -0.717774,-0.563791 -0.933692,-0.745846 -1.532585,-1.292227 -0.599614,-0.547044 -0.755189,-0.698467 -0.734636,-0.715032 0.0064,-0.0052 0.12627,-0.04884 0.26636,-0.09707 0.850711,-0.292833 1.625443,-0.974019 1.968649,-1.730947 0.103774,-0.228842 0.207457,-0.585451 0.231516,-0.796193 0.03229,-0.282679 0.01816,-0.268914 0.255959,-0.249591 0.575667,0.04677 1.156685,0.297451 1.574456,0.679269 0.591564,0.540656 0.917891,1.399391 0.82952,2.182889 -0.03473,0.308094 -0.05945,0.409023 -0.168306,0.687865 -0.319444,0.818255 -1.04134,1.426545 -1.913116,1.612039 -0.335281,0.07136 -0.324097,0.07536 -0.777817,-0.281002 z m -2.856367,-2.578182 c -0.0405,-0.04877 -0.124514,-0.143913 -0.186689,-0.211438 -0.761947,-0.827511 -1.558991,-1.839994 -2.227403,-2.829478 l -0.327856,-0.485337 0.348176,-0.01837 c 0.656114,-0.03464 1.1491,-0.201968 1.688778,-0.573227 0.310803,-0.213812 0.575961,-0.491961 0.891255,-0.934925 0.03715,-0.05216 0.04251,-0.05232 0.260068,-0.0055 0.505221,0.10857 0.973597,0.36438 1.317062,0.719343 0.323039,0.333853 0.502438,0.625491 0.634204,1.030995 0.46144,1.420063 -0.387733,2.964782 -1.831094,3.330923 -0.367133,0.09313 -0.473694,0.08881 -0.566501,-0.02292 z M 19.593771,31.609096 C 19.293303,31.575172 19.272987,31.56679 19.196447,31.44556 18.99067,31.119596 18.34273,29.871653 18.149646,29.429411 18.11361,29.3469 18.042209,29.187278 17.990971,29.074738 c -0.16268,-0.357305 -0.470665,-1.140618 -0.470665,-1.197067 0,-0.08642 0.305411,-0.517994 0.510201,-0.720981 0.45867,-0.454642 1.04206,-0.710689 1.702779,-0.747345 0.575646,-0.03194 1.217584,0.154279 1.563293,0.453488 0.06923,0.05993 0.202433,0.163789 0.29601,0.230819 0.458999,0.328799 0.782686,0.95433 0.866386,1.67432 0.05268,0.45309 -0.04438,0.968932 -0.265433,1.410563 -0.323318,0.645978 -0.911164,1.13645 -1.602014,1.33665 -0.178392,0.0517 -0.766004,0.141463 -0.789208,0.120563 -0.0022,-0.0021 -0.09602,-0.01394 -0.208549,-0.02665 z m -2.381236,-4.567511 c -0.631641,-1.973524 -0.988757,-3.992519 -1.068781,-6.042463 l -0.01438,-0.368312 0.0673,0.08184 c 0.03702,0.04502 0.328845,0.431743 0.648517,0.859395 1.295312,1.732854 2.225065,2.899069 3.219674,4.03853 l 0.203054,0.232627 -0.371175,-4.84e-4 c -0.394091,-4.85e-4 -0.618527,0.03161 -0.971392,0.139424 -0.579804,0.177121 -1.155381,0.568546 -1.557979,1.059501 l -0.111372,0.13582 z"
     id="path1-5-2" />
  <path
     style="fill:#4d4d4d;fill-opacity:1;stroke-width:0.0852583"
     d="m 34.831011,45.364482 c -4.488375,-0.230355 -8.772858,-1.767379 -12.277098,-4.4043 -1.13638,-0.85512 -2.221674,-1.858098 -3.082913,-2.849077 -0.09004,-0.103587 -0.206008,-0.236226 -0.257728,-0.294733 -0.307454,-0.347824 -0.989053,-1.252886 -1.3591,-1.804675 -1.397602,-2.084023 -2.363411,-4.345932 -2.869866,-6.721199 -0.159396,-0.747556 -0.249178,-1.352604 -0.361195,-2.434067 -0.04877,-0.470958 -0.04827,-2.559987 9.43e-4,-3.05563 0.147137,-1.48764 0.324873,-2.434541 0.739498,-3.939689 0.09054,-0.328674 0.170914,-0.603886 0.17861,-0.61158 0.0076,-0.0076 0.01499,0.01569 0.01623,0.05194 0.001,0.03627 0.0068,0.09662 0.0122,0.134139 0.0054,0.03752 0.02989,0.276915 0.05427,0.532007 0.197183,2.063072 0.512282,3.602903 1.101883,5.384707 0.536282,1.620662 1.322105,3.31091 2.231729,4.800289 0.419936,0.68759 1.238562,1.848349 1.764062,2.501332 1.524592,1.894453 3.408049,3.631357 5.405559,4.984956 2.174086,1.473244 4.418137,2.557717 6.923577,3.345913 0.599459,0.18858 1.666209,0.487579 1.95686,0.548473 0.08252,0.01728 0.352622,0.07405 0.600211,0.12614 2.150553,0.452396 4.690018,0.664173 6.684193,0.557425 2.331377,-0.124797 3.907053,-0.371141 6.177686,-0.965828 0.43418,-0.113715 0.796352,-0.199153 0.804836,-0.189866 0.0085,0.0092 0.0031,0.02155 -0.01186,0.02726 -0.015,0.0057 -0.321927,0.204236 -0.682053,0.441192 -1.050134,0.690968 -1.701244,1.070617 -2.632758,1.535119 -2.174236,1.084192 -4.546961,1.805428 -6.997945,2.127151 -1.004303,0.13183 -1.539428,0.165657 -2.755525,0.174189 -0.64523,0.0046 -1.259085,0.0038 -1.36412,-0.0021 z m 5.89336,-3.73712 c 0.0713,-0.160358 0.208896,-0.614925 0.237269,-0.783881 0.05471,-0.325794 0.03897,-0.916717 -0.03234,-1.214769 -0.07613,-0.318147 -0.206,-0.65191 -0.352586,-0.906154 -0.06245,-0.108317 -0.09526,-0.188713 -0.07366,-0.180419 0.341557,0.131068 1.93995,0.594287 2.744592,0.795391 1.707028,0.426639 3.251413,0.690288 5.463307,0.932667 0.386386,0.04235 0.702523,0.08461 0.702523,0.09395 0,0.02027 -0.960749,0.305505 -1.555101,0.461702 -0.77418,0.203456 -2.085751,0.470304 -2.741881,0.557852 -0.190277,0.02539 -0.301734,0.0411 -0.491083,0.06915 -0.09002,0.01335 -0.292606,0.03753 -0.450162,0.05375 -0.157556,0.01621 -0.341714,0.03518 -0.409238,0.04213 -0.55416,0.0571 -1.334418,0.0987 -2.125781,0.113326 -0.917129,0.01696 -0.938457,0.01615 -0.915849,-0.03469 z m -1.159863,-0.0012 c -0.02252,-0.0043 -0.231215,-0.02075 -0.4638,-0.03666 -0.232581,-0.01592 -0.45357,-0.03404 -0.491085,-0.04022 -0.03751,-0.0063 -0.203254,-0.02504 -0.368313,-0.04192 -0.296353,-0.03029 -0.712799,-0.08753 -1.37776,-0.189355 -0.367616,-0.0563 -1.369824,-0.244255 -1.385397,-0.259826 -0.0052,-0.0052 0.04744,-0.09263 0.11701,-0.194255 0.259315,-0.378772 0.439459,-0.824289 0.51786,-1.280741 0.05225,-0.304187 0.05927,-0.741924 0.01546,-0.965144 -0.04787,-0.243951 -0.04313,-0.258564 0.124599,-0.385215 1.064291,-0.803545 2.584476,-0.671958 3.485768,0.301728 0.75214,0.812551 0.913778,1.982578 0.410976,2.974817 l -0.06864,0.135443 -0.237874,-0.0054 c -0.130832,-0.003 -0.256292,-0.0089 -0.278803,-0.01319 z m -4.815345,-0.738368 c -0.802744,-0.187441 -2.273934,-0.662557 -3.337125,-1.077705 l -0.499751,-0.195125 0.246741,-0.228698 c 0.525729,-0.487286 0.867134,-1.099453 0.99785,-1.789226 0.05541,-0.292431 0.07349,-0.608159 0.04755,-0.8306 l -0.0231,-0.198088 0.100969,-0.02718 c 0.277549,-0.07475 0.680712,-0.10868 0.943152,-0.07942 1.302964,0.145291 2.257033,1.122491 2.368867,2.426302 0.0365,0.425582 -0.08217,0.970061 -0.303365,1.391847 -0.114342,0.218034 -0.423636,0.630879 -0.4674,0.623889 -0.01089,-0.0019 -0.04437,-0.0089 -0.07438,-0.01591 z M 29.838324,39.12577 c -0.37413,-0.181334 -0.951279,-0.478387 -1.364121,-0.702099 -0.529952,-0.287167 -2.168956,-1.304809 -2.168956,-1.34668 0,-0.0067 0.08901,-0.04573 0.1978,-0.0868 0.836916,-0.315886 1.505542,-0.906293 1.883577,-1.663229 0.09998,-0.200177 0.223178,-0.573312 0.253412,-0.767483 l 0.01766,-0.113384 0.208363,-0.01786 c 0.232904,-0.01995 0.592276,0.01429 0.849611,0.08096 0.779786,0.202063 1.496377,0.853025 1.769284,1.60724 0.367004,1.014267 0.0942,2.128542 -0.699184,2.855908 -0.15573,0.142775 -0.459093,0.351603 -0.510922,0.351711 -0.01498,3.2e-5 -0.211438,-0.0892 -0.436519,-0.198295 z m -4.592322,-2.822747 c -0.717774,-0.563791 -0.933692,-0.745846 -1.532585,-1.292227 -0.599614,-0.547044 -0.755189,-0.698467 -0.734636,-0.715032 0.0064,-0.0052 0.12627,-0.04884 0.26636,-0.09707 0.850711,-0.292833 1.625443,-0.974019 1.968649,-1.730947 0.103774,-0.228842 0.207457,-0.585451 0.231516,-0.796193 0.03229,-0.282679 0.01816,-0.268914 0.255959,-0.249591 0.575667,0.04677 1.156685,0.297451 1.574456,0.679269 0.591564,0.540656 0.917891,1.399391 0.82952,2.182889 -0.03473,0.308094 -0.05945,0.409023 -0.168306,0.687865 -0.319444,0.818255 -1.04134,1.426545 -1.913116,1.612039 -0.335281,0.07136 -0.324097,0.07536 -0.777817,-0.281002 z m -2.856367,-2.578182 c -0.0405,-0.04877 -0.124514,-0.143913 -0.186689,-0.211438 -0.761947,-0.827511 -1.558991,-1.839994 -2.227403,-2.829478 l -0.327856,-0.485337 0.348176,-0.01837 c 0.656114,-0.03464 1.1491,-0.201968 1.688778,-0.573227 0.310803,-0.213812 0.575961,-0.491961 0.891255,-0.934925 0.03715,-0.05216 0.04251,-0.05232 0.260068,-0.0055 0.505221,0.10857 0.973597,0.36438 1.317062,0.719343 0.323039,0.333853 0.502438,0.625491 0.634204,1.030995 0.46144,1.420063 -0.387733,2.964782 -1.831094,3.330923 -0.367133,0.09313 -0.473694,0.08881 -0.566501,-0.02292 z M 19.593771,29.609096 C 19.293303,29.575172 19.272987,29.56679 19.196447,29.44556 18.99067,29.119596 18.34273,27.871653 18.149646,27.429411 18.11361,27.3469 18.042209,27.187278 17.990971,27.074738 c -0.16268,-0.357305 -0.470665,-1.140618 -0.470665,-1.197067 0,-0.08642 0.305411,-0.517994 0.510201,-0.720981 0.45867,-0.454642 1.04206,-0.710689 1.702779,-0.747345 0.575646,-0.03194 1.217584,0.154279 1.563293,0.453488 0.06923,0.05993 0.202433,0.163789 0.29601,0.230819 0.458999,0.328799 0.782686,0.95433 0.866386,1.67432 0.05268,0.45309 -0.04438,0.968932 -0.265433,1.410563 -0.323318,0.645978 -0.911164,1.13645 -1.602014,1.33665 -0.178392,0.0517 -0.766004,0.141463 -0.789208,0.120563 -0.0022,-0.0021 -0.09602,-0.01394 -0.208549,-0.02665 z m -2.381236,-4.567511 c -0.631641,-1.973524 -0.988757,-3.992519 -1.068781,-6.042463 l -0.01438,-0.368312 0.0673,0.08184 c 0.03702,0.04502 0.328845,0.431743 0.648517,0.859395 1.295312,1.732854 2.225065,2.899069 3.219674,4.03853 l 0.203054,0.232627 -0.371175,-4.84e-4 c -0.394091,-4.85e-4 -0.618527,0.03161 -0.971392,0.139424 -0.579804,0.177121 -1.155381,0.568546 -1.557979,1.059501 l -0.111372,0.13582 z"
     id="path1-5" />
</svg>
