<?xml version="1.0" encoding="UTF-8" standalone="no"?>
<svg
   width="64"
   height="64"
   version="1.1"
   id="svg73"
   sodipodi:docname="abcd.svg"
   inkscape:version="1.4.2 (ebf0e940d0, 2025-05-08)"
   xmlns:inkscape="http://www.inkscape.org/namespaces/inkscape"
   xmlns:sodipodi="http://sodipodi.sourceforge.net/DTD/sodipodi-0.dtd"
   xmlns:xlink="http://www.w3.org/1999/xlink"
   xmlns="http://www.w3.org/2000/svg"
   xmlns:svg="http://www.w3.org/2000/svg"
   xmlns:rdf="http://www.w3.org/1999/02/22-rdf-syntax-ns#"
   xmlns:cc="http://creativecommons.org/ns#"
   xmlns:dc="http://purl.org/dc/elements/1.1/">
  <metadata
     id="metadata77">
    <rdf:RDF>
      <cc:Work
         rdf:about="">
        <dc:format>image/svg+xml</dc:format>
        <dc:type
           rdf:resource="http://purl.org/dc/dcmitype/StillImage" />
      </cc:Work>
    </rdf:RDF>
  </metadata>
  <sodipodi:namedview
     pagecolor="#f5f7fa"
     bordercolor="#666666"
     borderopacity="1"
     objecttolerance="10"
     gridtolerance="10"
     guidetolerance="10"
     inkscape:pageopacity="0"
     inkscape:pageshadow="2"
     inkscape:window-width="1263"
     inkscape:window-height="693"
     id="namedview75"
     showgrid="false"
     inkscape:zoom="4.4470387"
     inkscape:cx="36.091433"
     inkscape:cy="29.682674"
     inkscape:window-x="24"
     inkscape:window-y="21"
     inkscape:window-maximized="0"
     inkscape:current-layer="svg73"
     inkscape:document-rotation="0"
     inkscape:pagecheckerboard="0"
     inkscape:showpageshadow="2"
     inkscape:deskcolor="#d1d1d1" />
  <defs
     id="defs29">
    <linearGradient
       id="linearGradient4"
       inkscape:collect="always">
      <stop
         style="stop-color:#ac905e;stop-opacity:1;"
         offset="0"
         id="stop4" />
      <stop
         style="stop-color:#c1aa81;stop-opacity:1;"
         offset="0.5"
         id="stop1" />
    </linearGradient>
    <linearGradient
       id="linearGradient2"
       inkscape:collect="always">
      <stop
         style="stop-color:#f4f1ec;stop-opacity:1;"
         offset="0"
         id="stop2" />
      <stop
         style="stop-color:#e9e3d8;stop-opacity:1;"
         offset="1"
         id="stop3" />
    </linearGradient>
    <linearGradient
       inkscape:collect="always"
       xlink:href="#linearGradient2"
       id="linearGradient8"
       x1="31.721739"
       y1="5.2278585"
       x2="31.88887"
       y2="59.145416"
       gradientUnits="userSpaceOnUse"
       gradientTransform="matrix(0.8505,0,0,0.8505,4.7765033,4.7794869)" />
    <filter
       style="color-interpolation-filters:sRGB;"
       inkscape:label="Blur"
       id="filter9"
       x="-0.047762285"
       y="-0.047489063"
       width="1.0955246"
       height="1.0949781">
      <feGaussianBlur
         stdDeviation="1 1"
         result="blur"
         id="feGaussianBlur9" />
    </filter>
    <linearGradient
       inkscape:collect="always"
       xlink:href="#linearGradient4"
       id="linearGradient7"
       x1="26.723248"
       y1="58.711765"
       x2="25.756926"
       y2="5.950614"
       gradientUnits="userSpaceOnUse" />
    <filter
       style="color-interpolation-filters:sRGB;"
       inkscape:label="Out of Focus"
       id="filter40"
       x="-0.24226652"
       y="-0.2858297"
       width="1.484533"
       height="1.5716594">
      <feFlood
         flood-opacity="1"
         flood-color="rgb(255,255,255)"
         result="flood"
         id="feFlood38" />
      <feColorMatrix
         in="SourceGraphic"
         values="1 0 0 0 0 0 1 0 0 0 0 0 1 0 0 -0.2125 -0.7154 -0.0721 1 0 "
         result="colormatrix1"
         id="feColorMatrix38" />
      <feGaussianBlur
         in="colormatrix1"
         stdDeviation="3 3"
         result="blur"
         id="feGaussianBlur38" />
      <feColorMatrix
         in="blur"
         values="1 0 0 0 0 0 1 0 0 0 0 0 1 0 0 0 0 0 6 -2 "
         result="colormatrix2"
         id="feColorMatrix39" />
      <feBlend
         in="colormatrix2"
         in2="flood"
         mode="normal"
         result="blend"
         id="feBlend39" />
      <feComposite
         in="blend"
         in2="blend"
         operator="arithmetic"
         k2="0.2"
         result="composite1"
         id="feComposite39" />
      <feComposite
         in2="SourceGraphic"
         operator="in"
         id="feComposite40" />
    </filter>
  </defs>
  <g
     id="g877"
     transform="matrix(1.1,0,0,1.1,-3.1845928,-3.2065454)">
    <ellipse
       style="opacity:0.5;fill:#000000;stroke:none;stroke-width:3.89319;stroke-dasharray:none;stroke-opacity:1;filter:url(#filter9)"
       id="path2-5"
       cx="31.949858"
       cy="31.969812"
       rx="25.124426"
       ry="25.268976"
       transform="matrix(1.05,0,0,1.05,-1.5974929,-1.5984906)" />
    <path
       style="fill:#f5f7fa;stroke-width:0.204426;fill-opacity:1"
       d=""
       id="path3" />
    <circle
       style="opacity:1;fill:url(#linearGradient8);stroke:url(#linearGradient7);stroke-width:3.81818;stroke-dasharray:none;stroke-opacity:1"
       id="path2"
       cx="31.949856"
       cy="31.969812"
       r="24.711082" />
    <ellipse
       style="opacity:0.3;fill:none;stroke:#000000;stroke-width:0.974376;stroke-dasharray:none;stroke-opacity:1"
       id="path2-9"
       cx="31.949856"
       cy="31.969812"
       rx="23.129124"
       ry="23.129126" />
  </g>
  <path
     id="path30-1"
     style="fill:#000000;fill-opacity:1;stroke:none;stroke-width:0.491164;stroke-dasharray:none;stroke-opacity:0.6;opacity:0.2"
     d="m 32.114996,18.647295 c -3.525508,0 -6.05411,0.04469 -6.279605,0.109362 -0.463531,0.13294 -0.94438,0.574873 -1.260526,1.160759 -0.227647,0.421886 -0.238673,0.599775 -0.270522,3.948496 l -0.03452,3.507215 -2.893262,0.002 c -1.770236,3.76e-4 -3.064263,0.04621 -3.334548,0.120873 -1.784373,0.492952 -2.1507,3.642433 -0.569826,4.898207 l 0.424012,0.335755 3.192564,0.0326 3.192565,0.0326 v 2.797331 c 0,2.968141 0.05701,3.377723 0.558315,4.019484 0.127404,0.163093 0.415711,0.409611 0.638896,0.546806 l 0.404829,0.249433 6.248905,-0.02904 6.248911,-0.02904 0.393313,-0.299287 c 0.216759,-0.165353 0.524878,-0.561369 0.683024,-0.878727 l 0.287775,-0.5775 v -2.904289 -2.904772 h 3.029483 c 1.872388,0 3.148172,-0.04445 3.3403,-0.117036 0.420057,-0.158708 0.888476,-0.618268 1.176107,-1.153082 0.192829,-0.358568 0.237923,-0.628339 0.237923,-1.435119 0,-1.070343 -0.187059,-1.611007 -0.734828,-2.121981 -0.582859,-0.543687 -0.869698,-0.585179 -4.063616,-0.585179 H 39.74531 v -3.417056 c 0,-2.128409 -0.04434,-3.532252 -0.117021,-3.725939 -0.219363,-0.584803 -0.680935,-1.13159 -1.145412,-1.356442 -0.44925,-0.21751 -0.657197,-0.226398 -6.367864,-0.226398 z m 0.02686,1.243258 3.716346,0.02687 0.424011,0.343431 c 0.233056,0.188698 0.548137,0.585137 0.700275,0.880626 l 0.276279,0.537208 0.03645,4.973035 c 0.02431,3.379323 -0.0024,5.155284 -0.08634,5.53902 -0.160353,0.734559 -0.60007,1.399156 -1.11469,1.688389 -0.394387,0.221619 -0.561421,0.232549 -4.096231,0.232153 -3.433026,-3.86e-4 -3.7085,-0.01631 -4.030996,-0.212967 -0.408761,-0.249251 -0.834989,-0.794193 -1.041804,-1.333432 -0.191038,-0.498103 -0.288426,-9.350879 -0.115116,-10.464091 0.140833,-0.904604 0.581427,-1.647705 1.176107,-1.987678 0.434156,-0.248199 0.469823,-0.250437 4.155704,-0.222562 z m -0.147733,2.281227 c -0.286398,0.0065 -0.562981,0.08263 -0.638897,0.224476 -0.07342,0.137179 -0.115117,1.814252 -0.115117,4.68716 v 4.474195 l 0.245585,0.172676 c 0.351652,0.2463 0.893639,0.216804 1.145408,-0.06139 0.199567,-0.220519 0.211047,-0.459988 0.211047,-4.675648 0,-3.604769 -0.02863,-4.479551 -0.151571,-4.627685 -0.114064,-0.137442 -0.410056,-0.200424 -0.696455,-0.193775 z M 17.986387,42.505192 v 3.422795 3.424717 h 0.552559 0.552559 v -3.424717 -3.422795 h -0.552577 z m 3.534076,0 v 2.872155 2.870241 h 0.552557 0.55256 v -2.870241 -2.872155 h -0.552576 z m 3.424716,0 v 2.3196 2.319591 h 0.552541 0.550641 v -2.319591 -2.3196 H 25.49772 Z m 3.534076,0 v 1.767035 1.767039 h 0.49692 0.496921 v -1.767039 -1.767035 h -0.496939 z m 3.422798,0 v 3.422795 3.424717 h 0.552543 0.552557 v -3.424717 -3.422795 h -0.55256 z m 3.535995,0 v 1.767035 1.767039 h 0.496919 0.49692 V 44.272227 42.505192 H 35.93495 Z m 3.4228,0 v 2.3196 2.319591 h 0.552556 0.55256 v -2.319591 -2.3196 h -0.55256 z m 2.651513,0 v 2.872155 2.870241 h 0.496923 0.496918 v -2.870241 -2.872155 h -0.496921 z m 3.422799,0 v 3.422795 3.424717 h 0.552561 0.552556 v -3.424717 -3.422795 h -0.552556 z" />
  <path
     id="path30"
     style="fill:#4d4d4d;fill-opacity:1;stroke:none;stroke-width:0.491164;stroke-dasharray:none;stroke-opacity:0.6"
     d="m 32.114996,16.647295 c -3.525508,0 -6.05411,0.04469 -6.279605,0.109362 -0.463531,0.13294 -0.94438,0.574873 -1.260526,1.160759 -0.227647,0.421886 -0.238673,0.599775 -0.270522,3.948496 l -0.03452,3.507215 -2.893262,0.002 c -1.770236,3.76e-4 -3.064263,0.04621 -3.334548,0.120873 -1.784373,0.492952 -2.1507,3.642433 -0.569826,4.898207 l 0.424012,0.335755 3.192564,0.0326 3.192565,0.0326 v 2.797331 c 0,2.968141 0.05701,3.377723 0.558315,4.019484 0.127404,0.163093 0.415711,0.409611 0.638896,0.546806 l 0.404829,0.249433 6.248905,-0.02904 6.248911,-0.02904 0.393313,-0.299287 c 0.216759,-0.165353 0.524878,-0.561369 0.683024,-0.878727 l 0.287775,-0.5775 v -2.904289 -2.904772 h 3.029483 c 1.872388,0 3.148172,-0.04445 3.3403,-0.117036 0.420057,-0.158708 0.888476,-0.618268 1.176107,-1.153082 0.192829,-0.358568 0.237923,-0.628339 0.237923,-1.435119 0,-1.070343 -0.187059,-1.611007 -0.734828,-2.121981 -0.582859,-0.543687 -0.869698,-0.585179 -4.063616,-0.585179 H 39.74531 v -3.417056 c 0,-2.128409 -0.04434,-3.532252 -0.117021,-3.725939 -0.219363,-0.584803 -0.680935,-1.13159 -1.145412,-1.356442 -0.44925,-0.21751 -0.657197,-0.226398 -6.367864,-0.226398 z m 0.02686,1.243258 3.716346,0.02687 0.424011,0.343431 c 0.233056,0.188698 0.548137,0.585137 0.700275,0.880626 l 0.276279,0.537208 0.03645,4.973035 c 0.02431,3.379323 -0.0024,5.155284 -0.08634,5.53902 -0.160353,0.734559 -0.60007,1.399156 -1.11469,1.688389 -0.394387,0.221619 -0.561421,0.232549 -4.096231,0.232153 -3.433026,-3.86e-4 -3.7085,-0.01631 -4.030996,-0.212967 -0.408761,-0.249251 -0.834989,-0.794193 -1.041804,-1.333432 -0.191038,-0.498103 -0.288426,-9.350879 -0.115116,-10.464091 0.140833,-0.904604 0.581427,-1.647705 1.176107,-1.987678 0.434156,-0.248199 0.469823,-0.250437 4.155704,-0.222562 z m -0.147733,2.281227 c -0.286398,0.0065 -0.562981,0.08263 -0.638897,0.224476 -0.07342,0.137179 -0.115117,1.814252 -0.115117,4.68716 v 4.474195 l 0.245585,0.172676 c 0.351652,0.2463 0.893639,0.216804 1.145408,-0.06139 0.199567,-0.220519 0.211047,-0.459988 0.211047,-4.675648 0,-3.604769 -0.02863,-4.479551 -0.151571,-4.627685 -0.114064,-0.137442 -0.410056,-0.200424 -0.696455,-0.193775 z M 17.986387,40.505192 v 3.422795 3.424717 h 0.552559 0.552559 v -3.424717 -3.422795 h -0.552577 z m 3.534076,0 v 2.872155 2.870241 h 0.552557 0.55256 v -2.870241 -2.872155 h -0.552576 z m 3.424716,0 v 2.3196 2.319591 h 0.552541 0.550641 v -2.319591 -2.3196 H 25.49772 Z m 3.534076,0 v 1.767035 1.767039 h 0.49692 0.496921 v -1.767039 -1.767035 h -0.496939 z m 3.422798,0 v 3.422795 3.424717 h 0.552543 0.552557 v -3.424717 -3.422795 h -0.55256 z m 3.535995,0 v 1.767035 1.767039 h 0.496919 0.49692 V 42.272227 40.505192 H 35.93495 Z m 3.4228,0 v 2.3196 2.319591 h 0.552556 0.55256 v -2.319591 -2.3196 h -0.55256 z m 2.651513,0 v 2.872155 2.870241 h 0.496923 0.496918 v -2.870241 -2.872155 h -0.496921 z m 3.422799,0 v 3.422795 3.424717 h 0.552561 0.552556 v -3.424717 -3.422795 h -0.552556 z" />
</svg>
