<?xml version="1.0" encoding="UTF-8" standalone="no"?>
<svg
   width="64"
   height="64"
   version="1.1"
   id="svg73"
   sodipodi:docname="abcd.svg"
   inkscape:version="1.4.2 (ebf0e940d0, 2025-05-08)"
   xmlns:inkscape="http://www.inkscape.org/namespaces/inkscape"
   xmlns:sodipodi="http://sodipodi.sourceforge.net/DTD/sodipodi-0.dtd"
   xmlns:xlink="http://www.w3.org/1999/xlink"
   xmlns="http://www.w3.org/2000/svg"
   xmlns:svg="http://www.w3.org/2000/svg"
   xmlns:rdf="http://www.w3.org/1999/02/22-rdf-syntax-ns#"
   xmlns:cc="http://creativecommons.org/ns#"
   xmlns:dc="http://purl.org/dc/elements/1.1/">
  <metadata
     id="metadata77">
    <rdf:RDF>
      <cc:Work
         rdf:about="">
        <dc:format>image/svg+xml</dc:format>
        <dc:type
           rdf:resource="http://purl.org/dc/dcmitype/StillImage" />
      </cc:Work>
    </rdf:RDF>
  </metadata>
  <sodipodi:namedview
     pagecolor="#f5f7fa"
     bordercolor="#666666"
     borderopacity="1"
     objecttolerance="10"
     gridtolerance="10"
     guidetolerance="10"
     inkscape:pageopacity="0"
     inkscape:pageshadow="2"
     inkscape:window-width="1263"
     inkscape:window-height="693"
     id="namedview75"
     showgrid="false"
     inkscape:zoom="4.4470387"
     inkscape:cx="36.091433"
     inkscape:cy="29.682674"
     inkscape:window-x="24"
     inkscape:window-y="21"
     inkscape:window-maximized="0"
     inkscape:current-layer="svg73"
     inkscape:document-rotation="0"
     inkscape:pagecheckerboard="0"
     inkscape:showpageshadow="2"
     inkscape:deskcolor="#d1d1d1" />
  <defs
     id="defs29">
    <linearGradient
       id="linearGradient4"
       inkscape:collect="always">
      <stop
         style="stop-color:#ac905e;stop-opacity:1;"
         offset="0"
         id="stop4" />
      <stop
         style="stop-color:#c1aa81;stop-opacity:1;"
         offset="0.5"
         id="stop1" />
    </linearGradient>
    <linearGradient
       id="linearGradient2"
       inkscape:collect="always">
      <stop
         style="stop-color:#f4f1ec;stop-opacity:1;"
         offset="0"
         id="stop2" />
      <stop
         style="stop-color:#e9e3d8;stop-opacity:1;"
         offset="1"
         id="stop3" />
    </linearGradient>
    <linearGradient
       inkscape:collect="always"
       xlink:href="#linearGradient2"
       id="linearGradient8"
       x1="31.721739"
       y1="5.2278585"
       x2="31.88887"
       y2="59.145416"
       gradientUnits="userSpaceOnUse"
       gradientTransform="matrix(0.8505,0,0,0.8505,4.7765033,4.7794869)" />
    <filter
       style="color-interpolation-filters:sRGB;"
       inkscape:label="Blur"
       id="filter9"
       x="-0.047762285"
       y="-0.047489063"
       width="1.0955246"
       height="1.0949781">
      <feGaussianBlur
         stdDeviation="1 1"
         result="blur"
         id="feGaussianBlur9" />
    </filter>
    <linearGradient
       inkscape:collect="always"
       xlink:href="#linearGradient4"
       id="linearGradient7"
       x1="26.723248"
       y1="58.711765"
       x2="25.756926"
       y2="5.950614"
       gradientUnits="userSpaceOnUse" />
    <filter
       style="color-interpolation-filters:sRGB;"
       inkscape:label="Out of Focus"
       id="filter40"
       x="-0.24226652"
       y="-0.2858297"
       width="1.484533"
       height="1.5716594">
      <feFlood
         flood-opacity="1"
         flood-color="rgb(255,255,255)"
         result="flood"
         id="feFlood38" />
      <feColorMatrix
         in="SourceGraphic"
         values="1 0 0 0 0 0 1 0 0 0 0 0 1 0 0 -0.2125 -0.7154 -0.0721 1 0 "
         result="colormatrix1"
         id="feColorMatrix38" />
      <feGaussianBlur
         in="colormatrix1"
         stdDeviation="3 3"
         result="blur"
         id="feGaussianBlur38" />
      <feColorMatrix
         in="blur"
         values="1 0 0 0 0 0 1 0 0 0 0 0 1 0 0 0 0 0 6 -2 "
         result="colormatrix2"
         id="feColorMatrix39" />
      <feBlend
         in="colormatrix2"
         in2="flood"
         mode="normal"
         result="blend"
         id="feBlend39" />
      <feComposite
         in="blend"
         in2="blend"
         operator="arithmetic"
         k2="0.2"
         result="composite1"
         id="feComposite39" />
      <feComposite
         in2="SourceGraphic"
         operator="in"
         id="feComposite40" />
    </filter>
  </defs>
  <g
     id="g877"
     transform="matrix(1.1,0,0,1.1,-3.1845928,-3.2065454)">
    <ellipse
       style="opacity:0.5;fill:#000000;stroke:none;stroke-width:3.89319;stroke-dasharray:none;stroke-opacity:1;filter:url(#filter9)"
       id="path2-5"
       cx="31.949858"
       cy="31.969812"
       rx="25.124426"
       ry="25.268976"
       transform="matrix(1.05,0,0,1.05,-1.5974929,-1.5984906)" />
    <path
       style="fill:#f5f7fa;stroke-width:0.204426;fill-opacity:1"
       d=""
       id="path3" />
    <circle
       style="opacity:1;fill:url(#linearGradient8);stroke:url(#linearGradient7);stroke-width:3.81818;stroke-dasharray:none;stroke-opacity:1"
       id="path2"
       cx="31.949856"
       cy="31.969812"
       r="24.711082" />
    <ellipse
       style="opacity:0.3;fill:none;stroke:#000000;stroke-width:0.974376;stroke-dasharray:none;stroke-opacity:1"
       id="path2-9"
       cx="31.949856"
       cy="31.969812"
       rx="23.129124"
       ry="23.129126" />
  </g>
  <path
     id="path5-9-7"
     style="fill:#000000;fill-opacity:1;stroke:none;stroke-width:0.491164;stroke-dasharray:none;stroke-opacity:0.6;opacity:0.2"
     d="m 31.431584,18.107263 -0.847592,0.478342 c -4.773664,2.699156 -7.367393,6.031945 -8.119253,10.429851 -0.197413,1.154754 -0.240856,2.784272 -0.09092,3.444911 0.430875,1.898419 1.477913,3.774605 2.793136,5.004428 1.984376,1.855522 5.05148,2.446041 7.27306,1.400064 0.725064,-0.341387 1.545762,-1.186576 1.760921,-1.812669 0.34583,-1.006341 0.122054,-2.563408 -0.457365,-3.17777 -0.237359,-0.251675 -0.345704,-0.298632 -0.674155,-0.297916 -0.227585,5.08e-4 -0.589345,0.09305 -0.867174,0.222387 -0.63167,0.294038 -0.972716,0.295586 -1.046202,0.0025 -0.07278,-0.289953 0.180249,-0.692665 0.80843,-1.286772 0.708566,-0.670133 1.16366,-0.855969 2.0966,-0.855982 0.663548,-1.1e-5 0.825377,0.03314 1.293766,0.267147 0.76863,0.383972 1.699016,1.344465 2.117576,2.184713 0.500604,1.004941 0.639298,1.642643 0.637789,2.941393 -0.0015,1.285904 -0.130961,1.87352 -0.665763,3.018328 -1.45688,3.118733 -5.202955,5.541974 -9.060552,5.8618 -2.417511,0.200423 -6.009656,-0.843019 -8.723478,-2.534377 -0.392329,-0.244539 -0.727359,-0.429012 -0.745489,-0.41121 -0.01815,0.01789 0.228125,0.365155 0.546879,0.772071 0.634046,0.809363 1.981027,2.168048 2.717606,2.741382 2.280178,1.774826 5.168883,2.96654 7.989179,3.295261 0.351218,0.04091 1.090867,0.07898 1.643431,0.08532 l 1.004243,0.01214 0.822414,-0.461563 c 4.43317,-2.48483 7.030857,-5.730198 7.929037,-9.909537 0.155939,-0.725543 0.19489,-1.214694 0.198635,-2.425293 0.0044,-1.435554 -0.0084,-1.555055 -0.248958,-2.272831 -0.627924,-1.874564 -1.721917,-3.540949 -2.984784,-4.546641 -0.675735,-0.538128 -1.957608,-1.171452 -2.821107,-1.393072 -0.824056,-0.211496 -2.295746,-0.21644 -3.058881,-0.0099 -2.091796,0.566438 -3.161229,1.94644 -2.902232,3.744229 0.137531,0.954666 0.47155,1.640356 0.883957,1.81267 0.374236,0.156361 0.642614,0.117609 1.414052,-0.204204 0.421543,-0.175848 0.569651,-0.201535 0.735697,-0.125878 0.305435,0.139166 0.258516,0.417311 -0.160845,0.960884 -0.702619,0.910723 -1.568788,1.381069 -2.539978,1.380481 -0.696698,-4.23e-4 -1.1353,-0.120413 -1.664411,-0.455965 -1.896384,-1.20265 -2.849772,-3.788177 -2.330177,-6.316376 0.715461,-3.481217 4.129614,-6.446052 8.453535,-7.340196 1.748231,-0.361519 4.038027,-0.124567 6.281408,0.648981 1.091251,0.376282 2.764934,1.169347 3.619744,1.716161 0.283894,0.181604 0.5371,0.309091 0.563664,0.282533 0.0832,-0.0832 -0.911528,-1.309019 -1.732947,-2.135765 -2.936126,-2.955146 -6.751614,-4.617077 -10.817281,-4.710667 z m -2.233668,0.248957 c -0.01929,-0.0065 -0.06421,-0.0015 -0.13008,0.01121 -6.076553,1.186404 -11.001493,5.841897 -12.483087,11.800528 -0.361432,1.453594 -0.465422,2.342432 -0.461559,3.942838 0.0053,2.114267 0.37201,3.945195 1.19306,5.959716 l 0.376241,0.921713 0.851788,0.641987 c 2.571327,1.936959 5.37379,3.111972 8.294088,3.477088 1.116379,0.139569 2.881464,-0.115367 4.279917,-0.618209 2.547259,-0.915916 4.827426,-2.918583 5.712146,-5.019812 0.717542,-1.704172 0.695255,-3.37299 -0.06434,-4.917706 -0.373325,-0.759219 -1.108681,-1.557255 -1.721752,-1.870018 -0.549772,-0.280474 -1.286727,-0.324378 -1.741337,-0.102102 l -0.356661,0.174833 0.268541,0.0099 c 1.032395,0.03541 1.779706,1.092976 1.959534,2.77217 0.283235,2.644801 -1.950057,4.633773 -5.204436,4.633773 -2.190114,0 -3.988839,-0.763133 -5.583473,-2.367934 -1.352632,-1.361258 -2.195219,-2.846639 -2.686835,-4.737281 -0.387426,-1.489927 -0.265191,-3.664651 0.323087,-5.759707 0.950788,-3.386052 3.136862,-6.211276 6.555548,-8.471716 0.508142,-0.335983 0.677527,-0.461275 0.619607,-0.481141 z m 7.271659,4.618397 c -0.657438,-0.0068 -1.293351,0.05024 -1.897985,0.173436 -3.185681,0.649203 -5.9535,2.673315 -7.194736,5.26178 -0.815545,1.700733 -0.831721,3.542237 -0.04615,5.138697 0.368896,0.749693 1.141328,1.571537 1.772108,1.885403 0.488912,0.243272 1.315242,0.28512 1.696581,0.0853 l 0.237774,-0.12448 -0.460161,-0.118889 c -0.870852,-0.22319 -1.391119,-1.016622 -1.616859,-2.468643 -0.205568,-1.322277 0.173827,-2.53545 1.067183,-3.408547 0.617971,-0.603957 1.336844,-1.002864 2.298008,-1.275584 1.064999,-0.302185 2.722545,-0.281397 3.830945,0.04896 2.213546,0.659733 3.821779,1.948332 5.10233,4.088298 0.875197,1.462565 1.362295,3.110044 1.362295,4.605807 0,4.894984 -2.427104,9.259867 -6.754149,12.144615 -0.379722,0.253144 -0.731416,0.499011 -0.780456,0.546876 -0.05844,0.057 -0.02737,0.07071 0.08953,0.03915 0.09809,-0.02633 0.518858,-0.133156 0.935707,-0.237722 2.869459,-0.720358 5.953833,-2.685595 7.929039,-5.052003 3.763498,-4.508887 4.8135,-10.163756 2.903627,-15.63148 -0.504753,-1.445067 -0.65052,-1.677519 -1.391674,-2.229499 -2.971616,-2.213144 -6.234021,-3.441429 -9.082935,-3.47149 z" />
  <path
     id="path5-9"
     style="fill:#4d4d4d;fill-opacity:1;stroke:none;stroke-width:0.491164;stroke-dasharray:none;stroke-opacity:0.6"
     d="m 31.431584,16.107263 -0.847592,0.478342 c -4.773664,2.699156 -7.367393,6.031945 -8.119253,10.429851 -0.197413,1.154754 -0.240856,2.784272 -0.09092,3.444911 0.430875,1.898419 1.477913,3.774605 2.793136,5.004428 1.984376,1.855522 5.05148,2.446041 7.27306,1.400064 0.725064,-0.341387 1.545762,-1.186576 1.760921,-1.812669 0.34583,-1.006341 0.122054,-2.563408 -0.457365,-3.17777 -0.237359,-0.251675 -0.345704,-0.298632 -0.674155,-0.297916 -0.227585,5.08e-4 -0.589345,0.09305 -0.867174,0.222387 -0.63167,0.294038 -0.972716,0.295586 -1.046202,0.0025 -0.07278,-0.289953 0.180249,-0.692665 0.80843,-1.286772 0.708566,-0.670133 1.16366,-0.855969 2.0966,-0.855982 0.663548,-1.1e-5 0.825377,0.03314 1.293766,0.267147 0.76863,0.383972 1.699016,1.344465 2.117576,2.184713 0.500604,1.004941 0.639298,1.642643 0.637789,2.941393 -0.0015,1.285904 -0.130961,1.87352 -0.665763,3.018328 -1.45688,3.118733 -5.202955,5.541974 -9.060552,5.8618 -2.417511,0.200423 -6.009656,-0.843019 -8.723478,-2.534377 -0.392329,-0.244539 -0.727359,-0.429012 -0.745489,-0.41121 -0.01815,0.01789 0.228125,0.365155 0.546879,0.772071 0.634046,0.809363 1.981027,2.168048 2.717606,2.741382 2.280178,1.774826 5.168883,2.96654 7.989179,3.295261 0.351218,0.04091 1.090867,0.07898 1.643431,0.08532 l 1.004243,0.01214 0.822414,-0.461563 c 4.43317,-2.48483 7.030857,-5.730198 7.929037,-9.909537 0.155939,-0.725543 0.19489,-1.214694 0.198635,-2.425293 0.0044,-1.435554 -0.0084,-1.555055 -0.248958,-2.272831 -0.627924,-1.874564 -1.721917,-3.540949 -2.984784,-4.546641 -0.675735,-0.538128 -1.957608,-1.171452 -2.821107,-1.393072 -0.824056,-0.211496 -2.295746,-0.21644 -3.058881,-0.0099 -2.091796,0.566438 -3.161229,1.94644 -2.902232,3.744229 0.137531,0.954666 0.47155,1.640356 0.883957,1.81267 0.374236,0.156361 0.642614,0.117609 1.414052,-0.204204 0.421543,-0.175848 0.569651,-0.201535 0.735697,-0.125878 0.305435,0.139166 0.258516,0.417311 -0.160845,0.960884 -0.702619,0.910723 -1.568788,1.381069 -2.539978,1.380481 -0.696698,-4.23e-4 -1.1353,-0.120413 -1.664411,-0.455965 -1.896384,-1.20265 -2.849772,-3.788177 -2.330177,-6.316376 0.715461,-3.481217 4.129614,-6.446052 8.453535,-7.340196 1.748231,-0.361519 4.038027,-0.124567 6.281408,0.648981 1.091251,0.376282 2.764934,1.169347 3.619744,1.716161 0.283894,0.181604 0.5371,0.309091 0.563664,0.282533 0.0832,-0.0832 -0.911528,-1.309019 -1.732947,-2.135765 -2.936126,-2.955146 -6.751614,-4.617077 -10.817281,-4.710667 z m -2.233668,0.248957 c -0.01929,-0.0065 -0.06421,-0.0015 -0.13008,0.01121 -6.076553,1.186404 -11.001493,5.841897 -12.483087,11.800528 -0.361432,1.453594 -0.465422,2.342432 -0.461559,3.942838 0.0053,2.114267 0.37201,3.945195 1.19306,5.959716 l 0.376241,0.921713 0.851788,0.641987 c 2.571327,1.936959 5.37379,3.111972 8.294088,3.477088 1.116379,0.139569 2.881464,-0.115367 4.279917,-0.618209 2.547259,-0.915916 4.827426,-2.918583 5.712146,-5.019812 0.717542,-1.704172 0.695255,-3.37299 -0.06434,-4.917706 -0.373325,-0.759219 -1.108681,-1.557255 -1.721752,-1.870018 -0.549772,-0.280474 -1.286727,-0.324378 -1.741337,-0.102102 l -0.356661,0.174833 0.268541,0.0099 c 1.032395,0.03541 1.779706,1.092976 1.959534,2.77217 0.283235,2.644801 -1.950057,4.633773 -5.204436,4.633773 -2.190114,0 -3.988839,-0.763133 -5.583473,-2.367934 -1.352632,-1.361258 -2.195219,-2.846639 -2.686835,-4.737281 -0.387426,-1.489927 -0.265191,-3.664651 0.323087,-5.759707 0.950788,-3.386052 3.136862,-6.211276 6.555548,-8.471716 0.508142,-0.335983 0.677527,-0.461275 0.619607,-0.481141 z m 7.271659,4.618397 c -0.657438,-0.0068 -1.293351,0.05024 -1.897985,0.173436 -3.185681,0.649203 -5.9535,2.673315 -7.194736,5.26178 -0.815545,1.700733 -0.831721,3.542237 -0.04615,5.138697 0.368896,0.749693 1.141328,1.571537 1.772108,1.885403 0.488912,0.243272 1.315242,0.28512 1.696581,0.0853 l 0.237774,-0.12448 -0.460161,-0.118889 c -0.870852,-0.22319 -1.391119,-1.016622 -1.616859,-2.468643 -0.205568,-1.322277 0.173827,-2.53545 1.067183,-3.408547 0.617971,-0.603957 1.336844,-1.002864 2.298008,-1.275584 1.064999,-0.302185 2.722545,-0.281397 3.830945,0.04896 2.213546,0.659733 3.821779,1.948332 5.10233,4.088298 0.875197,1.462565 1.362295,3.110044 1.362295,4.605807 0,4.894984 -2.427104,9.259867 -6.754149,12.144615 -0.379722,0.253144 -0.731416,0.499011 -0.780456,0.546876 -0.05844,0.057 -0.02737,0.07071 0.08953,0.03915 0.09809,-0.02633 0.518858,-0.133156 0.935707,-0.237722 2.869459,-0.720358 5.953833,-2.685595 7.929039,-5.052003 3.763498,-4.508887 4.8135,-10.163756 2.903627,-15.63148 -0.504753,-1.445067 -0.65052,-1.677519 -1.391674,-2.229499 -2.971616,-2.213144 -6.234021,-3.441429 -9.082935,-3.47149 z" />
</svg>
