<?xml version="1.0" encoding="UTF-8" standalone="no"?>
<svg
   width="64"
   height="64"
   version="1.1"
   id="svg73"
   sodipodi:docname="abcd.svg"
   inkscape:version="1.4.2 (ebf0e940d0, 2025-05-08)"
   xmlns:inkscape="http://www.inkscape.org/namespaces/inkscape"
   xmlns:sodipodi="http://sodipodi.sourceforge.net/DTD/sodipodi-0.dtd"
   xmlns:xlink="http://www.w3.org/1999/xlink"
   xmlns="http://www.w3.org/2000/svg"
   xmlns:svg="http://www.w3.org/2000/svg"
   xmlns:rdf="http://www.w3.org/1999/02/22-rdf-syntax-ns#"
   xmlns:cc="http://creativecommons.org/ns#"
   xmlns:dc="http://purl.org/dc/elements/1.1/">
  <metadata
     id="metadata77">
    <rdf:RDF>
      <cc:Work
         rdf:about="">
        <dc:format>image/svg+xml</dc:format>
        <dc:type
           rdf:resource="http://purl.org/dc/dcmitype/StillImage" />
      </cc:Work>
    </rdf:RDF>
  </metadata>
  <sodipodi:namedview
     pagecolor="#f5f7fa"
     bordercolor="#666666"
     borderopacity="1"
     objecttolerance="10"
     gridtolerance="10"
     guidetolerance="10"
     inkscape:pageopacity="0"
     inkscape:pageshadow="2"
     inkscape:window-width="1462"
     inkscape:window-height="840"
     id="namedview75"
     showgrid="false"
     inkscape:zoom="6.2890624"
     inkscape:cx="53.585094"
     inkscape:cy="29.654659"
     inkscape:window-x="24"
     inkscape:window-y="21"
     inkscape:window-maximized="0"
     inkscape:current-layer="svg73"
     inkscape:document-rotation="0"
     inkscape:pagecheckerboard="0"
     inkscape:showpageshadow="2"
     inkscape:deskcolor="#d1d1d1" />
  <defs
     id="defs29">
    <linearGradient
       id="linearGradient4"
       inkscape:collect="always">
      <stop
         style="stop-color:#ac905e;stop-opacity:1;"
         offset="0"
         id="stop4" />
      <stop
         style="stop-color:#c1aa81;stop-opacity:1;"
         offset="0.5"
         id="stop1" />
    </linearGradient>
    <linearGradient
       id="linearGradient2"
       inkscape:collect="always">
      <stop
         style="stop-color:#f4f1ec;stop-opacity:1;"
         offset="0"
         id="stop2" />
      <stop
         style="stop-color:#e9e3d8;stop-opacity:1;"
         offset="1"
         id="stop3" />
    </linearGradient>
    <linearGradient
       inkscape:collect="always"
       xlink:href="#linearGradient2"
       id="linearGradient8"
       x1="31.721739"
       y1="5.2278585"
       x2="31.88887"
       y2="59.145416"
       gradientUnits="userSpaceOnUse"
       gradientTransform="matrix(0.8505,0,0,0.8505,4.7765033,4.7794869)" />
    <filter
       style="color-interpolation-filters:sRGB;"
       inkscape:label="Blur"
       id="filter9"
       x="-0.047762285"
       y="-0.047489063"
       width="1.0955246"
       height="1.0949781">
      <feGaussianBlur
         stdDeviation="1 1"
         result="blur"
         id="feGaussianBlur9" />
    </filter>
    <linearGradient
       inkscape:collect="always"
       xlink:href="#linearGradient4"
       id="linearGradient7"
       x1="26.723248"
       y1="58.711765"
       x2="25.756926"
       y2="5.950614"
       gradientUnits="userSpaceOnUse" />
    <filter
       style="color-interpolation-filters:sRGB;"
       inkscape:label="Out of Focus"
       id="filter40"
       x="-0.24226652"
       y="-0.2858297"
       width="1.484533"
       height="1.5716594">
      <feFlood
         flood-opacity="1"
         flood-color="rgb(255,255,255)"
         result="flood"
         id="feFlood38" />
      <feColorMatrix
         in="SourceGraphic"
         values="1 0 0 0 0 0 1 0 0 0 0 0 1 0 0 -0.2125 -0.7154 -0.0721 1 0 "
         result="colormatrix1"
         id="feColorMatrix38" />
      <feGaussianBlur
         in="colormatrix1"
         stdDeviation="3 3"
         result="blur"
         id="feGaussianBlur38" />
      <feColorMatrix
         in="blur"
         values="1 0 0 0 0 0 1 0 0 0 0 0 1 0 0 0 0 0 6 -2 "
         result="colormatrix2"
         id="feColorMatrix39" />
      <feBlend
         in="colormatrix2"
         in2="flood"
         mode="normal"
         result="blend"
         id="feBlend39" />
      <feComposite
         in="blend"
         in2="blend"
         operator="arithmetic"
         k2="0.2"
         result="composite1"
         id="feComposite39" />
      <feComposite
         in2="SourceGraphic"
         operator="in"
         id="feComposite40" />
    </filter>
  </defs>
  <g
     id="g877"
     transform="matrix(1.1,0,0,1.1,-3.1845928,-3.2065454)">
    <ellipse
       style="opacity:0.5;fill:#000000;stroke:none;stroke-width:3.89319;stroke-dasharray:none;stroke-opacity:1;filter:url(#filter9)"
       id="path2-5"
       cx="31.949858"
       cy="31.969812"
       rx="25.124426"
       ry="25.268976"
       transform="matrix(1.05,0,0,1.05,-1.5974929,-1.5984906)" />
    <path
       style="fill:#f5f7fa;stroke-width:0.204426;fill-opacity:1"
       d=""
       id="path3" />
    <circle
       style="opacity:1;fill:url(#linearGradient8);stroke:url(#linearGradient7);stroke-width:3.81818;stroke-dasharray:none;stroke-opacity:1"
       id="path2"
       cx="31.949856"
       cy="31.969812"
       r="24.711082" />
    <ellipse
       style="opacity:0.3;fill:none;stroke:#000000;stroke-width:0.974376;stroke-dasharray:none;stroke-opacity:1"
       id="path2-9"
       cx="31.949856"
       cy="31.969812"
       rx="23.129124"
       ry="23.129126" />
  </g>
  <path
     style="fill:#000000;fill-opacity:1;stroke:none;stroke-width:0.50546;stroke-dasharray:none;stroke-opacity:0.6;opacity:0.2"
     d="m 19.900177,48.886659 c -0.851039,-0.244901 -1.779636,-0.927287 -2.269725,-1.667855 -1.08912,-1.645783 -0.886389,-3.63924 0.512348,-5.037978 0.418689,-0.418688 0.942541,-0.806763 1.164114,-0.862372 l 0.402862,-0.101101 V 34.014166 26.810999 L 19.22936,26.612002 c -0.633852,-0.26255 -1.469552,-1.092989 -1.849609,-1.837961 -0.970424,-1.902185 -0.278346,-4.162112 1.615511,-5.275334 0.672853,-0.395502 0.980191,-0.468233 1.963033,-0.464526 1.665724,0.0064 2.878901,0.720515 3.597719,2.118089 l 0.32107,0.62426 h 7.158913 7.158914 l 0.151238,-0.39768 c 0.457487,-1.203263 2.274129,-2.427514 3.606815,-2.43067 2.223932,-0.0053 4.085464,1.795639 4.098675,3.965196 0.0032,0.525072 -0.119023,1.239527 -0.275431,1.609894 -0.334959,0.793285 -1.290575,1.816188 -1.953191,2.090649 l -0.475777,0.197077 v 7.20102 7.201021 l 0.480403,0.198928 c 0.705323,0.292168 1.522555,1.152551 1.899718,2.000032 1.347635,3.028208 -1.557547,6.368136 -4.731313,5.439363 -1.073902,-0.314211 -2.032767,-1.068398 -2.484641,-1.954139 L 39.179918,46.247482 H 32.040933 24.90196 l -0.435704,0.74348 c -0.537394,0.916991 -1.334546,1.541732 -2.361628,1.850839 -0.885571,0.266587 -1.398003,0.276996 -2.204451,0.0449 z m 19.57154,-5.722629 0.279649,-0.586446 -0.966533,-0.976715 c -0.924076,-0.933828 -0.995997,-0.97276 -1.637788,-0.886689 -0.790951,0.106095 -1.635231,-0.277083 -1.963955,-0.891278 -0.213732,-0.399376 -0.223399,-0.400634 -3.079903,-0.400634 h -2.865495 l -0.686918,0.686921 c -0.654675,0.654676 -0.72539,0.683219 -1.506646,0.608148 -0.813885,-0.0782 -0.826558,-0.07184 -1.779114,0.890747 l -0.959386,0.9695 0.27965,0.586446 0.279658,0.586448 h 7.163569 7.16356 z M 24.400504,40.807971 c 0.920412,-0.910797 0.951411,-0.969791 0.860011,-1.636631 -0.1108,-0.808411 0.227117,-1.598125 0.861793,-2.013979 l 0.412706,-0.270415 v -2.890231 -2.890229 l -0.42468,-0.278262 c -0.641266,-0.420174 -0.961095,-1.163658 -0.849819,-1.975517 0.0915,-0.667482 0.06093,-0.725311 -0.870133,-1.646663 l -0.964958,-0.954883 -0.609304,0.290553 -0.609306,0.290561 v 7.11202 7.112019 l 0.541025,0.334484 c 0.297568,0.183961 0.576309,0.340684 0.619433,0.348229 0.04314,0.0078 0.508078,-0.411398 1.033232,-0.931069 z m 17.282154,-6.785162 -9.9e-4,-7.168962 -0.526588,-0.299787 -0.526594,-0.29978 -0.977394,0.965661 c -0.922481,0.911412 -0.971598,1.000137 -0.874511,1.579319 0.126643,0.755471 -0.302644,1.752807 -0.864714,2.008918 -0.387437,0.176524 -0.389822,0.195659 -0.389822,3.128186 v 2.950579 l 0.430074,0.281802 c 0.582146,0.381433 0.957327,1.322058 0.819778,2.055255 -0.101233,0.53984 -0.04272,0.647159 0.841798,1.540923 l 0.950639,0.960674 0.55972,-0.266892 0.559723,-0.266927 -9.9e-4,-7.168958 z m -6.525547,3.826814 c 0.102091,-0.224054 0.376299,-0.532316 0.609364,-0.685025 l 0.423753,-0.277657 v -2.882727 -2.88273 L 35.700667,30.772883 C 35.431409,30.581154 35.16417,30.276409 35.106805,30.095671 35.008135,29.78479 34.843367,29.767057 32.053174,29.767057 h -2.949337 l -0.289021,0.489277 c -0.158965,0.269111 -0.437303,0.536342 -0.618532,0.593862 -0.312129,0.09905 -0.329514,0.261073 -0.329514,3.070664 v 2.966085 l 0.423752,0.277658 c 0.233065,0.152713 0.507279,0.460968 0.609365,0.68502 l 0.185616,0.407365 h 2.943001 2.943005 z m -0.05028,-9.576464 c 0.05736,-0.180731 0.330081,-0.489385 0.606044,-0.685884 0.399046,-0.284144 0.667332,-0.341363 1.310745,-0.279538 0.800603,0.07692 0.818961,0.06767 1.768393,-0.891769 L 39.751398,25.44646 39.471762,24.860016 39.192094,24.273575 H 32.04766 24.903235 l -0.332276,0.563165 -0.332278,0.563164 0.97894,0.96872 c 0.92732,0.917649 1.01782,0.966333 1.716473,0.923367 0.873685,-0.05375 1.602899,0.279598 1.92391,0.879406 l 0.230331,0.430379 h 2.9571 c 2.797922,0 2.962713,-0.01766 3.061396,-0.328617 z"
     id="path2647-2" />
  <path
     style="fill:#4d4d4d;fill-opacity:1;stroke:none;stroke-width:0.50546;stroke-dasharray:none;stroke-opacity:0.6"
     d="m 19.900177,46.886659 c -0.851039,-0.244901 -1.779636,-0.927287 -2.269725,-1.667855 -1.08912,-1.645783 -0.886389,-3.63924 0.512348,-5.037978 0.418689,-0.418688 0.942541,-0.806763 1.164114,-0.862372 l 0.402862,-0.101101 V 32.014166 24.810999 L 19.22936,24.612002 c -0.633852,-0.26255 -1.469552,-1.092989 -1.849609,-1.837961 -0.970424,-1.902185 -0.278346,-4.162112 1.615511,-5.275334 0.672853,-0.395502 0.980191,-0.468233 1.963033,-0.464526 1.665724,0.0064 2.878901,0.720515 3.597719,2.118089 l 0.32107,0.62426 h 7.158913 7.158914 l 0.151238,-0.39768 c 0.457487,-1.203263 2.274129,-2.427514 3.606815,-2.43067 2.223932,-0.0053 4.085464,1.795639 4.098675,3.965196 0.0032,0.525072 -0.119023,1.239527 -0.275431,1.609894 -0.334959,0.793285 -1.290575,1.816188 -1.953191,2.090649 l -0.475777,0.197077 v 7.20102 7.201021 l 0.480403,0.198928 c 0.705323,0.292168 1.522555,1.152551 1.899718,2.000032 1.347635,3.028208 -1.557547,6.368136 -4.731313,5.439363 -1.073902,-0.314211 -2.032767,-1.068398 -2.484641,-1.954139 L 39.179918,44.247482 H 32.040933 24.90196 l -0.435704,0.74348 c -0.537394,0.916991 -1.334546,1.541732 -2.361628,1.850839 -0.885571,0.266587 -1.398003,0.276996 -2.204451,0.0449 z m 19.57154,-5.722629 0.279649,-0.586446 -0.966533,-0.976715 c -0.924076,-0.933828 -0.995997,-0.97276 -1.637788,-0.886689 -0.790951,0.106095 -1.635231,-0.277083 -1.963955,-0.891278 -0.213732,-0.399376 -0.223399,-0.400634 -3.079903,-0.400634 h -2.865495 l -0.686918,0.686921 c -0.654675,0.654676 -0.72539,0.683219 -1.506646,0.608148 -0.813885,-0.0782 -0.826558,-0.07184 -1.779114,0.890747 l -0.959386,0.9695 0.27965,0.586446 0.279658,0.586448 h 7.163569 7.16356 z M 24.400504,38.807971 c 0.920412,-0.910797 0.951411,-0.969791 0.860011,-1.636631 -0.1108,-0.808411 0.227117,-1.598125 0.861793,-2.013979 l 0.412706,-0.270415 v -2.890231 -2.890229 l -0.42468,-0.278262 c -0.641266,-0.420174 -0.961095,-1.163658 -0.849819,-1.975517 0.0915,-0.667482 0.06093,-0.725311 -0.870133,-1.646663 l -0.964958,-0.954883 -0.609304,0.290553 -0.609306,0.290561 v 7.11202 7.112019 l 0.541025,0.334484 c 0.297568,0.183961 0.576309,0.340684 0.619433,0.348229 0.04314,0.0078 0.508078,-0.411398 1.033232,-0.931069 z m 17.282154,-6.785162 -9.9e-4,-7.168962 -0.526588,-0.299787 -0.526594,-0.29978 -0.977394,0.965661 c -0.922481,0.911412 -0.971598,1.000137 -0.874511,1.579319 0.126643,0.755471 -0.302644,1.752807 -0.864714,2.008918 -0.387437,0.176524 -0.389822,0.195659 -0.389822,3.128186 v 2.950579 l 0.430074,0.281802 c 0.582146,0.381433 0.957327,1.322058 0.819778,2.055255 -0.101233,0.53984 -0.04272,0.647159 0.841798,1.540923 l 0.950639,0.960674 0.55972,-0.266892 0.559723,-0.266927 -9.9e-4,-7.168958 z m -6.525547,3.826814 c 0.102091,-0.224054 0.376299,-0.532316 0.609364,-0.685025 l 0.423753,-0.277657 v -2.882727 -2.88273 L 35.700667,28.772883 C 35.431409,28.581154 35.16417,28.276409 35.106805,28.095671 35.008135,27.78479 34.843367,27.767057 32.053174,27.767057 h -2.949337 l -0.289021,0.489277 c -0.158965,0.269111 -0.437303,0.536342 -0.618532,0.593862 -0.312129,0.09905 -0.329514,0.261073 -0.329514,3.070664 v 2.966085 l 0.423752,0.277658 c 0.233065,0.152713 0.507279,0.460968 0.609365,0.68502 l 0.185616,0.407365 h 2.943001 2.943005 z m -0.05028,-9.576464 c 0.05736,-0.180731 0.330081,-0.489385 0.606044,-0.685884 0.399046,-0.284144 0.667332,-0.341363 1.310745,-0.279538 0.800603,0.07692 0.818961,0.06767 1.768393,-0.891769 L 39.751398,23.44646 39.471762,22.860016 39.192094,22.273575 H 32.04766 24.903235 l -0.332276,0.563165 -0.332278,0.563164 0.97894,0.96872 c 0.92732,0.917649 1.01782,0.966333 1.716473,0.923367 0.873685,-0.05375 1.602899,0.279598 1.92391,0.879406 l 0.230331,0.430379 h 2.9571 c 2.797922,0 2.962713,-0.01766 3.061396,-0.328617 z"
     id="path2647" />
</svg>
