<?xml version="1.0" encoding="UTF-8" standalone="no"?>
<svg
   width="64"
   height="64"
   version="1.1"
   id="svg73"
   sodipodi:docname="abcd.svg"
   inkscape:version="1.4.2 (ebf0e940d0, 2025-05-08)"
   xmlns:inkscape="http://www.inkscape.org/namespaces/inkscape"
   xmlns:sodipodi="http://sodipodi.sourceforge.net/DTD/sodipodi-0.dtd"
   xmlns:xlink="http://www.w3.org/1999/xlink"
   xmlns="http://www.w3.org/2000/svg"
   xmlns:svg="http://www.w3.org/2000/svg"
   xmlns:rdf="http://www.w3.org/1999/02/22-rdf-syntax-ns#"
   xmlns:cc="http://creativecommons.org/ns#"
   xmlns:dc="http://purl.org/dc/elements/1.1/">
  <metadata
     id="metadata77">
    <rdf:RDF>
      <cc:Work
         rdf:about="">
        <dc:format>image/svg+xml</dc:format>
        <dc:type
           rdf:resource="http://purl.org/dc/dcmitype/StillImage" />
      </cc:Work>
    </rdf:RDF>
  </metadata>
  <sodipodi:namedview
     pagecolor="#f5f7fa"
     bordercolor="#666666"
     borderopacity="1"
     objecttolerance="10"
     gridtolerance="10"
     guidetolerance="10"
     inkscape:pageopacity="0"
     inkscape:pageshadow="2"
     inkscape:window-width="1024"
     inkscape:window-height="621"
     id="namedview75"
     showgrid="false"
     inkscape:zoom="6.2890624"
     inkscape:cx="34.822361"
     inkscape:cy="29.734162"
     inkscape:window-x="24"
     inkscape:window-y="21"
     inkscape:window-maximized="0"
     inkscape:current-layer="svg73"
     inkscape:document-rotation="0"
     inkscape:pagecheckerboard="0"
     inkscape:showpageshadow="2"
     inkscape:deskcolor="#d1d1d1" />
  <defs
     id="defs29">
    <linearGradient
       id="linearGradient4"
       inkscape:collect="always">
      <stop
         style="stop-color:#ac905e;stop-opacity:1;"
         offset="0"
         id="stop4" />
      <stop
         style="stop-color:#c1aa81;stop-opacity:1;"
         offset="0.5"
         id="stop1" />
    </linearGradient>
    <linearGradient
       id="linearGradient2"
       inkscape:collect="always">
      <stop
         style="stop-color:#f4f1ec;stop-opacity:1;"
         offset="0"
         id="stop2" />
      <stop
         style="stop-color:#e9e3d8;stop-opacity:1;"
         offset="1"
         id="stop3" />
    </linearGradient>
    <linearGradient
       inkscape:collect="always"
       xlink:href="#linearGradient2"
       id="linearGradient8"
       x1="31.721739"
       y1="5.2278585"
       x2="31.88887"
       y2="59.145416"
       gradientUnits="userSpaceOnUse"
       gradientTransform="matrix(0.8505,0,0,0.8505,4.7765033,4.7794869)" />
    <filter
       style="color-interpolation-filters:sRGB;"
       inkscape:label="Blur"
       id="filter9"
       x="-0.047762285"
       y="-0.047489063"
       width="1.0955246"
       height="1.0949781">
      <feGaussianBlur
         stdDeviation="1 1"
         result="blur"
         id="feGaussianBlur9" />
    </filter>
    <linearGradient
       inkscape:collect="always"
       xlink:href="#linearGradient4"
       id="linearGradient7"
       x1="26.723248"
       y1="58.711765"
       x2="25.756926"
       y2="5.950614"
       gradientUnits="userSpaceOnUse" />
    <filter
       style="color-interpolation-filters:sRGB;"
       inkscape:label="Out of Focus"
       id="filter40"
       x="-0.24226652"
       y="-0.2858297"
       width="1.484533"
       height="1.5716594">
      <feFlood
         flood-opacity="1"
         flood-color="rgb(255,255,255)"
         result="flood"
         id="feFlood38" />
      <feColorMatrix
         in="SourceGraphic"
         values="1 0 0 0 0 0 1 0 0 0 0 0 1 0 0 -0.2125 -0.7154 -0.0721 1 0 "
         result="colormatrix1"
         id="feColorMatrix38" />
      <feGaussianBlur
         in="colormatrix1"
         stdDeviation="3 3"
         result="blur"
         id="feGaussianBlur38" />
      <feColorMatrix
         in="blur"
         values="1 0 0 0 0 0 1 0 0 0 0 0 1 0 0 0 0 0 6 -2 "
         result="colormatrix2"
         id="feColorMatrix39" />
      <feBlend
         in="colormatrix2"
         in2="flood"
         mode="normal"
         result="blend"
         id="feBlend39" />
      <feComposite
         in="blend"
         in2="blend"
         operator="arithmetic"
         k2="0.2"
         result="composite1"
         id="feComposite39" />
      <feComposite
         in2="SourceGraphic"
         operator="in"
         id="feComposite40" />
    </filter>
  </defs>
  <g
     id="g877"
     transform="matrix(1.1,0,0,1.1,-3.1845928,-3.2065454)">
    <ellipse
       style="opacity:0.5;fill:#000000;stroke:none;stroke-width:3.89319;stroke-dasharray:none;stroke-opacity:1;filter:url(#filter9)"
       id="path2-5"
       cx="31.949858"
       cy="31.969812"
       rx="25.124426"
       ry="25.268976"
       transform="matrix(1.05,0,0,1.05,-1.5974929,-1.5984906)" />
    <path
       style="fill:#f5f7fa;stroke-width:0.204426;fill-opacity:1"
       d=""
       id="path3" />
    <circle
       style="opacity:1;fill:url(#linearGradient8);stroke:url(#linearGradient7);stroke-width:3.81818;stroke-dasharray:none;stroke-opacity:1"
       id="path2"
       cx="31.949856"
       cy="31.969812"
       r="24.711082" />
    <ellipse
       style="opacity:0.3;fill:none;stroke:#000000;stroke-width:0.974376;stroke-dasharray:none;stroke-opacity:1"
       id="path2-9"
       cx="31.949856"
       cy="31.969812"
       rx="23.129124"
       ry="23.129126" />
  </g>
  <path
     id="path6-3"
     style="fill:#000000;fill-opacity:1;stroke:none;stroke-width:0.51975;stroke-dasharray:none;stroke-opacity:0.6;opacity:0.2"
     d="m 31.999995,21.534133 c -7.018454,0 -14.036749,0.02426 -14.199889,0.07314 -0.320956,0.09617 -0.696861,0.450135 -0.85867,0.808221 l -0.13781,0.304054 V 34.00179 45.28402 l 0.150673,0.321349 c 0.162842,0.347242 0.493132,0.666111 0.807205,0.779771 0.276414,0.100045 28.105296,0.110937 28.438378,0.01107 0.320955,-0.09615 0.696851,-0.450131 0.85866,-0.808211 l 0.137832,-0.304061 V 34.00181 22.719571 l -0.137832,-0.304065 c -0.161799,-0.358088 -0.53771,-0.712062 -0.858658,-0.808222 -0.16312,-0.04887 -7.181439,-0.07314 -14.199889,-0.07314 z m 0,1.327963 c 6.391912,0 12.783847,0.01943 12.917976,0.05789 0.320634,0.09195 0.61144,0.332059 0.788245,0.651113 l 0.166263,0.299989 v 9.43996 c 0,9.092993 -0.004,9.447366 -0.107371,9.641424 -0.18516,0.348458 -0.500581,0.62997 -0.808896,0.72153 -0.412531,0.122511 -25.536729,0.120547 -25.929742,-0.0024 -0.292857,-0.09132 -0.597033,-0.362715 -0.774365,-0.690723 l -0.124583,-0.230305 v -9.440015 -9.439957 l 0.166247,-0.299992 c 0.176803,-0.319055 0.467599,-0.559153 0.788242,-0.651113 0.134126,-0.03846 6.526068,-0.0579 12.917979,-0.0579 z m 6.236867,2.310216 c -0.900928,-1.65e-4 -1.967182,0.0019 -3.214931,0.0047 l -6.993622,0.01796 -0.230921,0.123583 c -0.30748,0.164698 -0.539651,0.401632 -0.668382,0.682262 -0.09291,0.202495 -0.105556,0.394759 -0.106678,1.595795 l -0.0024,1.365879 4.503967,0.01558 4.504286,0.01594 0.275963,0.13679 c 0.364445,0.180996 0.729844,0.543869 0.905737,0.899311 l 0.142191,0.287798 0.01643,3.295174 0.01643,3.295531 2.487625,-0.0024 c 2.284833,-0.0024 2.506611,-0.0097 2.71924,-0.106315 0.285488,-0.129689 0.551306,-0.389271 0.695475,-0.679563 0.104654,-0.210717 0.109329,-0.423357 0.109329,-5.083961 v -4.863139 l -0.162174,-0.275944 c -0.204446,-0.347387 -0.53843,-0.591491 -0.921912,-0.674142 -0.159478,-0.03432 -1.373843,-0.0506 -4.076652,-0.05111 z m -9.63295,4.886907 c -7.005493,0 -7.082291,0.0024 -7.27127,0.116464 -0.115353,0.07033 -0.235418,0.217117 -0.30338,0.370769 -0.109087,0.246592 -0.11206,0.397251 -0.09684,4.9343 0.01529,4.537038 0.01915,4.6853 0.128329,4.846621 0.06195,0.09148 0.191469,0.214482 0.287802,0.273201 0.168109,0.102509 0.461681,0.106799 7.300724,0.106975 h 7.12534 l 0.242442,-0.22584 0.242416,-0.226161 0.0149,-4.796158 c 0.01461,-4.705858 0.01258,-4.799605 -0.10021,-4.98367 -0.06315,-0.103213 -0.199465,-0.239131 -0.302649,-0.302041 -0.184512,-0.112505 -0.304095,-0.114445 -7.267548,-0.114445 z" />
  <path
     id="path6"
     style="fill:#4d4d4d;fill-opacity:1;stroke:none;stroke-width:0.51975;stroke-dasharray:none;stroke-opacity:0.6"
     d="m 31.999995,19.534133 c -7.018454,0 -14.036749,0.02426 -14.199889,0.07314 -0.320956,0.09617 -0.696861,0.450135 -0.85867,0.808221 l -0.13781,0.304054 V 32.00179 43.28402 l 0.150673,0.321349 c 0.162842,0.347242 0.493132,0.666111 0.807205,0.779771 0.276414,0.100045 28.105296,0.110937 28.438378,0.01107 0.320955,-0.09615 0.696851,-0.450131 0.85866,-0.808211 l 0.137832,-0.304061 V 32.00181 20.719571 l -0.137832,-0.304065 c -0.161799,-0.358088 -0.53771,-0.712062 -0.858658,-0.808222 -0.16312,-0.04887 -7.181439,-0.07314 -14.199889,-0.07314 z m 0,1.327963 c 6.391912,0 12.783847,0.01943 12.917976,0.05789 0.320634,0.09195 0.61144,0.332059 0.788245,0.651113 l 0.166263,0.299989 v 9.43996 c 0,9.092993 -0.004,9.447366 -0.107371,9.641424 -0.18516,0.348458 -0.500581,0.62997 -0.808896,0.72153 -0.412531,0.122511 -25.536729,0.120547 -25.929742,-0.0024 -0.292857,-0.09132 -0.597033,-0.362715 -0.774365,-0.690723 l -0.124583,-0.230305 v -9.440015 -9.439957 l 0.166247,-0.299992 c 0.176803,-0.319055 0.467599,-0.559153 0.788242,-0.651113 0.134126,-0.03846 6.526068,-0.0579 12.917979,-0.0579 z m 6.236867,2.310216 c -0.900928,-1.65e-4 -1.967182,0.0019 -3.214931,0.0047 l -6.993622,0.01796 -0.230921,0.123583 c -0.30748,0.164698 -0.539651,0.401632 -0.668382,0.682262 -0.09291,0.202495 -0.105556,0.394759 -0.106678,1.595795 l -0.0024,1.365879 4.503967,0.01558 4.504286,0.01594 0.275963,0.13679 c 0.364445,0.180996 0.729844,0.543869 0.905737,0.899311 l 0.142191,0.287798 0.01643,3.295174 0.01643,3.295531 2.487625,-0.0024 c 2.284833,-0.0024 2.506611,-0.0097 2.71924,-0.106315 0.285488,-0.129689 0.551306,-0.389271 0.695475,-0.679563 0.104654,-0.210717 0.109329,-0.423357 0.109329,-5.083961 v -4.863139 l -0.162174,-0.275944 c -0.204446,-0.347387 -0.53843,-0.591491 -0.921912,-0.674142 -0.159478,-0.03432 -1.373843,-0.0506 -4.076652,-0.05111 z m -9.63295,4.886907 c -7.005493,0 -7.082291,0.0024 -7.27127,0.116464 -0.115353,0.07033 -0.235418,0.217117 -0.30338,0.370769 -0.109087,0.246592 -0.11206,0.397251 -0.09684,4.9343 0.01529,4.537038 0.01915,4.6853 0.128329,4.846621 0.06195,0.09148 0.191469,0.214482 0.287802,0.273201 0.168109,0.102509 0.461681,0.106799 7.300724,0.106975 h 7.12534 l 0.242442,-0.22584 0.242416,-0.226161 0.0149,-4.796158 c 0.01461,-4.705858 0.01258,-4.799605 -0.10021,-4.98367 -0.06315,-0.103213 -0.199465,-0.239131 -0.302649,-0.302041 -0.184512,-0.112505 -0.304095,-0.114445 -7.267548,-0.114445 z" />
</svg>
