<?xml version="1.0" encoding="UTF-8" standalone="no"?>
<svg
   width="64"
   height="64"
   version="1.1"
   id="svg73"
   sodipodi:docname="abcd.svg"
   inkscape:version="1.4.2 (ebf0e940d0, 2025-05-08)"
   xmlns:inkscape="http://www.inkscape.org/namespaces/inkscape"
   xmlns:sodipodi="http://sodipodi.sourceforge.net/DTD/sodipodi-0.dtd"
   xmlns:xlink="http://www.w3.org/1999/xlink"
   xmlns="http://www.w3.org/2000/svg"
   xmlns:svg="http://www.w3.org/2000/svg"
   xmlns:rdf="http://www.w3.org/1999/02/22-rdf-syntax-ns#"
   xmlns:cc="http://creativecommons.org/ns#"
   xmlns:dc="http://purl.org/dc/elements/1.1/">
  <metadata
     id="metadata77">
    <rdf:RDF>
      <cc:Work
         rdf:about="">
        <dc:format>image/svg+xml</dc:format>
        <dc:type
           rdf:resource="http://purl.org/dc/dcmitype/StillImage" />
      </cc:Work>
    </rdf:RDF>
  </metadata>
  <sodipodi:namedview
     pagecolor="#f5f7fa"
     bordercolor="#666666"
     borderopacity="1"
     objecttolerance="10"
     gridtolerance="10"
     guidetolerance="10"
     inkscape:pageopacity="0"
     inkscape:pageshadow="2"
     inkscape:window-width="1261"
     inkscape:window-height="714"
     id="namedview75"
     showgrid="false"
     inkscape:zoom="6.2890624"
     inkscape:cx="32.516771"
     inkscape:cy="29.654659"
     inkscape:window-x="24"
     inkscape:window-y="21"
     inkscape:window-maximized="0"
     inkscape:current-layer="svg73"
     inkscape:document-rotation="0"
     inkscape:pagecheckerboard="0"
     inkscape:showpageshadow="2"
     inkscape:deskcolor="#d1d1d1" />
  <defs
     id="defs29">
    <linearGradient
       id="linearGradient4"
       inkscape:collect="always">
      <stop
         style="stop-color:#ac905e;stop-opacity:1;"
         offset="0"
         id="stop4" />
      <stop
         style="stop-color:#c1aa81;stop-opacity:1;"
         offset="0.5"
         id="stop1" />
    </linearGradient>
    <linearGradient
       id="linearGradient2"
       inkscape:collect="always">
      <stop
         style="stop-color:#f4f1ec;stop-opacity:1;"
         offset="0"
         id="stop2" />
      <stop
         style="stop-color:#e9e3d8;stop-opacity:1;"
         offset="1"
         id="stop3" />
    </linearGradient>
    <linearGradient
       inkscape:collect="always"
       xlink:href="#linearGradient2"
       id="linearGradient8"
       x1="31.721739"
       y1="5.2278585"
       x2="31.88887"
       y2="59.145416"
       gradientUnits="userSpaceOnUse"
       gradientTransform="matrix(0.8505,0,0,0.8505,4.7765033,4.7794869)" />
    <filter
       style="color-interpolation-filters:sRGB;"
       inkscape:label="Blur"
       id="filter9"
       x="-0.047762285"
       y="-0.047489063"
       width="1.0955246"
       height="1.0949781">
      <feGaussianBlur
         stdDeviation="1 1"
         result="blur"
         id="feGaussianBlur9" />
    </filter>
    <linearGradient
       inkscape:collect="always"
       xlink:href="#linearGradient4"
       id="linearGradient7"
       x1="26.723248"
       y1="58.711765"
       x2="25.756926"
       y2="5.950614"
       gradientUnits="userSpaceOnUse" />
    <filter
       style="color-interpolation-filters:sRGB;"
       inkscape:label="Out of Focus"
       id="filter40"
       x="-0.24226652"
       y="-0.2858297"
       width="1.484533"
       height="1.5716594">
      <feFlood
         flood-opacity="1"
         flood-color="rgb(255,255,255)"
         result="flood"
         id="feFlood38" />
      <feColorMatrix
         in="SourceGraphic"
         values="1 0 0 0 0 0 1 0 0 0 0 0 1 0 0 -0.2125 -0.7154 -0.0721 1 0 "
         result="colormatrix1"
         id="feColorMatrix38" />
      <feGaussianBlur
         in="colormatrix1"
         stdDeviation="3 3"
         result="blur"
         id="feGaussianBlur38" />
      <feColorMatrix
         in="blur"
         values="1 0 0 0 0 0 1 0 0 0 0 0 1 0 0 0 0 0 6 -2 "
         result="colormatrix2"
         id="feColorMatrix39" />
      <feBlend
         in="colormatrix2"
         in2="flood"
         mode="normal"
         result="blend"
         id="feBlend39" />
      <feComposite
         in="blend"
         in2="blend"
         operator="arithmetic"
         k2="0.2"
         result="composite1"
         id="feComposite39" />
      <feComposite
         in2="SourceGraphic"
         operator="in"
         id="feComposite40" />
    </filter>
  </defs>
  <g
     id="g877"
     transform="matrix(1.1,0,0,1.1,-3.1845928,-3.2065454)">
    <ellipse
       style="opacity:0.5;fill:#000000;stroke:none;stroke-width:3.89319;stroke-dasharray:none;stroke-opacity:1;filter:url(#filter9)"
       id="path2-5"
       cx="31.949858"
       cy="31.969812"
       rx="25.124426"
       ry="25.268976"
       transform="matrix(1.05,0,0,1.05,-1.5974929,-1.5984906)" />
    <path
       style="fill:#f5f7fa;stroke-width:0.204426;fill-opacity:1"
       d=""
       id="path3" />
    <circle
       style="opacity:1;fill:url(#linearGradient8);stroke:url(#linearGradient7);stroke-width:3.81818;stroke-dasharray:none;stroke-opacity:1"
       id="path2"
       cx="31.949856"
       cy="31.969812"
       r="24.711082" />
    <ellipse
       style="opacity:0.3;fill:none;stroke:#000000;stroke-width:0.974376;stroke-dasharray:none;stroke-opacity:1"
       id="path2-9"
       cx="31.949856"
       cy="31.969812"
       rx="23.129124"
       ry="23.129126" />
  </g>
  <path
     style="fill:#000000;fill-opacity:1;stroke-width:0.0477913;opacity:0.2"
     d="m 31.102092,48.26759 c -0.06571,-0.01136 -0.313034,-0.04447 -0.549601,-0.07395 -1.716503,-0.213939 -3.512235,-1.002504 -5.233137,-2.298029 -1.076823,-0.810655 -1.861689,-1.546546 -4.49399,-4.213628 -1.863779,-1.888401 -2.59917,-2.540493 -3.694509,-3.276016 -0.483678,-0.324788 -0.716472,-0.568393 -0.889063,-0.930329 -0.366484,-0.768552 -0.29834,-1.773057 0.166064,-2.44803 0.09237,-0.134242 0.35561,-0.391263 0.58499,-0.571158 0.491352,-0.385352 1.85726,-1.74114 2.656701,-2.63702 l 0.564472,-0.63257 -1.449847,-1.500466 c -0.880152,-0.910879 -1.513596,-1.606658 -1.612082,-1.770718 -0.558074,-0.92966 -0.408774,-2.090361 0.36893,-2.868199 0.793127,-0.79326 2.071107,-0.923075 2.980748,-0.302778 0.126054,0.08595 0.855021,0.806842 1.619935,1.601966 0.764913,0.795128 1.405964,1.445687 1.424557,1.445687 0.01857,0 0.236964,-0.163196 0.485274,-0.362665 0.248307,-0.199462 0.755608,-0.566153 1.127331,-0.814863 l 0.675857,-0.452203 -0.07105,-0.272385 c -0.03907,-0.14981 -0.262568,-0.981137 -0.496641,-1.847391 -0.372713,-1.379333 -0.425586,-1.623624 -0.425586,-1.966352 0,-1.799653 1.897126,-2.918587 3.499951,-2.064292 0.39519,0.210636 0.766735,0.598914 0.967289,1.010851 0.101002,0.207454 0.33253,0.936903 0.590186,1.859427 0.233194,0.834928 0.436128,1.530189 0.450965,1.545025 0.01489,0.01484 0.324574,7.27e-4 0.688311,-0.03113 0.622156,-0.05466 1.656522,-0.04069 2.381822,0.03216 l 0.286746,0.0288 0.44306,-1.587347 c 0.243681,-0.87305 0.501361,-1.708753 0.572626,-1.857128 0.169369,-0.352646 0.672214,-0.858981 1.021702,-1.028799 0.981511,-0.47692 2.011718,-0.311449 2.769868,0.444894 0.50395,0.502746 0.762886,1.182318 0.695644,1.825675 -0.01629,0.158924 -0.246114,1.087307 -0.509987,2.06308 -0.263873,0.975774 -0.473703,1.799186 -0.466267,1.829807 0.0077,0.03064 0.303842,0.250122 0.65871,0.487785 0.354832,0.237656 0.84834,0.595208 1.096648,0.794551 0.248315,0.199341 0.466405,0.362444 0.484653,0.362444 0.01845,0 0.630837,-0.618299 1.361314,-1.373997 0.730463,-0.755697 1.40487,-1.440329 1.49868,-1.521401 0.845326,-0.730573 2.136605,-0.727966 3.017039,0.0062 0.931472,0.776615 1.128337,2.100909 0.462218,3.109333 -0.08495,0.12862 -0.795273,0.895891 -1.578461,1.705042 l -1.423999,1.471162 0.585744,0.655592 c 0.814286,0.91138 2.133395,2.22062 2.631498,2.611799 0.721968,0.566998 0.960343,1.03979 0.965439,1.91488 0.0058,0.985796 -0.254056,1.452161 -1.152996,2.069843 -1.188191,0.816433 -1.760651,1.330377 -3.914994,3.514839 -1.81788,1.84329 -2.671871,2.66974 -3.363711,3.255236 -1.995054,1.688376 -3.837845,2.610957 -5.926117,2.966854 -0.430744,0.07341 -2.250549,0.138047 -2.532933,0.08995 z m 2.064522,-2.863786 c 3.536383,-0.466834 6.462179,-2.885177 7.56369,-6.251839 0.09296,-0.284073 0.169002,-0.536766 0.169002,-0.561545 0,-0.02752 -0.834887,-0.04506 -2.147803,-0.04506 h -2.14782 l -0.151961,0.285107 c -0.3634,0.681785 -1.113658,1.441378 -1.854288,1.877339 -0.777744,0.457812 -1.471647,0.655729 -2.420058,0.690255 -0.562864,0.02037 -0.747464,0.0081 -1.16287,-0.07772 -1.017342,-0.210333 -1.913339,-0.696095 -2.637851,-1.43014 -0.645139,-0.653626 -1.078368,-1.398226 -1.316532,-2.262755 -0.152028,-0.551853 -0.205738,-1.498047 -0.11879,-2.092689 0.307368,-2.102097 1.949441,-3.824445 4.065177,-4.263909 0.650561,-0.135131 1.698522,-0.100716 2.332518,0.0766 1.311156,0.366701 2.384467,1.186921 3.086955,2.359033 l 0.179036,0.298694 h 2.148056 2.148056 l -0.03135,-0.131425 c -0.06933,-0.285017 -0.365562,-1.089513 -0.542722,-1.472975 -0.808691,-1.750134 -2.274015,-3.288545 -4.019697,-4.220063 -2.574168,-1.373607 -5.795621,-1.414757 -8.396122,-0.10725 -1.825399,0.917793 -3.237937,2.343822 -4.147723,4.187339 -0.682892,1.383754 -0.96926,2.744672 -0.914922,4.348018 0.03909,1.154361 0.221448,2.065568 0.609059,3.043793 0.848838,2.142257 2.476209,3.905686 4.514126,4.891536 1.622397,0.784847 3.45905,1.08877 5.194847,0.859634 z"
     id="path5-7" />
  <path
     style="fill:#4d4d4d;fill-opacity:1;stroke-width:0.0477913"
     d="m 31.102092,46.26759 c -0.06571,-0.01136 -0.313034,-0.04447 -0.549601,-0.07395 -1.716503,-0.213939 -3.512235,-1.002504 -5.233137,-2.298029 -1.076823,-0.810655 -1.861689,-1.546546 -4.49399,-4.213628 -1.863779,-1.888401 -2.59917,-2.540493 -3.694509,-3.276016 -0.483678,-0.324788 -0.716472,-0.568393 -0.889063,-0.930329 -0.366484,-0.768552 -0.29834,-1.773057 0.166064,-2.44803 0.09237,-0.134242 0.35561,-0.391263 0.58499,-0.571158 0.491352,-0.385352 1.85726,-1.74114 2.656701,-2.63702 l 0.564472,-0.63257 -1.449847,-1.500466 c -0.880152,-0.910879 -1.513596,-1.606658 -1.612082,-1.770718 -0.558074,-0.92966 -0.408774,-2.090361 0.36893,-2.868199 0.793127,-0.79326 2.071107,-0.923075 2.980748,-0.302778 0.126054,0.08595 0.855021,0.806842 1.619935,1.601966 0.764913,0.795128 1.405964,1.445687 1.424557,1.445687 0.01857,0 0.236964,-0.163196 0.485274,-0.362665 0.248307,-0.199462 0.755608,-0.566153 1.127331,-0.814863 l 0.675857,-0.452203 -0.07105,-0.272385 c -0.03907,-0.14981 -0.262568,-0.981137 -0.496641,-1.847391 -0.372713,-1.379333 -0.425586,-1.623624 -0.425586,-1.966352 0,-1.799653 1.897126,-2.918587 3.499951,-2.064292 0.39519,0.210636 0.766735,0.598914 0.967289,1.010851 0.101002,0.207454 0.33253,0.936903 0.590186,1.859427 0.233194,0.834928 0.436128,1.530189 0.450965,1.545025 0.01489,0.01484 0.324574,7.27e-4 0.688311,-0.03113 0.622156,-0.05466 1.656522,-0.04069 2.381822,0.03216 l 0.286746,0.0288 0.44306,-1.587347 c 0.243681,-0.87305 0.501361,-1.708753 0.572626,-1.857128 0.169369,-0.352646 0.672214,-0.858981 1.021702,-1.028799 0.981511,-0.47692 2.011718,-0.311449 2.769868,0.444894 0.50395,0.502746 0.762886,1.182318 0.695644,1.825675 -0.01629,0.158924 -0.246114,1.087307 -0.509987,2.06308 -0.263873,0.975774 -0.473703,1.799186 -0.466267,1.829807 0.0077,0.03064 0.303842,0.250122 0.65871,0.487785 0.354832,0.237656 0.84834,0.595208 1.096648,0.794551 0.248315,0.199341 0.466405,0.362444 0.484653,0.362444 0.01845,0 0.630837,-0.618299 1.361314,-1.373997 0.730463,-0.755697 1.40487,-1.440329 1.49868,-1.521401 0.845326,-0.730573 2.136605,-0.727966 3.017039,0.0062 0.931472,0.776615 1.128337,2.100909 0.462218,3.109333 -0.08495,0.12862 -0.795273,0.895891 -1.578461,1.705042 l -1.423999,1.471162 0.585744,0.655592 c 0.814286,0.91138 2.133395,2.22062 2.631498,2.611799 0.721968,0.566998 0.960343,1.03979 0.965439,1.91488 0.0058,0.985796 -0.254056,1.452161 -1.152996,2.069843 -1.188191,0.816433 -1.760651,1.330377 -3.914994,3.514839 -1.81788,1.84329 -2.671871,2.66974 -3.363711,3.255236 -1.995054,1.688376 -3.837845,2.610957 -5.926117,2.966854 -0.430744,0.07341 -2.250549,0.138047 -2.532933,0.08995 z m 2.064522,-2.863786 c 3.536383,-0.466834 6.462179,-2.885177 7.56369,-6.251839 0.09296,-0.284073 0.169002,-0.536766 0.169002,-0.561545 0,-0.02752 -0.834887,-0.04506 -2.147803,-0.04506 h -2.14782 l -0.151961,0.285107 c -0.3634,0.681785 -1.113658,1.441378 -1.854288,1.877339 -0.777744,0.457812 -1.471647,0.655729 -2.420058,0.690255 -0.562864,0.02037 -0.747464,0.0081 -1.16287,-0.07772 -1.017342,-0.210333 -1.913339,-0.696095 -2.637851,-1.43014 -0.645139,-0.653626 -1.078368,-1.398226 -1.316532,-2.262755 -0.152028,-0.551853 -0.205738,-1.498047 -0.11879,-2.092689 0.307368,-2.102097 1.949441,-3.824445 4.065177,-4.263909 0.650561,-0.135131 1.698522,-0.100716 2.332518,0.0766 1.311156,0.366701 2.384467,1.186921 3.086955,2.359033 l 0.179036,0.298694 h 2.148056 2.148056 l -0.03135,-0.131425 c -0.06933,-0.285017 -0.365562,-1.089513 -0.542722,-1.472975 -0.808691,-1.750134 -2.274015,-3.288545 -4.019697,-4.220063 -2.574168,-1.373607 -5.795621,-1.414757 -8.396122,-0.10725 -1.825399,0.917793 -3.237937,2.343822 -4.147723,4.187339 -0.682892,1.383754 -0.96926,2.744672 -0.914922,4.348018 0.03909,1.154361 0.221448,2.065568 0.609059,3.043793 0.848838,2.142257 2.476209,3.905686 4.514126,4.891536 1.622397,0.784847 3.45905,1.08877 5.194847,0.859634 z"
     id="path5" />
</svg>
