<?xml version="1.0" encoding="UTF-8" standalone="no"?>
<svg
   width="64"
   height="64"
   version="1.1"
   id="svg73"
   sodipodi:docname="abcd.svg"
   inkscape:version="1.4.2 (ebf0e940d0, 2025-05-08)"
   xmlns:inkscape="http://www.inkscape.org/namespaces/inkscape"
   xmlns:sodipodi="http://sodipodi.sourceforge.net/DTD/sodipodi-0.dtd"
   xmlns:xlink="http://www.w3.org/1999/xlink"
   xmlns="http://www.w3.org/2000/svg"
   xmlns:svg="http://www.w3.org/2000/svg"
   xmlns:rdf="http://www.w3.org/1999/02/22-rdf-syntax-ns#"
   xmlns:cc="http://creativecommons.org/ns#"
   xmlns:dc="http://purl.org/dc/elements/1.1/">
  <metadata
     id="metadata77">
    <rdf:RDF>
      <cc:Work
         rdf:about="">
        <dc:format>image/svg+xml</dc:format>
        <dc:type
           rdf:resource="http://purl.org/dc/dcmitype/StillImage" />
      </cc:Work>
    </rdf:RDF>
  </metadata>
  <sodipodi:namedview
     pagecolor="#f5f7fa"
     bordercolor="#666666"
     borderopacity="1"
     objecttolerance="10"
     gridtolerance="10"
     guidetolerance="10"
     inkscape:pageopacity="0"
     inkscape:pageshadow="2"
     inkscape:window-width="1462"
     inkscape:window-height="840"
     id="namedview75"
     showgrid="false"
     inkscape:zoom="6.2890624"
     inkscape:cx="53.585094"
     inkscape:cy="29.654659"
     inkscape:window-x="24"
     inkscape:window-y="21"
     inkscape:window-maximized="0"
     inkscape:current-layer="svg73"
     inkscape:document-rotation="0"
     inkscape:pagecheckerboard="0"
     inkscape:showpageshadow="2"
     inkscape:deskcolor="#d1d1d1" />
  <defs
     id="defs29">
    <linearGradient
       id="linearGradient4"
       inkscape:collect="always">
      <stop
         style="stop-color:#ac5eac;stop-opacity:1;"
         offset="0"
         id="stop4" />
      <stop
         style="stop-color:#c181c1;stop-opacity:1;"
         offset="0.5"
         id="stop1" />
    </linearGradient>
    <linearGradient
       id="linearGradient2"
       inkscape:collect="always">
      <stop
         style="stop-color:#f4ecf4;stop-opacity:1;"
         offset="0"
         id="stop2" />
      <stop
         style="stop-color:#e9d8e9;stop-opacity:1;"
         offset="1"
         id="stop3" />
    </linearGradient>
    <linearGradient
       inkscape:collect="always"
       xlink:href="#linearGradient2"
       id="linearGradient8"
       x1="31.721739"
       y1="5.2278585"
       x2="31.88887"
       y2="59.145416"
       gradientUnits="userSpaceOnUse"
       gradientTransform="matrix(0.8505,0,0,0.8505,4.7765033,4.7794869)" />
    <filter
       style="color-interpolation-filters:sRGB;"
       inkscape:label="Blur"
       id="filter9"
       x="-0.047762285"
       y="-0.047489063"
       width="1.0955246"
       height="1.0949781">
      <feGaussianBlur
         stdDeviation="1 1"
         result="blur"
         id="feGaussianBlur9" />
    </filter>
    <linearGradient
       inkscape:collect="always"
       xlink:href="#linearGradient4"
       id="linearGradient7"
       x1="26.723248"
       y1="58.711765"
       x2="25.756926"
       y2="5.950614"
       gradientUnits="userSpaceOnUse" />
    <filter
       style="color-interpolation-filters:sRGB;"
       inkscape:label="Out of Focus"
       id="filter40"
       x="-0.24226652"
       y="-0.2858297"
       width="1.484533"
       height="1.5716594">
      <feFlood
         flood-opacity="1"
         flood-color="rgb(255,255,255)"
         result="flood"
         id="feFlood38" />
      <feColorMatrix
         in="SourceGraphic"
         values="1 0 0 0 0 0 1 0 0 0 0 0 1 0 0 -0.2125 -0.7154 -0.0721 1 0 "
         result="colormatrix1"
         id="feColorMatrix38" />
      <feGaussianBlur
         in="colormatrix1"
         stdDeviation="3 3"
         result="blur"
         id="feGaussianBlur38" />
      <feColorMatrix
         in="blur"
         values="1 0 0 0 0 0 1 0 0 0 0 0 1 0 0 0 0 0 6 -2 "
         result="colormatrix2"
         id="feColorMatrix39" />
      <feBlend
         in="colormatrix2"
         in2="flood"
         mode="normal"
         result="blend"
         id="feBlend39" />
      <feComposite
         in="blend"
         in2="blend"
         operator="arithmetic"
         k2="0.2"
         result="composite1"
         id="feComposite39" />
      <feComposite
         in2="SourceGraphic"
         operator="in"
         id="feComposite40" />
    </filter>
  </defs>
  <g
     id="g877"
     transform="matrix(1.1,0,0,1.1,-3.1845928,-3.2065454)">
    <ellipse
       style="opacity:0.5;fill:#000000;stroke:none;stroke-width:3.89319;stroke-dasharray:none;stroke-opacity:1;filter:url(#filter9)"
       id="path2-5"
       cx="31.949858"
       cy="31.969812"
       rx="25.124426"
       ry="25.268976"
       transform="matrix(1.05,0,0,1.05,-1.5974929,-1.5984906)" />
    <path
       style="fill:#f5f7fa;stroke-width:0.204426;fill-opacity:1"
       d=""
       id="path3" />
    <circle
       style="opacity:1;fill:url(#linearGradient8);stroke:url(#linearGradient7);stroke-width:3.81818;stroke-dasharray:none;stroke-opacity:1"
       id="path2"
       cx="31.949856"
       cy="31.969812"
       r="24.711082" />
    <ellipse
       style="opacity:0.3;fill:none;stroke:#000000;stroke-width:0.974376;stroke-dasharray:none;stroke-opacity:1"
       id="path2-9"
       cx="31.949856"
       cy="31.969812"
       rx="23.129124"
       ry="23.129126" />
  </g>
  <path
     style="fill:#000000;fill-opacity:1;stroke-width:0.0686435;opacity:0.2"
     d="m 27.837326,47.757802 c -0.647177,-0.685387 -1.725541,-1.848498 -2.396366,-2.584699 -0.67082,-0.736198 -1.640439,-1.817331 -2.15471,-2.402517 -0.514269,-0.585183 -1.353378,-1.5582 -1.864686,-2.162263 -0.51131,-0.604061 -1.284129,-1.546189 -1.717375,-2.093619 -0.433246,-0.547429 -1.004205,-1.288775 -1.268796,-1.647438 -0.264588,-0.35866 -0.670855,-0.934501 -0.902813,-1.279648 -0.231959,-0.345146 -0.565422,-0.870266 -0.741031,-1.166938 -0.175608,-0.296666 -0.393279,-0.685095 -0.483715,-0.863171 -0.09044,-0.178074 -0.164431,-0.370291 -0.164431,-0.427149 0,-0.05685 0.633235,-0.679129 1.407187,-1.382824 0.773953,-0.703697 1.407189,-1.306883 1.407189,-1.340416 0,-0.03354 -0.03,-0.06095 -0.06667,-0.06095 -0.03666,0 -0.306952,-0.141602 -0.60063,-0.314672 -0.293679,-0.17307 -0.750189,-0.477357 -1.014466,-0.676192 -0.264277,-0.198838 -0.673562,-0.557595 -0.909524,-0.797242 -0.235959,-0.239645 -0.42902,-0.472296 -0.42902,-0.517001 0,-0.04469 0.193061,-0.204795 0.42902,-0.355754 0.235962,-0.150957 0.846028,-0.537328 1.355705,-0.858599 0.509676,-0.321272 2.038706,-1.282133 3.397844,-2.135243 l 2.471157,-1.551113 0.04585,1.938309 c 0.02522,1.066069 0.09535,2.509763 0.155808,3.208208 0.06048,0.698447 0.171792,1.779578 0.247391,2.402516 0.0756,0.622937 0.231672,1.703753 0.346834,2.401811 0.115159,0.69806 0.297685,1.717414 0.405613,2.265231 0.107921,0.547814 0.334127,1.582927 0.502668,2.30025 0.168542,0.717323 0.477358,1.906567 0.686261,2.642766 0.208906,0.7362 0.55545,1.87911 0.770107,2.539802 0.214661,0.660692 0.615913,1.803602 0.891673,2.5398 0.275763,0.736199 0.707785,1.832777 0.960057,2.436837 0.252276,0.604062 0.472839,1.121457 0.490147,1.149776 0.01732,0.02831 0.0064,0.04851 -0.02408,0.0449 -0.03055,-0.0037 -0.585046,-0.567358 -1.232225,-1.252744 z m 7.068908,1.207841 c 0.01723,-0.02833 0.262723,-0.607492 0.545549,-1.287061 0.282828,-0.679567 0.746507,-1.868813 1.030403,-2.642766 0.283892,-0.773953 0.687722,-1.947754 0.897397,-2.608444 0.209676,-0.660693 0.524553,-1.710934 0.699726,-2.333874 0.175171,-0.622936 0.45648,-1.719512 0.625126,-2.436835 0.168645,-0.717322 0.394932,-1.752435 0.502858,-2.300249 0.107921,-0.547819 0.290456,-1.56717 0.405612,-2.26523 0.115163,-0.69806 0.271237,-1.778875 0.346836,-2.401815 0.0756,-0.622935 0.186925,-1.704067 0.24739,-2.402512 0.06048,-0.698445 0.13058,-2.142142 0.155807,-3.208211 l 0.04585,-1.938308 2.47116,1.551114 c 1.359137,0.853112 2.888166,1.813969 3.397843,2.135244 0.509674,0.321269 1.119743,0.707641 1.355705,0.858599 0.235961,0.15096 0.42902,0.311047 0.42902,0.355753 0,0.04469 -0.193059,0.277354 -0.42902,0.517 -0.235962,0.239647 -0.645248,0.598407 -0.909524,0.797242 -0.264276,0.198836 -0.720787,0.503122 -1.014466,0.676194 -0.293679,0.173069 -0.563959,0.314672 -0.600629,0.314672 -0.03666,0 -0.06667,0.02746 -0.06667,0.06095 0,0.03354 0.633235,0.636719 1.407187,1.340412 0.773955,0.703697 1.407191,1.325966 1.407191,1.382826 0,0.05687 -0.07401,0.249074 -0.164429,0.42715 -0.09043,0.178074 -0.308108,0.566503 -0.483719,0.863171 -0.175607,0.296671 -0.509069,0.821789 -0.741028,1.166936 -0.23196,0.345145 -0.638227,0.920987 -0.902816,1.279648 -0.264588,0.358662 -0.835547,1.100009 -1.268792,1.647438 -0.433248,0.54743 -1.206334,1.489559 -1.717969,2.093619 -0.511634,0.604062 -1.252649,1.468969 -1.646701,1.922014 -0.394055,0.453045 -0.966236,1.100063 -1.271514,1.437815 -0.305277,0.337749 -0.967396,1.063653 -1.471369,1.613117 -0.503976,0.549464 -1.430659,1.544394 -2.0593,2.210966 -0.628639,0.666572 -1.16797,1.214863 -1.198514,1.218421 -0.03055,0.0036 -0.04145,-0.01668 -0.02421,-0.04501 z m -3.421059,-4.02373 c -0.113264,-0.05283 -0.2751,-0.162336 -0.359643,-0.243326 -0.08453,-0.08099 -0.206578,-0.246752 -0.271192,-0.368356 -0.07283,-0.137054 -0.1164,-0.370088 -0.114634,-0.613055 0.0022,-0.306394 0.04271,-0.452197 0.185462,-0.667915 0.100441,-0.151779 0.304917,-0.338349 0.454386,-0.414602 0.167069,-0.08525 0.40609,-0.138646 0.620444,-0.138646 0.214364,0 0.453381,0.05342 0.620452,0.138646 0.149468,0.07626 0.35394,0.262823 0.454382,0.414602 0.141975,0.214538 0.183592,0.363197 0.186987,0.667915 0.0033,0.287187 -0.03739,0.465664 -0.151883,0.667708 -0.08593,0.151664 -0.265599,0.350682 -0.399253,0.442263 -0.170162,0.1166 -0.35941,0.17316 -0.631293,0.188679 -0.234155,0.01334 -0.470027,-0.01598 -0.594215,-0.07391 z M 31.75975,39.68338 C 31.646486,39.6573 31.453299,39.5836 31.330437,39.519602 31.207578,39.455592 31.022756,39.275852 30.919721,39.12016 30.771646,38.896404 30.73239,38.75644 30.73239,38.452247 c 0,-0.259868 0.04422,-0.460305 0.136141,-0.617251 0.07488,-0.127832 0.250761,-0.325058 0.390855,-0.438283 0.181589,-0.146769 0.35171,-0.215184 0.592625,-0.238332 0.185851,-0.01786 0.447592,0.0037 0.581642,0.04796 0.13405,0.04424 0.352213,0.20052 0.484812,0.347289 0.132596,0.14677 0.27615,0.397081 0.319012,0.556248 0.04284,0.159165 0.05788,0.400308 0.03341,0.535877 -0.0245,0.135563 -0.119708,0.361707 -0.211598,0.502536 -0.09188,0.140831 -0.282869,0.313985 -0.424402,0.38479 -0.141535,0.07082 -0.350007,0.144255 -0.463268,0.16322 -0.113264,0.01898 -0.298595,0.01315 -0.411858,-0.01292 z m -0.195275,-5.387399 c -0.145159,-0.05174 -0.341151,-0.166233 -0.435545,-0.254398 -0.0944,-0.08817 -0.212374,-0.238589 -0.262181,-0.334279 -0.0498,-0.09568 -0.111167,-0.28383 -0.136351,-0.41809 -0.0252,-0.134262 -0.0094,-0.37919 0.03505,-0.544288 0.04868,-0.180783 0.181576,-0.400922 0.334133,-0.553477 0.151416,-0.15142 0.372759,-0.28547 0.550281,-0.333272 0.163336,-0.04399 0.416331,-0.05981 0.562219,-0.03514 0.145883,0.02464 0.365619,0.11245 0.4883,0.19513 0.12268,0.08269 0.290698,0.250692 0.373371,0.373373 0.08269,0.122681 0.170481,0.342413 0.195132,0.488299 0.02465,0.145886 0.0087,0.398882 -0.03514,0.562219 -0.04771,0.177178 -0.181772,0.398782 -0.33233,0.54934 -0.138803,0.138802 -0.375226,0.286473 -0.525391,0.328161 -0.150163,0.0417 -0.334805,0.07462 -0.410311,0.07317 -0.0755,-0.0015 -0.256053,-0.04497 -0.401207,-0.09672 z M 31.4839,28.946274 c -0.113964,-0.04965 -0.303755,-0.200247 -0.421756,-0.334643 -0.118001,-0.134397 -0.252148,-0.358286 -0.298104,-0.497537 -0.04875,-0.147696 -0.06482,-0.371793 -0.03858,-0.537873 0.02473,-0.15658 0.120879,-0.399917 0.213653,-0.540749 0.09277,-0.140833 0.290972,-0.318445 0.440441,-0.394699 0.169549,-0.08648 0.406062,-0.138641 0.628843,-0.138641 0.2567,0 0.43911,0.04807 0.648872,0.171 0.160487,0.09404 0.354887,0.273093 0.432003,0.397868 0.0771,0.124778 0.160468,0.353552 0.185228,0.508391 0.0262,0.163881 0.01012,0.387322 -0.03852,0.534703 -0.04596,0.139251 -0.180195,0.363244 -0.298308,0.49777 -0.118113,0.134522 -0.314633,0.286322 -0.436711,0.337328 -0.122077,0.05102 -0.354231,0.09152 -0.515897,0.09006 -0.161667,-0.0015 -0.387179,-0.04331 -0.501143,-0.09298 z m -4.305005,-3.948591 -0.224176,-0.200223 -0.02159,-2.528347 c -0.01398,-1.637783 0.004,-2.615077 0.0509,-2.774582 0.03987,-0.135432 0.137779,-0.305322 0.217577,-0.377539 0.09562,-0.08656 0.242074,-0.130158 0.429612,-0.12795 0.240889,0.0027 0.59773,0.185238 2.326665,1.189271 l 2.042139,1.185922 2.042138,-1.185922 c 1.728937,-1.004033 2.085776,-1.186435 2.326662,-1.189271 0.18754,-0.0023 0.333985,0.04141 0.429616,0.12795 0.07978,0.07221 0.177706,0.242107 0.217579,0.377539 0.04696,0.159505 0.06488,1.136799 0.0509,2.774582 l -0.02159,2.528347 -0.224175,0.200223 c -0.151002,0.134875 -0.297598,0.200228 -0.449134,0.200228 -0.166435,0 -0.764181,-0.311723 -2.297573,-1.198171 l -2.0726,-1.19817 -2.074246,1.19817 c -1.534816,0.886571 -2.132787,1.198171 -2.299362,1.198171 -0.151705,0 -0.29822,-0.0653 -0.449289,-0.200228 z"
     id="path1614-8" />
  <path
     style="fill:#4d4d4d;fill-opacity:1;stroke-width:0.0686435"
     d="m 27.837326,45.757802 c -0.647177,-0.685387 -1.725541,-1.848498 -2.396366,-2.584699 -0.67082,-0.736198 -1.640439,-1.817331 -2.15471,-2.402517 -0.514269,-0.585183 -1.353378,-1.5582 -1.864686,-2.162263 -0.51131,-0.604061 -1.284129,-1.546189 -1.717375,-2.093619 -0.433246,-0.547429 -1.004205,-1.288775 -1.268796,-1.647438 -0.264588,-0.35866 -0.670855,-0.934501 -0.902813,-1.279648 -0.231959,-0.345146 -0.565422,-0.870266 -0.741031,-1.166938 -0.175608,-0.296666 -0.393279,-0.685095 -0.483715,-0.863171 -0.09044,-0.178074 -0.164431,-0.370291 -0.164431,-0.427149 0,-0.05685 0.633235,-0.679129 1.407187,-1.382824 0.773953,-0.703697 1.407189,-1.306883 1.407189,-1.340416 0,-0.03354 -0.03,-0.06095 -0.06667,-0.06095 -0.03666,0 -0.306952,-0.141602 -0.60063,-0.314672 -0.293679,-0.17307 -0.750189,-0.477357 -1.014466,-0.676192 -0.264277,-0.198838 -0.673562,-0.557595 -0.909524,-0.797242 -0.235959,-0.239645 -0.42902,-0.472296 -0.42902,-0.517001 0,-0.04469 0.193061,-0.204795 0.42902,-0.355754 0.235962,-0.150957 0.846028,-0.537328 1.355705,-0.858599 0.509676,-0.321272 2.038706,-1.282133 3.397844,-2.135243 l 2.471157,-1.551113 0.04585,1.938309 c 0.02522,1.066069 0.09535,2.509763 0.155808,3.208208 0.06048,0.698447 0.171792,1.779578 0.247391,2.402516 0.0756,0.622937 0.231672,1.703753 0.346834,2.401811 0.115159,0.69806 0.297685,1.717414 0.405613,2.265231 0.107921,0.547814 0.334127,1.582927 0.502668,2.30025 0.168542,0.717323 0.477358,1.906567 0.686261,2.642766 0.208906,0.7362 0.55545,1.87911 0.770107,2.539802 0.214661,0.660692 0.615913,1.803602 0.891673,2.5398 0.275763,0.736199 0.707785,1.832777 0.960057,2.436837 0.252276,0.604062 0.472839,1.121457 0.490147,1.149776 0.01732,0.02831 0.0064,0.04851 -0.02408,0.0449 -0.03055,-0.0037 -0.585046,-0.567358 -1.232225,-1.252744 z m 7.068908,1.207841 c 0.01723,-0.02833 0.262723,-0.607492 0.545549,-1.287061 0.282828,-0.679567 0.746507,-1.868813 1.030403,-2.642766 0.283892,-0.773953 0.687722,-1.947754 0.897397,-2.608444 0.209676,-0.660693 0.524553,-1.710934 0.699726,-2.333874 0.175171,-0.622936 0.45648,-1.719512 0.625126,-2.436835 0.168645,-0.717322 0.394932,-1.752435 0.502858,-2.300249 0.107921,-0.547819 0.290456,-1.56717 0.405612,-2.26523 0.115163,-0.69806 0.271237,-1.778875 0.346836,-2.401815 0.0756,-0.622935 0.186925,-1.704067 0.24739,-2.402512 0.06048,-0.698445 0.13058,-2.142142 0.155807,-3.208211 l 0.04585,-1.938308 2.47116,1.551114 c 1.359137,0.853112 2.888166,1.813969 3.397843,2.135244 0.509674,0.321269 1.119743,0.707641 1.355705,0.858599 0.235961,0.15096 0.42902,0.311047 0.42902,0.355753 0,0.04469 -0.193059,0.277354 -0.42902,0.517 -0.235962,0.239647 -0.645248,0.598407 -0.909524,0.797242 -0.264276,0.198836 -0.720787,0.503122 -1.014466,0.676194 -0.293679,0.173069 -0.563959,0.314672 -0.600629,0.314672 -0.03666,0 -0.06667,0.02746 -0.06667,0.06095 0,0.03354 0.633235,0.636719 1.407187,1.340412 0.773955,0.703697 1.407191,1.325966 1.407191,1.382826 0,0.05687 -0.07401,0.249074 -0.164429,0.42715 -0.09043,0.178074 -0.308108,0.566503 -0.483719,0.863171 -0.175607,0.296671 -0.509069,0.821789 -0.741028,1.166936 -0.23196,0.345145 -0.638227,0.920987 -0.902816,1.279648 -0.264588,0.358662 -0.835547,1.100009 -1.268792,1.647438 -0.433248,0.54743 -1.206334,1.489559 -1.717969,2.093619 -0.511634,0.604062 -1.252649,1.468969 -1.646701,1.922014 -0.394055,0.453045 -0.966236,1.100063 -1.271514,1.437815 -0.305277,0.337749 -0.967396,1.063653 -1.471369,1.613117 -0.503976,0.549464 -1.430659,1.544394 -2.0593,2.210966 -0.628639,0.666572 -1.16797,1.214863 -1.198514,1.218421 -0.03055,0.0036 -0.04145,-0.01668 -0.02421,-0.04501 z m -3.421059,-4.02373 c -0.113264,-0.05283 -0.2751,-0.162336 -0.359643,-0.243326 -0.08453,-0.08099 -0.206578,-0.246752 -0.271192,-0.368356 -0.07283,-0.137054 -0.1164,-0.370088 -0.114634,-0.613055 0.0022,-0.306394 0.04271,-0.452197 0.185462,-0.667915 0.100441,-0.151779 0.304917,-0.338349 0.454386,-0.414602 0.167069,-0.08525 0.40609,-0.138646 0.620444,-0.138646 0.214364,0 0.453381,0.05342 0.620452,0.138646 0.149468,0.07626 0.35394,0.262823 0.454382,0.414602 0.141975,0.214538 0.183592,0.363197 0.186987,0.667915 0.0033,0.287187 -0.03739,0.465664 -0.151883,0.667708 -0.08593,0.151664 -0.265599,0.350682 -0.399253,0.442263 -0.170162,0.1166 -0.35941,0.17316 -0.631293,0.188679 -0.234155,0.01334 -0.470027,-0.01598 -0.594215,-0.07391 z M 31.75975,37.68338 C 31.646486,37.6573 31.453299,37.5836 31.330437,37.519602 31.207578,37.455592 31.022756,37.275852 30.919721,37.12016 30.771646,36.896404 30.73239,36.75644 30.73239,36.452247 c 0,-0.259868 0.04422,-0.460305 0.136141,-0.617251 0.07488,-0.127832 0.250761,-0.325058 0.390855,-0.438283 0.181589,-0.146769 0.35171,-0.215184 0.592625,-0.238332 0.185851,-0.01786 0.447592,0.0037 0.581642,0.04796 0.13405,0.04424 0.352213,0.20052 0.484812,0.347289 0.132596,0.14677 0.27615,0.397081 0.319012,0.556248 0.04284,0.159165 0.05788,0.400308 0.03341,0.535877 -0.0245,0.135563 -0.119708,0.361707 -0.211598,0.502536 -0.09188,0.140831 -0.282869,0.313985 -0.424402,0.38479 -0.141535,0.07082 -0.350007,0.144255 -0.463268,0.16322 -0.113264,0.01898 -0.298595,0.01315 -0.411858,-0.01292 z m -0.195275,-5.387399 c -0.145159,-0.05174 -0.341151,-0.166233 -0.435545,-0.254398 -0.0944,-0.08817 -0.212374,-0.238589 -0.262181,-0.334279 -0.0498,-0.09568 -0.111167,-0.28383 -0.136351,-0.41809 -0.0252,-0.134262 -0.0094,-0.37919 0.03505,-0.544288 0.04868,-0.180783 0.181576,-0.400922 0.334133,-0.553477 0.151416,-0.15142 0.372759,-0.28547 0.550281,-0.333272 0.163336,-0.04399 0.416331,-0.05981 0.562219,-0.03514 0.145883,0.02464 0.365619,0.11245 0.4883,0.19513 0.12268,0.08269 0.290698,0.250692 0.373371,0.373373 0.08269,0.122681 0.170481,0.342413 0.195132,0.488299 0.02465,0.145886 0.0087,0.398882 -0.03514,0.562219 -0.04771,0.177178 -0.181772,0.398782 -0.33233,0.54934 -0.138803,0.138802 -0.375226,0.286473 -0.525391,0.328161 -0.150163,0.0417 -0.334805,0.07462 -0.410311,0.07317 -0.0755,-0.0015 -0.256053,-0.04497 -0.401207,-0.09672 z M 31.4839,26.946274 c -0.113964,-0.04965 -0.303755,-0.200247 -0.421756,-0.334643 -0.118001,-0.134397 -0.252148,-0.358286 -0.298104,-0.497537 -0.04875,-0.147696 -0.06482,-0.371793 -0.03858,-0.537873 0.02473,-0.15658 0.120879,-0.399917 0.213653,-0.540749 0.09277,-0.140833 0.290972,-0.318445 0.440441,-0.394699 0.169549,-0.08648 0.406062,-0.138641 0.628843,-0.138641 0.2567,0 0.43911,0.04807 0.648872,0.171 0.160487,0.09404 0.354887,0.273093 0.432003,0.397868 0.0771,0.124778 0.160468,0.353552 0.185228,0.508391 0.0262,0.163881 0.01012,0.387322 -0.03852,0.534703 -0.04596,0.139251 -0.180195,0.363244 -0.298308,0.49777 -0.118113,0.134522 -0.314633,0.286322 -0.436711,0.337328 -0.122077,0.05102 -0.354231,0.09152 -0.515897,0.09006 -0.161667,-0.0015 -0.387179,-0.04331 -0.501143,-0.09298 z m -4.305005,-3.948591 -0.224176,-0.200223 -0.02159,-2.528347 c -0.01398,-1.637783 0.004,-2.615077 0.0509,-2.774582 0.03987,-0.135432 0.137779,-0.305322 0.217577,-0.377539 0.09562,-0.08656 0.242074,-0.130158 0.429612,-0.12795 0.240889,0.0027 0.59773,0.185238 2.326665,1.189271 l 2.042139,1.185922 2.042138,-1.185922 c 1.728937,-1.004033 2.085776,-1.186435 2.326662,-1.189271 0.18754,-0.0023 0.333985,0.04141 0.429616,0.12795 0.07978,0.07221 0.177706,0.242107 0.217579,0.377539 0.04696,0.159505 0.06488,1.136799 0.0509,2.774582 l -0.02159,2.528347 -0.224175,0.200223 c -0.151002,0.134875 -0.297598,0.200228 -0.449134,0.200228 -0.166435,0 -0.764181,-0.311723 -2.297573,-1.198171 l -2.0726,-1.19817 -2.074246,1.19817 c -1.534816,0.886571 -2.132787,1.198171 -2.299362,1.198171 -0.151705,0 -0.29822,-0.0653 -0.449289,-0.200228 z"
     id="path1614" />
</svg>
