<?xml version="1.0" encoding="UTF-8" standalone="no"?>
<svg
   width="64"
   height="64"
   version="1.1"
   id="svg73"
   sodipodi:docname="abcd.svg"
   inkscape:version="1.4.2 (ebf0e940d0, 2025-05-08)"
   xmlns:inkscape="http://www.inkscape.org/namespaces/inkscape"
   xmlns:sodipodi="http://sodipodi.sourceforge.net/DTD/sodipodi-0.dtd"
   xmlns:xlink="http://www.w3.org/1999/xlink"
   xmlns="http://www.w3.org/2000/svg"
   xmlns:svg="http://www.w3.org/2000/svg"
   xmlns:rdf="http://www.w3.org/1999/02/22-rdf-syntax-ns#"
   xmlns:cc="http://creativecommons.org/ns#"
   xmlns:dc="http://purl.org/dc/elements/1.1/">
  <metadata
     id="metadata77">
    <rdf:RDF>
      <cc:Work
         rdf:about="">
        <dc:format>image/svg+xml</dc:format>
        <dc:type
           rdf:resource="http://purl.org/dc/dcmitype/StillImage" />
      </cc:Work>
    </rdf:RDF>
  </metadata>
  <sodipodi:namedview
     pagecolor="#f5f7fa"
     bordercolor="#666666"
     borderopacity="1"
     objecttolerance="10"
     gridtolerance="10"
     guidetolerance="10"
     inkscape:pageopacity="0"
     inkscape:pageshadow="2"
     inkscape:window-width="1320"
     inkscape:window-height="766"
     id="namedview75"
     showgrid="false"
     inkscape:zoom="4.4470387"
     inkscape:cx="53.518761"
     inkscape:cy="22.37444"
     inkscape:window-x="24"
     inkscape:window-y="21"
     inkscape:window-maximized="0"
     inkscape:current-layer="svg73"
     inkscape:document-rotation="0"
     inkscape:pagecheckerboard="0"
     inkscape:showpageshadow="2"
     inkscape:deskcolor="#d1d1d1" />
  <defs
     id="defs29">
    <linearGradient
       id="linearGradient4"
       inkscape:collect="always">
      <stop
         style="stop-color:#ac5eac;stop-opacity:1;"
         offset="0"
         id="stop4" />
      <stop
         style="stop-color:#c181c1;stop-opacity:1;"
         offset="0.5"
         id="stop1" />
    </linearGradient>
    <linearGradient
       id="linearGradient2"
       inkscape:collect="always">
      <stop
         style="stop-color:#f4ecf4;stop-opacity:1;"
         offset="0"
         id="stop2" />
      <stop
         style="stop-color:#e9d8e9;stop-opacity:1;"
         offset="1"
         id="stop3" />
    </linearGradient>
    <linearGradient
       inkscape:collect="always"
       xlink:href="#linearGradient2"
       id="linearGradient8"
       x1="31.721739"
       y1="5.2278585"
       x2="31.88887"
       y2="59.145416"
       gradientUnits="userSpaceOnUse"
       gradientTransform="matrix(0.8505,0,0,0.8505,4.7765033,4.7794869)" />
    <filter
       style="color-interpolation-filters:sRGB;"
       inkscape:label="Blur"
       id="filter9"
       x="-0.047762285"
       y="-0.047489063"
       width="1.0955246"
       height="1.0949781">
      <feGaussianBlur
         stdDeviation="1 1"
         result="blur"
         id="feGaussianBlur9" />
    </filter>
    <linearGradient
       inkscape:collect="always"
       xlink:href="#linearGradient4"
       id="linearGradient7"
       x1="26.723248"
       y1="58.711765"
       x2="25.756926"
       y2="5.950614"
       gradientUnits="userSpaceOnUse" />
    <filter
       style="color-interpolation-filters:sRGB;"
       inkscape:label="Out of Focus"
       id="filter40"
       x="-0.24226652"
       y="-0.2858297"
       width="1.484533"
       height="1.5716594">
      <feFlood
         flood-opacity="1"
         flood-color="rgb(255,255,255)"
         result="flood"
         id="feFlood38" />
      <feColorMatrix
         in="SourceGraphic"
         values="1 0 0 0 0 0 1 0 0 0 0 0 1 0 0 -0.2125 -0.7154 -0.0721 1 0 "
         result="colormatrix1"
         id="feColorMatrix38" />
      <feGaussianBlur
         in="colormatrix1"
         stdDeviation="3 3"
         result="blur"
         id="feGaussianBlur38" />
      <feColorMatrix
         in="blur"
         values="1 0 0 0 0 0 1 0 0 0 0 0 1 0 0 0 0 0 6 -2 "
         result="colormatrix2"
         id="feColorMatrix39" />
      <feBlend
         in="colormatrix2"
         in2="flood"
         mode="normal"
         result="blend"
         id="feBlend39" />
      <feComposite
         in="blend"
         in2="blend"
         operator="arithmetic"
         k2="0.2"
         result="composite1"
         id="feComposite39" />
      <feComposite
         in2="SourceGraphic"
         operator="in"
         id="feComposite40" />
    </filter>
  </defs>
  <g
     id="g877"
     transform="matrix(1.1,0,0,1.1,-3.1845928,-3.2065454)">
    <ellipse
       style="opacity:0.5;fill:#000000;stroke:none;stroke-width:3.89319;stroke-dasharray:none;stroke-opacity:1;filter:url(#filter9)"
       id="path2-5"
       cx="31.949858"
       cy="31.969812"
       rx="25.124426"
       ry="25.268976"
       transform="matrix(1.05,0,0,1.05,-1.5974929,-1.5984906)" />
    <path
       style="fill:#f5f7fa;stroke-width:0.204426;fill-opacity:1"
       d=""
       id="path3" />
    <circle
       style="opacity:1;fill:url(#linearGradient8);stroke:url(#linearGradient7);stroke-width:3.81818;stroke-dasharray:none;stroke-opacity:1"
       id="path2"
       cx="31.949856"
       cy="31.969812"
       r="24.711082" />
    <ellipse
       style="opacity:0.3;fill:none;stroke:#000000;stroke-width:0.974376;stroke-dasharray:none;stroke-opacity:1"
       id="path2-9"
       cx="31.949856"
       cy="31.969812"
       rx="23.129124"
       ry="23.129126" />
  </g>
  <path
     style="fill:#000000;fill-opacity:1;stroke-width:0.100824;opacity:0.2"
     d="m 32.102497,49.149733 c -0.04756,-0.776353 -0.177233,-2.016493 -0.288126,-2.755875 -0.11089,-0.739381 -0.296387,-3.310419 -0.412207,-5.713407 -0.239239,-4.963497 -0.264211,-5.194589 -0.579244,-5.360393 -0.12621,-0.06643 -1.288133,-0.190542 -2.582052,-0.275814 -1.293917,-0.08528 -2.806289,-0.219835 -3.360826,-0.299026 -0.554536,-0.07919 -1.703938,-0.215411 -2.554227,-0.302711 l -1.545981,-0.158726 1.16887,-0.09548 c 0.642878,-0.05253 1.550302,-0.182773 2.016497,-0.289453 0.466194,-0.106689 2.178509,-0.287938 3.805153,-0.402796 3.387175,-0.239163 3.426729,-0.255315 3.429615,-1.400588 0.0024,-0.935889 0.380444,-8.032525 0.47728,-8.958515 0.04639,-0.44363 0.169003,-1.381302 0.272472,-2.083715 0.103466,-0.702409 0.194508,-1.670329 0.202311,-2.150928 0.01739,-1.06722 0.221256,-0.617858 0.244035,0.537734 0.008,0.406659 0.10362,1.494697 0.212466,2.417859 0.108845,0.923164 0.292584,3.615188 0.408312,5.982273 0.24501,5.011561 0.258436,5.128522 0.610342,5.316854 0.146454,0.07838 1.520112,0.230434 3.052565,0.337898 1.532455,0.10747 3.119003,0.264079 3.525662,0.348037 0.406658,0.08396 1.344331,0.223242 2.083708,0.309525 l 1.344332,0.156876 -1.344332,0.104654 c -0.739377,0.05756 -1.58631,0.158929 -1.882063,0.22527 -0.295717,0.06634 -1.898863,0.219941 -3.562472,0.341334 -3.286089,0.239787 -3.436831,0.284175 -3.554661,1.046756 -0.03556,0.230148 -0.159135,2.354287 -0.274613,4.720308 -0.115479,2.366019 -0.297409,5.027797 -0.404297,5.91505 -0.106887,0.887264 -0.202253,1.976169 -0.211931,2.419799 -0.03299,1.512822 -0.205607,1.551943 -0.296593,0.06726 z m -2.651732,-4.78483 C 25.62701,43.349152 22.737205,40.01433 22.145729,35.934916 l -0.07409,-0.510894 0.698421,0.04038 c 0.69392,0.04013 0.698151,0.04309 0.656553,0.459424 -0.02302,0.230479 0.04129,0.502706 0.142946,0.60495 0.101651,0.102245 0.387371,0.566537 0.634946,1.031759 0.565051,1.061792 1.801666,2.225344 2.922527,2.749858 0.739973,0.346289 1.257159,0.467261 3.098045,0.724745 0.356964,0.0499 0.418022,0.103741 0.329208,0.290217 -0.05996,0.125899 -0.07568,0.81121 -0.03495,1.522896 0.04073,0.711693 0.05454,1.392255 0.03064,1.512375 -0.05168,0.259671 -0.136496,0.259986 -1.099214,0.0044 z m 4.489317,-0.894964 c 0.04656,-0.536056 0.09659,-1.534216 0.111242,-2.218149 0.01463,-0.683926 0.0707,-1.243506 0.124555,-1.243506 0.316205,0 2.328835,-1.731703 2.855253,-2.456713 0.334208,-0.460291 0.701189,-0.94276 0.815503,-1.072153 0.114333,-0.129387 0.207817,-0.350109 0.207817,-0.49048 0,-0.273012 0.08059,-0.286438 2.985183,-0.497245 l 1.170338,-0.08494 -0.07548,0.519527 c -0.487118,3.353179 -2.522485,6.24709 -5.423458,7.711158 -0.838924,0.423391 -2.040881,0.807136 -2.528097,0.807136 -0.324685,0 -0.326759,-0.008 -0.242873,-0.974637 z M 22.235835,32.292367 c 0.102883,-0.750587 0.664679,-2.031526 0.936787,-2.135946 0.132389,-0.0508 0.181491,-0.180283 0.135327,-0.356823 -0.05261,-0.201123 -0.0085,-0.27709 0.160551,-0.27709 0.176697,0 0.212874,0.07311 0.149714,0.302475 -0.04581,0.166364 -0.151588,0.887328 -0.235056,1.602152 -0.16047,1.374244 -0.210461,1.448832 -0.974794,1.454366 -0.222419,0.0017 -0.243591,-0.07069 -0.172529,-0.589134 z m 17.969574,0.453552 c -0.628472,-0.03862 -1.218297,-0.117792 -1.310717,-0.175973 -0.0924,-0.05818 -0.168042,-0.270985 -0.168042,-0.4729 0,-0.635036 -0.389276,-1.932587 -0.883465,-2.944805 -0.639382,-1.309605 -1.691883,-2.423768 -2.87884,-3.047496 -0.849081,-0.446182 -0.942853,-0.535715 -0.942853,-0.900263 0,-0.222645 -0.06754,-0.531011 -0.150098,-0.685258 -0.145547,-0.271954 -0.127929,-0.278168 0.581037,-0.204996 0.402123,0.04151 1.140938,0.261272 1.64181,0.488382 2.992487,1.356856 5.48949,4.469394 5.798023,7.227284 0.09059,0.80988 0.08592,0.826551 -0.225856,0.806599 -0.175084,-0.01119 -0.832544,-0.05196 -1.461023,-0.09057 z M 27.568704,25.706837 c 0,-0.119527 0.05344,-0.217318 0.118753,-0.217318 0.06533,0 0.150522,-0.121469 0.189341,-0.269931 0.04002,-0.15308 0.32324,-0.384057 0.654233,-0.53357 0.610345,-0.275702 1.959436,-0.623954 2.048514,-0.528803 0.02839,0.03035 0.02114,0.364286 -0.0161,0.742072 l -0.06779,0.686885 -1.093785,0.08759 c -0.601589,0.04817 -1.260155,0.124223 -1.463484,0.168993 -0.284411,0.06261 -0.36969,0.03127 -0.369693,-0.13592 z"
     id="path1-3" />
  <path
     style="fill:#4d4d4d;fill-opacity:1;stroke-width:0.100824"
     d="m 32.102497,47.149733 c -0.04756,-0.776353 -0.177233,-2.016493 -0.288126,-2.755875 -0.11089,-0.739381 -0.296387,-3.310419 -0.412207,-5.713407 -0.239239,-4.963497 -0.264211,-5.194589 -0.579244,-5.360393 -0.12621,-0.06643 -1.288133,-0.190542 -2.582052,-0.275814 -1.293917,-0.08528 -2.806289,-0.219835 -3.360826,-0.299026 -0.554536,-0.07919 -1.703938,-0.215411 -2.554227,-0.302711 l -1.545981,-0.158726 1.16887,-0.09548 c 0.642878,-0.05253 1.550302,-0.182773 2.016497,-0.289453 0.466194,-0.106689 2.178509,-0.287938 3.805153,-0.402796 3.387175,-0.239163 3.426729,-0.255315 3.429615,-1.400588 0.0024,-0.935889 0.380444,-8.032525 0.47728,-8.958515 0.04639,-0.44363 0.169003,-1.381302 0.272472,-2.083715 0.103466,-0.702409 0.194508,-1.670329 0.202311,-2.150928 0.01739,-1.06722 0.221256,-0.617858 0.244035,0.537734 0.008,0.406659 0.10362,1.494697 0.212466,2.417859 0.108845,0.923164 0.292584,3.615188 0.408312,5.982273 0.24501,5.011561 0.258436,5.128522 0.610342,5.316854 0.146454,0.07838 1.520112,0.230434 3.052565,0.337898 1.532455,0.10747 3.119003,0.264079 3.525662,0.348037 0.406658,0.08396 1.344331,0.223242 2.083708,0.309525 l 1.344332,0.156876 -1.344332,0.104654 c -0.739377,0.05756 -1.58631,0.158929 -1.882063,0.22527 -0.295717,0.06634 -1.898863,0.219941 -3.562472,0.341334 -3.286089,0.239787 -3.436831,0.284175 -3.554661,1.046756 -0.03556,0.230148 -0.159135,2.354287 -0.274613,4.720308 -0.115479,2.366019 -0.297409,5.027797 -0.404297,5.91505 -0.106887,0.887264 -0.202253,1.976169 -0.211931,2.419799 -0.03299,1.512822 -0.205607,1.551943 -0.296593,0.06726 z m -2.651732,-4.78483 C 25.62701,41.349152 22.737205,38.01433 22.145729,33.934916 l -0.07409,-0.510894 0.698421,0.04038 c 0.69392,0.04013 0.698151,0.04309 0.656553,0.459424 -0.02302,0.230479 0.04129,0.502706 0.142946,0.60495 0.101651,0.102245 0.387371,0.566537 0.634946,1.031759 0.565051,1.061792 1.801666,2.225344 2.922527,2.749858 0.739973,0.346289 1.257159,0.467261 3.098045,0.724745 0.356964,0.0499 0.418022,0.103741 0.329208,0.290217 -0.05996,0.125899 -0.07568,0.81121 -0.03495,1.522896 0.04073,0.711693 0.05454,1.392255 0.03064,1.512375 -0.05168,0.259671 -0.136496,0.259986 -1.099214,0.0044 z m 4.489317,-0.894964 c 0.04656,-0.536056 0.09659,-1.534216 0.111242,-2.218149 0.01463,-0.683926 0.0707,-1.243506 0.124555,-1.243506 0.316205,0 2.328835,-1.731703 2.855253,-2.456713 0.334208,-0.460291 0.701189,-0.94276 0.815503,-1.072153 0.114333,-0.129387 0.207817,-0.350109 0.207817,-0.49048 0,-0.273012 0.08059,-0.286438 2.985183,-0.497245 l 1.170338,-0.08494 -0.07548,0.519527 c -0.487118,3.353179 -2.522485,6.24709 -5.423458,7.711158 -0.838924,0.423391 -2.040881,0.807136 -2.528097,0.807136 -0.324685,0 -0.326759,-0.008 -0.242873,-0.974637 z M 22.235835,30.292367 c 0.102883,-0.750587 0.664679,-2.031526 0.936787,-2.135946 0.132389,-0.0508 0.181491,-0.180283 0.135327,-0.356823 -0.05261,-0.201123 -0.0085,-0.27709 0.160551,-0.27709 0.176697,0 0.212874,0.07311 0.149714,0.302475 -0.04581,0.166364 -0.151588,0.887328 -0.235056,1.602152 -0.16047,1.374244 -0.210461,1.448832 -0.974794,1.454366 -0.222419,0.0017 -0.243591,-0.07069 -0.172529,-0.589134 z m 17.969574,0.453552 c -0.628472,-0.03862 -1.218297,-0.117792 -1.310717,-0.175973 -0.0924,-0.05818 -0.168042,-0.270985 -0.168042,-0.4729 0,-0.635036 -0.389276,-1.932587 -0.883465,-2.944805 -0.639382,-1.309605 -1.691883,-2.423768 -2.87884,-3.047496 -0.849081,-0.446182 -0.942853,-0.535715 -0.942853,-0.900263 0,-0.222645 -0.06754,-0.531011 -0.150098,-0.685258 -0.145547,-0.271954 -0.127929,-0.278168 0.581037,-0.204996 0.402123,0.04151 1.140938,0.261272 1.64181,0.488382 2.992487,1.356856 5.48949,4.469394 5.798023,7.227284 0.09059,0.80988 0.08592,0.826551 -0.225856,0.806599 -0.175084,-0.01119 -0.832544,-0.05196 -1.461023,-0.09057 z M 27.568704,23.706837 c 0,-0.119527 0.05344,-0.217318 0.118753,-0.217318 0.06533,0 0.150522,-0.121469 0.189341,-0.269931 0.04002,-0.15308 0.32324,-0.384057 0.654233,-0.53357 0.610345,-0.275702 1.959436,-0.623954 2.048514,-0.528803 0.02839,0.03035 0.02114,0.364286 -0.0161,0.742072 l -0.06779,0.686885 -1.093785,0.08759 c -0.601589,0.04817 -1.260155,0.124223 -1.463484,0.168993 -0.284411,0.06261 -0.36969,0.03127 -0.369693,-0.13592 z"
     id="path1" />
</svg>
