<?xml version="1.0" encoding="UTF-8" standalone="no"?>
<svg
   width="64"
   height="64"
   version="1.1"
   id="svg73"
   sodipodi:docname="abcd.svg"
   inkscape:version="1.4.2 (ebf0e940d0, 2025-05-08)"
   xmlns:inkscape="http://www.inkscape.org/namespaces/inkscape"
   xmlns:sodipodi="http://sodipodi.sourceforge.net/DTD/sodipodi-0.dtd"
   xmlns:xlink="http://www.w3.org/1999/xlink"
   xmlns="http://www.w3.org/2000/svg"
   xmlns:svg="http://www.w3.org/2000/svg"
   xmlns:rdf="http://www.w3.org/1999/02/22-rdf-syntax-ns#"
   xmlns:cc="http://creativecommons.org/ns#"
   xmlns:dc="http://purl.org/dc/elements/1.1/">
  <metadata
     id="metadata77">
    <rdf:RDF>
      <cc:Work
         rdf:about="">
        <dc:format>image/svg+xml</dc:format>
        <dc:type
           rdf:resource="http://purl.org/dc/dcmitype/StillImage" />
      </cc:Work>
    </rdf:RDF>
  </metadata>
  <sodipodi:namedview
     pagecolor="#f5f7fa"
     bordercolor="#666666"
     borderopacity="1"
     objecttolerance="10"
     gridtolerance="10"
     guidetolerance="10"
     inkscape:pageopacity="0"
     inkscape:pageshadow="2"
     inkscape:window-width="1320"
     inkscape:window-height="766"
     id="namedview75"
     showgrid="false"
     inkscape:zoom="4.4470387"
     inkscape:cx="53.518761"
     inkscape:cy="22.37444"
     inkscape:window-x="24"
     inkscape:window-y="21"
     inkscape:window-maximized="0"
     inkscape:current-layer="svg73"
     inkscape:document-rotation="0"
     inkscape:pagecheckerboard="0"
     inkscape:showpageshadow="2"
     inkscape:deskcolor="#d1d1d1" />
  <defs
     id="defs29">
    <linearGradient
       id="linearGradient4"
       inkscape:collect="always">
      <stop
         style="stop-color:#ac5eac;stop-opacity:1;"
         offset="0"
         id="stop4" />
      <stop
         style="stop-color:#c181c1;stop-opacity:1;"
         offset="0.5"
         id="stop1" />
    </linearGradient>
    <linearGradient
       id="linearGradient2"
       inkscape:collect="always">
      <stop
         style="stop-color:#f4ecf4;stop-opacity:1;"
         offset="0"
         id="stop2" />
      <stop
         style="stop-color:#e9d8e9;stop-opacity:1;"
         offset="1"
         id="stop3" />
    </linearGradient>
    <linearGradient
       inkscape:collect="always"
       xlink:href="#linearGradient2"
       id="linearGradient8"
       x1="31.721739"
       y1="5.2278585"
       x2="31.88887"
       y2="59.145416"
       gradientUnits="userSpaceOnUse"
       gradientTransform="matrix(0.8505,0,0,0.8505,4.7765033,4.7794869)" />
    <filter
       style="color-interpolation-filters:sRGB;"
       inkscape:label="Blur"
       id="filter9"
       x="-0.047762285"
       y="-0.047489063"
       width="1.0955246"
       height="1.0949781">
      <feGaussianBlur
         stdDeviation="1 1"
         result="blur"
         id="feGaussianBlur9" />
    </filter>
    <linearGradient
       inkscape:collect="always"
       xlink:href="#linearGradient4"
       id="linearGradient7"
       x1="26.723248"
       y1="58.711765"
       x2="25.756926"
       y2="5.950614"
       gradientUnits="userSpaceOnUse" />
    <filter
       style="color-interpolation-filters:sRGB;"
       inkscape:label="Out of Focus"
       id="filter40"
       x="-0.24226652"
       y="-0.2858297"
       width="1.484533"
       height="1.5716594">
      <feFlood
         flood-opacity="1"
         flood-color="rgb(255,255,255)"
         result="flood"
         id="feFlood38" />
      <feColorMatrix
         in="SourceGraphic"
         values="1 0 0 0 0 0 1 0 0 0 0 0 1 0 0 -0.2125 -0.7154 -0.0721 1 0 "
         result="colormatrix1"
         id="feColorMatrix38" />
      <feGaussianBlur
         in="colormatrix1"
         stdDeviation="3 3"
         result="blur"
         id="feGaussianBlur38" />
      <feColorMatrix
         in="blur"
         values="1 0 0 0 0 0 1 0 0 0 0 0 1 0 0 0 0 0 6 -2 "
         result="colormatrix2"
         id="feColorMatrix39" />
      <feBlend
         in="colormatrix2"
         in2="flood"
         mode="normal"
         result="blend"
         id="feBlend39" />
      <feComposite
         in="blend"
         in2="blend"
         operator="arithmetic"
         k2="0.2"
         result="composite1"
         id="feComposite39" />
      <feComposite
         in2="SourceGraphic"
         operator="in"
         id="feComposite40" />
    </filter>
  </defs>
  <g
     id="g877"
     transform="matrix(1.1,0,0,1.1,-3.1845928,-3.2065454)">
    <ellipse
       style="opacity:0.5;fill:#000000;stroke:none;stroke-width:3.89319;stroke-dasharray:none;stroke-opacity:1;filter:url(#filter9)"
       id="path2-5"
       cx="31.949858"
       cy="31.969812"
       rx="25.124426"
       ry="25.268976"
       transform="matrix(1.05,0,0,1.05,-1.5974929,-1.5984906)" />
    <path
       style="fill:#f5f7fa;stroke-width:0.204426;fill-opacity:1"
       d=""
       id="path3" />
    <circle
       style="opacity:1;fill:url(#linearGradient8);stroke:url(#linearGradient7);stroke-width:3.81818;stroke-dasharray:none;stroke-opacity:1"
       id="path2"
       cx="31.949856"
       cy="31.969812"
       r="24.711082" />
    <ellipse
       style="opacity:0.3;fill:none;stroke:#000000;stroke-width:0.974376;stroke-dasharray:none;stroke-opacity:1"
       id="path2-9"
       cx="31.949856"
       cy="31.969812"
       rx="23.129124"
       ry="23.129126" />
  </g>
  <path
     style="fill:#000000;fill-opacity:1;stroke:none;stroke-width:0.467775;stroke-dasharray:none;stroke-dashoffset:2.2;stroke-opacity:0.6;opacity:0.2"
     d="m 21.129584,45.153745 c -1.368996,-0.321465 -3.028858,-1.753596 -3.735663,-3.22311 -0.577369,-1.200399 -0.742015,-1.958609 -0.741371,-3.414078 4.56e-4,-1.03334 0.04755,-1.428626 0.247113,-2.074464 0.780428,-2.525605 2.551983,-4.232495 4.759699,-4.585955 0.619134,-0.09913 0.898582,-0.09153 1.54255,0.04191 0.432539,0.08963 0.870215,0.196381 0.972608,0.237232 0.167366,0.06678 0.186167,-0.0064 0.186167,-0.725616 0,-2.403914 0.969441,-4.75611 2.659628,-6.453158 1.425251,-1.431033 2.793107,-2.091831 4.568169,-2.20683 4.168639,-0.270078 7.71717,3.431234 8.053155,8.399888 0.03858,0.570476 0.08087,1.03723 0.09396,1.03723 0.01318,0 0.233345,-0.07856 0.489325,-0.174566 0.699,-0.262129 2.21012,-0.234887 3.010101,0.05427 1.847181,0.667668 3.350124,2.42447 3.898004,4.556403 0.268639,1.045361 0.287413,2.716544 0.04185,3.730889 -0.543359,2.244779 -2.159331,4.117417 -4.059532,4.70433 -0.674248,0.20827 -0.960554,0.213478 -11.132947,0.203062 -5.850866,-0.0062 -10.622002,-0.05323 -10.852856,-0.107426 z"
     id="path99-6" />
  <path
     style="fill:#4d4d4d;fill-opacity:1;stroke:none;stroke-width:0.467775;stroke-dasharray:none;stroke-dashoffset:2.2;stroke-opacity:0.6"
     d="m 21.129584,43.153745 c -1.368996,-0.321465 -3.028858,-1.753596 -3.735663,-3.22311 -0.577369,-1.200399 -0.742015,-1.958609 -0.741371,-3.414078 4.56e-4,-1.03334 0.04755,-1.428626 0.247113,-2.074464 0.780428,-2.525605 2.551983,-4.232495 4.759699,-4.585955 0.619134,-0.09913 0.898582,-0.09153 1.54255,0.04191 0.432539,0.08963 0.870215,0.196381 0.972608,0.237232 0.167366,0.06678 0.186167,-0.0064 0.186167,-0.725616 0,-2.403914 0.969441,-4.75611 2.659628,-6.453158 1.425251,-1.431033 2.793107,-2.091831 4.568169,-2.20683 4.168639,-0.270078 7.71717,3.431234 8.053155,8.399888 0.03858,0.570476 0.08087,1.03723 0.09396,1.03723 0.01318,0 0.233345,-0.07856 0.489325,-0.174566 0.699,-0.262129 2.21012,-0.234887 3.010101,0.05427 1.847181,0.667668 3.350124,2.42447 3.898004,4.556403 0.268639,1.045361 0.287413,2.716544 0.04185,3.730889 -0.543359,2.244779 -2.159331,4.117417 -4.059532,4.70433 -0.674248,0.20827 -0.960554,0.213478 -11.132947,0.203062 -5.850866,-0.0062 -10.622002,-0.05323 -10.852856,-0.107426 z"
     id="path99" />
</svg>
