<?xml version="1.0" encoding="UTF-8" standalone="no"?>
<svg
   width="64"
   height="64"
   version="1.1"
   id="svg73"
   sodipodi:docname="1password.svg"
   inkscape:version="1.4.2 (ebf0e940d0, 2025-05-08)"
   xmlns:inkscape="http://www.inkscape.org/namespaces/inkscape"
   xmlns:sodipodi="http://sodipodi.sourceforge.net/DTD/sodipodi-0.dtd"
   xmlns:xlink="http://www.w3.org/1999/xlink"
   xmlns="http://www.w3.org/2000/svg"
   xmlns:svg="http://www.w3.org/2000/svg"
   xmlns:rdf="http://www.w3.org/1999/02/22-rdf-syntax-ns#"
   xmlns:cc="http://creativecommons.org/ns#"
   xmlns:dc="http://purl.org/dc/elements/1.1/">
  <metadata
     id="metadata77">
    <rdf:RDF>
      <cc:Work
         rdf:about="">
        <dc:format>image/svg+xml</dc:format>
        <dc:type
           rdf:resource="http://purl.org/dc/dcmitype/StillImage" />
      </cc:Work>
    </rdf:RDF>
  </metadata>
  <sodipodi:namedview
     pagecolor="#f5f7fa"
     bordercolor="#666666"
     borderopacity="1"
     objecttolerance="10"
     gridtolerance="10"
     guidetolerance="10"
     inkscape:pageopacity="0"
     inkscape:pageshadow="2"
     inkscape:window-width="1414"
     inkscape:window-height="797"
     id="namedview75"
     showgrid="false"
     inkscape:zoom="6.2890624"
     inkscape:cx="34.345342"
     inkscape:cy="29.734162"
     inkscape:window-x="24"
     inkscape:window-y="21"
     inkscape:window-maximized="0"
     inkscape:current-layer="svg73"
     inkscape:document-rotation="0"
     inkscape:pagecheckerboard="0"
     inkscape:showpageshadow="2"
     inkscape:deskcolor="#d1d1d1" />
  <defs
     id="defs29">
    <linearGradient
       id="linearGradient4"
       inkscape:collect="always">
      <stop
         style="stop-color:#ac5eac;stop-opacity:1;"
         offset="0"
         id="stop4" />
      <stop
         style="stop-color:#c181c1;stop-opacity:1;"
         offset="0.5"
         id="stop1" />
    </linearGradient>
    <linearGradient
       id="linearGradient2"
       inkscape:collect="always">
      <stop
         style="stop-color:#f4ecf4;stop-opacity:1;"
         offset="0"
         id="stop2" />
      <stop
         style="stop-color:#e9d8e9;stop-opacity:1;"
         offset="1"
         id="stop3" />
    </linearGradient>
    <linearGradient
       inkscape:collect="always"
       xlink:href="#linearGradient2"
       id="linearGradient8"
       x1="31.721739"
       y1="5.2278585"
       x2="31.88887"
       y2="59.145416"
       gradientUnits="userSpaceOnUse"
       gradientTransform="matrix(0.8505,0,0,0.8505,4.7765033,4.7794869)" />
    <filter
       style="color-interpolation-filters:sRGB;"
       inkscape:label="Blur"
       id="filter9"
       x="-0.047762285"
       y="-0.047489063"
       width="1.0955246"
       height="1.0949781">
      <feGaussianBlur
         stdDeviation="1 1"
         result="blur"
         id="feGaussianBlur9" />
    </filter>
    <linearGradient
       inkscape:collect="always"
       xlink:href="#linearGradient4"
       id="linearGradient7"
       x1="26.723248"
       y1="58.711765"
       x2="25.756926"
       y2="5.950614"
       gradientUnits="userSpaceOnUse" />
    <filter
       style="color-interpolation-filters:sRGB;"
       inkscape:label="Out of Focus"
       id="filter40"
       x="-0.24226652"
       y="-0.2858297"
       width="1.484533"
       height="1.5716594">
      <feFlood
         flood-opacity="1"
         flood-color="rgb(255,255,255)"
         result="flood"
         id="feFlood38" />
      <feColorMatrix
         in="SourceGraphic"
         values="1 0 0 0 0 0 1 0 0 0 0 0 1 0 0 -0.2125 -0.7154 -0.0721 1 0 "
         result="colormatrix1"
         id="feColorMatrix38" />
      <feGaussianBlur
         in="colormatrix1"
         stdDeviation="3 3"
         result="blur"
         id="feGaussianBlur38" />
      <feColorMatrix
         in="blur"
         values="1 0 0 0 0 0 1 0 0 0 0 0 1 0 0 0 0 0 6 -2 "
         result="colormatrix2"
         id="feColorMatrix39" />
      <feBlend
         in="colormatrix2"
         in2="flood"
         mode="normal"
         result="blend"
         id="feBlend39" />
      <feComposite
         in="blend"
         in2="blend"
         operator="arithmetic"
         k2="0.2"
         result="composite1"
         id="feComposite39" />
      <feComposite
         in2="SourceGraphic"
         operator="in"
         id="feComposite40" />
    </filter>
  </defs>
  <g
     id="g877"
     transform="matrix(1.1,0,0,1.1,-3.1845928,-3.2065454)">
    <ellipse
       style="opacity:0.5;fill:#000000;stroke:none;stroke-width:3.89319;stroke-dasharray:none;stroke-opacity:1;filter:url(#filter9)"
       id="path2-5"
       cx="31.949858"
       cy="31.969812"
       rx="25.124426"
       ry="25.268976"
       transform="matrix(1.05,0,0,1.05,-1.5974929,-1.5984906)" />
    <path
       style="fill:#f5f7fa;stroke-width:0.204426;fill-opacity:1"
       d=""
       id="path3" />
    <circle
       style="opacity:1;fill:url(#linearGradient8);stroke:url(#linearGradient7);stroke-width:3.81818;stroke-dasharray:none;stroke-opacity:1"
       id="path2"
       cx="31.949856"
       cy="31.969812"
       r="24.711082" />
    <ellipse
       style="opacity:0.3;fill:none;stroke:#000000;stroke-width:0.974376;stroke-dasharray:none;stroke-opacity:1"
       id="path2-9"
       cx="31.949856"
       cy="31.969812"
       rx="23.129124"
       ry="23.129126" />
  </g>
  <path
     style="fill:#000000;fill-opacity:1;stroke:none;stroke-width:0.529529;stroke-dasharray:none;stroke-opacity:0.6;opacity:0.2"
     d="M 30.364943,49.695243 C 28.321849,49.475 26.041141,48.741402 24.257284,47.730676 20.017911,45.328694 17.142196,41.138512 16.375201,36.245757 c -0.135813,-0.866365 -0.174056,-4.277868 -0.05072,-4.526414 0.04201,-0.08468 0.151213,-0.514226 0.242673,-0.95455 0.629092,-3.028763 2.118828,-5.752692 4.352553,-7.958477 2.490015,-2.45887 5.397564,-3.903469 8.921791,-4.43274 0.998629,-0.149974 3.320826,-0.148198 4.341665,0.0034 3.465834,0.514439 6.513341,2.039259 8.954445,4.480363 3.092793,3.092796 4.727149,7.198545 4.606307,11.571763 -0.115649,4.18346 -1.765368,7.925339 -4.793807,10.872897 -2.414362,2.349888 -5.257256,3.75587 -8.716259,4.310705 -0.734253,0.117743 -3.078305,0.167837 -3.868889,0.08257 z m 9.610054,-3.663742 c 0.33706,-0.223487 0.806863,-0.561982 1.043953,-0.752127 0.45257,-0.362939 1.755148,-1.603772 1.755148,-1.671925 0,-0.02218 -0.239708,-0.0043 -0.532775,0.03806 -1.607549,0.234789 -3.79236,0.258544 -4.999473,0.05448 -2.359242,-0.398796 -4.600284,-1.205955 -8.724423,-3.142209 -3.020551,-1.418131 -5.602908,-2.308368 -7.882737,-2.717485 -0.633849,-0.11376 -2.436921,-0.163281 -2.530766,-0.06955 -0.09959,0.09946 0.463207,1.643906 0.962692,2.641834 0.75307,1.504576 1.515417,2.55719 2.736925,3.779004 0.474879,0.474992 1.11071,1.047968 1.412956,1.273266 l 0.549543,0.409648 0.339063,-0.302196 c 0.685478,-0.610957 1.792906,-1.047614 2.657183,-1.047726 0.543544,-5.5e-5 1.628492,0.17789 2.494147,0.409169 1.671924,0.446645 2.301325,0.600205 3.272393,0.798401 1.202547,0.24545 2.835743,0.484488 3.963715,0.580191 0.423391,0.03601 0.866793,0.07448 0.985341,0.0856 0.118594,0.01124 0.590999,0.0252 1.049897,0.02975 l 0.834332,0.0097 z m 5.71655,-7.460954 c 0.212884,-0.646575 0.440484,-1.497787 0.480479,-1.796697 0.01763,-0.130417 -0.01489,-0.158677 -0.257174,-0.223096 -1.795112,-0.477801 -6.11737,-3.308141 -10.715574,-7.016875 -1.82853,-1.474825 -3.511906,-2.557239 -5.696509,-3.662865 -2.77405,-1.403942 -5.599286,-2.342329 -7.052134,-2.342329 h -0.418261 l -0.564719,0.596705 c -1.564437,1.653046 -2.723482,3.696455 -3.364787,5.932154 -0.08837,0.308108 -0.14792,0.572972 -0.132324,0.588574 0.01564,0.0157 0.275007,-0.03304 0.57646,-0.108064 0.724458,-0.180328 2.378361,-0.193527 3.319362,-0.02642 1.42102,0.252286 2.851208,0.680361 4.495624,1.345616 1.757274,0.710909 2.615587,1.131721 6.127597,3.004219 1.679035,0.895212 5.042927,2.54029 6.25499,3.058935 1.353985,0.579371 2.644897,1.030951 3.406376,1.191588 0.4186,0.0883 0.825773,0.11285 1.926712,0.116253 l 1.395936,0.0045 z m 0.627212,-6.37393 c -0.02372,-0.245565 -0.112909,-0.779034 -0.198223,-1.185488 -0.585179,-2.788157 -2.10644,-5.509471 -4.173407,-7.465644 -2.601907,-2.46244 -5.771598,-3.792756 -9.488332,-3.982241 l -0.615841,-0.03134 0.369506,0.162513 c 2.921215,1.284852 5.79856,3.431986 8.445907,6.302506 1.520632,1.648822 2.120778,2.371549 4.087116,4.921882 0.615681,0.798533 1.455584,1.724345 1.564336,1.724345 0.02825,0 0.03275,-0.200918 0.0085,-0.44648 z"
     id="path452-5" />
  <path
     style="fill:#4d4d4d;fill-opacity:1;stroke:none;stroke-width:0.529529;stroke-dasharray:none;stroke-opacity:0.6"
     d="M 30.364943,47.695243 C 28.321849,47.475 26.041141,46.741402 24.257284,45.730676 20.017911,43.328694 17.142196,39.138512 16.375201,34.245757 c -0.135813,-0.866365 -0.174056,-4.277868 -0.05072,-4.526414 0.04201,-0.08468 0.151213,-0.514226 0.242673,-0.95455 0.629092,-3.028763 2.118828,-5.752692 4.352553,-7.958477 2.490015,-2.45887 5.397564,-3.903469 8.921791,-4.43274 0.998629,-0.149974 3.320826,-0.148198 4.341665,0.0034 3.465834,0.514439 6.513341,2.039259 8.954445,4.480363 3.092793,3.092796 4.727149,7.198545 4.606307,11.571763 -0.115649,4.18346 -1.765368,7.925339 -4.793807,10.872897 -2.414362,2.349888 -5.257256,3.75587 -8.716259,4.310705 -0.734253,0.117743 -3.078305,0.167837 -3.868889,0.08257 z m 9.610054,-3.663742 c 0.33706,-0.223487 0.806863,-0.561982 1.043953,-0.752127 0.45257,-0.362939 1.755148,-1.603772 1.755148,-1.671925 0,-0.02218 -0.239708,-0.0043 -0.532775,0.03806 -1.607549,0.234789 -3.79236,0.258544 -4.999473,0.05448 -2.359242,-0.398796 -4.600284,-1.205955 -8.724423,-3.142209 -3.020551,-1.418131 -5.602908,-2.308368 -7.882737,-2.717485 -0.633849,-0.11376 -2.436921,-0.163281 -2.530766,-0.06955 -0.09959,0.09946 0.463207,1.643906 0.962692,2.641834 0.75307,1.504576 1.515417,2.55719 2.736925,3.779004 0.474879,0.474992 1.11071,1.047968 1.412956,1.273266 l 0.549543,0.409648 0.339063,-0.302196 c 0.685478,-0.610957 1.792906,-1.047614 2.657183,-1.047726 0.543544,-5.5e-5 1.628492,0.17789 2.494147,0.409169 1.671924,0.446645 2.301325,0.600205 3.272393,0.798401 1.202547,0.24545 2.835743,0.484488 3.963715,0.580191 0.423391,0.03601 0.866793,0.07448 0.985341,0.0856 0.118594,0.01124 0.590999,0.0252 1.049897,0.02975 l 0.834332,0.0097 z m 5.71655,-7.460954 c 0.212884,-0.646575 0.440484,-1.497787 0.480479,-1.796697 0.01763,-0.130417 -0.01489,-0.158677 -0.257174,-0.223096 -1.795112,-0.477801 -6.11737,-3.308141 -10.715574,-7.016875 -1.82853,-1.474825 -3.511906,-2.557239 -5.696509,-3.662865 -2.77405,-1.403942 -5.599286,-2.342329 -7.052134,-2.342329 h -0.418261 l -0.564719,0.596705 c -1.564437,1.653046 -2.723482,3.696455 -3.364787,5.932154 -0.08837,0.308108 -0.14792,0.572972 -0.132324,0.588574 0.01564,0.0157 0.275007,-0.03304 0.57646,-0.108064 0.724458,-0.180328 2.378361,-0.193527 3.319362,-0.02642 1.42102,0.252286 2.851208,0.680361 4.495624,1.345616 1.757274,0.710909 2.615587,1.131721 6.127597,3.004219 1.679035,0.895212 5.042927,2.54029 6.25499,3.058935 1.353985,0.579371 2.644897,1.030951 3.406376,1.191588 0.4186,0.0883 0.825773,0.11285 1.926712,0.116253 l 1.395936,0.0045 z m 0.627212,-6.37393 c -0.02372,-0.245565 -0.112909,-0.779034 -0.198223,-1.185488 -0.585179,-2.788157 -2.10644,-5.509471 -4.173407,-7.465644 -2.601907,-2.46244 -5.771598,-3.792756 -9.488332,-3.982241 l -0.615841,-0.03134 0.369506,0.162513 c 2.921215,1.284852 5.79856,3.431986 8.445907,6.302506 1.520632,1.648822 2.120778,2.371549 4.087116,4.921882 0.615681,0.798533 1.455584,1.724345 1.564336,1.724345 0.02825,0 0.03275,-0.200918 0.0085,-0.44648 z"
     id="path452" />
</svg>
