<?xml version="1.0" encoding="UTF-8" standalone="no"?>
<svg
   width="64"
   height="64"
   version="1.1"
   id="svg73"
   sodipodi:docname="chromium.svg"
   inkscape:version="1.4.2 (ebf0e940d0, 2025-05-08)"
   xmlns:inkscape="http://www.inkscape.org/namespaces/inkscape"
   xmlns:sodipodi="http://sodipodi.sourceforge.net/DTD/sodipodi-0.dtd"
   xmlns:xlink="http://www.w3.org/1999/xlink"
   xmlns="http://www.w3.org/2000/svg"
   xmlns:svg="http://www.w3.org/2000/svg"
   xmlns:rdf="http://www.w3.org/1999/02/22-rdf-syntax-ns#"
   xmlns:cc="http://creativecommons.org/ns#"
   xmlns:dc="http://purl.org/dc/elements/1.1/">
  <metadata
     id="metadata77">
    <rdf:RDF>
      <cc:Work
         rdf:about="">
        <dc:format>image/svg+xml</dc:format>
        <dc:type
           rdf:resource="http://purl.org/dc/dcmitype/StillImage" />
      </cc:Work>
    </rdf:RDF>
  </metadata>
  <sodipodi:namedview
     pagecolor="#f5f7fa"
     bordercolor="#666666"
     borderopacity="1"
     objecttolerance="10"
     gridtolerance="10"
     guidetolerance="10"
     inkscape:pageopacity="0"
     inkscape:pageshadow="2"
     inkscape:window-width="1920"
     inkscape:window-height="931"
     id="namedview75"
     showgrid="false"
     inkscape:zoom="6.2890624"
     inkscape:cx="53.267082"
     inkscape:cy="29.734162"
     inkscape:window-x="0"
     inkscape:window-y="0"
     inkscape:window-maximized="1"
     inkscape:current-layer="svg73"
     inkscape:document-rotation="0"
     inkscape:pagecheckerboard="0"
     inkscape:showpageshadow="2"
     inkscape:deskcolor="#d1d1d1" />
  <defs
     id="defs29">
    <linearGradient
       id="linearGradient4"
       inkscape:collect="always">
      <stop
         style="stop-color:#ac5eac;stop-opacity:1;"
         offset="0"
         id="stop4" />
      <stop
         style="stop-color:#c181c1;stop-opacity:1;"
         offset="0.5"
         id="stop1" />
    </linearGradient>
    <linearGradient
       id="linearGradient2"
       inkscape:collect="always">
      <stop
         style="stop-color:#f4ecf4;stop-opacity:1;"
         offset="0"
         id="stop2" />
      <stop
         style="stop-color:#e9d8e9;stop-opacity:1;"
         offset="1"
         id="stop3" />
    </linearGradient>
    <linearGradient
       inkscape:collect="always"
       xlink:href="#linearGradient2"
       id="linearGradient8"
       x1="31.721739"
       y1="5.2278585"
       x2="31.88887"
       y2="59.145416"
       gradientUnits="userSpaceOnUse"
       gradientTransform="matrix(0.8505,0,0,0.8505,4.7765033,4.7794869)" />
    <filter
       style="color-interpolation-filters:sRGB;"
       inkscape:label="Blur"
       id="filter9"
       x="-0.047762285"
       y="-0.047489063"
       width="1.0955246"
       height="1.0949781">
      <feGaussianBlur
         stdDeviation="1 1"
         result="blur"
         id="feGaussianBlur9" />
    </filter>
    <linearGradient
       inkscape:collect="always"
       xlink:href="#linearGradient4"
       id="linearGradient7"
       x1="26.723248"
       y1="58.711765"
       x2="25.756926"
       y2="5.950614"
       gradientUnits="userSpaceOnUse" />
    <filter
       style="color-interpolation-filters:sRGB;"
       inkscape:label="Out of Focus"
       id="filter40"
       x="-0.24226652"
       y="-0.2858297"
       width="1.484533"
       height="1.5716594">
      <feFlood
         flood-opacity="1"
         flood-color="rgb(255,255,255)"
         result="flood"
         id="feFlood38" />
      <feColorMatrix
         in="SourceGraphic"
         values="1 0 0 0 0 0 1 0 0 0 0 0 1 0 0 -0.2125 -0.7154 -0.0721 1 0 "
         result="colormatrix1"
         id="feColorMatrix38" />
      <feGaussianBlur
         in="colormatrix1"
         stdDeviation="3 3"
         result="blur"
         id="feGaussianBlur38" />
      <feColorMatrix
         in="blur"
         values="1 0 0 0 0 0 1 0 0 0 0 0 1 0 0 0 0 0 6 -2 "
         result="colormatrix2"
         id="feColorMatrix39" />
      <feBlend
         in="colormatrix2"
         in2="flood"
         mode="normal"
         result="blend"
         id="feBlend39" />
      <feComposite
         in="blend"
         in2="blend"
         operator="arithmetic"
         k2="0.2"
         result="composite1"
         id="feComposite39" />
      <feComposite
         in2="SourceGraphic"
         operator="in"
         id="feComposite40" />
    </filter>
  </defs>
  <g
     id="g877"
     transform="matrix(1.1,0,0,1.1,-3.1845928,-3.2065454)">
    <ellipse
       style="opacity:0.5;fill:#000000;stroke:none;stroke-width:3.89319;stroke-dasharray:none;stroke-opacity:1;filter:url(#filter9)"
       id="path2-5"
       cx="31.949858"
       cy="31.969812"
       rx="25.124426"
       ry="25.268976"
       transform="matrix(1.05,0,0,1.05,-1.5974929,-1.5984906)" />
    <path
       style="fill:#f5f7fa;stroke-width:0.204426;fill-opacity:1"
       d=""
       id="path3" />
    <circle
       style="opacity:1;fill:url(#linearGradient8);stroke:url(#linearGradient7);stroke-width:3.81818;stroke-dasharray:none;stroke-opacity:1"
       id="path2"
       cx="31.949856"
       cy="31.969812"
       r="24.711082" />
    <ellipse
       style="opacity:0.3;fill:none;stroke:#000000;stroke-width:0.974376;stroke-dasharray:none;stroke-opacity:1"
       id="path2-9"
       cx="31.949856"
       cy="31.969812"
       rx="23.129124"
       ry="23.129126" />
  </g>
  <path
     id="path72-2"
     style="fill:#000000;fill-opacity:1;stroke:none;stroke-width:0.472887;stroke-dasharray:none;stroke-dashoffset:2.2;stroke-opacity:0.6;opacity:0.2"
     d="m 31.968769,19.899034 c -9.541157,0 -9.580667,0.0015 -9.884168,0.240075 -0.682051,0.53651 -0.646064,-0.268873 -0.646064,13.80739 0,7.768089 0.04451,13.025946 0.109296,13.196464 0.145278,0.382136 0.554976,0.747462 0.977873,0.872482 0.195097,0.05766 4.457621,0.09515 9.70265,0.08392 8.980713,-0.01973 9.368622,-0.02959 9.67728,-0.238081 0.691718,-0.468844 0.653871,0.328973 0.653871,-13.906942 0,-11.869635 -0.01701,-13.073184 -0.187363,-13.362369 -0.431908,-0.731227 0.13661,-0.692979 -10.403357,-0.692977 z m -15.46451,2.295377 v 1.434609 1.436563 h 1.491214 1.493165 V 23.62902 22.194411 h -1.493165 z m 27.89194,0 v 1.434609 1.436563 h 1.549774 1.549767 V 23.62902 22.194411 h -1.549767 z m -17.791114,1.147688 h 0.689002 0.687053 v 1.780086 1.778138 h -0.687053 -0.689002 v -1.778138 z m 4.70591,0 h 0.689004 0.689004 v 4.764466 4.762516 H 32.07612 c -0.336702,0 -0.646909,-0.03398 -0.689004,-0.07611 -0.04209,-0.0421 -0.07612,-2.184673 -0.07612,-4.762519 z m 4.821072,0 h 0.630446 0.632406 v 3.558224 3.560174 h -0.632406 -0.630446 v -3.560174 z m -19.627808,4.132066 v 1.436563 1.434612 h 1.491214 1.493165 v -1.434612 -1.436563 h -1.493165 z m 27.89194,0 v 1.436563 1.434612 h 1.549774 1.549767 v -1.434612 -1.436563 h -1.549767 z m -17.791114,0.575796 h 0.690954 0.690955 l -0.03126,1.807415 -0.03126,1.807412 -0.57775,0.03316 c -0.317936,0.01865 -0.614654,-0.0018 -0.659574,-0.04678 -0.04491,-0.04491 -0.08199,-0.874537 -0.08199,-1.842549 z m 9.526982,3.558224 h 0.630446 0.632406 v 1.778136 1.780087 h -0.632406 -0.630446 v -1.780087 z m -9.526982,1.147687 h 0.689002 0.687053 v 3.558225 3.558216 h -0.687053 -0.689002 v -3.558216 z m -10.100826,0.113207 v 1.378006 1.378004 h 1.491214 1.493165 v -1.378007 -1.378008 h -1.493165 z m 27.89194,0 v 1.378007 1.378007 h 1.549774 1.549767 v -1.378009 -1.378006 h -1.549767 z m -11.707196,1.022769 v 4.768369 4.770323 h -0.690955 -0.689003 l 0.02928,-4.735189 0.02926,-4.735189 0.659724,-0.03313 z m 3.443064,2.422247 h 0.630446 0.632406 v 4.188665 4.190632 h -0.632406 -0.630446 v -4.190629 z m -19.627808,1.836692 v 1.434611 1.434615 h 1.491214 1.493165 v -1.434615 -1.434611 h -1.493165 z m 27.89194,0 v 1.434611 1.434615 h 1.549775 1.549766 v -1.434615 -1.434611 h -1.549767 z m -27.89194,5.279755 v 1.434612 1.434608 h 1.491214 1.493165 v -1.434608 -1.434612 h -1.493165 z m 27.89194,0 v 1.434612 1.434608 h 1.549774 1.549767 v -1.434608 -1.434612 h -1.549767 z" />
  <path
     id="path72"
     style="fill:#4d4d4d;fill-opacity:1;stroke:none;stroke-width:0.472887;stroke-dasharray:none;stroke-dashoffset:2.2;stroke-opacity:0.6"
     d="m 31.968769,17.899034 c -9.541157,0 -9.580667,0.0015 -9.884168,0.240075 -0.682051,0.53651 -0.646064,-0.268873 -0.646064,13.80739 0,7.768089 0.04451,13.025946 0.109296,13.196464 0.145278,0.382136 0.554976,0.747462 0.977873,0.872482 0.195097,0.05766 4.457621,0.09515 9.70265,0.08392 8.980713,-0.01973 9.368622,-0.02959 9.67728,-0.238081 0.691718,-0.468844 0.653871,0.328973 0.653871,-13.906942 0,-11.869635 -0.01701,-13.073184 -0.187363,-13.362369 -0.431908,-0.731227 0.13661,-0.692979 -10.403357,-0.692977 z m -15.46451,2.295377 v 1.434609 1.436563 h 1.491214 1.493165 V 21.62902 20.194411 h -1.493165 z m 27.89194,0 v 1.434609 1.436563 h 1.549774 1.549767 V 21.62902 20.194411 h -1.549767 z m -17.791114,1.147688 h 0.689002 0.687053 v 1.780086 1.778138 h -0.687053 -0.689002 v -1.778138 z m 4.70591,0 h 0.689004 0.689004 v 4.764466 4.762516 H 32.07612 c -0.336702,0 -0.646909,-0.03398 -0.689004,-0.07611 -0.04209,-0.0421 -0.07612,-2.184673 -0.07612,-4.762519 z m 4.821072,0 h 0.630446 0.632406 v 3.558224 3.560174 h -0.632406 -0.630446 v -3.560174 z m -19.627808,4.132066 v 1.436563 1.434612 h 1.491214 1.493165 v -1.434612 -1.436563 h -1.493165 z m 27.89194,0 v 1.436563 1.434612 h 1.549774 1.549767 v -1.434612 -1.436563 h -1.549767 z m -17.791114,0.575796 h 0.690954 0.690955 l -0.03126,1.807415 -0.03126,1.807412 -0.57775,0.03316 c -0.317936,0.01865 -0.614654,-0.0018 -0.659574,-0.04678 -0.04491,-0.04491 -0.08199,-0.874537 -0.08199,-1.842549 z m 9.526982,3.558224 h 0.630446 0.632406 v 1.778136 1.780087 h -0.632406 -0.630446 v -1.780087 z m -9.526982,1.147687 h 0.689002 0.687053 v 3.558225 3.558216 h -0.687053 -0.689002 v -3.558216 z m -10.100826,0.113207 v 1.378006 1.378004 h 1.491214 1.493165 v -1.378007 -1.378008 h -1.493165 z m 27.89194,0 v 1.378007 1.378007 h 1.549774 1.549767 v -1.378009 -1.378006 h -1.549767 z m -11.707196,1.022769 v 4.768369 4.770323 h -0.690955 -0.689003 l 0.02928,-4.735189 0.02926,-4.735189 0.659724,-0.03313 z m 3.443064,2.422247 h 0.630446 0.632406 v 4.188665 4.190632 h -0.632406 -0.630446 v -4.190629 z m -19.627808,1.836692 v 1.434611 1.434615 h 1.491214 1.493165 v -1.434615 -1.434611 h -1.493165 z m 27.89194,0 v 1.434611 1.434615 h 1.549775 1.549766 v -1.434615 -1.434611 h -1.549767 z m -27.89194,5.279755 v 1.434612 1.434608 h 1.491214 1.493165 v -1.434608 -1.434612 h -1.493165 z m 27.89194,0 v 1.434612 1.434608 h 1.549774 1.549767 v -1.434608 -1.434612 h -1.549767 z" />
</svg>
