<?xml version="1.0" encoding="UTF-8" standalone="no"?>
<svg
   width="64"
   height="64"
   version="1.1"
   id="svg73"
   sodipodi:docname="abcd.svg"
   inkscape:version="1.4.2 (ebf0e940d0, 2025-05-08)"
   xmlns:inkscape="http://www.inkscape.org/namespaces/inkscape"
   xmlns:sodipodi="http://sodipodi.sourceforge.net/DTD/sodipodi-0.dtd"
   xmlns:xlink="http://www.w3.org/1999/xlink"
   xmlns="http://www.w3.org/2000/svg"
   xmlns:svg="http://www.w3.org/2000/svg"
   xmlns:rdf="http://www.w3.org/1999/02/22-rdf-syntax-ns#"
   xmlns:cc="http://creativecommons.org/ns#"
   xmlns:dc="http://purl.org/dc/elements/1.1/">
  <metadata
     id="metadata77">
    <rdf:RDF>
      <cc:Work
         rdf:about="">
        <dc:format>image/svg+xml</dc:format>
        <dc:type
           rdf:resource="http://purl.org/dc/dcmitype/StillImage" />
      </cc:Work>
    </rdf:RDF>
  </metadata>
  <sodipodi:namedview
     pagecolor="#f5f7fa"
     bordercolor="#666666"
     borderopacity="1"
     objecttolerance="10"
     gridtolerance="10"
     guidetolerance="10"
     inkscape:pageopacity="0"
     inkscape:pageshadow="2"
     inkscape:window-width="1320"
     inkscape:window-height="766"
     id="namedview75"
     showgrid="false"
     inkscape:zoom="4.4470387"
     inkscape:cx="53.518761"
     inkscape:cy="22.37444"
     inkscape:window-x="24"
     inkscape:window-y="21"
     inkscape:window-maximized="0"
     inkscape:current-layer="svg73"
     inkscape:document-rotation="0"
     inkscape:pagecheckerboard="0"
     inkscape:showpageshadow="2"
     inkscape:deskcolor="#d1d1d1" />
  <defs
     id="defs29">
    <linearGradient
       id="linearGradient4"
       inkscape:collect="always">
      <stop
         style="stop-color:#ac5eac;stop-opacity:1;"
         offset="0"
         id="stop4" />
      <stop
         style="stop-color:#c181c1;stop-opacity:1;"
         offset="0.5"
         id="stop1" />
    </linearGradient>
    <linearGradient
       id="linearGradient2"
       inkscape:collect="always">
      <stop
         style="stop-color:#f4ecf4;stop-opacity:1;"
         offset="0"
         id="stop2" />
      <stop
         style="stop-color:#e9d8e9;stop-opacity:1;"
         offset="1"
         id="stop3" />
    </linearGradient>
    <linearGradient
       inkscape:collect="always"
       xlink:href="#linearGradient2"
       id="linearGradient8"
       x1="31.721739"
       y1="5.2278585"
       x2="31.88887"
       y2="59.145416"
       gradientUnits="userSpaceOnUse"
       gradientTransform="matrix(0.8505,0,0,0.8505,4.7765033,4.7794869)" />
    <filter
       style="color-interpolation-filters:sRGB;"
       inkscape:label="Blur"
       id="filter9"
       x="-0.047762285"
       y="-0.047489063"
       width="1.0955246"
       height="1.0949781">
      <feGaussianBlur
         stdDeviation="1 1"
         result="blur"
         id="feGaussianBlur9" />
    </filter>
    <linearGradient
       inkscape:collect="always"
       xlink:href="#linearGradient4"
       id="linearGradient7"
       x1="26.723248"
       y1="58.711765"
       x2="25.756926"
       y2="5.950614"
       gradientUnits="userSpaceOnUse" />
    <filter
       style="color-interpolation-filters:sRGB;"
       inkscape:label="Out of Focus"
       id="filter40"
       x="-0.24226652"
       y="-0.2858297"
       width="1.484533"
       height="1.5716594">
      <feFlood
         flood-opacity="1"
         flood-color="rgb(255,255,255)"
         result="flood"
         id="feFlood38" />
      <feColorMatrix
         in="SourceGraphic"
         values="1 0 0 0 0 0 1 0 0 0 0 0 1 0 0 -0.2125 -0.7154 -0.0721 1 0 "
         result="colormatrix1"
         id="feColorMatrix38" />
      <feGaussianBlur
         in="colormatrix1"
         stdDeviation="3 3"
         result="blur"
         id="feGaussianBlur38" />
      <feColorMatrix
         in="blur"
         values="1 0 0 0 0 0 1 0 0 0 0 0 1 0 0 0 0 0 6 -2 "
         result="colormatrix2"
         id="feColorMatrix39" />
      <feBlend
         in="colormatrix2"
         in2="flood"
         mode="normal"
         result="blend"
         id="feBlend39" />
      <feComposite
         in="blend"
         in2="blend"
         operator="arithmetic"
         k2="0.2"
         result="composite1"
         id="feComposite39" />
      <feComposite
         in2="SourceGraphic"
         operator="in"
         id="feComposite40" />
    </filter>
  </defs>
  <g
     id="g877"
     transform="matrix(1.1,0,0,1.1,-3.1845928,-3.2065454)">
    <ellipse
       style="opacity:0.5;fill:#000000;stroke:none;stroke-width:3.89319;stroke-dasharray:none;stroke-opacity:1;filter:url(#filter9)"
       id="path2-5"
       cx="31.949858"
       cy="31.969812"
       rx="25.124426"
       ry="25.268976"
       transform="matrix(1.05,0,0,1.05,-1.5974929,-1.5984906)" />
    <path
       style="fill:#f5f7fa;stroke-width:0.204426;fill-opacity:1"
       d=""
       id="path3" />
    <circle
       style="opacity:1;fill:url(#linearGradient8);stroke:url(#linearGradient7);stroke-width:3.81818;stroke-dasharray:none;stroke-opacity:1"
       id="path2"
       cx="31.949856"
       cy="31.969812"
       r="24.711082" />
    <ellipse
       style="opacity:0.3;fill:none;stroke:#000000;stroke-width:0.974376;stroke-dasharray:none;stroke-opacity:1"
       id="path2-9"
       cx="31.949856"
       cy="31.969812"
       rx="23.129124"
       ry="23.129126" />
  </g>
  <path
     id="path5854-4"
     style="fill:#000000;fill-opacity:1;stroke:none;stroke-width:0.515722;stroke-linecap:square;stroke-dasharray:none;stroke-opacity:0.6;opacity:0.2"
     d="m 38.752724,18.50045 c -0.20892,7.2e-5 -0.483356,0.16498 -1.014797,0.575692 -0.492481,0.380595 -1.152213,0.95638 -1.465662,1.280619 l -0.569817,0.590376 0.958993,1.3937 c 0.858251,1.245921 2.339477,3.907708 2.339477,4.204598 0,0.06295 -0.40736,0.246363 -0.906123,0.408271 -1.570418,0.50978 -2.987039,1.571236 -3.932907,2.946009 -1.360043,1.976754 -1.590331,4.834102 -0.565411,7.024309 0.910169,1.944986 2.38093,3.257595 4.452798,3.97403 1.095247,0.378736 3.018554,0.395556 4.24571,0.03665 1.873248,-0.547767 3.679769,-2.099591 4.526224,-3.888849 0.65674,-1.388254 0.847017,-2.856102 0.646187,-4.963873 -0.276791,-2.905109 -1.250941,-5.297182 -3.247074,-7.973034 -0.997726,-1.337476 -4.718657,-5.25875 -5.273738,-5.55718 -0.06205,-0.0334 -0.124218,-0.05141 -0.19386,-0.05141 z m -14.564091,8.212405 c -0.236168,-9.9e-4 -0.498148,0.0056 -0.794512,0.01911 -2.07029,0.09504 -3.408867,0.705123 -4.836097,2.201423 -1.759511,1.844662 -2.337072,3.832832 -2.017854,6.943536 0.41275,4.02213 2.083958,7.039416 6.228329,11.247997 1.286351,1.306281 2.421288,2.374726 2.523053,2.374726 0.35813,0 3.009437,-2.434918 2.879922,-2.644944 -0.06927,-0.112349 -0.542058,-0.826072 -1.051517,-1.586088 -1.087154,-1.621831 -2.179019,-3.808855 -2.025196,-4.057742 0.05929,-0.09594 0.248379,-0.174757 0.420018,-0.174757 0.171635,0 0.856569,-0.272431 1.521467,-0.605063 1.49352,-0.747184 2.639421,-1.933212 3.382185,-3.501144 0.509705,-1.07597 0.550723,-1.295015 0.550723,-2.975384 0,-1.677932 -0.04061,-1.900613 -0.546319,-2.968036 -0.929135,-1.961201 -2.523764,-3.381865 -4.523284,-4.028368 -0.520394,-0.168259 -1.002416,-0.241802 -1.710918,-0.245256 z" />
  <path
     id="path5854"
     style="fill:#4d4d4d;fill-opacity:1;stroke:none;stroke-width:0.515722;stroke-linecap:square;stroke-dasharray:none;stroke-opacity:0.6"
     d="m 38.752724,16.50045 c -0.20892,7.2e-5 -0.483356,0.16498 -1.014797,0.575692 -0.492481,0.380595 -1.152213,0.95638 -1.465662,1.280619 l -0.569817,0.590376 0.958993,1.3937 c 0.858251,1.245921 2.339477,3.907708 2.339477,4.204598 0,0.06295 -0.40736,0.246363 -0.906123,0.408271 -1.570418,0.50978 -2.987039,1.571236 -3.932907,2.946009 -1.360043,1.976754 -1.590331,4.834102 -0.565411,7.024309 0.910169,1.944986 2.38093,3.257595 4.452798,3.97403 1.095247,0.378736 3.018554,0.395556 4.24571,0.03665 1.873248,-0.547767 3.679769,-2.099591 4.526224,-3.888849 0.65674,-1.388254 0.847017,-2.856102 0.646187,-4.963873 -0.276791,-2.905109 -1.250941,-5.297182 -3.247074,-7.973034 -0.997726,-1.337476 -4.718657,-5.25875 -5.273738,-5.55718 -0.06205,-0.0334 -0.124218,-0.05141 -0.19386,-0.05141 z m -14.564091,8.212405 c -0.236168,-9.9e-4 -0.498148,0.0056 -0.794512,0.01911 -2.07029,0.09504 -3.408867,0.705123 -4.836097,2.201423 -1.759511,1.844662 -2.337072,3.832832 -2.017854,6.943536 0.41275,4.02213 2.083958,7.039416 6.228329,11.247997 1.286351,1.306281 2.421288,2.374726 2.523053,2.374726 0.35813,0 3.009437,-2.434918 2.879922,-2.644944 -0.06927,-0.112349 -0.542058,-0.826072 -1.051517,-1.586088 -1.087154,-1.621831 -2.179019,-3.808855 -2.025196,-4.057742 0.05929,-0.09594 0.248379,-0.174757 0.420018,-0.174757 0.171635,0 0.856569,-0.272431 1.521467,-0.605063 1.49352,-0.747184 2.639421,-1.933212 3.382185,-3.501144 0.509705,-1.07597 0.550723,-1.295015 0.550723,-2.975384 0,-1.677932 -0.04061,-1.900613 -0.546319,-2.968036 -0.929135,-1.961201 -2.523764,-3.381865 -4.523284,-4.028368 -0.520394,-0.168259 -1.002416,-0.241802 -1.710918,-0.245256 z" />
</svg>
