<?xml version="1.0" encoding="UTF-8" standalone="no"?>
<svg
   width="64"
   height="64"
   version="1.1"
   id="svg73"
   sodipodi:docname="1password.svg"
   inkscape:version="1.4.2 (ebf0e940d0, 2025-05-08)"
   xmlns:inkscape="http://www.inkscape.org/namespaces/inkscape"
   xmlns:sodipodi="http://sodipodi.sourceforge.net/DTD/sodipodi-0.dtd"
   xmlns:xlink="http://www.w3.org/1999/xlink"
   xmlns="http://www.w3.org/2000/svg"
   xmlns:svg="http://www.w3.org/2000/svg"
   xmlns:rdf="http://www.w3.org/1999/02/22-rdf-syntax-ns#"
   xmlns:cc="http://creativecommons.org/ns#"
   xmlns:dc="http://purl.org/dc/elements/1.1/">
  <metadata
     id="metadata77">
    <rdf:RDF>
      <cc:Work
         rdf:about="">
        <dc:format>image/svg+xml</dc:format>
        <dc:type
           rdf:resource="http://purl.org/dc/dcmitype/StillImage" />
      </cc:Work>
    </rdf:RDF>
  </metadata>
  <sodipodi:namedview
     pagecolor="#f5f7fa"
     bordercolor="#666666"
     borderopacity="1"
     objecttolerance="10"
     gridtolerance="10"
     guidetolerance="10"
     inkscape:pageopacity="0"
     inkscape:pageshadow="2"
     inkscape:window-width="1414"
     inkscape:window-height="797"
     id="namedview75"
     showgrid="false"
     inkscape:zoom="6.2890624"
     inkscape:cx="34.345342"
     inkscape:cy="29.734162"
     inkscape:window-x="24"
     inkscape:window-y="21"
     inkscape:window-maximized="0"
     inkscape:current-layer="svg73"
     inkscape:document-rotation="0"
     inkscape:pagecheckerboard="0"
     inkscape:showpageshadow="2"
     inkscape:deskcolor="#d1d1d1" />
  <defs
     id="defs29">
    <linearGradient
       id="linearGradient4"
       inkscape:collect="always">
      <stop
         style="stop-color:#ac5eac;stop-opacity:1;"
         offset="0"
         id="stop4" />
      <stop
         style="stop-color:#c181c1;stop-opacity:1;"
         offset="0.5"
         id="stop1" />
    </linearGradient>
    <linearGradient
       id="linearGradient2"
       inkscape:collect="always">
      <stop
         style="stop-color:#f4ecf4;stop-opacity:1;"
         offset="0"
         id="stop2" />
      <stop
         style="stop-color:#e9d8e9;stop-opacity:1;"
         offset="1"
         id="stop3" />
    </linearGradient>
    <linearGradient
       inkscape:collect="always"
       xlink:href="#linearGradient2"
       id="linearGradient8"
       x1="31.721739"
       y1="5.2278585"
       x2="31.88887"
       y2="59.145416"
       gradientUnits="userSpaceOnUse"
       gradientTransform="matrix(0.8505,0,0,0.8505,4.7765033,4.7794869)" />
    <filter
       style="color-interpolation-filters:sRGB;"
       inkscape:label="Blur"
       id="filter9"
       x="-0.047762285"
       y="-0.047489063"
       width="1.0955246"
       height="1.0949781">
      <feGaussianBlur
         stdDeviation="1 1"
         result="blur"
         id="feGaussianBlur9" />
    </filter>
    <linearGradient
       inkscape:collect="always"
       xlink:href="#linearGradient4"
       id="linearGradient7"
       x1="26.723248"
       y1="58.711765"
       x2="25.756926"
       y2="5.950614"
       gradientUnits="userSpaceOnUse" />
    <filter
       style="color-interpolation-filters:sRGB;"
       inkscape:label="Out of Focus"
       id="filter40"
       x="-0.24226652"
       y="-0.2858297"
       width="1.484533"
       height="1.5716594">
      <feFlood
         flood-opacity="1"
         flood-color="rgb(255,255,255)"
         result="flood"
         id="feFlood38" />
      <feColorMatrix
         in="SourceGraphic"
         values="1 0 0 0 0 0 1 0 0 0 0 0 1 0 0 -0.2125 -0.7154 -0.0721 1 0 "
         result="colormatrix1"
         id="feColorMatrix38" />
      <feGaussianBlur
         in="colormatrix1"
         stdDeviation="3 3"
         result="blur"
         id="feGaussianBlur38" />
      <feColorMatrix
         in="blur"
         values="1 0 0 0 0 0 1 0 0 0 0 0 1 0 0 0 0 0 6 -2 "
         result="colormatrix2"
         id="feColorMatrix39" />
      <feBlend
         in="colormatrix2"
         in2="flood"
         mode="normal"
         result="blend"
         id="feBlend39" />
      <feComposite
         in="blend"
         in2="blend"
         operator="arithmetic"
         k2="0.2"
         result="composite1"
         id="feComposite39" />
      <feComposite
         in2="SourceGraphic"
         operator="in"
         id="feComposite40" />
    </filter>
  </defs>
  <g
     id="g877"
     transform="matrix(1.1,0,0,1.1,-3.1845928,-3.2065454)">
    <ellipse
       style="opacity:0.5;fill:#000000;stroke:none;stroke-width:3.89319;stroke-dasharray:none;stroke-opacity:1;filter:url(#filter9)"
       id="path2-5"
       cx="31.949858"
       cy="31.969812"
       rx="25.124426"
       ry="25.268976"
       transform="matrix(1.05,0,0,1.05,-1.5974929,-1.5984906)" />
    <path
       style="fill:#f5f7fa;stroke-width:0.204426;fill-opacity:1"
       d=""
       id="path3" />
    <circle
       style="opacity:1;fill:url(#linearGradient8);stroke:url(#linearGradient7);stroke-width:3.81818;stroke-dasharray:none;stroke-opacity:1"
       id="path2"
       cx="31.949856"
       cy="31.969812"
       r="24.711082" />
    <ellipse
       style="opacity:0.3;fill:none;stroke:#000000;stroke-width:0.974376;stroke-dasharray:none;stroke-opacity:1"
       id="path2-9"
       cx="31.949856"
       cy="31.969812"
       rx="23.129124"
       ry="23.129126" />
  </g>
  <path
     style="fill:#000000;fill-opacity:1;stroke:none;stroke-width:0.446512;stroke-dasharray:none;stroke-opacity:0.6;opacity:0.2"
     d="m 20.124344,48.278473 c -1.595334,-0.556078 -2.766447,-1.736962 -3.158281,-3.184614 -0.272889,-1.008209 -0.0872,-2.424192 0.441468,-3.366502 1.017938,-1.814378 3.462503,-2.857914 5.395935,-2.303409 l 0.481247,0.138016 0.09875,-0.944773 c 0.252237,-2.413261 2.028191,-4.538281 4.426229,-5.296205 0.467767,-0.147842 0.881764,-0.294995 0.919989,-0.327005 0.03824,-0.03201 -0.646594,-0.776737 -1.521817,-1.654951 l -1.591319,-1.596753 1.560476,-1.514219 1.560475,-1.514218 v -2.141521 -2.141522 h 2.216833 2.216836 l 1.572129,-1.483069 1.572132,-1.483064 0.734086,0.620372 c 0.403747,0.341201 1.114429,1.008582 1.57929,1.483066 l 0.845206,0.862695 h 2.208823 2.208817 v 2.135365 2.135365 l 1.633654,1.519153 1.633664,1.519151 -1.633664,1.538597 -1.633654,1.538596 v 2.074694 2.074694 h -2.09913 -2.099124 l -1.23669,1.121098 -1.236683,1.121098 1.062146,0.09742 c 1.366189,0.125307 2.415337,0.654736 3.343736,1.687336 1.593267,1.772098 1.571649,4.139049 -0.05408,5.917815 -0.472911,0.517438 -1.078921,0.979983 -1.581607,1.207166 l -0.814937,0.368309 -9.12342,0.03605 c -8.465385,0.03342 -9.181417,0.01587 -9.927542,-0.24427 z M 37.707339,35.963482 c 2.129505,-0.266394 4.263479,-2.154603 4.951115,-4.380914 1.152253,-3.730574 -1.280672,-7.430684 -5.326729,-8.101136 -2.006338,-0.33246 -4.067083,0.316734 -5.596513,1.763071 -1.964797,1.858049 -2.55654,4.805623 -1.416592,7.056296 0.312753,0.617486 0.446207,0.72323 1.202291,0.952625 1.542201,0.467899 2.966046,1.410822 3.503,2.319812 0.183066,0.309908 0.413403,0.466902 0.739604,0.504106 0.48047,0.05479 0.696959,0.04212 1.943824,-0.11386 z"
     id="path53290-3" />
  <path
     style="fill:#4d4d4d;fill-opacity:1;stroke:none;stroke-width:0.446512;stroke-dasharray:none;stroke-opacity:0.6"
     d="m 20.124344,46.278473 c -1.595334,-0.556078 -2.766447,-1.736962 -3.158281,-3.184614 -0.272889,-1.008209 -0.0872,-2.424192 0.441468,-3.366502 1.017938,-1.814378 3.462503,-2.857914 5.395935,-2.303409 l 0.481247,0.138016 0.09875,-0.944773 c 0.252237,-2.413261 2.028191,-4.538281 4.426229,-5.296205 0.467767,-0.147842 0.881764,-0.294995 0.919989,-0.327005 0.03824,-0.03201 -0.646594,-0.776737 -1.521817,-1.654951 l -1.591319,-1.596753 1.560476,-1.514219 1.560475,-1.514218 v -2.141521 -2.141522 h 2.216833 2.216836 l 1.572129,-1.483069 1.572132,-1.483064 0.734086,0.620372 c 0.403747,0.341201 1.114429,1.008582 1.57929,1.483066 l 0.845206,0.862695 h 2.208823 2.208817 v 2.135365 2.135365 l 1.633654,1.519153 1.633664,1.519151 -1.633664,1.538597 -1.633654,1.538596 v 2.074694 2.074694 h -2.09913 -2.099124 l -1.23669,1.121098 -1.236683,1.121098 1.062146,0.09742 c 1.366189,0.125307 2.415337,0.654736 3.343736,1.687336 1.593267,1.772098 1.571649,4.139049 -0.05408,5.917815 -0.472911,0.517438 -1.078921,0.979983 -1.581607,1.207166 l -0.814937,0.368309 -9.12342,0.03605 c -8.465385,0.03342 -9.181417,0.01587 -9.927542,-0.24427 z M 37.707339,33.963482 c 2.129505,-0.266394 4.263479,-2.154603 4.951115,-4.380914 1.152253,-3.730574 -1.280672,-7.430684 -5.326729,-8.101136 -2.006338,-0.33246 -4.067083,0.316734 -5.596513,1.763071 -1.964797,1.858049 -2.55654,4.805623 -1.416592,7.056296 0.312753,0.617486 0.446207,0.72323 1.202291,0.952625 1.542201,0.467899 2.966046,1.410822 3.503,2.319812 0.183066,0.309908 0.413403,0.466902 0.739604,0.504106 0.48047,0.05479 0.696959,0.04212 1.943824,-0.11386 z"
     id="path53290" />
</svg>
