<?xml version="1.0" encoding="UTF-8" standalone="no"?>
<svg
   width="64"
   height="64"
   version="1.1"
   id="svg73"
   sodipodi:docname="abcd.svg"
   inkscape:version="1.4.2 (ebf0e940d0, 2025-05-08)"
   xmlns:inkscape="http://www.inkscape.org/namespaces/inkscape"
   xmlns:sodipodi="http://sodipodi.sourceforge.net/DTD/sodipodi-0.dtd"
   xmlns:xlink="http://www.w3.org/1999/xlink"
   xmlns="http://www.w3.org/2000/svg"
   xmlns:svg="http://www.w3.org/2000/svg"
   xmlns:rdf="http://www.w3.org/1999/02/22-rdf-syntax-ns#"
   xmlns:cc="http://creativecommons.org/ns#"
   xmlns:dc="http://purl.org/dc/elements/1.1/">
  <metadata
     id="metadata77">
    <rdf:RDF>
      <cc:Work
         rdf:about="">
        <dc:format>image/svg+xml</dc:format>
        <dc:type
           rdf:resource="http://purl.org/dc/dcmitype/StillImage" />
      </cc:Work>
    </rdf:RDF>
  </metadata>
  <sodipodi:namedview
     pagecolor="#f5f7fa"
     bordercolor="#666666"
     borderopacity="1"
     objecttolerance="10"
     gridtolerance="10"
     guidetolerance="10"
     inkscape:pageopacity="0"
     inkscape:pageshadow="2"
     inkscape:window-width="1920"
     inkscape:window-height="931"
     id="namedview75"
     showgrid="false"
     inkscape:zoom="6.2890624"
     inkscape:cx="53.426088"
     inkscape:cy="29.734162"
     inkscape:window-x="0"
     inkscape:window-y="0"
     inkscape:window-maximized="1"
     inkscape:current-layer="svg73"
     inkscape:document-rotation="0"
     inkscape:pagecheckerboard="0"
     inkscape:showpageshadow="2"
     inkscape:deskcolor="#d1d1d1" />
  <defs
     id="defs29">
    <linearGradient
       id="linearGradient4"
       inkscape:collect="always">
      <stop
         style="stop-color:#ac5eac;stop-opacity:1;"
         offset="0"
         id="stop4" />
      <stop
         style="stop-color:#c181c1;stop-opacity:1;"
         offset="0.5"
         id="stop1" />
    </linearGradient>
    <linearGradient
       id="linearGradient2"
       inkscape:collect="always">
      <stop
         style="stop-color:#f4ecf4;stop-opacity:1;"
         offset="0"
         id="stop2" />
      <stop
         style="stop-color:#e9d8e9;stop-opacity:1;"
         offset="1"
         id="stop3" />
    </linearGradient>
    <linearGradient
       inkscape:collect="always"
       xlink:href="#linearGradient2"
       id="linearGradient8"
       x1="31.721739"
       y1="5.2278585"
       x2="31.88887"
       y2="59.145416"
       gradientUnits="userSpaceOnUse"
       gradientTransform="matrix(0.8505,0,0,0.8505,4.7765033,4.7794869)" />
    <filter
       style="color-interpolation-filters:sRGB;"
       inkscape:label="Blur"
       id="filter9"
       x="-0.047762285"
       y="-0.047489063"
       width="1.0955246"
       height="1.0949781">
      <feGaussianBlur
         stdDeviation="1 1"
         result="blur"
         id="feGaussianBlur9" />
    </filter>
    <linearGradient
       inkscape:collect="always"
       xlink:href="#linearGradient4"
       id="linearGradient7"
       x1="26.723248"
       y1="58.711765"
       x2="25.756926"
       y2="5.950614"
       gradientUnits="userSpaceOnUse" />
    <filter
       style="color-interpolation-filters:sRGB;"
       inkscape:label="Out of Focus"
       id="filter40"
       x="-0.24226652"
       y="-0.2858297"
       width="1.484533"
       height="1.5716594">
      <feFlood
         flood-opacity="1"
         flood-color="rgb(255,255,255)"
         result="flood"
         id="feFlood38" />
      <feColorMatrix
         in="SourceGraphic"
         values="1 0 0 0 0 0 1 0 0 0 0 0 1 0 0 -0.2125 -0.7154 -0.0721 1 0 "
         result="colormatrix1"
         id="feColorMatrix38" />
      <feGaussianBlur
         in="colormatrix1"
         stdDeviation="3 3"
         result="blur"
         id="feGaussianBlur38" />
      <feColorMatrix
         in="blur"
         values="1 0 0 0 0 0 1 0 0 0 0 0 1 0 0 0 0 0 6 -2 "
         result="colormatrix2"
         id="feColorMatrix39" />
      <feBlend
         in="colormatrix2"
         in2="flood"
         mode="normal"
         result="blend"
         id="feBlend39" />
      <feComposite
         in="blend"
         in2="blend"
         operator="arithmetic"
         k2="0.2"
         result="composite1"
         id="feComposite39" />
      <feComposite
         in2="SourceGraphic"
         operator="in"
         id="feComposite40" />
    </filter>
  </defs>
  <g
     id="g877"
     transform="matrix(1.1,0,0,1.1,-3.1845928,-3.2065454)">
    <ellipse
       style="opacity:0.5;fill:#000000;stroke:none;stroke-width:3.89319;stroke-dasharray:none;stroke-opacity:1;filter:url(#filter9)"
       id="path2-5"
       cx="31.949858"
       cy="31.969812"
       rx="25.124426"
       ry="25.268976"
       transform="matrix(1.05,0,0,1.05,-1.5974929,-1.5984906)" />
    <path
       style="fill:#f5f7fa;stroke-width:0.204426;fill-opacity:1"
       d=""
       id="path3" />
    <circle
       style="opacity:1;fill:url(#linearGradient8);stroke:url(#linearGradient7);stroke-width:3.81818;stroke-dasharray:none;stroke-opacity:1"
       id="path2"
       cx="31.949856"
       cy="31.969812"
       r="24.711082" />
    <ellipse
       style="opacity:0.3;fill:none;stroke:#000000;stroke-width:0.974376;stroke-dasharray:none;stroke-opacity:1"
       id="path2-9"
       cx="31.949856"
       cy="31.969812"
       rx="23.129124"
       ry="23.129126" />
  </g>
  <path
     id="path1-3"
     style="fill:#000000;fill-opacity:1;stroke:none;stroke-width:0.511726;stroke-dasharray:none;stroke-opacity:0.6;opacity:0.2"
     d="m 28.667154,18.305519 c -9.936754,0.0019 -10.412905,0.007 -10.741983,0.159401 -0.42195,0.195358 -0.764627,0.550628 -0.941915,0.975036 -0.118471,0.283573 -0.134561,1.551722 -0.134561,11.129094 0,9.577376 0.01598,10.845527 0.134561,11.129099 0.177264,0.424408 0.519965,0.779687 0.941915,0.975043 0.329094,0.152408 0.805229,0.159688 10.741983,0.161445 11.386884,0.0021 10.720119,0.03234 11.284368,-0.49684 0.136195,-0.12765 0.320148,-0.388181 0.407823,-0.577568 0.152478,-0.329328 0.159689,-0.817809 0.161412,-11.21605 0.002,-10.530663 -0.0048,-10.88183 -0.16352,-11.191198 -0.211278,-0.41086 -0.569377,-0.74849 -0.97295,-0.917072 -0.283437,-0.11841 -1.509098,-0.13212 -10.717144,-0.130426 z m -3.243917,4.75305 c 0.118182,-0.002 0.241279,0.03594 0.362271,0.126288 0.12198,0.09105 0.251018,0.27197 0.285672,0.40161 0.07796,0.291432 -0.06282,0.717493 -0.273252,0.830128 -0.269488,0.144226 -0.597447,0.09398 -0.817711,-0.126288 -0.468193,-0.468197 -0.06902,-1.223564 0.443012,-1.231739 z m -4.873122,0.151125 c 1.182855,0 1.463595,0.02246 1.463595,0.117999 0,0.07139 -0.135968,0.140356 -0.345718,0.17389 -0.266244,0.0426 -0.366595,0.107041 -0.430595,0.275327 -0.127109,0.334345 -0.110341,4.880791 0.01842,5.009747 0.127793,0.127805 1.005015,0.136149 1.333178,0.01239 0.373564,-0.140842 0.748619,-0.551128 1.018512,-1.115805 0.164853,-0.344892 0.296004,-0.513398 0.399522,-0.513398 0.120742,0 0.145781,0.05069 0.11386,0.235998 -0.140171,0.814207 -0.297855,1.795784 -0.298086,1.85071 -1.53e-4,0.03545 -1.066227,0.06419 -2.368249,0.06419 -2.277268,0 -2.368245,-0.0065 -2.368245,-0.165611 0,-0.113803 0.08054,-0.182355 0.258746,-0.221508 0.142418,-0.03127 0.298771,-0.12757 0.345725,-0.215291 0.113779,-0.212624 0.113779,-4.778505 0,-4.991118 -0.04696,-0.08774 -0.203274,-0.186091 -0.345725,-0.217365 -0.142413,-0.03125 -0.258746,-0.110777 -0.258746,-0.178031 0,-0.100859 0.256545,-0.122143 1.463592,-0.122143 z m 6.930844,0 h 0.817712 v 1.082684 1.082685 l 0.306383,-0.188387 c 0.444411,-0.274657 1.143069,-0.211022 1.511205,0.138696 0.508036,0.482618 0.635534,0.845039 0.635534,1.801029 0,0.794596 -0.01926,0.896424 -0.256708,1.324889 -0.36803,0.664495 -0.775842,0.912646 -1.500852,0.912933 -0.456144,1.8e-4 -0.620977,-0.03834 -0.848758,-0.200802 l -0.283627,-0.202876 -0.291883,0.223576 c -0.16092,0.12275 -0.334546,0.223577 -0.385065,0.223577 -0.06322,0 -0.09108,-0.89907 -0.09108,-2.885782 v -2.885779 l -0.215291,-0.09731 c -0.118374,-0.05392 -0.215288,-0.149815 -0.215288,-0.213228 0,-0.08825 0.191735,-0.115931 0.817706,-0.115931 z m 6.465065,1.801022 c 0.180712,0.01012 0.341796,0.08686 0.457506,0.233927 0.25566,0.325047 0.235353,0.748323 -0.04759,0.9709 -0.303859,0.239012 -0.427505,0.22665 -0.732834,-0.07866 -0.142051,-0.142041 -0.317316,-0.258767 -0.387106,-0.258767 -0.248488,0 -0.375965,0.548739 -0.374685,1.610574 0.0016,1.255852 0.03522,1.395677 0.353978,1.459451 0.166611,0.03331 0.248416,0.1023 0.248416,0.211156 0,0.149542 -0.08313,0.16147 -1.119945,0.16147 -1.01153,0 -1.117884,-0.01394 -1.117884,-0.151118 0,-0.08346 0.08601,-0.189266 0.192531,-0.235996 0.190006,-0.08336 0.194417,-0.118277 0.217364,-1.74513 l 0.02287,-1.658189 -0.217365,-0.08281 c -0.119372,-0.04539 -0.215278,-0.141033 -0.215278,-0.213224 0,-0.108427 0.14226,-0.130411 0.817707,-0.130411 h 0.817719 l 0.0021,0.279472 c 0.0026,0.274951 0.0061,0.277388 0.151106,0.1056 0.276981,-0.32765 0.630366,-0.495078 0.931565,-0.478204 z m 2.581473,0.01045 c 0.244858,0.0021 0.48161,0.04353 0.637608,0.124205 0.483655,0.250113 0.861183,0.954685 0.861183,1.606433 v 0.331245 h -0.991603 -0.989534 l 0.0021,0.322947 c 0.0021,0.366765 0.241363,0.95076 0.465783,1.136507 0.270402,0.223786 0.70528,0.156162 1.033005,-0.161475 0.189084,-0.183273 0.346662,-0.26771 0.434728,-0.233931 0.122689,0.04714 0.123649,0.07757 0.01224,0.289822 -0.168725,0.322382 -0.645598,0.768131 -0.941806,0.879808 -0.32861,0.123925 -0.905499,0.109164 -1.227519,-0.03105 -0.614684,-0.267614 -1.022741,-1.093399 -1.022741,-2.072215 0,-0.992283 0.411964,-1.815481 1.04128,-2.078424 0.18648,-0.07796 0.440388,-0.115821 0.685221,-0.11386 z m 5.03046,0.06832 -0.02286,8.808464 c -0.02497,9.704214 0.01548,9.006212 -0.550661,9.572347 -0.565169,0.565181 0.08496,0.527197 -9.139691,0.552725 l -8.375803,0.02286 0.02482,2.229551 0.02689,2.229536 0.258748,0.368491 c 0.276902,0.393753 0.664058,0.661459 1.105454,0.768018 0.149623,0.03598 4.922151,0.05915 10.607423,0.05177 L 45.830585,49.681 46.248752,49.420178 c 0.305627,-0.188983 0.485267,-0.383152 0.66038,-0.718344 l 0.242161,-0.461637 V 37.419186 26.598541 L 46.913431,26.13073 c -0.177678,-0.350514 -0.342466,-0.532453 -0.660347,-0.726622 l -0.422468,-0.258764 -2.13639,-0.02688 z m -16.314822,0.01451 h 0.817708 v 1.848638 c 0,1.75685 0.0086,1.856256 0.171817,1.958356 0.09468,0.05912 0.17182,0.175468 0.17182,0.25876 0,0.135772 -0.102069,0.151117 -0.989533,0.151117 -0.93257,0 -0.991597,-0.0096 -0.991597,-0.17182 0,-0.09468 0.03687,-0.171819 0.08071,-0.171819 0.04395,0 0.140888,-0.06019 0.215286,-0.13456 0.112886,-0.112931 0.134563,-0.390367 0.134563,-1.676837 v -1.542296 l -0.215293,-0.140769 c -0.118374,-0.07755 -0.215279,-0.195259 -0.215279,-0.260831 0,-0.0932 0.180429,-0.118002 0.819779,-0.118002 z m 11.278151,0.300154 c -0.299766,0 -0.422932,0.202366 -0.513396,0.84048 l -0.05798,0.407781 h 0.521679 0.521672 l -0.0064,-0.322949 c -0.0025,-0.17754 -0.05113,-0.457392 -0.107668,-0.623107 -0.08667,-0.254139 -0.141249,-0.302241 -0.358143,-0.302241 z m -7.676098,0.15526 c -0.06349,0.002 -0.128957,0.02178 -0.196658,0.05797 -0.302901,0.162109 -0.349846,0.390634 -0.349846,1.707866 0,1.16997 0.01562,1.304743 0.17803,1.511208 0.300021,0.381422 0.667672,0.261067 0.888092,-0.289817 0.207269,-0.518031 0.190758,-2.073088 -0.02683,-2.552495 -0.132729,-0.292312 -0.302191,-0.440448 -0.492705,-0.434751 z m -2.736729,5.651488 c 0.542737,-0.01631 1.072681,0.232024 1.192403,0.71213 0.135205,0.542177 -0.285107,0.951708 -0.739047,0.720409 -0.17855,-0.091 -0.19914,-0.15854 -0.184237,-0.594147 0.01726,-0.50115 -0.04263,-0.578904 -0.316721,-0.405746 -0.09514,0.0601 -0.137247,0.285945 -0.159403,0.859107 l -0.03123,0.778375 h 0.353988 c 0.319043,0 0.351929,0.02073 0.351929,0.215294 0,0.193679 -0.03365,0.215284 -0.343637,0.215284 h -0.345736 v 1.550536 c 0,1.434737 0.01441,1.560877 0.173903,1.720292 0.0947,0.0947 0.248937,0.17182 0.343645,0.17182 0.09567,0 0.17182,0.05867 0.17182,0.130415 0,0.108405 -0.185724,0.128351 -1.161354,0.128351 -0.913719,0 -1.163417,-0.02522 -1.163417,-0.115931 0,-0.06339 0.09693,-0.159294 0.215289,-0.213228 l 0.215286,-0.09728 V 35.349026 33.71154 h -0.215286 c -0.172172,0 -0.215278,-0.04314 -0.215278,-0.215285 0,-0.167192 0.04488,-0.215295 0.198741,-0.215295 0.181119,0 0.205394,-0.05586 0.291876,-0.656235 0.05504,-0.382045 0.164565,-0.750496 0.260833,-0.881885 0.253626,-0.346223 0.683325,-0.519357 1.105456,-0.532021 z m 2.798836,0.0022 c 0.400443,0.01663 0.781401,0.168929 0.979173,0.451291 0.110273,0.15746 0.132484,0.165181 0.132484,0.04348 0,-0.229192 0.318203,-0.492696 0.594131,-0.492696 0.418184,0 0.654167,0.265796 0.654167,0.732833 0,0.319242 -0.04172,0.436727 -0.202863,0.567219 -0.260675,0.211104 -0.533741,0.209017 -0.807356,-0.0065 l -0.217365,-0.171862 -0.124228,0.184241 c -0.142778,0.215021 -0.581364,0.252443 -0.803218,0.06833 -0.13276,-0.110181 -0.145984,-0.453311 -0.03326,-0.85704 0.06215,-0.22223 -0.293602,-0.149104 -0.411961,0.08489 -0.05988,0.118361 -0.10901,0.497217 -0.109703,0.84048 v 0.623096 h 0.343639 c 0.309908,0 0.343642,0.02155 0.343642,0.215291 0,0.193686 -0.03365,0.215296 -0.343642,0.215296 h -0.343629 v 1.457368 c 0,0.801799 0.03607,1.558477 0.08281,1.680956 0.0566,0.148859 0.172144,0.240614 0.345717,0.275325 0.142824,0.0286 0.258756,0.104665 0.258756,0.169755 0,0.09459 -0.232672,0.118 -1.16135,0.118 -0.913728,0 -1.163424,-0.02524 -1.163424,-0.115929 0,-0.0634 0.09693,-0.159295 0.215277,-0.213227 l 0.215284,-0.09729 v -1.637353 -1.637486 h -0.215278 c -0.172173,0 -0.215279,-0.04314 -0.215279,-0.215295 0,-0.170467 0.04352,-0.215285 0.209079,-0.215285 0.19056,0 0.213878,-0.04348 0.26496,-0.494767 0.07667,-0.677364 0.186519,-0.997806 0.411954,-1.208959 0.280224,-0.262509 0.700866,-0.380972 1.101318,-0.364349 z m -7.891399,0.01451 c 0.08521,-8.2e-4 0.171341,4.77e-4 0.258759,0.0065 1.069698,0.07018 1.880492,0.652048 2.359966,1.693379 0.434906,0.944564 0.34364,2.5081 -0.19666,3.363999 -0.315273,0.499445 -0.965941,1.021381 -1.451167,1.165478 -0.453629,0.134714 -1.412029,0.160048 -1.780326,0.0476 -0.804633,-0.245633 -1.501012,-0.90039 -1.821739,-1.71407 -0.228823,-0.58051 -0.274489,-1.981783 -0.08281,-2.552489 0.421193,-1.253881 1.436035,-1.997542 2.713963,-2.010104 z m 0.02286,0.341577 c -0.157853,-0.0055 -0.300311,0.05529 -0.49478,0.186313 -0.645851,0.435244 -0.898022,1.358266 -0.840475,3.086588 0.03289,0.982792 0.0593,1.122201 0.291875,1.587802 0.185518,0.371378 0.335468,0.550807 0.554799,0.660376 0.368676,0.184176 0.62038,0.190117 0.943987,0.02271 0.596247,-0.308353 0.892126,-1.171809 0.900497,-2.627029 0.0087,-1.528078 -0.313313,-2.494009 -0.929491,-2.786415 -0.17334,-0.08228 -0.303698,-0.126264 -0.426454,-0.13042 z m 16.258908,1.581585 c 0.107228,0.0051 0.214794,0.02262 0.322928,0.05175 0.634241,0.170781 0.976598,0.681662 1.136511,1.693379 l 0.05795,0.366413 h -1.04963 -1.049569 l 0.06003,0.407819 c 0.160581,1.070949 0.849892,1.478395 1.476011,0.87153 0.255164,-0.247329 0.548592,-0.297216 0.548592,-0.09316 0,0.171814 -0.664476,0.829276 -0.985389,0.975043 -0.862036,0.391524 -1.824652,-0.06743 -2.150839,-1.02476 -0.151671,-0.44509 -0.17723,-1.456622 -0.04759,-1.923166 0.231148,-0.832163 0.930442,-1.361469 1.680954,-1.32489 z m -3.335003,0.0084 c 0.632547,0.02356 1.175849,0.379226 1.175849,0.99574 0,0.396213 -0.184323,0.589989 -0.561013,0.589989 -0.312669,0 -0.433232,-0.169931 -0.498906,-0.70799 -0.05276,-0.432061 -0.067,-0.453327 -0.308459,-0.453327 -0.4088,0 -0.599821,0.418208 -0.604483,1.32903 -0.0045,0.876282 0.179904,1.439822 0.57964,1.776185 0.336073,0.282777 0.746791,0.241842 1.113742,-0.109714 0.202778,-0.19427 0.263073,-0.216116 0.325003,-0.115931 0.04406,0.07129 0.0424,0.183882 -0.0022,0.26705 -0.142344,0.26592 -0.67858,0.67289 -1.006101,0.763839 -0.824282,0.228919 -1.532847,-0.08682 -1.966644,-0.877726 -0.213239,-0.388829 -0.246932,-0.54417 -0.248413,-1.138579 -0.0022,-0.846831 0.132398,-1.253912 0.577568,-1.736854 0.385465,-0.418181 0.932292,-0.600035 1.42426,-0.581712 z m -3.554439,0.122107 h 0.817704 v 1.801022 c 0,1.523056 0.02001,1.823302 0.134566,1.937657 0.07439,0.07442 0.171337,0.134558 0.215276,0.134558 0.04394,0 0.08071,0.0594 0.08071,0.130417 0,0.107613 -0.172144,0.128355 -1.032998,0.128355 -0.80583,0 -1.033005,-0.02598 -1.033005,-0.11593 0,-0.06344 0.09488,-0.159299 0.213204,-0.21323 l 0.215292,-0.09733 v -1.63956 -1.639555 l -0.215291,-0.09729 c -0.118372,-0.05392 -0.213204,-0.149811 -0.213204,-0.213227 0,-0.08827 0.191736,-0.115932 0.817711,-0.115932 z m 6.717624,0.269119 c -0.124333,0.0055 -0.177533,0.07219 -0.264952,0.281539 -0.06994,0.167438 -0.126275,0.461188 -0.126275,0.652092 v 0.347783 h 0.474052 0.471998 v -0.409827 c -0.002,-0.540129 -0.155576,-0.832645 -0.455441,-0.867388 -0.03766,-0.0044 -0.07066,-0.0055 -0.09933,-0.0042 z" />
  <path
     id="path1"
     style="fill:#4d4d4d;fill-opacity:1;stroke:none;stroke-width:0.511726;stroke-dasharray:none;stroke-opacity:0.6"
     d="m 28.667154,16.305519 c -9.936754,0.0019 -10.412905,0.007 -10.741983,0.159401 -0.42195,0.195358 -0.764627,0.550628 -0.941915,0.975036 -0.118471,0.283573 -0.134561,1.551722 -0.134561,11.129094 0,9.577376 0.01598,10.845527 0.134561,11.129099 0.177264,0.424408 0.519965,0.779687 0.941915,0.975043 0.329094,0.152408 0.805229,0.159688 10.741983,0.161445 11.386884,0.0021 10.720119,0.03234 11.284368,-0.49684 0.136195,-0.12765 0.320148,-0.388181 0.407823,-0.577568 0.152478,-0.329328 0.159689,-0.817809 0.161412,-11.21605 0.002,-10.530663 -0.0048,-10.88183 -0.16352,-11.191198 -0.211278,-0.41086 -0.569377,-0.74849 -0.97295,-0.917072 -0.283437,-0.11841 -1.509098,-0.13212 -10.717144,-0.130426 z m -3.243917,4.75305 c 0.118182,-0.002 0.241279,0.03594 0.362271,0.126288 0.12198,0.09105 0.251018,0.27197 0.285672,0.40161 0.07796,0.291432 -0.06282,0.717493 -0.273252,0.830128 -0.269488,0.144226 -0.597447,0.09398 -0.817711,-0.126288 -0.468193,-0.468197 -0.06902,-1.223564 0.443012,-1.231739 z m -4.873122,0.151125 c 1.182855,0 1.463595,0.02246 1.463595,0.117999 0,0.07139 -0.135968,0.140356 -0.345718,0.17389 -0.266244,0.0426 -0.366595,0.107041 -0.430595,0.275327 -0.127109,0.334345 -0.110341,4.880791 0.01842,5.009747 0.127793,0.127805 1.005015,0.136149 1.333178,0.01239 0.373564,-0.140842 0.748619,-0.551128 1.018512,-1.115805 0.164853,-0.344892 0.296004,-0.513398 0.399522,-0.513398 0.120742,0 0.145781,0.05069 0.11386,0.235998 -0.140171,0.814207 -0.297855,1.795784 -0.298086,1.85071 -1.53e-4,0.03545 -1.066227,0.06419 -2.368249,0.06419 -2.277268,0 -2.368245,-0.0065 -2.368245,-0.165611 0,-0.113803 0.08054,-0.182355 0.258746,-0.221508 0.142418,-0.03127 0.298771,-0.12757 0.345725,-0.215291 0.113779,-0.212624 0.113779,-4.778505 0,-4.991118 -0.04696,-0.08774 -0.203274,-0.186091 -0.345725,-0.217365 -0.142413,-0.03125 -0.258746,-0.110777 -0.258746,-0.178031 0,-0.100859 0.256545,-0.122143 1.463592,-0.122143 z m 6.930844,0 h 0.817712 v 1.082684 1.082685 l 0.306383,-0.188387 c 0.444411,-0.274657 1.143069,-0.211022 1.511205,0.138696 0.508036,0.482618 0.635534,0.845039 0.635534,1.801029 0,0.794596 -0.01926,0.896424 -0.256708,1.324889 -0.36803,0.664495 -0.775842,0.912646 -1.500852,0.912933 -0.456144,1.8e-4 -0.620977,-0.03834 -0.848758,-0.200802 l -0.283627,-0.202876 -0.291883,0.223576 c -0.16092,0.12275 -0.334546,0.223577 -0.385065,0.223577 -0.06322,0 -0.09108,-0.89907 -0.09108,-2.885782 v -2.885779 l -0.215291,-0.09731 c -0.118374,-0.05392 -0.215288,-0.149815 -0.215288,-0.213228 0,-0.08825 0.191735,-0.115931 0.817706,-0.115931 z m 6.465065,1.801022 c 0.180712,0.01012 0.341796,0.08686 0.457506,0.233927 0.25566,0.325047 0.235353,0.748323 -0.04759,0.9709 -0.303859,0.239012 -0.427505,0.22665 -0.732834,-0.07866 -0.142051,-0.142041 -0.317316,-0.258767 -0.387106,-0.258767 -0.248488,0 -0.375965,0.548739 -0.374685,1.610574 0.0016,1.255852 0.03522,1.395677 0.353978,1.459451 0.166611,0.03331 0.248416,0.1023 0.248416,0.211156 0,0.149542 -0.08313,0.16147 -1.119945,0.16147 -1.01153,0 -1.117884,-0.01394 -1.117884,-0.151118 0,-0.08346 0.08601,-0.189266 0.192531,-0.235996 0.190006,-0.08336 0.194417,-0.118277 0.217364,-1.74513 l 0.02287,-1.658189 -0.217365,-0.08281 c -0.119372,-0.04539 -0.215278,-0.141033 -0.215278,-0.213224 0,-0.108427 0.14226,-0.130411 0.817707,-0.130411 h 0.817719 l 0.0021,0.279472 c 0.0026,0.274951 0.0061,0.277388 0.151106,0.1056 0.276981,-0.32765 0.630366,-0.495078 0.931565,-0.478204 z m 2.581473,0.01045 c 0.244858,0.0021 0.48161,0.04353 0.637608,0.124205 0.483655,0.250113 0.861183,0.954685 0.861183,1.606433 v 0.331245 h -0.991603 -0.989534 l 0.0021,0.322947 c 0.0021,0.366765 0.241363,0.95076 0.465783,1.136507 0.270402,0.223786 0.70528,0.156162 1.033005,-0.161475 0.189084,-0.183273 0.346662,-0.26771 0.434728,-0.233931 0.122689,0.04714 0.123649,0.07757 0.01224,0.289822 -0.168725,0.322382 -0.645598,0.768131 -0.941806,0.879808 -0.32861,0.123925 -0.905499,0.109164 -1.227519,-0.03105 -0.614684,-0.267614 -1.022741,-1.093399 -1.022741,-2.072215 0,-0.992283 0.411964,-1.815481 1.04128,-2.078424 0.18648,-0.07796 0.440388,-0.115821 0.685221,-0.11386 z m 5.03046,0.06832 -0.02286,8.808464 c -0.02497,9.704214 0.01548,9.006212 -0.550661,9.572347 -0.565169,0.565181 0.08496,0.527197 -9.139691,0.552725 l -8.375803,0.02286 0.02482,2.229551 0.02689,2.229536 0.258748,0.368491 c 0.276902,0.393753 0.664058,0.661459 1.105454,0.768018 0.149623,0.03598 4.922151,0.05915 10.607423,0.05177 L 45.830585,47.681 46.248752,47.420178 c 0.305627,-0.188983 0.485267,-0.383152 0.66038,-0.718344 l 0.242161,-0.461637 V 35.419186 24.598541 L 46.913431,24.13073 c -0.177678,-0.350514 -0.342466,-0.532453 -0.660347,-0.726622 l -0.422468,-0.258764 -2.13639,-0.02688 z m -16.314822,0.01451 h 0.817708 v 1.848638 c 0,1.75685 0.0086,1.856256 0.171817,1.958356 0.09468,0.05912 0.17182,0.175468 0.17182,0.25876 0,0.135772 -0.102069,0.151117 -0.989533,0.151117 -0.93257,0 -0.991597,-0.0096 -0.991597,-0.17182 0,-0.09468 0.03687,-0.171819 0.08071,-0.171819 0.04395,0 0.140888,-0.06019 0.215286,-0.13456 0.112886,-0.112931 0.134563,-0.390367 0.134563,-1.676837 v -1.542296 l -0.215293,-0.140769 c -0.118374,-0.07755 -0.215279,-0.195259 -0.215279,-0.260831 0,-0.0932 0.180429,-0.118002 0.819779,-0.118002 z m 11.278151,0.300154 c -0.299766,0 -0.422932,0.202366 -0.513396,0.84048 l -0.05798,0.407781 h 0.521679 0.521672 l -0.0064,-0.322949 c -0.0025,-0.17754 -0.05113,-0.457392 -0.107668,-0.623107 -0.08667,-0.254139 -0.141249,-0.302241 -0.358143,-0.302241 z m -7.676098,0.15526 c -0.06349,0.002 -0.128957,0.02178 -0.196658,0.05797 -0.302901,0.162109 -0.349846,0.390634 -0.349846,1.707866 0,1.16997 0.01562,1.304743 0.17803,1.511208 0.300021,0.381422 0.667672,0.261067 0.888092,-0.289817 0.207269,-0.518031 0.190758,-2.073088 -0.02683,-2.552495 -0.132729,-0.292312 -0.302191,-0.440448 -0.492705,-0.434751 z m -2.736729,5.651488 c 0.542737,-0.01631 1.072681,0.232024 1.192403,0.71213 0.135205,0.542177 -0.285107,0.951708 -0.739047,0.720409 -0.17855,-0.091 -0.19914,-0.15854 -0.184237,-0.594147 0.01726,-0.50115 -0.04263,-0.578904 -0.316721,-0.405746 -0.09514,0.0601 -0.137247,0.285945 -0.159403,0.859107 l -0.03123,0.778375 h 0.353988 c 0.319043,0 0.351929,0.02073 0.351929,0.215294 0,0.193679 -0.03365,0.215284 -0.343637,0.215284 h -0.345736 v 1.550536 c 0,1.434737 0.01441,1.560877 0.173903,1.720292 0.0947,0.0947 0.248937,0.17182 0.343645,0.17182 0.09567,0 0.17182,0.05867 0.17182,0.130415 0,0.108405 -0.185724,0.128351 -1.161354,0.128351 -0.913719,0 -1.163417,-0.02522 -1.163417,-0.115931 0,-0.06339 0.09693,-0.159294 0.215289,-0.213228 l 0.215286,-0.09728 V 33.349026 31.71154 h -0.215286 c -0.172172,0 -0.215278,-0.04314 -0.215278,-0.215285 0,-0.167192 0.04488,-0.215295 0.198741,-0.215295 0.181119,0 0.205394,-0.05586 0.291876,-0.656235 0.05504,-0.382045 0.164565,-0.750496 0.260833,-0.881885 0.253626,-0.346223 0.683325,-0.519357 1.105456,-0.532021 z m 2.798836,0.0022 c 0.400443,0.01663 0.781401,0.168929 0.979173,0.451291 0.110273,0.15746 0.132484,0.165181 0.132484,0.04348 0,-0.229192 0.318203,-0.492696 0.594131,-0.492696 0.418184,0 0.654167,0.265796 0.654167,0.732833 0,0.319242 -0.04172,0.436727 -0.202863,0.567219 -0.260675,0.211104 -0.533741,0.209017 -0.807356,-0.0065 l -0.217365,-0.171862 -0.124228,0.184241 c -0.142778,0.215021 -0.581364,0.252443 -0.803218,0.06833 -0.13276,-0.110181 -0.145984,-0.453311 -0.03326,-0.85704 0.06215,-0.22223 -0.293602,-0.149104 -0.411961,0.08489 -0.05988,0.118361 -0.10901,0.497217 -0.109703,0.84048 v 0.623096 h 0.343639 c 0.309908,0 0.343642,0.02155 0.343642,0.215291 0,0.193686 -0.03365,0.215296 -0.343642,0.215296 h -0.343629 v 1.457368 c 0,0.801799 0.03607,1.558477 0.08281,1.680956 0.0566,0.148859 0.172144,0.240614 0.345717,0.275325 0.142824,0.0286 0.258756,0.104665 0.258756,0.169755 0,0.09459 -0.232672,0.118 -1.16135,0.118 -0.913728,0 -1.163424,-0.02524 -1.163424,-0.115929 0,-0.0634 0.09693,-0.159295 0.215277,-0.213227 l 0.215284,-0.09729 v -1.637353 -1.637486 h -0.215278 c -0.172173,0 -0.215279,-0.04314 -0.215279,-0.215295 0,-0.170467 0.04352,-0.215285 0.209079,-0.215285 0.19056,0 0.213878,-0.04348 0.26496,-0.494767 0.07667,-0.677364 0.186519,-0.997806 0.411954,-1.208959 0.280224,-0.262509 0.700866,-0.380972 1.101318,-0.364349 z m -7.891399,0.01451 c 0.08521,-8.2e-4 0.171341,4.77e-4 0.258759,0.0065 1.069698,0.07018 1.880492,0.652048 2.359966,1.693379 0.434906,0.944564 0.34364,2.5081 -0.19666,3.363999 -0.315273,0.499445 -0.965941,1.021381 -1.451167,1.165478 -0.453629,0.134714 -1.412029,0.160048 -1.780326,0.0476 -0.804633,-0.245633 -1.501012,-0.90039 -1.821739,-1.71407 -0.228823,-0.58051 -0.274489,-1.981783 -0.08281,-2.552489 0.421193,-1.253881 1.436035,-1.997542 2.713963,-2.010104 z m 0.02286,0.341577 c -0.157853,-0.0055 -0.300311,0.05529 -0.49478,0.186313 -0.645851,0.435244 -0.898022,1.358266 -0.840475,3.086588 0.03289,0.982792 0.0593,1.122201 0.291875,1.587802 0.185518,0.371378 0.335468,0.550807 0.554799,0.660376 0.368676,0.184176 0.62038,0.190117 0.943987,0.02271 0.596247,-0.308353 0.892126,-1.171809 0.900497,-2.627029 0.0087,-1.528078 -0.313313,-2.494009 -0.929491,-2.786415 -0.17334,-0.08228 -0.303698,-0.126264 -0.426454,-0.13042 z m 16.258908,1.581585 c 0.107228,0.0051 0.214794,0.02262 0.322928,0.05175 0.634241,0.170781 0.976598,0.681662 1.136511,1.693379 l 0.05795,0.366413 h -1.04963 -1.049569 l 0.06003,0.407819 c 0.160581,1.070949 0.849892,1.478395 1.476011,0.87153 0.255164,-0.247329 0.548592,-0.297216 0.548592,-0.09316 0,0.171814 -0.664476,0.829276 -0.985389,0.975043 -0.862036,0.391524 -1.824652,-0.06743 -2.150839,-1.02476 -0.151671,-0.44509 -0.17723,-1.456622 -0.04759,-1.923166 0.231148,-0.832163 0.930442,-1.361469 1.680954,-1.32489 z m -3.335003,0.0084 c 0.632547,0.02356 1.175849,0.379226 1.175849,0.99574 0,0.396213 -0.184323,0.589989 -0.561013,0.589989 -0.312669,0 -0.433232,-0.169931 -0.498906,-0.70799 -0.05276,-0.432061 -0.067,-0.453327 -0.308459,-0.453327 -0.4088,0 -0.599821,0.418208 -0.604483,1.32903 -0.0045,0.876282 0.179904,1.439822 0.57964,1.776185 0.336073,0.282777 0.746791,0.241842 1.113742,-0.109714 0.202778,-0.19427 0.263073,-0.216116 0.325003,-0.115931 0.04406,0.07129 0.0424,0.183882 -0.0022,0.26705 -0.142344,0.26592 -0.67858,0.67289 -1.006101,0.763839 -0.824282,0.228919 -1.532847,-0.08682 -1.966644,-0.877726 -0.213239,-0.388829 -0.246932,-0.54417 -0.248413,-1.138579 -0.0022,-0.846831 0.132398,-1.253912 0.577568,-1.736854 0.385465,-0.418181 0.932292,-0.600035 1.42426,-0.581712 z m -3.554439,0.122107 h 0.817704 v 1.801022 c 0,1.523056 0.02001,1.823302 0.134566,1.937657 0.07439,0.07442 0.171337,0.134558 0.215276,0.134558 0.04394,0 0.08071,0.0594 0.08071,0.130417 0,0.107613 -0.172144,0.128355 -1.032998,0.128355 -0.80583,0 -1.033005,-0.02598 -1.033005,-0.11593 0,-0.06344 0.09488,-0.159299 0.213204,-0.21323 l 0.215292,-0.09733 v -1.63956 -1.639555 l -0.215291,-0.09729 c -0.118372,-0.05392 -0.213204,-0.149811 -0.213204,-0.213227 0,-0.08827 0.191736,-0.115932 0.817711,-0.115932 z m 6.717624,0.269119 c -0.124333,0.0055 -0.177533,0.07219 -0.264952,0.281539 -0.06994,0.167438 -0.126275,0.461188 -0.126275,0.652092 v 0.347783 h 0.474052 0.471998 v -0.409827 c -0.002,-0.540129 -0.155576,-0.832645 -0.455441,-0.867388 -0.03766,-0.0044 -0.07066,-0.0055 -0.09933,-0.0042 z" />
</svg>
