<?xml version="1.0" encoding="UTF-8" standalone="no"?>
<svg
   width="64"
   height="64"
   version="1.1"
   id="svg73"
   sodipodi:docname="1password.svg"
   inkscape:version="1.4.2 (ebf0e940d0, 2025-05-08)"
   xmlns:inkscape="http://www.inkscape.org/namespaces/inkscape"
   xmlns:sodipodi="http://sodipodi.sourceforge.net/DTD/sodipodi-0.dtd"
   xmlns:xlink="http://www.w3.org/1999/xlink"
   xmlns="http://www.w3.org/2000/svg"
   xmlns:svg="http://www.w3.org/2000/svg"
   xmlns:rdf="http://www.w3.org/1999/02/22-rdf-syntax-ns#"
   xmlns:cc="http://creativecommons.org/ns#"
   xmlns:dc="http://purl.org/dc/elements/1.1/">
  <metadata
     id="metadata77">
    <rdf:RDF>
      <cc:Work
         rdf:about="">
        <dc:format>image/svg+xml</dc:format>
        <dc:type
           rdf:resource="http://purl.org/dc/dcmitype/StillImage" />
      </cc:Work>
    </rdf:RDF>
  </metadata>
  <sodipodi:namedview
     pagecolor="#f5f7fa"
     bordercolor="#666666"
     borderopacity="1"
     objecttolerance="10"
     gridtolerance="10"
     guidetolerance="10"
     inkscape:pageopacity="0"
     inkscape:pageshadow="2"
     inkscape:window-width="1414"
     inkscape:window-height="797"
     id="namedview75"
     showgrid="false"
     inkscape:zoom="6.2890624"
     inkscape:cx="34.345342"
     inkscape:cy="29.734162"
     inkscape:window-x="24"
     inkscape:window-y="21"
     inkscape:window-maximized="0"
     inkscape:current-layer="svg73"
     inkscape:document-rotation="0"
     inkscape:pagecheckerboard="0"
     inkscape:showpageshadow="2"
     inkscape:deskcolor="#d1d1d1" />
  <defs
     id="defs29">
    <linearGradient
       id="linearGradient4"
       inkscape:collect="always">
      <stop
         style="stop-color:#ac5eac;stop-opacity:1;"
         offset="0"
         id="stop4" />
      <stop
         style="stop-color:#c181c1;stop-opacity:1;"
         offset="0.5"
         id="stop1" />
    </linearGradient>
    <linearGradient
       id="linearGradient2"
       inkscape:collect="always">
      <stop
         style="stop-color:#f4ecf4;stop-opacity:1;"
         offset="0"
         id="stop2" />
      <stop
         style="stop-color:#e9d8e9;stop-opacity:1;"
         offset="1"
         id="stop3" />
    </linearGradient>
    <linearGradient
       inkscape:collect="always"
       xlink:href="#linearGradient2"
       id="linearGradient8"
       x1="31.721739"
       y1="5.2278585"
       x2="31.88887"
       y2="59.145416"
       gradientUnits="userSpaceOnUse"
       gradientTransform="matrix(0.8505,0,0,0.8505,4.7765033,4.7794869)" />
    <filter
       style="color-interpolation-filters:sRGB;"
       inkscape:label="Blur"
       id="filter9"
       x="-0.047762285"
       y="-0.047489063"
       width="1.0955246"
       height="1.0949781">
      <feGaussianBlur
         stdDeviation="1 1"
         result="blur"
         id="feGaussianBlur9" />
    </filter>
    <linearGradient
       inkscape:collect="always"
       xlink:href="#linearGradient4"
       id="linearGradient7"
       x1="26.723248"
       y1="58.711765"
       x2="25.756926"
       y2="5.950614"
       gradientUnits="userSpaceOnUse" />
    <filter
       style="color-interpolation-filters:sRGB;"
       inkscape:label="Out of Focus"
       id="filter40"
       x="-0.24226652"
       y="-0.2858297"
       width="1.484533"
       height="1.5716594">
      <feFlood
         flood-opacity="1"
         flood-color="rgb(255,255,255)"
         result="flood"
         id="feFlood38" />
      <feColorMatrix
         in="SourceGraphic"
         values="1 0 0 0 0 0 1 0 0 0 0 0 1 0 0 -0.2125 -0.7154 -0.0721 1 0 "
         result="colormatrix1"
         id="feColorMatrix38" />
      <feGaussianBlur
         in="colormatrix1"
         stdDeviation="3 3"
         result="blur"
         id="feGaussianBlur38" />
      <feColorMatrix
         in="blur"
         values="1 0 0 0 0 0 1 0 0 0 0 0 1 0 0 0 0 0 6 -2 "
         result="colormatrix2"
         id="feColorMatrix39" />
      <feBlend
         in="colormatrix2"
         in2="flood"
         mode="normal"
         result="blend"
         id="feBlend39" />
      <feComposite
         in="blend"
         in2="blend"
         operator="arithmetic"
         k2="0.2"
         result="composite1"
         id="feComposite39" />
      <feComposite
         in2="SourceGraphic"
         operator="in"
         id="feComposite40" />
    </filter>
  </defs>
  <g
     id="g877"
     transform="matrix(1.1,0,0,1.1,-3.1845928,-3.2065454)">
    <ellipse
       style="opacity:0.5;fill:#000000;stroke:none;stroke-width:3.89319;stroke-dasharray:none;stroke-opacity:1;filter:url(#filter9)"
       id="path2-5"
       cx="31.949858"
       cy="31.969812"
       rx="25.124426"
       ry="25.268976"
       transform="matrix(1.05,0,0,1.05,-1.5974929,-1.5984906)" />
    <path
       style="fill:#f5f7fa;stroke-width:0.204426;fill-opacity:1"
       d=""
       id="path3" />
    <circle
       style="opacity:1;fill:url(#linearGradient8);stroke:url(#linearGradient7);stroke-width:3.81818;stroke-dasharray:none;stroke-opacity:1"
       id="path2"
       cx="31.949856"
       cy="31.969812"
       r="24.711082" />
    <ellipse
       style="opacity:0.3;fill:none;stroke:#000000;stroke-width:0.974376;stroke-dasharray:none;stroke-opacity:1"
       id="path2-9"
       cx="31.949856"
       cy="31.969812"
       rx="23.129124"
       ry="23.129126" />
  </g>
  <path
     id="path100-7"
     style="fill:#000000;fill-opacity:1;stroke:none;stroke-width:0.48139;stroke-dasharray:none;stroke-opacity:0.6;opacity:0.2"
     d="m 41.170218,19.111183 c -0.339856,0.01681 -0.703127,0.291489 -1.359548,0.880039 -0.533786,0.478598 -5.507015,5.41147 -11.051278,10.961015 l -10.080974,10.088499 3.221174,3.166636 c 1.771452,1.741468 3.249619,3.166648 3.285108,3.166648 0.07856,0 11.685491,-11.635166 16.269459,-16.308955 3.548372,-3.61789 4.814728,-5.002816 5.253918,-5.752231 0.261581,-0.446342 0.267565,-0.492488 0.112851,-0.816107 -0.306339,-0.640694 -3.688777,-4.172218 -4.774424,-4.985013 -0.361795,-0.270884 -0.611962,-0.413606 -0.876286,-0.400531 z m -6.380293,7.123062 2.211384,2.134284 c 1.216433,1.173917 2.221348,2.167333 2.233948,2.207623 l 0.002,0.002 c 0.0047,0.04727 -0.101893,0.222549 -0.242595,0.394892 l -0.263251,0.323434 -0.57164,-0.56225 -0.569778,-0.564128 -0.522753,0.592336 c -0.287179,0.326046 -0.652987,0.659484 -0.812347,0.740887 -0.364386,0.186136 -0.849195,0.265872 -1.248605,0.204967 -0.201624,-0.03074 -0.623346,-0.349951 -1.216636,-0.91953 -1.501321,-1.441327 -1.492761,-1.985232 0.05454,-3.580335 z m 0.03194,1.27681 -0.592335,0.61302 c -0.832617,0.86238 -0.817163,1.078965 0.13918,1.987612 0.946184,0.898995 1.128039,0.909951 1.957525,0.109076 l 0.613021,-0.592337 -1.058683,-1.05868 z m -3.809719,2.596871 2.232067,2.15121 c 1.22832,1.182534 2.233951,2.208703 2.233951,2.280959 0,0.07224 -0.122637,0.24643 -0.272663,0.387369 l -0.272664,0.255739 -0.53968,-0.530283 -0.539684,-0.532157 -0.622423,0.607376 c -0.342149,0.333515 -0.719595,0.652725 -0.838671,0.7108 -0.274079,0.133665 -0.72384,0.231621 -0.864996,0.188045 -0.05954,-0.01838 -0.242327,-0.06351 -0.406173,-0.09968 -0.341501,-0.07533 -1.752781,-1.360249 -1.983852,-1.807091 -0.219432,-0.424342 -0.192986,-1.167809 0.05454,-1.555114 0.11415,-0.178609 0.570124,-0.714011 1.013552,-1.190309 z m -0.004,1.305017 -0.579171,0.646868 c -0.362056,0.404555 -0.579054,0.744279 -0.579175,0.908246 -1.33e-4,0.179845 0.232124,0.495381 0.73901,1.002269 0.964935,0.964936 1.1439,0.974973 2.000774,0.109064 l 0.624302,-0.631822 -1.103811,-1.017312 z m -3.659315,3.333998 c 0.581297,-0.01666 1.028196,0.310867 2.141808,1.399039 l 1.231681,1.203476 -0.325316,0.327195 -0.327195,0.325313 -1.229799,-1.212875 c -0.834191,-0.823038 -1.308867,-1.214759 -1.474252,-1.214759 -0.152323,0 -0.494316,0.245375 -0.910127,0.652511 l -0.665671,0.652508 1.391516,1.323821 1.389639,1.32194 -0.235054,0.298976 c -0.129273,0.163705 -0.292819,0.295938 -0.362922,0.293326 -0.07009,-0.0024 -0.882385,-0.73155 -1.805214,-1.619018 l -1.677296,-1.613403 0.981583,-0.987226 c 0.799869,-0.803761 1.068116,-1.00658 1.442287,-1.09065 0.158094,-0.03551 0.300234,-0.05634 0.434383,-0.06017 z M 17.07605,43.000137 v 2.944754 2.944751 h 2.769869 c 1.625079,0 2.753436,-0.04165 2.732262,-0.09968 -0.03958,-0.108471 -4.348716,-4.673496 -5.06023,-5.361073 z" />
  <path
     id="path100"
     style="fill:#4d4d4d;fill-opacity:1;stroke:none;stroke-width:0.48139;stroke-dasharray:none;stroke-opacity:0.6"
     d="m 41.170218,17.111183 c -0.339856,0.01681 -0.703127,0.291489 -1.359548,0.880039 -0.533786,0.478598 -5.507015,5.41147 -11.051278,10.961015 l -10.080974,10.088499 3.221174,3.166636 c 1.771452,1.741468 3.249619,3.166648 3.285108,3.166648 0.07856,0 11.685491,-11.635166 16.269459,-16.308955 3.548372,-3.61789 4.814728,-5.002816 5.253918,-5.752231 0.261581,-0.446342 0.267565,-0.492488 0.112851,-0.816107 -0.306339,-0.640694 -3.688777,-4.172218 -4.774424,-4.985013 -0.361795,-0.270884 -0.611962,-0.413606 -0.876286,-0.400531 z m -6.380293,7.123062 2.211384,2.134284 c 1.216433,1.173917 2.221348,2.167333 2.233948,2.207623 l 0.002,0.002 c 0.0047,0.04727 -0.101893,0.222549 -0.242595,0.394892 l -0.263251,0.323434 -0.57164,-0.56225 -0.569778,-0.564128 -0.522753,0.592336 c -0.287179,0.326046 -0.652987,0.659484 -0.812347,0.740887 -0.364386,0.186136 -0.849195,0.265872 -1.248605,0.204967 -0.201624,-0.03074 -0.623346,-0.349951 -1.216636,-0.91953 -1.501321,-1.441327 -1.492761,-1.985232 0.05454,-3.580335 z m 0.03194,1.27681 -0.592335,0.61302 c -0.832617,0.86238 -0.817163,1.078965 0.13918,1.987612 0.946184,0.898995 1.128039,0.909951 1.957525,0.109076 l 0.613021,-0.592337 -1.058683,-1.05868 z m -3.809719,2.596871 2.232067,2.15121 c 1.22832,1.182534 2.233951,2.208703 2.233951,2.280959 0,0.07224 -0.122637,0.24643 -0.272663,0.387369 l -0.272664,0.255739 -0.53968,-0.530283 -0.539684,-0.532157 -0.622423,0.607376 c -0.342149,0.333515 -0.719595,0.652725 -0.838671,0.7108 -0.274079,0.133665 -0.72384,0.231621 -0.864996,0.188045 -0.05954,-0.01838 -0.242327,-0.06351 -0.406173,-0.09968 -0.341501,-0.07533 -1.752781,-1.360249 -1.983852,-1.807091 -0.219432,-0.424342 -0.192986,-1.167809 0.05454,-1.555114 0.11415,-0.178609 0.570124,-0.714011 1.013552,-1.190309 z m -0.004,1.305017 -0.579171,0.646868 c -0.362056,0.404555 -0.579054,0.744279 -0.579175,0.908246 -1.33e-4,0.179845 0.232124,0.495381 0.73901,1.002269 0.964935,0.964936 1.1439,0.974973 2.000774,0.109064 l 0.624302,-0.631822 -1.103811,-1.017312 z m -3.659315,3.333998 c 0.581297,-0.01666 1.028196,0.310867 2.141808,1.399039 l 1.231681,1.203476 -0.325316,0.327195 -0.327195,0.325313 -1.229799,-1.212875 c -0.834191,-0.823038 -1.308867,-1.214759 -1.474252,-1.214759 -0.152323,0 -0.494316,0.245375 -0.910127,0.652511 l -0.665671,0.652508 1.391516,1.323821 1.389639,1.32194 -0.235054,0.298976 c -0.129273,0.163705 -0.292819,0.295938 -0.362922,0.293326 -0.07009,-0.0024 -0.882385,-0.73155 -1.805214,-1.619018 l -1.677296,-1.613403 0.981583,-0.987226 c 0.799869,-0.803761 1.068116,-1.00658 1.442287,-1.09065 0.158094,-0.03551 0.300234,-0.05634 0.434383,-0.06017 z M 17.07605,41.000137 v 2.944754 2.944751 h 2.769869 c 1.625079,0 2.753436,-0.04165 2.732262,-0.09968 -0.03958,-0.108471 -4.348716,-4.673496 -5.06023,-5.361073 z" />
</svg>
