<?xml version="1.0" encoding="UTF-8" standalone="no"?>
<svg
   width="64"
   height="64"
   version="1.1"
   id="svg73"
   sodipodi:docname="com.system76.CosmicScreenshot.svg"
   inkscape:version="1.4.2 (ebf0e940d0, 2025-05-08)"
   xmlns:inkscape="http://www.inkscape.org/namespaces/inkscape"
   xmlns:sodipodi="http://sodipodi.sourceforge.net/DTD/sodipodi-0.dtd"
   xmlns:xlink="http://www.w3.org/1999/xlink"
   xmlns="http://www.w3.org/2000/svg"
   xmlns:svg="http://www.w3.org/2000/svg"
   xmlns:rdf="http://www.w3.org/1999/02/22-rdf-syntax-ns#"
   xmlns:cc="http://creativecommons.org/ns#"
   xmlns:dc="http://purl.org/dc/elements/1.1/">
  <metadata
     id="metadata77">
    <rdf:RDF>
      <cc:Work
         rdf:about="">
        <dc:format>image/svg+xml</dc:format>
        <dc:type
           rdf:resource="http://purl.org/dc/dcmitype/StillImage" />
      </cc:Work>
    </rdf:RDF>
  </metadata>
  <sodipodi:namedview
     pagecolor="#f5f7fa"
     bordercolor="#666666"
     borderopacity="1"
     objecttolerance="10"
     gridtolerance="10"
     guidetolerance="10"
     inkscape:pageopacity="0"
     inkscape:pageshadow="2"
     inkscape:window-width="1318"
     inkscape:window-height="753"
     id="namedview75"
     showgrid="false"
     inkscape:zoom="6.2890624"
     inkscape:cx="30.370187"
     inkscape:cy="29.734162"
     inkscape:window-x="24"
     inkscape:window-y="21"
     inkscape:window-maximized="0"
     inkscape:current-layer="svg73"
     inkscape:document-rotation="0"
     inkscape:pagecheckerboard="0"
     inkscape:showpageshadow="2"
     inkscape:deskcolor="#d1d1d1" />
  <defs
     id="defs29">
    <linearGradient
       id="linearGradient4"
       inkscape:collect="always">
      <stop
         style="stop-color:#ac5eac;stop-opacity:1;"
         offset="0"
         id="stop4" />
      <stop
         style="stop-color:#c181c1;stop-opacity:1;"
         offset="0.5"
         id="stop1" />
    </linearGradient>
    <linearGradient
       id="linearGradient2"
       inkscape:collect="always">
      <stop
         style="stop-color:#f4ecf4;stop-opacity:1;"
         offset="0"
         id="stop2" />
      <stop
         style="stop-color:#e9d8e9;stop-opacity:1;"
         offset="1"
         id="stop3" />
    </linearGradient>
    <linearGradient
       inkscape:collect="always"
       xlink:href="#linearGradient2"
       id="linearGradient8"
       x1="31.721739"
       y1="5.2278585"
       x2="31.88887"
       y2="59.145416"
       gradientUnits="userSpaceOnUse"
       gradientTransform="matrix(0.8505,0,0,0.8505,4.7765033,4.7794869)" />
    <filter
       style="color-interpolation-filters:sRGB;"
       inkscape:label="Blur"
       id="filter9"
       x="-0.047762285"
       y="-0.047489063"
       width="1.0955246"
       height="1.0949781">
      <feGaussianBlur
         stdDeviation="1 1"
         result="blur"
         id="feGaussianBlur9" />
    </filter>
    <linearGradient
       inkscape:collect="always"
       xlink:href="#linearGradient4"
       id="linearGradient7"
       x1="26.723248"
       y1="58.711765"
       x2="25.756926"
       y2="5.950614"
       gradientUnits="userSpaceOnUse" />
    <filter
       style="color-interpolation-filters:sRGB;"
       inkscape:label="Out of Focus"
       id="filter40"
       x="-0.24226652"
       y="-0.2858297"
       width="1.484533"
       height="1.5716594">
      <feFlood
         flood-opacity="1"
         flood-color="rgb(255,255,255)"
         result="flood"
         id="feFlood38" />
      <feColorMatrix
         in="SourceGraphic"
         values="1 0 0 0 0 0 1 0 0 0 0 0 1 0 0 -0.2125 -0.7154 -0.0721 1 0 "
         result="colormatrix1"
         id="feColorMatrix38" />
      <feGaussianBlur
         in="colormatrix1"
         stdDeviation="3 3"
         result="blur"
         id="feGaussianBlur38" />
      <feColorMatrix
         in="blur"
         values="1 0 0 0 0 0 1 0 0 0 0 0 1 0 0 0 0 0 6 -2 "
         result="colormatrix2"
         id="feColorMatrix39" />
      <feBlend
         in="colormatrix2"
         in2="flood"
         mode="normal"
         result="blend"
         id="feBlend39" />
      <feComposite
         in="blend"
         in2="blend"
         operator="arithmetic"
         k2="0.2"
         result="composite1"
         id="feComposite39" />
      <feComposite
         in2="SourceGraphic"
         operator="in"
         id="feComposite40" />
    </filter>
  </defs>
  <g
     id="g877"
     transform="matrix(1.1,0,0,1.1,-3.1845928,-3.2065454)">
    <ellipse
       style="opacity:0.5;fill:#000000;stroke:none;stroke-width:3.89319;stroke-dasharray:none;stroke-opacity:1;filter:url(#filter9)"
       id="path2-5"
       cx="31.949858"
       cy="31.969812"
       rx="25.124426"
       ry="25.268976"
       transform="matrix(1.05,0,0,1.05,-1.5974929,-1.5984906)" />
    <path
       style="fill:#f5f7fa;stroke-width:0.204426;fill-opacity:1"
       d=""
       id="path3" />
    <circle
       style="opacity:1;fill:url(#linearGradient8);stroke:url(#linearGradient7);stroke-width:3.81818;stroke-dasharray:none;stroke-opacity:1"
       id="path2"
       cx="31.949856"
       cy="31.969812"
       r="24.711082" />
    <ellipse
       style="opacity:0.3;fill:none;stroke:#000000;stroke-width:0.974376;stroke-dasharray:none;stroke-opacity:1"
       id="path2-9"
       cx="31.949856"
       cy="31.969812"
       rx="23.129124"
       ry="23.129126" />
  </g>
  <path
     id="path2-6-8"
     style="fill:#000000;fill-opacity:1;stroke:none;stroke-width:0.393866;stroke-dasharray:none;stroke-opacity:0.6;opacity:0.2"
     d="m 30.514777,18.546283 -6.090571,3.025129 c -3.833435,1.903173 -6.20609,3.195156 -6.399042,3.486082 -0.645341,0.973006 -0.279746,1.235687 6.193976,4.464084 3.327978,1.659633 6.348847,3.060011 6.714525,3.11101 2.009696,0.280266 2.6185,0.07293 8.83877,-3.007602 3.274057,-1.621452 6.111942,-3.09008 6.306155,-3.263495 0.194233,-0.173413 0.352288,-0.514097 0.352288,-0.757158 0,-0.243057 -0.15811,-0.583745 -0.352288,-0.757158 -0.194234,-0.173413 -3.059661,-1.661483 -6.367493,-3.30731 L 33.695893,18.546283 H 32.10621 Z m 10.295255,11.984838 -3.226688,1.615972 c -5.093255,2.550376 -5.959732,2.551592 -11.087467,0.02453 L 23.209596,30.55214 20.60336,31.859641 c -1.481233,0.742245 -2.704642,1.48779 -2.832336,1.726393 -0.506432,0.946273 0.30551,1.456987 8.884345,5.584039 l 3.93477,1.892895 1.649277,-0.0614 1.647519,-0.0614 5.959116,-2.967282 c 6.455768,-3.215324 6.923525,-3.549655 6.299156,-4.502555 -0.20801,-0.317463 -1.271057,-0.962954 -2.834105,-1.722886 z m -17.719616,8.442669 -2.646553,1.346058 c -4.255147,2.163695 -4.269147,2.137648 3.251226,5.903032 3.237562,1.621015 6.112817,3.022395 6.390278,3.114519 0.277463,0.09213 1.231112,0.1394 2.118995,0.105215 l 1.614219,-0.06137 5.750552,-2.877907 c 5.765939,-2.88608 6.660193,-3.429328 6.660193,-4.048696 0,-0.543402 -0.774016,-1.102884 -3.217926,-2.322307 l -2.310038,-1.151538 -3.552685,1.752679 -3.552686,1.75269 h -1.694846 -1.69309 l -3.557945,-1.7562 z" />
  <path
     id="path2-6"
     style="fill:#4d4d4d;fill-opacity:1;stroke:none;stroke-width:0.393866;stroke-dasharray:none;stroke-opacity:0.6"
     d="m 30.514777,16.546283 -6.090571,3.025129 c -3.833435,1.903173 -6.20609,3.195156 -6.399042,3.486082 -0.645341,0.973006 -0.279746,1.235687 6.193976,4.464084 3.327978,1.659633 6.348847,3.060011 6.714525,3.11101 2.009696,0.280266 2.6185,0.07293 8.83877,-3.007602 3.274057,-1.621452 6.111942,-3.09008 6.306155,-3.263495 0.194233,-0.173413 0.352288,-0.514097 0.352288,-0.757158 0,-0.243057 -0.15811,-0.583745 -0.352288,-0.757158 -0.194234,-0.173413 -3.059661,-1.661483 -6.367493,-3.30731 L 33.695893,16.546283 H 32.10621 Z m 10.295255,11.984838 -3.226688,1.615972 c -5.093255,2.550376 -5.959732,2.551592 -11.087467,0.02453 L 23.209596,28.55214 20.60336,29.859641 c -1.481233,0.742245 -2.704642,1.48779 -2.832336,1.726393 -0.506432,0.946273 0.30551,1.456987 8.884345,5.584039 l 3.93477,1.892895 1.649277,-0.0614 1.647519,-0.0614 5.959116,-2.967282 c 6.455768,-3.215324 6.923525,-3.549655 6.299156,-4.502555 -0.20801,-0.317463 -1.271057,-0.962954 -2.834105,-1.722886 z m -17.719616,8.442669 -2.646553,1.346058 c -4.255147,2.163695 -4.269147,2.137648 3.251226,5.903032 3.237562,1.621015 6.112817,3.022395 6.390278,3.114519 0.277463,0.09213 1.231112,0.1394 2.118995,0.105215 l 1.614219,-0.06137 5.750552,-2.877907 c 5.765939,-2.88608 6.660193,-3.429328 6.660193,-4.048696 0,-0.543402 -0.774016,-1.102884 -3.217926,-2.322307 l -2.310038,-1.151538 -3.552685,1.752679 -3.552686,1.75269 h -1.694846 -1.69309 l -3.557945,-1.7562 z" />
</svg>
