<?xml version="1.0" encoding="UTF-8" standalone="no"?>
<svg
   width="64"
   height="64"
   version="1.1"
   id="svg73"
   sodipodi:docname="abcd.svg"
   inkscape:version="1.4.2 (ebf0e940d0, 2025-05-08)"
   xmlns:inkscape="http://www.inkscape.org/namespaces/inkscape"
   xmlns:sodipodi="http://sodipodi.sourceforge.net/DTD/sodipodi-0.dtd"
   xmlns:xlink="http://www.w3.org/1999/xlink"
   xmlns="http://www.w3.org/2000/svg"
   xmlns:svg="http://www.w3.org/2000/svg"
   xmlns:rdf="http://www.w3.org/1999/02/22-rdf-syntax-ns#"
   xmlns:cc="http://creativecommons.org/ns#"
   xmlns:dc="http://purl.org/dc/elements/1.1/">
  <metadata
     id="metadata77">
    <rdf:RDF>
      <cc:Work
         rdf:about="">
        <dc:format>image/svg+xml</dc:format>
        <dc:type
           rdf:resource="http://purl.org/dc/dcmitype/StillImage" />
      </cc:Work>
    </rdf:RDF>
  </metadata>
  <sodipodi:namedview
     pagecolor="#f5f7fa"
     bordercolor="#666666"
     borderopacity="1"
     objecttolerance="10"
     gridtolerance="10"
     guidetolerance="10"
     inkscape:pageopacity="0"
     inkscape:pageshadow="2"
     inkscape:window-width="1320"
     inkscape:window-height="766"
     id="namedview75"
     showgrid="false"
     inkscape:zoom="4.4470387"
     inkscape:cx="53.518761"
     inkscape:cy="22.37444"
     inkscape:window-x="24"
     inkscape:window-y="21"
     inkscape:window-maximized="0"
     inkscape:current-layer="svg73"
     inkscape:document-rotation="0"
     inkscape:pagecheckerboard="0"
     inkscape:showpageshadow="2"
     inkscape:deskcolor="#d1d1d1" />
  <defs
     id="defs29">
    <linearGradient
       id="linearGradient4"
       inkscape:collect="always">
      <stop
         style="stop-color:#ac5eac;stop-opacity:1;"
         offset="0"
         id="stop4" />
      <stop
         style="stop-color:#c181c1;stop-opacity:1;"
         offset="0.5"
         id="stop1" />
    </linearGradient>
    <linearGradient
       id="linearGradient2"
       inkscape:collect="always">
      <stop
         style="stop-color:#f4ecf4;stop-opacity:1;"
         offset="0"
         id="stop2" />
      <stop
         style="stop-color:#e9d8e9;stop-opacity:1;"
         offset="1"
         id="stop3" />
    </linearGradient>
    <linearGradient
       inkscape:collect="always"
       xlink:href="#linearGradient2"
       id="linearGradient8"
       x1="31.721739"
       y1="5.2278585"
       x2="31.88887"
       y2="59.145416"
       gradientUnits="userSpaceOnUse"
       gradientTransform="matrix(0.8505,0,0,0.8505,4.7765033,4.7794869)" />
    <filter
       style="color-interpolation-filters:sRGB;"
       inkscape:label="Blur"
       id="filter9"
       x="-0.047762285"
       y="-0.047489063"
       width="1.0955246"
       height="1.0949781">
      <feGaussianBlur
         stdDeviation="1 1"
         result="blur"
         id="feGaussianBlur9" />
    </filter>
    <linearGradient
       inkscape:collect="always"
       xlink:href="#linearGradient4"
       id="linearGradient7"
       x1="26.723248"
       y1="58.711765"
       x2="25.756926"
       y2="5.950614"
       gradientUnits="userSpaceOnUse" />
    <filter
       style="color-interpolation-filters:sRGB;"
       inkscape:label="Out of Focus"
       id="filter40"
       x="-0.24226652"
       y="-0.2858297"
       width="1.484533"
       height="1.5716594">
      <feFlood
         flood-opacity="1"
         flood-color="rgb(255,255,255)"
         result="flood"
         id="feFlood38" />
      <feColorMatrix
         in="SourceGraphic"
         values="1 0 0 0 0 0 1 0 0 0 0 0 1 0 0 -0.2125 -0.7154 -0.0721 1 0 "
         result="colormatrix1"
         id="feColorMatrix38" />
      <feGaussianBlur
         in="colormatrix1"
         stdDeviation="3 3"
         result="blur"
         id="feGaussianBlur38" />
      <feColorMatrix
         in="blur"
         values="1 0 0 0 0 0 1 0 0 0 0 0 1 0 0 0 0 0 6 -2 "
         result="colormatrix2"
         id="feColorMatrix39" />
      <feBlend
         in="colormatrix2"
         in2="flood"
         mode="normal"
         result="blend"
         id="feBlend39" />
      <feComposite
         in="blend"
         in2="blend"
         operator="arithmetic"
         k2="0.2"
         result="composite1"
         id="feComposite39" />
      <feComposite
         in2="SourceGraphic"
         operator="in"
         id="feComposite40" />
    </filter>
  </defs>
  <g
     id="g877"
     transform="matrix(1.1,0,0,1.1,-3.1845928,-3.2065454)">
    <ellipse
       style="opacity:0.5;fill:#000000;stroke:none;stroke-width:3.89319;stroke-dasharray:none;stroke-opacity:1;filter:url(#filter9)"
       id="path2-5"
       cx="31.949858"
       cy="31.969812"
       rx="25.124426"
       ry="25.268976"
       transform="matrix(1.05,0,0,1.05,-1.5974929,-1.5984906)" />
    <path
       style="fill:#f5f7fa;stroke-width:0.204426;fill-opacity:1"
       d=""
       id="path3" />
    <circle
       style="opacity:1;fill:url(#linearGradient8);stroke:url(#linearGradient7);stroke-width:3.81818;stroke-dasharray:none;stroke-opacity:1"
       id="path2"
       cx="31.949856"
       cy="31.969812"
       r="24.711082" />
    <ellipse
       style="opacity:0.3;fill:none;stroke:#000000;stroke-width:0.974376;stroke-dasharray:none;stroke-opacity:1"
       id="path2-9"
       cx="31.949856"
       cy="31.969812"
       rx="23.129124"
       ry="23.129126" />
  </g>
  <path
     style="fill:#000000;fill-opacity:1;stroke:none;stroke-width:0.515722;stroke-dasharray:none;stroke-opacity:0.6;opacity:0.2"
     d="M 25.658209,45.741384 23.711945,43.511801 H 20.98448 c -1.780446,0 -2.847844,-0.03626 -3.074165,-0.103851 -0.487167,-0.145944 -0.961695,-0.566522 -1.224601,-1.085346 L 16.461337,41.879788 V 31.77249 c 0,-10.998666 -0.02839,-10.371651 0.500858,-11.06552 0.122224,-0.160236 0.401909,-0.378328 0.621527,-0.484642 l 0.399308,-0.193306 14.019511,0.0014 c 8.528232,8.18e-4 14.107664,0.03485 14.244563,0.08689 0.348664,0.132573 0.872253,0.633261 1.092402,1.044671 l 0.199423,0.372626 v 10.192337 10.192349 l -0.196801,0.363997 c -0.108229,0.200238 -0.333634,0.495366 -0.500857,0.655903 -0.614913,0.590275 -0.36209,0.572639 -8.21173,0.572639 h -7.111933 l -1.946264,2.229579 c -1.070445,1.226264 -1.950901,2.229575 -1.956566,2.229575 -0.0058,0 -0.886124,-1.003311 -1.956569,-2.229575 z m 20.292174,-2.775216 c 0.177379,-0.04926 0.451748,-0.223098 0.609661,-0.386256 0.604125,-0.624197 0.569399,0.03402 0.568835,-10.781839 -3.31e-4,-6.466319 -0.0326,-9.923827 -0.09452,-10.146944 -0.05172,-0.186142 -0.19967,-0.464033 -0.328814,-0.617538 -0.485363,-0.576842 0.01311,-0.545573 -8.696119,-0.545573 h -7.946014 l -0.6097,0.35629 c -1.327629,0.775822 -2.596455,1.953942 -3.397821,3.154917 -0.572544,0.85805 -0.864235,1.486055 -1.195266,2.573392 -0.211472,0.69462 -0.239867,0.945043 -0.243926,2.151182 -0.0058,1.646391 0.102058,2.117168 0.811144,3.549124 1.022636,2.065136 2.788495,3.53391 4.820464,4.00948 0.938628,0.21968 2.423991,0.145309 3.304032,-0.165427 2.770524,-0.978255 4.137894,-3.737988 3.031977,-6.119392 -0.30221,-0.650768 -0.934717,-1.312025 -1.533778,-1.603498 -0.571932,-0.278269 -1.484791,-0.335499 -2.098751,-0.131572 -1.347458,0.447553 -1.90087,2.013326 -1.022176,2.892024 0.299564,0.299562 0.40005,0.344857 0.765082,0.344857 0.235086,0 0.420216,-0.04244 0.420216,-0.09639 0,-0.05301 -0.04176,-0.07057 -0.09277,-0.03904 -0.05104,0.03154 -0.23965,0.0088 -0.419158,-0.05038 -0.255434,-0.08429 -0.364754,-0.19446 -0.502903,-0.506772 -0.449451,-1.016055 0.417386,-2.156647 1.523773,-2.005 0.727068,0.09965 1.285481,0.47895 1.595654,1.083822 0.580082,1.13123 0.288742,2.609186 -0.692656,3.513805 -1.080054,0.995562 -2.54539,1.148854 -4.021681,0.420724 -2.390608,-1.179093 -3.230547,-4.129819 -1.942901,-6.825456 0.658248,-1.378013 1.604792,-2.310621 3.051103,-3.006173 1.108104,-0.532904 2.044193,-0.715378 3.357686,-0.654517 2.165101,0.10032 3.845064,0.860067 5.478583,2.477651 1.898531,1.88001 2.763566,3.987019 2.764746,6.734232 5.45e-4,1.340167 -0.0818,1.959349 -0.413586,3.109376 -0.503567,1.745346 -1.493705,3.504129 -2.715853,4.824167 -0.489575,0.528787 -1.521009,1.388937 -2.920385,2.435418 -0.162437,0.121491 0.283098,0.13634 4.14064,0.138466 2.565749,0.0015 4.453743,-0.03403 4.645203,-0.08726 z"
     id="path8-1-2" />
  <path
     style="fill:#4d4d4d;fill-opacity:1;stroke:none;stroke-width:0.515722;stroke-dasharray:none;stroke-opacity:0.6"
     d="M 25.658209,43.741384 23.711945,41.511801 H 20.98448 c -1.780446,0 -2.847844,-0.03626 -3.074165,-0.103851 -0.487167,-0.145944 -0.961695,-0.566522 -1.224601,-1.085346 L 16.461337,39.879788 V 29.77249 c 0,-10.998666 -0.02839,-10.371651 0.500858,-11.06552 0.122224,-0.160236 0.401909,-0.378328 0.621527,-0.484642 l 0.399308,-0.193306 14.019511,0.0014 c 8.528232,8.18e-4 14.107664,0.03485 14.244563,0.08689 0.348664,0.132573 0.872253,0.633261 1.092402,1.044671 l 0.199423,0.372626 v 10.192337 10.192349 l -0.196801,0.363997 c -0.108229,0.200238 -0.333634,0.495366 -0.500857,0.655903 -0.614913,0.590275 -0.36209,0.572639 -8.21173,0.572639 h -7.111933 l -1.946264,2.229579 c -1.070445,1.226264 -1.950901,2.229575 -1.956566,2.229575 -0.0058,0 -0.886124,-1.003311 -1.956569,-2.229575 z m 20.292174,-2.775216 c 0.177379,-0.04926 0.451748,-0.223098 0.609661,-0.386256 0.604125,-0.624197 0.569399,0.03402 0.568835,-10.781839 -3.31e-4,-6.466319 -0.0326,-9.923827 -0.09452,-10.146944 -0.05172,-0.186142 -0.19967,-0.464033 -0.328814,-0.617538 -0.485363,-0.576842 0.01311,-0.545573 -8.696119,-0.545573 h -7.946014 l -0.6097,0.35629 c -1.327629,0.775822 -2.596455,1.953942 -3.397821,3.154917 -0.572544,0.85805 -0.864235,1.486055 -1.195266,2.573392 -0.211472,0.69462 -0.239867,0.945043 -0.243926,2.151182 -0.0058,1.646391 0.102058,2.117168 0.811144,3.549124 1.022636,2.065136 2.788495,3.53391 4.820464,4.00948 0.938628,0.21968 2.423991,0.145309 3.304032,-0.165427 2.770524,-0.978255 4.137894,-3.737988 3.031977,-6.119392 -0.30221,-0.650768 -0.934717,-1.312025 -1.533778,-1.603498 -0.571932,-0.278269 -1.484791,-0.335499 -2.098751,-0.131572 -1.347458,0.447553 -1.90087,2.013326 -1.022176,2.892024 0.299564,0.299562 0.40005,0.344857 0.765082,0.344857 0.235086,0 0.420216,-0.04244 0.420216,-0.09639 0,-0.05301 -0.04176,-0.07057 -0.09277,-0.03904 -0.05104,0.03154 -0.23965,0.0088 -0.419158,-0.05038 -0.255434,-0.08429 -0.364754,-0.19446 -0.502903,-0.506772 -0.449451,-1.016055 0.417386,-2.156647 1.523773,-2.005 0.727068,0.09965 1.285481,0.47895 1.595654,1.083822 0.580082,1.13123 0.288742,2.609186 -0.692656,3.513805 -1.080054,0.995562 -2.54539,1.148854 -4.021681,0.420724 -2.390608,-1.179093 -3.230547,-4.129819 -1.942901,-6.825456 0.658248,-1.378013 1.604792,-2.310621 3.051103,-3.006173 1.108104,-0.532904 2.044193,-0.715378 3.357686,-0.654517 2.165101,0.10032 3.845064,0.860067 5.478583,2.477651 1.898531,1.88001 2.763566,3.987019 2.764746,6.734232 5.45e-4,1.340167 -0.0818,1.959349 -0.413586,3.109376 -0.503567,1.745346 -1.493705,3.504129 -2.715853,4.824167 -0.489575,0.528787 -1.521009,1.388937 -2.920385,2.435418 -0.162437,0.121491 0.283098,0.13634 4.14064,0.138466 2.565749,0.0015 4.453743,-0.03403 4.645203,-0.08726 z"
     id="path8-1" />
</svg>
