<?xml version="1.0" encoding="UTF-8" standalone="no"?>
<svg
   width="64"
   height="64"
   version="1.1"
   id="svg73"
   sodipodi:docname="abcd.svg"
   inkscape:version="1.4.2 (ebf0e940d0, 2025-05-08)"
   xmlns:inkscape="http://www.inkscape.org/namespaces/inkscape"
   xmlns:sodipodi="http://sodipodi.sourceforge.net/DTD/sodipodi-0.dtd"
   xmlns:xlink="http://www.w3.org/1999/xlink"
   xmlns="http://www.w3.org/2000/svg"
   xmlns:svg="http://www.w3.org/2000/svg"
   xmlns:rdf="http://www.w3.org/1999/02/22-rdf-syntax-ns#"
   xmlns:cc="http://creativecommons.org/ns#"
   xmlns:dc="http://purl.org/dc/elements/1.1/">
  <metadata
     id="metadata77">
    <rdf:RDF>
      <cc:Work
         rdf:about="">
        <dc:format>image/svg+xml</dc:format>
        <dc:type
           rdf:resource="http://purl.org/dc/dcmitype/StillImage" />
      </cc:Work>
    </rdf:RDF>
  </metadata>
  <sodipodi:namedview
     pagecolor="#f5f7fa"
     bordercolor="#666666"
     borderopacity="1"
     objecttolerance="10"
     gridtolerance="10"
     guidetolerance="10"
     inkscape:pageopacity="0"
     inkscape:pageshadow="2"
     inkscape:window-width="1920"
     inkscape:window-height="931"
     id="namedview75"
     showgrid="false"
     inkscape:zoom="6.2890624"
     inkscape:cx="53.426088"
     inkscape:cy="29.734162"
     inkscape:window-x="0"
     inkscape:window-y="0"
     inkscape:window-maximized="1"
     inkscape:current-layer="svg73"
     inkscape:document-rotation="0"
     inkscape:pagecheckerboard="0"
     inkscape:showpageshadow="2"
     inkscape:deskcolor="#d1d1d1" />
  <defs
     id="defs29">
    <linearGradient
       id="linearGradient4"
       inkscape:collect="always">
      <stop
         style="stop-color:#ac5eac;stop-opacity:1;"
         offset="0"
         id="stop4" />
      <stop
         style="stop-color:#c181c1;stop-opacity:1;"
         offset="0.5"
         id="stop1" />
    </linearGradient>
    <linearGradient
       id="linearGradient2"
       inkscape:collect="always">
      <stop
         style="stop-color:#f4ecf4;stop-opacity:1;"
         offset="0"
         id="stop2" />
      <stop
         style="stop-color:#e9d8e9;stop-opacity:1;"
         offset="1"
         id="stop3" />
    </linearGradient>
    <linearGradient
       inkscape:collect="always"
       xlink:href="#linearGradient2"
       id="linearGradient8"
       x1="31.721739"
       y1="5.2278585"
       x2="31.88887"
       y2="59.145416"
       gradientUnits="userSpaceOnUse"
       gradientTransform="matrix(0.8505,0,0,0.8505,4.7765033,4.7794869)" />
    <filter
       style="color-interpolation-filters:sRGB;"
       inkscape:label="Blur"
       id="filter9"
       x="-0.047762285"
       y="-0.047489063"
       width="1.0955246"
       height="1.0949781">
      <feGaussianBlur
         stdDeviation="1 1"
         result="blur"
         id="feGaussianBlur9" />
    </filter>
    <linearGradient
       inkscape:collect="always"
       xlink:href="#linearGradient4"
       id="linearGradient7"
       x1="26.723248"
       y1="58.711765"
       x2="25.756926"
       y2="5.950614"
       gradientUnits="userSpaceOnUse" />
    <filter
       style="color-interpolation-filters:sRGB;"
       inkscape:label="Out of Focus"
       id="filter40"
       x="-0.24226652"
       y="-0.2858297"
       width="1.484533"
       height="1.5716594">
      <feFlood
         flood-opacity="1"
         flood-color="rgb(255,255,255)"
         result="flood"
         id="feFlood38" />
      <feColorMatrix
         in="SourceGraphic"
         values="1 0 0 0 0 0 1 0 0 0 0 0 1 0 0 -0.2125 -0.7154 -0.0721 1 0 "
         result="colormatrix1"
         id="feColorMatrix38" />
      <feGaussianBlur
         in="colormatrix1"
         stdDeviation="3 3"
         result="blur"
         id="feGaussianBlur38" />
      <feColorMatrix
         in="blur"
         values="1 0 0 0 0 0 1 0 0 0 0 0 1 0 0 0 0 0 6 -2 "
         result="colormatrix2"
         id="feColorMatrix39" />
      <feBlend
         in="colormatrix2"
         in2="flood"
         mode="normal"
         result="blend"
         id="feBlend39" />
      <feComposite
         in="blend"
         in2="blend"
         operator="arithmetic"
         k2="0.2"
         result="composite1"
         id="feComposite39" />
      <feComposite
         in2="SourceGraphic"
         operator="in"
         id="feComposite40" />
    </filter>
  </defs>
  <g
     id="g877"
     transform="matrix(1.1,0,0,1.1,-3.1845928,-3.2065454)">
    <ellipse
       style="opacity:0.5;fill:#000000;stroke:none;stroke-width:3.89319;stroke-dasharray:none;stroke-opacity:1;filter:url(#filter9)"
       id="path2-5"
       cx="31.949858"
       cy="31.969812"
       rx="25.124426"
       ry="25.268976"
       transform="matrix(1.05,0,0,1.05,-1.5974929,-1.5984906)" />
    <path
       style="fill:#f5f7fa;stroke-width:0.204426;fill-opacity:1"
       d=""
       id="path3" />
    <circle
       style="opacity:1;fill:url(#linearGradient8);stroke:url(#linearGradient7);stroke-width:3.81818;stroke-dasharray:none;stroke-opacity:1"
       id="path2"
       cx="31.949856"
       cy="31.969812"
       r="24.711082" />
    <ellipse
       style="opacity:0.3;fill:none;stroke:#000000;stroke-width:0.974376;stroke-dasharray:none;stroke-opacity:1"
       id="path2-9"
       cx="31.949856"
       cy="31.969812"
       rx="23.129124"
       ry="23.129126" />
  </g>
  <path
     style="fill:#000000;fill-opacity:1;stroke:none;stroke-width:0.495;stroke-dasharray:none;stroke-opacity:0.6;opacity:0.2"
     d="m 21.752646,42.316789 c 0.264281,-0.293561 3.110896,-3.731291 3.110896,-3.756893 0,-0.01582 -1.013484,-0.0284 -2.252186,-0.0284 -1.238704,0 -2.252188,-0.01337 -2.252188,-0.02959 0,-0.02317 0.588461,-2.002067 0.737494,-2.480331 0.02786,-0.08945 -0.106656,-0.09498 -2.308689,-0.09498 h -2.338284 l 0.03786,-0.149247 c 0.02082,-0.08209 0.45627,-1.822116 0.967657,-3.866723 l 0.929796,-3.717467 0.93281,-0.01486 c 0.622313,-0.0099 0.932811,0.0041 0.932811,0.04191 0,0.0312 -0.207581,0.885996 -0.461291,1.899521 -0.253708,1.013532 -0.461291,1.86774 -0.461291,1.898246 0,0.03641 0.508373,0.05546 1.480439,0.05546 h 1.480438 l 0.322431,-1.302482 0.322435,-1.302468 h 2.592966 c 1.426129,0 2.592962,-0.01245 2.592962,-0.02772 0,-0.01524 -0.557118,-0.863885 -1.238042,-1.885867 -0.680924,-1.021968 -1.256266,-1.888663 -1.278538,-1.925973 -0.03176,-0.0532 0.159172,-0.06785 0.884917,-0.06785 h 0.925413 l 1.303217,1.953706 1.303215,1.953704 h 1.980095 1.980093 l 1.303215,-1.953705 1.303216,-1.953707 h 0.925415 c 0.725747,0 0.916678,0.01463 0.884916,0.06785 -0.02245,0.0373 -0.597617,0.904004 -1.278538,1.925987 -0.680924,1.021982 -1.238043,1.870624 -1.238043,1.885868 0,0.01524 1.166834,0.02772 2.592968,0.02772 h 2.592963 l 0.322476,1.302471 0.322442,1.302469 h 1.480432 c 0.972067,0 1.480443,-0.01902 1.480443,-0.05546 0,-0.03048 -0.207603,-0.884713 -0.461288,-1.898239 -0.253729,-1.013535 -0.461331,-1.868318 -0.461331,-1.89953 0,-0.03786 0.310503,-0.05181 0.932812,-0.0419 l 0.932809,0.01487 0.929798,3.717466 c 0.511386,2.044607 0.946833,3.784625 0.967658,3.866708 l 0.03786,0.149243 H 45.21202 c -2.202025,0 -2.336553,0.0055 -2.308688,0.09497 0.149027,0.478262 0.737496,2.457368 0.737496,2.480331 0,0.01609 -1.013485,0.02959 -2.252185,0.02959 -1.238708,0 -2.252187,0.01281 -2.252187,0.0284 0,0.02565 2.84662,3.463342 3.11089,3.756897 l 0.109945,0.122085 H 40.44876 38.540233 l -1.303232,-1.953684 -1.303216,-1.953704 h -3.925649 -3.925644 l -1.297427,1.952292 -1.297428,1.952294 -1.922462,0.0015 -1.922463,0.0014 z m 6.367071,-9.293666 v -1.655221 h -1.655223 -1.655222 v 1.655221 1.655222 h 1.655222 1.655223 z m 11.070996,0 v -1.655221 h -1.655225 -1.655221 v 1.655221 1.655222 h 1.655221 1.655225 z"
     id="path1526-6" />
  <path
     style="fill:#4d4d4d;fill-opacity:1;stroke:none;stroke-width:0.495;stroke-dasharray:none;stroke-opacity:0.6"
     d="m 21.752646,40.316789 c 0.264281,-0.293561 3.110896,-3.731291 3.110896,-3.756893 0,-0.01582 -1.013484,-0.0284 -2.252186,-0.0284 -1.238704,0 -2.252188,-0.01337 -2.252188,-0.02959 0,-0.02317 0.588461,-2.002067 0.737494,-2.480331 0.02786,-0.08945 -0.106656,-0.09498 -2.308689,-0.09498 h -2.338284 l 0.03786,-0.149247 c 0.02082,-0.08209 0.45627,-1.822116 0.967657,-3.866723 l 0.929796,-3.717467 0.93281,-0.01486 c 0.622313,-0.0099 0.932811,0.0041 0.932811,0.04191 0,0.0312 -0.207581,0.885996 -0.461291,1.899521 -0.253708,1.013532 -0.461291,1.86774 -0.461291,1.898246 0,0.03641 0.508373,0.05546 1.480439,0.05546 h 1.480438 l 0.322431,-1.302482 0.322435,-1.302468 h 2.592966 c 1.426129,0 2.592962,-0.01245 2.592962,-0.02772 0,-0.01524 -0.557118,-0.863885 -1.238042,-1.885867 -0.680924,-1.021968 -1.256266,-1.888663 -1.278538,-1.925973 -0.03176,-0.0532 0.159172,-0.06785 0.884917,-0.06785 h 0.925413 l 1.303217,1.953706 1.303215,1.953704 h 1.980095 1.980093 l 1.303215,-1.953705 1.303216,-1.953707 h 0.925415 c 0.725747,0 0.916678,0.01463 0.884916,0.06785 -0.02245,0.0373 -0.597617,0.904004 -1.278538,1.925987 -0.680924,1.021982 -1.238043,1.870624 -1.238043,1.885868 0,0.01524 1.166834,0.02772 2.592968,0.02772 h 2.592963 l 0.322476,1.302471 0.322442,1.302469 h 1.480432 c 0.972067,0 1.480443,-0.01902 1.480443,-0.05546 0,-0.03048 -0.207603,-0.884713 -0.461288,-1.898239 -0.253729,-1.013535 -0.461331,-1.868318 -0.461331,-1.89953 0,-0.03786 0.310503,-0.05181 0.932812,-0.0419 l 0.932809,0.01487 0.929798,3.717466 c 0.511386,2.044607 0.946833,3.784625 0.967658,3.866708 l 0.03786,0.149243 H 45.21202 c -2.202025,0 -2.336553,0.0055 -2.308688,0.09497 0.149027,0.478262 0.737496,2.457368 0.737496,2.480331 0,0.01609 -1.013485,0.02959 -2.252185,0.02959 -1.238708,0 -2.252187,0.01281 -2.252187,0.0284 0,0.02565 2.84662,3.463342 3.11089,3.756897 l 0.109945,0.122085 H 40.44876 38.540233 l -1.303232,-1.953684 -1.303216,-1.953704 h -3.925649 -3.925644 l -1.297427,1.952292 -1.297428,1.952294 -1.922462,0.0015 -1.922463,0.0014 z m 6.367071,-9.293666 v -1.655221 h -1.655223 -1.655222 v 1.655221 1.655222 h 1.655222 1.655223 z m 11.070996,0 v -1.655221 h -1.655225 -1.655221 v 1.655221 1.655222 h 1.655221 1.655225 z"
     id="path1526" />
</svg>
