<?xml version="1.0" encoding="UTF-8" standalone="no"?>
<svg
   width="64"
   height="64"
   version="1.1"
   id="svg73"
   sodipodi:docname="abcd.svg"
   inkscape:version="1.4.2 (ebf0e940d0, 2025-05-08)"
   xmlns:inkscape="http://www.inkscape.org/namespaces/inkscape"
   xmlns:sodipodi="http://sodipodi.sourceforge.net/DTD/sodipodi-0.dtd"
   xmlns:xlink="http://www.w3.org/1999/xlink"
   xmlns="http://www.w3.org/2000/svg"
   xmlns:svg="http://www.w3.org/2000/svg"
   xmlns:rdf="http://www.w3.org/1999/02/22-rdf-syntax-ns#"
   xmlns:cc="http://creativecommons.org/ns#"
   xmlns:dc="http://purl.org/dc/elements/1.1/">
  <metadata
     id="metadata77">
    <rdf:RDF>
      <cc:Work
         rdf:about="">
        <dc:format>image/svg+xml</dc:format>
        <dc:type
           rdf:resource="http://purl.org/dc/dcmitype/StillImage" />
      </cc:Work>
    </rdf:RDF>
  </metadata>
  <sodipodi:namedview
     pagecolor="#f5f7fa"
     bordercolor="#666666"
     borderopacity="1"
     objecttolerance="10"
     gridtolerance="10"
     guidetolerance="10"
     inkscape:pageopacity="0"
     inkscape:pageshadow="2"
     inkscape:window-width="1320"
     inkscape:window-height="766"
     id="namedview75"
     showgrid="false"
     inkscape:zoom="17.788155"
     inkscape:cx="53.518761"
     inkscape:cy="49.330581"
     inkscape:window-x="24"
     inkscape:window-y="21"
     inkscape:window-maximized="0"
     inkscape:current-layer="svg73"
     inkscape:document-rotation="0"
     inkscape:pagecheckerboard="0"
     inkscape:showpageshadow="2"
     inkscape:deskcolor="#d1d1d1" />
  <defs
     id="defs29">
    <linearGradient
       id="linearGradient4"
       inkscape:collect="always">
      <stop
         style="stop-color:#ac5eac;stop-opacity:1;"
         offset="0"
         id="stop4" />
      <stop
         style="stop-color:#c181c1;stop-opacity:1;"
         offset="0.5"
         id="stop1" />
    </linearGradient>
    <linearGradient
       id="linearGradient2"
       inkscape:collect="always">
      <stop
         style="stop-color:#f4ecf4;stop-opacity:1;"
         offset="0"
         id="stop2" />
      <stop
         style="stop-color:#e9d8e9;stop-opacity:1;"
         offset="1"
         id="stop3" />
    </linearGradient>
    <linearGradient
       inkscape:collect="always"
       xlink:href="#linearGradient2"
       id="linearGradient8"
       x1="31.721739"
       y1="5.2278585"
       x2="31.88887"
       y2="59.145416"
       gradientUnits="userSpaceOnUse"
       gradientTransform="matrix(0.8505,0,0,0.8505,4.7765033,4.7794869)" />
    <filter
       style="color-interpolation-filters:sRGB;"
       inkscape:label="Blur"
       id="filter9"
       x="-0.047762285"
       y="-0.047489063"
       width="1.0955246"
       height="1.0949781">
      <feGaussianBlur
         stdDeviation="1 1"
         result="blur"
         id="feGaussianBlur9" />
    </filter>
    <linearGradient
       inkscape:collect="always"
       xlink:href="#linearGradient4"
       id="linearGradient7"
       x1="26.723248"
       y1="58.711765"
       x2="25.756926"
       y2="5.950614"
       gradientUnits="userSpaceOnUse" />
    <filter
       style="color-interpolation-filters:sRGB;"
       inkscape:label="Out of Focus"
       id="filter40"
       x="-0.24226652"
       y="-0.2858297"
       width="1.484533"
       height="1.5716594">
      <feFlood
         flood-opacity="1"
         flood-color="rgb(255,255,255)"
         result="flood"
         id="feFlood38" />
      <feColorMatrix
         in="SourceGraphic"
         values="1 0 0 0 0 0 1 0 0 0 0 0 1 0 0 -0.2125 -0.7154 -0.0721 1 0 "
         result="colormatrix1"
         id="feColorMatrix38" />
      <feGaussianBlur
         in="colormatrix1"
         stdDeviation="3 3"
         result="blur"
         id="feGaussianBlur38" />
      <feColorMatrix
         in="blur"
         values="1 0 0 0 0 0 1 0 0 0 0 0 1 0 0 0 0 0 6 -2 "
         result="colormatrix2"
         id="feColorMatrix39" />
      <feBlend
         in="colormatrix2"
         in2="flood"
         mode="normal"
         result="blend"
         id="feBlend39" />
      <feComposite
         in="blend"
         in2="blend"
         operator="arithmetic"
         k2="0.2"
         result="composite1"
         id="feComposite39" />
      <feComposite
         in2="SourceGraphic"
         operator="in"
         id="feComposite40" />
    </filter>
  </defs>
  <g
     id="g877"
     transform="matrix(1.1,0,0,1.1,-3.1845928,-3.2065454)">
    <ellipse
       style="opacity:0.5;fill:#000000;stroke:none;stroke-width:3.89319;stroke-dasharray:none;stroke-opacity:1;filter:url(#filter9)"
       id="path2-5"
       cx="31.949858"
       cy="31.969812"
       rx="25.124426"
       ry="25.268976"
       transform="matrix(1.05,0,0,1.05,-1.5974929,-1.5984906)" />
    <path
       style="fill:#f5f7fa;stroke-width:0.204426;fill-opacity:1"
       d=""
       id="path3" />
    <circle
       style="opacity:1;fill:url(#linearGradient8);stroke:url(#linearGradient7);stroke-width:3.81818;stroke-dasharray:none;stroke-opacity:1"
       id="path2"
       cx="31.949856"
       cy="31.969812"
       r="24.711082" />
    <ellipse
       style="opacity:0.3;fill:none;stroke:#000000;stroke-width:0.974376;stroke-dasharray:none;stroke-opacity:1"
       id="path2-9"
       cx="31.949856"
       cy="31.969812"
       rx="23.129124"
       ry="23.129126" />
  </g>
  <path
     style="opacity:0.2;fill:#000000;fill-opacity:1;stroke:none;stroke-width:0.464149;stroke-dasharray:none;stroke-opacity:0.6"
     d="m 37.127946,50.104037 c -1.979558,-3.310884 -3.569486,-6.148099 -3.638745,-6.242817 -0.111225,-0.152083 -0.158527,-0.15087 -0.405047,0.01056 -0.746984,0.488812 -2.815807,0.688793 -4.329113,0.418474 -0.376922,-0.06733 -2.266167,-0.593293 -4.19832,-1.16881 l -3.513009,-1.046401 -1.716726,0.0828 c -1.251662,0.06028 -1.760986,0.04592 -1.88011,-0.05291 -0.08986,-0.07458 -0.225326,-0.412381 -0.301028,-0.750651 -0.117329,-0.524284 -0.182611,-0.624027 -0.442457,-0.675994 -0.470572,-0.09412 -0.915114,-0.507248 -1.057624,-0.982905 -0.215933,-0.720718 0.02322,-1.347153 0.800624,-2.097031 0.362193,-0.349372 0.777053,-0.828463 0.92191,-1.064641 0.466877,-0.761198 1.695153,-1.773717 2.829338,-2.332346 1.939953,-0.955491 3.947656,-1.375287 7.467858,-1.561463 2.227518,-0.11781 2.650002,-0.219468 5.124961,-1.233143 1.678558,-0.687488 3.129329,-1.103622 3.519311,-1.009463 0.485917,0.117326 0.916456,0.47562 1.244843,1.035975 l 0.303908,0.518554 0.227231,-0.381731 c 0.34507,-0.579649 1.246797,-1.468451 1.764508,-1.739194 0.271692,-0.142091 0.682339,-0.242545 0.996961,-0.243875 1.003712,-0.0042 1.486186,0.603988 1.486186,1.873608 0,0.796491 -0.257881,2.246196 -0.592018,3.327989 l -0.234438,0.759005 0.343842,0.361264 c 0.189148,0.198699 0.556499,1.65433 2.534171,4.059264 2.930056,3.563067 7.195538,6.368128 6.798551,7.356608 -0.05284,0.131574 -3.308928,1.769617 -3.308928,1.769617 -3.473683,-0.0017 -1.291184,2.058452 -1.291184,2.058452 -5.018036,3.9431 -6.360747,4.12722 -6.360747,4.12722 z"
     id="path1-9-8"
     sodipodi:nodetypes="ssssscsssssssssssscsscsscssssscs" />
  <path
     style="fill:#4d4d4d;fill-opacity:1;stroke:none;stroke-width:0.464149;stroke-dasharray:none;stroke-opacity:0.6"
     d="M 37.127946,48.104037 C 35.131415,44.80336 33.55846,41.955938 33.489201,41.86122 c -0.111225,-0.152083 -0.158527,-0.15087 -0.405047,0.01056 -0.746984,0.488812 -2.815807,0.688793 -4.329113,0.418474 -0.376922,-0.06733 -2.266167,-0.593293 -4.19832,-1.16881 l -3.513009,-1.046401 -1.716726,0.0828 c -1.251662,0.06028 -1.760986,0.04592 -1.88011,-0.05291 -0.08986,-0.07458 -0.225326,-0.412381 -0.301028,-0.750651 -0.117329,-0.524284 -0.182611,-0.624027 -0.442457,-0.675994 -0.470572,-0.09412 -0.915114,-0.507248 -1.057624,-0.982905 -0.215933,-0.720718 0.02322,-1.347153 0.800624,-2.097031 0.362193,-0.349372 0.777053,-0.828463 0.92191,-1.064641 0.466877,-0.761198 1.695153,-1.773717 2.829338,-2.332346 1.939953,-0.955491 3.947656,-1.375287 7.467858,-1.561463 2.227518,-0.11781 2.650002,-0.219468 5.124961,-1.233143 1.678558,-0.687488 3.129329,-1.103622 3.519311,-1.009463 0.485917,0.117326 0.916456,0.47562 1.244843,1.035975 l 0.303908,0.518554 0.227231,-0.381731 c 0.34507,-0.579649 1.246797,-1.468451 1.764508,-1.739194 0.271692,-0.142091 0.682339,-0.242545 0.996961,-0.243875 1.003712,-0.0042 1.486186,0.603988 1.486186,1.873608 0,0.796491 -0.257881,2.246196 -0.592018,3.327989 l -0.234438,0.759005 0.343842,0.361264 c 0.189148,0.198699 1.961929,2.328936 3.939601,4.73387 2.930056,3.563067 6.858235,7.155169 6.798551,7.356608 -0.04029,0.135944 -1.959716,2.893961 -1.959716,2.893961 -1.562299,1.572398 -1.628487,1.664932 -1.628487,1.664932 -5.018036,3.9431 -7.653742,4.52074 -7.653742,4.52074 z"
     id="path1-9"
     sodipodi:nodetypes="ssssscsssssssssssscsscsscssssscs" />
</svg>
