<?xml version="1.0" encoding="UTF-8" standalone="no"?>
<svg
   width="64"
   height="64"
   version="1.1"
   id="svg73"
   sodipodi:docname="abcd.svg"
   inkscape:version="1.4.2 (ebf0e940d0, 2025-05-08)"
   xmlns:inkscape="http://www.inkscape.org/namespaces/inkscape"
   xmlns:sodipodi="http://sodipodi.sourceforge.net/DTD/sodipodi-0.dtd"
   xmlns:xlink="http://www.w3.org/1999/xlink"
   xmlns="http://www.w3.org/2000/svg"
   xmlns:svg="http://www.w3.org/2000/svg"
   xmlns:rdf="http://www.w3.org/1999/02/22-rdf-syntax-ns#"
   xmlns:cc="http://creativecommons.org/ns#"
   xmlns:dc="http://purl.org/dc/elements/1.1/">
  <metadata
     id="metadata77">
    <rdf:RDF>
      <cc:Work
         rdf:about="">
        <dc:format>image/svg+xml</dc:format>
        <dc:type
           rdf:resource="http://purl.org/dc/dcmitype/StillImage" />
      </cc:Work>
    </rdf:RDF>
  </metadata>
  <sodipodi:namedview
     pagecolor="#f5f7fa"
     bordercolor="#666666"
     borderopacity="1"
     objecttolerance="10"
     gridtolerance="10"
     guidetolerance="10"
     inkscape:pageopacity="0"
     inkscape:pageshadow="2"
     inkscape:window-width="1263"
     inkscape:window-height="693"
     id="namedview75"
     showgrid="false"
     inkscape:zoom="4.4470387"
     inkscape:cx="36.091433"
     inkscape:cy="29.682674"
     inkscape:window-x="24"
     inkscape:window-y="21"
     inkscape:window-maximized="0"
     inkscape:current-layer="svg73"
     inkscape:document-rotation="0"
     inkscape:pagecheckerboard="0"
     inkscape:showpageshadow="2"
     inkscape:deskcolor="#d1d1d1" />
  <defs
     id="defs29">
    <linearGradient
       id="linearGradient4"
       inkscape:collect="always">
      <stop
         style="stop-color:#ac5eac;stop-opacity:1;"
         offset="0"
         id="stop4" />
      <stop
         style="stop-color:#c181c1;stop-opacity:1;"
         offset="0.5"
         id="stop1" />
    </linearGradient>
    <linearGradient
       id="linearGradient2"
       inkscape:collect="always">
      <stop
         style="stop-color:#f4ecf4;stop-opacity:1;"
         offset="0"
         id="stop2" />
      <stop
         style="stop-color:#e9d8e9;stop-opacity:1;"
         offset="1"
         id="stop3" />
    </linearGradient>
    <linearGradient
       inkscape:collect="always"
       xlink:href="#linearGradient2"
       id="linearGradient8"
       x1="31.721739"
       y1="5.2278585"
       x2="31.88887"
       y2="59.145416"
       gradientUnits="userSpaceOnUse"
       gradientTransform="matrix(0.8505,0,0,0.8505,4.7765033,4.7794869)" />
    <filter
       style="color-interpolation-filters:sRGB;"
       inkscape:label="Blur"
       id="filter9"
       x="-0.047762285"
       y="-0.047489063"
       width="1.0955246"
       height="1.0949781">
      <feGaussianBlur
         stdDeviation="1 1"
         result="blur"
         id="feGaussianBlur9" />
    </filter>
    <linearGradient
       inkscape:collect="always"
       xlink:href="#linearGradient4"
       id="linearGradient7"
       x1="26.723248"
       y1="58.711765"
       x2="25.756926"
       y2="5.950614"
       gradientUnits="userSpaceOnUse" />
    <filter
       style="color-interpolation-filters:sRGB;"
       inkscape:label="Out of Focus"
       id="filter40"
       x="-0.24226652"
       y="-0.2858297"
       width="1.484533"
       height="1.5716594">
      <feFlood
         flood-opacity="1"
         flood-color="rgb(255,255,255)"
         result="flood"
         id="feFlood38" />
      <feColorMatrix
         in="SourceGraphic"
         values="1 0 0 0 0 0 1 0 0 0 0 0 1 0 0 -0.2125 -0.7154 -0.0721 1 0 "
         result="colormatrix1"
         id="feColorMatrix38" />
      <feGaussianBlur
         in="colormatrix1"
         stdDeviation="3 3"
         result="blur"
         id="feGaussianBlur38" />
      <feColorMatrix
         in="blur"
         values="1 0 0 0 0 0 1 0 0 0 0 0 1 0 0 0 0 0 6 -2 "
         result="colormatrix2"
         id="feColorMatrix39" />
      <feBlend
         in="colormatrix2"
         in2="flood"
         mode="normal"
         result="blend"
         id="feBlend39" />
      <feComposite
         in="blend"
         in2="blend"
         operator="arithmetic"
         k2="0.2"
         result="composite1"
         id="feComposite39" />
      <feComposite
         in2="SourceGraphic"
         operator="in"
         id="feComposite40" />
    </filter>
  </defs>
  <g
     id="g877"
     transform="matrix(1.1,0,0,1.1,-3.1845928,-3.2065454)">
    <ellipse
       style="opacity:0.5;fill:#000000;stroke:none;stroke-width:3.89319;stroke-dasharray:none;stroke-opacity:1;filter:url(#filter9)"
       id="path2-5"
       cx="31.949858"
       cy="31.969812"
       rx="25.124426"
       ry="25.268976"
       transform="matrix(1.05,0,0,1.05,-1.5974929,-1.5984906)" />
    <path
       style="fill:#f5f7fa;stroke-width:0.204426;fill-opacity:1"
       d=""
       id="path3" />
    <circle
       style="opacity:1;fill:url(#linearGradient8);stroke:url(#linearGradient7);stroke-width:3.81818;stroke-dasharray:none;stroke-opacity:1"
       id="path2"
       cx="31.949856"
       cy="31.969812"
       r="24.711082" />
    <ellipse
       style="opacity:0.3;fill:none;stroke:#000000;stroke-width:0.974376;stroke-dasharray:none;stroke-opacity:1"
       id="path2-9"
       cx="31.949856"
       cy="31.969812"
       rx="23.129124"
       ry="23.129126" />
  </g>
  <path
     id="path5-1"
     style="fill:#000000;fill-opacity:1;stroke:none;stroke-width:0.495;stroke-dasharray:none;stroke-opacity:0.6;opacity:0.2"
     d="m 37.804375,18.624934 c -0.07028,0 -0.434899,0.244177 -0.695683,0.466038 -0.282023,0.239945 -0.361216,0.221635 -0.445777,-0.104698 l -0.06081,-0.22964 -0.41538,0.379923 c -0.44259,0.4045 -0.58702,0.40894 -0.594369,0.01691 -0.0032,-0.170626 -0.05927,-0.131072 -0.521761,0.368103 l -0.516683,0.558899 -0.102993,-0.244842 -0.102993,-0.244837 -0.263415,0.32251 c -0.683775,0.835327 -1.105005,1.814098 -1.107684,2.573348 -0.0012,0.380365 0.03693,0.516487 0.241458,0.852716 0.139941,0.230047 0.357391,0.465844 0.511631,0.553844 l 0.268478,0.151968 0.629828,-0.457597 c 1.435152,-1.040546 2.904888,-1.834923 4.638446,-2.510868 1.545556,-0.602643 1.541563,-0.568134 -0.03705,0.307314 -1.925108,1.067536 -3.528468,2.172401 -4.300732,2.9634 -0.327992,0.33594 -0.330833,0.342244 -0.243156,0.634895 0.206041,0.687706 1.063464,1.327344 2.134326,1.59061 0.294748,0.07248 0.785734,0.133746 1.090799,0.136769 l 0.555537,0.0052 -0.140182,-0.153663 c -0.119602,-0.132126 -0.124058,-0.165363 -0.03061,-0.224573 0.06017,-0.03805 0.214508,-0.06858 0.342786,-0.06924 0.267472,-0.0012 1.01089,-0.134534 1.067164,-0.190807 0.02075,-0.02072 -0.02892,-0.08493 -0.108042,-0.143527 -0.190933,-0.140926 -0.106843,-0.210935 0.493051,-0.410315 0.267777,-0.089 0.570734,-0.209656 0.673729,-0.268484 l 0.187431,-0.10637 -0.187431,-0.0052 c -0.190662,-0.0041 -0.435566,-0.117132 -0.371486,-0.172228 0.01939,-0.0167 0.237435,-0.136661 0.484608,-0.266791 0.247197,-0.130129 0.550133,-0.319318 0.673732,-0.420452 L 41.775754,24.0992 41.537706,24.0958 c -0.131439,-0.0014 -0.25798,-0.0315 -0.280294,-0.06754 -0.02211,-0.03607 0.193212,-0.239601 0.479542,-0.452528 0.28635,-0.212932 0.541333,-0.419905 0.565665,-0.459286 0.02518,-0.04041 -0.07246,-0.0726 -0.222909,-0.0726 -0.146644,0 -0.266791,-0.025 -0.266791,-0.05741 0,-0.03248 0.170796,-0.227829 0.379924,-0.432268 0.209098,-0.20444 0.414267,-0.433949 0.455911,-0.509941 0.0651,-0.118798 0.055,-0.130442 -0.07933,-0.0878 -0.185084,0.05874 -0.455911,-0.01341 -0.455911,-0.121575 0,-0.04197 0.193723,-0.265379 0.430579,-0.496431 l 0.43059,-0.42045 -0.300534,-0.04222 c -0.26754,-0.03719 -0.295569,-0.06074 -0.273526,-0.227954 0.01395,-0.102982 0.122458,-0.364571 0.243183,-0.58086 l 0.219507,-0.393432 -0.580867,-0.0052 c -0.319652,-0.0029 -0.642845,-0.02956 -0.717628,-0.05909 -0.128786,-0.05078 -0.127935,-0.05973 0.01735,-0.190808 0.08412,-0.07611 0.135148,-0.16862 0.113106,-0.204313 -0.06251,-0.101167 -0.53745,-0.07587 -1.062096,0.05573 -0.262879,0.06591 -0.498843,0.09723 -0.525138,0.07092 -0.02585,-0.02629 -0.01056,-0.146458 0.03555,-0.268481 0.04606,-0.122028 0.06188,-0.222893 0.03368,-0.222893 -0.02789,0 -0.295331,0.06787 -0.592686,0.150282 -0.297338,0.0824 -0.558042,0.150283 -0.57917,0.150283 -0.08915,0 -0.02824,-0.261742 0.09286,-0.398498 0.127869,-0.144542 0.126339,-0.147944 -0.09286,-0.09795 -0.123581,0.02819 -0.425803,0.150393 -0.672038,0.270169 -0.477186,0.232109 -0.604527,0.200434 -0.52683,-0.130018 0.02211,-0.0927 0.02177,-0.168858 -0.0018,-0.168858 z m -12.459795,0.0052 c -0.06131,0.003 -0.04718,0.05827 0.02198,0.163789 0.193428,0.295218 0.04829,0.394621 -0.379921,0.258344 -0.200524,-0.06381 -0.482259,-0.139332 -0.626452,-0.167171 -0.214406,-0.0414 -0.245425,-0.03266 -0.168855,0.04728 0.101046,0.105512 0.131052,0.442174 0.03884,0.440713 -0.03085,-4.89e-4 -0.242822,-0.05062 -0.469417,-0.111445 -0.424733,-0.114005 -1.048588,-0.151338 -1.048588,-0.06248 0,0.02765 0.05654,0.113523 0.12495,0.189111 0.0684,0.07559 0.09981,0.161847 0.06924,0.192492 -0.03058,0.03065 -0.357098,0.06835 -0.724386,0.08273 l -0.666976,0.0253 0.15028,0.212755 c 0.145367,0.204147 0.373167,0.761347 0.373167,0.913505 0,0.04041 -0.133831,0.05964 -0.298873,0.0439 -0.164792,-0.01575 -0.300558,7.02e-4 -0.300558,0.03547 0,0.03476 0.208933,0.261822 0.464348,0.504878 0.255424,0.243051 0.438273,0.466791 0.406943,0.49812 -0.03133,0.03133 -0.186033,0.05741 -0.344464,0.05741 H 21.67708 l 0.146903,0.206007 c 0.08056,0.113125 0.296601,0.327942 0.479548,0.477856 0.36621,0.300084 0.370469,0.405254 0.01687,0.405254 H 22.08738 l 0.180677,0.194182 c 0.09988,0.106733 0.342956,0.311947 0.538648,0.455907 0.195689,0.143953 0.354595,0.293275 0.354595,0.330959 0,0.03768 -0.120932,0.06924 -0.270168,0.06924 -0.368554,0 -0.267581,0.107613 0.493054,0.526827 0.331388,0.182638 0.591351,0.365234 0.577485,0.40694 -0.01385,0.04171 -0.124644,0.09561 -0.244837,0.1182 l -0.217821,0.04052 0.224573,0.11651 c 0.123596,0.0645 0.459021,0.194866 0.744651,0.288735 l 0.518384,0.170544 -0.173919,0.141838 c -0.09579,0.07756 -0.157744,0.156333 -0.138463,0.175606 0.06053,0.06053 0.816272,0.18574 1.121197,0.18574 0.319555,0 0.445219,0.147132 0.287047,0.337712 -0.08021,0.09665 -0.02908,0.11088 0.384989,0.109758 1.445926,-0.0041 2.732894,-0.654148 3.186304,-1.609153 l 0.178998,-0.373164 -0.587614,-0.562287 c -0.322985,-0.308997 -0.9047,-0.788834 -1.293424,-1.065484 -0.767041,-0.545898 -2.674997,-1.702115 -3.417621,-2.071849 -0.589036,-0.293267 -0.669871,-0.416824 -0.157033,-0.239775 1.975152,0.681896 4.18623,1.844414 5.578961,2.934698 l 0.46435,0.364725 0.319136,-0.243152 c 0.828625,-0.632014 0.910335,-1.546263 0.256658,-2.862087 -0.36682,-0.738395 -1.008852,-1.541568 -1.014817,-1.269787 -0.0083,0.372468 -0.161535,0.323333 -0.682172,-0.217822 l -0.515009,-0.535271 -0.0018,0.238085 c -0.0012,0.131464 -0.03755,0.261883 -0.081,0.288745 -0.04347,0.02688 -0.271944,-0.131092 -0.506566,-0.351216 -0.411708,-0.38627 -0.427529,-0.393492 -0.452531,-0.212759 -0.05262,0.380493 -0.146211,0.384372 -0.624764,0.0321 -0.504184,-0.371158 -0.588483,-0.400464 -0.531891,-0.184053 0.02139,0.08179 0.02027,0.200146 -0.0034,0.261727 -0.0354,0.09224 -0.139542,0.06612 -0.587615,-0.148595 -0.367804,-0.176274 -0.571256,-0.260535 -0.650098,-0.256672 z m 6.760945,8.260396 c -1.131345,0.01917 -2.495152,0.653328 -3.054582,1.460586 -0.222884,0.32162 -0.257053,0.726363 -0.0878,1.053652 0.259737,0.50227 1.16339,1.041909 2.073539,1.239395 0.652212,0.141523 1.751015,0.140188 2.446704,-0.0034 1.485652,-0.306613 2.258576,-1.078524 1.933384,-1.930029 -0.323169,-0.846208 -1.678098,-1.670937 -2.968467,-1.806746 -0.110883,-0.01163 -0.225738,-0.01552 -0.342774,-0.01354 z m -4.852887,0.66526 c -0.414506,-0.0011 -0.881626,0.02738 -1.1499,0.08442 -1.442079,0.306548 -2.497467,1.231343 -2.98704,2.618939 -0.126597,0.35882 -0.264223,1.50674 -0.200937,1.671662 0.178343,0.464755 2.223565,-0.915736 4.044072,-2.728693 0.752174,-0.749056 1.249686,-1.435102 1.127949,-1.55684 -0.05785,-0.05782 -0.419632,-0.08845 -0.834144,-0.0895 z m 9.602773,0.0726 c -0.133448,0.0019 -0.26869,0.0092 -0.40525,0.02198 -0.469085,0.04397 -0.553847,0.07256 -0.553847,0.189116 0,0.605322 3.205941,3.517009 4.574271,4.153826 0.223182,0.103862 0.440044,0.176951 0.481241,0.163789 0.125793,-0.04015 0.128275,-0.997418 0.0034,-1.49437 -0.471944,-1.878057 -2.098,-3.062228 -4.099768,-3.034325 z m -0.948965,3.356839 c -0.806382,-0.0041 -1.583949,0.294306 -2.171473,0.937141 -0.421682,0.461396 -0.662602,1.011622 -0.769976,1.75778 -0.167754,1.16577 0.329192,2.551161 1.247837,3.483474 0.525113,0.532933 0.985514,0.825586 1.68348,1.070542 0.399264,0.140093 0.607212,0.167068 1.160036,0.146895 0.780225,-0.02863 1.314565,-0.23038 1.820253,-0.687238 1.106744,-0.999878 1.340107,-2.805481 0.560601,-4.346316 -0.76207,-1.50633 -2.186784,-2.355537 -3.530758,-2.362254 z m -7.46338,0.199247 c -0.545436,0.0019 -0.771043,0.03965 -1.183672,0.199247 -2.299961,0.889589 -3.484063,3.641957 -2.443328,5.681961 0.359165,0.704021 1.17246,1.318521 1.96547,1.485923 0.17233,0.03633 0.529372,0.04896 0.793616,0.02895 3.270318,-0.250706 5.090222,-4.605212 2.799613,-6.698701 -0.562299,-0.513903 -1.080762,-0.700309 -1.931699,-0.697371 z m 13.013638,1.987411 c -0.05834,0.0011 -0.11171,0.02987 -0.197534,0.08612 -0.280838,0.183988 -0.418759,0.748087 -0.418759,1.705434 0,1.782828 0.484513,3.704577 1.087424,4.307482 0.254817,0.254818 0.435216,0.221073 0.74296,-0.138446 0.574803,-0.67155 0.863139,-1.529982 0.864521,-2.578413 0.0011,-0.832216 -0.173621,-1.456889 -0.584237,-2.09211 -0.310638,-0.480615 -0.882256,-1.028067 -1.264726,-1.212376 -0.108482,-0.05228 -0.171307,-0.07886 -0.229645,-0.07767 z m -18.899915,0.08442 c -0.104093,-0.0091 -0.218638,0.05375 -0.486303,0.238087 -1.053422,0.725517 -1.605807,1.806671 -1.605807,3.144076 0,1.072485 0.296262,1.950192 0.872976,2.588545 0.147537,0.163279 0.325,0.297202 0.393435,0.297202 0.74293,0 1.496298,-2.512763 1.418379,-4.731314 -0.0329,-0.937118 -0.170419,-1.360567 -0.486303,-1.504487 -0.03766,-0.01715 -0.07168,-0.02905 -0.106381,-0.03212 z m 9.631474,4.773508 c -0.942532,0.01549 -1.895877,0.370306 -2.6392,1.095868 -0.529396,0.516744 -0.90996,1.309588 -0.969223,2.017811 -0.149135,1.782126 1.258007,3.370118 3.233565,3.648957 0.390605,0.0551 1.182115,-0.03555 1.648025,-0.189097 2.017977,-0.664265 2.998419,-2.784921 2.114061,-4.5743 -0.652961,-1.3212 -2.009683,-2.02213 -3.387228,-1.999281 z m 8.240115,1.264718 c -0.617602,0.01668 -1.339112,0.472499 -2.29136,1.423449 -0.771499,0.770441 -0.904996,0.943854 -1.215754,1.577099 -0.608783,1.240592 -0.808849,2.45522 -0.511631,3.108625 0.161649,0.355322 0.287997,0.469865 0.66529,0.604493 0.676911,0.241584 1.697399,0.04773 2.596985,-0.493051 0.477913,-0.287304 1.373572,-1.194994 1.653092,-1.676731 0.359887,-0.620201 0.509515,-1.222237 0.51331,-2.066781 0.0052,-1.198788 -0.312917,-2.107554 -0.822322,-2.350455 -0.187703,-0.08953 -0.381743,-0.132359 -0.58761,-0.126643 z m -16.787543,0.533573 c -0.209143,0.0014 -0.397192,0.04238 -0.553842,0.123242 -0.830439,0.428698 -0.896099,2.166488 -0.141838,3.746891 0.457671,0.95897 1.650264,1.942415 2.696608,2.223816 0.53726,0.144468 1.079883,0.138209 1.484234,-0.01735 0.458276,-0.175593 0.680355,-0.593856 0.678795,-1.279714 -0.0041,-1.773957 -1.2245,-3.606788 -2.985352,-4.482915 -0.422289,-0.210087 -0.830041,-0.316523 -1.178605,-0.314074 z m 8.69771,6.180083 c -1.374769,-3.61e-4 -2.192602,0.155795 -3.029256,0.577483 -0.910794,0.459058 -0.954913,0.78612 -0.202625,1.523074 0.540948,0.529914 1.459202,1.020748 2.22044,1.188732 1.26972,0.280226 2.763751,-0.206718 3.821186,-1.244454 0.771453,-0.757059 0.746456,-1.14635 -0.103004,-1.560217 -0.776087,-0.378124 -1.362188,-0.484258 -2.706745,-0.484618 z" />
  <path
     id="path5"
     style="fill:#4d4d4d;fill-opacity:1;stroke:none;stroke-width:0.495;stroke-dasharray:none;stroke-opacity:0.6"
     d="m 37.804375,16.624934 c -0.07028,0 -0.434899,0.244177 -0.695683,0.466038 -0.282023,0.239945 -0.361216,0.221635 -0.445777,-0.104698 l -0.06081,-0.22964 -0.41538,0.379923 c -0.44259,0.4045 -0.58702,0.40894 -0.594369,0.01691 -0.0032,-0.170626 -0.05927,-0.131072 -0.521761,0.368103 l -0.516683,0.558899 -0.102993,-0.244842 -0.102993,-0.244837 -0.263415,0.32251 c -0.683775,0.835327 -1.105005,1.814098 -1.107684,2.573348 -0.0012,0.380365 0.03693,0.516487 0.241458,0.852716 0.139941,0.230047 0.357391,0.465844 0.511631,0.553844 l 0.268478,0.151968 0.629828,-0.457597 c 1.435152,-1.040546 2.904888,-1.834923 4.638446,-2.510868 1.545556,-0.602643 1.541563,-0.568134 -0.03705,0.307314 -1.925108,1.067536 -3.528468,2.172401 -4.300732,2.9634 -0.327992,0.33594 -0.330833,0.342244 -0.243156,0.634895 0.206041,0.687706 1.063464,1.327344 2.134326,1.59061 0.294748,0.07248 0.785734,0.133746 1.090799,0.136769 l 0.555537,0.0052 -0.140182,-0.153663 c -0.119602,-0.132126 -0.124058,-0.165363 -0.03061,-0.224573 0.06017,-0.03805 0.214508,-0.06858 0.342786,-0.06924 0.267472,-0.0012 1.01089,-0.134534 1.067164,-0.190807 0.02075,-0.02072 -0.02892,-0.08493 -0.108042,-0.143527 -0.190933,-0.140926 -0.106843,-0.210935 0.493051,-0.410315 0.267777,-0.089 0.570734,-0.209656 0.673729,-0.268484 l 0.187431,-0.10637 -0.187431,-0.0052 c -0.190662,-0.0041 -0.435566,-0.117132 -0.371486,-0.172228 0.01939,-0.0167 0.237435,-0.136661 0.484608,-0.266791 0.247197,-0.130129 0.550133,-0.319318 0.673732,-0.420452 L 41.775754,22.0992 41.537706,22.0958 c -0.131439,-0.0014 -0.25798,-0.0315 -0.280294,-0.06754 -0.02211,-0.03607 0.193212,-0.239601 0.479542,-0.452528 0.28635,-0.212932 0.541333,-0.419905 0.565665,-0.459286 0.02518,-0.04041 -0.07246,-0.0726 -0.222909,-0.0726 -0.146644,0 -0.266791,-0.025 -0.266791,-0.05741 0,-0.03248 0.170796,-0.227829 0.379924,-0.432268 0.209098,-0.20444 0.414267,-0.433949 0.455911,-0.509941 0.0651,-0.118798 0.055,-0.130442 -0.07933,-0.0878 -0.185084,0.05874 -0.455911,-0.01341 -0.455911,-0.121575 0,-0.04197 0.193723,-0.265379 0.430579,-0.496431 l 0.43059,-0.42045 -0.300534,-0.04222 c -0.26754,-0.03719 -0.295569,-0.06074 -0.273526,-0.227954 0.01395,-0.102982 0.122458,-0.364571 0.243183,-0.58086 l 0.219507,-0.393432 -0.580867,-0.0052 c -0.319652,-0.0029 -0.642845,-0.02956 -0.717628,-0.05909 -0.128786,-0.05078 -0.127935,-0.05973 0.01735,-0.190808 0.08412,-0.07611 0.135148,-0.16862 0.113106,-0.204313 -0.06251,-0.101167 -0.53745,-0.07587 -1.062096,0.05573 -0.262879,0.06591 -0.498843,0.09723 -0.525138,0.07092 -0.02585,-0.02629 -0.01056,-0.146458 0.03555,-0.268481 0.04606,-0.122028 0.06188,-0.222893 0.03368,-0.222893 -0.02789,0 -0.295331,0.06787 -0.592686,0.150282 -0.297338,0.0824 -0.558042,0.150283 -0.57917,0.150283 -0.08915,0 -0.02824,-0.261742 0.09286,-0.398498 0.127869,-0.144542 0.126339,-0.147944 -0.09286,-0.09795 -0.123581,0.02819 -0.425803,0.150393 -0.672038,0.270169 -0.477186,0.232109 -0.604527,0.200434 -0.52683,-0.130018 0.02211,-0.0927 0.02177,-0.168858 -0.0018,-0.168858 z m -12.459795,0.0052 c -0.06131,0.003 -0.04718,0.05827 0.02198,0.163789 0.193428,0.295218 0.04829,0.394621 -0.379921,0.258344 -0.200524,-0.06381 -0.482259,-0.139332 -0.626452,-0.167171 -0.214406,-0.0414 -0.245425,-0.03266 -0.168855,0.04728 0.101046,0.105512 0.131052,0.442174 0.03884,0.440713 -0.03085,-4.89e-4 -0.242822,-0.05062 -0.469417,-0.111445 -0.424733,-0.114005 -1.048588,-0.151338 -1.048588,-0.06248 0,0.02765 0.05654,0.113523 0.12495,0.189111 0.0684,0.07559 0.09981,0.161847 0.06924,0.192492 -0.03058,0.03065 -0.357098,0.06835 -0.724386,0.08273 l -0.666976,0.0253 0.15028,0.212755 c 0.145367,0.204147 0.373167,0.761347 0.373167,0.913505 0,0.04041 -0.133831,0.05964 -0.298873,0.0439 -0.164792,-0.01575 -0.300558,7.02e-4 -0.300558,0.03547 0,0.03476 0.208933,0.261822 0.464348,0.504878 0.255424,0.243051 0.438273,0.466791 0.406943,0.49812 -0.03133,0.03133 -0.186033,0.05741 -0.344464,0.05741 H 21.67708 l 0.146903,0.206007 c 0.08056,0.113125 0.296601,0.327942 0.479548,0.477856 0.36621,0.300084 0.370469,0.405254 0.01687,0.405254 H 22.08738 l 0.180677,0.194182 c 0.09988,0.106733 0.342956,0.311947 0.538648,0.455907 0.195689,0.143953 0.354595,0.293275 0.354595,0.330959 0,0.03768 -0.120932,0.06924 -0.270168,0.06924 -0.368554,0 -0.267581,0.107613 0.493054,0.526827 0.331388,0.182638 0.591351,0.365234 0.577485,0.40694 -0.01385,0.04171 -0.124644,0.09561 -0.244837,0.1182 l -0.217821,0.04052 0.224573,0.11651 c 0.123596,0.0645 0.459021,0.194866 0.744651,0.288735 l 0.518384,0.170544 -0.173919,0.141838 c -0.09579,0.07756 -0.157744,0.156333 -0.138463,0.175606 0.06053,0.06053 0.816272,0.18574 1.121197,0.18574 0.319555,0 0.445219,0.147132 0.287047,0.337712 -0.08021,0.09665 -0.02908,0.11088 0.384989,0.109758 1.445926,-0.0041 2.732894,-0.654148 3.186304,-1.609153 l 0.178998,-0.373164 -0.587614,-0.562287 c -0.322985,-0.308997 -0.9047,-0.788834 -1.293424,-1.065484 -0.767041,-0.545898 -2.674997,-1.702115 -3.417621,-2.071849 -0.589036,-0.293267 -0.669871,-0.416824 -0.157033,-0.239775 1.975152,0.681896 4.18623,1.844414 5.578961,2.934698 l 0.46435,0.364725 0.319136,-0.243152 c 0.828625,-0.632014 0.910335,-1.546263 0.256658,-2.862087 -0.36682,-0.738395 -1.008852,-1.541568 -1.014817,-1.269787 -0.0083,0.372468 -0.161535,0.323333 -0.682172,-0.217822 l -0.515009,-0.535271 -0.0018,0.238085 c -0.0012,0.131464 -0.03755,0.261883 -0.081,0.288745 -0.04347,0.02688 -0.271944,-0.131092 -0.506566,-0.351216 -0.411708,-0.38627 -0.427529,-0.393492 -0.452531,-0.212759 -0.05262,0.380493 -0.146211,0.384372 -0.624764,0.0321 -0.504184,-0.371158 -0.588483,-0.400464 -0.531891,-0.184053 0.02139,0.08179 0.02027,0.200146 -0.0034,0.261727 -0.0354,0.09224 -0.139542,0.06612 -0.587615,-0.148595 -0.367804,-0.176274 -0.571256,-0.260535 -0.650098,-0.256672 z m 6.760945,8.260396 c -1.131345,0.01917 -2.495152,0.653328 -3.054582,1.460586 -0.222884,0.32162 -0.257053,0.726363 -0.0878,1.053652 0.259737,0.50227 1.16339,1.041909 2.073539,1.239395 0.652212,0.141523 1.751015,0.140188 2.446704,-0.0034 1.485652,-0.306613 2.258576,-1.078524 1.933384,-1.930029 -0.323169,-0.846208 -1.678098,-1.670937 -2.968467,-1.806746 -0.110883,-0.01163 -0.225738,-0.01552 -0.342774,-0.01354 z m -4.852887,0.66526 c -0.414506,-0.0011 -0.881626,0.02738 -1.1499,0.08442 -1.442079,0.306548 -2.497467,1.231343 -2.98704,2.618939 -0.126597,0.35882 -0.264223,1.50674 -0.200937,1.671662 0.178343,0.464755 2.223565,-0.915736 4.044072,-2.728693 0.752174,-0.749056 1.249686,-1.435102 1.127949,-1.55684 -0.05785,-0.05782 -0.419632,-0.08845 -0.834144,-0.0895 z m 9.602773,0.0726 c -0.133448,0.0019 -0.26869,0.0092 -0.40525,0.02198 -0.469085,0.04397 -0.553847,0.07256 -0.553847,0.189116 0,0.605322 3.205941,3.517009 4.574271,4.153826 0.223182,0.103862 0.440044,0.176951 0.481241,0.163789 0.125793,-0.04015 0.128275,-0.997418 0.0034,-1.49437 -0.471944,-1.878057 -2.098,-3.062228 -4.099768,-3.034325 z m -0.948965,3.356839 c -0.806382,-0.0041 -1.583949,0.294306 -2.171473,0.937141 -0.421682,0.461396 -0.662602,1.011622 -0.769976,1.75778 -0.167754,1.16577 0.329192,2.551161 1.247837,3.483474 0.525113,0.532933 0.985514,0.825586 1.68348,1.070542 0.399264,0.140093 0.607212,0.167068 1.160036,0.146895 0.780225,-0.02863 1.314565,-0.23038 1.820253,-0.687238 1.106744,-0.999878 1.340107,-2.805481 0.560601,-4.346316 -0.76207,-1.50633 -2.186784,-2.355537 -3.530758,-2.362254 z m -7.46338,0.199247 c -0.545436,0.0019 -0.771043,0.03965 -1.183672,0.199247 -2.299961,0.889589 -3.484063,3.641957 -2.443328,5.681961 0.359165,0.704021 1.17246,1.318521 1.96547,1.485923 0.17233,0.03633 0.529372,0.04896 0.793616,0.02895 3.270318,-0.250706 5.090222,-4.605212 2.799613,-6.698701 -0.562299,-0.513903 -1.080762,-0.700309 -1.931699,-0.697371 z m 13.013638,1.987411 c -0.05834,0.0011 -0.11171,0.02987 -0.197534,0.08612 -0.280838,0.183988 -0.418759,0.748087 -0.418759,1.705434 0,1.782828 0.484513,3.704577 1.087424,4.307482 0.254817,0.254818 0.435216,0.221073 0.74296,-0.138446 0.574803,-0.67155 0.863139,-1.529982 0.864521,-2.578413 0.0011,-0.832216 -0.173621,-1.456889 -0.584237,-2.09211 -0.310638,-0.480615 -0.882256,-1.028067 -1.264726,-1.212376 -0.108482,-0.05228 -0.171307,-0.07886 -0.229645,-0.07767 z m -18.899915,0.08442 c -0.104093,-0.0091 -0.218638,0.05375 -0.486303,0.238087 -1.053422,0.725517 -1.605807,1.806671 -1.605807,3.144076 0,1.072485 0.296262,1.950192 0.872976,2.588545 0.147537,0.163279 0.325,0.297202 0.393435,0.297202 0.74293,0 1.496298,-2.512763 1.418379,-4.731314 -0.0329,-0.937118 -0.170419,-1.360567 -0.486303,-1.504487 -0.03766,-0.01715 -0.07168,-0.02905 -0.106381,-0.03212 z m 9.631474,4.773508 c -0.942532,0.01549 -1.895877,0.370306 -2.6392,1.095868 -0.529396,0.516744 -0.90996,1.309588 -0.969223,2.017811 -0.149135,1.782126 1.258007,3.370118 3.233565,3.648957 0.390605,0.0551 1.182115,-0.03555 1.648025,-0.189097 2.017977,-0.664265 2.998419,-2.784921 2.114061,-4.5743 -0.652961,-1.3212 -2.009683,-2.02213 -3.387228,-1.999281 z m 8.240115,1.264718 c -0.617602,0.01668 -1.339112,0.472499 -2.29136,1.423449 -0.771499,0.770441 -0.904996,0.943854 -1.215754,1.577099 -0.608783,1.240592 -0.808849,2.45522 -0.511631,3.108625 0.161649,0.355322 0.287997,0.469865 0.66529,0.604493 0.676911,0.241584 1.697399,0.04773 2.596985,-0.493051 0.477913,-0.287304 1.373572,-1.194994 1.653092,-1.676731 0.359887,-0.620201 0.509515,-1.222237 0.51331,-2.066781 0.0052,-1.198788 -0.312917,-2.107554 -0.822322,-2.350455 -0.187703,-0.08953 -0.381743,-0.132359 -0.58761,-0.126643 z m -16.787543,0.533573 c -0.209143,0.0014 -0.397192,0.04238 -0.553842,0.123242 -0.830439,0.428698 -0.896099,2.166488 -0.141838,3.746891 0.457671,0.95897 1.650264,1.942415 2.696608,2.223816 0.53726,0.144468 1.079883,0.138209 1.484234,-0.01735 0.458276,-0.175593 0.680355,-0.593856 0.678795,-1.279714 -0.0041,-1.773957 -1.2245,-3.606788 -2.985352,-4.482915 -0.422289,-0.210087 -0.830041,-0.316523 -1.178605,-0.314074 z m 8.69771,6.180083 c -1.374769,-3.61e-4 -2.192602,0.155795 -3.029256,0.577483 -0.910794,0.459058 -0.954913,0.78612 -0.202625,1.523074 0.540948,0.529914 1.459202,1.020748 2.22044,1.188732 1.26972,0.280226 2.763751,-0.206718 3.821186,-1.244454 0.771453,-0.757059 0.746456,-1.14635 -0.103004,-1.560217 -0.776087,-0.378124 -1.362188,-0.484258 -2.706745,-0.484618 z" />
</svg>
