<?xml version="1.0" encoding="UTF-8" standalone="no"?>
<svg
   width="64"
   height="64"
   version="1.1"
   id="svg73"
   sodipodi:docname="1password.svg"
   inkscape:version="1.4.2 (ebf0e940d0, 2025-05-08)"
   xmlns:inkscape="http://www.inkscape.org/namespaces/inkscape"
   xmlns:sodipodi="http://sodipodi.sourceforge.net/DTD/sodipodi-0.dtd"
   xmlns:xlink="http://www.w3.org/1999/xlink"
   xmlns="http://www.w3.org/2000/svg"
   xmlns:svg="http://www.w3.org/2000/svg"
   xmlns:rdf="http://www.w3.org/1999/02/22-rdf-syntax-ns#"
   xmlns:cc="http://creativecommons.org/ns#"
   xmlns:dc="http://purl.org/dc/elements/1.1/">
  <metadata
     id="metadata77">
    <rdf:RDF>
      <cc:Work
         rdf:about="">
        <dc:format>image/svg+xml</dc:format>
        <dc:type
           rdf:resource="http://purl.org/dc/dcmitype/StillImage" />
      </cc:Work>
    </rdf:RDF>
  </metadata>
  <sodipodi:namedview
     pagecolor="#f5f7fa"
     bordercolor="#666666"
     borderopacity="1"
     objecttolerance="10"
     gridtolerance="10"
     guidetolerance="10"
     inkscape:pageopacity="0"
     inkscape:pageshadow="2"
     inkscape:window-width="1024"
     inkscape:window-height="621"
     id="namedview75"
     showgrid="false"
     inkscape:zoom="6.2890624"
     inkscape:cx="34.822361"
     inkscape:cy="29.734162"
     inkscape:window-x="24"
     inkscape:window-y="21"
     inkscape:window-maximized="0"
     inkscape:current-layer="svg73"
     inkscape:document-rotation="0"
     inkscape:pagecheckerboard="0"
     inkscape:showpageshadow="2"
     inkscape:deskcolor="#d1d1d1" />
  <defs
     id="defs29">
    <linearGradient
       id="linearGradient4"
       inkscape:collect="always">
      <stop
         style="stop-color:#635eac;stop-opacity:1;"
         offset="0"
         id="stop4" />
      <stop
         style="stop-color:#8581c1;stop-opacity:1;"
         offset="0.5"
         id="stop1" />
    </linearGradient>
    <linearGradient
       id="linearGradient2"
       inkscape:collect="always">
      <stop
         style="stop-color:#edecf4;stop-opacity:1;"
         offset="0"
         id="stop2" />
      <stop
         style="stop-color:#d9d8e9;stop-opacity:1;"
         offset="1"
         id="stop3" />
    </linearGradient>
    <linearGradient
       inkscape:collect="always"
       xlink:href="#linearGradient2"
       id="linearGradient8"
       x1="31.721739"
       y1="5.2278585"
       x2="31.88887"
       y2="59.145416"
       gradientUnits="userSpaceOnUse"
       gradientTransform="matrix(0.8505,0,0,0.8505,4.7765033,4.7794869)" />
    <filter
       style="color-interpolation-filters:sRGB;"
       inkscape:label="Blur"
       id="filter9"
       x="-0.047762285"
       y="-0.047489063"
       width="1.0955246"
       height="1.0949781">
      <feGaussianBlur
         stdDeviation="1 1"
         result="blur"
         id="feGaussianBlur9" />
    </filter>
    <linearGradient
       inkscape:collect="always"
       xlink:href="#linearGradient4"
       id="linearGradient7"
       x1="26.723248"
       y1="58.711765"
       x2="25.756926"
       y2="5.950614"
       gradientUnits="userSpaceOnUse" />
    <filter
       style="color-interpolation-filters:sRGB;"
       inkscape:label="Out of Focus"
       id="filter40"
       x="-0.24226652"
       y="-0.2858297"
       width="1.484533"
       height="1.5716594">
      <feFlood
         flood-opacity="1"
         flood-color="rgb(255,255,255)"
         result="flood"
         id="feFlood38" />
      <feColorMatrix
         in="SourceGraphic"
         values="1 0 0 0 0 0 1 0 0 0 0 0 1 0 0 -0.2125 -0.7154 -0.0721 1 0 "
         result="colormatrix1"
         id="feColorMatrix38" />
      <feGaussianBlur
         in="colormatrix1"
         stdDeviation="3 3"
         result="blur"
         id="feGaussianBlur38" />
      <feColorMatrix
         in="blur"
         values="1 0 0 0 0 0 1 0 0 0 0 0 1 0 0 0 0 0 6 -2 "
         result="colormatrix2"
         id="feColorMatrix39" />
      <feBlend
         in="colormatrix2"
         in2="flood"
         mode="normal"
         result="blend"
         id="feBlend39" />
      <feComposite
         in="blend"
         in2="blend"
         operator="arithmetic"
         k2="0.2"
         result="composite1"
         id="feComposite39" />
      <feComposite
         in2="SourceGraphic"
         operator="in"
         id="feComposite40" />
    </filter>
  </defs>
  <g
     id="g877"
     transform="matrix(1.1,0,0,1.1,-3.1845928,-3.2065454)">
    <ellipse
       style="opacity:0.5;fill:#000000;stroke:none;stroke-width:3.89319;stroke-dasharray:none;stroke-opacity:1;filter:url(#filter9)"
       id="path2-5"
       cx="31.949858"
       cy="31.969812"
       rx="25.124426"
       ry="25.268976"
       transform="matrix(1.05,0,0,1.05,-1.5974929,-1.5984906)" />
    <path
       style="fill:#f5f7fa;stroke-width:0.204426;fill-opacity:1"
       d=""
       id="path3" />
    <circle
       style="opacity:1;fill:url(#linearGradient8);stroke:url(#linearGradient7);stroke-width:3.81818;stroke-dasharray:none;stroke-opacity:1"
       id="path2"
       cx="31.949856"
       cy="31.969812"
       r="24.711082" />
    <ellipse
       style="opacity:0.3;fill:none;stroke:#000000;stroke-width:0.974376;stroke-dasharray:none;stroke-opacity:1"
       id="path2-9"
       cx="31.949856"
       cy="31.969812"
       rx="23.129124"
       ry="23.129126" />
  </g>
  <path
     id="path59-4"
     style="fill:#000000;fill-opacity:1;stroke:none;stroke-width:0.932067;stroke-dasharray:none;stroke-dashoffset:2.2;stroke-opacity:0.3;opacity:0.2"
     d="m 32.300768,20.148323 c -13.950105,0 -13.398633,-0.02093 -13.693349,0.529748 -0.06818,0.127368 -0.111047,1.36216 -0.111047,3.238562 0,3.349503 0.006,3.384634 0.682666,3.679111 0.275245,0.1198 2.57886,0.145831 13.058015,0.149276 11.559969,0.004 12.757502,-0.01208 13.092604,-0.171119 0.671413,-0.318611 0.694173,-0.447717 0.658993,-3.79926 l -0.03102,-3.001904 -0.349542,-0.313116 -0.351324,-0.311294 z m 7.605796,1.172363 c 0.426296,0.01082 0.832377,0.187429 1.034014,0.495161 0.394185,0.601607 0.142752,1.307956 -0.573442,1.611088 -0.425026,0.179903 -0.633147,0.179071 -1.061314,-0.0073 -0.433832,-0.18882 -0.682664,-0.55402 -0.682664,-1.001248 0,-0.470243 0.151135,-0.734391 0.533387,-0.932066 0.231571,-0.119753 0.494244,-0.172143 0.750019,-0.165664 z m -3.908482,0.0054 c 1.306552,0 1.660789,1.604169 0.460575,2.084403 -0.456967,0.182821 -0.528794,0.185868 -1.01399,0.04549 -0.676283,-0.195693 -0.96749,-0.927289 -0.629873,-1.580171 0.191308,-0.36994 0.580403,-0.549774 1.183288,-0.549774 z m 7.316344,0 c 1.361215,0 1.78639,1.5816 0.557051,2.07348 -0.238998,0.09561 -0.493744,0.169154 -0.566153,0.163844 -1.149878,-0.08434 -1.644029,-1.121234 -0.89201,-1.873245 0.31732,-0.317334 0.432267,-0.364086 0.901112,-0.364089 z m -12.025823,0.535152 c 0.261482,0 0.697229,0.491895 0.697229,0.786432 0,0.238189 -1.380711,2.179554 -2.124453,2.987339 -0.487817,0.529823 -1.301616,0.286206 -1.301616,-0.389574 0,-0.279338 0.218203,-0.63748 1.07588,-1.760364 1.053903,-1.379801 1.304284,-1.623845 1.65296,-1.623845 z m -8.956564,0.01824 c 0.142352,-0.01577 0.272697,0.04901 0.429625,0.165651 0.541242,0.402225 0.453803,0.71361 -0.580722,2.073451 -0.511423,0.672232 -1.053026,1.354491 -1.203311,1.516414 -0.328349,0.353779 -0.781657,0.387066 -1.088621,0.08011 -0.406363,-0.40636 -0.285362,-0.709306 0.91204,-2.273727 0.8458,-1.105046 1.217811,-1.52729 1.530989,-1.561937 z m 3.025569,0.0036 c 0.04876,2.59e-4 0.09823,0.009 0.149275,0.02185 0.349587,0.0877 0.633306,0.524552 0.551591,0.850112 -0.06657,0.265249 -1.857299,2.662325 -2.230036,2.985515 -0.288762,0.250377 -0.757493,0.238005 -0.997601,-0.02731 -0.382326,-0.422502 -0.257555,-0.738599 0.851967,-2.18092 1.001186,-1.301484 1.333481,-1.651142 1.674804,-1.649319 z m 2.841709,0.02185 c 0.30182,-0.0211 0.642537,0.127071 0.720893,0.331266 0.176567,0.460138 0.04368,0.74795 -0.961193,2.069842 -0.566644,0.745407 -1.107367,1.415507 -1.199668,1.489114 -0.432912,0.3452 -1.196029,-0.01296 -1.196029,-0.560697 0,-0.372139 2.160001,-3.222077 2.508565,-3.30956 0.0406,-0.01016 0.08432,-0.01699 0.12743,-0.02005 z m 3.986762,8.071755 c -6.415627,0.0019 -12.818079,0.06274 -13.045271,0.180223 -0.639981,0.330935 -0.644436,0.351757 -0.644436,3.671831 0,1.867769 0.0435,3.112333 0.111048,3.238562 0.06035,0.112784 0.240052,0.277012 0.400496,0.364087 0.252752,0.137168 2.02566,0.158288 13.271007,0.162017 l 12.977916,0.0036 0.351319,-0.311296 0.349548,-0.313116 0.03102,-3.001907 c 0.03523,-3.366523 0.0059,-3.53584 -0.677198,-3.821104 -0.280812,-0.117318 -6.709743,-0.174855 -13.12537,-0.172934 z m 3.779234,1.206951 c 0.181106,0.004 0.360617,0.05862 0.586182,0.165665 0.713986,0.338806 0.866983,1.224198 0.304019,1.753082 -0.190382,0.178837 -0.430375,0.26359 -0.851965,0.298551 -0.557089,0.04621 -0.607162,0.02819 -0.964834,-0.329496 -0.616935,-0.616935 -0.46634,-1.415101 0.329502,-1.747622 0.232314,-0.09707 0.41598,-0.144119 0.597106,-0.140172 z m 7.387344,0 c 0.181105,0.004 0.360618,0.05862 0.586182,0.165665 0.713984,0.338806 0.866991,1.224198 0.304018,1.753082 -0.190378,0.178837 -0.430376,0.26359 -0.851965,0.298557 -0.557092,0.04621 -0.607159,0.02815 -0.964836,-0.329499 -0.616934,-0.616936 -0.466337,-1.415103 0.329501,-1.747623 0.232331,-0.09707 0.415973,-0.144118 0.5971,-0.140173 z m -3.395119,0.02366 c 0.05783,0.0028 0.113641,0.01005 0.167473,0.02185 0.420865,0.09245 0.920078,0.515907 1.004881,0.853787 0.09697,0.386386 -0.188631,0.977143 -0.566162,1.172365 -0.616717,0.318924 -1.567339,0.131048 -1.831352,-0.362269 -0.178169,-0.33287 -0.125719,-0.917883 0.107402,-1.214234 0.232891,-0.296059 0.712796,-0.490813 1.117751,-0.471492 z m -17.605473,0.610002 c 0.398207,0 0.748199,0.334845 0.748199,0.715435 0,0.356778 -2.065809,3.114731 -2.439388,3.256765 -0.34658,0.131773 -0.384784,0.125887 -0.70451,-0.125608 -0.482997,-0.379927 -0.386152,-0.691803 0.635331,-2.044354 1.283046,-1.698882 1.385081,-1.802236 1.760368,-1.802238 z m 3.051055,0 c 0.276462,0 0.695408,0.451425 0.695408,0.750021 0,0.257002 -2.137501,3.062396 -2.44121,3.203976 -0.284139,0.132454 -0.317411,0.131886 -0.62623,0.0073 -0.293636,-0.11846 -0.37109,-0.248613 -0.382292,-0.6426 -0.0068,-0.245412 0.241295,-0.64621 1.086802,-1.756725 1.111317,-1.459636 1.220452,-1.561936 1.667522,-1.561936 z m 2.878117,0.0036 c 0.204177,-0.0084 0.404928,0.05323 0.529746,0.191152 0.377644,0.417287 0.237903,0.769628 -0.897474,2.251882 -0.591516,0.772234 -1.16676,1.453276 -1.277952,1.512787 -0.111187,0.05952 -0.280143,0.109227 -0.37501,0.109227 -0.258899,0 -0.697227,-0.491758 -0.697227,-0.780968 0,-0.224504 1.48626,-2.313718 2.168141,-3.047416 0.138401,-0.148912 0.345595,-0.228136 0.549776,-0.236651 z m 2.890857,0.0091 c 0.488547,-0.05233 0.904717,0.362572 0.779148,0.862885 -0.084,0.334691 -2.048517,2.889312 -2.350187,3.056494 -0.292086,0.161852 -0.392019,0.162804 -0.666282,0.0073 -0.649547,-0.368373 -0.539381,-0.742639 0.700868,-2.368433 0.591996,-0.776024 1.187712,-1.45471 1.323461,-1.507323 0.07142,-0.02773 0.143202,-0.0435 0.21299,-0.05098 z m 1.128674,8.122807 c -13.950076,0 -13.398635,-0.02112 -13.693349,0.529744 -0.152105,0.28415 -0.148762,6.157778 0.0036,6.442541 0.06263,0.117041 0.2675,0.306133 0.455112,0.420515 0.33271,0.202856 0.655087,0.207148 13.110807,0.20751 14.008124,4.41e-4 13.323369,0.03235 13.669678,-0.637149 0.148991,-0.288012 0.16919,-0.741954 0.142025,-3.335046 l -0.03101,-3.003707 -0.349543,-0.311281 -0.351324,-0.313095 z m 3.367813,1.181473 c 0.08857,-6.7e-4 0.19569,0.0083 0.334947,0.02014 0.421594,0.03488 0.661603,0.117898 0.85197,0.296691 0.562967,0.528889 0.409974,1.414278 -0.304021,1.753093 -0.442832,0.210117 -0.760043,0.21632 -1.206952,0.02179 -0.774249,-0.336942 -0.914267,-1.135543 -0.30583,-1.743975 0.268252,-0.268242 0.364143,-0.345705 0.629871,-0.347697 z m 4.066862,0 c 0.590965,-0.03882 1.175345,0.267746 1.347127,0.788258 0.148363,0.449484 0.005,0.835972 -0.427798,1.155977 -0.820436,0.606691 -2.031614,0.0977 -2.031614,-0.853787 0,-0.470239 0.151135,-0.734395 0.533387,-0.932065 0.183317,-0.09479 0.381915,-0.145425 0.578898,-0.158398 z m 3.320482,0 c 0.08856,-6.7e-4 0.195663,0.0083 0.334957,0.02014 0.421586,0.03488 0.6616,0.117898 0.85197,0.296691 0.562968,0.528889 0.409965,1.414278 -0.304019,1.753093 -0.442833,0.210117 -0.760046,0.21632 -1.206951,0.02179 -0.774254,-0.33695 -0.914272,-1.135553 -0.305802,-1.74399 0.26824,-0.26824 0.364141,-0.345699 0.629873,-0.347691 z m -11.809192,0.531537 c 0.295448,0 0.739097,0.471895 0.739097,0.786429 0,0.238138 -1.380711,2.179559 -2.124451,2.987345 -0.50762,0.551327 -1.301617,0.298606 -1.301617,-0.415058 0,-0.236785 0.250967,-0.649811 0.972116,-1.59835 1.091986,-1.436309 1.407034,-1.760366 1.714855,-1.760366 z m -8.82367,0.0274 c 0.113042,0.01089 0.222054,0.0705 0.347703,0.163809 0.528311,0.392585 0.43874,0.709505 -0.586182,2.064384 -0.509386,0.673358 -1.051074,1.356318 -1.203311,1.518243 -0.332419,0.353564 -0.785634,0.386733 -1.092263,0.08007 -0.405399,-0.405412 -0.28385,-0.708241 0.906579,-2.261002 0.919105,-1.198857 1.288351,-1.598826 1.627474,-1.565579 z m 2.905418,0.01815 c 0.273843,0.0083 0.565232,0.179158 0.682665,0.436904 0.170041,0.373185 0.0085,0.669797 -1.221513,2.248243 -0.908638,1.166054 -1.036311,1.287171 -1.378073,1.31618 -0.272294,0.02344 -0.430832,-0.02938 -0.575257,-0.189324 -0.391361,-0.432447 -0.268789,-0.736008 0.899295,-2.240959 0.604241,-0.778505 1.204031,-1.463328 1.332561,-1.521892 0.08042,-0.03667 0.169041,-0.05185 0.260322,-0.04919 z m 2.863554,0.0019 c 0.258603,-0.01319 0.585667,0.125124 0.71361,0.316726 0.250454,0.375091 0.06445,0.777649 -0.99942,2.151763 -0.592314,0.765048 -1.132854,1.425426 -1.201489,1.469094 -0.432363,0.275074 -1.141416,-0.103705 -1.141416,-0.609849 0,-0.375901 2.169345,-3.224402 2.52313,-3.313202 0.03333,-0.0083 0.06864,-0.01287 0.105586,-0.01421 z" />
  <path
     id="path59"
     style="fill:#4d4d4d;fill-opacity:1;stroke:none;stroke-width:0.932067;stroke-dasharray:none;stroke-dashoffset:2.2;stroke-opacity:0.3"
     d="m 32.300768,18.148323 c -13.950105,0 -13.398633,-0.02093 -13.693349,0.529748 -0.06818,0.127368 -0.111047,1.36216 -0.111047,3.238562 0,3.349503 0.006,3.384634 0.682666,3.679111 0.275245,0.1198 2.57886,0.145831 13.058015,0.149276 11.559969,0.004 12.757502,-0.01208 13.092604,-0.171119 0.671413,-0.318611 0.694173,-0.447717 0.658993,-3.79926 l -0.03102,-3.001904 -0.349542,-0.313116 -0.351324,-0.311294 z m 7.605796,1.172363 c 0.426296,0.01082 0.832377,0.187429 1.034014,0.495161 0.394185,0.601607 0.142752,1.307956 -0.573442,1.611088 -0.425026,0.179903 -0.633147,0.179071 -1.061314,-0.0073 -0.433832,-0.18882 -0.682664,-0.55402 -0.682664,-1.001248 0,-0.470243 0.151135,-0.734391 0.533387,-0.932066 0.231571,-0.119753 0.494244,-0.172143 0.750019,-0.165664 z m -3.908482,0.0054 c 1.306552,0 1.660789,1.604169 0.460575,2.084403 -0.456967,0.182821 -0.528794,0.185868 -1.01399,0.04549 -0.676283,-0.195693 -0.96749,-0.927289 -0.629873,-1.580171 0.191308,-0.36994 0.580403,-0.549774 1.183288,-0.549774 z m 7.316344,0 c 1.361215,0 1.78639,1.5816 0.557051,2.07348 -0.238998,0.09561 -0.493744,0.169154 -0.566153,0.163844 -1.149878,-0.08434 -1.644029,-1.121234 -0.89201,-1.873245 0.31732,-0.317334 0.432267,-0.364086 0.901112,-0.364089 z m -12.025823,0.535152 c 0.261482,0 0.697229,0.491895 0.697229,0.786432 0,0.238189 -1.380711,2.179554 -2.124453,2.987339 -0.487817,0.529823 -1.301616,0.286206 -1.301616,-0.389574 0,-0.279338 0.218203,-0.63748 1.07588,-1.760364 1.053903,-1.379801 1.304284,-1.623845 1.65296,-1.623845 z m -8.956564,0.01824 c 0.142352,-0.01577 0.272697,0.04901 0.429625,0.165651 0.541242,0.402225 0.453803,0.71361 -0.580722,2.073451 -0.511423,0.672232 -1.053026,1.354491 -1.203311,1.516414 -0.328349,0.353779 -0.781657,0.387066 -1.088621,0.08011 -0.406363,-0.40636 -0.285362,-0.709306 0.91204,-2.273727 0.8458,-1.105046 1.217811,-1.52729 1.530989,-1.561937 z m 3.025569,0.0036 c 0.04876,2.59e-4 0.09823,0.009 0.149275,0.02185 0.349587,0.0877 0.633306,0.524552 0.551591,0.850112 -0.06657,0.265249 -1.857299,2.662325 -2.230036,2.985515 -0.288762,0.250377 -0.757493,0.238005 -0.997601,-0.02731 -0.382326,-0.422502 -0.257555,-0.738599 0.851967,-2.18092 1.001186,-1.301484 1.333481,-1.651142 1.674804,-1.649319 z m 2.841709,0.02185 c 0.30182,-0.0211 0.642537,0.127071 0.720893,0.331266 0.176567,0.460138 0.04368,0.74795 -0.961193,2.069842 -0.566644,0.745407 -1.107367,1.415507 -1.199668,1.489114 -0.432912,0.3452 -1.196029,-0.01296 -1.196029,-0.560697 0,-0.372139 2.160001,-3.222077 2.508565,-3.30956 0.0406,-0.01016 0.08432,-0.01699 0.12743,-0.02005 z m 3.986762,8.071755 c -6.415627,0.0019 -12.818079,0.06274 -13.045271,0.180223 -0.639981,0.330935 -0.644436,0.351757 -0.644436,3.671831 0,1.867769 0.0435,3.112333 0.111048,3.238562 0.06035,0.112784 0.240052,0.277012 0.400496,0.364087 0.252752,0.137168 2.02566,0.158288 13.271007,0.162017 l 12.977916,0.0036 0.351319,-0.311296 0.349548,-0.313116 0.03102,-3.001907 c 0.03523,-3.366523 0.0059,-3.53584 -0.677198,-3.821104 -0.280812,-0.117318 -6.709743,-0.174855 -13.12537,-0.172934 z m 3.779234,1.206951 c 0.181106,0.004 0.360617,0.05862 0.586182,0.165665 0.713986,0.338806 0.866983,1.224198 0.304019,1.753082 -0.190382,0.178837 -0.430375,0.26359 -0.851965,0.298551 -0.557089,0.04621 -0.607162,0.02819 -0.964834,-0.329496 -0.616935,-0.616935 -0.46634,-1.415101 0.329502,-1.747622 0.232314,-0.09707 0.41598,-0.144119 0.597106,-0.140172 z m 7.387344,0 c 0.181105,0.004 0.360618,0.05862 0.586182,0.165665 0.713984,0.338806 0.866991,1.224198 0.304018,1.753082 -0.190378,0.178837 -0.430376,0.26359 -0.851965,0.298557 -0.557092,0.04621 -0.607159,0.02815 -0.964836,-0.329499 -0.616934,-0.616936 -0.466337,-1.415103 0.329501,-1.747623 0.232331,-0.09707 0.415973,-0.144118 0.5971,-0.140173 z m -3.395119,0.02366 c 0.05783,0.0028 0.113641,0.01005 0.167473,0.02185 0.420865,0.09245 0.920078,0.515907 1.004881,0.853787 0.09697,0.386386 -0.188631,0.977143 -0.566162,1.172365 -0.616717,0.318924 -1.567339,0.131048 -1.831352,-0.362269 -0.178169,-0.33287 -0.125719,-0.917883 0.107402,-1.214234 0.232891,-0.296059 0.712796,-0.490813 1.117751,-0.471492 z m -17.605473,0.610002 c 0.398207,0 0.748199,0.334845 0.748199,0.715435 0,0.356778 -2.065809,3.114731 -2.439388,3.256765 -0.34658,0.131773 -0.384784,0.125887 -0.70451,-0.125608 -0.482997,-0.379927 -0.386152,-0.691803 0.635331,-2.044354 1.283046,-1.698882 1.385081,-1.802236 1.760368,-1.802238 z m 3.051055,0 c 0.276462,0 0.695408,0.451425 0.695408,0.750021 0,0.257002 -2.137501,3.062396 -2.44121,3.203976 -0.284139,0.132454 -0.317411,0.131886 -0.62623,0.0073 -0.293636,-0.11846 -0.37109,-0.248613 -0.382292,-0.6426 -0.0068,-0.245412 0.241295,-0.64621 1.086802,-1.756725 1.111317,-1.459636 1.220452,-1.561936 1.667522,-1.561936 z m 2.878117,0.0036 c 0.204177,-0.0084 0.404928,0.05323 0.529746,0.191152 0.377644,0.417287 0.237903,0.769628 -0.897474,2.251882 -0.591516,0.772234 -1.16676,1.453276 -1.277952,1.512787 -0.111187,0.05952 -0.280143,0.109227 -0.37501,0.109227 -0.258899,0 -0.697227,-0.491758 -0.697227,-0.780968 0,-0.224504 1.48626,-2.313718 2.168141,-3.047416 0.138401,-0.148912 0.345595,-0.228136 0.549776,-0.236651 z m 2.890857,0.0091 c 0.488547,-0.05233 0.904717,0.362572 0.779148,0.862885 -0.084,0.334691 -2.048517,2.889312 -2.350187,3.056494 -0.292086,0.161852 -0.392019,0.162804 -0.666282,0.0073 -0.649547,-0.368373 -0.539381,-0.742639 0.700868,-2.368433 0.591996,-0.776024 1.187712,-1.45471 1.323461,-1.507323 0.07142,-0.02773 0.143202,-0.0435 0.21299,-0.05098 z m 1.128674,8.122807 c -13.950076,0 -13.398635,-0.02112 -13.693349,0.529744 -0.152105,0.28415 -0.148762,6.157778 0.0036,6.442541 0.06263,0.117041 0.2675,0.306133 0.455112,0.420515 0.33271,0.202856 0.655087,0.207148 13.110807,0.20751 14.008124,4.41e-4 13.323369,0.03235 13.669678,-0.637149 0.148991,-0.288012 0.16919,-0.741954 0.142025,-3.335046 l -0.03101,-3.003707 -0.349543,-0.311281 -0.351324,-0.313095 z m 3.367813,1.181473 c 0.08857,-6.7e-4 0.19569,0.0083 0.334947,0.02014 0.421594,0.03488 0.661603,0.117898 0.85197,0.296691 0.562967,0.528889 0.409974,1.414278 -0.304021,1.753093 -0.442832,0.210117 -0.760043,0.21632 -1.206952,0.02179 -0.774249,-0.336942 -0.914267,-1.135543 -0.30583,-1.743975 0.268252,-0.268242 0.364143,-0.345705 0.629871,-0.347697 z m 4.066862,0 c 0.590965,-0.03882 1.175345,0.267746 1.347127,0.788258 0.148363,0.449484 0.005,0.835972 -0.427798,1.155977 -0.820436,0.606691 -2.031614,0.0977 -2.031614,-0.853787 0,-0.470239 0.151135,-0.734395 0.533387,-0.932065 0.183317,-0.09479 0.381915,-0.145425 0.578898,-0.158398 z m 3.320482,0 c 0.08856,-6.7e-4 0.195663,0.0083 0.334957,0.02014 0.421586,0.03488 0.6616,0.117898 0.85197,0.296691 0.562968,0.528889 0.409965,1.414278 -0.304019,1.753093 -0.442833,0.210117 -0.760046,0.21632 -1.206951,0.02179 -0.774254,-0.33695 -0.914272,-1.135553 -0.305802,-1.74399 0.26824,-0.26824 0.364141,-0.345699 0.629873,-0.347691 z m -11.809192,0.531537 c 0.295448,0 0.739097,0.471895 0.739097,0.786429 0,0.238138 -1.380711,2.179559 -2.124451,2.987345 -0.50762,0.551327 -1.301617,0.298606 -1.301617,-0.415058 0,-0.236785 0.250967,-0.649811 0.972116,-1.59835 1.091986,-1.436309 1.407034,-1.760366 1.714855,-1.760366 z m -8.82367,0.0274 c 0.113042,0.01089 0.222054,0.0705 0.347703,0.163809 0.528311,0.392585 0.43874,0.709505 -0.586182,2.064384 -0.509386,0.673358 -1.051074,1.356318 -1.203311,1.518243 -0.332419,0.353564 -0.785634,0.386733 -1.092263,0.08007 -0.405399,-0.405412 -0.28385,-0.708241 0.906579,-2.261002 0.919105,-1.198857 1.288351,-1.598826 1.627474,-1.565579 z m 2.905418,0.01815 c 0.273843,0.0083 0.565232,0.179158 0.682665,0.436904 0.170041,0.373185 0.0085,0.669797 -1.221513,2.248243 -0.908638,1.166054 -1.036311,1.287171 -1.378073,1.31618 -0.272294,0.02344 -0.430832,-0.02938 -0.575257,-0.189324 -0.391361,-0.432447 -0.268789,-0.736008 0.899295,-2.240959 0.604241,-0.778505 1.204031,-1.463328 1.332561,-1.521892 0.08042,-0.03667 0.169041,-0.05185 0.260322,-0.04919 z m 2.863554,0.0019 c 0.258603,-0.01319 0.585667,0.125124 0.71361,0.316726 0.250454,0.375091 0.06445,0.777649 -0.99942,2.151763 -0.592314,0.765048 -1.132854,1.425426 -1.201489,1.469094 -0.432363,0.275074 -1.141416,-0.103705 -1.141416,-0.609849 0,-0.375901 2.169345,-3.224402 2.52313,-3.313202 0.03333,-0.0083 0.06864,-0.01287 0.105586,-0.01421 z" />
</svg>
